<?xml version="1.0" encoding="utf-8"?>
<!-- Generator: Adobe Illustrator 23.0.1, SVG Export Plug-In . SVG Version: 6.00 Build 0)  -->
<svg version="1.1" id="Layer_1" xmlns="http://www.w3.org/2000/svg" xmlns:xlink="http://www.w3.org/1999/xlink" x="0px" y="0px"
	 viewBox="0 0 500 500.8" style="enable-background:new 0 0 500 500.8;" xml:space="preserve">
<circle style="opacity:0.52;fill:#EEEEEE;" cx="348.4" cy="373.8" r="70.5"/>
<g>
	<g>
		<defs>
			
				<rect id="SVGID_1_" x="74.8" y="75.2" transform="matrix(0.7071 -0.7071 0.7071 0.7071 -103.819 250.11)" width="350.4" height="350.4"/>
		</defs>
		<clipPath id="SVGID_2_">
			<use xlink:href="#SVGID_1_"  style="overflow:visible;"/>
		</clipPath>
		<path style="clip-path:url(#SVGID_2_);fill:#424242;" d="M217.2,131.4c-2.8-2.8-6.5-4.3-10.5-4.3c-8.2,0-14.8,6.6-14.8,14.8
			c0,2.8,2.3,5.1,5.1,5.1c2.8,0,5.1-2.3,5.1-5.1c0-2.5,2-4.6,4.6-4.6c1.2,0,2.4,0.5,3.2,1.3c0.9,0.9,1.3,2,1.3,3.2
			c0,2.8,2.3,5.1,5.1,5.1c1.4,0,2.7-0.6,3.6-1.5c0.9-0.9,1.5-2.2,1.5-3.6C221.5,137.9,220,134.2,217.2,131.4L217.2,131.4z
			 M217.2,131.4"/>
		<path style="clip-path:url(#SVGID_2_);fill:#424242;" d="M346.5,111.2c-5.2-12.2-12.6-23.4-22.1-33.1
			C305.8,59,281.3,48,255.2,46.7c0.2-7.2,2.1-14.3,5.6-20.6c1.4-2.5,0.5-5.6-2-7c-2.5-1.4-5.6-0.5-7,2c-4.3,7.8-6.7,16.6-6.9,25.5
			c-40.9,2-75.8,28-91.3,64.5c-8.9,1-17.1,5-23.5,11.4c-0.1,0.1-0.3,0.3-0.4,0.4c-7.2,7.5-11.2,17.3-11.2,27.7
			c0,17.7,11.4,32.7,27.6,37.9c-2.3,2.1-4.2,4.7-5.6,7.6c-10.1,22.3-17.9,62.1-17.6,90.5c0.2,15.6,6.9,30.5,18.6,41
			c3.4,3.1,7.3,6.4,11.7,9.8c-0.7,18.3,1.8,38.1,7,54.6c3.4,11,11.2,30,24.4,34.6c0.1,0,0.1,0,0.2,0.1
			c11.8,25.4,37.1,41.7,65.2,41.6c19.5,0,37.6-7.8,50.8-21c5.9-5.9,10.8-12.8,14.4-20.7c0.1,0,0.1,0,0.2-0.1c3.2-1.1,6.2-3.1,9.1-6
			c7.2-7.2,13.3-19.6,17.4-35.8c3.8-15,5.5-31.7,4.9-47.3c4.3-3.5,8.2-6.8,11.7-9.8c0.8-0.7,1.6-1.4,2.3-2.2
			c10.3-10.3,16.2-24.3,16.3-38.8c0.2-16.3-2.3-36.7-6.7-56.1c-0.6-2.8-3.4-4.5-6.1-3.9c-2.8,0.6-4.5,3.4-3.9,6.1
			c4.2,18.6,6.6,38.2,6.4,53.7c-0.1,12.7-5.7,24.9-15.2,33.4c-1.8,1.6-3.7,3.3-5.8,5c-0.3-2.2-0.6-4.4-1-6.5
			c-2-11.1-7.4-21.2-15.6-29.3c-14-13.7-39.5-35.8-69.2-56.8c-0.3-0.2-0.6-0.4-0.9-0.6c28.1-18.7,53.9-32,75-38.6
			c6.4-2,13.3,1.1,16.1,7.2c1.3,2.9,2.7,6.3,4,10c0.9,2.7,3.9,4.1,6.5,3.2c0.8-0.3,1.4-0.7,1.9-1.2c1.3-1.3,1.9-3.4,1.2-5.3
			c-1.4-4-2.8-7.6-4.3-10.9c-1.4-3-3.3-5.5-5.6-7.6c6.1-1.9,11.6-5.3,16-9.7c7.2-7.2,11.6-17.2,11.6-28.2c0-10.4-4-20.2-11.2-27.7
			C363.9,116.4,355.6,112.3,346.5,111.2L346.5,111.2z M128.7,150.7c0-13.3,8.7-24.5,20.8-28.2c-3,10-4.6,20.6-4.6,31.5
			c0,8.2,0.9,16.3,2.7,24.2C136.4,173.9,128.7,163.2,128.7,150.7L128.7,150.7z M250,458.1c-22.5,0-42.9-12.2-53.7-31.5
			c9.1-2,25-8,53.7-24.2c12.2,6.9,23.3,12.6,32.7,16.7c9.5,4.2,16.2,6.4,21.1,7.5C293,445.9,272.5,458.1,250,458.1L250,458.1z
			 M334.7,320.4c3.4,18.7,2.3,41.8-2.8,61.9c-4.8,18.8-12.4,32.1-19.9,34.7c-0.2,0.1-0.4,0.1-0.6,0.1c-0.3,0-0.5,0-0.8,0.1
			c-5.7,0.2-22.8-4.9-57.9-25c-0.1-0.1-0.3-0.2-0.4-0.3c-4-2.3-8.2-4.8-12.7-7.4c-2.4-1.5-5.6-0.7-7,1.8c-1.5,2.4-0.7,5.6,1.8,7
			c1.8,1.1,3.5,2.1,5.3,3.1c-35.5,19.5-47.4,20.9-50.7,20.7c-0.1,0-0.1,0-0.2,0c-0.5,0-0.7-0.1-0.8-0.2
			c-11.8-4.1-24.3-35.7-24.6-71.5c14.6,11.1,32.1,23.3,50.4,35.1c2.4,1.5,5.6,0.8,7.1-1.6c1.5-2.4,0.8-5.6-1.5-7.1
			c-28.5-18.3-55-37.7-70.9-51.8c-9.5-8.5-15.1-20.7-15.2-33.4c-0.3-27.1,7.1-65,16.7-86.1c2.8-6.1,9.7-9.2,16.1-7.2
			c16.7,5.2,46.7,19.7,80.7,42.4c0.4,0.3,0.7,0.6,1.1,0.8c23.9,16.1,49.8,36.3,74.3,60.2C328.7,303.2,333.1,311.4,334.7,320.4
			L334.7,320.4z M340.7,182.5c-3.2-0.4-6.5-0.1-9.7,0.9c-23.2,7.3-50.4,21.5-81,42.2c-23-15.5-53.1-33.4-81-42.2
			c-3.2-1-6.6-1.3-9.7-0.9c-2.8-9.2-4.2-18.8-4.2-28.5c0-53.6,42.6-97.1,94.9-97.1c52.3,0,94.9,43.6,94.9,97.1
			C344.9,163.7,343.5,173.3,340.7,182.5L340.7,182.5z M371.3,150.7c0,12.5-7.7,23.2-18.8,27.5c1.8-7.9,2.7-16,2.7-24.2
			c0-10.8-1.6-21.4-4.6-31.5C362.7,126.2,371.3,137.4,371.3,150.7L371.3,150.7z M371.3,150.7"/>
	</g>
	<path style="fill:#424242;" d="M282.8,131.4c-2.8,2.8-4.3,6.5-4.3,10.5c0,2.8,2.3,5.1,5.1,5.1c2.8,0,5.1-2.3,5.1-5.1
		c0-1.2,0.5-2.4,1.3-3.2c0.9-0.9,2-1.3,3.2-1.3c1.2,0,2.4,0.5,3.2,1.3c0.9,0.9,1.3,2,1.3,3.2c0,2.8,2.3,5.1,5.1,5.1
		c1.4,0,2.7-0.6,3.6-1.5c0.9-0.9,1.5-2.2,1.5-3.6c0-4-1.5-7.7-4.3-10.5c-2.8-2.8-6.5-4.3-10.5-4.3
		C289.3,127.1,285.6,128.6,282.8,131.4L282.8,131.4z M282.8,131.4"/>
	<path style="fill:#424242;" d="M256.4,149.9c-1.6,1.9-4,2.9-6.4,2.9c-2.5,0-4.8-1.1-6.4-2.9c-1.9-2.1-5.1-2.4-7.2-0.5
		c-2.1,1.9-2.4,5.1-0.5,7.2c3.6,4.1,8.7,6.4,14.1,6.4c5,0,9.8-2,13.3-5.5c0.3-0.3,0.6-0.6,0.9-0.9c1.9-2.1,1.6-5.4-0.5-7.2
		C261.5,147.5,258.3,147.7,256.4,149.9L256.4,149.9z M256.4,149.9"/>
</g>
<circle style="opacity:0.52;fill:#EEEEEE;" cx="73.3" cy="69.3" r="52.1"/>
<circle style="opacity:0.52;fill:#EEEEEE;" cx="130.2" cy="76.6" r="16.8"/>
</svg>
