<?xml version="1.0" encoding="utf-8"?>
<!-- Generator: Adobe Illustrator 23.0.1, SVG Export Plug-In . SVG Version: 6.00 Build 0)  -->
<svg version="1.1" id="Layer_1" xmlns="http://www.w3.org/2000/svg" xmlns:xlink="http://www.w3.org/1999/xlink" x="0px" y="0px"
	 viewBox="0 0 503.8 503.8" style="enable-background:new 0 0 503.8 503.8;" xml:space="preserve">
<circle style="opacity:0.5;fill:#EEEEEE;" cx="405.8" cy="317.8" r="70.5"/>
<g>
	<g>
		<defs>
			<rect id="SVGID_1_" x="81.7" y="16.8" width="340.4" height="470.2"/>
		</defs>
		<clipPath id="SVGID_2_">
			<use xlink:href="#SVGID_1_"  style="overflow:visible;"/>
		</clipPath>
		<path style="clip-path:url(#SVGID_2_);fill:#424242;" d="M399.9,353.9c-5.7-28.7-31.6-35-34.6-35.6c-0.1,0-0.1,0-0.2-0.1l0,0
			c-0.1,0-1.8-0.5-18.2-4.5l-53.5-13.3v-4.3h55.3c10.6,0,19.3-8.7,19.3-19.3V173.3l0-0.1c0.9-3.7,0.9-7.6,0-11.2l0-0.1V124
			c0-3.2-2.6-5.9-5.9-5.9c-3.3,0-5.9,2.6-5.9,5.9v21.5l-1.5-0.9c-3.6-2.2-7.6-3.6-11.9-4.4l-0.7-0.1l-0.1-0.7
			c-1.6-6.9-7.3-12.2-14.3-13.1c-8.2-1.1-14.5-5.9-18.5-14.2c-1.7-3.4-4.9-5.7-8.7-6c-0.3,0-0.7,0-1,0c-3.5,0-6.6,1.6-8.7,4.4
			c-11.6,15.8-44.9,52.7-102.4,52.7c-3.7,0-6.3-0.1-7.7-0.2l-0.6,0c-0.3,0-0.7,0-1,0c-9.5,0-17.2,7.7-17.2,17.2v15.8
			c0,25,10.4,49.3,28.5,66.6c5.9,5.6,12.5,10.5,19.7,14.3l0.5,0.3v7.3h-55c-4.1,0-7.5-3.4-7.5-7.5V122.1c0-51,41-92.5,91.3-92.5h0.5
			c17.9,0.1,38.5,5.2,52.6,12.9c2.9,1.6,5.6,2.3,8.6,2.3c2,0,4-0.3,6.1-0.7c2.4-0.4,4.9-0.8,7.8-0.8c21.8,0,39.3,22.4,41.4,42.5
			c0,0.3,0,1.6,0,5.9c0,5.4,5.7,5.9,5.8,5.9l-0.8,0.8l0.1,0.1c0.3,0.1,0.5,0.1,0.7,0.1l0.2-1c1.6,0,3-0.6,4.2-1.7
			c1.1-1.1,1.7-2.6,1.7-4.2v-0.2c0-1.4,0-5.8-0.1-6.8c-2.6-25.7-24.6-53.2-53.1-53.2c-5,0-8,0.6-10.2,1c-1.3,0.3-2.3,0.5-3.3,0.5
			c-1.2,0-2.2-0.3-3.3-0.9c-15.7-8.6-38.5-14.3-58.2-14.4l-0.7,0c-27.3,0-53.1,10.9-72.6,30.7c-19.6,19.8-30.4,46-30.4,73.6v154.8
			c0,10.6,8.6,19.3,19.3,19.3h55v4.3l-71.5,17.7c-0.1,0-0.1,0-0.2,0.1l-5.2,1.5c-0.1,0-0.3,0.1-0.4,0.1c-9,3.4-24.8,12.3-29.2,34
			l-15.2,76.3c-4.3,21.8-4.9,24.6-4.9,24.8c-1.3,9.2,0.6,17.3,5.3,22.7c4.7,5.4,12.2,8.3,21.6,8.3h74.5c3.2,0,5.9-2.6,5.9-5.9
			c0-3.2-2.6-5.9-5.9-5.9h-26.9v-66c0-3.2-2.6-5.9-5.9-5.9c-3.2,0-5.9,2.6-5.9,5.9v66h-35.8c-7.2,0-15.4-1.5-15.5-13.5l0-0.1
			c0-2.6,0-2.6,3.7-21.1c2.9-14.5,7.8-38.7,16.6-83.2c3.2-16,14.8-22.6,21.6-25.2l4.8-1.4l41.2-10.2l0.4,0.5
			c17.5,20.6,27.8,32.8,34,40.2c9.5,11.2,9.5,11.2,10.9,12.6l0.2,0.2c6.6,6.5,14.9,10,23.3,10c9.7,0,18.9-4.6,26-12.9l43-50.4
			l41.1,10.2l0.2,0.1c0.1,0,0.3,0.1,0.6,0.2c17.8,5,23.7,17.1,25.6,26.3c8.7,44,13.6,68.3,16.5,82.7c3.8,19,3.8,19,3.8,21.8
			c-0.1,9.4-4.9,13.6-15.6,13.6h-35.6v-66c0-3.2-2.6-5.9-5.9-5.9c-3.2,0-5.9,2.6-5.9,5.9v66H217.4c-3.2,0-5.9,2.6-5.9,5.9
			c0,3.2,2.6,5.9,5.9,5.9h175.7c17,0,27.2-9.4,27.3-25.2c0-4.4-0.1-5.2-4-24.2C413.4,422,408.5,397.8,399.9,353.9z M342.4,152.1
			l1.3,0.4c6.1,1.8,10.8,5.9,12.5,10.8l0.1,0.2v8.2l-0.1,0.2c-1.7,5-6.4,9-12.5,10.8l-1.3,0.4V152.1z M342.4,197.1V195l0.8-0.2
			c4.1-0.8,8-2.2,11.5-4.3l1.5-0.9v87.2c0,4.1-3.4,7.5-7.5,7.5h-55.3v-6.9l0.5-0.3C323.8,261.6,342.4,230.9,342.4,197.1z M198.3,254
			c-15.8-15.1-24.8-36.2-24.8-58.1c0.1-5.3,0.1-8.9,0-11.6c-0.1-4.8-0.1-6.4,1.7-8.2c1-0.9,2.3-1.5,3.7-1.5c0.1,0,0.2,0,0.3,0
			c3,0.2,6,0.3,8.9,0.3c43.7,0,82.8-19.5,110.2-55l0.9-1.2l0.7,1.3c7.4,13,18.3,17,26.1,18c2.6,0.3,4.5,2.5,4.5,5.1v54
			c0,49.1-40.1,78.4-79,78.4C231.6,275.6,213.1,268.1,198.3,254z M269,362.2c-4.8,5.7-10.9,8.8-17,8.8c-6.2,0-12.3-3.1-17.1-8.8
			L219,343.5h65.8L269,362.2z M294.9,331.8h-85.8l-13.2-15.6l21.8-5.4c2.6-0.6,4.5-3.1,4.5-5.8v-22.7l1.3,0.4
			c9.3,3.1,19,4.7,28.7,4.7c9.5,0,19-1.5,28.1-4.5l1.3-0.4l0,1.4c0,8.4,0,13.5,0,16.8c0,5.2,0,5.3,0.3,6.3c0.7,1.9,2.2,3.3,4.1,3.8
			l22,5.4L294.9,331.8z"/>
	</g>
</g>
<circle style="opacity:0.5;fill:#EEEEEE;" cx="66.8" cy="188.6" r="52.1"/>
<circle style="opacity:0.5;fill:#EEEEEE;" cx="416.1" cy="101.1" r="16.8"/>
</svg>
