<?xml version="1.0" encoding="utf-8"?>
<!-- Generator: Adobe Illustrator 23.0.1, SVG Export Plug-In . SVG Version: 6.00 Build 0)  -->
<svg version="1.1" id="Layer_1" xmlns="http://www.w3.org/2000/svg" xmlns:xlink="http://www.w3.org/1999/xlink" x="0px" y="0px"
	 viewBox="0 0 503.8 503.8" style="enable-background:new 0 0 503.8 503.8;" xml:space="preserve">
<circle style="opacity:0.5;fill:#EEEEEE;" cx="92.3" cy="432.8" r="70.5"/>
<circle style="opacity:0.5;fill:#EEEEEE;" cx="444.2" cy="74.8" r="52.1"/>
<circle style="opacity:0.5;fill:#EEEEEE;" cx="44.7" cy="42.1" r="16.8"/>
<g>
	<path style="fill:#424242;" d="M34.6,370.1c3.7,0,6.7-3,6.7-6.7V167h398.4v74.1c0,3.7,3,6.7,6.7,6.7c3.7,0,6.7-3,6.7-6.7V107.8
		c0-22.6-18.4-41-41-41h-17.7v-8.4c0-9-7.3-16.4-16.4-16.4h-12.5c-9,0-16.4,7.3-16.4,16.4v8.4h-44.7v-8.4c0-9-7.3-16.4-16.4-16.4
		h-12.5c-9,0-16.4,7.3-16.4,16.4v8.4h-44.7v-8.4c0-9-7.3-16.4-16.4-16.4h-12.5c-9,0-16.4,7.3-16.4,16.4v8.4h-44.7v-8.4
		c0-9-7.3-16.4-16.4-16.4H95.7c-9,0-16.4,7.3-16.4,16.4v8.4H68.9c-22.6,0-41,18.4-41,41v255.5C27.9,367.1,30.9,370.1,34.6,370.1
		L34.6,370.1z M362.8,58.5c0-1.6,1.3-2.9,2.9-2.9h12.5c1.6,0,2.9,1.3,2.9,2.9v32.8c0,1.6-1.3,2.9-2.9,2.9h-12.5
		c-1.6,0-2.9-1.3-2.9-2.9V58.5z M272.8,58.5c0-1.6,1.3-2.9,2.9-2.9h12.5c1.6,0,2.9,1.3,2.9,2.9v32.8c0,1.6-1.3,2.9-2.9,2.9h-12.5
		c-1.6,0-2.9-1.3-2.9-2.9V58.5z M182.8,58.5c0-1.6,1.3-2.9,2.9-2.9h12.5c1.6,0,2.9,1.3,2.9,2.9v32.8c0,1.6-1.3,2.9-2.9,2.9h-12.5
		c-1.6,0-2.9-1.3-2.9-2.9V58.5z M92.8,58.5c0-1.6,1.3-2.9,2.9-2.9h12.5c1.6,0,2.9,1.3,2.9,2.9v32.8c0,1.6-1.3,2.9-2.9,2.9H95.7
		c-1.6,0-2.9-1.3-2.9-2.9V58.5z M68.9,80.3h10.4v10.9c0,9,7.3,16.4,16.4,16.4h12.5c9,0,16.4-7.3,16.4-16.4V80.3h44.7v10.9
		c0,9,7.3,16.4,16.4,16.4h12.5c9,0,16.4-7.3,16.4-16.4V80.3h44.7v10.9c0,9,7.3,16.4,16.4,16.4h12.5c9,0,16.4-7.3,16.4-16.4V80.3
		h44.7v10.9c0,9,7.3,16.4,16.4,16.4h12.5c9,0,16.4-7.3,16.4-16.4V80.3h17.7c15.2,0,27.5,12.3,27.5,27.5v45.7H41.4v-45.7
		C41.4,92.6,53.7,80.3,68.9,80.3L68.9,80.3z M68.9,80.3"/>
	<path style="fill:#424242;" d="M104.2,432.8H45.4c-2.2,0-4.1-1.8-4.1-4.1v-34.7c0-3.7-3-6.7-6.7-6.7c-3.7,0-6.7,3-6.7,6.7v34.7
		c0,9.7,7.9,17.5,17.5,17.5h58.8c3.7,0,6.7-3,6.7-6.7C111,435.8,107.9,432.8,104.2,432.8L104.2,432.8z M104.2,432.8"/>
	<path style="fill:#424242;" d="M104,186.6H80.6c-3.7,0-6.7,3-6.7,6.7c0,3.7,3,6.7,6.7,6.7H104c3.7,0,6.7-3,6.7-6.7
		C110.7,189.6,107.7,186.6,104,186.6L104,186.6z M104,186.6"/>
	<path style="fill:#424242;" d="M152.6,200.1H176c3.7,0,6.7-3,6.7-6.7c0-3.7-3-6.7-6.7-6.7h-23.4c-3.7,0-6.7,3-6.7,6.7
		C145.8,197.1,148.9,200.1,152.6,200.1L152.6,200.1z M152.6,200.1"/>
	<path style="fill:#424242;" d="M224.6,200.1h23.4c3.7,0,6.7-3,6.7-6.7c0-3.7-3-6.7-6.7-6.7h-23.4c-3.7,0-6.7,3-6.7,6.7
		C217.9,197.1,220.9,200.1,224.6,200.1L224.6,200.1z M224.6,200.1"/>
	<path style="fill:#424242;" d="M296.6,200.1h23.4c3.7,0,6.7-3,6.7-6.7c0-3.7-3-6.7-6.7-6.7h-23.4c-3.7,0-6.7,3-6.7,6.7
		C289.9,197.1,292.9,200.1,296.6,200.1L296.6,200.1z M296.6,200.1"/>
	<path style="fill:#424242;" d="M392.1,186.6h-23.4c-3.7,0-6.7,3-6.7,6.7c0,3.7,3,6.7,6.7,6.7h23.4c3.7,0,6.7-3,6.7-6.7
		C398.9,189.6,395.8,186.6,392.1,186.6L392.1,186.6z M392.1,186.6"/>
	<path style="fill:#424242;" d="M104,220.5H80.6c-3.7,0-6.7,3-6.7,6.7c0,3.7,3,6.7,6.7,6.7H104c3.7,0,6.7-3,6.7-6.7
		C110.7,223.5,107.7,220.5,104,220.5L104,220.5z M104,220.5"/>
	<path style="fill:#424242;" d="M152.6,234H176c3.7,0,6.7-3,6.7-6.7c0-3.7-3-6.7-6.7-6.7h-23.4c-3.7,0-6.7,3-6.7,6.7
		C145.8,231,148.9,234,152.6,234L152.6,234z M152.6,234"/>
	<path style="fill:#424242;" d="M224.6,234h23.4c3.7,0,6.7-3,6.7-6.7c0-3.7-3-6.7-6.7-6.7h-23.4c-3.7,0-6.7,3-6.7,6.7
		C217.9,231,220.9,234,224.6,234L224.6,234z M224.6,234"/>
	<path style="fill:#424242;" d="M296.6,234h23.4c3.7,0,6.7-3,6.7-6.7c0-3.7-3-6.7-6.7-6.7h-23.4c-3.7,0-6.7,3-6.7,6.7
		C289.9,231,292.9,234,296.6,234L296.6,234z M296.6,234"/>
	<path style="fill:#424242;" d="M392.1,220.5h-23.4c-3.7,0-6.7,3-6.7,6.7c0,3.7,3,6.7,6.7,6.7h23.4c3.7,0,6.7-3,6.7-6.7
		C398.9,223.5,395.8,220.5,392.1,220.5L392.1,220.5z M392.1,220.5"/>
	<path style="fill:#424242;" d="M152.8,366.4l34.7,34.7c5,5,11.7,7.8,18.8,7.8c7.1,0,13.8-2.8,18.8-7.8l94.9-94.9
		c10.4-10.4,10.4-27.2,0-37.6c-10.4-10.4-27.2-10.4-37.6,0l-76.2,76.2l-15.9-15.9c-10.3-10.4-27.2-10.4-37.6,0
		C142.4,339.2,142.4,356,152.8,366.4L152.8,366.4z M162.3,338.4c2.5-2.5,5.9-3.8,9.2-3.8c3.3,0,6.7,1.3,9.2,3.8l20.7,20.7
		c2.6,2.6,6.9,2.6,9.5,0l80.9-80.9c5.1-5.1,13.4-5.1,18.5,0c5.1,5.1,5.1,13.4,0,18.5l-94.9,94.9c-2.5,2.5-5.7,3.8-9.2,3.8
		c-3.5,0-6.8-1.4-9.2-3.8l-34.7-34.7C157.2,351.8,157.2,343.5,162.3,338.4L162.3,338.4z M162.3,338.4"/>
	<path style="fill:#424242;" d="M453.3,325.6v-53.8c0-3.7-3-6.7-6.7-6.7c-3.7,0-6.7,3-6.7,6.7V317c-12.3-6.4-26.2-10-41-10
		c-49.3,0-89.5,40.1-89.5,89.5c0,12.9,2.8,25.2,7.7,36.3h-182c-3.7,0-6.7,3-6.7,6.7c0,3.7,3,6.7,6.7,6.7h189.5
		c16.1,23.9,43.4,39.7,74.3,39.7c49.3,0,89.5-40.1,89.5-89.5C488.2,367.7,474.5,342,453.3,325.6L453.3,325.6z M398.7,472.5
		c-41.9,0-76-34.1-76-76c0-41.9,34.1-76,76-76s76,34.1,76,76C474.7,438.4,440.6,472.5,398.7,472.5L398.7,472.5z M398.7,472.5"/>
	<path style="fill:#424242;" d="M398.7,330.3c-36.5,0-66.2,29.7-66.2,66.2c0,36.5,29.7,66.2,66.2,66.2c36.5,0,66.2-29.7,66.2-66.2
		C465,360,435.3,330.3,398.7,330.3L398.7,330.3z M404.8,448.9c0.4-0.9,0.7-1.9,0.7-3v-8.2c0-3.7-3-6.7-6.7-6.7s-6.7,3-6.7,6.7v8.2
		c0,1.1,0.3,2.1,0.7,3c-24.3-2.8-43.6-22.1-46.4-46.4c0.9,0.4,1.9,0.7,3,0.7h8.2c3.7,0,6.7-3,6.7-6.7c0-3.7-3-6.7-6.7-6.7h-8.2
		c-1.1,0-2.1,0.3-3,0.7c2.8-24.3,22.1-43.6,46.4-46.4c-0.4,0.9-0.7,1.9-0.7,3v8.2c0,3.7,3,6.7,6.7,6.7s6.7-3,6.7-6.7v-8.2
		c0-1.1-0.3-2.1-0.7-3c24.3,2.8,43.6,22.1,46.4,46.4c-0.9-0.4-1.9-0.7-3-0.7h-8.2c-3.7,0-6.7,3-6.7,6.7c0,3.7,3,6.7,6.7,6.7h8.2
		c1.1,0,2.1-0.3,3-0.7C448.3,426.8,429,446.1,404.8,448.9L404.8,448.9z M404.8,448.9"/>
	<path style="fill:#424242;" d="M413.6,389.7h-8.1v-6.9c0-3.7-3-6.7-6.7-6.7c-3.7,0-6.7,3-6.7,6.7v13.7c0,3.7,3,6.7,6.7,6.7h14.9
		c3.7,0,6.7-3,6.7-6.7C420.3,392.8,417.3,389.7,413.6,389.7L413.6,389.7z M413.6,389.7"/>
</g>
</svg>
