<?xml version="1.0" encoding="utf-8"?>
<!-- Generator: Adobe Illustrator 23.0.1, SVG Export Plug-In . SVG Version: 6.00 Build 0)  -->
<svg version="1.1" id="Layer_1" xmlns="http://www.w3.org/2000/svg" xmlns:xlink="http://www.w3.org/1999/xlink" x="0px" y="0px"
	 viewBox="0 0 503.8 503.8" style="enable-background:new 0 0 503.8 503.8;" xml:space="preserve">
<circle style="opacity:0.5;fill:#EEEEEE;" cx="79.3" cy="152.3" r="52.1"/>
<circle style="opacity:0.5;fill:#EEEEEE;" cx="27.2" cy="225.6" r="16.8"/>
<circle style="opacity:0.5;fill:#EEEEEE;" cx="377.5" cy="256.5" r="70.5"/>
<g>
	<path style="fill:#424242;" d="M401.2,396.6c-3.2,0-5.8,2.6-5.8,5.8v63.8c0,2.6-2.1,4.7-4.7,4.7h-37.5V336.3c0-3.2-2.6-5.8-5.8-5.8
		c-3.2,0-5.8,2.6-5.8,5.8v134.6h-76.7l22.8-25.1c2.1-2.3,3.1-5.7,2.7-9c0,0,0-0.1,0-0.2l-20.3-120.2l6.3-9.4l0.8,0.6
		c0.3,0.2,0.6,0.5,0.9,0.7c2.6,1.9,4.6,3.3,8.2,3.3c4.1,0,7.9-2.3,9.7-6l21.8-43.7l49.6,19.2c1.1,0.5,28,12.3,28,43.6v45.9
		c0,3.2,2.6,5.8,5.8,5.8c3.2,0,5.8-2.6,5.8-5.8v-45.9c0-39.4-33.7-53.8-35.2-54.4l-81.8-31.7v-20.2l0.4-0.3
		c13.1-10.2,21.5-24.8,23.7-41.1l0.1-0.8l0.8-0.1c6.2-0.4,12-2.8,16.7-6.8c6.1-5.3,9.7-13,9.7-21.1c0-6.7-2.4-13.1-6.8-18.2
		l-0.2-0.3v-25.5c0-45.8-37.3-83.1-83.1-83.1c-45.8,0-83.1,37.3-83.1,83.1v26.2l-0.3,0.3c-4.4,5-6.7,11-6.7,17.5
		c0,8.1,3.5,15.8,9.7,21.1c4.7,4,10.4,6.4,16.7,6.8l0.8,0.1l0.1,0.8c2.2,16.8,11.3,32.2,25,42.1l0.4,0.3v19.2l-81.7,31.7
		c-1.4,0.6-35.2,14.9-35.2,54.3v141.3c0,9,7.3,16.3,16.3,16.3h64.6c3.2,0,5.8-2.6,5.8-5.8c0-3.2-2.6-5.8-5.8-5.8h-15.6V336.3
		c0-3.2-2.6-5.8-5.8-5.8s-5.8,2.6-5.8,5.8v134.6h-37.5c-2.6,0-4.7-2.1-4.7-4.7V324.8c0-31.3,26.8-43.1,28-43.6L186,262l21.8,43.7
		c1.9,3.7,5.6,6,9.7,6c3.6,0,5.6-1.5,8.2-3.4c0.3-0.2,0.6-0.4,0.9-0.7l0.8-0.6l6.3,9.4l-20.4,120.4c-0.4,3.3,0.6,6.6,2.7,8.9
		l22.8,25.1h-29.4c-3.2,0-5.8,2.6-5.8,5.8c0,3.2,2.6,5.8,5.8,5.8h181.2c9,0,16.3-7.3,16.3-16.3v-63.8
		C406.9,399.1,404.3,396.6,401.2,396.6z M307,257.8l-20.9,42l-25.8-18.3l25.8-31.8L307,257.8z M266.9,300.3l-6,9h-18l-6-9l15-10.7
		L266.9,300.3z M225.4,240.6v-14.5l1.4,0.6c7.8,3.1,16.5,4.8,25.3,4.8c8.5,0,17.2-1.8,25-5.2l1.4-0.6v15.1l-26.5,32.7L225.4,240.6z
		 M329.7,148.4c0,4.7-2.1,9.2-5.6,12.3c-2.3,2-5.2,3.3-8.3,3.8l-1.2,0.2v-32.6l1.2,0.2C323.8,133.6,329.7,140.4,329.7,148.4z
		 M187.8,164.7l-1.2-0.2c-8.1-1.3-14-8.1-14-16.1c0-7.3,5.8-13.9,13.9-15.8l1.2-0.3V164.7z M188.1,120l-0.2,0.7l-0.7,0.1
		c-2,0.2-4.4,0.8-6.3,1.4l-1.3,0.4v-18.2c0-39.4,32.1-71.5,71.5-71.5s71.5,32.1,71.5,71.5v17.7l-1.3-0.4c-1.9-0.6-3.9-1-5.9-1.1
		l-0.9-0.1v-0.9c0-5.1,0-5.1-12.6-18.5c-2.4-2.5-5.2-5.5-8.5-9.1c-2.1-2.2-5-3.5-8.1-3.5c-2.1,0-4.2,0.6-6,1.8
		c-21.5,14-46.9,21.7-71.6,21.7c-2.7,0-5.4-0.1-8.1-0.3c-0.3,0-0.6,0-0.8,0C193.8,111.7,189.4,115.1,188.1,120z M199.4,168.9v-45.6
		l1.1,0.1c2.4,0.1,4.9,0.2,7.3,0.2c26.5,0,53.8-8.1,76.9-22.9l0.7-0.4l0.6,0.6c3.3,3.5,6.1,6.5,8.4,9c4.6,4.9,7.3,7.8,8.5,9.2
		l0.2,0.3v49.6c0,28.1-22.9,51-51,51C219.1,219.9,199.4,194,199.4,168.9z M217.7,299.8l-21-42l21-8.1l25.8,31.8L217.7,299.8z
		 M224.8,438.2l19.9-117.3h14.4l19.9,117.3L251.9,468L224.8,438.2z"/>
</g>
</svg>
