<?xml version="1.0" encoding="utf-8"?>
<!-- Generator: Adobe Illustrator 23.0.1, SVG Export Plug-In . SVG Version: 6.00 Build 0)  -->
<svg version="1.1" id="Isolation_Mode" xmlns="http://www.w3.org/2000/svg" xmlns:xlink="http://www.w3.org/1999/xlink" x="0px"
	 y="0px" viewBox="0 0 500.5 297.2" style="enable-background:new 0 0 500.5 297.2;" xml:space="preserve">
<path style="opacity:0.14;fill:#0031FF;" d="M500.2,0h-8.9L251,293c0,0,0,0,0,0L440.5,0h-53.1L251,293c0,0,0,0,0,0l98-293h-43.4
	l-54.6,293c0,0,0,0,0,0L271.9,0h-40.6l19.6,292.9c0,0,0,0,0,0L197.6,0h-43.3l96.5,293c0,0,0,0,0,0L116,0H63.1l187.6,293c0,0,0,0,0,0
	L12.6,0H0.2v59.7l250.4,233.4c0,0,0,0,0,0L0.2,107.7v49l250.4,136.4c0,0,0,0,0,0L0.2,191.4v38.5l250.4,63.3c0,0,0,0,0,0h0.4
	c0,0,0,0,0,0l249.2-61.8v-38.2l-249.2,99.9c0,0,0,0,0,0l249.2-134.3v-48.4L251.1,293.1c0,0,0,0,0,0L500.2,63V0z"/>
</svg>
