<?xml version="1.0" encoding="utf-8"?>
<!-- Generator: Adobe Illustrator 23.0.1, SVG Export Plug-In . SVG Version: 6.00 Build 0)  -->
<svg version="1.1" id="Layer_1" xmlns="http://www.w3.org/2000/svg" xmlns:xlink="http://www.w3.org/1999/xlink" x="0px" y="0px"
	 viewBox="0 0 594.2 704.7" style="enable-background:new 0 0 594.2 704.7;" xml:space="preserve">
<g>
	<g>
		<g>
			<path style="fill:#EEEEEE;" d="M324.8,464c1.8,1.6,3.8,3,5.8,4.4c8.6,5.6,18.9,8.9,29.2,9.1c12.8,0.8,26-5.2,33.8-15.6
				c7.6-10.3,10.9-24.5,5.3-36.8c-5.6-11.9-20.3-19.1-33.2-14.6c0-0.1,0-0.3,0-0.4l-0.1-0.2c13.3-4.6,28.2,2.8,34,15
				c5.7,12.6,2.3,27-5.4,37.4c-7.9,10.5-21.3,16.6-34.3,15.8c-9.3-0.2-18.5-2.9-26.6-7.4c-3.1-1.8-6.1-3.9-8.8-6.2L324.8,464z"/>
			<g>
				<path style="fill:#EEEEEE;" d="M391.3,421.5c-2.6-5.4-7.2-9.4-12.9-11.4c-5.7-2-11.8-1.6-17.2,1c-5.4,2.6-9.4,7.2-11.4,12.9
					c-2,5.7-1.6,11.8,1,17.2c2.6,5.4,7.2,9.4,12.9,11.4c2.3,0.8,4.6,1.2,6.9,1.2c0.6,0,1.1,0,1.5,0c0.1,0,0.2,0,0.3,0
					c2.9-0.2,5.7-0.9,8.4-2.2c5.4-2.6,9.4-7.2,11.4-12.9C394.3,433,393.9,426.9,391.3,421.5z M391.1,422.5c5.1,10.4,0.7,23-9.7,28.1
					c-4,2-8.4,2.5-12.5,1.9c-0.7-0.2-1.4-0.5-2.2-1c-3.4-2-7.1-9.9-2-13.8c2.2-1.7,5.6-1.7,7.4,0.1c1.6,1.5,1.5,4.3,0.2,5.3
					c-1.1,0.9-2.6,0.2-3.2-0.3c-0.4-0.3-1.1,0.6-0.3,1.7c1,1.4,4,1.6,5.7-0.3c1.9-2.1,1.6-6.1-0.8-8.3c-2.6-2.3-7-2.4-9.8-0.3
					c-3.1,2.2-4.3,6.3-3.6,9.7c0.5,2.4,1.6,4.2,3,5.5c-4.2-2-7.8-5.3-10-9.8c-5.1-10.4-0.7-23,9.7-28.1
					C373.5,407.8,386,412.1,391.1,422.5z"/>
			</g>
		</g>
		<g>
			<path style="fill:#EEEEEE;" d="M68,658.3c2.6,14.2,8.9,27.2,17.2,38.7c0.9,1.3,2.4,2,4,2h0c4,0,6.2-4.6,3.9-7.8
				c-10-13.8-14.9-28.1-16.2-41.2c-1.8-17.7,1.4-33,4.7-47c4.4-18.2,13-36.2,21.8-54.1c8.7-17.9,18.4-35.8,22.5-55.2
				c2-9.8,2.6-20.4-1.1-30.2c-3.6-9.8-11.9-17.6-21.7-20.9c-9.8-3.4-20.7-2.6-30.2,1.3c-9.6,3.6-17.9,11.4-21.8,21.1
				c-4.1,9.6-3.9,20.9,0.5,30.4c4.2,9.8,14.7,16.7,25.4,16.3c5.3-0.1,10.5-1.7,14.9-4.9c4.3-3.3,7.1-8.5,7.4-13.8
				c0.3-5.3-1.4-10.9-5.6-14.4c-4.1-3.5-10.3-3.9-14.7-1.3c4.7-2.2,10.4-1.2,14,2.2c3.6,3.4,4.8,8.7,4.3,13.4c-0.5,4.8-3.2,9.2-7,12
				c-3.9,2.7-8.7,4.1-13.4,4c-9.6,0.1-18.7-5.9-22.5-14.7c-4-8.7-4.2-19.1-0.6-27.9c3.5-9,11-16.2,20-19.7
				c8.9-3.8,19.2-4.6,28.4-1.5c9.2,3.1,16.9,10.3,20.1,19.5c3.4,9.1,2.6,19.2,0.3,28.6c-4.8,18.5-13.7,35.4-22.2,52.4
				c-8.6,16.9-17.4,33.7-24.8,51.7C68.2,615.7,64,637.1,68,658.3z"/>
		</g>
		<g>
			<g>
				<g>
					<path style="fill:#EEEEEE;" d="M50.2,545.8c-0.3,1.6-4.1,1-5,1.1c0.2,0.1,0.3,0.3,0.5,0.4c-1.3,0.1-2.6,0.5-3.1,1.8
						c0.3-0.2,0.6-0.3,1-0.4c-1.2,1.2-2.2,3.3-1.5,5.1c0-0.3,0.2-0.5,0.3-0.8c0.1,1.2,0.3,2.5,0.5,3.7c0-0.3,0.2-0.5,0.2-0.8
						c0.3,1.1,0.3,2.3,0.5,3.3c0.2-0.8,0.6-1.3,1.1-1.6c-0.1,0.3-0.1,0.6-0.2,0.8c0.4-0.6,1-1.1,1.6-1.5c0,0.2-0.1,0.4-0.1,0.6
						c0.4-0.4,0.9-0.9,1.4-1.2c-0.1,0.3-0.1,0.6-0.2,0.9c1.2-1.4,2.1-3,2.4-5.5c0,0.3,0.1,0.5,0.1,0.8c0.6-1.9-0.4-4.7,0.8-6.5
						L50.2,545.8z"/>
				</g>
				<g>
					<path style="fill:#EEEEEE;" d="M64.6,550.8c-0.8,1.6-4.7,0-5.6-0.1c0.2,0.1,0.3,0.4,0.5,0.5c-1.4-0.2-2.7-0.1-3.6,1.2
						c0.4-0.2,0.7-0.2,1.1-0.2c-1.6,1-3.2,3.1-3.3,5.2c0.2-0.3,0.4-0.5,0.6-0.8c-0.4,1.4-0.8,2.7-1.2,4.1c0.2-0.3,0.4-0.5,0.5-0.8
						c-0.3,1.3-0.8,2.5-1.3,3.7c0.5-0.9,1.1-1.3,1.8-1.7c-0.2,0.3-0.4,0.6-0.6,0.8c0.7-0.6,1.4-1,2.3-1.4c-0.1,0.2-0.3,0.4-0.4,0.6
						c0.7-0.4,1.3-0.7,2-1c-0.2,0.3-0.4,0.6-0.7,0.8c2.1-1.2,3.9-2.4,5.3-4.9c-0.1,0.3-0.1,0.6-0.2,0.9c1.5-1.7,1.5-5,3.2-6.6
						L64.6,550.8z"/>
				</g>
				<g>
					<path style="fill:#EEEEEE;" d="M47.7,545.2c-1.2-1.6-0.1-4.5-0.9-6.2c0,0.3-0.1,0.6-0.2,0.8c-0.6-2.3-2.2-4-5.6-4.5
						c0.3,0.2,0.5,0.5,0.8,0.7c-1.2-0.1-2.4-0.1-3.6-0.1c0.2,0.1,0.4,0.3,0.6,0.4c-1.5,0.1-3,0.3-4.5,0.4c0.4,0,0.8,0.2,1.2,0.3
						c-1.4,0.3-2.7,0.5-4,0.5c1.1,0.6,2.2,1.2,2.7,2.2c-0.3-0.1-0.8-0.1-1.1-0.2c0.9,0.8,1.7,1.8,2.6,2.7c-0.3-0.1-0.7-0.2-1-0.3
						c0.7,1.7,3.4,2.4,5.2,2.7c-0.4,0-0.8,0.1-1.2,0.2c1.2,0.7,2.6,0.5,3.9,0.1c-0.2,0.2-0.3,0.4-0.4,0.5c0.8-0.4,4.9-1.5,5.2,0.2
						L47.7,545.2z"/>
				</g>
				<g>
					<path style="fill:#EEEEEE;" d="M78.7,573.3c-2.3-1.2-3.2-4.7-4.9-6.2c-1-0.9-2.4-1.4-3.7-1.6c0.2,0.2,0.3,0.4,0.5,0.6
						c-1.4-0.1-2.6,0-4,0.5c0.3,0,0.8,0.2,1,0.2c-1.4,0.4-2.6,1-4,1.5c0.3,0,0.5,0.1,0.8,0.1c-1,0.6-2.1,1-3.1,1.5l0.6,0
						c-0.8,0.5-1.6,1-2.4,1.5c0.3,0,0.6,0,1-0.1c0.6,0,1.1-0.1,1.6,0c-0.2,0.1-0.5,0.2-0.7,0.3c1,0,1.7,0.3,2.3,0.7
						c-0.3,0-0.6,0.1-1,0.1c0.9,0.4,1.8,1,2.9,1.4c-0.4,0-0.8,0-1.2,0c0.8,0.5,2,0.8,3.1,1.2c-0.4,0.1-0.7,0.3-1.2,0.3
						c1.2,0.3,2.7,0.6,4.2,0.4c-0.2,0.1-0.4,0.4-0.6,0.5c2.9-0.1,5.6-2.8,8.6-2.4L78.7,573.3z"/>
				</g>
				<g>
					<path style="fill:#EEEEEE;" d="M32.2,583c1.2-0.8,3-0.3,4.1-0.9c0.6-0.3,1.1-0.9,1.5-1.5l-0.3,0.1c0.3-0.7,0.5-1.3,0.7-2.1
						c-0.1,0.2-0.3,0.4-0.3,0.5c0.2-0.8,0.3-1.5,0.4-2.3l-0.2,0.4c0.1-0.6,0.2-1.2,0.4-1.8l-0.1,0.3c0.1-0.5,0.2-0.9,0.3-1.4
						c-0.1,0.1-0.2,0.3-0.3,0.5c-0.1,0.3-0.3,0.6-0.4,0.8l0.1-0.4c-0.3,0.5-0.6,0.8-0.9,1.1l0.3-0.5c-0.4,0.4-0.9,0.7-1.4,1.1
						l0.4-0.5c-0.4,0.3-1,0.7-1.5,1.1c0.1-0.2,0.1-0.4,0.3-0.6c-0.6,0.5-1.2,1-1.6,1.7c0-0.1,0-0.3,0-0.4c-1,1.2-0.6,3.2-1.5,4.5
						L32.2,583z"/>
				</g>
				<g>
					<path style="fill:#EEEEEE;" d="M52.6,576c0.3-1.2,1.8-2,2.3-3.2c0.3-0.7,0.5-1.6,0.3-2.4l-0.2,0.4c-0.2-0.8-0.4-1.7-1-2.4
						c0.1,0.2,0.1,0.6,0.1,0.7c-0.5-0.7-1.1-1.3-1.6-1.9c0.1,0.2,0.1,0.3,0.2,0.5c-0.5-0.4-1-0.8-1.5-1.1l0.2,0.3
						c-0.5-0.1-0.9-0.3-1.3-0.5c0.1,0.2,0.2,0.4,0.3,0.5c0.2,0.3,0.4,0.5,0.5,0.8c-0.1-0.1-0.2-0.1-0.3-0.2c0.3,0.4,0.3,1,0.3,1.4
						c-0.1-0.1-0.2-0.2-0.3-0.4c0,0.6-0.1,1.3,0.1,1.8c-0.1-0.2-0.2-0.3-0.3-0.5c0,0.5,0,1.1,0.1,1.6c-0.1-0.1-0.3-0.1-0.4-0.3
						c0.1,0.6,0.3,1.1,0.6,1.6l-0.3-0.1c0.6,0.9,2,1.7,2,3.3L52.6,576z"/>
				</g>
				<g>
					<path style="fill:#EEEEEE;" d="M24.7,563.2c0.8,1.3,0.1,3.4,0.5,4.8c0.2,0.8,0.8,1.5,1.4,2c-0.1-0.1,0-0.3-0.1-0.5
						c0.7,0.5,1.4,0.7,2.3,0.8c-0.2-0.1-0.4-0.3-0.5-0.4c0.8,0.2,1.7,0.2,2.5,0.2c-0.1-0.1-0.2-0.2-0.4-0.2c0.7-0.1,1.4,0,2-0.1
						l-0.3-0.1c0.5-0.1,1.1-0.2,1.7-0.3c-0.1-0.1-0.3-0.1-0.5-0.2c-0.3-0.1-0.6-0.2-0.8-0.4c0.1,0,0.3,0,0.4,0
						c-0.5-0.2-0.7-0.5-1-0.9c0.2,0.1,0.4,0.1,0.5,0.2c-0.3-0.4-0.5-0.9-1-1.4c0.2,0.1,0.4,0.2,0.6,0.3c-0.2-0.4-0.7-0.9-1.2-1.3
						c0.3,0.1,0.4,0,0.7,0.1c-0.5-0.5-1.2-1-2.1-1.3c0.1,0,0.3-0.1,0.5-0.1c-1.6-0.8-3.8-0.3-5.2-1.5L24.7,563.2z"/>
				</g>
				<g>
					<path style="fill:#EEEEEE;" d="M32.4,551.5c0.4,1.7-1,3.7-1,5.2c0,0.9,0.3,1.8,0.8,2.5c0-0.2,0.1-0.3,0.1-0.5
						c0.6,0.8,1.1,1.4,2,2c-0.1-0.2-0.3-0.5-0.4-0.6c0.8,0.6,1.5,1.1,2.3,1.7c-0.1-0.1-0.2-0.3-0.3-0.5c0.6,0.4,1.2,0.9,1.8,1.4
						l-0.3-0.4c0.5,0.3,1,0.6,1.5,1c-0.1-0.2-0.2-0.4-0.4-0.6c-0.2-0.3-0.4-0.7-0.6-1c0.1,0.1,0.3,0.2,0.4,0.3
						c-0.4-0.6-0.5-1.2-0.6-1.8c0.1,0.2,0.3,0.4,0.4,0.5c-0.1-0.7-0.1-1.5-0.3-2.4c0.1,0.3,0.3,0.5,0.4,0.7c0-0.7-0.3-1.6-0.5-2.4
						c0.2,0.2,0.4,0.3,0.6,0.5c-0.3-0.9-0.7-1.9-1.4-2.6c0.1,0,0.3,0,0.5,0.1c-1.2-1.6-3.7-1.8-4.8-3.5L32.4,551.5z"/>
				</g>
				<g>
					<path style="fill:#EEEEEE;" d="M43.4,584.6c0.4-0.9,1.6-1.4,2.1-2c0.3-0.4,0.5-0.9,0.5-1.4l-0.2,0.2c0-0.5-0.1-0.9-0.4-1.4
						c0,0.1,0,0.3,0,0.4c-0.2-0.5-0.5-0.9-0.7-1.4c0,0.1,0,0.2,0,0.3c-0.3-0.3-0.4-0.7-0.6-1.1l0,0.2c-0.2-0.3-0.4-0.5-0.6-0.8
						c0,0.1,0,0.2,0.1,0.4c0,0.2,0.1,0.4,0.1,0.6l-0.1-0.2c0,0.4,0,0.6-0.2,0.9l-0.1-0.3c-0.1,0.3-0.3,0.7-0.4,1.1
						c0-0.1,0-0.3,0-0.4c-0.2,0.3-0.2,0.7-0.3,1.2c-0.1-0.1-0.1-0.2-0.2-0.4c-0.1,0.4-0.1,1,0,1.5l-0.2-0.2c0.1,1,1.2,1.9,1.2,3
						L43.4,584.6z"/>
				</g>
				<g>
					<path style="fill:#EEEEEE;" d="M77.8,567.3c1.8-2.5,5.6-2.1,7.7-4.1c-0.3,0-0.6-0.1-0.8-0.1c1.2-0.9,1.8-2.6,2-4.2
						c-0.3,0.4-0.6,0.4-1,0.7c0.1-1.4,0.3-3.2-0.3-4.7c0,0.5-0.2,0.9-0.3,1.4c-0.1-1.6-0.9-3.4-1.5-5.1c0,0.4-0.2,0.7-0.3,1.1
						c-0.5-1.3-1.1-2.5-1.2-3.8c-0.1,0.2-0.3,0.4-0.4,0.6c-0.2-0.8-0.3-1.5-0.4-2.3c0.1-0.5,0-1-0.2-1.4c-0.5,0.7-1.1,1.5-1.8,2.1
						l-0.2-0.9c-0.4,1.1-0.8,2.2-1.5,3.1c0-0.4-0.2-0.7-0.2-1c-0.5,1.4-1.2,2.6-1.7,4c0-0.3-0.2-0.9-0.3-1.3
						c-0.6,1.5-0.8,2.8-0.8,4.3c-0.2-0.3-0.4-0.5-0.6-0.7c0,1.5,0.4,2.9,0.9,4.3c1,2.2,3.5,5.3,2.6,7.8L77.8,567.3z"/>
				</g>
				<g>
					<path style="fill:#EEEEEE;" d="M30.3,552.6c-1.8-1.1-1.6-4-2.8-5.5c0,0.2-0.1,0.4-0.1,0.6c-0.5-0.9-1.6-1.4-2.7-1.5
						c0.3,0.2,0.3,0.5,0.4,0.8c-0.9-0.1-2-0.2-3.1,0.2c0.3,0,0.6,0.2,0.9,0.3c-1.1,0-2.4,0.8-3.6,1.3c0.3,0,0.5,0.2,0.7,0.2
						c-1,0.5-1.8,1-2.7,1.2c0.1,0.1,0.3,0.3,0.4,0.3c-0.5,0.2-1.1,0.3-1.6,0.4c-0.3,0-0.6,0-1,0.3c0.5,0.5,0.9,1,1.3,1.6l-0.6,0.2
						c0.7,0.4,1.5,0.7,2.1,1.2c-0.2,0.1-0.5,0.2-0.7,0.3c1,0.3,1.8,0.8,2.8,1.1c-0.2,0-0.7,0.3-0.9,0.4c1,0.4,2,0.3,3,0.2
						c-0.2,0.2-0.3,0.4-0.5,0.6c1.1-0.2,2.1-0.7,3.1-1.2c1.5-1.1,3.8-3.1,5.5-2.6L30.3,552.6z"/>
				</g>
				<g>
					<path style="fill:#EEEEEE;" d="M23.5,566c-1.7,0.9-3.8-0.3-5.5,0.3c0.2,0.1,0.3,0.2,0.5,0.3c-0.9,0.2-1.7,1-2.3,2
						c0.3-0.2,0.5-0.1,0.7-0.2c-0.5,0.8-0.9,1.8-1,2.9c0.2-0.3,0.4-0.5,0.6-0.7c-0.4,1-0.3,2.3-0.4,3.5c0.1-0.2,0.3-0.4,0.4-0.6
						c0,0.9,0,1.8-0.2,2.6c0.1-0.1,0.3-0.2,0.4-0.3c-0.1,0.5-0.2,1-0.3,1.5c-0.1,0.3-0.2,0.6-0.2,0.9c0.5-0.3,1-0.6,1.5-0.8
						l-0.1,0.6c0.5-0.6,1-1.2,1.6-1.5c0,0.2,0,0.5-0.1,0.7c0.6-0.7,1.3-1.3,1.9-2c0,0.2,0,0.6-0.1,0.9c0.6-0.7,1-1.5,1.5-2.3
						c0,0.2,0.1,0.4,0.2,0.6c0.4-0.9,0.5-1.8,0.5-2.7c-0.1-1.5-0.7-3.9,0.5-5.1L23.5,566z"/>
				</g>
				<g>
					<path style="fill:#EEEEEE;" d="M29.2,582c-0.6,1.3-2.6,1.4-3.5,2.3c0.1,0,0.3,0,0.4,0c-0.5,0.4-0.8,1.2-0.8,2
						c0.1-0.2,0.3-0.2,0.5-0.3c0,0.6,0.1,1.4,0.5,2.2c0-0.3,0.1-0.4,0.1-0.6c0.2,0.8,0.8,1.6,1.3,2.3c0-0.2,0.1-0.3,0.1-0.5
						c0.4,0.6,0.8,1.1,1,1.7c0-0.1,0.1-0.2,0.2-0.3c0.2,0.3,0.3,0.7,0.4,1c0,0.2,0.1,0.4,0.3,0.6c0.3-0.4,0.5-0.7,0.9-1l0.2,0.4
						c0.2-0.5,0.3-1,0.6-1.5c0.1,0.2,0.2,0.3,0.3,0.5c0.1-0.7,0.4-1.3,0.5-2c0,0.1,0.3,0.4,0.3,0.6c0.2-0.7,0-1.3-0.1-2
						c0.1,0.1,0.3,0.2,0.4,0.3c-0.2-0.7-0.6-1.3-1.1-1.9c-0.8-0.9-2.4-2.3-2.2-3.5L29.2,582z"/>
				</g>
				<g>
					<path style="fill:#EEEEEE;" d="M45.8,584.2c0.8,0.8,0.3,2.3,0.8,3.2c0-0.1,0.1-0.2,0.1-0.3c0.2,0.5,0.7,0.9,1.2,1.1
						c-0.1-0.1-0.1-0.3-0.1-0.4c0.5,0.2,1,0.3,1.6,0.2c-0.2-0.1-0.3-0.2-0.4-0.2c0.6,0.1,1.3-0.1,1.9-0.2c-0.1,0-0.2-0.1-0.3-0.2
						c0.5-0.1,1-0.2,1.4-0.2c-0.1-0.1-0.1-0.2-0.2-0.2c0.3,0,0.6,0,0.8,0c0.1,0.1,0.3,0.1,0.5,0c-0.2-0.3-0.4-0.6-0.5-0.9l0.3,0
						c-0.3-0.3-0.6-0.5-0.9-0.9c0.1,0,0.3,0,0.4,0c-0.4-0.3-0.8-0.7-1.2-1c0.1,0,0.4,0,0.5,0c-0.5-0.3-0.9-0.5-1.4-0.6l0.3-0.2
						c-0.5-0.1-1.1,0-1.7,0.1c-0.9,0.3-2.2,1.1-3.1,0.6L45.8,584.2z"/>
				</g>
				<g>
					<path style="fill:#EEEEEE;" d="M62.1,549.1c0.8-2.3,4-2.8,5.6-4.5c-0.2,0-0.5,0-0.8,0c0.8-0.8,1.1-2.1,1.1-3.3
						c-0.2,0.3-0.5,0.4-0.8,0.6c-0.1-1.1-0.3-2.3-1-3.4c0,0.4-0.1,0.7-0.1,1c-0.3-1.2-1.4-2.4-2.2-3.5c0,0.3-0.1,0.5-0.1,0.8
						c-0.7-0.9-1.3-1.7-1.6-2.6c-0.1,0.2-0.2,0.3-0.3,0.5c-0.3-0.5-0.5-1-0.7-1.6c0-0.3-0.1-0.7-0.4-1c-0.5,0.6-1,1.2-1.6,1.7
						l-0.3-0.6c-0.3,0.9-0.5,1.7-1.1,2.5c-0.1-0.2-0.3-0.5-0.4-0.7c-0.3,1.1-0.7,2.2-0.8,3.3c-0.1-0.2-0.4-0.6-0.6-0.9
						c-0.2,1.2,0,2.2,0.3,3.3c-0.2-0.1-0.5-0.3-0.7-0.4c0.4,1.1,1.1,2.1,1.9,3.1c1.4,1.4,4.3,3.2,4.2,5.3L62.1,549.1z"/>
				</g>
				<path style="fill:#EEEEEE;" d="M52.3,573.1c-0.2,0-0.3,0.4-0.3,0.8c0.1,6.8-6.6,11.4-12.6,11.3c-6.5,0.1-11.8-4.9-13.9-10.4
					c-2.4-5.6-1.7-12.4,1.6-17.5c3.4-5.1,8.6-8.6,14.4-10.3c5.8-1.7,12.1-1.3,17.7,1c5.6,2.3,10.2,6.6,13.5,11.5
					c6.8,9.8,8.6,22.9,4.6,34.1c-0.1,0.4-0.1,0.8,0.1,0.9l0,0c0.2,0.1,0.5-0.2,0.6-0.6c4.1-11.5,2.3-24.8-4.7-34.8
					c-3.4-5-8-9.4-13.8-11.8c-5.7-2.4-12.2-2.8-18.2-1c-6,1.7-11.3,5.3-14.9,10.6c-3.5,5.3-4.1,12.4-1.7,18.3
					c2.2,5.8,7.8,11.1,14.7,10.9c6.4,0.1,13.6-4.8,13.5-12.2C52.8,573.4,52.6,573.1,52.3,573.1L52.3,573.1z"/>
			</g>
		</g>
		<g>
			<g>
				<path style="fill:#EEEEEE;" d="M68.2,449c-1.4,2.2-2.3,4.6-2.7,7.1c-0.5,2.4-0.2,5.2,1.2,7.4c1.4,2.2,3.6,3.9,6.1,4.5
					c2.5,0.8,5.5,0,6.9-2.3c0.7-1.1,1.2-2.4,0.9-3.8c-0.2-1.3-1.3-2.4-2.6-2.8c-1.3-0.5-2.9,0.5-2.9,1.9c-0.1,0.7,0.5,1.3,1.1,1.3
					c0.7,0.1,1.1-1,0.4-1c0.6,0.2,0,1-0.4,0.8c-0.5-0.1-0.9-0.6-0.8-1.1c0.2-1.1,1.3-1.7,2.4-1.3c1.1,0.3,1.9,1.2,2.1,2.3
					c0.2,1.1-0.2,2.3-0.8,3.3c-1.3,2-3.9,2.9-6.3,2.1c-2.4-0.6-4.5-2.2-5.6-4.3c-2.3-4.2-0.8-10.2,2.5-13.5c1.3-1.3,2.8-2.5,4.8-3.6
					c2-1,4.6-1.9,7.8-1.6c0.1-1.8,0.1-0.3,0.2-2.1C77.1,441.9,71.1,444.3,68.2,449z"/>
			</g>
		</g>
		<g>
			<path style="fill:#EEEEEE;" d="M40.1,506.4c4.3-1.2,7.5-4.6,9-8c1.5-3.5,1.4-6.8,0.9-9c-0.4-1.7-0.9-2.7-1.1-3.1
				c-0.1-0.1-0.1-0.1-0.1-0.1c0,0,0,0,0,0c0,0,0,0,0,0c-0.1,0.1,0,0.7,0.2,1.8c0,0.7-0.2,1.4-0.6,2.2c-0.5,1-1.6,1.9-2.9,2.2
				c-0.6,0.1-1.3,0.1-1.8-0.1c-0.6-0.2-1-0.5-1.4-1c-0.3-0.4-0.5-0.9-0.5-1.3c0-0.4,0.1-0.8,0.3-1.1c0.1-0.2,0.2-0.3,0.3-0.4
				c0,0.1,0,0.2,0,0.3c0.1,0.4,0.5,0.7,0.9,0.6c0.4-0.1,0.7-0.5,0.6-0.9c-0.1-0.5-0.6-0.9-1.1-0.8c-0.3,0-0.6,0.1-0.8,0.3
				c-0.3,0.2-0.6,0.5-0.8,0.9c-0.2,0.4-0.3,1-0.2,1.5c0.1,0.6,0.4,1.2,0.8,1.7c0.5,0.5,1.2,0.9,1.9,1.1c0.7,0.2,1.5,0.2,2.3,0
				c1.5-0.4,2.6-1.6,3.1-2.8c0-0.1,0.1-0.2,0.1-0.3c0,2.1-0.3,4.9-1.8,7.7c-1.6,2.8-4.6,5.5-8.2,6.2c-1.7,0.3-3.6,0.2-5.2-0.3
				c-1.6-0.6-3-1.6-4-2.8c-0.9-1.2-1.4-2.6-1.4-3.8c-0.1-1.2,0.2-2.3,0.7-3.1c0.3-0.5,0.6-0.8,1-1.1c-0.1,0.3-0.1,0.6,0,0.9
				c0.3,1.2,1.4,1.9,2.6,1.7c1.2-0.3,1.9-1.4,1.7-2.6c-0.3-1.6-1.7-2.5-3.3-2.4c-0.8,0-1.6,0.3-2.4,0.8c-0.9,0.6-1.7,1.5-2.2,2.7
				c-0.6,1.2-0.8,2.8-0.6,4.4c0.3,1.7,1.1,3.5,2.4,5c1.4,1.5,3.4,2.7,5.4,3.2C35.8,507,38.1,506.9,40.1,506.4z"/>
		</g>
		<g>
			<g>
				<path style="fill:#EEEEEE;" d="M101.8,470c-0.8-0.2-1.4-1.2-1-1.9c0.7-1.8,2.9-1.8,4.1-0.3c2.6,3-2.1,7.6-5.5,6.2
					c-3.9-1.1-6.4-5.6-5.3-9.4c0.9-4.1,4.4-7.5,8.2-8.8c8-2.7,16.6,3.3,19.9,9.1c3.7,6.1,3.5,12.5,2.9,16.1c2.2-9.2-1.7-17.5-6.9-22
					c-5.3-4.6-11.8-6-16.7-4.2c-4.9,1.7-8.1,5.6-9.2,9.4c-1.2,3.8,0.2,7.5,2.3,9.9c4.3,5.2,11.5,3.7,14,0.1c3.1-3.4,2-8.6-0.7-10.6
					c-2.7-2-4.3-1.5-4.5-1.3c-0.2,0.3,0.4,0.8,0.2,1.2c-0.1,0.5-1.1,0.5-2.7,1.9c-0.7,0.7-1.7,2.1-1,3.8c0.4,0.7,1.2,1.6,2.2,1.3
					c1-0.1,1.8-1.7,0.6-2.2C103.7,469,102.5,470.3,101.8,470z"/>
			</g>
		</g>
		<g>
			<g>
				<path style="fill:#EEEEEE;" d="M58.5,619.7c2,1.1,4.5,0.3,5.6-1.8c1.1-2,0.3-4.5-1.8-5.6c-2-1.1-4.5-0.3-5.6,1.8
					C55.7,616.1,56.4,618.6,58.5,619.7z"/>
				<path style="fill:#EEEEEE;" d="M58.9,618.9c-1.6-0.8-2.3-2.9-1.4-4.5c0.8-1.6,2.9-2.3,4.5-1.4c1.6,0.8,2.3,2.8,1.4,4.5
					C62.5,619.1,60.5,619.8,58.9,618.9z"/>
			</g>
			<path style="fill:#EEEEEE;" d="M59.4,617.8c1,0.5,2.3,0.1,2.8-0.9c0.5-1,0.1-2.3-0.9-2.8c-1-0.5-2.3-0.1-2.8,0.9
				C58,616,58.4,617.3,59.4,617.8z"/>
		</g>
		<g>
			<g>
				<path style="fill:#EEEEEE;" d="M96.8,614.8c0.5,0.8,1.4,1,2.2,0.6c0.8-0.5,1-1.4,0.6-2.2c-0.5-0.8-1.4-1-2.2-0.6
					C96.6,613.1,96.3,614,96.8,614.8z"/>
				<path style="fill:#EEEEEE;" d="M97,614.6c-0.4-0.6-0.2-1.4,0.4-1.8c0.6-0.4,1.4-0.2,1.8,0.4c0.4,0.6,0.2,1.4-0.4,1.8
					C98.2,615.4,97.4,615.2,97,614.6z"/>
			</g>
			<path style="fill:#EEEEEE;" d="M97.5,614.4c0.2,0.4,0.7,0.5,1.1,0.3c0.4-0.2,0.5-0.7,0.3-1.1c-0.2-0.4-0.7-0.5-1.1-0.3
				C97.4,613.5,97.2,614,97.5,614.4z"/>
		</g>
		<g>
			<g>
				<path style="fill:#EEEEEE;" d="M105.5,627.3c-0.5,1.8,0.6,3.7,2.5,4.1c1.8,0.5,3.7-0.6,4.1-2.5c0.5-1.8-0.7-3.7-2.5-4.1
					C107.8,624.4,105.9,625.5,105.5,627.3z"/>
				<path style="fill:#EEEEEE;" d="M106.1,627.5c0.4-1.5,1.8-2.3,3.3-2c1.5,0.4,2.3,1.8,2,3.3c-0.4,1.5-1.8,2.3-3.3,2
					C106.6,630.4,105.8,629,106.1,627.5z"/>
			</g>
			<path style="fill:#EEEEEE;" d="M107.1,627.7c-0.2,0.9,0.3,1.8,1.2,2.1c0.9,0.2,1.8-0.3,2.1-1.2c0.2-0.9-0.3-1.8-1.2-2.1
				C108.3,626.3,107.3,626.8,107.1,627.7z"/>
		</g>
		<path style="fill:#EEEEEE;" d="M74.7,484.4c0.1,1.3,0.4,2.6,0.8,3.8c0,0,0,0,0,0c-1-2-1.6-4.4-1.3-6.8c-0.2,0.2-0.4,0.3-0.6,0.5
			c-1.2,1.1-2.4,2.2-3.3,3.5c-0.9,1.3-1.7,2.8-1.8,4.5c0,0,0,0-0.1,0c-0.1-1.7,0.5-3.4,1.3-4.8c0.2-0.3,0.3-0.5,0.5-0.8
			c-0.9,0.3-1.9,0.4-2.9,0.5v0c1.2-0.4,2.4-0.6,3.4-1.3c0,0,0,0,0,0c0.6-0.9,1.4-1.7,2.1-2.4c0.7-0.7,1.5-1.4,2.3-2.1
			c-1.7,0.1-3.4-0.1-5-0.5l0,0c2.1,0.2,4.2,0.3,6.1-0.3c0.5-0.4,1.1-0.8,1.6-1.2c-10.6-3-16.9,3.3-14.2,14.2l0,0
			c10.9,3.6,17.6-2.3,15.4-13.1c-1.4,0.8-2.7,1.6-4,2.5C74.7,481.8,74.6,483.1,74.7,484.4z"/>
		<path style="fill:#EEEEEE;" d="M167.6,380.2c0.9,0.7,2,1.2,3.1,1.5c0,0,0,0,0,0c-2-0.4-3.9-1.3-5.4-2.8c0,0.2,0,0.4,0,0.7
			c0.1,1.4,0.2,2.9,0.6,4.3c0.4,1.4,1,2.7,2.2,3.7c0,0,0,0,0,0c-1.3-0.8-2.1-2.2-2.6-3.6c-0.1-0.3-0.2-0.5-0.3-0.8
			c-0.3,0.8-0.8,1.5-1.2,2.3l0,0c0.4-1,0.9-2,1-3c0,0,0,0,0,0c-0.3-0.9-0.4-1.9-0.5-2.8c-0.1-0.9-0.2-1.8-0.2-2.7
			c-0.9,1.3-1.9,2.3-3.1,3.2l0,0c1.3-1.3,2.5-2.8,3.1-4.5c0-0.6,0-1.2,0.1-1.8c-7.9,5.7-7,13.5,2.1,17.7v0c8.5-5.6,8-13.5-0.7-17.9
			c-0.2,1.4-0.4,2.8-0.4,4.2C165.8,378.7,166.6,379.5,167.6,380.2z"/>
		<g>
			<path style="fill:#EEEEEE;" d="M104.6,544.7c18.4-23.6,38.6-45,58.5-66.6c19.7-21.7,40-43.3,54.8-68.8
				c7.3-13,12.7-27.7,11.4-42.7c-1-14.9-9.4-29-21.8-37.4c-12.4-8.5-28.1-11.5-42.9-9.6c-14.9,1.5-29,9.1-38,21
				c-9.1,11.7-13.2,27.2-10.8,41.9c1.9,14.7,13,27.4,27.3,31.3c7,2,14.8,2,21.7-0.4c6.9-2.5,12.7-8,15.4-14.9
				c2.7-6.8,3-15.1-0.9-21.7c-3.9-6.6-12.1-10.4-20-9.1c7.7-2,16.7,1.2,21.4,8.1c4.8,7,4.9,16,2.3,23.7c-2.7,7.8-9,14.4-16.8,17.5
				c-7.9,3-16.3,3.2-24.3,1.1c-16.1-3.9-29-18.5-31.1-34.9c-2.6-16,1.9-32.9,11.9-45.6c9.9-12.8,25.4-20.9,41.3-22.3
				c15.7-1.8,32.3,1.5,45.5,10.7c13.2,9,22.4,24.1,23.6,40.1c1.6,16.1-3.9,31.7-10.9,45.4c-14.2,27.2-36.2,49.8-56.6,72.8
				c-20.6,22.9-40.9,46.2-55.1,71.4c-10.8,19.5-21.9,40.9-26.7,68.1c-3.4,19.7-2.2,42.8,6.6,67.1c2.3,6.3-3.6,12.5-10,10.8h0
				c-1.5-0.4-2.8-1.5-3.3-3c-7.9-21-12-43.5-9.9-66.2C70.1,599.6,85.3,569.3,104.6,544.7z"/>
		</g>
		<path style="fill:#EEEEEE;" d="M125.2,333.7c-4.6,2.7-10.7,4.7-16.5,4.6c-8.1,0.2-18.7-3.6-25.4-12.1c-1.7-2.1-3.1-4.4-4.2-6.9
			c-1.2-2.5-1.9-5.6-2-8.5c-0.1-5.9,2.4-11.6,6.3-15.3c2-1.9,4.2-3.4,6.6-4.3c2.7-1.1,5.5-1.3,8.1-0.8c5.2,1.1,8.8,4.9,10.1,8.6
			c1.6,4.5-0.4,8.3-2.1,10c-1.8,1.8-3.2,2.1-3.2,2.2c-0.2-0.1,2.7-0.7,4.7-4.6c0.9-1.9,1.3-4.6,0.3-7.4c-1-2.4-2.7-4.7-5.4-6.3
			c-2.6-1.6-6-2.3-9.4-1.7c-3.5,0.8-6.1,2.6-8.6,5c-4.8,4.8-7,12.7-4.7,19.5c-0.7-2.5-0.5-6.5,0.6-9c1.1-2.6,2.6-3.6,3.1-2.1
			c0.4,0.9-0.8,1.2-1.2,1.7c-1,0.8-1.8,2.2-2.3,4c-0.2,0.4-0.4,4.7,0.2,6.5c0.6,1.7,1.4,3.2,2.3,4.7c-1.3-2.7-2.1-6.1-1.8-8.3
			c0.3-2.3,1.2-3.1,2.3-2.1c0.8,0.8-0.2,1.7-0.5,2.5c-0.6,1.4-0.8,3.5-0.3,5.6c0.1,0.4,0.9,2.8,2,4.8c1.4,1.9,3.1,3.6,4.9,5
			c-2.5-2.5-4.3-5.8-4.9-8.2c-0.5-2.4-0.1-3.7,1.6-3.1c1.3,0.4,0.6,2,0.6,2.9c-0.1,1.8,0.5,4.1,1.9,6.3c0.2,0.4,1.9,2.5,3.9,4.2
			c3,1.9,6.3,3.2,9.4,3.9c-4.2-1.4-8.4-4.3-10.3-7.1c-2-2.8-2-4.8,0.2-4.7c1.6,0,1.4,1.9,1.7,3c0.6,2,2.1,4.3,4.5,6.1
			c0.5,0.4,4.4,2.6,7.7,3.3c1.1,0.1,2.2,0.1,3.3,0.2c2.4,0,4.8-0.3,7.1-0.9c-4.8,0.9-11,0-14.6-2.2c-3.7-2.1-4.7-4.5-2.3-5.3
			c1.6-0.6,2.1,1.4,2.8,2.3c1.3,1.8,3.7,3.5,6.9,4.4c0.7,0.4,6.9,0.8,10.5-0.2c2.5-1,4.9-2.1,7.1-3.5c-4.3,2.2-10.5,3.9-14.7,3.1
			c-4.3-0.7-6.1-2.6-4.1-4.3c1.2-1.2,2.5,0.6,3.5,1.2c2,1.2,4.9,2,8.3,1.5c0.8,0,6.9-1.8,10.1-3.6l8.8-4.9
			C134.4,327.6,130,331.1,125.2,333.7z"/>
		<g>
			<g>
				<path style="fill:#EEEEEE;" d="M155,320.6c-2.9,2.7-5.3,5.8-7,9.4c-1.7,3.4-2.5,7.6-1.3,11.4c1.1,3.9,3.7,7.2,7.2,9.2
					c3.3,2.2,8.2,2.3,11.3-0.5c1.5-1.3,2.7-3.1,2.9-5.2c0.2-2.1-0.9-4.2-2.7-5.2c-1.7-1.3-4.6-0.5-5.2,1.6c-0.4,1,0.2,2.2,1.2,2.5
					c1,0.5,2-1,1.1-1.4c0.8,0.5-0.3,1.5-0.9,1c-0.7-0.3-1-1.3-0.7-1.9c0.7-1.6,2.7-2.1,4.1-1c1.5,0.9,2.4,2.6,2.2,4.3
					c-0.1,1.7-1.2,3.4-2.5,4.6c-2.8,2.5-7,2.6-10.3,0.6c-3.3-1.8-5.8-5.1-6.6-8.8c-1.8-7.2,3-15.6,9.3-19.1c2.5-1.4,5.2-2.6,8.6-3.4
					c3.4-0.7,7.7-0.8,12.3,0.9c0.9-2.6,0.3-0.4,1.2-3C171.1,313.6,161.2,314.7,155,320.6z"/>
			</g>
		</g>
		<g>
			<g>
				<path style="fill:#EEEEEE;" d="M243.2,568.2c0.5-0.8,0.1-1.9-0.7-2.3c-0.8-0.4-1.8-0.4-2.5,0c-2,1.2-2,4.3-0.6,5.9
					c1.4,1.7,3.9,2.2,6,1.8c3-0.5,5.2-2.9,5.9-5.8c0.8-2.8,0.6-5.9-0.6-8.5c-2.6-5.8-9.7-8.2-16-8.2c-5.9,0-11.9,2.7-15.9,7.3
					c-2.9,3.3-4.8,7.6-6.1,11.9c-0.4,1.5-0.7,3-0.9,4.6c-0.1,0.9-0.2,1.8-0.2,1.9c0,0.1,0-0.6,0.1-1.6c0.1-1.8,0.4-3.7,0.8-5.5
					c1-4.7,2.7-9.3,5.7-13.3c4.2-5.3,10.9-8.8,18-8.7c3.8,0,7.6,1,10.9,2.9c3.5,1.9,6.1,5.3,7.1,9.1c0.9,3.4,0.4,7.1-1.1,10.2
					c-1.5,3.2-5,5.4-8.5,5.2c-2.4-0.2-5-1.2-6.1-3.5c-1-2.1-0.4-5.4,2.1-6.1c1.5-0.6,3.8,0.7,3.1,2.5c-0.2,0.9-1.4,0.9-1.5,0.7
					C241.8,568.6,242.8,568.9,243.2,568.2z"/>
			</g>
		</g>
		<g>
			<path style="fill:#EEEEEE;" d="M79.3,392.2c-2.9-1.7-5.3-4.1-6.7-7c-1.4-2.8-1.9-5.8-1.6-8.4c0.3-2.5,1.3-4.7,2.7-6.4
				c1.3-1.5,2.9-2.5,4.4-3c1.4-0.5,2.8-0.5,4-0.2c2.4,0.6,4,2.5,3.9,4.9c-0.1,1.8-1.7,3.3-3.5,3.2c-1.8-0.1-3.3-1.7-3.2-3.5
				c0-0.5,0.1-0.9,0.4-1.3c-0.6,0.3-1.3,0.7-1.9,1.3c-1.1,1-2,2.5-2.4,4.3c-0.4,1.9-0.3,4.1,0.6,6.3c0.9,2.3,2.6,4.4,4.7,5.9
				c2.2,1.6,4.9,2.5,7.7,2.7c5.8,0.5,11.3-2.3,14.8-5.8c3.4-3.5,5.1-7.6,5.9-10.7c-0.1,0.1-0.2,0.3-0.3,0.4
				c-1.2,1.5-3.4,2.8-5.8,2.9c-1.2,0-2.4-0.3-3.4-0.9c-1-0.6-1.8-1.4-2.3-2.4c-0.5-1-0.7-2-0.6-2.9c0.1-0.9,0.5-1.7,0.9-2.2
				c0.4-0.5,1-0.9,1.5-1.1c0.5-0.2,1-0.2,1.4-0.1c0.8,0.2,1.4,0.9,1.4,1.7c0,0.6-0.6,1.1-1.2,1.1c-0.6,0-1.1-0.6-1.1-1.2
				c0-0.2,0.1-0.3,0.1-0.5c-0.2,0.1-0.5,0.3-0.7,0.4c-0.4,0.4-0.7,0.9-0.8,1.5c-0.1,0.7-0.1,1.4,0.2,2.2c0.3,0.8,0.9,1.5,1.7,2
				c0.8,0.5,1.7,0.9,2.7,0.9c2,0.2,3.9-0.8,5.2-2c1-1,1.5-2.1,1.8-3c0.3-1.7,0.3-2.7,0.5-2.8c0,0,0,0,0.1,0c0,0,0,0,0,0
				c0,0,0.1,0.1,0.1,0.2c0.3,0.6,0.6,2.3,0.4,5c-0.2,3.4-1.4,8.4-5.1,13c-3.6,4.4-9.8,8.2-16.7,8.2
				C85.7,394.7,82.3,393.9,79.3,392.2z"/>
		</g>
		<g>
			<g>
				<path style="fill:#EEEEEE;" d="M197.9,364.1c1.6,1.2-0.2,3.3-1.8,3c-1.6-0.1-2.5-1.8-2.8-2.9c-0.3-2.7,1.7-4.5,3.1-5.2
					c3-1.4,4.5-0.9,4.9-1.7c0.4-0.6-0.3-1.5,0.2-1.8c0.3-0.3,2.9-0.3,6.2,3.7c3.2,4,2.7,12.2-3.3,16c-5.2,4.4-16.5,3.6-20.8-6
					c-2.1-4.4-2.7-10.5,0.7-15.7c3.2-5.2,9.6-9.8,17.7-10.2c8-0.7,17.1,4.2,23.1,13.3c6,8.8,8.3,22.8,1.2,35.6
					c2.4-5.1,5.4-14.4,2.4-25.1c-2.6-10.1-12.9-22.5-25.9-21.9c-6.3,0.3-12.8,3.9-15.9,9.7c-3.1,5.1-1.3,12.8,4,16.2
					c4.4,3.5,13.4-1.4,10.7-6.9c-1.1-2.8-4.4-3.7-6.2-1.3c-0.8,0.9-0.4,2.6,0.7,3.3C197.1,367,199.3,365.5,197.9,364.1z"/>
			</g>
		</g>
		<path style="fill:#EEEEEE;" d="M149.7,376.4c-0.4,2-0.5,4-0.4,6.1c0,0,0,0,0,0c-0.7-3.5-0.5-7.2,0.9-10.6c-0.4,0.1-0.7,0.3-1,0.5
			c-2.3,1.1-4.5,2.3-6.5,3.9c-1.9,1.6-3.7,3.5-4.5,6c0,0-0.1,0-0.1,0c0.5-2.6,2.1-4.8,4-6.6c0.3-0.3,0.7-0.7,1.1-1
			c-1.5,0.1-3-0.2-4.5-0.4v0c1.9,0,3.8,0.2,5.5-0.5c0,0,0,0,0,0c1.3-1,2.7-1.9,4.2-2.8c1.4-0.8,2.8-1.5,4.3-2.2
			c-2.6-0.5-5-1.6-7.3-2.9l0,0c3,1.2,6.2,2.2,9.3,2c1-0.4,2-0.8,3-1.1c-14.5-8.9-26.5-2.2-27.1,15.3v0c14.7,9.9,27.2,3.9,28.4-13.1
			c-2.4,0.6-4.7,1.3-7,2.1C150.9,372.6,150.1,374.5,149.7,376.4z"/>
		<path style="fill:#EEEEEE;" d="M198.9,534.4c0.4,7.2-1.8,14.8-7,20c-5,5.3-12.3,8.3-19.6,8c-7.3-0.1-14.4-4.4-17.8-10.9
			c-3.4-6.3-3.5-15,1.5-20.6c4.6-5.8,13.2-8,19.7-4.5c7.1,3.4,10,14.6,3.4,20.6c-3.1,2.9-7.9,3.9-12,1.9c-4-1.9-6.4-7.1-4.6-11.5
			c2.2-6,11.3-6.4,13.2-0.8c1,2.4,0.4,5.5-1.8,6.9c-2,1.5-5.2,1.1-6.6-1c-1.4-2-0.6-5.1,1.7-5.7c2.2-0.9,4.7,1.8,3.4,3.8
			c-0.6,1-1.9,1.3-2.8,0.8c-1-0.5-1.1-2-0.3-2.6c0.9-0.7,2.3,0.3,1.8,1.2c-0.6,1.2-2.2-0.5-0.8-0.7l0,0c-1.2,0.3,0.3,1.4,0.5,0.5
			c0.2-0.7-0.7-1.2-1.2-0.7c-1.1,1.3,1.3,2.5,1.9,1c0.6-1.3-0.9-2.7-2.2-2.1c-1.3,0.5-1.7,2.3-0.8,3.5c2,2.7,7-0.5,5-4.1
			c-1.2-3.6-7.5-3.3-9.1,0.9c-1.3,3.2,0.4,7.2,3.4,8.7c3,1.5,7.2,0.9,9.7-1.4c5.6-4.6,3.7-14.7-2.7-18.1c-5.7-3.3-13.9-1.7-18.5,3.6
			c-4.8,5.4-4.9,13.8-1.7,20c3.2,6.4,10.1,10.6,17.2,10.8c14.7,1.2,27.7-12.7,26.2-27.3c-0.4-14.5-12.1-27.5-26.5-29.4
			c-14.2-2.4-29.4,4-37.7,15.8l-0.5-0.3c8.4-11.9,23.7-18.4,38.1-16C186.5,506.5,198.4,519.7,198.9,534.4z"/>
		<g>
			<g>
				<path style="fill:#EEEEEE;" d="M270.5,618.7c2,2,4.3-0.9,4.4-2.5c0.4-1.8-0.3-3.3-0.8-4.2c-1.1-2-1.5-2.7-1.2-3.4
					c0.3-1.1,3.9-1.5-2.5-4c-3.2-0.9-7.6,0.1-10.9,3.8c-2.9,3.4-5.4,8.6-5.2,15.4c0,6.8,4.3,14.7,14.2,20.2
					c9.6,5.7,25.2,5.9,43.8,0.5c-3.8,0.7-10,2-17.7,2.6c-7.6,0.5-17,0.1-24.8-4.5c-3.7-2.2-7.6-5.9-9.7-9.5c-2.1-3.7-2.5-8.4-1-12.7
					c0.8-2.1,2-4.1,3.7-5.8c1.3-1.5,3.1-2.2,5.1-2.1c1.9-0.1,4.6,1.4,5.1,2.8C274,616.6,272.7,620.1,270.5,618.7z"/>
			</g>
		</g>
		<g>
			<g>
				<path style="fill:#EEEEEE;" d="M352.2,556.2c1.3-0.9,5.8-5.2,8-14.4c2.4-8.7,0.8-20.9,0.7-20.8c-0.1,0.1-1-11.7-9.2-25.9
					c-4-7.1-10.1-14.4-15.9-20c14.7,12.2,26.4,28.3,32.3,45.7c6,17.3,6.6,35.1,4,49.6c-5.3,29.6-20.6,45.1-20.1,45
					c0,0-3.5,4.7-10.8,11.6c-7.3,6.7-19.3,15.1-35.6,18.9c-16.1,3.9-36.4,2.7-54.4-6.5c-17.8-9-33.3-25.7-37.7-45.6
					c0.2,0.7,0.4,1.3,0.6,2c-1.8-10-1.9-16.7,0.3-27.8c0.7-6.1,8.4-23.7,20.6-31.6c11.8-8.4,22.2-7.1,21.9-7.4
					c-0.1-0.1,10.2,0.2,15.9,4.8c6.1,4.4,6.9,9.4,6.9,10.8c0.1,2.6,0.2,4.4,0.2,6.8c2.1-0.9,3.7-1.6,4.2-4.4c0.3-1.4,0.4-7-5.5-12.7
					c-5.5-5.8-16.8-7.7-16.6-7.4c0.3,0.2-11.1-2.6-24.8,5.5c-11.7,6.5-20.9,21.3-23.2,29.7c4.6-16.4,15.4-29.2,26.4-35.9
					c11.3-6.7,22.2-7.5,28.8-7.2c43.7,3.7,59.6,48.5,32.9,74.5c13.8-12.4,17.2-30.7,11.3-46.1c-6-15.3-21.6-28.7-44.1-30.2
					c-7.8-0.4-22.5,0.8-35.8,11.7c-13.2,10.3-24.2,29.6-23.7,51.3c0.1,10.8,3.1,21.8,8.6,31.5c5.6,9.7,13.8,17.8,22.8,24
					c18.3,12.7,40.9,16.3,59.2,13c-8.1,2-18.1,2.9-27.2,2.4c-17.5-0.9-30.4-6.3-30.4-6.2c0.1,0.2-13.3-5-23.4-11.1
					c-10.7-6.3-17.9-11.5-19.9-12.1c-3.8-1.8-4.6,0.1-4.3,4.7c4.1,2.8,6.8,4.4,10.8,5.7c2.1,0.5,9.3,4,19.7,8.8
					c10.1,4.9,23.1,8.7,23,8.5c0-0.1,12.6,4.1,29.3,4c16.6,0.5,35.5-6.1,41.2-9.2c6.5-3.1,10.9-6.1,15-9.4
					c13.2-9.8,18.8-18.4,18.9-18.2c-0.3,0,10.6-11.3,17.6-33.6c7.1-21.8,6.8-56.1-11.6-84c-18-27.9-49.4-46.9-77.9-52.4
					c-28.7-6.2-52.9-0.5-64.1,3c-21,6.7-35.7,16.8-47.6,27.7c-11.9,11.1-21.6,23.3-30.4,39.3c9.3-15.7,19.3-27.5,31.3-38.3
					c12-10.6,26.5-20.4,47.2-27c7.2-2.2,19.3-5.4,34.8-5.6c15.4-0.3,34.2,2.3,52.5,10.4c4.4,2.2,8.7,4.7,14.2,8.3
					c5.4,3.2,20.2,15.3,28,28.1c8.2,12.7,9.7,23.5,9.8,23.5c0-0.1,2.4,10.9,0.7,19.2c-1.3,8.6-5.1,13-6.3,14c-2.3,2-3.5,3.6-5.6,5.8
					C348.2,557,349.7,558,352.2,556.2z"/>
			</g>
		</g>
		<g>
			<g>
				<path style="fill:#EEEEEE;" d="M318.5,505.1c-4.7-8.6-9.1-12.5-12-14.2c-2.9-1.8-4.3-1.4-5.2-0.6c-1.8,1.6-1.6,4.9-6.1,0.7
					c-4.8-3.6-6.8-14.3-26.9-24.9c-10-4.8-24.7-9.1-44.4-7.4c-19.2,1.7-45.2,9.7-65.1,32.8c3.3-5,9.9-12.7,20.7-20
					c10.7-7.2,25.6-13.7,43.2-16.2c17.4-2.5,37.6-1.1,56.2,7.1C297.2,470.2,313.4,486.4,318.5,505.1z"/>
			</g>
		</g>
		<g>
			<path style="fill:#EEEEEE;" d="M260.1,483.3c-1.3,2.8-3.3,5.2-5.6,6.9c-2.2,1.6-4.4,2.4-6.3,2.4c-1.8,0-3.4-0.7-4.6-1.7
				c-1.2-1-2.2-2.3-2.7-3.6c-0.5-1.2-0.7-2.5-0.6-3.5c0.2-2.2,1.5-3.9,3.5-4.1c1.5-0.1,2.8,1.1,2.9,2.8c0.1,1.7-1,3.1-2.5,3.2
				c-0.4,0-0.7,0-1.1-0.2c0.3,0.5,0.7,1.1,1.2,1.6c0.9,0.8,2,1.5,3.4,1.6c1.4,0.2,3.1-0.2,4.8-1.2c1.8-1.1,3.3-2.8,4.4-4.9
				c1.1-2.2,1.7-4.7,1.6-7.2c-0.2-5.2-3.4-9.8-6.9-12.5c-3.6-2.8-7.2-3.8-9.7-4.1c-2.5-0.3-3.9-0.1-4-0.3c-0.1-0.2,1.2-1,3.6-1.1
				c2.4-0.2,6.3,0.3,10.6,3.1c4.2,2.7,8.6,7.7,9.4,13.9C261.8,477.2,261.3,480.4,260.1,483.3z"/>
		</g>
		<path style="fill:#EEEEEE;" d="M292.6,588c-1.3,1.6-2.3,3.4-3.1,5.4c0,0,0,0,0,0c1-3.5,2.8-6.8,5.6-9.2c-0.4,0-0.8,0-1.2-0.1
			c-2.6-0.1-5.1,0.1-7.6,0.6c-2.5,0.6-5,1.5-6.8,3.4c0,0,0,0-0.1-0.1c1.6-2.1,4.1-3.4,6.6-4.2c0.5-0.1,0.9-0.3,1.4-0.4
			c-1.4-0.6-2.6-1.5-3.9-2.4l0,0c1.7,0.8,3.4,1.9,5.2,2.1c0,0,0,0,0,0c1.7-0.3,3.4-0.5,5.1-0.6c1.6-0.1,3.2-0.1,4.9,0
			c-2.1-1.7-3.8-3.7-5.3-5.9l0,0c2.2,2.4,4.6,4.8,7.5,6.1c1.1,0.1,2.1,0.2,3.2,0.3c-9.2-14.7-23.1-14-31.6,1.7v0
			c8.9,15.7,23,15.9,31.8,1c-2.4-0.6-4.9-1-7.3-1.2C295.4,585.1,293.9,586.4,292.6,588z"/>
		<path style="fill:#EEEEEE;" d="M307.5,598.9c0.5,1,1.2,2,2,2.9c0,0,0,0,0,0c-1.5-1.3-2.8-3.1-3.3-5.1c-0.1,0.2-0.2,0.4-0.3,0.6
			c-0.7,1.3-1.2,2.6-1.6,4c-0.3,1.4-0.5,2.9,0,4.3c0,0,0,0,0,0c-0.7-1.3-0.7-2.9-0.5-4.4c0-0.3,0.1-0.5,0.1-0.8
			c-0.7,0.6-1.4,1-2.2,1.4l0,0c0.8-0.7,1.8-1.3,2.3-2.2c0,0,0,0,0,0c0.2-0.9,0.6-1.8,0.9-2.7c0.4-0.8,0.8-1.7,1.2-2.5
			c-1.4,0.7-2.8,1-4.3,1.2l0,0c1.8-0.5,3.5-1.2,4.9-2.3c0.3-0.5,0.6-1,0.9-1.5c-9.7,1.1-12.8,8.3-6.9,16.4l0,0
			c10.1-0.7,13.7-7.8,8.3-15.9c-0.9,1.1-1.7,2.2-2.4,3.4C306.7,596.8,307,597.9,307.5,598.9z"/>
		<g>
			<path style="fill:#EEEEEE;" d="M85.3,613c0,0,0.4-2.8,2.1-7.5c1.6-4.6,4.7-11.1,10.4-17.3c5.6-6.2,13.8-12.1,23.9-15
				c5-1.5,10.4-2.2,15.8-2c5.5,0.2,10.9,1.1,15.6,3.8c9.6,5.1,15.5,15.7,15.3,25.6c0.7,10.2-7.3,17.3-14.7,17.7
				c-7.7,1-10.8-5.2-10.1-8.8c0.6-2.7,2.8-2.6,2.9-2.7c0.9-0.5,3.1,0.1,3.1,2.6c0.2,0.5,0.7,0.9,1.7,0.7c0.9-0.1,2.2-1.4,2.5-3.1
				c0.4-1.5,0.1-3.7-1.5-5.5c-1.3-1.8-4.5-2.8-6.4-2.5c-0.5,0.1-2.2,0.2-4.5,1.4c-2.2,1.2-4.8,4.1-5.2,8.3
				c-0.4,3.6,0.8,8.1,4.1,11.6c1.6,1.7,3.9,3.1,6.4,3.9c2.6,0.7,5.1,0.7,7.7,0.5c5.1-0.6,10.4-3.3,14.2-7.7
				c3.9-4.3,5.5-10.9,5.1-16.5c-0.3-11.8-7.8-23.7-18.8-28.9c-5.4-2.8-11.6-3.6-17.3-3.5c-5.8,0.1-11.4,1.1-16.6,2.9
				c-10.4,3.5-18.6,9.9-24,16.5c-5.5,6.6-8.3,13.3-9.8,18C85.5,610.2,85.3,613,85.3,613z"/>
			<g>
				<path style="fill:#EEEEEE;" d="M131.6,589.3c-0.5,0.8-2.3,0.2-4.8-1.1c-2.5-1.3-6.1-3.5-11.6-3.4c-3.1,0.1-6.3,0.8-9.3,1.9
					c-3.3,1.3-6.3,3-8.8,4.9c-2.9,2.2-5,4.7-6.3,6.6c-1.7,2.5-2.3,4-2.2,3.6c0.1-0.5,0.9-2.9,3-6c1.7-2.6,4.3-5.6,7.5-8.2
					c2.8-2.2,6-4.2,9.5-5.7c3-1.3,6.3-2.1,9.4-2.3C128.4,579.2,132.6,587.7,131.6,589.3z"/>
			</g>
		</g>
		<path style="fill:#EEEEEE;" d="M160.1,457.8c-1.9-0.9-3.9-1.5-5.9-1.8c0,0,0,0,0,0c3.6,0.1,7.3,1.2,10.3,3.4
			c-0.1-0.4-0.1-0.8-0.2-1.2c-0.5-2.5-1.2-5-2.3-7.3c-1.1-2.3-2.6-4.5-4.8-5.9c0,0,0-0.1,0-0.1c2.4,1.1,4.2,3.3,5.6,5.5
			c0.3,0.4,0.5,0.8,0.7,1.3c0.3-1.5,0.9-2.9,1.5-4.3l0,0c-0.4,1.9-1.1,3.7-0.8,5.6c0,0,0,0,0,0c0.7,1.5,1.3,3.2,1.7,4.8
			c0.4,1.6,0.8,3.1,1.1,4.7c1.2-2.4,2.8-4.6,4.6-6.5l0,0c-1.9,2.7-3.6,5.6-4.2,8.7c0.2,1.1,0.3,2.1,0.4,3.2
			c12.2-12.3,8.4-25.7-8.7-30.4h0c-13.3,12.2-10.3,25.9,6.2,31.2c0-2.5-0.1-5-0.5-7.4C163.6,459.8,161.9,458.6,160.1,457.8z"/>
		<path style="fill:#EEEEEE;" d="M180.8,582c1.4-0.9,2.6-1.9,3.6-3.1c0,0,0,0,0,0c-1.5,2.1-3.6,4.1-6.5,5.2c0.3,0.1,0.6,0.2,0.9,0.2
			c2.1,0.5,4.2,0.8,6.4,0.8c2.1,0,4.4-0.2,6.2-1.1c0,0,0,0,0,0.1c-1.7,1.2-4,1.6-6.3,1.7c-0.4,0-0.8,0-1.2,0c1,0.6,1.8,1.5,2.7,2.2
			l0,0c-1.3-0.8-2.4-1.8-3.9-2.2c0,0,0,0,0,0c-1.4-0.1-2.9-0.2-4.3-0.4c-1.3-0.2-2.7-0.5-4-0.8c1.4,1.5,2.4,3.1,3.1,4.8l0,0
			c-1.3-2-2.8-3.9-4.9-5.3c-0.9-0.2-1.7-0.5-2.5-0.7c4.5,11.3,16,13.1,26.1,4.1v0c-4.1-11.9-15.5-14.3-25.7-5.8
			c1.9,0.8,3.8,1.5,5.7,2C178,583.5,179.5,582.8,180.8,582z"/>
		<path style="fill:#EEEEEE;" d="M185.1,481.4c1.5-0.9,2.9-2,4.1-3.2c0,0,0,0,0,0c-1.7,2.3-4.2,4.3-7.4,5.5c0.3,0.1,0.7,0.2,1,0.3
			c2.3,0.6,4.6,1,7,1.2c2.4,0.1,4.8,0,7-1c0,0,0,0,0.1,0.1c-2,1.2-4.6,1.6-7,1.6c-0.5,0-0.9,0-1.4,0c1.1,0.8,2,1.7,2.9,2.5l0,0
			c-1.4-0.9-2.6-2.1-4.2-2.6c0,0,0,0,0,0c-1.6-0.1-3.2-0.3-4.7-0.6c-1.5-0.3-2.9-0.6-4.4-1c1.5,1.7,2.5,3.5,3.3,5.4l0,0
			c-1.4-2.2-3-4.4-5.3-5.9c-0.9-0.3-1.9-0.6-2.8-0.9c4.6,12.5,17.3,14.9,28.8,5.4v0c-4.2-13.1-16.7-16.2-28.3-7.3
			c2,0.9,4.1,1.7,6.3,2.4C182,483,183.6,482.3,185.1,481.4z"/>
		<path style="fill:#EEEEEE;" d="M226.8,423.2c1.1-1.1,2.1-2.4,2.8-3.7c0,0,0,0,0,0c-0.9,2.4-2.6,4.7-5.1,6.4c0.3,0,0.6,0,1,0
			c2.1,0,4.2-0.2,6.3-0.6c2.1-0.4,4.2-1.1,5.8-2.5c0,0,0,0,0.1,0c-1.4,1.5-3.6,2.4-5.7,3c-0.4,0.1-0.8,0.2-1.2,0.3
			c1.1,0.4,2.1,1,3.1,1.5l0,0c-1.4-0.5-2.7-1.2-4.2-1.3c0,0,0,0,0,0c-1.4,0.3-2.8,0.4-4.2,0.5c-1.3,0.1-2.7,0.1-4,0.1
			c1.7,1.1,3,2.4,4.1,3.9l0,0c-1.7-1.6-3.6-3.1-5.9-3.9c-0.9,0-1.7-0.1-2.6-0.1c6.9,9.7,18.3,8.9,26.1-1.9v0
			c-6.6-10.4-18.1-10.1-26.1,0.2c2,0.3,4,0.5,6,0.6C224.4,425.3,225.7,424.3,226.8,423.2z"/>
		<g>
			<g>
				<path style="fill:#EEEEEE;" d="M236.7,328.4c0.5-0.2,0.8-0.8,0.6-1.4c-0.2-0.6-0.8-0.8-1.4-0.6c-0.6,0.2-0.8,0.8-0.6,1.4
					C235.5,328.3,236.2,328.6,236.7,328.4z"/>
			</g>
			<g>
				<path style="fill:#EEEEEE;" d="M244.3,338.9c1-0.4,1.5-1.4,1.1-2.4c-0.4-1-1.4-1.5-2.4-1.1c-1,0.4-1.5,1.4-1.1,2.4
					C242.3,338.7,243.3,339.2,244.3,338.9z"/>
			</g>
			<g>
				<path style="fill:#EEEEEE;" d="M245.5,346.4c0.9-0.3,1.3-1.3,1-2.2c-0.3-0.9-1.3-1.3-2.2-1c-0.9,0.3-1.3,1.3-1,2.2
					C243.7,346.2,244.6,346.7,245.5,346.4z"/>
			</g>
			<g>
				<path style="fill:#EEEEEE;" d="M240,361.4c0.8-0.3,1.3-1.2,1-2.1c-0.3-0.8-1.2-1.3-2.1-1c-0.8,0.3-1.3,1.2-1,2.1
					C238.3,361.3,239.2,361.7,240,361.4z"/>
			</g>
			<g>
				<path style="fill:#EEEEEE;" d="M243.3,368c1-0.4,1.5-1.4,1.1-2.4c-0.4-1-1.4-1.5-2.4-1.1c-1,0.4-1.5,1.4-1.1,2.4
					C241.2,367.9,242.3,368.4,243.3,368z"/>
			</g>
			<g>
				<path style="fill:#EEEEEE;" d="M242.1,375.6c0.6-0.2,0.9-0.9,0.7-1.5c-0.2-0.6-0.9-0.9-1.5-0.7c-0.6,0.2-0.9,0.9-0.7,1.5
					C240.8,375.5,241.5,375.8,242.1,375.6z"/>
			</g>
			<g>
				<path style="fill:#EEEEEE;" d="M233.9,386.6c0.8-0.3,1.2-1.2,0.9-2c-0.3-0.8-1.2-1.2-2-0.9c-0.8,0.3-1.2,1.2-0.9,2
					C232.2,386.5,233.1,386.9,233.9,386.6z"/>
			</g>
			<g>
				<path style="fill:#EEEEEE;" d="M236,404.5c0.6-0.2,1-0.9,0.7-1.6c-0.2-0.6-0.9-1-1.6-0.7c-0.6,0.2-1,0.9-0.7,1.6
					C234.6,404.4,235.3,404.7,236,404.5z"/>
			</g>
			<g>
				<path style="fill:#EEEEEE;" d="M234.1,408.9c1.1-0.4,1.6-1.6,1.2-2.7c-0.4-1.1-1.6-1.6-2.7-1.2c-1.1,0.4-1.7,1.6-1.3,2.7
					C231.8,408.8,233,409.3,234.1,408.9z"/>
			</g>
			<g>
				<path style="fill:#EEEEEE;" d="M226.8,422.2c1.1-0.4,1.7-1.7,1.3-2.8c-0.4-1.1-1.7-1.7-2.8-1.3c-1.1,0.4-1.7,1.7-1.3,2.8
					C224.4,422,225.7,422.6,226.8,422.2z"/>
			</g>
			<g>
				<path style="fill:#EEEEEE;" d="M221.8,426.6c0.9-0.3,1.4-1.4,1.1-2.3c-0.3-0.9-1.4-1.4-2.3-1.1c-0.9,0.3-1.4,1.4-1.1,2.3
					C219.8,426.5,220.9,427,221.8,426.6z"/>
			</g>
			<g>
				<path style="fill:#EEEEEE;" d="M214.3,435.2c0.6-0.2,1-0.9,0.7-1.6c-0.2-0.6-0.9-1-1.6-0.7c-0.6,0.2-1,0.9-0.7,1.6
					C213,435.1,213.7,435.4,214.3,435.2z"/>
			</g>
			<g>
				<path style="fill:#EEEEEE;" d="M206.7,442.6c0.8-0.3,1.3-1.2,1-2.1c-0.3-0.8-1.2-1.3-2.1-1c-0.8,0.3-1.3,1.2-1,2.1
					C204.9,442.5,205.8,442.9,206.7,442.6z"/>
			</g>
			<g>
				<path style="fill:#EEEEEE;" d="M194.6,454.5c0.6-0.2,1-0.9,0.7-1.6c-0.2-0.6-0.9-1-1.6-0.7c-0.6,0.2-1,1-0.7,1.6
					C193.3,454.5,194,454.8,194.6,454.5z"/>
			</g>
			<g>
				<path style="fill:#EEEEEE;" d="M181.9,463.4c0.7-0.3,1-1,0.8-1.7c-0.3-0.7-1-1-1.7-0.8c-0.7,0.3-1.1,1-0.8,1.7
					C180.5,463.3,181.2,463.6,181.9,463.4z"/>
			</g>
			<g>
				<path style="fill:#EEEEEE;" d="M171.1,470.4c0.7-0.3,1.1-1.1,0.8-1.8c-0.3-0.7-1.1-1.1-1.8-0.8c-0.7,0.3-1.1,1.1-0.8,1.8
					C169.6,470.3,170.4,470.7,171.1,470.4z"/>
			</g>
			<g>
				<path style="fill:#EEEEEE;" d="M157.1,474.2c0.8-0.3,1.3-1.2,1-2.1c-0.3-0.8-1.2-1.3-2.1-0.9c-0.8,0.3-1.3,1.2-1,2.1
					C155.4,474.1,156.3,474.5,157.1,474.2z"/>
			</g>
			<g>
				<path style="fill:#EEEEEE;" d="M158.7,481.1c0.7-0.3,1.1-1.1,0.8-1.8c-0.3-0.7-1.1-1.1-1.8-0.8c-0.7,0.3-1.1,1.1-0.8,1.8
					C157.1,481,157.9,481.3,158.7,481.1z"/>
			</g>
			<g>
				<path style="fill:#EEEEEE;" d="M141.7,486.3c1-0.4,1.5-1.5,1.2-2.5c-0.4-1-1.5-1.5-2.5-1.2c-1,0.4-1.5,1.5-1.2,2.5
					C139.5,486.2,140.7,486.7,141.7,486.3z"/>
			</g>
			<g>
				<path style="fill:#EEEEEE;" d="M138.8,501.6c0.5-0.2,0.8-0.8,0.6-1.3c-0.2-0.5-0.8-0.8-1.3-0.6c-0.5,0.2-0.8,0.8-0.6,1.3
					C137.7,501.6,138.3,501.8,138.8,501.6z"/>
			</g>
			<g>
				<path style="fill:#EEEEEE;" d="M130.1,500.8c0.9-0.3,1.3-1.3,1-2.2c-0.3-0.9-1.3-1.3-2.2-1c-0.9,0.3-1.4,1.3-1,2.2
					C128.3,500.7,129.3,501.2,130.1,500.8z"/>
			</g>
			<g>
				<path style="fill:#EEEEEE;" d="M127.5,505.4c1-0.4,1.6-1.5,1.2-2.5c-0.4-1-1.5-1.6-2.5-1.2c-1,0.4-1.6,1.5-1.2,2.5
					C125.4,505.3,126.5,505.8,127.5,505.4z"/>
			</g>
			<g>
				<path style="fill:#EEEEEE;" d="M127.1,513.2c0.7-0.3,1-1,0.8-1.7c-0.3-0.7-1-1-1.7-0.8c-0.7,0.3-1,1-0.8,1.7
					C125.6,513.1,126.4,513.5,127.1,513.2z"/>
			</g>
			<g>
				<path style="fill:#EEEEEE;" d="M124.7,520.8c1-0.4,1.6-1.5,1.2-2.6c-0.4-1-1.5-1.6-2.6-1.2c-1,0.4-1.6,1.5-1.2,2.6
					C122.5,520.6,123.7,521.2,124.7,520.8z"/>
			</g>
			<g>
				<path style="fill:#EEEEEE;" d="M107.9,529.2c0.8-0.3,1.3-1.2,1-2.1c-0.3-0.8-1.2-1.3-2.1-0.9c-0.8,0.3-1.3,1.2-1,2.1
					C106.2,529.1,107.1,529.5,107.9,529.2z"/>
			</g>
			<g>
				<path style="fill:#EEEEEE;" d="M101.1,533.6c0.6-0.2,1-0.9,0.7-1.6c-0.2-0.6-0.9-1-1.6-0.7c-0.6,0.2-1,0.9-0.7,1.6
					C99.8,533.5,100.5,533.8,101.1,533.6z"/>
			</g>
			<g>
				<path style="fill:#EEEEEE;" d="M100.2,538.6c0.8-0.3,1.2-1.2,0.9-2c-0.3-0.8-1.2-1.2-2-0.9c-0.8,0.3-1.2,1.2-0.9,2
					C98.5,538.5,99.4,538.9,100.2,538.6z"/>
			</g>
			<g>
				<path style="fill:#EEEEEE;" d="M104.2,548.1c1-0.4,1.6-1.5,1.2-2.6c-0.4-1-1.5-1.6-2.6-1.2c-1,0.4-1.6,1.5-1.2,2.6
					C102,548,103.1,548.5,104.2,548.1z"/>
			</g>
			<g>
				<path style="fill:#EEEEEE;" d="M88.5,559.3c1-0.3,1.4-1.4,1.1-2.4c-0.4-1-1.4-1.4-2.4-1.1c-1,0.3-1.5,1.4-1.1,2.4
					C86.5,559.2,87.5,559.7,88.5,559.3z"/>
			</g>
			<g>
				<path style="fill:#EEEEEE;" d="M82.7,576.7c1-0.4,1.6-1.5,1.2-2.5c-0.4-1-1.5-1.6-2.5-1.2c-1,0.4-1.6,1.5-1.2,2.5
					C80.5,576.6,81.6,577.1,82.7,576.7z"/>
			</g>
			<g>
				<path style="fill:#EEEEEE;" d="M73.1,593.1c0.7-0.2,1-1,0.8-1.7c-0.3-0.7-1-1-1.7-0.8c-0.7,0.2-1,1-0.8,1.7
					C71.7,593,72.4,593.3,73.1,593.1z"/>
			</g>
			<g>
				<path style="fill:#EEEEEE;" d="M70.1,599.6c0.9-0.3,1.4-1.3,1-2.2c-0.3-0.9-1.3-1.4-2.2-1c-0.9,0.3-1.4,1.3-1,2.2
					C68.2,599.5,69.2,599.9,70.1,599.6z"/>
			</g>
			<g>
				<path style="fill:#EEEEEE;" d="M70.6,615.1c1.1-0.4,1.6-1.6,1.2-2.7c-0.4-1.1-1.6-1.6-2.7-1.2c-1.1,0.4-1.6,1.6-1.2,2.7
					C68.3,615,69.5,615.5,70.6,615.1z"/>
			</g>
			<g>
				<path style="fill:#EEEEEE;" d="M76.6,619.6c0.6-0.2,0.9-0.9,0.7-1.5c-0.2-0.6-0.9-0.9-1.5-0.7c-0.6,0.2-0.9,0.9-0.7,1.5
					C75.4,619.6,76,619.9,76.6,619.6z"/>
			</g>
			<g>
				<path style="fill:#EEEEEE;" d="M71.4,632.8c0.7-0.2,1-1,0.8-1.6c-0.2-0.6-1-1-1.6-0.7c-0.7,0.2-1,1-0.8,1.6
					C70.1,632.7,70.8,633.1,71.4,632.8z"/>
			</g>
		</g>
		<g>
			<g>
				<path style="fill:#EEEEEE;" d="M308,458.2c0.7-0.2,1.1-0.9,0.9-1.6c-0.2-0.7-0.9-1.1-1.6-0.9c-0.7,0.2-1.1,0.9-0.9,1.6
					C306.6,458,307.3,458.4,308,458.2z"/>
			</g>
			<g>
				<path style="fill:#EEEEEE;" d="M295.5,444.8c0.5-0.1,0.8-0.7,0.6-1.1c-0.1-0.5-0.6-0.8-1.1-0.6c-0.5,0.1-0.8,0.6-0.6,1.1
					C294.5,444.6,295,444.9,295.5,444.8z"/>
			</g>
			<g>
				<path style="fill:#EEEEEE;" d="M279.1,441.9c0.8-0.2,1.2-1,1-1.8c-0.2-0.8-1-1.2-1.8-1c-0.8,0.2-1.2,1-1,1.8
					C277.5,441.7,278.3,442.1,279.1,441.9z"/>
			</g>
			<g>
				<path style="fill:#EEEEEE;" d="M266.5,450.9c1.1-0.3,1.8-1.5,1.4-2.6c-0.3-1.1-1.5-1.8-2.6-1.4c-1.1,0.3-1.8,1.5-1.4,2.6
					C264.2,450.6,265.4,451.2,266.5,450.9z"/>
			</g>
			<g>
				<path style="fill:#EEEEEE;" d="M259,448.5c0.8-0.2,1.3-1.1,1-1.9c-0.2-0.8-1.1-1.3-1.9-1c-0.8,0.2-1.3,1.1-1,1.9
					C257.3,448.3,258.2,448.8,259,448.5z"/>
			</g>
			<g>
				<path style="fill:#EEEEEE;" d="M242.6,453.1c1.1-0.3,1.7-1.4,1.4-2.5c-0.3-1.1-1.4-1.7-2.5-1.4c-1.1,0.3-1.7,1.4-1.4,2.5
					C240.5,452.8,241.6,453.4,242.6,453.1z"/>
			</g>
			<g>
				<path style="fill:#EEEEEE;" d="M238.5,455.6c0.9-0.3,1.4-1.2,1.2-2.1c-0.3-0.9-1.2-1.4-2.1-1.2c-0.9,0.3-1.4,1.2-1.2,2.1
					C236.6,455.3,237.6,455.8,238.5,455.6z"/>
			</g>
			<g>
				<path style="fill:#EEEEEE;" d="M229,453.6c0.8-0.2,1.2-1,1-1.8c-0.2-0.8-1-1.2-1.8-1c-0.8,0.2-1.2,1-1,1.8
					C227.4,453.4,228.2,453.8,229,453.6z"/>
			</g>
			<g>
				<path style="fill:#EEEEEE;" d="M219.2,454.5c0.8-0.2,1.2-1,1-1.8c-0.2-0.8-1-1.2-1.8-1c-0.8,0.2-1.2,1-1,1.8
					C217.6,454.3,218.4,454.8,219.2,454.5z"/>
			</g>
			<g>
				<path style="fill:#EEEEEE;" d="M209.3,459.9c1-0.3,1.6-1.3,1.3-2.3c-0.3-1-1.3-1.6-2.3-1.3c-1,0.3-1.6,1.3-1.3,2.3
					C207.3,459.6,208.3,460.2,209.3,459.9z"/>
			</g>
			<g>
				<path style="fill:#EEEEEE;" d="M197.6,469.2c0.6-0.2,1-0.8,0.8-1.5c-0.2-0.6-0.8-1-1.5-0.8c-0.6,0.2-1,0.8-0.8,1.5
					C196.3,469,196.9,469.4,197.6,469.2z"/>
			</g>
			<g>
				<path style="fill:#EEEEEE;" d="M186.2,480c1-0.3,1.5-1.3,1.2-2.3c-0.3-1-1.3-1.5-2.3-1.2c-1,0.3-1.5,1.3-1.2,2.3
					C184.3,479.7,185.3,480.3,186.2,480z"/>
			</g>
			<g>
				<path style="fill:#EEEEEE;" d="M173.2,482.3c0.8-0.2,1.2-1,1-1.8c-0.2-0.8-1-1.2-1.8-1c-0.8,0.2-1.2,1-1,1.8
					C171.6,482.1,172.4,482.5,173.2,482.3z"/>
			</g>
			<g>
				<path style="fill:#EEEEEE;" d="M159.1,496c1.1-0.3,1.7-1.5,1.4-2.6c-0.3-1.1-1.5-1.7-2.6-1.4c-1.1,0.3-1.7,1.5-1.4,2.6
					C156.8,495.7,158,496.3,159.1,496z"/>
			</g>
			<g>
				<path style="fill:#EEEEEE;" d="M152.8,501c0.6-0.2,0.9-0.8,0.7-1.4c-0.2-0.6-0.8-0.9-1.4-0.8c-0.6,0.2-0.9,0.8-0.8,1.4
					C151.6,500.8,152.2,501.1,152.8,501z"/>
			</g>
			<g>
				<path style="fill:#EEEEEE;" d="M151.7,512.1c0.6-0.2,1-0.8,0.8-1.4c-0.2-0.6-0.8-1-1.4-0.8c-0.6,0.2-1,0.8-0.8,1.4
					C150.4,511.9,151.1,512.2,151.7,512.1z"/>
			</g>
			<g>
				<path style="fill:#EEEEEE;" d="M144.2,522c0.5-0.2,0.9-0.7,0.7-1.3c-0.2-0.5-0.7-0.8-1.3-0.7c-0.5,0.2-0.9,0.7-0.7,1.3
					C143.1,521.9,143.6,522.2,144.2,522z"/>
			</g>
			<g>
				<path style="fill:#EEEEEE;" d="M132.4,532.7c0.5-0.1,0.8-0.7,0.6-1.2c-0.1-0.5-0.7-0.8-1.2-0.6c-0.5,0.1-0.8,0.7-0.6,1.2
					C131.4,532.5,131.9,532.8,132.4,532.7z"/>
			</g>
			<g>
				<path style="fill:#EEEEEE;" d="M123.4,544.6c0.9-0.3,1.5-1.2,1.2-2.2c-0.3-0.9-1.2-1.5-2.2-1.2c-0.9,0.3-1.5,1.2-1.2,2.2
					C121.5,544.3,122.5,544.9,123.4,544.6z"/>
			</g>
			<g>
				<path style="fill:#EEEEEE;" d="M123.4,554.6c0.9-0.3,1.5-1.2,1.2-2.2c-0.3-0.9-1.2-1.5-2.2-1.2c-0.9,0.3-1.5,1.2-1.2,2.2
					C121.4,554.3,122.4,554.9,123.4,554.6z"/>
			</g>
			<g>
				<path style="fill:#EEEEEE;" d="M118,568c0.7-0.2,1.1-0.9,0.9-1.7c-0.2-0.7-0.9-1.1-1.7-0.9c-0.7,0.2-1.1,0.9-0.9,1.7
					C116.6,567.8,117.3,568.2,118,568z"/>
			</g>
		</g>
		<g>
			<g>
				<path style="fill:#EEEEEE;" d="M62.2,435.9c0.6-0.2,1-0.9,0.8-1.5c-0.2-0.6-0.9-1-1.5-0.8c-0.6,0.2-1,0.9-0.8,1.5
					C60.9,435.7,61.6,436.1,62.2,435.9z"/>
			</g>
			<g>
				<path style="fill:#EEEEEE;" d="M69.3,435.6c1.1-0.3,1.8-1.5,1.4-2.6c-0.3-1.1-1.5-1.8-2.6-1.4s-1.8,1.5-1.4,2.6
					C67.1,435.3,68.2,435.9,69.3,435.6z"/>
			</g>
			<g>
				<path style="fill:#EEEEEE;" d="M79.3,429c0.7-0.2,1.1-0.9,0.9-1.6c-0.2-0.7-0.9-1.1-1.6-0.9c-0.7,0.2-1.1,0.9-0.9,1.6
					C77.9,428.8,78.6,429.2,79.3,429z"/>
			</g>
			<g>
				<path style="fill:#EEEEEE;" d="M84.3,433.4c0.5-0.1,0.8-0.7,0.7-1.2c-0.1-0.5-0.7-0.8-1.2-0.7c-0.5,0.1-0.8,0.7-0.7,1.2
					C83.2,433.2,83.8,433.5,84.3,433.4z"/>
			</g>
			<g>
				<path style="fill:#EEEEEE;" d="M100.3,437.3c0.7-0.2,1.1-0.9,0.9-1.6c-0.2-0.7-0.9-1.1-1.6-0.9c-0.7,0.2-1.1,0.9-0.9,1.6
					C98.9,437.1,99.6,437.5,100.3,437.3z"/>
			</g>
			<g>
				<path style="fill:#EEEEEE;" d="M103.3,444c0.5-0.1,0.8-0.7,0.7-1.2c-0.2-0.5-0.7-0.8-1.2-0.7c-0.5,0.2-0.8,0.7-0.7,1.2
					C102.3,443.9,102.8,444.2,103.3,444z"/>
			</g>
			<g>
				<path style="fill:#EEEEEE;" d="M112.4,447.2c1.1-0.3,1.8-1.5,1.4-2.7c-0.3-1.1-1.5-1.8-2.6-1.4c-1.1,0.3-1.8,1.5-1.5,2.6
					C110.1,446.9,111.3,447.5,112.4,447.2z"/>
			</g>
			<g>
				<path style="fill:#EEEEEE;" d="M121.3,455.1c1.1-0.3,1.7-1.4,1.4-2.5c-0.3-1.1-1.4-1.7-2.5-1.4c-1.1,0.3-1.7,1.4-1.4,2.5
					C119.1,454.8,120.2,455.4,121.3,455.1z"/>
			</g>
			<g>
				<path style="fill:#EEEEEE;" d="M119.6,469.7c0.9-0.3,1.4-1.2,1.1-2c-0.3-0.9-1.2-1.4-2-1.1c-0.9,0.3-1.4,1.2-1.1,2
					C117.8,469.4,118.7,470,119.6,469.7z"/>
			</g>
			<g>
				<path style="fill:#EEEEEE;" d="M121.5,481.4c0.5-0.2,0.8-0.7,0.7-1.3c-0.2-0.5-0.7-0.8-1.2-0.7c-0.5,0.2-0.8,0.7-0.7,1.2
					C120.4,481.2,120.9,481.5,121.5,481.4z"/>
			</g>
			<g>
				<path style="fill:#EEEEEE;" d="M126.1,496.3c0.7-0.2,1.1-0.9,0.9-1.6c-0.2-0.7-0.9-1.1-1.6-0.9c-0.7,0.2-1.1,0.9-0.9,1.6
					C124.7,496.1,125.4,496.5,126.1,496.3z"/>
			</g>
			<g>
				<path style="fill:#EEEEEE;" d="M119.3,505.4c0.8-0.2,1.3-1.1,1.1-1.9c-0.2-0.8-1.1-1.3-1.9-1.1c-0.8,0.2-1.3,1.1-1.1,1.9
					C117.6,505.2,118.5,505.6,119.3,505.4z"/>
			</g>
			<g>
				<path style="fill:#EEEEEE;" d="M120.9,525c1.1-0.3,1.7-1.5,1.4-2.6c-0.3-1.1-1.5-1.7-2.6-1.4c-1.1,0.3-1.7,1.5-1.4,2.6
					C118.6,524.7,119.8,525.3,120.9,525z"/>
			</g>
			<g>
				<path style="fill:#EEEEEE;" d="M112.4,536.1c0.6-0.2,1-0.8,0.8-1.5c-0.2-0.6-0.8-1-1.5-0.8c-0.6,0.2-1,0.8-0.8,1.5
					C111.2,535.9,111.8,536.2,112.4,536.1z"/>
			</g>
			<g>
				<path style="fill:#EEEEEE;" d="M108.6,542.8c1-0.3,1.7-1.4,1.3-2.5c-0.3-1-1.4-1.7-2.5-1.3c-1.1,0.3-1.7,1.4-1.3,2.4
					C106.4,542.5,107.5,543.1,108.6,542.8z"/>
			</g>
			<g>
				<path style="fill:#EEEEEE;" d="M104,543.4c0.5-0.2,0.9-0.7,0.7-1.3c-0.2-0.5-0.7-0.9-1.3-0.7c-0.5,0.2-0.9,0.7-0.7,1.3
					C102.9,543.3,103.5,543.6,104,543.4z"/>
			</g>
			<g>
				<path style="fill:#EEEEEE;" d="M109.4,551.4c1-0.3,1.5-1.3,1.2-2.3c-0.3-1-1.3-1.5-2.3-1.2c-1,0.3-1.5,1.3-1.3,2.3
					C107.4,551.1,108.4,551.7,109.4,551.4z"/>
			</g>
			<g>
				<path style="fill:#EEEEEE;" d="M98.7,558c1-0.3,1.5-1.3,1.2-2.2c-0.3-1-1.3-1.5-2.2-1.2c-1,0.3-1.5,1.3-1.2,2.2
					C96.7,557.8,97.7,558.3,98.7,558z"/>
			</g>
		</g>
		<g>
			<g>
				<path style="fill:#EEEEEE;" d="M294,637.8c1.1-0.3,1.8-1.5,1.4-2.6c-0.3-1.1-1.5-1.8-2.6-1.4c-1.1,0.3-1.8,1.5-1.5,2.6
					C291.7,637.5,292.9,638.2,294,637.8z"/>
			</g>
			<g>
				<path style="fill:#EEEEEE;" d="M305.5,640.6c0.9-0.3,1.4-1.2,1.1-2c-0.3-0.9-1.2-1.4-2-1.1c-0.9,0.3-1.4,1.2-1.1,2
					C303.7,640.4,304.7,640.9,305.5,640.6z"/>
			</g>
			<g>
				<path style="fill:#EEEEEE;" d="M317.3,632.8c0.8-0.2,1.3-1.1,1-1.9c-0.2-0.8-1.1-1.3-1.9-1c-0.8,0.2-1.3,1.1-1,1.9
					C315.6,632.6,316.5,633,317.3,632.8z"/>
			</g>
			<g>
				<path style="fill:#EEEEEE;" d="M320.8,633.7c0.5-0.2,0.8-0.7,0.7-1.3c-0.2-0.5-0.7-0.8-1.3-0.7c-0.5,0.2-0.8,0.7-0.7,1.3
					C319.7,633.5,320.2,633.8,320.8,633.7z"/>
			</g>
			<g>
				<path style="fill:#EEEEEE;" d="M332.8,636.6c0.6-0.2,1-0.8,0.8-1.5c-0.2-0.6-0.8-1-1.4-0.8c-0.6,0.2-1,0.8-0.8,1.4
					C331.5,636.4,332.2,636.8,332.8,636.6z"/>
			</g>
			<g>
				<path style="fill:#EEEEEE;" d="M346.7,633.3c0.5-0.1,0.8-0.6,0.6-1.1c-0.1-0.5-0.6-0.8-1.1-0.6c-0.5,0.1-0.8,0.7-0.6,1.1
					C345.7,633.2,346.2,633.5,346.7,633.3z"/>
			</g>
			<g>
				<path style="fill:#EEEEEE;" d="M354.7,626.2c0.7-0.2,1.1-0.9,0.9-1.7c-0.2-0.7-0.9-1.1-1.7-0.9c-0.7,0.2-1.1,0.9-0.9,1.7
					C353.2,626,353.9,626.4,354.7,626.2z"/>
			</g>
			<g>
				<path style="fill:#EEEEEE;" d="M354.6,620.7c0.6-0.2,1-0.8,0.8-1.4c-0.2-0.6-0.8-1-1.4-0.8c-0.6,0.2-1,0.8-0.8,1.4
					C353.3,620.5,354,620.9,354.6,620.7z"/>
			</g>
			<g>
				<path style="fill:#EEEEEE;" d="M357.9,614.9c0.5-0.1,0.8-0.6,0.6-1.1c-0.1-0.5-0.7-0.8-1.1-0.6c-0.5,0.1-0.8,0.7-0.6,1.1
					C356.9,614.8,357.4,615.1,357.9,614.9z"/>
			</g>
			<g>
				<path style="fill:#EEEEEE;" d="M363.1,607.2c1.1-0.3,1.7-1.5,1.4-2.6c-0.3-1.1-1.5-1.7-2.5-1.4c-1.1,0.3-1.7,1.5-1.4,2.6
					C360.8,606.9,362,607.5,363.1,607.2z"/>
			</g>
			<g>
				<path style="fill:#EEEEEE;" d="M370.9,595.2c0.5-0.1,0.8-0.6,0.6-1.1c-0.1-0.5-0.6-0.8-1.1-0.6c-0.5,0.1-0.8,0.7-0.6,1.1
					C370,595,370.5,595.3,370.9,595.2z"/>
			</g>
			<g>
				<path style="fill:#EEEEEE;" d="M381.1,581.3c0.6-0.2,0.9-0.7,0.7-1.3c-0.2-0.6-0.7-0.9-1.3-0.7c-0.6,0.2-0.9,0.7-0.7,1.3
					C379.9,581.1,380.5,581.5,381.1,581.3z"/>
			</g>
			<g>
				<path style="fill:#EEEEEE;" d="M383.6,577.4c0.9-0.3,1.5-1.2,1.2-2.2c-0.3-0.9-1.2-1.5-2.2-1.2c-0.9,0.3-1.5,1.2-1.2,2.2
					C381.7,577.1,382.7,577.7,383.6,577.4z"/>
			</g>
			<g>
				<path style="fill:#EEEEEE;" d="M377.6,564c0.5-0.1,0.8-0.6,0.6-1.1c-0.1-0.5-0.6-0.8-1.1-0.6c-0.5,0.1-0.8,0.6-0.6,1.1
					C376.6,563.9,377.1,564.2,377.6,564z"/>
			</g>
			<g>
				<path style="fill:#EEEEEE;" d="M385.1,559.7c0.9-0.2,1.3-1.1,1.1-2c-0.3-0.9-1.1-1.3-2-1.1c-0.9,0.2-1.3,1.1-1.1,2
					C383.3,559.4,384.2,559.9,385.1,559.7z"/>
			</g>
			<g>
				<path style="fill:#EEEEEE;" d="M382.8,557.1c1-0.3,1.6-1.4,1.3-2.5c-0.3-1-1.4-1.6-2.4-1.3c-1.1,0.3-1.7,1.4-1.3,2.4
					C380.6,556.8,381.7,557.4,382.8,557.1z"/>
			</g>
			<g>
				<path style="fill:#EEEEEE;" d="M380.5,549.7c0.8-0.2,1.2-1,1-1.8c-0.2-0.8-1.1-1.2-1.8-1c-0.8,0.2-1.2,1.1-1,1.8
					C378.9,549.5,379.7,549.9,380.5,549.7z"/>
			</g>
			<g>
				<path style="fill:#EEEEEE;" d="M379.1,541.1c0.6-0.2,1-0.8,0.8-1.4c-0.2-0.6-0.8-1-1.4-0.8c-0.6,0.2-1,0.8-0.8,1.4
					C377.8,541,378.5,541.3,379.1,541.1z"/>
			</g>
			<g>
				<path style="fill:#EEEEEE;" d="M381.2,537.8c0.8-0.2,1.3-1.1,1-1.9c-0.2-0.8-1.1-1.3-1.9-1c-0.8,0.2-1.3,1.1-1,1.9
					C379.5,537.6,380.4,538,381.2,537.8z"/>
			</g>
			<g>
				<path style="fill:#EEEEEE;" d="M376.5,523.1c0.8-0.2,1.3-1.1,1.1-1.9c-0.2-0.8-1.1-1.3-1.9-1.1c-0.8,0.2-1.3,1.1-1.1,1.9
					C374.8,522.8,375.6,523.3,376.5,523.1z"/>
			</g>
			<g>
				<path style="fill:#EEEEEE;" d="M371.2,508.8c0.9-0.3,1.4-1.1,1.1-2c-0.3-0.9-1.1-1.3-2-1.1c-0.9,0.2-1.4,1.1-1.1,2
					C369.5,508.5,370.4,509,371.2,508.8z"/>
			</g>
			<g>
				<path style="fill:#EEEEEE;" d="M364.4,494.2c0.7-0.2,1.1-1,0.9-1.7c-0.2-0.7-1-1.1-1.7-0.9c-0.7,0.2-1.1,1-0.9,1.7
					C362.9,493.9,363.7,494.4,364.4,494.2z"/>
			</g>
			<g>
				<path style="fill:#EEEEEE;" d="M358,490.5c0.8-0.2,1.2-1,1-1.8c-0.2-0.8-1-1.2-1.8-1c-0.8,0.2-1.2,1-1,1.8
					C356.4,490.2,357.3,490.7,358,490.5z"/>
			</g>
			<g>
				<path style="fill:#EEEEEE;" d="M342,481.5c1.1-0.3,1.8-1.5,1.4-2.6c-0.3-1.1-1.5-1.8-2.6-1.4c-1.1,0.3-1.8,1.5-1.4,2.6
					C339.7,481.1,340.9,481.8,342,481.5z"/>
			</g>
			<g>
				<path style="fill:#EEEEEE;" d="M328.9,467.8c0.5-0.2,0.9-0.7,0.7-1.3c-0.2-0.5-0.7-0.9-1.3-0.7c-0.6,0.2-0.9,0.7-0.7,1.3
					C327.7,467.7,328.3,468,328.9,467.8z"/>
			</g>
			<g>
				<path style="fill:#EEEEEE;" d="M322.5,457.4c0.6-0.2,0.9-0.8,0.7-1.3c-0.2-0.6-0.8-0.9-1.3-0.7c-0.6,0.2-0.9,0.7-0.7,1.3
					C321.4,457.2,322,457.5,322.5,457.4z"/>
			</g>
			<g>
				<path style="fill:#EEEEEE;" d="M305,457.1c0.7-0.2,1.1-0.9,0.9-1.6c-0.2-0.7-0.9-1.1-1.6-0.9c-0.7,0.2-1.1,0.9-0.9,1.6
					C303.7,457,304.4,457.3,305,457.1z"/>
			</g>
		</g>
	</g>
	<g>
		<g>
			<path style="fill:#EEEEEE;" d="M492.4,199.5c6.9-1.1,10-5.9,10.9-12.5l-0.1,0c-4.4,2-8.1,7.6-13.5,6.9
				c6.6-1.2,12.7-6.9,13.7-13.6c-4.6,3.2-11,1.4-15.7,5.2c-2.2,1.8-2.8,4.9-3.7,7.5c-1.1,3.1-2,5-4.2,7.5
				C484.2,198.6,487.9,200.1,492.4,199.5z"/>
			<path style="fill:#EEEEEE;" d="M511.3,194.4c1.7-3.2,0.6-6-1.9-8.4l-0.1,0.1c-0.5,2.5,0.7,5.8-1.2,7.8c1.5-3.1,1-7.4-1.5-9.9
				c-0.1,2.9-2.8,5-2.7,8.2c0.1,1.5,1.2,2.7,2,3.9c0.9,1.4,1.5,2.4,1.9,4.1C508.4,197.6,510.2,196.5,511.3,194.4z"/>
			<g>
				<g>
					<path style="fill:#EEEEEE;" d="M528.6,98.8c-1.7,1.2-2.9-1.1-2.9-2.3c-0.1-1.3,0.6-2.3,1.1-2.9c1-1.3,1.4-1.8,1.2-2.3
						c-0.1-0.8-2.6-1.5,2.3-2.6c2.4-0.3,5.4,1,7.4,4c1.6,2.8,2.8,6.8,1.9,11.6c-0.8,4.9-4.8,10-12.5,12.8
						c-7.5,2.9-18.7,1.3-31.4-4.8c2.7,0.9,6.9,2.6,12.3,3.9c5.4,1.3,12.2,2.1,18.3-0.3c2.9-1.1,6.1-3.3,8-5.6c1.9-2.4,2.7-5.7,2.2-9
						c-0.3-1.6-0.9-3.2-1.9-4.6c-0.7-1.2-1.9-1.9-3.4-2.1c-1.3-0.3-3.4,0.5-4,1.4C526.4,96.9,526.9,99.5,528.6,98.8z"/>
				</g>
			</g>
			<g>
				<g>
					<path style="fill:#EEEEEE;" d="M519.3,149.4c0.5-0.9,1.6-4.6-0.1-10.3c-1.4-5.5-6-11.6-6-11.5c0,0.1-4.1-6.1-13-11.3
						c-4.4-2.6-9.9-4.7-14.8-6c11.7,2.1,23.1,7.3,31.6,14.9c8.6,7.6,14.4,17,17.5,25.8c6.2,17.8,2.7,30.9,2.9,30.7
						c0,0-0.4,3.6-2.3,9.6c-1.9,5.9-5.9,14.1-13.6,21.2c-7.6,7.1-19,12.7-31.6,13.2c-12.5,0.6-26-3.7-34.5-13.2
						c0.3,0.3,0.6,0.6,1,0.9c-4.1-4.9-6.2-8.5-8.4-15.2c-1.5-3.5-2.7-15.5,1.5-23.5c3.8-8.2,9.9-10.7,9.7-10.7
						c-0.1,0,5.6-3,10.2-2.3c4.7,0.5,6.7,3,7.1,3.8c0.9,1.4,1.5,2.3,2.2,3.6c0.9-1.1,1.5-2,0.9-3.7c-0.3-0.9-1.9-3.9-6.9-5.2
						c-4.7-1.5-11.5,1-11.3,1.1c0.2,0-6.8,2-11.8,10.6c-4.4,7.1-4.9,18-3.5,23.3c-2.6-10.3-0.6-20.6,3.3-27.7
						c4.1-7.1,9.8-10.9,13.4-12.8c24.9-11.4,47.3,8,40.8,30.4c3.7-11-0.1-22-8-28.6c-8-6.5-20.6-8.9-33.3-2.9
						c-4.4,2.2-12,7.3-15.9,17.4c-4,9.7-4,23.5,2.9,35.2c3.4,5.8,8.4,10.9,14.4,14.5c6,3.6,13,5.4,19.8,6.1
						c13.8,1.3,27.2-3.7,36.2-11.1c-3.8,3.6-9,7.1-14,9.7c-9.8,4.9-18.5,5.9-18.5,6c0.1,0.1-8.8,1.4-16.2,1.2
						c-7.8-0.2-13.3-0.7-14.5-0.5c-2.6,0.2-2.4,1.5-0.9,3.9c3.1,0.2,5.1,0.3,7.6-0.2c1.3-0.3,6.3-0.7,13.4-1.3
						c7-0.5,15.3-2.4,15.2-2.5c0-0.1,8.1-1.7,17.2-6.9c9.2-4.9,17.5-14.2,19.6-17.7c2.6-3.7,4-6.6,5.3-9.7
						c4.2-9.4,4.6-15.8,4.7-15.7c-0.2,0.1,2.3-9.4-0.8-23.7c-2.8-14.1-13.5-32.6-32.1-42.2c-18.3-9.6-41.3-10.3-58.5-4.5
						c-17.5,5.5-29,16-33.9,21.3c-9.4,10.1-14.2,20.1-17.4,29.7c-3,9.7-4.6,19.3-4.5,30.7c0.2-11.4,2.1-20.9,5.3-30.5
						c3.3-9.5,8.1-19.3,17.4-29.2c3.2-3.4,8.8-8.8,17.2-13.8c8.3-4.9,19.3-9.3,31.7-10.5c3.1-0.2,6.2-0.1,10.3,0.1
						c3.9,0.1,15.7,2.1,23.8,6.7c8.4,4.4,12.5,9.8,12.5,9.7c0-0.1,4.6,5.2,6.3,10.2c2,5.1,1.2,8.7,0.9,9.6c-0.6,1.8-0.8,3-1.3,4.9
						C517.3,151.2,518.5,151.2,519.3,149.4z"/>
				</g>
			</g>
			<g>
				<g>
					<path style="fill:#EEEEEE;" d="M485.2,132c-5.2-3.2-8.8-4-10.9-4.1c-2.1-0.1-2.8,0.6-3.1,1.3c-0.5,1.4,0.6,3.2-3.1,2.3
						c-3.7-0.5-8.1-5.7-22.3-5.3c-6.9,0.4-16.3,2.6-26.4,9.7c-9.9,6.8-21.6,19.1-25.3,37.9c0.2-3.8,1.5-10,5.1-17.2
						c3.6-7.2,9.7-15.3,18.5-22.1c8.7-6.7,20.1-12.2,32.7-13.4C462.9,119.6,476.7,123.4,485.2,132z"/>
				</g>
			</g>
		</g>
		<g>
			<path style="fill:#EEEEEE;" d="M510.2,58.3c1.4,3,1.9,6.5,1.5,9.7c-0.5,3.1-1.8,5.9-3.6,7.9c-1.7,1.9-3.9,3.1-6,3.7
				c-2,0.5-3.9,0.4-5.4-0.1c-1.5-0.5-2.6-1.3-3.4-2.1c-1.6-1.8-1.9-4.4-0.3-6.4c1.2-1.5,3.3-1.7,4.8-0.5c1.5,1.2,1.7,3.3,0.5,4.8
				c-0.3,0.4-0.7,0.7-1.1,0.9c0.7,0.1,1.5,0.2,2.3,0.1c1.5-0.2,3.1-0.9,4.5-2.1c1.5-1.3,2.7-3.2,3.3-5.5c0.6-2.4,0.4-5.1-0.5-7.6
				c-0.9-2.6-2.6-5-4.7-6.7c-4.5-3.8-10.7-4.8-15.7-3.9c-4.9,0.9-8.7,3.3-11.1,5.4c0.1-0.1,0.3-0.1,0.5-0.1c1.9-0.5,4.5-0.3,6.5,1.1
				c1,0.7,1.8,1.6,2.3,2.7c0.5,1.1,0.7,2.3,0.5,3.4c-0.2,1.1-0.6,2-1.3,2.7c-0.6,0.7-1.4,1.1-2.1,1.3c-0.7,0.2-1.3,0.1-1.9,0
				c-0.5-0.2-0.9-0.4-1.2-0.7c-0.6-0.6-0.7-1.5-0.1-2.2c0.4-0.5,1.2-0.6,1.7-0.2c0.5,0.4,0.6,1.2,0.2,1.7c-0.1,0.1-0.2,0.2-0.4,0.3
				c0.3,0.1,0.5,0.1,0.8,0c0.5-0.1,1.1-0.3,1.6-0.7c0.5-0.4,0.9-1.1,1.1-1.9c0.2-0.8,0.1-1.8-0.2-2.7c-0.3-0.9-0.9-1.7-1.7-2.4
				c-1.6-1.3-3.7-1.7-5.5-1.4c-1.4,0.2-2.5,0.8-3.3,1.4c-1.2,1.3-1.9,2.1-2.1,2c0,0,0,0,0-0.1c0,0,0,0,0,0c0,0,0-0.1,0-0.3
				c0.1-0.7,0.9-2.3,2.6-4.4c2.2-2.7,6.1-6.1,11.8-7.7c5.6-1.5,12.9-1,18.6,3.1C506.5,52.5,508.8,55.2,510.2,58.3z"/>
		</g>
		<g>
			<path style="fill:#EEEEEE;" d="M390.7,161.1c0,0.2,0,0.4,0,0.4c0,0.3-0.1-0.9-0.6-3.2c-0.1-0.3-0.2-0.6-0.2-0.9
				c-0.6-2.3-1.6-5.1-3.1-8c-1.1-2.2-2.4-4.3-3.9-6.1c-1.2-1.4-2.4-2.7-3.6-3.6c-1.9-1.4-3.5-1.6-4.5-1.8c-0.9-0.2-1.5-0.4-1.5-0.7
				c0.1-0.5,1.7-1.4,3.9-0.7c-0.6-0.4-1.3-0.7-2.1-1c-1-0.4-2.1-0.7-3.2-0.9c-1.7-0.3-3,0-3.9,0.2c-0.8,0.1-1.3,0.2-1.3,0
				c0-0.3,1.9-1.7,4.8-1.3c1,0.1,2,0.4,3,0.8c1.2,0.5,2.4,1.1,3.4,1.8c1.2,0.8,2.2,1.8,2.9,2.7c0.6,0.6,1.2,1.2,1.8,1.9
				c0.4,0.4,0.7,0.9,1,1.3c-0.3-0.5-0.6-1-0.9-1.5c-1.7-2.8-3.6-5.6-5.5-7.9c-3.5-4.2-6.2-5.6-8-6.8c-1.8-1.1-3.1-2.2-3.2-2.9
				c-0.2-1.3,2.4-2.5,6.7,1c-1.3-1.5-2.8-3-4.4-4.4c-2.4-2.2-5-4.2-7.4-5.9c-4.5-2.9-7.5-3.5-9.6-4c-2-0.5-3.5-1.1-3.9-1.8
				c-0.7-1.4,3.1-4.2,11.5,1.5c2.5,1.7,5.1,3.8,7.5,6.1c2.7,2.6,5.3,5.4,7.4,8.1c2.3,2.9,4.1,5.6,5.4,7.9c1,1.4,1.9,3,2.8,4.5
				c1.9,3.3,3.6,6.8,4.9,10.1c1.4,3.6,2.4,6.9,3,9.5c0.9,3.6,1,5.9,1,6.3C390.9,162.1,390.9,161.8,390.7,161.1z"/>
		</g>
		<g>
			<path style="fill:#EEEEEE;" d="M421.5,154.5c2.2,1.6,4,3.9,5,6.4c0.9,2.4,1.1,5,0.6,7.2c-0.5,2.1-1.5,3.8-2.8,5.1
				c-1.2,1.2-2.6,1.9-3.9,2.1c-1.2,0.3-2.4,0.2-3.3-0.2c-1.9-0.7-3.2-2.4-2.8-4.5c0.2-1.5,1.7-2.6,3.2-2.3c1.5,0.3,2.6,1.7,2.3,3.2
				c-0.1,0.4-0.2,0.8-0.4,1.1c0.6-0.2,1.1-0.5,1.7-0.9c1-0.7,1.9-1.9,2.4-3.3c0.5-1.5,0.6-3.4,0.1-5.3c-0.6-2-1.8-3.9-3.4-5.3
				c-1.7-1.5-3.9-2.5-6.2-2.9c-4.8-0.9-9.7,0.9-12.9,3.5c-3.2,2.6-4.9,5.9-5.9,8.4c0.1-0.1,0.2-0.2,0.3-0.3c1.2-1.2,3.1-2.1,5.1-1.9
				c1,0.1,1.9,0.5,2.7,1c0.8,0.6,1.4,1.4,1.7,2.3c0.3,0.8,0.4,1.7,0.2,2.5c-0.2,0.7-0.5,1.3-1,1.8c-0.4,0.4-0.9,0.7-1.4,0.7
				c-0.4,0.1-0.8,0-1.2-0.1c-0.7-0.2-1.1-0.8-1-1.6c0.1-0.5,0.6-0.9,1.1-0.8c0.5,0.1,0.9,0.6,0.8,1.1c0,0.1-0.1,0.3-0.2,0.4
				c0.2-0.1,0.4-0.2,0.6-0.3c0.3-0.3,0.7-0.6,0.8-1.2c0.2-0.5,0.2-1.2,0-1.9c-0.2-0.7-0.6-1.4-1.2-1.8c-0.6-0.5-1.3-0.9-2.1-1
				c-1.7-0.3-3.4,0.3-4.5,1.2c-0.9,0.7-1.4,1.6-1.8,2.4c-0.4,1.4-0.5,2.2-0.7,2.3c0,0,0,0-0.1,0c0,0,0,0,0,0c0,0-0.1-0.1-0.1-0.2
				c-0.2-0.5-0.3-2,0.1-4.2c0.5-2.8,1.9-6.9,5.4-10.4c3.4-3.4,8.9-5.9,14.7-5.3C416.4,151.8,419.2,152.8,421.5,154.5z"/>
		</g>
		<path style="fill:#EEEEEE;" d="M455.5,37.8c-6.2-0.1-9.6,3.7-11.5,9.4l0.1,0c4.2-1.1,8.3-5.5,12.9-4c-6,0.1-12.2,4.1-14.1,9.9
			c4.5-2.1,9.9,0.5,14.6-2.2c2.2-1.3,3.2-3.9,4.4-6c1.4-2.5,2.5-4.1,4.8-6C462.6,39.9,459.5,38,455.5,37.8z"/>
		<path style="fill:#EEEEEE;" d="M387.8,102.1c5.8,4.2,6.3,10.1,4.2,16.5l-0.1-0.1c-3.1-3.9-3.9-10.8-9.1-12.5
			c5.4,4.2,8.4,12.2,6.2,18.8c-2.7-5.1-9.4-6.4-12-12c-1.1-2.7-0.3-5.8,0.1-8.6c0.4-3.3,0.5-5.6-0.3-8.8
			C379.9,99.1,384.1,99.5,387.8,102.1z"/>
		<g>
			<g>
				<path style="fill:#EEEEEE;" d="M408.6,293.1c-1.2-0.4-1.6,1.3-1,2c0.6,0.8,1.8,0.7,2.5,0.4c1.5-0.8,1.7-2.5,1.6-3.5
					c-0.4-2.1-1.1-2.7-0.9-3.1c0.1-0.4,0.9-0.4,0.9-0.7c0.1-0.3-0.9-1.6-4.1-1.9c-3.2-0.3-7.3,3-7.1,7.5c-0.4,4.3,4.1,9.9,10.6,8.7
					c3-0.5,6.4-2.4,7.9-6c1.6-3.5,1.7-8.5-1-12.8c-2.5-4.4-8.3-7.4-15.2-7.3c-6.7,0-14.8,3.8-18.9,12.1c1.8-3.1,5.5-8,12.2-10.2
					c6.2-2.2,16.3-1.4,20.6,5.6c2.1,3.4,2.6,8.1,0.7,11.7c-1.5,3.5-6.2,5.3-9.8,3.7c-3.4-1-4-7.5-0.3-8c1.8-0.4,3.5,1,2.9,2.8
					c-0.2,0.7-1.2,1.1-2,0.8C407.5,294.6,407.4,292.9,408.6,293.1z"/>
			</g>
		</g>
		<g>
			<g>
				<path style="fill:#EEEEEE;" d="M535.5,408.8c-2.1-10.4-5.5-15.8-7.9-18.5c-2.4-2.7-4-2.8-5.2-2.3c-2.4,1.1-3.2,4.6-6.6-1.2
					c-3.9-5.2-2.5-17-20-34.3c-8.8-8.2-22.7-17.3-43.7-21.7c-20.4-4.3-49.8-4.3-77.8,13.4c5-4.2,14.3-10.1,27.7-14.1
					c13.4-4,30.9-6.1,49.8-3.1c18.8,2.9,39.3,10.7,55.9,25.1C524.5,365.9,536.2,387.9,535.5,408.8z"/>
			</g>
		</g>
		<g>
			<path style="fill:#EEEEEE;" d="M391.6,164.8c0.1-5.5-2-10.7-5.9-14.6c-1.9-1.9-4.1-3.5-6.6-4.5c-0.1,0-0.2-0.1-0.3-0.1
				c-0.4-0.2-0.8-0.3-1.3-0.5c-2-0.7-4.2-1-6.3-1.1c-5.5,0-10.7,2-14.6,5.9c-3.9,3.8-6.1,9-6.2,14.5c0,5.5,2,10.7,5.9,14.6
				c3.9,3.9,9,6.1,14.5,6.2c5.5,0.1,10.7-2,14.6-5.9C389.3,175.5,391.5,170.3,391.6,164.8z M358.3,178.1c-7.4-7.6-7.3-19.8,0.3-27.2
				c3.3-3.2,7.4-5,11.6-5.4c-1.6,0.7-3.1,1.9-4.3,3.8c-1.6,2.7-1.8,6.6,0.2,9.5c1.8,2.6,5.7,4,8.6,2.7c2.7-1.1,4.2-4.5,3.2-6.9
				c-0.9-2.1-3.6-2.9-4.9-2c-1,0.7-0.7,1.7-0.3,1.6c0.7-0.2,2.1-0.4,2.9,0.7c0.8,1.3,0,3.7-1.8,4.5c-2.1,1-5-0.1-6.4-2.2
				c-3.2-5,2.4-10.6,6-11.3c0.8-0.1,1.5-0.2,2.2-0.2c3.7,0.7,7.3,2.5,10.2,5.4c7.4,7.6,7.3,19.8-0.3,27.2
				C378,185.8,365.8,185.7,358.3,178.1z"/>
		</g>
		<g>
			<path style="fill:#EEEEEE;" d="M244.1,274.6c-5.2-7.1-3.7-14.3,1.3-21l0.1,0.1c2.2,5.7,0.5,14.2,6,18.2c-4.8-7-5.3-17.5-0.2-24.5
				c1.3,7,8.7,11,9.6,18.7c0.3,3.6-1.9,6.9-3.3,10.1c-1.7,3.7-2.7,6.4-2.9,10.5C252.4,281.1,247.6,279.1,244.1,274.6z"/>
			<path style="fill:#EEEEEE;" d="M231.6,253.1c1.4-4.4,4.9-5.9,9.3-5.9l0,0.1c-1.7,2.7-5.8,4.6-5.8,8.1c1.4-4.2,5.7-7.6,10.2-7.6
				c-2.5,2.7-2,7-4.9,9.8c-1.4,1.2-3.5,1.3-5.3,1.7c-2.1,0.4-3.5,0.8-5.3,2C231.4,258.6,230.8,255.9,231.6,253.1z"/>
			<g>
				<g>
					<path style="fill:#EEEEEE;" d="M301.4,151.4c0.4,2.6,3.7,1.6,4.6,0.5c1.2-1.1,1.6-2.6,1.6-3.6c0.2-2,0.3-2.8,1-3.2
						c0.8-0.6,3.7,0.9,0.3-4.3c-1.9-2.4-5.7-4-10.2-3c-4,1-8.6,3.6-12.1,8.8c-3.7,5.1-4.6,13.3-0.1,22.7
						c4.2,9.4,15.8,17.9,32.6,23.7c-3.2-1.6-8.6-3.8-14.6-7.5c-5.9-3.6-12.8-9-16.2-16.6c-1.6-3.6-2.6-8.5-2.2-12.3
						c0.4-3.9,2.6-7.6,6-10c1.7-1.2,3.7-2,5.9-2.4c1.7-0.4,3.5,0,5,1.1c1.4,1,2.7,3.5,2.4,4.8C305.1,151.7,302.3,153.6,301.4,151.4z
						"/>
				</g>
			</g>
			<g>
				<g>
					<path style="fill:#EEEEEE;" d="M264.6,205.4c0.4-1.2,2.7-5.6,9.3-9.2c6.2-3.7,15.8-5.1,15.7-5c-0.1,0.1,9.2-1.8,21.8,1.4
						c6.3,1.6,13.1,4.6,18.7,7.8c-12.5-8.5-27.3-14.1-41.9-14.8c-14.5-0.9-28.2,2.5-38.8,7.6c-21.5,10.5-30,25.5-30,25
						c0,0-2.8,3.7-6.5,10.7c-3.6,7-7.4,18-6.7,31.3c0.5,13.1,5.8,28.4,16.7,40.1c10.7,11.7,26.8,19.9,42.9,18.9c-0.5,0-1.1,0-1.7,0
						c8-0.8,13.1-2.1,21.1-6.3c4.5-1.8,16.3-11.5,19.7-22.6c3.9-10.8,0.6-18.4,0.9-18.3c0.1,0.1-2.4-7.8-7.1-11.1
						c-4.7-3.7-8.7-3.2-9.7-2.9c-2,0.5-3.4,0.8-5.2,1.3c0.2-1.8,0.4-3.2,2.5-4.2c1-0.5,5.2-1.8,10.9,1.4c5.6,2.9,9.5,11.1,9.3,11.1
						c-0.2-0.2,4.4,7.9,1.1,20.1c-2.4,10.4-11.7,20.6-17.7,24.2c11.6-7,19-18,21.7-27.9c2.7-10.1,0.9-18.6-0.7-23.5
						c-12.3-32.6-49.9-35.1-64-9c6.4-13.2,19.8-19.8,32.8-18.6c13,1.3,26.5,10.3,32.6,27.1c2,5.9,4.2,17.3-1.2,29.8
						c-5,12.3-17.4,24.8-34.1,29.2c-8.2,2.2-17.3,2.4-25.9,0.2c-8.6-2.2-16.6-6.7-23.3-12.2c-13.6-11.2-21.2-27.7-22.7-42.4
						c0.2,6.7,1.7,14.5,4,21.2c4.5,13.2,11.4,21.8,11.3,21.9c-0.2,0,6.7,9.1,13.6,15.5c7.1,6.8,12.6,11.2,13.5,12.6
						c2.2,2.6,0.9,3.5-2.7,4.3c-3-2.5-4.9-4.3-6.7-7c-0.9-1.5-5.1-6.2-11-13.1c-5.9-6.6-11.6-15.8-11.5-15.7c0.1,0-5.8-8.7-9.3-21.5
						c-4-12.6-3-28.4-1.8-33.4c1-5.6,2.3-9.6,3.9-13.5c4.6-12.2,10-18.3,9.8-18.4c0.1,0.2,6.3-10.5,21.8-20.7
						c15.1-10.2,41.3-17.3,66.6-9.3c25.1,7.7,46.4,27.6,56.8,48.1c10.9,20.6,11.8,40.3,11.5,49.6c-0.6,17.5-5.1,30.8-10.9,42.3
						c-5.9,11.5-13.1,21.5-23.4,31.7c10-10.5,16.8-20.7,22.5-32.2c5.5-11.5,9.9-24.6,10.4-41.9c0.2-5.9-0.1-15.9-3.2-27.8
						c-3.1-11.8-9.2-25.6-19.3-37.8c-2.6-2.9-5.5-5.6-9.4-9.1c-3.6-3.4-16-12.1-27.5-15.3c-11.4-3.5-20.1-2.3-20-2.4
						c0.1,0-8.8,0.6-14.8,3.6c-6.3,2.8-8.8,6.7-9.4,7.8c-1.1,2.2-2,3.4-3.2,5.6C264.8,208.7,263.7,207.7,264.6,205.4z"/>
				</g>
			</g>
			<g>
				<g>
					<path style="fill:#EEEEEE;" d="M311.3,220.4c7.6,1.7,11.5,4.3,13.4,6.1c2,1.8,2,3,1.6,3.9c-0.8,1.7-3.4,2.3,0.8,4.8
						c3.8,2.9,12.4,2.1,24.8,15.2c5.9,6.6,12.3,16.9,15.2,32.3c2.8,15,2.4,36.6-11,56.8c3.1-3.6,7.6-10.3,10.8-20.1
						c3.1-9.7,4.9-22.5,3-36.4c-1.8-13.8-7.3-28.9-17.5-41.3C342.5,229.1,326.7,220.2,311.3,220.4z"/>
				</g>
			</g>
		</g>
		<g>
			<g>
				<g>
					<path style="fill:#EEEEEE;" d="M330.3,28.4c0.9,0.4,1.3-0.9,0.8-1.5c-0.4-0.6-1.3-0.6-1.8-0.4c-1.1,0.6-1.3,1.8-1.3,2.5
						c0.2,1.6,0.8,2,0.5,2.3c-0.1,0.3-0.6,0.3-0.7,0.5c-0.1,0.2,0.6,1.2,3,1.5c2.4,0.3,5.5-2,5.5-5.3c0.4-3.2-2.7-7.4-7.5-6.8
						c-2.3,0.3-4.8,1.6-6,4.2c-1.3,2.6-1.5,6.2,0.3,9.5c1.7,3.3,5.9,5.7,11,5.8c5,0.2,11.1-2.4,14.4-8.4c-1.4,2.2-4.4,5.7-9.3,7.2
						c-4.6,1.5-12.1,0.5-15.1-4.8c-1.4-2.6-1.6-6.1-0.1-8.7c1.3-2.5,4.8-3.7,7.4-2.4c2.5,0.9,2.8,5.7-0.1,6c-1.4,0.3-2.5-0.8-2-2.1
						c0.1-0.5,0.9-0.8,1.5-0.5C331.2,27.4,331.2,28.6,330.3,28.4z"/>
				</g>
			</g>
			<path style="fill:#EEEEEE;" d="M341,45.9c2.4-7.9,8.1-15.5,16.3-20.1c8.1-4.7,18.9-6.3,29.1-2.9c10.2,3.4,19.9,10.9,25.8,21.8
				c5.9,10.8,7.5,24.9,2.7,38.2c1.7-5.2,3.2-12.5,2.1-21.1c-1-8.5-4.8-18.3-12.4-26.3c-7.5-7.8-19.1-14.3-31.8-13.3
				C360.3,23,347.4,31.7,343,45c-2.3,6.4-1.9,13.7,1.1,20c3,6.3,8.7,11.4,15.4,13.6c6.6,2.1,14.4,0.5,19.6-4.4
				c5.4-4.8,7.9-12.5,5.1-19c-2.6-6.5-10.2-11.2-16.8-8.9c-3.3,1-6.1,3.5-7.6,6.8c-1.4,3-1.1,6.9,1.1,9.7c2.1,2.8,5.7,4.5,9,3.6
				c3.3-0.8,6.1-4.2,5.7-7.7c-0.3-3.5-4.1-6.6-7.6-5.2c-1.6,0.6-3.1,2.2-3.4,4c-0.3,1.8,0.8,3.8,2.5,4.6c-1.9-0.8-3.1-2.8-2.9-4.6
				c0.1-1.8,1.3-3.4,2.8-4.3c3-1.8,6.5-0.5,8.2,1.6c3.7,4.4,1.3,9.5-0.6,11.5c-2.2,2.3-4.2,2.9-5.5,3.4c-1.3,0.4-1.8,0.6-2,0.9
				c-0.3,0.5,1.2,1.1,0.7,1.5c-0.2,0.2-1,0.4-2.9,0.2c-1.8-0.3-4.7-1.1-7.8-4.1c-3-3-4.9-7.6-4.3-12.6c0.7-5,3.9-9.9,9.3-12.7
				c5.3-2.9,13.4-2.7,19.3,2.3c6,4.6,9.8,14.5,5.4,23.5c-2.1,4.4-5.8,8.5-10.8,11c-5,2.5-11.2,3.2-17.2,1.2c-6-2-11.7-6.4-15.3-12.6
				C340,62,338.6,53.8,341,45.9z"/>
		</g>
		<path style="fill:#EEEEEE;" d="M404.4,252.6c5.9,2.1,7.8,6.9,7.6,12.9l-0.1,0c-3.6-2.5-6-8.1-10.8-8.3c5.6,2.1,10.1,8.1,9.9,14.3
			c-3.5-3.6-9.5-3-13.1-7.1c-1.6-2-1.7-4.8-2.1-7.2c-0.5-2.9-1-4.8-2.5-7.3C397,252.1,400.6,251.4,404.4,252.6z"/>
		<g>
			<path style="fill:#EEEEEE;" d="M266.8,440.4c12.7-5,30.6-13.1,48.8-27.5c18.2-14.3,35.2-36.3,45.4-63.1
				c10.4-26.8,14.5-57.1,16.8-87.1c2.3-30.1,3-60.2,6.6-88.1c3.2-27.9,10.1-53.6,20-73.8c9.8-20.3,22.1-34.8,31.4-44
				c3.2-3.1,6-5.7,8.3-7.7l-0.1-0.1c-2.3,2-5.2,4.5-8.4,7.6c-9.4,9.1-21.9,23.5-32,43.8c-10.2,20.2-17.3,45.9-20.8,73.9
				c-3.8,28-4.9,58.1-7.5,88.1c-2.6,29.9-7.1,59.9-17.5,86.1c-10.3,26.1-27.1,47.4-44.9,61c-17.8,13.9-35.4,21.6-47.9,26.3
				c-12.6,4.7-20.3,6.6-20.9,6.8c-2,0.6-3.7,1.3-5.1,2l5,3.2c0.5-0.1,1-0.2,1.5-0.4C246.2,447.3,254,445.3,266.8,440.4z"/>
		</g>
		<g>
			<path style="fill:#EEEEEE;" d="M426.8,105.9c-10.9,16.5-18.4,35-23.6,54c-10.3,38.2-12.5,77.8-18,116.6
				c-5.5,38.5-14.7,78.2-39.5,108.9c-24.3,31.1-62.2,48.2-100.2,56.1c-2,0.4-3.7,0.8-3.6,1.5c0.1,0.7,1.8,0.1,3.8-0.3
				c38.2-7.9,76.5-24.8,101.4-56.1c25.3-31,34.8-71.1,40.4-109.7c5.7-38.9,7.8-78.4,17.7-116.4c5.1-18.9,12.2-37.3,22.8-53.8
				C438.3,90,452.1,75.8,467.8,64c0.8-0.6,1.5-1.1,2-1.5l0,0c-0.5,0.4-1.3,0.9-2,1.5C451.8,75.3,437.5,89.4,426.8,105.9z"/>
		</g>
		<g>
			<path style="fill:#EEEEEE;" d="M287.3,428.3c1.7-0.7,3.4-1.3,4.9-2c1.5-0.6,2.9-1.3,4.3-1.9c1.3-0.6,2.6-1.2,3.8-1.8
				c1.2-0.6,2.3-1.2,3.3-1.8c1-0.6,2-1.1,3-1.7c1.8-1.1,3.5-2.2,5-3.3c1.5-1,2.8-2.1,4.1-3.1c1.2-1,2.3-2,3.4-3
				c1-0.9,1.9-1.9,2.8-2.9c0.8-0.9,1.6-1.8,2.3-2.7c0.7-0.9,1.4-1.8,2-2.7c1.2-1.7,2.2-3.4,3-5.1c0.8-1.7,1.5-3.3,2.1-5
				c1.1-3.2,1.7-6.5,1.9-9.8c0.1-3.3-0.2-6.6-1.1-9.7c-0.5-1.6-1.1-3.2-1.9-4.7c-0.8-1.5-1.8-3-2.9-4.3c-1.2-1.3-2.5-2.5-4-3.4
				c-1.5-0.9-3.2-1.6-5-1.9c-3.6-0.6-7.6,0.3-10.7,3c-3.1,2.7-5.1,7-5.5,11.3c-0.2,2.1,0,4.1,0.5,6c0.5,1.8,1.2,3.4,2,4.8
				c0.8,1.3,1.8,2.4,2.8,3.2c1,0.8,2,1.3,2.9,1.7c0.9,0.3,1.8,0.4,2.7,0.4c0.8,0,1.5-0.2,2.2-0.5c0.6-0.3,1.2-0.6,1.6-1.1
				c0.4-0.4,0.8-0.9,1-1.4c-0.3,0.5-0.7,1-1.2,1.3c-0.6,0.4-1.2,0.6-2,0.8c-0.8,0.1-1.7,0-2.5-0.2c-0.9-0.3-1.9-0.8-2.8-1.6
				c-0.9-0.8-1.8-2-2.4-3.4c-0.7-1.5-1.1-3.2-1.2-5c-0.1-1.9,0.2-3.9,0.8-5.8c0.7-1.9,1.8-3.7,3.2-5.1c2.8-2.8,6.7-3.7,10.1-2.9
				c1.7,0.4,3.2,1.2,4.6,2.3c1.3,1,2.5,2.4,3.4,3.8c1.8,2.9,2.9,6.3,3.1,9.8c0.3,3.4-0.2,7.1-1.3,10.5c-0.3,1.1-0.6,2.3-1.1,3.4
				c-0.4,1.2-1,2.4-1.6,3.5c-0.6,1.2-1.4,2.4-2.2,3.7c-0.9,1.3-1.8,2.6-2.9,3.8c-1.1,1.3-2.4,2.7-3.8,4c-1.5,1.4-3.2,2.8-5.1,4.3
				c-2.1,1.5-4.4,3-7,4.5c-2.9,1.6-6.2,3.3-9.9,4.9c-4.2,1.8-9.1,3.5-14.8,5.1c-2.6,0.7-5.3,1.4-8.3,2.1c1.2-1,2.3-1.9,3.3-2.8
				c1.1-1,2.1-1.9,3.1-2.8c0.9-0.9,1.8-1.7,2.6-2.5c0.8-0.8,1.5-1.6,2.2-2.3c0.7-0.7,1.3-1.4,1.9-2.1c0.6-0.7,1.1-1.3,1.6-1.9
				c0.5-0.6,1-1.2,1.4-1.8c0.8-1.1,1.6-2.2,2.3-3.3c0.6-1,1.2-2,1.7-2.9c0.5-0.9,0.9-1.8,1.3-2.6c0.4-0.8,0.7-1.6,1-2.4
				c0.3-0.7,0.5-1.5,0.7-2.2c0.2-0.7,0.4-1.3,0.5-2c0.3-1.3,0.4-2.5,0.5-3.6c0.1-1.1,0-2.2-0.1-3.3c-0.2-2-0.7-4-1.5-5.7
				c-0.8-1.8-1.9-3.4-3.4-4.8c-0.7-0.7-1.6-1.4-2.5-1.9c-0.9-0.6-1.9-1-3-1.4c-1.1-0.4-2.3-0.6-3.5-0.6c-1.2,0-2.5,0.1-3.7,0.5
				c-2.5,0.7-4.7,2.5-6,4.8c-1.2,2.3-1.3,5.2-0.3,7.6c0.5,1.2,1.2,2.2,2,3c0.8,0.8,1.7,1.5,2.6,1.9c0.9,0.4,1.8,0.7,2.7,0.8
				c0.8,0.1,1.6,0.1,2.3,0c0.7-0.1,1.3-0.3,1.8-0.6c0.5-0.3,0.9-0.6,1.3-0.9c0.3-0.3,0.6-0.7,0.7-1.1c0.2-0.3,0.2-0.7,0.3-1
				c-0.1,0.4-0.2,0.7-0.4,1.1c-0.3,0.4-0.6,0.7-1,1c-0.5,0.3-1,0.5-1.7,0.6c-0.7,0.1-1.4,0.1-2.2,0c-0.8-0.2-1.7-0.5-2.5-1.1
				c-0.8-0.6-1.6-1.3-2.2-2.3c-0.6-1-1-2.1-1.1-3.3c-0.1-1.2,0.1-2.5,0.6-3.6c1-2.3,3.2-4,5.6-4.6c1.2-0.3,2.4-0.3,3.6-0.2
				c1.1,0.2,2.2,0.5,3.3,1c2,1,3.6,2.5,4.7,4.2c1.1,1.7,1.8,3.8,2.1,5.9c0.1,0.7,0.2,1.4,0.3,2.1c0.1,0.8,0,1.5,0,2.4
				c-0.1,0.8-0.2,1.7-0.4,2.6c-0.2,0.9-0.4,1.9-0.8,2.9c-0.3,1.1-0.8,2.1-1.3,3.3c-0.6,1.2-1.3,2.5-2.1,3.8
				c-0.9,1.4-1.9,2.9-3.2,4.5c-1.4,1.7-3,3.6-4.9,5.6c-2.2,2.2-4.8,4.6-8,7.1c-1.4,1.1-3,2.4-4.7,3.6l6.8,4.3
				c1.5-0.4,2.9-0.9,4.2-1.3C283.5,429.6,285.4,429,287.3,428.3z"/>
		</g>
		<g>
			<path style="fill:#EEEEEE;" d="M404,354c6.5-1.8,12.5-3.1,17.9-4c4.9-0.8,9.4-1.3,13.5-1.4c3.8-0.2,7.3-0.1,10.6,0.1
				c3.1,0.2,5.9,0.6,8.6,1.1c2.5,0.5,4.9,1.1,7.1,1.8c2.1,0.7,4.1,1.5,6,2.3c1.8,0.8,3.5,1.8,5,2.8c1.5,1,2.9,2,4.2,3.2
				c4.3,3.1,7.8,7.1,10.2,11.7c2.4,4.5,3.7,9.8,3.4,15.2c-0.1,2.7-0.7,5.5-1.8,8.2c-1.1,2.7-2.6,5.2-4.7,7.4
				c-4.1,4.4-10.4,7.1-16.5,6.5c-3-0.3-6-1.4-8.5-3.1c-2.4-1.7-4.4-3.9-5.8-6.3c-0.2-0.3-0.3-0.7-0.5-1c1.1,0.9,2.3,1.7,3.7,2.3
				c6.8,2.7,14.5-0.6,17.3-7.4c2.7-6.8-0.6-14.6-7.4-17.3c-6.8-2.7-14.6,0.6-17.3,7.4c-3.2,7.9-2.2,19.1,3.1,25.7
				c3.9,4.9,10.2,8.2,16.7,8.4c6.5,0.2,12.9-2.6,17.5-7c2.2-2.2,4.1-4.7,5.5-7.4c1.4-2.6,2.3-5.4,2.9-8.2c0.6-2.7,0.8-5.5,0.6-8.2
				c-0.1-2.6-0.5-5.2-1.1-7.7c-1.3-4.8-3.4-9.2-6.3-13.1c-2.8-3.9-6.4-7.3-10.5-10.2c-2.1-1.5-4.5-2.8-7-4c-2.6-1.2-5.4-2.4-8.4-3.3
				c-1.6-0.5-3.2-0.9-4.9-1.3c-1.8-0.4-3.6-0.8-5.5-1.1c-2-0.3-4-0.6-6.2-0.7c-2.3-0.2-4.6-0.3-7.1-0.3c-2.6,0-5.4,0.1-8.3,0.2
				c-3.1,0.2-6.3,0.5-9.7,1c-1.8,0.3-3.6,0.5-5.6,0.9c-2,0.3-4,0.7-6.1,1.2c-2.2,0.5-4.5,1-6.8,1.5c-2.4,0.6-5,1.3-7.6,2
				c-2.7,0.8-5.6,1.6-8.5,2.6c-3.1,1-6.3,2-9.7,3.2c-3.5,1.2-7.2,2.6-11,4.1c-1.3,0.5-2.7,1.1-4,1.6l-1.5,3.9l3.5,2.2
				c5.7-2.6,11.1-4.9,16.1-6.9C388.4,358.8,396.6,356.1,404,354z"/>
		</g>
	</g>
</g>
</svg>
