<?xml version="1.0" encoding="utf-8"?>
<!-- Generator: Adobe Illustrator 23.0.1, SVG Export Plug-In . SVG Version: 6.00 Build 0)  -->
<svg version="1.1" id="Layer_1" xmlns="http://www.w3.org/2000/svg" xmlns:xlink="http://www.w3.org/1999/xlink" x="0px" y="0px"
	 viewBox="0 0 384 512" style="enable-background:new 0 0 384 512;" xml:space="preserve">
<path style="opacity:0.2;fill:#DDDDDD;" d="M96,224c53,0,96-43,96-96s-43-96-96-96S0,75,0,128S43,224,96,224z M96,68
	c33.1,0,60,26.9,60,60s-26.9,60-60,60s-60-26.9-60-60S62.9,68,96,68z M288,288c-53,0-96,43-96,96s43,96,96,96s96-43,96-96
	S341,288,288,288z M288,444c-33.1,0-60-26.9-60-60s26.9-60,60-60s60,26.9,60,60S321.1,444,288,444z M347.8,32H378
	c5,0,7.8,5.7,4.8,9.6L41,477.6c-1.1,1.5-2.9,2.4-4.8,2.4H6c-5,0-7.8-5.7-4.8-9.6L343,34.4C344.1,32.9,345.9,32,347.8,32z"/>
</svg>
