<?xml version="1.0" encoding="utf-8"?>
<!-- Generator: Adobe Illustrator 23.0.1, SVG Export Plug-In . SVG Version: 6.00 Build 0)  -->
<svg version="1.1" id="Isolation_Mode" xmlns="http://www.w3.org/2000/svg" xmlns:xlink="http://www.w3.org/1999/xlink" x="0px"
	 y="0px" viewBox="0 0 1586 1585.2" style="enable-background:new 0 0 1586 1585.2;" xml:space="preserve">
<g>
	<polygon style="fill:#95B9FC;" points="1254.6,185.2 543,185.2 543,824.8 649.8,831.4 650.1,832.6 728.7,859 870.8,861.1 
		1021.2,861.1 1100,866.2 1150.9,913.9 1251.5,814.4 1251.5,796.4 1254.6,795.7 	"/>
	<path style="fill:#9CCC65;" d="M416.5,1464.4L99,1146.1l106.8-103.7c0,0,75.8-52.8,147.3,39.4l175.4,185.6
		c0,0,32.2,61.1-52.9,137.9C390.5,1482,416.5,1464.4,416.5,1464.4z"/>
	<path style="stroke:#3E387B;stroke-width:22;stroke-miterlimit:10;" d="M642.5,1030.4c-1.2,0-3.4-0.3-5.3-2.3
		c-2.9-2.9-2.9-7.7,0-10.6c1.9-1.9,4.1-2.2,5.3-2.2c1.2,0,3.4,0.3,5.3,2.3c2.9,2.9,2.9,7.7,0,10.6
		C645.9,1030.2,643.7,1030.4,642.5,1030.4z"/>
	<g>
		<path style="fill:#3E387B;stroke:#3E387B;stroke-width:10;stroke-linecap:round;stroke-miterlimit:10;" d="M900.4,583.5
			c-82.1,0-148.7-66.7-148.7-148.6v-77.2h-20.7c-4.1,0-7.5-3.3-7.5-7.5c0-4.1,3.3-7.5,7.5-7.5h56.5c4.1,0,7.5,3.3,7.5,7.5
			c0,4.1-3.3,7.5-7.5,7.5h-20.7v77.2c0,73.7,60,133.7,133.8,133.7s133.8-60,133.8-133.7v-77.2h-20.7c-4.1,0-7.5-3.3-7.5-7.5
			c0-4.1,3.3-7.5,7.5-7.5h56.5c4.1,0,7.5,3.3,7.5,7.5c0,4.1-3.3,7.5-7.5,7.5h-20.7v77.2C1049.1,516.8,982.4,583.5,900.4,583.5z"/>
		<path style="fill:#3E387B;stroke:#3E387B;stroke-width:10;stroke-linecap:round;stroke-miterlimit:10;" d="M940,1020.3H818.4
			c-4.1,0-7.5,3.3-7.5,7.5c0,4.1,3.3,7.5,7.5,7.5h122.8C940.6,1030.3,940.2,1025.3,940,1020.3z"/>
		<path style="fill:#3E387B;stroke:#3E387B;stroke-width:10;stroke-linecap:round;stroke-miterlimit:10;" d="M1495.2,766.9
			c-2.1-24.6-13.6-46.9-32.3-62.7c-16.6-14-37.7-21.6-59.4-21.6c-27,0-52.5,11.6-70.1,32l-0.4,0.5l-63.4,65.5V178
			c0-4.1-3.3-7.5-7.5-7.5h-726c-4.1,0-7.5,3.3-7.5,7.5v331.7c5-0.1,10-0.3,15-0.4V185.5h711.1V796l-104.1,107.3l-14.8-18.1
			c-17.7-21.8-43.9-34.3-71.7-34.3H736.7c-4.5,0-9-0.9-13.6-2.7c-41.5-16.9-85.5-25.5-130.7-25.5c-8.6,0-17.6,0.3-26.8,0.9
			l-22.1,1.4V577c-5-0.1-10-0.1-15-0.2v250.5l-16.5,3.5c-103.2,21.7-184.4,85.1-228.4,178.6l-5.9,12.6l-13.9-0.7
			c-1.9-0.1-3.9-0.2-5.8-0.2c-29.4,0-57,11.5-78,32.5l-87.2,86.7c-1.4,1.4-2.3,3.3-2.3,5.3s0.8,3.9,2.2,5.3L234,1292
			c3.1-4,6.4-7.7,9.9-11.3l-19.3-19.3l-36.5-36.4l-80.6-80.5l82-81.5c18.1-18.1,42.2-28.1,67.6-28.1c25.7,0,49.7,10,67.8,28.1
			l173.5,173.4c18.1,18.1,28.1,42.1,28.1,67.7c0,25.6-10,49.6-28.1,67.7l-81.4,81.4l-112.1-111.9c-1.2,1.2-2.3,2.3-3.4,3.6
			c-1.8,3.2-3.2,6.8-4.9,9.4l116.2,116c1.8,1.8,3.9,2.2,5.3,2.2c1.2,0,3.4-0.3,5.3-2.2l86.7-86.7c23.6-23.6,35.3-56.1,32-89.2l-1-10
			l38.4-37c28.6-27.5,66.1-42.7,105.8-42.7h371.9c61.2,0,119-23.5,162.8-66.1c0.2-0.2,0.5-0.5,0.6-0.7l253.1-303.7
			C1489.6,815.4,1497.3,791.5,1495.2,766.9z M1462.2,824.5l-252.9,303.6l-0.8,0.8c-40.8,39.2-94.6,60.8-151.2,60.8H685.3
			c-43.5,0-84.9,16.7-116.2,46.9l-30.5,29.4l-13.7-21.1c-4.2-6.5-9.1-12.5-14.6-18l-173.5-173.4c-7.7-7.7-16.5-14.2-26.3-19.4
			l-17.8-9.5l9.2-18.1c46-91,129.6-149.5,235.2-164.9c18.3-2.6,36.5-4,54.2-4c44,0,86.5,8.2,126.3,24.4c6.3,2.5,12.8,3.9,19.2,3.9
			h327.5c42.6,0,77.3,34.7,77.3,77.2c0,42.6-34.7,77.2-77.3,77.2h-53.8c-0.1,5-0.5,10-1.3,15h55c50.9,0,92.2-41.3,92.2-92.2
			c0-3.9-0.3-7.8-0.8-12.2l-1.3-10l7-7.2c5.7-5.8,171.4-177.2,182.3-188.4l0.3-0.3l0.2-0.3c14.7-17.4,36.2-27.3,59.1-27.3
			c18.2,0,35.9,6.5,49.8,18.2c15.8,13.3,25.4,32,27.1,52.6C1481.9,788.8,1475.5,808.8,1462.2,824.5z"/>
	</g>
	<rect x="542" y="174.7" style="opacity:0.1;enable-background:new    ;" width="126.6" height="661.4"/>
</g>
</svg>
