<?xml version="1.0" encoding="utf-8"?>
<!-- Generator: Adobe Illustrator 23.0.1, SVG Export Plug-In . SVG Version: 6.00 Build 0)  -->
<svg version="1.1" id="OBJECTS" xmlns="http://www.w3.org/2000/svg" xmlns:xlink="http://www.w3.org/1999/xlink" x="0px" y="0px"
	 viewBox="0 0 205.4 205.2" style="enable-background:new 0 0 205.4 205.2;" xml:space="preserve">
<g>
	<radialGradient id="XMLID_2_" cx="148.4223" cy="118.8943" r="71.1904" gradientUnits="userSpaceOnUse">
		<stop  offset="4.795011e-07" style="stop-color:#95B9FC"/>
		<stop  offset="1" style="stop-color:#2874A6"/>
	</radialGradient>
	<path id="XMLID_48_" style="fill:url(#XMLID_2_);" d="M115.9,60.6c1.6-0.2,3.4,0.1,4.7,0.1c3.7,0.1,7.4,0.2,11.2,0.4
		c7.4,0.3,14.9,0.8,22.3,1.5c4.1,0.4,8.1,0.8,12.1,1.8c21.1,5.5,32,22.7,33.6,41.4c0.5,5.4,0.6,19.6-9.2,32.3
		c-9.1,11.8-21.5,15.7-29.2,17c-6.9,1.2-28.2,0.9-38.2,0c-10-0.9-31.9-5.2-32.1-39.4c-0.1-18.9-0.1-31.1-0.1-38.2
		c0-7.1-4-8.8-8.9-3.6c-4.7,5-9.6,15.4-9.6,37.3v65.4c0,0.8-0.2,1.5-0.6,2.1c-1.4,2.4-6,5.1-9.8,0.4c-0.6-0.7-1-2-1-2.8
		c0,0,0-84.1,0.1-86c0.2-4.3,3.3-30,35-29.3c2.2,0.1,4,1.7,4,3.9c0,10.8,0,40.2,0,51.1c0,3.1,0.5,7.7,1.5,10.6
		c2,5.9,8,16.8,15.5,20.5c1,0.5,1.9-0.7,1.2-1.5c-7.6-9-24.5-44,6.2-64.2c2.2-1.5,5.9-3.1,8.5-3.7c6.5-1.5,13.2-2.1,19.8-1.2
		c8.9,1.3,17.3,6.4,22.6,13.9c3.1,4.4,4.5,7.6,5.5,12.1c1.3,6.1,0.6,12.4-2.2,17.9c-2.1,4-5,7.6-8.4,10.5c-0.4,0.3-3.3,3-4,2.5
		c-0.3-0.2,1-1.8,2-3.6c3.8-6.8,8.4-23.2-1.5-34.6c-8.1-9.3-21.9-11-31.4-7.8c-3.6,1.2-7.4,3.2-10.6,6.2c-1.4,1.3-8.8,7.2-8.8,18.7
		c0,6,1.7,11.9,3.2,14.9c1.5,3,6,12,16.1,16.6c13.7,6.3,28.6,0.3,33.8-2c0.2-0.1,0.3-0.2,0.5-0.2c3.2-1.8,34-21.4,11.6-54.5
		c-2.5-3.6-5.8-6.7-9.5-9.1c-2.4-1.6-4.2-2.6-6-3.5c-3-1.4-6.2-2.2-9.4-2.6c-16.2-2-33.1-1.9-39.8-1.8c-1.3,0-2.5-0.6-3.2-1.7
		c-0.9-1.4-1.7-3.6-0.2-5.9C113.5,61.2,114.6,60.8,115.9,60.6z"/>
	<ellipse id="XMLID_47_" style="fill:#2874A6;" cx="83.7" cy="35.4" rx="11.4" ry="11.2"/>
	<g>
		<radialGradient id="SVGID_1_" cx="143.8134" cy="115.0171" r="16.8889" gradientUnits="userSpaceOnUse">
			<stop  offset="0" style="stop-color:#EFE17B"/>
			<stop  offset="1" style="stop-color:#C1AC51"/>
		</radialGradient>
		<path style="fill:url(#SVGID_1_);" d="M130.4,102c-1.8,0.1-3.7,0.5-5.6,1.1c0.3,2,0.8,3.8,1.5,5.5c1.6-0.8,3.3-1.3,4.9-1.5
			C130.7,105.5,130.4,103.8,130.4,102z"/>
		<radialGradient id="SVGID_2_" cx="143.8134" cy="115.0171" r="16.8889" gradientUnits="userSpaceOnUse">
			<stop  offset="0" style="stop-color:#EFE17B"/>
			<stop  offset="1" style="stop-color:#C1AC51"/>
		</radialGradient>
		<path style="fill:url(#SVGID_2_);" d="M135.5,102.5c0.1-1.7,0.5-3.4,1.1-5c-1.7-0.6-3.6-1-5.6-1.1c-0.5,1.9-0.7,3.8-0.7,5.7
			C132.2,101.9,133.9,102.1,135.5,102.5z"/>
		<radialGradient id="SVGID_3_" cx="143.8134" cy="115.0171" r="16.8889" gradientUnits="userSpaceOnUse">
			<stop  offset="0" style="stop-color:#EFE17B"/>
			<stop  offset="1" style="stop-color:#C1AC51"/>
		</radialGradient>
		<path style="fill:url(#SVGID_3_);" d="M144.2,95.7c-1.3-1.2-2.9-2.3-4.7-3.2c-1.2,1.6-2.2,3.3-2.8,5c1.7,0.6,3.2,1.4,4.6,2.4
			C142,98.4,143,97,144.2,95.7z"/>
		<radialGradient id="SVGID_4_" cx="143.8134" cy="115.0171" r="16.8889" gradientUnits="userSpaceOnUse">
			<stop  offset="0" style="stop-color:#EFE17B"/>
			<stop  offset="1" style="stop-color:#C1AC51"/>
		</radialGradient>
		<path style="fill:url(#SVGID_4_);" d="M147.5,99.7c1.2-1.1,2.7-2,4.4-2.8c-0.8-1.6-1.8-3.3-3.2-4.7c-1.7,1-3.3,2.2-4.5,3.5
			C145.6,96.9,146.7,98.3,147.5,99.7z"/>
		<radialGradient id="SVGID_5_" cx="143.8134" cy="115.0171" r="16.8889" gradientUnits="userSpaceOnUse">
			<stop  offset="0" style="stop-color:#EFE17B"/>
			<stop  offset="1" style="stop-color:#C1AC51"/>
		</radialGradient>
		<path style="fill:url(#SVGID_5_);" d="M158.5,101c-0.1-1.8-0.4-3.7-1.1-5.6c-2,0.3-3.8,0.8-5.5,1.5c0.8,1.7,1.3,3.3,1.5,4.9
			C155,101.3,156.7,101,158.5,101z"/>
		<radialGradient id="SVGID_6_" cx="143.8134" cy="115.0171" r="16.8889" gradientUnits="userSpaceOnUse">
			<stop  offset="0" style="stop-color:#EFE17B"/>
			<stop  offset="1" style="stop-color:#C1AC51"/>
		</radialGradient>
		<path style="fill:url(#SVGID_6_);" d="M158,106.1c1.7,0.1,3.4,0.5,5,1.1c0.6-1.7,1-3.6,1.1-5.6c-1.9-0.5-3.8-0.7-5.7-0.7
			C158.6,102.8,158.4,104.5,158,106.1z"/>
		<radialGradient id="SVGID_7_" cx="143.8134" cy="115.0171" r="16.8889" gradientUnits="userSpaceOnUse">
			<stop  offset="0" style="stop-color:#EFE17B"/>
			<stop  offset="1" style="stop-color:#C1AC51"/>
		</radialGradient>
		<path style="fill:url(#SVGID_7_);" d="M164.8,114.8c1.2-1.4,2.3-2.9,3.2-4.7c-1.6-1.2-3.3-2.2-5-2.8c-0.6,1.7-1.4,3.3-2.4,4.6
			C162.1,112.6,163.5,113.6,164.8,114.8z"/>
		<radialGradient id="SVGID_8_" cx="143.8134" cy="115.0171" r="16.8889" gradientUnits="userSpaceOnUse">
			<stop  offset="0" style="stop-color:#EFE17B"/>
			<stop  offset="1" style="stop-color:#C1AC51"/>
		</radialGradient>
		<path style="fill:url(#SVGID_8_);" d="M164.8,114.8c-1.2,1.3-2.6,2.4-4,3.3c1.1,1.2,2,2.7,2.8,4.4c1.6-0.8,3.2-1.8,4.7-3.2
			C167.3,117.6,166.2,116.1,164.8,114.8z"/>
		<radialGradient id="SVGID_9_" cx="143.8134" cy="115.0171" r="16.8889" gradientUnits="userSpaceOnUse">
			<stop  offset="0" style="stop-color:#EFE17B"/>
			<stop  offset="1" style="stop-color:#C1AC51"/>
		</radialGradient>
		<path style="fill:url(#SVGID_9_);" d="M159.5,129.1c1.8-0.1,3.7-0.5,5.6-1.1c-0.3-2-0.8-3.8-1.5-5.5c-1.7,0.8-3.3,1.3-4.9,1.5
			C159.2,125.6,159.5,127.3,159.5,129.1z"/>
		<radialGradient id="SVGID_10_" cx="143.8134" cy="115.0171" r="16.8889" gradientUnits="userSpaceOnUse">
			<stop  offset="0" style="stop-color:#EFE17B"/>
			<stop  offset="1" style="stop-color:#C1AC51"/>
		</radialGradient>
		<path style="fill:url(#SVGID_10_);" d="M154.4,128.6c-0.1,1.6-0.5,3.3-1.2,5c1.7,0.6,3.6,1,5.6,1.1c0.5-1.9,0.7-3.8,0.7-5.7
			C157.7,129.2,156,129,154.4,128.6z"/>
		<radialGradient id="SVGID_11_" cx="143.8134" cy="115.0171" r="16.8889" gradientUnits="userSpaceOnUse">
			<stop  offset="0" style="stop-color:#EFE17B"/>
			<stop  offset="1" style="stop-color:#C1AC51"/>
		</radialGradient>
		<path style="fill:url(#SVGID_11_);" d="M145.7,135.4c1.3,1.2,2.9,2.3,4.7,3.2c1.2-1.6,2.2-3.3,2.8-5c-1.7-0.6-3.2-1.4-4.6-2.4
			C147.9,132.7,146.9,134.1,145.7,135.4z"/>
		<radialGradient id="SVGID_12_" cx="143.8134" cy="115.0171" r="16.8889" gradientUnits="userSpaceOnUse">
			<stop  offset="0" style="stop-color:#EFE17B"/>
			<stop  offset="1" style="stop-color:#C1AC51"/>
		</radialGradient>
		<path style="fill:url(#SVGID_12_);" d="M142.4,131.4c-1.2,1.1-2.7,2-4.4,2.8c0.8,1.6,1.8,3.2,3.1,4.7c1.7-1,3.3-2.2,4.5-3.5
			C144.3,134.2,143.2,132.9,142.4,131.4z"/>
		<radialGradient id="SVGID_13_" cx="143.8134" cy="115.0171" r="16.8889" gradientUnits="userSpaceOnUse">
			<stop  offset="0" style="stop-color:#EFE17B"/>
			<stop  offset="1" style="stop-color:#C1AC51"/>
		</radialGradient>
		<path style="fill:url(#SVGID_13_);" d="M131.4,130.1c0.1,1.8,0.5,3.7,1.1,5.6c2-0.3,3.8-0.8,5.5-1.5c-0.8-1.6-1.3-3.3-1.5-5
			C135,129.8,133.2,130.1,131.4,130.1z"/>
		<radialGradient id="SVGID_14_" cx="143.8134" cy="115.0171" r="16.8889" gradientUnits="userSpaceOnUse">
			<stop  offset="0" style="stop-color:#EFE17B"/>
			<stop  offset="1" style="stop-color:#C1AC51"/>
		</radialGradient>
		<path style="fill:url(#SVGID_14_);" d="M131.9,125c-1.6-0.1-3.4-0.5-5.1-1.1c-0.6,1.7-1,3.6-1.1,5.6c1.9,0.5,3.8,0.7,5.7,0.7
			C131.3,128.3,131.5,126.6,131.9,125z"/>
		<radialGradient id="SVGID_15_" cx="143.8134" cy="115.0171" r="16.8889" gradientUnits="userSpaceOnUse">
			<stop  offset="0" style="stop-color:#EFE17B"/>
			<stop  offset="1" style="stop-color:#C1AC51"/>
		</radialGradient>
		<path style="fill:url(#SVGID_15_);" d="M125.1,116.3c-1.2,1.3-2.3,2.9-3.2,4.7c1.6,1.2,3.3,2.2,5,2.8c0.6-1.7,1.4-3.2,2.4-4.6
			C127.8,118.5,126.4,117.5,125.1,116.3z"/>
		<radialGradient id="SVGID_16_" cx="143.8134" cy="115.0171" r="16.8889" gradientUnits="userSpaceOnUse">
			<stop  offset="0" style="stop-color:#EFE17B"/>
			<stop  offset="1" style="stop-color:#C1AC51"/>
		</radialGradient>
		<path style="fill:url(#SVGID_16_);" d="M129.1,113c-1.1-1.2-2-2.7-2.7-4.4c-1.7,0.8-3.3,1.8-4.8,3.2c1,1.7,2.2,3.2,3.5,4.5
			C126.3,114.9,127.7,113.8,129.1,113z"/>
		<radialGradient id="SVGID_17_" cx="143.8134" cy="115.0171" r="16.8889" gradientUnits="userSpaceOnUse">
			<stop  offset="0" style="stop-color:#EFE17B"/>
			<stop  offset="1" style="stop-color:#C1AC51"/>
		</radialGradient>
		<path style="fill:url(#SVGID_17_);" d="M133.1,109.2c0.2-0.4,0.1-1.1-0.4-1.4c-0.5-0.3-1.1-0.1-1.4,0.4c-0.3,0.5-0.1,1.2,0.4,1.4
			C132.3,109.8,132.9,109.6,133.1,109.2z"/>
		<radialGradient id="SVGID_18_" cx="143.8134" cy="115.0171" r="16.8889" gradientUnits="userSpaceOnUse">
			<stop  offset="0" style="stop-color:#EFE17B"/>
			<stop  offset="1" style="stop-color:#C1AC51"/>
		</radialGradient>
		<path style="fill:url(#SVGID_18_);" d="M135.3,106.2c0.4-0.4,0.4-1,0-1.4c-0.4-0.4-1-0.4-1.5,0c-0.4,0.4-0.4,1.1,0,1.5
			C134.3,106.6,134.9,106.6,135.3,106.2z"/>
		<radialGradient id="SVGID_19_" cx="143.8134" cy="115.0171" r="16.8889" gradientUnits="userSpaceOnUse">
			<stop  offset="0" style="stop-color:#EFE17B"/>
			<stop  offset="1" style="stop-color:#C1AC51"/>
		</radialGradient>
		<path style="fill:url(#SVGID_19_);" d="M138.2,103.9c0.4-0.3,0.6-0.9,0.4-1.4c-0.2-0.5-0.9-0.7-1.4-0.4c-0.5,0.3-0.7,1-0.4,1.4
			C137.1,104.1,137.7,104.2,138.2,103.9z"/>
		<radialGradient id="SVGID_20_" cx="143.8134" cy="115.0171" r="16.8889" gradientUnits="userSpaceOnUse">
			<stop  offset="0" style="stop-color:#EFE17B"/>
			<stop  offset="1" style="stop-color:#C1AC51"/>
		</radialGradient>
		<path style="fill:url(#SVGID_20_);" d="M141.6,102.5c0.5-0.1,0.8-0.7,0.7-1.2c-0.1-0.6-0.7-0.9-1.3-0.8c-0.6,0.1-0.9,0.8-0.7,1.3
			C140.5,102.4,141.1,102.7,141.6,102.5z"/>
		<radialGradient id="SVGID_21_" cx="143.8134" cy="115.0171" r="16.8889" gradientUnits="userSpaceOnUse">
			<stop  offset="0" style="stop-color:#EFE17B"/>
			<stop  offset="1" style="stop-color:#C1AC51"/>
		</radialGradient>
		<path style="fill:url(#SVGID_21_);" d="M145.2,102.1c0.5,0,1-0.4,1-1c0.1-0.6-0.4-1.1-1-1.1c-0.6,0-1.1,0.5-1,1
			C144.2,101.6,144.7,102.1,145.2,102.1z"/>
		<radialGradient id="SVGID_22_" cx="143.8134" cy="115.0171" r="16.8889" gradientUnits="userSpaceOnUse">
			<stop  offset="0" style="stop-color:#EFE17B"/>
			<stop  offset="1" style="stop-color:#C1AC51"/>
		</radialGradient>
		<path style="fill:url(#SVGID_22_);" d="M148.8,102.7c0.5,0.1,1.1-0.1,1.3-0.7c0.2-0.5-0.1-1.1-0.7-1.3c-0.6-0.2-1.2,0.2-1.3,0.7
			C148,102,148.3,102.5,148.8,102.7z"/>
		<radialGradient id="SVGID_23_" cx="143.8134" cy="115.0171" r="16.8889" gradientUnits="userSpaceOnUse">
			<stop  offset="0" style="stop-color:#EFE17B"/>
			<stop  offset="1" style="stop-color:#C1AC51"/>
		</radialGradient>
		<path style="fill:url(#SVGID_23_);" d="M153.5,103.9c0.3-0.5,0.2-1.1-0.3-1.4c-0.5-0.3-1.2-0.1-1.4,0.4c-0.3,0.5-0.1,1.1,0.3,1.4
			C152.6,104.5,153.2,104.3,153.5,103.9z"/>
		<radialGradient id="SVGID_24_" cx="143.8134" cy="115.0171" r="16.8889" gradientUnits="userSpaceOnUse">
			<stop  offset="0" style="stop-color:#EFE17B"/>
			<stop  offset="1" style="stop-color:#C1AC51"/>
		</radialGradient>
		<path style="fill:url(#SVGID_24_);" d="M156.4,106.6c0.5-0.3,0.5-1,0.1-1.5c-0.4-0.5-1.1-0.5-1.5-0.1c-0.4,0.4-0.4,1,0,1.4
			C155.3,106.9,155.9,107,156.4,106.6z"/>
		<radialGradient id="SVGID_25_" cx="143.8134" cy="115.0171" r="16.8889" gradientUnits="userSpaceOnUse">
			<stop  offset="0" style="stop-color:#EFE17B"/>
			<stop  offset="1" style="stop-color:#C1AC51"/>
		</radialGradient>
		<path style="fill:url(#SVGID_25_);" d="M158.4,110c0.5-0.2,0.8-0.8,0.5-1.4c-0.3-0.5-0.9-0.7-1.4-0.4c-0.5,0.3-0.7,0.9-0.4,1.4
			C157.3,110,157.8,110.2,158.4,110z"/>
		<radialGradient id="SVGID_26_" cx="143.8134" cy="115.0171" r="16.8889" gradientUnits="userSpaceOnUse">
			<stop  offset="0" style="stop-color:#EFE17B"/>
			<stop  offset="1" style="stop-color:#C1AC51"/>
		</radialGradient>
		<path style="fill:url(#SVGID_26_);" d="M158.2,113c0.1,0.5,0.6,0.9,1.2,0.8c0.6-0.1,1-0.6,0.8-1.2c-0.1-0.6-0.7-0.9-1.2-0.8
			C158.4,112,158.1,112.5,158.2,113z"/>
		<radialGradient id="SVGID_27_" cx="143.8134" cy="115.0171" r="16.8889" gradientUnits="userSpaceOnUse">
			<stop  offset="0" style="stop-color:#EFE17B"/>
			<stop  offset="1" style="stop-color:#C1AC51"/>
		</radialGradient>
		<path style="fill:url(#SVGID_27_);" d="M159.4,115.8c-0.6,0-1,0.4-1.1,0.9c0,0.5,0.3,1,0.9,1.1c0.6,0.1,1.1-0.3,1.1-0.9
			C160.5,116.3,160,115.8,159.4,115.8z"/>
		<radialGradient id="SVGID_28_" cx="143.8134" cy="115.0171" r="16.8889" gradientUnits="userSpaceOnUse">
			<stop  offset="0" style="stop-color:#EFE17B"/>
			<stop  offset="1" style="stop-color:#C1AC51"/>
		</radialGradient>
		<path style="fill:url(#SVGID_28_);" d="M158.8,119.7c-0.5-0.2-1.1,0.1-1.3,0.6c-0.2,0.5,0.1,1.1,0.6,1.3c0.5,0.2,1.1,0,1.3-0.6
			C159.7,120.4,159.4,119.8,158.8,119.7z"/>
		<radialGradient id="SVGID_29_" cx="143.8134" cy="115.0171" r="16.8889" gradientUnits="userSpaceOnUse">
			<stop  offset="0" style="stop-color:#EFE17B"/>
			<stop  offset="1" style="stop-color:#C1AC51"/>
		</radialGradient>
		<path style="fill:url(#SVGID_29_);" d="M155.8,123.5c-0.3,0.4-0.2,1,0.2,1.4c0.4,0.4,1.1,0.3,1.5-0.2c0.4-0.5,0.2-1.2-0.3-1.4
			C156.7,123,156.1,123.1,155.8,123.5z"/>
		<radialGradient id="SVGID_30_" cx="143.8134" cy="115.0171" r="16.8889" gradientUnits="userSpaceOnUse">
			<stop  offset="0" style="stop-color:#EFE17B"/>
			<stop  offset="1" style="stop-color:#C1AC51"/>
		</radialGradient>
		<path style="fill:url(#SVGID_30_);" d="M153.3,126.1c-0.4,0.3-0.5,0.9-0.2,1.4c0.3,0.5,1,0.6,1.4,0.2c0.5-0.4,0.5-1,0.1-1.5
			C154.3,125.9,153.7,125.8,153.3,126.1z"/>
		<radialGradient id="SVGID_31_" cx="143.8134" cy="115.0171" r="16.8889" gradientUnits="userSpaceOnUse">
			<stop  offset="0" style="stop-color:#EFE17B"/>
			<stop  offset="1" style="stop-color:#C1AC51"/>
		</radialGradient>
		<path style="fill:url(#SVGID_31_);" d="M150.1,128c-0.5,0.2-0.7,0.8-0.6,1.3c0.2,0.5,0.8,0.8,1.3,0.6c0.6-0.2,0.8-0.9,0.5-1.4
			C151.2,128,150.6,127.8,150.1,128z"/>
		<radialGradient id="SVGID_32_" cx="143.8134" cy="115.0171" r="16.8889" gradientUnits="userSpaceOnUse">
			<stop  offset="0" style="stop-color:#EFE17B"/>
			<stop  offset="1" style="stop-color:#C1AC51"/>
		</radialGradient>
		<path style="fill:url(#SVGID_32_);" d="M146.6,128.9c-0.5,0.1-0.9,0.5-0.9,1.1c0,0.6,0.5,1,1.1,0.9c0.6-0.1,1-0.6,0.9-1.2
			C147.6,129.2,147.1,128.9,146.6,128.9z"/>
		<radialGradient id="SVGID_33_" cx="143.8134" cy="115.0171" r="16.8889" gradientUnits="userSpaceOnUse">
			<stop  offset="0" style="stop-color:#EFE17B"/>
			<stop  offset="1" style="stop-color:#C1AC51"/>
		</radialGradient>
		<path style="fill:url(#SVGID_33_);" d="M142.9,128.9c-0.5-0.1-1,0.3-1.2,0.8c-0.1,0.5,0.2,1.1,0.9,1.2c0.6,0.1,1.1-0.3,1.2-0.9
			C143.8,129.4,143.4,128.9,142.9,128.9z"/>
		<radialGradient id="SVGID_34_" cx="143.8134" cy="115.0171" r="16.8889" gradientUnits="userSpaceOnUse">
			<stop  offset="0" style="stop-color:#EFE17B"/>
			<stop  offset="1" style="stop-color:#C1AC51"/>
		</radialGradient>
		<path style="fill:url(#SVGID_34_);" d="M139.4,127.8c-0.5-0.2-1.1,0-1.3,0.5c-0.3,0.5-0.1,1.1,0.5,1.4c0.6,0.3,1.2,0,1.4-0.5
			C140.1,128.6,139.9,128,139.4,127.8z"/>
		<radialGradient id="SVGID_35_" cx="143.8134" cy="115.0171" r="16.8889" gradientUnits="userSpaceOnUse">
			<stop  offset="0" style="stop-color:#EFE17B"/>
			<stop  offset="1" style="stop-color:#C1AC51"/>
		</radialGradient>
		<path style="fill:url(#SVGID_35_);" d="M134.9,125.9c-0.4,0.4-0.4,1.1,0.1,1.5c0.5,0.4,1.1,0.3,1.5-0.1c0.3-0.5,0.3-1.1-0.1-1.4
			C135.9,125.5,135.3,125.6,134.9,125.9z"/>
		<radialGradient id="SVGID_36_" cx="143.8134" cy="115.0171" r="16.8889" gradientUnits="userSpaceOnUse">
			<stop  offset="0" style="stop-color:#EFE17B"/>
			<stop  offset="1" style="stop-color:#C1AC51"/>
		</radialGradient>
		<path style="fill:url(#SVGID_36_);" d="M132.4,122.8c-0.5,0.3-0.6,0.9-0.3,1.4c0.3,0.5,1,0.6,1.4,0.2c0.4-0.3,0.5-1,0.2-1.4
			C133.5,122.7,132.9,122.6,132.4,122.8z"/>
		<radialGradient id="SVGID_37_" cx="143.8134" cy="115.0171" r="16.8889" gradientUnits="userSpaceOnUse">
			<stop  offset="0" style="stop-color:#EFE17B"/>
			<stop  offset="1" style="stop-color:#C1AC51"/>
		</radialGradient>
		<path style="fill:url(#SVGID_37_);" d="M130.9,119.2c-0.5,0.1-0.9,0.7-0.7,1.3c0.2,0.6,0.8,0.9,1.3,0.6c0.5-0.2,0.8-0.8,0.6-1.3
			C132,119.4,131.5,119.1,130.9,119.2z"/>
		<radialGradient id="SVGID_38_" cx="143.8134" cy="115.0171" r="16.8889" gradientUnits="userSpaceOnUse">
			<stop  offset="0" style="stop-color:#EFE17B"/>
			<stop  offset="1" style="stop-color:#C1AC51"/>
		</radialGradient>
		<path style="fill:url(#SVGID_38_);" d="M131.5,116.2c0-0.5-0.5-0.9-1-1c-0.6,0-1,0.5-1,1.1c0,0.6,0.6,1,1.1,1
			C131.1,117.2,131.5,116.8,131.5,116.2z"/>
		<radialGradient id="SVGID_39_" cx="143.8134" cy="115.0171" r="16.8889" gradientUnits="userSpaceOnUse">
			<stop  offset="0" style="stop-color:#EFE17B"/>
			<stop  offset="1" style="stop-color:#C1AC51"/>
		</radialGradient>
		<path style="fill:url(#SVGID_39_);" d="M130.6,113.4c0.6,0.1,1.1-0.3,1.2-0.8c0.1-0.5-0.2-1-0.7-1.2c-0.5-0.2-1.1,0.2-1.3,0.8
			C129.7,112.7,130.1,113.3,130.6,113.4z"/>
		<radialGradient id="SVGID_40_" cx="143.8134" cy="115.0171" r="16.8889" gradientUnits="userSpaceOnUse">
			<stop  offset="0" style="stop-color:#EFE17B"/>
			<stop  offset="1" style="stop-color:#C1AC51"/>
		</radialGradient>
		<path style="fill:url(#SVGID_40_);" d="M156.4,119.8c2.4-6.3-0.9-13.3-7.2-15.7c-6.3-2.4-13.3,0.9-15.7,7.2
			c-2.4,6.3,0.9,13.4,7.2,15.7C147,129.3,154.1,126.1,156.4,119.8z M141.7,124.4c-4.9-1.8-7.4-7.3-5.5-12.1
			c1.8-4.9,7.2-7.4,12.1-5.5c4.9,1.8,7.4,7.2,5.6,12.1C152,123.7,146.6,126.2,141.7,124.4z"/>
	</g>
	<g>
		<linearGradient id="XMLID_3_" gradientUnits="userSpaceOnUse" x1="4.6539" y1="95.1566" x2="98.1013" y2="95.1566">
			<stop  offset="0" style="stop-color:#EFE17B"/>
			<stop  offset="1" style="stop-color:#C1AC51"/>
		</linearGradient>
		<path id="XMLID_46_" style="fill:url(#XMLID_3_);" d="M98.1,53.3c0,0.4,0,0.8,0,1.2c-0.3,2.1-2.3,3.6-4.4,3.6
			c-12.3,0.1-56.8,0.5-56.8,0.5s19.8,7.5,20.7,38.3c0.9,29.6-30.8,42.1-45.3,44.1c-1.7,0.2-6.8,0.5-5-0.7
			c6.3-4.1,39.7-24.6,42.2-43.1c2-23.2-32.8-39.7-40.1-39.5c-6.3,0.3-6.1-8.6-0.6-8.7c12.4,0,65.3,0.2,84.3,0.1
			C95.5,49.2,97.8,50.9,98.1,53.3z"/>
		<linearGradient id="XMLID_4_" gradientUnits="userSpaceOnUse" x1="39.9117" y1="136.2137" x2="58.5243" y2="136.2137">
			<stop  offset="0" style="stop-color:#EFE17B"/>
			<stop  offset="1" style="stop-color:#C1AC51"/>
		</linearGradient>
		<ellipse id="XMLID_45_" style="fill:url(#XMLID_4_);" cx="49.2" cy="136.2" rx="9.3" ry="9.2"/>
		<linearGradient id="XMLID_5_" gradientUnits="userSpaceOnUse" x1="39.655" y1="154.0244" x2="58.2676" y2="154.0244">
			<stop  offset="0" style="stop-color:#EFE17B"/>
			<stop  offset="1" style="stop-color:#C1AC51"/>
		</linearGradient>
		<ellipse id="XMLID_44_" style="fill:url(#XMLID_5_);" cx="49" cy="154" rx="9.3" ry="9.2"/>
		<linearGradient id="XMLID_6_" gradientUnits="userSpaceOnUse" x1="40.1685" y1="171.8351" x2="58.7811" y2="171.8351">
			<stop  offset="0" style="stop-color:#EFE17B"/>
			<stop  offset="1" style="stop-color:#C1AC51"/>
		</linearGradient>
		<ellipse id="XMLID_43_" style="fill:url(#XMLID_6_);" cx="49.5" cy="171.8" rx="9.3" ry="9.2"/>
	</g>
</g>
</svg>
