<?xml version="1.0" encoding="utf-8"?>
<!-- Generator: Adobe Illustrator 23.0.1, SVG Export Plug-In . SVG Version: 6.00 Build 0)  -->
<svg version="1.1" id="Isolation_Mode" xmlns="http://www.w3.org/2000/svg" xmlns:xlink="http://www.w3.org/1999/xlink" x="0px"
	 y="0px" viewBox="0 0 263.1 286.3" style="enable-background:new 0 0 263.1 286.3;" xml:space="preserve">
<g>
	<path style="fill:#3B1678;" d="M85.7,171.8H65.9c-24.9,0-45.3-20.4-45.3-45.3v-13.2c0-24.9,20.4-45.3,45.3-45.3h19.8
		c24.9,0,45.3,20.4,45.3,45.3v13.2C131,151.4,110.6,171.8,85.7,171.8z"/>
	<g>
		<ellipse style="opacity:0.8;fill:#00274C;" cx="86.5" cy="203.2" rx="52.9" ry="12.1"/>
		<path style="opacity:0.5;fill:#00274C;" d="M249.7,274.5c-3.3,3.9-13.1,5.9-21.8,4.4c-8.7-1.5-13.1-5.9-9.7-9.8
			c3.3-3.9,13.1-5.9,21.8-4.4C248.7,266.2,253,270.6,249.7,274.5z"/>
		<g>
			<path style="fill:#FF4487;" d="M140.5,173.4c0.9-0.4,1.7-0.7,2.6-1c0.5-0.2,1-0.3,1.5-0.2c-1.2-3.4-1.7-5.7-1.7-5.8
				c-0.2-1.1-1.3-1.8-2.5-1.6c-1.2,0.2-1.9,1.3-1.7,2.4C138.7,167.3,139.2,169.8,140.5,173.4z"/>
			<path style="fill:#00274C;" d="M197.4,231.5c-13.7-1.6-31-4.7-42.4-14.2c-5.6-4.7-7.7-9.8-5.7-14.2c1.1-2.4,3.3-4.5,6.3-6
				c4.3,3.8,9.2,6.5,14.6,8c11.9,3.3,20.5,1.3,23.8-2.1c1.6-1.7,2.1-3.8,1.2-5.8c-1.7-4.1-8.3-6.7-18.5-7.4
				c-8.5-0.6-15.2,0.5-20.2,2.4c-0.3-0.3-0.6-0.6-0.9-1c-1.1,0.9-2.2,1.8-3.2,2.7c0,0,0.1,0.1,0.1,0.1c-0.6,0.3-1.1,0.7-1.7,1.1
				c-0.1,0.1-0.2,0.2-0.3,0.2c-0.1,0.1-0.3,0.2-0.4,0.3c-2.3,1.8-3.9,3.8-4.8,5.8c-2.7,6.1-0.6,13.6,6.4,19.5
				c6.5,5.4,20,13,45.1,14.6c0.1,0,0.2,0,0.3,0c1.1,0,2-0.8,2.1-1.8C199.5,232.7,198.6,231.7,197.4,231.5z M176.5,193.9
				c10.3,0.7,14.2,3.3,14.8,4.8c0.1,0.2,0.3,0.7-0.4,1.5c-1.9,2-8.7,3.9-19.4,0.9c-4.4-1.2-8.1-3.3-11.3-5.8
				C164.6,194,170.2,193.5,176.5,193.9z"/>
		</g>
		<g>
			<path style="fill:#241629;" d="M197.2,235.6c-0.1,0-0.2,0-0.3,0c-27.3-3.4-38.2-10.4-44.7-16.1c-7-6.2-9.5-13.5-6.8-20
				c1.2-2.8,3.5-5.6,7.2-7.9c-2.9-3.2-5.4-7-7.6-11.4c-4.6-8.9-6.1-16.8-6.1-17.1c-0.2-1.2,0.6-2.3,1.7-2.5c1.2-0.2,2.3,0.6,2.5,1.7
				c0,0.2,3.1,16.1,13.5,27.3c5-2,11.7-3.1,20.2-2.5c10.2,0.7,16.7,3.5,18.5,7.8c0.8,2.1,0.4,4.3-1.2,6.1
				c-3.3,3.6-11.9,5.7-23.8,2.2c-5.3-1.6-10.2-4.4-14.6-8.4c-3,1.6-5.2,3.8-6.3,6.4c-1.9,4.6,0.1,10.1,5.7,15.1
				c11.4,10.1,28.6,13.3,42.3,15.1c1.2,0.1,2,1.2,1.9,2.4C199.2,234.8,198.3,235.6,197.2,235.6z M160.2,193
				c3.2,2.7,6.9,4.8,11.3,6.1c10.7,3.2,17.5,1.2,19.4-1c0.7-0.8,0.5-1.4,0.4-1.6c-0.6-1.6-4.4-4.4-14.8-5.1
				C170.3,191,164.7,191.6,160.2,193z"/>
		</g>
		<g>
			<path style="fill:#620F0A;" d="M60.2,199.2L60.2,199.2c-2.7-0.7-4.4-3.5-3.7-6.2l6.3-24.4c0.7-2.7,3.5-4.4,6.2-3.7l0,0
				c2.7,0.7,4.4,3.5,3.7,6.2l-6.3,24.4C65.7,198.3,62.9,199.9,60.2,199.2z"/>
			<path style="fill:#620F0A;" d="M112.5,199.2L112.5,199.2c2.7-0.7,4.4-3.5,3.7-6.2l-6.3-24.4c-0.7-2.7-3.5-4.4-6.2-3.7l0,0
				c-2.7,0.7-4.4,3.5-3.7,6.2l6.3,24.4C107,198.3,109.8,199.9,112.5,199.2z"/>
			<path style="fill:#7B200A;" d="M49.5,205.8L49.5,205.8c-2.7-0.7-4.4-3.5-3.7-6.2l6.3-24.4c0.7-2.7,3.5-4.4,6.2-3.7l0,0
				c2.7,0.7,4.4,3.5,3.7,6.2l-6.3,24.4C55,204.8,52.2,206.5,49.5,205.8z"/>
			<path style="fill:#7B200A;" d="M123.6,205.8L123.6,205.8c2.7-0.7,4.4-3.5,3.7-6.2l-6.3-24.4c-0.7-2.7-3.5-4.4-6.2-3.7l0,0
				c-2.7,0.7-4.4,3.5-3.7,6.2l6.3,24.4C118.1,204.8,120.9,206.5,123.6,205.8z"/>
			<path style="fill:#CEAA11;" d="M39.7,179.9v-12.6c0-5.8,4.7-10.5,10.5-10.5h72.6c5.8,0,10.5,4.7,10.5,10.5v12.6
				c0,5.8-4.7,10.5-10.5,10.5H50.2C44.5,190.5,39.7,185.7,39.7,179.9z"/>
			
				<ellipse transform="matrix(0.9732 -0.2298 0.2298 0.9732 -15.7104 22.2691)" style="fill:#CEAA11;" cx="87.8" cy="78.6" rx="34.8" ry="34.8"/>
			<path style="fill:#D0BA42;" d="M110.1,54.1H62.9c-31.1,0-56.3,25.3-56.3,56.3v19.1c0,31.1,25.3,56.3,56.3,56.3h47.2
				c31.1,0,56.3-25.3,56.3-56.3v-19.1C166.5,79.3,141.2,54.1,110.1,54.1z"/>
			<path style="fill:#FFFFFF;" d="M110.1,57.8H62.9c-29,0-52.6,23.6-52.6,52.6v19.1c0,29,23.6,52.6,52.6,52.6h47.2
				c29,0,52.6-23.6,52.6-52.6v-19.1C162.7,81.4,139.1,57.8,110.1,57.8z"/>
			<path style="fill:#EEE1F0;" d="M147.8,90.5h-0.5c-6.2,0-11.3,5-11.3,11.3v36.4c0,6.2,5,11.3,11.3,11.3h0.5
				c6.2,0,11.2-5,11.2-11.3v-36.4C159.1,95.6,154,90.5,147.8,90.5z"/>
			<path style="fill:#B2C1DE;" d="M147.6,148L147.6,148c-5.6,0-10.1-4.5-10.1-10.1V102c0-5.6,4.5-10.1,10.1-10.1h0
				c5.6,0,10.1,4.5,10.1,10.1v35.9C157.7,143.4,153.1,148,147.6,148z"/>
			<g>
				<path style="fill:#CDDBEC;" d="M152.8,142h-10.5c-0.8,0-1.4-0.6-1.4-1.4v0c0-0.8,0.6-1.4,1.4-1.4h10.5c0.8,0,1.4,0.6,1.4,1.4v0
					C154.2,141.4,153.6,142,152.8,142z"/>
				<path style="fill:#CDDBEC;" d="M152.8,137.3h-10.5c-0.8,0-1.4-0.6-1.4-1.4l0,0c0-0.8,0.6-1.4,1.4-1.4h10.5
					c0.8,0,1.4,0.6,1.4,1.4l0,0C154.2,136.7,153.6,137.3,152.8,137.3z"/>
				<path style="fill:#CDDBEC;" d="M152.8,132.6h-10.5c-0.8,0-1.4-0.6-1.4-1.4l0,0c0-0.8,0.6-1.4,1.4-1.4h10.5
					c0.8,0,1.4,0.6,1.4,1.4l0,0C154.2,132,153.6,132.6,152.8,132.6z"/>
				<path style="fill:#CDDBEC;" d="M152.8,128h-10.5c-0.8,0-1.4-0.6-1.4-1.4l0,0c0-0.8,0.6-1.4,1.4-1.4h10.5c0.8,0,1.4,0.6,1.4,1.4
					l0,0C154.2,127.3,153.6,128,152.8,128z"/>
				<path style="fill:#CDDBEC;" d="M152.8,123.3h-10.5c-0.8,0-1.4-0.6-1.4-1.4l0,0c0-0.8,0.6-1.4,1.4-1.4h10.5
					c0.8,0,1.4,0.6,1.4,1.4l0,0C154.2,122.7,153.6,123.3,152.8,123.3z"/>
				<path style="fill:#CDDBEC;" d="M152.8,118.6h-10.5c-0.8,0-1.4-0.6-1.4-1.4l0,0c0-0.8,0.6-1.4,1.4-1.4h10.5
					c0.8,0,1.4,0.6,1.4,1.4l0,0C154.2,118,153.6,118.6,152.8,118.6z"/>
			</g>
			<g>
				<path style="fill:#8991B1;" d="M152.8,142.3h-10.5c-0.8,0-1.4-0.6-1.4-1.4l0,0c0-0.8,0.6-1.4,1.4-1.4h10.5
					c0.8,0,1.4,0.6,1.4,1.4l0,0C154.2,141.6,153.6,142.3,152.8,142.3z"/>
				<path style="fill:#8991B1;" d="M152.8,137.6h-10.5c-0.8,0-1.4-0.6-1.4-1.4l0,0c0-0.8,0.6-1.4,1.4-1.4h10.5
					c0.8,0,1.4,0.6,1.4,1.4l0,0C154.2,137,153.6,137.6,152.8,137.6z"/>
				<path style="fill:#8991B1;" d="M152.8,132.9h-10.5c-0.8,0-1.4-0.6-1.4-1.4l0,0c0-0.8,0.6-1.4,1.4-1.4h10.5
					c0.8,0,1.4,0.6,1.4,1.4l0,0C154.2,132.3,153.6,132.9,152.8,132.9z"/>
				<path style="fill:#8991B1;" d="M152.8,128.3h-10.5c-0.8,0-1.4-0.6-1.4-1.4l0,0c0-0.8,0.6-1.4,1.4-1.4h10.5
					c0.8,0,1.4,0.6,1.4,1.4l0,0C154.2,127.6,153.6,128.3,152.8,128.3z"/>
				<path style="fill:#8991B1;" d="M152.8,123.6h-10.5c-0.8,0-1.4-0.6-1.4-1.4l0,0c0-0.8,0.6-1.4,1.4-1.4h10.5
					c0.8,0,1.4,0.6,1.4,1.4l0,0C154.2,123,153.6,123.6,152.8,123.6z"/>
				<path style="fill:#8991B1;" d="M152.8,118.9h-10.5c-0.8,0-1.4-0.6-1.4-1.4v0c0-0.8,0.6-1.4,1.4-1.4h10.5c0.8,0,1.4,0.6,1.4,1.4
					v0C154.2,118.3,153.6,118.9,152.8,118.9z"/>
			</g>
			<g>
				
					<ellipse transform="matrix(0.9732 -0.2298 0.2298 0.9732 -32.5002 35.7977)" style="fill:#B8C8E3;" cx="137.5" cy="157.5" rx="7.9" ry="7.9"/>
				<path style="fill:#D0BA42;" d="M131.2,157.5c0,3.5,2.8,6.3,6.3,6.3c3.5,0,6.3-2.8,6.3-6.3c0-3.5-2.8-6.3-6.3-6.3
					C134,151.2,131.2,154,131.2,157.5z"/>
				<path style="fill:#CEAA11;" d="M132.5,157.5c0,2.8,2.2,5,5,5c2.8,0,5-2.2,5-5c0-2.8-2.2-5-5-5
					C134.7,152.4,132.5,154.7,132.5,157.5z"/>
				<path style="fill:#D0BA42;" d="M140.6,154.3c-0.7-0.7-1.8-0.7-2.5,0l-3.8,3.8c-0.3,0.3-0.5,0.8-0.5,1.2c0,0.5,0.2,0.9,0.5,1.2
					c0.3,0.3,0.8,0.5,1.2,0.5s0.9-0.2,1.2-0.5l3.8-3.8c0,0,0,0,0,0C141.3,156.1,141.3,155,140.6,154.3z"/>
				<path style="fill:#FFFFFF;" d="M140.4,156.6l-3.8,3.8c-0.5,0.5-1.4,0.5-2,0l0,0c-0.5-0.5-0.5-1.4,0-2l3.8-3.8
					c0.5-0.5,1.4-0.5,2,0l0,0C140.9,155.1,140.9,156,140.4,156.6z"/>
			</g>
			<g>
				<g>
					<path style="fill:#B8C8E3;" d="M112.9,171.8c0,1.6,1.3,2.8,2.8,2.8c1.6,0,2.8-1.3,2.8-2.8c0-1.6-1.3-2.8-2.8-2.8
						C114.2,169,112.9,170.2,112.9,171.8z"/>
					<path style="fill:#F71B23;" d="M113.5,171.8c0,1.2,1,2.3,2.3,2.3s2.3-1,2.3-2.3c0-1.2-1-2.3-2.3-2.3S113.5,170.6,113.5,171.8z"
						/>
					<circle style="fill:#D8110F;" cx="115.7" cy="171.8" r="1.8"/>
				</g>
				<g>
					<path style="fill:#B8C8E3;" d="M119.8,171.8c0,1.6,1.3,2.8,2.8,2.8s2.8-1.3,2.8-2.8c0-1.6-1.3-2.8-2.8-2.8
						S119.8,170.2,119.8,171.8z"/>
					<path style="fill:#0B9784;" d="M120.3,171.8c0,1.2,1,2.3,2.3,2.3s2.3-1,2.3-2.3c0-1.2-1-2.3-2.3-2.3S120.3,170.6,120.3,171.8z"
						/>
					<circle style="fill:#0BCEB5;" cx="122.6" cy="171.8" r="1.8"/>
				</g>
				<g>
					<path style="fill:#B8C8E3;" d="M126.6,171.8c0,1.6,1.3,2.8,2.8,2.8c1.6,0,2.8-1.3,2.8-2.8c0-1.6-1.3-2.8-2.8-2.8
						C127.9,169,126.6,170.2,126.6,171.8z"/>
					<path style="fill:#FFA100;" d="M127.2,171.8c0,1.2,1,2.3,2.3,2.3c1.2,0,2.3-1,2.3-2.3c0-1.2-1-2.3-2.3-2.3
						C128.2,169.6,127.2,170.6,127.2,171.8z"/>
					<circle style="fill:#FF7C00;" cx="129.5" cy="171.8" r="1.8"/>
				</g>
			</g>
			<g style="opacity:0.29;">
				<path style="fill:#B8C8E3;" d="M110.1,57.8H83.3l-72.9,72.9c0.4,15.2,7.2,28.8,17.8,38.2L133.7,63.4
					C126.6,59.8,118.6,57.8,110.1,57.8z"/>
				<path style="fill:#B8C8E3;" d="M161.8,100.5c-0.3-1.4-0.6-2.7-1-4.1l-85.7,85.7h5L161.8,100.5z"/>
				<path style="fill:#B8C8E3;" d="M155.5,83.9c-1.9-3.3-4.2-6.3-6.7-9.1l-104,104c4.1,1.5,8.4,2.5,12.8,3L155.5,83.9z"/>
			</g>
			<path style="opacity:0.42;fill:#B8C8E3;" d="M110.1,58.7c28.5,0,51.7,23.2,51.7,51.7v19.1c0,28.5-23.2,51.7-51.7,51.7H62.9
				c-28.5,0-51.7-23.2-51.7-51.7v-19.1c0-28.5,23.2-51.7,51.7-51.7H110.1 M110.1,57.8H62.9c-29,0-52.6,23.6-52.6,52.6v19.1
				c0,29,23.6,52.6,52.6,52.6h47.2c29,0,52.6-23.6,52.6-52.6v-19.1C162.7,81.4,139.1,57.8,110.1,57.8L110.1,57.8z"/>
			<path style="fill:#B8C8E3;" d="M88.7,65.8H62.9c-24.6,0-44.6,20-44.6,44.6v19.1c0,24.6,20,44.6,44.6,44.6h25.7
				c24.6,0,44.6-20,44.6-44.6v-19.1C133.3,85.8,113.3,65.8,88.7,65.8z"/>
			<path style="fill:#174766;" d="M85.7,171.8H65.9c-24.9,0-45.3-20.4-45.3-45.3v-13.2c0-24.9,20.4-45.3,45.3-45.3h19.8
				c24.9,0,45.3,20.4,45.3,45.3v13.2C131,151.4,110.6,171.8,85.7,171.8z"/>
			<g>
				<path style="fill:#FFFFFF;" d="M74.4,50.3L74.4,50.3c-0.6,0.4-1.5,0.1-1.8-0.5l-18-31.5c-0.4-0.6-0.1-1.5,0.5-1.8l0,0
					c0.6-0.4,1.5-0.1,1.8,0.5l18,31.5C75.2,49.1,75,49.9,74.4,50.3z"/>
				<g>
					<path style="fill:#C5C6BE;" d="M58.1,14.7c-1,0.1-2.1,0.5-3.3,1.2c-1.2,0.7-2.2,1.5-2.7,2.3l-1.1,0.6l0.7,1.2
						c0.5,1,2.8,0.7,5.1-0.6c2.3-1.3,3.7-3.1,3.1-4.1l-0.7-1.2L58.1,14.7z"/>
					<path style="fill:#FFFFFF;" d="M59.2,14.1c0.5,1-0.9,2.8-3.1,4.1s-4.6,1.6-5.1,0.6c-0.5-1,0.9-2.8,3.1-4.1
						C56.3,13.4,58.6,13.1,59.2,14.1z"/>
				</g>
			</g>
			<g>
				<g>
					<g>
						<path style="fill:#FFFFFF;" d="M100.2,50.2c-0.2,0-0.5-0.1-0.7-0.2c-0.7-0.4-0.9-1.3-0.5-1.9l4.1-7c0.2-0.4,0.6-0.6,1-0.7
							l2.6-0.3l-1.1-3c-0.2-0.4-0.1-0.9,0.2-1.3c0.3-0.4,0.7-0.6,1.1-0.6h3.3l-0.7-5.6c0-0.3,0-0.6,0.2-0.9l7-12.1
							c0.4-0.7,1.2-0.9,1.9-0.5c0.7,0.4,0.9,1.2,0.5,1.9l-6.7,11.7l0.9,6.7c0.1,0.4-0.1,0.8-0.3,1.1c-0.3,0.3-0.6,0.5-1.1,0.5H109
							l1,2.8c0.1,0.4,0.1,0.8-0.1,1.2c-0.2,0.4-0.6,0.6-1,0.7l-3.7,0.4l-3.8,6.4C101.1,49.9,100.6,50.2,100.2,50.2z"/>
					</g>
					<path style="fill:#C5C6BE;" d="M115.3,14.7c1,0.1,2.1,0.5,3.3,1.2c1.2,0.7,2.2,1.5,2.7,2.3l1.1,0.6l-0.7,1.2
						c-0.5,1-2.8,0.7-5.1-0.6c-2.3-1.3-3.7-3.1-3.1-4.1l0.7-1.2L115.3,14.7z"/>
					<path style="fill:#FFFFFF;" d="M114.2,14.1c-0.5,1,0.9,2.8,3.1,4.1s4.6,1.6,5.1,0.6c0.5-1-0.9-2.8-3.1-4.1
						C117,13.4,114.7,13.1,114.2,14.1z"/>
				</g>
			</g>
		</g>
		<g>
			<path style="fill:#0BCEB5;" d="M198,233.1c1.8,0,3.4-1.2,3.7-3c0.1-0.7-0.9-1-1-0.3c-0.3,1.3-1.3,2.2-2.7,2.2
				C197.3,232,197.3,233.1,198,233.1L198,233.1z"/>
		</g>
		<g>
			<path style="fill:#FFFFFF;" d="M197.7,234.8c0.8,0.5,1.4,1,2,1.7c0.2,0.2,0.5,0.4,0.7,0.2c0.2-0.1,0.4-0.5,0.2-0.7
				c-0.7-0.9-1.4-1.6-2.4-2.1C197.6,233.5,197.1,234.5,197.7,234.8L197.7,234.8z"/>
		</g>
		<g>
			<path style="fill:#D8110F;" d="M199,234.2c0.9,0.2,1.8,0.2,2.7,0c0.7-0.2,0.4-1.2-0.3-1c-0.7,0.2-1.4,0.2-2.1,0
				C198.7,233,198.4,234.1,199,234.2L199,234.2z"/>
		</g>
		<g>
			<path style="fill:#141213;" d="M155.7,194.8l-3.1-3.2c-0.3,0.2-0.6,0.4-0.9,0.6c1.9,0.9,2.1,2.9,2,3.8
				C154.4,195.6,155,195.2,155.7,194.8z"/>
			<path style="fill:#141213;" d="M160,192.9l0.8-0.1c0.6-0.2,1.3-0.3,1.9-0.5c-3.2-0.3-5.7-2.4-6.1-2.7c0,0,0,0,0,0
				C157.9,191.3,160,192.9,160,192.9z"/>
		</g>
		<polygon style="fill:#FFFF00;" points="199.5,228.8 199.6,229.6 200.5,229.7 199.6,229.9 199.5,230.7 199.4,229.9 198.5,229.7 
			199.4,229.6 		"/>
		<polygon style="fill:#FFFF00;" points="202.8,230.7 202.9,231.5 203.7,231.7 202.9,231.8 202.8,232.6 202.6,231.8 201.8,231.7 
			202.6,231.5 		"/>
		<polygon style="fill:#FFFF00;" points="200.7,227.6 200.8,228 201.2,228.1 200.8,228.2 200.7,228.6 200.6,228.2 200.2,228.1 
			200.6,228 		"/>
		<polygon style="fill:#FFFF00;" points="202.1,229.5 202.2,229.8 202.4,229.8 202.2,229.9 202.1,230.1 202,229.9 201.8,229.8 
			202,229.8 		"/>
		<polygon style="fill:#FFFF00;" points="200.9,230.7 200.9,230.9 201.2,231 200.9,231.1 200.9,231.3 200.8,231.1 200.6,231 
			200.8,230.9 		"/>
		<polygon style="fill:#FFFF00;" points="202.1,228 202.2,228.2 202.4,228.3 202.2,228.3 202.1,228.6 202,228.3 201.8,228.3 
			202,228.2 		"/>
		<polygon style="fill:#FFFF00;" points="194.2,229.3 196.6,230.1 196.9,229.7 198.2,230.5 196.8,228.7 196.4,229.3 195.2,227.8 		
			"/>
		<path style="fill:#00274C;" d="M247,243.4c-8.2-4.9-20.7-6.3-34.8-7.6c-1.2-0.1-2.2,0.7-2.3,1.8c-0.1,1.1,0.8,2.1,2,2.2
			c13,1.2,25.5,2.6,32.8,7c4,2.4,6,4.8,5.9,7.2c-0.1,2.9-2.9,5.6-5.6,7.4c-3.9-4.3-11.2-3-14.4-1.4c0,0-0.1,0-0.1,0c0,0,0,0,0,0
			c0,0,0,0,0,0c-2.3,1.2-3.3,3.9-2.9,6.8l-1.6,0.8c0,0,0,0,0,0l-0.7,0.4c-0.9,0.5-1.3,1.6-0.7,2.6c0.6,0.9,1.8,1.3,2.7,0.8l1.5-0.8
			c0.1,0.2,0.2,0.4,0.4,0.6c0.1,0.2,0.3,0.4,0.4,0.6l-0.8,0.4c0,0,0,0,0,0l-0.7,0.4c-1,0.5-1.3,1.7-0.7,2.6c0.6,0.9,1.8,1.3,2.8,0.8
			l2.3-1.2c1.4,1,3,1.7,4.5,1.9l0,0c0,0,0,0,0,0c0.3,0,0.6,0,0.9,0c0.1,0,0.1,0,0.2,0c0.2,0,0.4,0,0.6-0.1c0.1,0,0.2,0,0.2,0
			c0.2,0,0.4-0.1,0.6-0.1c0.1,0,0.2,0,0.2-0.1c0.3-0.1,0.5-0.2,0.8-0.3c0,0,0,0,0.1,0c0,0,0,0,0,0c0,0,0,0,0,0
			c0.1-0.1,0.3-0.2,0.4-0.3c0,0,0,0,0.1,0c0.2-0.1,0.4-0.2,0.6-0.4c0,0,0.1,0,0.1-0.1c0.2-0.1,0.4-0.3,0.6-0.4c0,0,0.1,0,0.1-0.1
			c0.2-0.2,0.4-0.3,0.6-0.5c0,0,0,0,0,0c0.4-0.4,0.8-0.8,1.3-1.2c0,0,0,0,0,0c0.2-0.2,0.4-0.5,0.6-0.7c0,0,0,0,0,0
			c0.2-0.2,0.4-0.5,0.5-0.7c0,0,0,0,0,0c0.7-1,1.3-2.2,1.5-3.4c0,0,0,0,0,0c0.2-0.9,0.3-1.9,0.1-2.9c3.3-2.2,7.9-6.1,8-11.1
			C255.1,250.3,252.4,246.7,247,243.4z"/>
		<g>
			<g>
				<path style="fill:#241629;" d="M242.4,266.6c-0.8,0-1.5-0.4-1.9-1.2c-0.5-1.1-0.1-2.4,0.9-2.9c2.5-1.3,8.9-5.5,9.2-10
					c0.1-2.5-1.7-5.1-5.5-7.6c-7.1-4.7-19.5-6.2-32.6-7.4c-1.2-0.1-2.1-1.2-1.9-2.4c0.1-1.2,1.2-2.1,2.4-1.9
					c14.2,1.3,26.6,2.9,34.6,8.1c5.2,3.4,7.7,7.2,7.5,11.4c-0.4,7.9-11.1,13.4-11.5,13.6C243.1,266.6,242.7,266.6,242.4,266.6z"/>
			</g>
			<g>
				<g>
					<g>
						
							<ellipse transform="matrix(0.8735 -0.4869 0.4869 0.8735 -100.458 148.3526)" style="fill:#F77820;" cx="235.2" cy="267.5" rx="7.1" ry="9.5"/>
					</g>
					<g>
						<path style="fill:#E84020;" d="M245.7,261.6c3.4,6-2.5,12.3-5.9,14.2c-3.4,1.9-8.3-0.3-10.8-4.9c-2.6-4.6-1.9-9.9,1.5-11.8
							C234,257.2,242.3,255.5,245.7,261.6z"/>
					</g>
					<g>
						<g>
							<path style="fill:#CF260C;" d="M242,269.9l-5.6,6.6c1.2,0.1,2.4-0.1,3.4-0.6c3.1-1.7,8.1-6.9,6.6-12.3
								C245.4,267.8,242,269.9,242,269.9z"/>
						</g>
						<g>
							<path style="fill:#CF260C;" d="M240.5,267.5c3.7-2.1,5.3-4.6,5.6-5.2c-0.1-0.2-0.2-0.4-0.3-0.7c-0.1-0.2-0.2-0.4-0.4-0.5
								l-5.3,3.7L240.5,267.5z"/>
						</g>
					</g>
					<g style="opacity:0.1;">
						<path style="fill:#FFFFFF;" d="M241.5,263.9c2.6,4.6,1.8,9.9-1.6,11.8c-3.5,1.9-8.3-0.2-10.9-4.8c-2.6-4.6-1.8-9.9,1.6-11.8
							C234.1,257.2,239,259.3,241.5,263.9z"/>
					</g>
					<g>
						
							<ellipse transform="matrix(0.8735 -0.4869 0.4869 0.8735 -100.458 148.3526)" style="fill:#F77820;" cx="235.2" cy="267.5" rx="7.1" ry="9.5"/>
					</g>
					<g style="opacity:0.1;">
						<path style="fill:#FFFFFF;" d="M240.1,264.7c2,3.5,1.4,7.5-1.2,9c-2.6,1.5-6.3-0.2-8.3-3.7c-2-3.5-1.4-7.5,1.2-9
							C234.4,259.6,238.1,261.2,240.1,264.7z"/>
					</g>
					<g>
						<path style="fill:#FFC620;" d="M239.8,264.9c1.9,3.4,1.4,7.3-1.1,8.8c-2.5,1.4-6.1-0.2-8.1-3.6c-1.9-3.4-1.4-7.3,1.1-8.8
							C234.3,259.8,237.9,261.5,239.8,264.9z"/>
					</g>
					<g>
						<path style="fill:#FFA520;" d="M239,273.1c-2.4,1.4-5.9-0.2-7.7-3.5c-1.8-3.3-1.3-7,1.1-8.4c0.6-0.4,1.3-0.5,2.1-0.5
							c-0.9-0.1-1.9,0-2.7,0.5c-2.5,1.4-3.1,5.3-1.1,8.8c1.9,3.4,5.5,5.1,8.1,3.6c0.8-0.5,1.4-1.2,1.8-2
							C240.1,272.2,239.6,272.8,239,273.1z"/>
					</g>
				</g>
				<g>
					<g>
						<g>
							<path style="fill:#C5CCD0;" d="M232.7,263.5C232.7,263.5,232.7,263.5,232.7,263.5l-7.5,4.2c-0.9,0.5-1.3,1.7-0.8,2.7
								c0.5,0.9,1.7,1.3,2.7,0.8l7.5-4.2c0,0,0,0,0,0L232.7,263.5z"/>
						</g>
						<g>
							<path style="fill:#FFFFFF;" d="M233.4,263.1C233.4,263.1,233.4,263.1,233.4,263.1l-7.5,4.2c-0.9,0.5-1.3,1.7-0.8,2.7
								c0.5,0.9,1.7,1.3,2.7,0.8l7.5-4.2c0,0,0,0,0,0L233.4,263.1z"/>
						</g>
						<g style="opacity:0.24;">
							<g>
								<polygon style="fill:#C5CCD0;" points="231.5,264.1 230.9,264.5 229.3,269.9 229.9,269.5 								"/>
							</g>
							<g>
								<path style="fill:#C5CCD0;" d="M227,266.6l-1.1,4c0.6,0.3,1.3,0.4,2,0l0.7-0.4l1.5-5.4L227,266.6z"/>
							</g>
							<g>
								<polygon style="fill:#C5CCD0;" points="233.3,263.1 232.1,263.8 230.6,269.2 231.7,268.5 								"/>
							</g>
						</g>
					</g>
					<g>
						<g>
							<path style="fill:#C5CCD0;" d="M235.4,268.2C235.4,268.2,235.4,268.2,235.4,268.2l-7.5,4.2c-0.9,0.5-1.3,1.7-0.8,2.7
								c0.5,0.9,1.7,1.3,2.7,0.8l7.5-4.2c0,0,0,0,0,0L235.4,268.2z"/>
						</g>
						<g>
							<path style="fill:#FFFFFF;" d="M236.1,267.8C236,267.8,236,267.8,236.1,267.8l-7.5,4.2c-0.9,0.5-1.3,1.7-0.8,2.7
								c0.5,0.9,1.7,1.3,2.7,0.8l7.5-4.2c0,0,0,0,0,0L236.1,267.8z"/>
						</g>
					</g>
				</g>
				<g style="opacity:0.33;">
					<g>
						<path style="fill:#C5CCD0;" d="M229.4,271.5l-1.1,3.8c0.6,0.4,1.4,0.5,2.1,0.1l0.5-0.3l1.5-5.4L229.4,271.5z"/>
					</g>
					<g>
						<polygon style="fill:#C5CCD0;" points="233.9,269 233.3,269.4 231.8,274.8 232.4,274.4 						"/>
					</g>
					<g>
						<polygon style="fill:#C5CCD0;" points="235.7,268 234.5,268.7 233,274.1 234.2,273.4 						"/>
					</g>
				</g>
			</g>
			<g>
				<g>
					<path style="fill:#0BCEB5;" d="M210.8,234.6c-0.8,0.1-1.5-0.1-2.2-0.3c-0.6-0.3-0.9,0.8-0.3,1c0.8,0.3,1.6,0.4,2.4,0.4
						C211.5,235.6,211.5,234.5,210.8,234.6L210.8,234.6z"/>
				</g>
			</g>
			<g>
				<g>
					<path style="fill:#D8110F;" d="M211.8,233.3c-0.6-0.2-1-0.5-1.3-1c-0.3-0.6-1.3-0.1-0.9,0.5c0.4,0.7,1.1,1.3,1.9,1.5
						C212.1,234.5,212.4,233.5,211.8,233.3L211.8,233.3z"/>
				</g>
			</g>
			<g>
				<g>
					<path style="fill:#FFFFFF;" d="M211.5,235.8c-0.7,0.3-1.4,0.7-1.8,1.3c-0.4,0.5,0.3,1.3,0.8,0.8c0.4-0.5,0.8-0.8,1.4-1
						C212.4,236.6,212.1,235.6,211.5,235.8L211.5,235.8z"/>
				</g>
			</g>
			<g>
				<polygon style="fill:#FFFF00;" points="207.7,231 207.9,232.3 209.3,232.5 207.9,232.7 207.7,234.1 207.5,232.7 206.2,232.5 
					207.5,232.3 				"/>
			</g>
			<g>
				<polygon style="fill:#FFFF00;" points="211.1,230.4 211.2,231.2 211.9,231.3 211.2,231.4 211.1,232.1 210.9,231.4 210.2,231.3 
					210.9,231.2 				"/>
			</g>
			<g>
				<polygon style="fill:#FFFF00;" points="208.9,236.4 208.9,236.8 209.4,236.9 208.9,237 208.9,237.4 208.8,237 208.4,236.9 
					208.8,236.8 				"/>
			</g>
			<g>
				<polygon style="fill:#FFFF00;" points="214.8,231.5 212.8,232.2 212.5,231.8 211.5,232.5 212.6,231 212.9,231.5 213.9,230.2 
									"/>
			</g>
		</g>
		<polygon style="fill:#FFFF00;" points="197.5,228.2 197.9,229.2 198.1,229.2 198.2,229.8 198.4,228.8 198.1,228.9 198.2,228.1 		
			"/>
	</g>
	<g>
		<radialGradient id="SVGID_1_" cx="26.6214" cy="110.7521" r="1.0093" gradientUnits="userSpaceOnUse">
			<stop  offset="6.926126e-08" style="stop-color:#006176"/>
			<stop  offset="0.2714" style="stop-color:#045F78"/>
			<stop  offset="0.5314" style="stop-color:#0F597F"/>
			<stop  offset="0.7857" style="stop-color:#234E89"/>
			<stop  offset="1" style="stop-color:#394296"/>
		</radialGradient>
		<polygon style="fill:url(#SVGID_1_);" points="25.6,110.8 26.3,110.4 26.6,109.7 27,110.4 27.6,110.8 27,111.1 26.6,111.8 
			26.3,111.1 		"/>
		<radialGradient id="SVGID_2_" cx="67.9879" cy="99.6181" r="1.0094" gradientUnits="userSpaceOnUse">
			<stop  offset="6.926126e-08" style="stop-color:#006176"/>
			<stop  offset="0.2714" style="stop-color:#045F78"/>
			<stop  offset="0.5314" style="stop-color:#0F597F"/>
			<stop  offset="0.7857" style="stop-color:#234E89"/>
			<stop  offset="1" style="stop-color:#394296"/>
		</radialGradient>
		<polygon style="fill:url(#SVGID_2_);" points="67,99.6 67.6,99.3 68,98.6 68.3,99.3 69,99.6 68.3,100 68,100.6 67.6,100 		"/>
		<radialGradient id="SVGID_3_" cx="81.9881" cy="110.562" r="1.0094" gradientUnits="userSpaceOnUse">
			<stop  offset="6.926126e-08" style="stop-color:#006176"/>
			<stop  offset="0.2714" style="stop-color:#045F78"/>
			<stop  offset="0.5314" style="stop-color:#0F597F"/>
			<stop  offset="0.7857" style="stop-color:#234E89"/>
			<stop  offset="1" style="stop-color:#394296"/>
		</radialGradient>
		<polygon style="fill:url(#SVGID_3_);" points="81,110.6 81.6,110.2 82,109.6 82.3,110.2 83,110.6 82.3,110.9 82,111.6 81.6,110.9 
					"/>
		<radialGradient id="SVGID_4_" cx="90.1605" cy="108.255" r="1.0092" gradientUnits="userSpaceOnUse">
			<stop  offset="6.926126e-08" style="stop-color:#006176"/>
			<stop  offset="0.2714" style="stop-color:#045F78"/>
			<stop  offset="0.5314" style="stop-color:#0F597F"/>
			<stop  offset="0.7857" style="stop-color:#234E89"/>
			<stop  offset="1" style="stop-color:#394296"/>
		</radialGradient>
		<polygon style="fill:url(#SVGID_4_);" points="89.2,108.3 89.8,107.9 90.2,107.2 90.5,107.9 91.2,108.3 90.5,108.6 90.2,109.3 
			89.8,108.6 		"/>
		<radialGradient id="SVGID_5_" cx="125.0388" cy="123.5951" r="1.0093" gradientUnits="userSpaceOnUse">
			<stop  offset="6.926126e-08" style="stop-color:#006176"/>
			<stop  offset="0.2714" style="stop-color:#045F78"/>
			<stop  offset="0.5314" style="stop-color:#0F597F"/>
			<stop  offset="0.7857" style="stop-color:#234E89"/>
			<stop  offset="1" style="stop-color:#394296"/>
		</radialGradient>
		<polygon style="fill:url(#SVGID_5_);" points="124,123.6 124.7,123.2 125,122.6 125.4,123.2 126,123.6 125.4,124 125,124.6 
			124.7,124 		"/>
		<radialGradient id="SVGID_6_" cx="95.9893" cy="100.2031" r="1.0092" gradientUnits="userSpaceOnUse">
			<stop  offset="6.926126e-08" style="stop-color:#006176"/>
			<stop  offset="0.2714" style="stop-color:#045F78"/>
			<stop  offset="0.5314" style="stop-color:#0F597F"/>
			<stop  offset="0.7857" style="stop-color:#234E89"/>
			<stop  offset="1" style="stop-color:#394296"/>
		</radialGradient>
		<polygon style="fill:url(#SVGID_6_);" points="95,100.2 95.6,99.8 96,99.2 96.3,99.8 97,100.2 96.3,100.6 96,101.2 95.6,100.6 		
			"/>
		<radialGradient id="SVGID_7_" cx="90.1605" cy="99.7678" r="1.0093" gradientUnits="userSpaceOnUse">
			<stop  offset="6.926126e-08" style="stop-color:#006176"/>
			<stop  offset="0.2714" style="stop-color:#045F78"/>
			<stop  offset="0.5314" style="stop-color:#0F597F"/>
			<stop  offset="0.7857" style="stop-color:#234E89"/>
			<stop  offset="1" style="stop-color:#394296"/>
		</radialGradient>
		<polygon style="fill:url(#SVGID_7_);" points="89.2,99.8 89.8,99.4 90.2,98.8 90.5,99.4 91.2,99.8 90.5,100.1 90.2,100.8 
			89.8,100.1 		"/>
		<radialGradient id="SVGID_8_" cx="100.4427" cy="111.5712" r="1.0092" gradientUnits="userSpaceOnUse">
			<stop  offset="6.926126e-08" style="stop-color:#006176"/>
			<stop  offset="0.2714" style="stop-color:#045F78"/>
			<stop  offset="0.5314" style="stop-color:#0F597F"/>
			<stop  offset="0.7857" style="stop-color:#234E89"/>
			<stop  offset="1" style="stop-color:#394296"/>
		</radialGradient>
		<polygon style="fill:url(#SVGID_8_);" points="99.4,111.6 100.1,111.2 100.4,110.6 100.8,111.2 101.5,111.6 100.8,111.9 
			100.4,112.6 100.1,111.9 		"/>
		<radialGradient id="SVGID_9_" cx="102.7474" cy="84.2887" r="0.3711" gradientUnits="userSpaceOnUse">
			<stop  offset="6.926126e-08" style="stop-color:#006176"/>
			<stop  offset="0.2714" style="stop-color:#045F78"/>
			<stop  offset="0.5314" style="stop-color:#0F597F"/>
			<stop  offset="0.7857" style="stop-color:#234E89"/>
			<stop  offset="1" style="stop-color:#394296"/>
		</radialGradient>
		<polygon style="fill:url(#SVGID_9_);" points="102.4,84.3 102.6,84.2 102.7,83.9 102.9,84.2 103.1,84.3 102.9,84.4 102.7,84.7 
			102.6,84.4 		"/>
		<radialGradient id="SVGID_10_" cx="94.8644" cy="92.9978" r="0.3711" gradientUnits="userSpaceOnUse">
			<stop  offset="6.926126e-08" style="stop-color:#006176"/>
			<stop  offset="0.2714" style="stop-color:#045F78"/>
			<stop  offset="0.5314" style="stop-color:#0F597F"/>
			<stop  offset="0.7857" style="stop-color:#234E89"/>
			<stop  offset="1" style="stop-color:#394296"/>
		</radialGradient>
		<polygon style="fill:url(#SVGID_10_);" points="94.5,93 94.7,92.9 94.9,92.6 95,92.9 95.2,93 95,93.1 94.9,93.4 94.7,93.1 		"/>
		<radialGradient id="SVGID_11_" cx="90.9506" cy="95.5916" r="0.3712" gradientUnits="userSpaceOnUse">
			<stop  offset="6.926126e-08" style="stop-color:#006176"/>
			<stop  offset="0.2714" style="stop-color:#045F78"/>
			<stop  offset="0.5314" style="stop-color:#0F597F"/>
			<stop  offset="0.7857" style="stop-color:#234E89"/>
			<stop  offset="1" style="stop-color:#394296"/>
		</radialGradient>
		<polygon style="fill:url(#SVGID_11_);" points="90.6,95.6 90.8,95.5 91,95.2 91.1,95.5 91.3,95.6 91.1,95.7 91,96 90.8,95.7 		"/>
		<radialGradient id="SVGID_12_" cx="115.4367" cy="154.4636" r="0.3711" gradientUnits="userSpaceOnUse">
			<stop  offset="6.926126e-08" style="stop-color:#006176"/>
			<stop  offset="0.2714" style="stop-color:#045F78"/>
			<stop  offset="0.5314" style="stop-color:#0F597F"/>
			<stop  offset="0.7857" style="stop-color:#234E89"/>
			<stop  offset="1" style="stop-color:#394296"/>
		</radialGradient>
		<polygon style="fill:url(#SVGID_12_);" points="115.1,154.5 115.3,154.3 115.4,154.1 115.6,154.3 115.8,154.5 115.6,154.6 
			115.4,154.8 115.3,154.6 		"/>
		<radialGradient id="SVGID_13_" cx="124.4004" cy="139.638" r="0.3712" gradientUnits="userSpaceOnUse">
			<stop  offset="6.926126e-08" style="stop-color:#006176"/>
			<stop  offset="0.2714" style="stop-color:#045F78"/>
			<stop  offset="0.5314" style="stop-color:#0F597F"/>
			<stop  offset="0.7857" style="stop-color:#234E89"/>
			<stop  offset="1" style="stop-color:#394296"/>
		</radialGradient>
		<polygon style="fill:url(#SVGID_13_);" points="124,139.6 124.3,139.5 124.4,139.3 124.5,139.5 124.8,139.6 124.5,139.8 
			124.4,140 124.3,139.8 		"/>
		<radialGradient id="SVGID_14_" cx="82.9976" cy="167.9716" r="0.3712" gradientUnits="userSpaceOnUse">
			<stop  offset="6.926126e-08" style="stop-color:#006176"/>
			<stop  offset="0.2714" style="stop-color:#045F78"/>
			<stop  offset="0.5314" style="stop-color:#0F597F"/>
			<stop  offset="0.7857" style="stop-color:#234E89"/>
			<stop  offset="1" style="stop-color:#394296"/>
		</radialGradient>
		<polygon style="fill:url(#SVGID_14_);" points="82.6,168 82.9,167.8 83,167.6 83.1,167.8 83.4,168 83.1,168.1 83,168.3 
			82.9,168.1 		"/>
		<radialGradient id="SVGID_15_" cx="99.4334" cy="165.4118" r="0.3712" gradientUnits="userSpaceOnUse">
			<stop  offset="6.926126e-08" style="stop-color:#006176"/>
			<stop  offset="0.2714" style="stop-color:#045F78"/>
			<stop  offset="0.5314" style="stop-color:#0F597F"/>
			<stop  offset="0.7857" style="stop-color:#234E89"/>
			<stop  offset="1" style="stop-color:#394296"/>
		</radialGradient>
		<polygon style="fill:url(#SVGID_15_);" points="99.1,165.4 99.3,165.3 99.4,165 99.6,165.3 99.8,165.4 99.6,165.5 99.4,165.8 
			99.3,165.5 		"/>
		<radialGradient id="SVGID_16_" cx="84.6723" cy="153.4543" r="0.3712" gradientUnits="userSpaceOnUse">
			<stop  offset="6.926126e-08" style="stop-color:#006176"/>
			<stop  offset="0.2714" style="stop-color:#045F78"/>
			<stop  offset="0.5314" style="stop-color:#0F597F"/>
			<stop  offset="0.7857" style="stop-color:#234E89"/>
			<stop  offset="1" style="stop-color:#394296"/>
		</radialGradient>
		<polygon style="fill:url(#SVGID_16_);" points="84.3,153.5 84.5,153.3 84.7,153.1 84.8,153.3 85,153.5 84.8,153.6 84.7,153.8 
			84.5,153.6 		"/>
		<radialGradient id="SVGID_17_" cx="56.6981" cy="72.1464" r="0.3712" gradientUnits="userSpaceOnUse">
			<stop  offset="6.926126e-08" style="stop-color:#006176"/>
			<stop  offset="0.2714" style="stop-color:#045F78"/>
			<stop  offset="0.5314" style="stop-color:#0F597F"/>
			<stop  offset="0.7857" style="stop-color:#234E89"/>
			<stop  offset="1" style="stop-color:#394296"/>
		</radialGradient>
		<polygon style="fill:url(#SVGID_17_);" points="56.3,72.1 56.6,72 56.7,71.8 56.8,72 57.1,72.1 56.8,72.3 56.7,72.5 56.6,72.3 		
			"/>
		<radialGradient id="SVGID_18_" cx="72.0619" cy="78.9708" r="0.3712" gradientUnits="userSpaceOnUse">
			<stop  offset="6.926126e-08" style="stop-color:#006176"/>
			<stop  offset="0.2714" style="stop-color:#045F78"/>
			<stop  offset="0.5314" style="stop-color:#0F597F"/>
			<stop  offset="0.7857" style="stop-color:#234E89"/>
			<stop  offset="1" style="stop-color:#394296"/>
		</radialGradient>
		<polygon style="fill:url(#SVGID_18_);" points="71.7,79 71.9,78.8 72.1,78.6 72.2,78.8 72.4,79 72.2,79.1 72.1,79.3 71.9,79.1 		
			"/>
		<radialGradient id="SVGID_19_" cx="77.1361" cy="72.1464" r="0.3712" gradientUnits="userSpaceOnUse">
			<stop  offset="6.926126e-08" style="stop-color:#006176"/>
			<stop  offset="0.2714" style="stop-color:#045F78"/>
			<stop  offset="0.5314" style="stop-color:#0F597F"/>
			<stop  offset="0.7857" style="stop-color:#234E89"/>
			<stop  offset="1" style="stop-color:#394296"/>
		</radialGradient>
		<polygon style="fill:url(#SVGID_19_);" points="76.8,72.1 77,72 77.1,71.8 77.3,72 77.5,72.1 77.3,72.3 77.1,72.5 77,72.3 		"/>
		<radialGradient id="SVGID_20_" cx="107.7216" cy="79.7133" r="0.3711" gradientUnits="userSpaceOnUse">
			<stop  offset="6.926126e-08" style="stop-color:#006176"/>
			<stop  offset="0.2714" style="stop-color:#045F78"/>
			<stop  offset="0.5314" style="stop-color:#0F597F"/>
			<stop  offset="0.7857" style="stop-color:#234E89"/>
			<stop  offset="1" style="stop-color:#394296"/>
		</radialGradient>
		<polygon style="fill:url(#SVGID_20_);" points="107.4,79.7 107.6,79.6 107.7,79.3 107.9,79.6 108.1,79.7 107.9,79.8 107.7,80.1 
			107.6,79.8 		"/>
		<radialGradient id="SVGID_21_" cx="97.4146" cy="106.4013" r="0.3712" gradientUnits="userSpaceOnUse">
			<stop  offset="6.926126e-08" style="stop-color:#006176"/>
			<stop  offset="0.2714" style="stop-color:#045F78"/>
			<stop  offset="0.5314" style="stop-color:#0F597F"/>
			<stop  offset="0.7857" style="stop-color:#234E89"/>
			<stop  offset="1" style="stop-color:#394296"/>
		</radialGradient>
		<polygon style="fill:url(#SVGID_21_);" points="97,106.4 97.3,106.3 97.4,106 97.5,106.3 97.8,106.4 97.5,106.5 97.4,106.8 
			97.3,106.5 		"/>
		<radialGradient id="SVGID_22_" cx="89.326" cy="113.8872" r="0.492" gradientUnits="userSpaceOnUse">
			<stop  offset="6.926126e-08" style="stop-color:#006176"/>
			<stop  offset="0.2714" style="stop-color:#045F78"/>
			<stop  offset="0.5314" style="stop-color:#0F597F"/>
			<stop  offset="0.7857" style="stop-color:#234E89"/>
			<stop  offset="1" style="stop-color:#394296"/>
		</radialGradient>
		<polygon style="fill:url(#SVGID_22_);" points="88.8,113.9 89.2,113.7 89.3,113.4 89.5,113.7 89.8,113.9 89.5,114.1 89.3,114.4 
			89.2,114.1 		"/>
		<radialGradient id="SVGID_23_" cx="85.7132" cy="125.1499" r="0.4918" gradientUnits="userSpaceOnUse">
			<stop  offset="6.926126e-08" style="stop-color:#006176"/>
			<stop  offset="0.2714" style="stop-color:#045F78"/>
			<stop  offset="0.5314" style="stop-color:#0F597F"/>
			<stop  offset="0.7857" style="stop-color:#234E89"/>
			<stop  offset="1" style="stop-color:#394296"/>
		</radialGradient>
		<polygon style="fill:url(#SVGID_23_);" points="85.2,125.1 85.5,125 85.7,124.7 85.9,125 86.2,125.1 85.9,125.3 85.7,125.6 
			85.5,125.3 		"/>
		<radialGradient id="SVGID_24_" cx="97.4145" cy="123.0006" r="0.4921" gradientUnits="userSpaceOnUse">
			<stop  offset="6.926126e-08" style="stop-color:#006176"/>
			<stop  offset="0.2714" style="stop-color:#045F78"/>
			<stop  offset="0.5314" style="stop-color:#0F597F"/>
			<stop  offset="0.7857" style="stop-color:#234E89"/>
			<stop  offset="1" style="stop-color:#394296"/>
		</radialGradient>
		<polygon style="fill:url(#SVGID_24_);" points="96.9,123 97.2,122.8 97.4,122.5 97.6,122.8 97.9,123 97.6,123.2 97.4,123.5 
			97.2,123.2 		"/>
		<radialGradient id="SVGID_25_" cx="58.4566" cy="115.6545" r="0.492" gradientUnits="userSpaceOnUse">
			<stop  offset="6.926126e-08" style="stop-color:#006176"/>
			<stop  offset="0.2714" style="stop-color:#045F78"/>
			<stop  offset="0.5314" style="stop-color:#0F597F"/>
			<stop  offset="0.7857" style="stop-color:#234E89"/>
			<stop  offset="1" style="stop-color:#394296"/>
		</radialGradient>
		<polygon style="fill:url(#SVGID_25_);" points="58,115.7 58.3,115.5 58.5,115.2 58.6,115.5 58.9,115.7 58.6,115.8 58.5,116.1 
			58.3,115.8 		"/>
		<radialGradient id="SVGID_26_" cx="61.0162" cy="110.562" r="0.4918" gradientUnits="userSpaceOnUse">
			<stop  offset="6.926126e-08" style="stop-color:#006176"/>
			<stop  offset="0.2714" style="stop-color:#045F78"/>
			<stop  offset="0.5314" style="stop-color:#0F597F"/>
			<stop  offset="0.7857" style="stop-color:#234E89"/>
			<stop  offset="1" style="stop-color:#394296"/>
		</radialGradient>
		<polygon style="fill:url(#SVGID_26_);" points="60.5,110.6 60.8,110.4 61,110.1 61.2,110.4 61.5,110.6 61.2,110.7 61,111.1 
			60.8,110.7 		"/>
		<radialGradient id="SVGID_27_" cx="54.3939" cy="104.6572" r="0.4919" gradientUnits="userSpaceOnUse">
			<stop  offset="6.926126e-08" style="stop-color:#006176"/>
			<stop  offset="0.2714" style="stop-color:#045F78"/>
			<stop  offset="0.5314" style="stop-color:#0F597F"/>
			<stop  offset="0.7857" style="stop-color:#234E89"/>
			<stop  offset="1" style="stop-color:#394296"/>
		</radialGradient>
		<polygon style="fill:url(#SVGID_27_);" points="53.9,104.7 54.2,104.5 54.4,104.2 54.6,104.5 54.9,104.7 54.6,104.8 54.4,105.1 
			54.2,104.8 		"/>
		<radialGradient id="SVGID_28_" cx="60.5243" cy="104.1653" r="0.4919" gradientUnits="userSpaceOnUse">
			<stop  offset="6.926126e-08" style="stop-color:#006176"/>
			<stop  offset="0.2714" style="stop-color:#045F78"/>
			<stop  offset="0.5314" style="stop-color:#0F597F"/>
			<stop  offset="0.7857" style="stop-color:#234E89"/>
			<stop  offset="1" style="stop-color:#394296"/>
		</radialGradient>
		<polygon style="fill:url(#SVGID_28_);" points="60,104.2 60.4,104 60.5,103.7 60.7,104 61,104.2 60.7,104.3 60.5,104.7 
			60.4,104.3 		"/>
		<radialGradient id="SVGID_29_" cx="50.9828" cy="98.5252" r="0.492" gradientUnits="userSpaceOnUse">
			<stop  offset="6.926126e-08" style="stop-color:#006176"/>
			<stop  offset="0.2714" style="stop-color:#045F78"/>
			<stop  offset="0.5314" style="stop-color:#0F597F"/>
			<stop  offset="0.7857" style="stop-color:#234E89"/>
			<stop  offset="1" style="stop-color:#394296"/>
		</radialGradient>
		<polygon style="fill:url(#SVGID_29_);" points="50.5,98.5 50.8,98.4 51,98 51.2,98.4 51.5,98.5 51.2,98.7 51,99 50.8,98.7 		"/>
		<radialGradient id="SVGID_30_" cx="52.3293" cy="126.8478" r="1.0093" gradientUnits="userSpaceOnUse">
			<stop  offset="6.926126e-08" style="stop-color:#006176"/>
			<stop  offset="0.2714" style="stop-color:#045F78"/>
			<stop  offset="0.5314" style="stop-color:#0F597F"/>
			<stop  offset="0.7857" style="stop-color:#234E89"/>
			<stop  offset="1" style="stop-color:#394296"/>
		</radialGradient>
		<polygon style="fill:url(#SVGID_30_);" points="51.3,126.8 52,127.2 52.3,127.9 52.7,127.2 53.3,126.8 52.7,126.5 52.3,125.8 
			52,126.5 		"/>
		<radialGradient id="SVGID_31_" cx="61.2906" cy="159.5943" r="1.0092" gradientUnits="userSpaceOnUse">
			<stop  offset="6.926126e-08" style="stop-color:#006176"/>
			<stop  offset="0.2714" style="stop-color:#045F78"/>
			<stop  offset="0.5314" style="stop-color:#0F597F"/>
			<stop  offset="0.7857" style="stop-color:#234E89"/>
			<stop  offset="1" style="stop-color:#394296"/>
		</radialGradient>
		<polygon style="fill:url(#SVGID_31_);" points="60.3,159.6 60.9,160 61.3,160.6 61.6,160 62.3,159.6 61.6,159.2 61.3,158.6 
			60.9,159.2 		"/>
		<radialGradient id="SVGID_32_" cx="70.3135" cy="149.4695" r="1.0093" gradientUnits="userSpaceOnUse">
			<stop  offset="6.926126e-08" style="stop-color:#006176"/>
			<stop  offset="0.2714" style="stop-color:#045F78"/>
			<stop  offset="0.5314" style="stop-color:#0F597F"/>
			<stop  offset="0.7857" style="stop-color:#234E89"/>
			<stop  offset="1" style="stop-color:#394296"/>
		</radialGradient>
		<polygon style="fill:url(#SVGID_32_);" points="69.3,149.5 70,149.8 70.3,150.5 70.7,149.8 71.3,149.5 70.7,149.1 70.3,148.5 
			70,149.1 		"/>
		<radialGradient id="SVGID_33_" cx="104.0222" cy="153.4544" r="1.0093" gradientUnits="userSpaceOnUse">
			<stop  offset="6.926126e-08" style="stop-color:#006176"/>
			<stop  offset="0.2714" style="stop-color:#045F78"/>
			<stop  offset="0.5314" style="stop-color:#0F597F"/>
			<stop  offset="0.7857" style="stop-color:#234E89"/>
			<stop  offset="1" style="stop-color:#394296"/>
		</radialGradient>
		<polygon style="fill:url(#SVGID_33_);" points="103,153.5 103.7,153.8 104,154.5 104.4,153.8 105,153.5 104.4,153.1 104,152.4 
			103.7,153.1 		"/>
		<radialGradient id="SVGID_34_" cx="118.0856" cy="131.935" r="1.0092" gradientUnits="userSpaceOnUse">
			<stop  offset="6.926126e-08" style="stop-color:#006176"/>
			<stop  offset="0.2714" style="stop-color:#045F78"/>
			<stop  offset="0.5314" style="stop-color:#0F597F"/>
			<stop  offset="0.7857" style="stop-color:#234E89"/>
			<stop  offset="1" style="stop-color:#394296"/>
		</radialGradient>
		<polygon style="fill:url(#SVGID_34_);" points="117.1,131.9 117.7,132.3 118.1,132.9 118.4,132.3 119.1,131.9 118.4,131.6 
			118.1,130.9 117.7,131.6 		"/>
		<radialGradient id="SVGID_35_" cx="101.452" cy="141.6563" r="1.0092" gradientUnits="userSpaceOnUse">
			<stop  offset="6.926126e-08" style="stop-color:#006176"/>
			<stop  offset="0.2714" style="stop-color:#045F78"/>
			<stop  offset="0.5314" style="stop-color:#0F597F"/>
			<stop  offset="0.7857" style="stop-color:#234E89"/>
			<stop  offset="1" style="stop-color:#394296"/>
		</radialGradient>
		<polygon style="fill:url(#SVGID_35_);" points="100.4,141.7 101.1,142 101.5,142.7 101.8,142 102.5,141.7 101.8,141.3 
			101.5,140.6 101.1,141.3 		"/>
		<radialGradient id="SVGID_36_" cx="73.0528" cy="94.2112" r="1.0092" gradientUnits="userSpaceOnUse">
			<stop  offset="6.926126e-08" style="stop-color:#006176"/>
			<stop  offset="0.2714" style="stop-color:#045F78"/>
			<stop  offset="0.5314" style="stop-color:#0F597F"/>
			<stop  offset="0.7857" style="stop-color:#234E89"/>
			<stop  offset="1" style="stop-color:#394296"/>
		</radialGradient>
		<polygon style="fill:url(#SVGID_36_);" points="72,94.2 72.7,94.6 73.1,95.2 73.4,94.6 74.1,94.2 73.4,93.9 73.1,93.2 72.7,93.9 
					"/>
		<radialGradient id="SVGID_37_" cx="73.0528" cy="114.3793" r="1.0092" gradientUnits="userSpaceOnUse">
			<stop  offset="6.926126e-08" style="stop-color:#006176"/>
			<stop  offset="0.2714" style="stop-color:#045F78"/>
			<stop  offset="0.5314" style="stop-color:#0F597F"/>
			<stop  offset="0.7857" style="stop-color:#234E89"/>
			<stop  offset="1" style="stop-color:#394296"/>
		</radialGradient>
		<polygon style="fill:url(#SVGID_37_);" points="72,114.4 72.7,114.7 73.1,115.4 73.4,114.7 74.1,114.4 73.4,114 73.1,113.4 
			72.7,114 		"/>
		<radialGradient id="SVGID_38_" cx="56.6982" cy="82.9082" r="1.0092" gradientUnits="userSpaceOnUse">
			<stop  offset="6.926126e-08" style="stop-color:#006176"/>
			<stop  offset="0.2714" style="stop-color:#045F78"/>
			<stop  offset="0.5314" style="stop-color:#0F597F"/>
			<stop  offset="0.7857" style="stop-color:#234E89"/>
			<stop  offset="1" style="stop-color:#394296"/>
		</radialGradient>
		<polygon style="fill:url(#SVGID_38_);" points="55.7,82.9 56.3,83.3 56.7,83.9 57.1,83.3 57.7,82.9 57.1,82.6 56.7,81.9 
			56.3,82.6 		"/>
		<radialGradient id="SVGID_39_" cx="86.0981" cy="71.1372" r="1.0092" gradientUnits="userSpaceOnUse">
			<stop  offset="6.926126e-08" style="stop-color:#006176"/>
			<stop  offset="0.2714" style="stop-color:#045F78"/>
			<stop  offset="0.5314" style="stop-color:#0F597F"/>
			<stop  offset="0.7857" style="stop-color:#234E89"/>
			<stop  offset="1" style="stop-color:#394296"/>
		</radialGradient>
		<polygon style="fill:url(#SVGID_39_);" points="85.1,71.1 85.7,71.5 86.1,72.1 86.5,71.5 87.1,71.1 86.5,70.8 86.1,70.1 
			85.7,70.8 		"/>
		<radialGradient id="SVGID_40_" cx="122.9207" cy="88.8292" r="1.0092" gradientUnits="userSpaceOnUse">
			<stop  offset="6.926126e-08" style="stop-color:#006176"/>
			<stop  offset="0.2714" style="stop-color:#045F78"/>
			<stop  offset="0.5314" style="stop-color:#0F597F"/>
			<stop  offset="0.7857" style="stop-color:#234E89"/>
			<stop  offset="1" style="stop-color:#394296"/>
		</radialGradient>
		<polygon style="fill:url(#SVGID_40_);" points="121.9,88.8 122.6,89.2 122.9,89.8 123.3,89.2 123.9,88.8 123.3,88.5 122.9,87.8 
			122.6,88.5 		"/>
		<radialGradient id="SVGID_41_" cx="114.4275" cy="121.4993" r="1.0092" gradientUnits="userSpaceOnUse">
			<stop  offset="6.926126e-08" style="stop-color:#006176"/>
			<stop  offset="0.2714" style="stop-color:#045F78"/>
			<stop  offset="0.5314" style="stop-color:#0F597F"/>
			<stop  offset="0.7857" style="stop-color:#234E89"/>
			<stop  offset="1" style="stop-color:#394296"/>
		</radialGradient>
		<polygon style="fill:url(#SVGID_41_);" points="113.4,121.5 114.1,121.9 114.4,122.5 114.8,121.9 115.4,121.5 114.8,121.1 
			114.4,120.5 114.1,121.1 		"/>
		<radialGradient id="SVGID_42_" cx="114.4275" cy="87.3275" r="1.0092" gradientUnits="userSpaceOnUse">
			<stop  offset="6.926126e-08" style="stop-color:#006176"/>
			<stop  offset="0.2714" style="stop-color:#045F78"/>
			<stop  offset="0.5314" style="stop-color:#0F597F"/>
			<stop  offset="0.7857" style="stop-color:#234E89"/>
			<stop  offset="1" style="stop-color:#394296"/>
		</radialGradient>
		<polygon style="fill:url(#SVGID_42_);" points="113.4,87.3 114.1,87.7 114.4,88.3 114.8,87.7 115.4,87.3 114.8,87 114.4,86.3 
			114.1,87 		"/>
		<radialGradient id="SVGID_43_" cx="80.1387" cy="95.5916" r="1.0092" gradientUnits="userSpaceOnUse">
			<stop  offset="6.926126e-08" style="stop-color:#006176"/>
			<stop  offset="0.2714" style="stop-color:#045F78"/>
			<stop  offset="0.5314" style="stop-color:#0F597F"/>
			<stop  offset="0.7857" style="stop-color:#234E89"/>
			<stop  offset="1" style="stop-color:#394296"/>
		</radialGradient>
		<polygon style="fill:url(#SVGID_43_);" points="79.1,95.6 79.8,95.9 80.1,96.6 80.5,95.9 81.1,95.6 80.5,95.2 80.1,94.6 
			79.8,95.2 		"/>
		<radialGradient id="SVGID_44_" cx="28.6399" cy="145.2207" r="1.0092" gradientUnits="userSpaceOnUse">
			<stop  offset="6.926126e-08" style="stop-color:#006176"/>
			<stop  offset="0.2714" style="stop-color:#045F78"/>
			<stop  offset="0.5314" style="stop-color:#0F597F"/>
			<stop  offset="0.7857" style="stop-color:#234E89"/>
			<stop  offset="1" style="stop-color:#394296"/>
		</radialGradient>
		<polygon style="fill:url(#SVGID_44_);" points="27.6,145.2 28.3,145.6 28.6,146.2 29,145.6 29.6,145.2 29,144.9 28.6,144.2 
			28.3,144.9 		"/>
		<radialGradient id="SVGID_45_" cx="47.8718" cy="153.4544" r="1.0092" gradientUnits="userSpaceOnUse">
			<stop  offset="6.926126e-08" style="stop-color:#006176"/>
			<stop  offset="0.2714" style="stop-color:#045F78"/>
			<stop  offset="0.5314" style="stop-color:#0F597F"/>
			<stop  offset="0.7857" style="stop-color:#234E89"/>
			<stop  offset="1" style="stop-color:#394296"/>
		</radialGradient>
		<polygon style="fill:url(#SVGID_45_);" points="46.9,153.5 47.5,153.8 47.9,154.5 48.2,153.8 48.9,153.5 48.2,153.1 47.9,152.4 
			47.5,153.1 		"/>
		<radialGradient id="SVGID_46_" cx="123.9298" cy="163.5791" r="1.0092" gradientUnits="userSpaceOnUse">
			<stop  offset="6.926126e-08" style="stop-color:#006176"/>
			<stop  offset="0.2714" style="stop-color:#045F78"/>
			<stop  offset="0.5314" style="stop-color:#0F597F"/>
			<stop  offset="0.7857" style="stop-color:#234E89"/>
			<stop  offset="1" style="stop-color:#394296"/>
		</radialGradient>
		<polygon style="fill:url(#SVGID_46_);" points="122.9,163.6 123.6,163.9 123.9,164.6 124.3,163.9 124.9,163.6 124.3,163.2 
			123.9,162.6 123.6,163.2 		"/>
		<radialGradient id="SVGID_47_" cx="84.6723" cy="140.6471" r="1.0092" gradientUnits="userSpaceOnUse">
			<stop  offset="6.926126e-08" style="stop-color:#006176"/>
			<stop  offset="0.2714" style="stop-color:#045F78"/>
			<stop  offset="0.5314" style="stop-color:#0F597F"/>
			<stop  offset="0.7857" style="stop-color:#234E89"/>
			<stop  offset="1" style="stop-color:#394296"/>
		</radialGradient>
		<polygon style="fill:url(#SVGID_47_);" points="83.7,140.6 84.3,141 84.7,141.7 85,141 85.7,140.6 85,140.3 84.7,139.6 
			84.3,140.3 		"/>
		<radialGradient id="SVGID_48_" cx="65.9199" cy="134.8643" r="1.0093" gradientUnits="userSpaceOnUse">
			<stop  offset="6.926126e-08" style="stop-color:#006176"/>
			<stop  offset="0.2714" style="stop-color:#045F78"/>
			<stop  offset="0.5314" style="stop-color:#0F597F"/>
			<stop  offset="0.7857" style="stop-color:#234E89"/>
			<stop  offset="1" style="stop-color:#394296"/>
		</radialGradient>
		<polygon style="fill:url(#SVGID_48_);" points="64.9,134.9 65.6,135.2 65.9,135.9 66.3,135.2 66.9,134.9 66.3,134.5 65.9,133.9 
			65.6,134.5 		"/>
		<radialGradient id="SVGID_49_" cx="40.3112" cy="144.2115" r="1.0093" gradientUnits="userSpaceOnUse">
			<stop  offset="6.926126e-08" style="stop-color:#006176"/>
			<stop  offset="0.2714" style="stop-color:#045F78"/>
			<stop  offset="0.5314" style="stop-color:#0F597F"/>
			<stop  offset="0.7857" style="stop-color:#234E89"/>
			<stop  offset="1" style="stop-color:#394296"/>
		</radialGradient>
		<polygon style="fill:url(#SVGID_49_);" points="39.3,144.2 40,144.6 40.3,145.2 40.7,144.6 41.3,144.2 40.7,143.9 40.3,143.2 
			40,143.9 		"/>
		<radialGradient id="SVGID_50_" cx="55.1971" cy="137.2865" r="0.4922" gradientUnits="userSpaceOnUse">
			<stop  offset="6.926126e-08" style="stop-color:#006176"/>
			<stop  offset="0.2714" style="stop-color:#045F78"/>
			<stop  offset="0.5314" style="stop-color:#0F597F"/>
			<stop  offset="0.7857" style="stop-color:#234E89"/>
			<stop  offset="1" style="stop-color:#394296"/>
		</radialGradient>
		<polygon style="fill:url(#SVGID_50_);" points="54.7,137.3 55,137.5 55.2,137.8 55.4,137.5 55.7,137.3 55.4,137.1 55.2,136.8 
			55,137.1 		"/>
		<radialGradient id="SVGID_51_" cx="35.215" cy="129.0837" r="0.4922" gradientUnits="userSpaceOnUse">
			<stop  offset="6.926126e-08" style="stop-color:#006176"/>
			<stop  offset="0.2714" style="stop-color:#045F78"/>
			<stop  offset="0.5314" style="stop-color:#0F597F"/>
			<stop  offset="0.7857" style="stop-color:#234E89"/>
			<stop  offset="1" style="stop-color:#394296"/>
		</radialGradient>
		<polygon style="fill:url(#SVGID_51_);" points="34.7,129.1 35,129.3 35.2,129.6 35.4,129.3 35.7,129.1 35.4,128.9 35.2,128.6 
			35,128.9 		"/>
		<radialGradient id="SVGID_52_" cx="75.5831" cy="163.4049" r="0.4922" gradientUnits="userSpaceOnUse">
			<stop  offset="6.926126e-08" style="stop-color:#006176"/>
			<stop  offset="0.2714" style="stop-color:#045F78"/>
			<stop  offset="0.5314" style="stop-color:#0F597F"/>
			<stop  offset="0.7857" style="stop-color:#234E89"/>
			<stop  offset="1" style="stop-color:#394296"/>
		</radialGradient>
		<polygon style="fill:url(#SVGID_52_);" points="75.1,163.4 75.4,163.6 75.6,163.9 75.8,163.6 76.1,163.4 75.8,163.2 75.6,162.9 
			75.4,163.2 		"/>
		<radialGradient id="SVGID_53_" cx="85.6063" cy="128.6806" r="0.4922" gradientUnits="userSpaceOnUse">
			<stop  offset="6.926126e-08" style="stop-color:#006176"/>
			<stop  offset="0.2714" style="stop-color:#045F78"/>
			<stop  offset="0.5314" style="stop-color:#0F597F"/>
			<stop  offset="0.7857" style="stop-color:#234E89"/>
			<stop  offset="1" style="stop-color:#394296"/>
		</radialGradient>
		<polygon style="fill:url(#SVGID_53_);" points="85.1,128.7 85.4,128.9 85.6,129.2 85.8,128.9 86.1,128.7 85.8,128.5 85.6,128.2 
			85.4,128.5 		"/>
		<radialGradient id="SVGID_54_" cx="93.0913" cy="135.4496" r="0.4922" gradientUnits="userSpaceOnUse">
			<stop  offset="6.926126e-08" style="stop-color:#006176"/>
			<stop  offset="0.2714" style="stop-color:#045F78"/>
			<stop  offset="0.5314" style="stop-color:#0F597F"/>
			<stop  offset="0.7857" style="stop-color:#234E89"/>
			<stop  offset="1" style="stop-color:#394296"/>
		</radialGradient>
		<polygon style="fill:url(#SVGID_54_);" points="92.6,135.4 92.9,135.6 93.1,135.9 93.3,135.6 93.6,135.4 93.3,135.3 93.1,135 
			92.9,135.3 		"/>
		<radialGradient id="SVGID_55_" cx="71.5518" cy="127.8743" r="0.4922" gradientUnits="userSpaceOnUse">
			<stop  offset="6.926126e-08" style="stop-color:#006176"/>
			<stop  offset="0.2714" style="stop-color:#045F78"/>
			<stop  offset="0.5314" style="stop-color:#0F597F"/>
			<stop  offset="0.7857" style="stop-color:#234E89"/>
			<stop  offset="1" style="stop-color:#394296"/>
		</radialGradient>
		<polygon style="fill:url(#SVGID_55_);" points="71.1,127.9 71.4,128 71.6,128.4 71.7,128 72,127.9 71.7,127.7 71.6,127.4 
			71.4,127.7 		"/>
		<radialGradient id="SVGID_56_" cx="34.2313" cy="90.9594" r="0.4922" gradientUnits="userSpaceOnUse">
			<stop  offset="6.926126e-08" style="stop-color:#006176"/>
			<stop  offset="0.2714" style="stop-color:#045F78"/>
			<stop  offset="0.5314" style="stop-color:#0F597F"/>
			<stop  offset="0.7857" style="stop-color:#234E89"/>
			<stop  offset="1" style="stop-color:#394296"/>
		</radialGradient>
		<polygon style="fill:url(#SVGID_56_);" points="33.7,91 34.1,91.1 34.2,91.5 34.4,91.1 34.7,91 34.4,90.8 34.2,90.5 34.1,90.8 		
			"/>
		<radialGradient id="SVGID_57_" cx="29.6491" cy="104.2846" r="0.4922" gradientUnits="userSpaceOnUse">
			<stop  offset="6.926126e-08" style="stop-color:#006176"/>
			<stop  offset="0.2714" style="stop-color:#045F78"/>
			<stop  offset="0.5314" style="stop-color:#0F597F"/>
			<stop  offset="0.7857" style="stop-color:#234E89"/>
			<stop  offset="1" style="stop-color:#394296"/>
		</radialGradient>
		<polygon style="fill:url(#SVGID_57_);" points="29.2,104.3 29.5,104.5 29.6,104.8 29.8,104.5 30.1,104.3 29.8,104.1 29.6,103.8 
			29.5,104.1 		"/>
		<radialGradient id="SVGID_58_" cx="43.5951" cy="110.0701" r="0.4922" gradientUnits="userSpaceOnUse">
			<stop  offset="6.926126e-08" style="stop-color:#006176"/>
			<stop  offset="0.2714" style="stop-color:#045F78"/>
			<stop  offset="0.5314" style="stop-color:#0F597F"/>
			<stop  offset="0.7857" style="stop-color:#234E89"/>
			<stop  offset="1" style="stop-color:#394296"/>
		</radialGradient>
		<polygon style="fill:url(#SVGID_58_);" points="43.1,110.1 43.4,110.2 43.6,110.6 43.8,110.2 44.1,110.1 43.8,109.9 43.6,109.6 
			43.4,109.9 		"/>
		<radialGradient id="SVGID_59_" cx="44.0868" cy="98.0333" r="0.4922" gradientUnits="userSpaceOnUse">
			<stop  offset="6.926126e-08" style="stop-color:#006176"/>
			<stop  offset="0.2714" style="stop-color:#045F78"/>
			<stop  offset="0.5314" style="stop-color:#0F597F"/>
			<stop  offset="0.7857" style="stop-color:#234E89"/>
			<stop  offset="1" style="stop-color:#394296"/>
		</radialGradient>
		<polygon style="fill:url(#SVGID_59_);" points="43.6,98 43.9,98.2 44.1,98.5 44.3,98.2 44.6,98 44.3,97.9 44.1,97.5 43.9,97.9 		
			"/>
		<radialGradient id="SVGID_60_" cx="41.8124" cy="129.5762" r="0.4922" gradientUnits="userSpaceOnUse">
			<stop  offset="6.926126e-08" style="stop-color:#006176"/>
			<stop  offset="0.2714" style="stop-color:#045F78"/>
			<stop  offset="0.5314" style="stop-color:#0F597F"/>
			<stop  offset="0.7857" style="stop-color:#234E89"/>
			<stop  offset="1" style="stop-color:#394296"/>
		</radialGradient>
		<polygon style="fill:url(#SVGID_60_);" points="41.3,129.6 41.6,129.8 41.8,130.1 42,129.8 42.3,129.6 42,129.4 41.8,129.1 
			41.6,129.4 		"/>
		<radialGradient id="SVGID_61_" cx="81.1479" cy="82.9082" r="0.4922" gradientUnits="userSpaceOnUse">
			<stop  offset="6.926126e-08" style="stop-color:#006176"/>
			<stop  offset="0.2714" style="stop-color:#045F78"/>
			<stop  offset="0.5314" style="stop-color:#0F597F"/>
			<stop  offset="0.7857" style="stop-color:#234E89"/>
			<stop  offset="1" style="stop-color:#394296"/>
		</radialGradient>
		<polygon style="fill:url(#SVGID_61_);" points="80.7,82.9 81,83.1 81.1,83.4 81.3,83.1 81.6,82.9 81.3,82.7 81.1,82.4 81,82.7 		
			"/>
		<radialGradient id="SVGID_62_" cx="118.0856" cy="104.1653" r="0.4922" gradientUnits="userSpaceOnUse">
			<stop  offset="6.926126e-08" style="stop-color:#006176"/>
			<stop  offset="0.2714" style="stop-color:#045F78"/>
			<stop  offset="0.5314" style="stop-color:#0F597F"/>
			<stop  offset="0.7857" style="stop-color:#234E89"/>
			<stop  offset="1" style="stop-color:#394296"/>
		</radialGradient>
		<polygon style="fill:url(#SVGID_62_);" points="117.6,104.2 117.9,104.3 118.1,104.7 118.3,104.3 118.6,104.2 118.3,104 
			118.1,103.7 117.9,104 		"/>
		<radialGradient id="SVGID_63_" cx="43.1032" cy="87.3275" r="0.4922" gradientUnits="userSpaceOnUse">
			<stop  offset="6.926126e-08" style="stop-color:#006176"/>
			<stop  offset="0.2714" style="stop-color:#045F78"/>
			<stop  offset="0.5314" style="stop-color:#0F597F"/>
			<stop  offset="0.7857" style="stop-color:#234E89"/>
			<stop  offset="1" style="stop-color:#394296"/>
		</radialGradient>
		<polygon style="fill:url(#SVGID_63_);" points="42.6,87.3 42.9,87.2 43.1,86.8 43.3,87.2 43.6,87.3 43.3,87.5 43.1,87.8 
			42.9,87.5 		"/>
		<radialGradient id="SVGID_64_" cx="40.3704" cy="76.1296" r="0.4922" gradientUnits="userSpaceOnUse">
			<stop  offset="6.926126e-08" style="stop-color:#006176"/>
			<stop  offset="0.2714" style="stop-color:#045F78"/>
			<stop  offset="0.5314" style="stop-color:#0F597F"/>
			<stop  offset="0.7857" style="stop-color:#234E89"/>
			<stop  offset="1" style="stop-color:#394296"/>
		</radialGradient>
		<polygon style="fill:url(#SVGID_64_);" points="39.9,76.1 40.2,76 40.4,75.6 40.5,76 40.9,76.1 40.5,76.3 40.4,76.6 40.2,76.3 		
			"/>
		<radialGradient id="SVGID_65_" cx="80.6307" cy="117.8248" r="0.492" gradientUnits="userSpaceOnUse">
			<stop  offset="6.926126e-08" style="stop-color:#006176"/>
			<stop  offset="0.2714" style="stop-color:#045F78"/>
			<stop  offset="0.5314" style="stop-color:#0F597F"/>
			<stop  offset="0.7857" style="stop-color:#234E89"/>
			<stop  offset="1" style="stop-color:#394296"/>
		</radialGradient>
		<polygon style="fill:url(#SVGID_65_);" points="80.1,117.8 80.5,117.7 80.6,117.3 80.8,117.7 81.1,117.8 80.8,118 80.6,118.3 
			80.5,118 		"/>
		<radialGradient id="SVGID_66_" cx="92.6721" cy="118.3165" r="0.492" gradientUnits="userSpaceOnUse">
			<stop  offset="6.926126e-08" style="stop-color:#006176"/>
			<stop  offset="0.2714" style="stop-color:#045F78"/>
			<stop  offset="0.5314" style="stop-color:#0F597F"/>
			<stop  offset="0.7857" style="stop-color:#234E89"/>
			<stop  offset="1" style="stop-color:#394296"/>
		</radialGradient>
		<polygon style="fill:url(#SVGID_66_);" points="92.2,118.3 92.5,118.1 92.7,117.8 92.8,118.1 93.2,118.3 92.8,118.5 92.7,118.8 
			92.5,118.5 		"/>
	</g>
	<g>
		<defs>
			<path id="SVGID_67_" d="M85.7,171.8H65.9c-24.9,0-45.3-20.4-45.3-45.3v-13.2c0-24.9,20.4-45.3,45.3-45.3h19.8
				c24.9,0,45.3,20.4,45.3,45.3v13.2C131,151.4,110.6,171.8,85.7,171.8z"/>
		</defs>
		<clipPath id="SVGID_68_">
			<use xlink:href="#SVGID_67_"  style="overflow:visible;"/>
		</clipPath>
		<g style="clip-path:url(#SVGID_68_);">
			
				<radialGradient id="SVGID_69_" cx="-994.4548" cy="-0.5901" r="62.6547" gradientTransform="matrix(-0.9793 -0.2023 -0.2023 0.9793 -904.3334 -91.5489)" gradientUnits="userSpaceOnUse">
				<stop  offset="4.795011e-07" style="stop-color:#174766"/>
				<stop  offset="0.3259" style="stop-color:#1B486A"/>
				<stop  offset="0.638" style="stop-color:#254C75"/>
				<stop  offset="0.9435" style="stop-color:#375289"/>
				<stop  offset="1" style="stop-color:#3B538D"/>
			</radialGradient>
			<path style="fill:url(#SVGID_69_);" d="M64.8,161.9c-0.4,2.2-4.4,10.2-2.2,10.7c1.9,0.4,9.1,2.6,9.8,0.8c0.3,0.1,3.1-3.1,3.4-3
				c1,0.2,1-0.5,1.8-0.9c0.7,2.7,1.3-0.5,4.1,0.1c1.9,0.4,3.8,0,5.4-1c2.1,3,5.3,5.3,9.2,6.1c8,1.6,15.8-3.5,17.4-11.5
				c0.6-2.9,0.3-5.8-0.7-8.3c0.6,0.2,1.1,0.4,1.7,0.5c8,1.6,15.8-3.5,17.4-11.5c1.6-8-3.5-15.8-11.5-17.4c-8-1.6-15.8,3.5-17.4,11.5
				c-0.6,2.9-0.3,5.8,0.7,8.3c-0.6-0.2-1.1-0.4-1.7-0.5c-7.3-1.5-14.4,2.7-16.9,9.5c-0.2-0.1-0.4-0.1-0.7-0.2c-3-0.6-5.9,0.7-7.6,3
				c-0.6-0.7-1.3-1.2-2.3-1.4c-1.9-0.4-3.8,0.7-4.5,2.4c-0.3-0.1-0.6-0.3-0.9-0.3C67.3,158.4,65.2,159.8,64.8,161.9z M14.8,122.3
				c-2.2,2-3.9,4.8-4.5,8c-1.7,8.1,3.5,16,11.6,17.7c1.3,0.3,2.5,0.3,3.7,0.3c-0.5,5.1,2.9,9.8,8,10.8c2.6,0.5,5.1,0,7.2-1.2
				c0.5,2.7,2.6,4.9,5.4,5.5c1.6,0.3,3.1,0.1,4.5-0.6c1,1.3,0.1,9.9,1.9,10.3c2.4,0.5,9.2-2.4,10.8-4.1c2,0.1,1.6-6.8,2-8.8
				c0.4-2.1-0.9-4.2-2.9-4.7c-0.9-1.8-2.6-3.3-4.8-3.7c-1.6-0.3-3.1-0.1-4.5,0.6c-1-1.3-2.4-2.3-4.1-2.6c-1.1-0.2-2.3-0.2-3.3,0.1
				c0.3-4.7-2.6-9-7.2-10.3c0.5-1,0.8-2.1,1.1-3.2c1.2-5.6-1-11.1-5.1-14.6c2.1-2,3.7-4.7,4.3-7.7c1.6-8-3.5-15.8-11.5-17.4
				c-8-1.6-15.8,3.5-17.4,11.5C8.7,113.5,10.8,118.9,14.8,122.3z"/>
			<g style="opacity:0.2;">
				<path style="fill:#FFFFFF;" d="M34.3,122.4c0.1-0.1,0.2-0.2,0.4-0.4c4,3.4,6,8.8,4.9,14.3c0,0.1,0,0.2-0.1,0.3
					C40.6,131.1,38.4,125.7,34.3,122.4z"/>
				<path style="fill:#FFFFFF;" d="M62.3,156.1c-0.9-1.8-2.6-3.3-4.8-3.7c-1.6-0.3-3.1-0.1-4.5,0.6c-1-1.3-2.4-2.3-4.1-2.6
					c-1.1-0.2-2.3-0.2-3.3,0.1c0.3-4.7-2.6-9-7.2-10.3c0.1-0.2,0.2-0.4,0.2-0.5c4.5,1.4,7.4,5.7,7.1,10.3c1-0.3,2.2-0.4,3.3-0.1
					c1.7,0.4,3.1,1.3,4.1,2.6c1.3-0.7,2.9-0.9,4.5-0.6c2.2,0.4,3.9,1.9,4.8,3.7c2.1,0.5,3.4,2.6,2.9,4.7c0,0.1-0.1,0.2-0.1,0.3
					C65.5,158.5,64.2,156.6,62.3,156.1z"/>
				<path style="fill:#FFFFFF;" d="M27.2,97.2c-7.9-1.6-15.6,3.4-17.4,11.2c0-0.1,0-0.2,0.1-0.3c1.6-8,9.5-13.1,17.4-11.5
					c8,1.6,13.1,9.5,11.5,17.4c0,0.1-0.1,0.2-0.1,0.3C40.2,106.5,35.1,98.8,27.2,97.2z"/>
				<path style="fill:#FFFFFF;" d="M65.2,160.8C65.2,160.8,65.2,160.8,65.2,160.8c0.8-1.5,2.5-2.3,4.3-1.9c0.3,0.1,0.6,0.2,0.9,0.3
					c0.7-1.7,2.6-2.8,4.5-2.4c0.9,0.2,1.7,0.7,2.3,1.4c1.6-2.4,4.6-3.7,7.6-3c0.2,0,0.5,0.1,0.7,0.2c2.4-6.8,9.6-11,16.9-9.5
					c0.5,0.1,0.9,0.2,1.3,0.4c0.1,0.2,0.2,0.5,0.2,0.7c-0.6-0.2-1.1-0.4-1.7-0.5c-7.3-1.5-14.4,2.7-16.9,9.5
					c-0.2-0.1-0.4-0.1-0.7-0.2c-3-0.6-5.9,0.7-7.6,3c-0.6-0.7-1.3-1.2-2.3-1.4c-1.9-0.4-3.8,0.7-4.5,2.4c-0.3-0.1-0.6-0.3-0.9-0.3
					c-2.1-0.4-4.1,0.8-4.6,2.8c0-0.1,0-0.2,0-0.3c0,0,0,0,0,0C65,161.6,65.1,161.2,65.2,160.8z"/>
				<path style="fill:#FFFFFF;" d="M120.6,127c-7.9-1.6-15.6,3.4-17.4,11.2c0-0.1,0-0.2,0.1-0.3c1.6-8,9.5-13.1,17.4-11.5
					c8,1.6,13.1,9.5,11.5,17.4c0,0.1-0.1,0.2-0.1,0.3C133.6,136.3,128.5,128.7,120.6,127z"/>
				<path style="fill:#FFFFFF;" d="M14.7,122.9c-2.1,2-3.7,4.6-4.4,7.6c0-0.1,0-0.2,0-0.3c0.6-3,2.1-5.6,4.1-7.6
					C14.5,122.8,14.6,122.8,14.7,122.9z"/>
				<path style="fill:#FFFFFF;" d="M113.3,155.6c0.8,2.4,1,5,0.5,7.6c0,0.1,0,0.2-0.1,0.2c0.5-2.8,0.2-5.5-0.8-8
					C113.1,155.5,113.2,155.5,113.3,155.6z"/>
			</g>
		</g>
		<g style="clip-path:url(#SVGID_68_);">
			<radialGradient id="SVGID_70_" cx="78.4097" cy="110.521" r="72.4392" gradientUnits="userSpaceOnUse">
				<stop  offset="0" style="stop-color:#174766"/>
				<stop  offset="0.2948" style="stop-color:#1A476A"/>
				<stop  offset="0.5772" style="stop-color:#224575"/>
				<stop  offset="0.8536" style="stop-color:#2F4389"/>
				<stop  offset="1" style="stop-color:#394296"/>
			</radialGradient>
			<path style="fill:url(#SVGID_70_);" d="M66.3,170.8c-0.4,0-0.8,0.1-1.2,0.2c-0.4-2.3-2.4-4-4.8-4c-1.2,0-2.2,0.4-3.1,1.1
				c-1.4-3.3-4.6-5.5-8.3-5.5c-0.3,0-0.6,0-0.8,0c-1.2-8.8-8.8-15.6-17.9-15.6c-0.7,0-1.5,0.1-2.2,0.1c1.8-2.8,2.9-6.2,2.9-9.8
				c0-10-8.1-18.1-18.1-18.1s-18.1,8.1-18.1,18.1s8.1,18.1,18.1,18.1c0.7,0,1.5-0.1,2.2-0.1c-1.8,2.8-2.9,6.2-2.9,9.8
				c0,10,8.1,18.1,18.1,18.1c4.9,0,9.3-1.9,12.5-5c1.6,1.5,3.8,2.5,6.2,2.5c3.6,0,6.7-2.1,8.1-5.1c0.9,0.8,2,1.3,3.3,1.3
				c0.4,0,0.8-0.1,1.2-0.2c0.4,2.3,2.4,4,4.8,4c2.7,0,4.9-2.2,4.9-4.9C71.2,173,69,170.8,66.3,170.8z M150.4,124.6
				c0-10-8.1-18.1-18.1-18.1c-10,0-18.1,8.1-18.1,18.1c0,3.9,1.2,7.4,3.3,10.4c-5.8,3.1-9.8,9.2-9.8,16.2c0,1.4,0.2,2.8,0.5,4.2
				c-5.8,0.5-10.4,4.9-11.2,10.6c-1.2-0.6-2.5-1-4-1c-2.1,0-4.1,0.8-5.6,2.1c-1.4-1.1-3.2-1.8-5.2-1.8c-2.7,0-5.1,1.3-6.7,3.3
				c-2.6,0.1-4.7,2.2-4.7,4.9c0,2.5,1.8,4.5,4.2,4.8c1.5,2.4,4.1,4,7.2,4c2.1,0,4.1-0.8,5.6-2.1c1.4,1.1,3.2,1.8,5.2,1.8
				c3.5,0,6.6-2.2,7.8-5.2c2.2,2,5.1,3.3,8.3,3.3c6.4,0,11.6-4.8,12.3-11c1.5,0.4,3,0.6,4.5,0.6c10.1,0,18.3-8.2,18.3-18.3
				c0-4-1.3-7.7-3.4-10.7C146.6,137.4,150.4,131.5,150.4,124.6z"/>
			<g style="opacity:0.2;">
				<path style="fill:#FFFFFF;" d="M117.5,135.7c-0.1-0.2-0.2-0.4-0.3-0.5c-5.6,3.1-9.4,9.1-9.4,16c0,0.1,0,0.3,0,0.4
					C107.9,144.7,111.8,138.7,117.5,135.7z"/>
				<path style="fill:#FFFFFF;" d="M75.6,169.3c1.5-2,4-3.3,6.7-3.3c2,0,3.8,0.7,5.2,1.8c1.5-1.3,3.4-2.1,5.6-2.1c1.4,0,2.8,0.4,4,1
					c0.8-5.7,5.4-10.2,11.2-10.6c-0.1-0.2-0.1-0.5-0.1-0.7c-5.7,0.5-10.3,5-11,10.6c-1.2-0.6-2.5-1-4-1c-2.1,0-4.1,0.8-5.6,2.1
					c-1.4-1.1-3.2-1.8-5.2-1.8c-2.7,0-5.1,1.3-6.7,3.3c-2.6,0.1-4.7,2.2-4.7,4.9c0,0.1,0,0.2,0,0.4
					C71.1,171.4,73.1,169.4,75.6,169.3z"/>
				<path style="fill:#FFFFFF;" d="M132.3,107.2c9.9,0,17.9,7.9,18.1,17.8c0-0.1,0-0.3,0-0.4c0-10-8.1-18.1-18.1-18.1
					c-10,0-18.1,8.1-18.1,18.1c0,0.1,0,0.3,0,0.4C114.4,115.2,122.4,107.2,132.3,107.2z"/>
				<path style="fill:#FFFFFF;" d="M70.9,174.2C70.9,174.2,70.9,174.2,70.9,174.2c-0.6-2-2.5-3.4-4.6-3.4c-0.4,0-0.8,0.1-1.2,0.2
					c-0.4-2.3-2.4-4-4.8-4c-1.2,0-2.2,0.4-3.1,1.1c-1.4-3.3-4.6-5.5-8.3-5.5c-0.3,0-0.6,0-0.8,0c-1.2-8.8-8.8-15.6-17.9-15.6
					c-0.6,0-1.1,0-1.7,0.1c-0.2,0.3-0.3,0.5-0.5,0.8c0.7-0.1,1.4-0.1,2.2-0.1c9.1,0,16.7,6.8,17.9,15.6c0.3,0,0.6,0,0.8,0
					c3.8,0,7,2.3,8.3,5.5c0.8-0.7,1.9-1.1,3.1-1.1c2.4,0,4.4,1.7,4.8,4c0.4-0.1,0.8-0.2,1.2-0.2c2.6,0,4.7,2,4.9,4.5
					c0-0.1,0-0.2,0-0.4c0,0,0,0,0,0C71,175.2,70.9,174.7,70.9,174.2z"/>
				<path style="fill:#FFFFFF;" d="M12.8,119.9c9.9,0,17.9,7.9,18.1,17.8c0-0.1,0-0.3,0-0.4c0-10-8.1-18.1-18.1-18.1
					s-18.1,8.1-18.1,18.1c0,0.1,0,0.2,0,0.4C-5.1,127.8,2.9,119.9,12.8,119.9z"/>
				<path style="fill:#FFFFFF;" d="M140.9,141.2c2.1,2.9,3.3,6.4,3.4,10.3c0-0.1,0-0.2,0-0.3c0-3.8-1.2-7.2-3.1-10.1
					C141.2,141.1,141,141.2,140.9,141.2z"/>
				<path style="fill:#FFFFFF;" d="M14.5,156c-1.5,2.7-2.4,5.7-2.4,9c0,0.1,0,0.2,0,0.3c0.1-3.5,1.1-6.7,2.9-9.4
					C14.8,156,14.7,156,14.5,156z"/>
			</g>
		</g>
	</g>
	<g>
		<path style="opacity:0.2;fill:#FFFFFF;" d="M109.9,122.3c0.7,0.4,1,1.3,0.6,2c-0.4,0.7-1.3,1-2,0.6c-0.7-0.4-1-1.3-0.6-2
			C108.2,122.2,109.1,121.9,109.9,122.3z"/>
		<path style="opacity:0.2;fill:#FFFFFF;" d="M110,122.6L110,122.6l-5.4-5.4v0.5l-7.7-6.5l0.1,0.5l-4.9-3.1l3.5,4.5l-0.5,0l7.6,6.7
			l-0.5,0.1l5.9,4.4c0.1,0.2,0.3,0.4,0.5,0.5c0.6,0.3,1.4,0.1,1.7-0.5C110.6,123.6,110.4,123,110,122.6z"/>
		<path style="opacity:0.5;fill:#FFFFFF;" d="M108.9,124.4c0.2-0.2,0.4-0.5,0.7-0.7c0.1-0.1,0.3-0.3,0.5-0.4l-3.2-3.2v0.3l-4.7-3.9
			l0,0.3l-6.4-4.9l5.6,5.8l-0.3,0l4.6,4.1l-0.3,0L108.9,124.4z"/>
		<path style="fill:#F6FF5E;" d="M109.7,122.6c0.6,0.3,0.8,1,0.5,1.6c-0.3,0.6-1,0.8-1.6,0.5s-0.8-1-0.5-1.6
			S109.1,122.3,109.7,122.6z"/>
		<path style="fill:#F6E15E;" d="M108.7,124.1c-0.2,0-0.3,0.1-0.4,0.3c0.2,0.2,0.4,0.4,0.7,0.4c0.1-0.1,0.1-0.2,0.1-0.3
			C109.1,124.3,108.9,124.1,108.7,124.1z M108.7,123.4c-0.1,0-0.3,0.1-0.3,0.3s0.1,0.3,0.3,0.3c0.1,0,0.3-0.1,0.3-0.3
			S108.8,123.4,108.7,123.4z M109.4,123.3c0.2,0,0.3-0.1,0.3-0.3c0-0.2-0.1-0.3-0.3-0.3c-0.2,0-0.3,0.1-0.3,0.3
			C109.1,123.2,109.2,123.3,109.4,123.3z M108.6,123.1c0.2,0,0.4-0.2,0.4-0.4c0-0.1,0-0.2-0.1-0.3c-0.3,0.1-0.5,0.2-0.7,0.5
			C108.3,123,108.4,123.1,108.6,123.1z M109.3,123.7C109.3,123.6,109.3,123.6,109.3,123.7c-0.1-0.1-0.2,0-0.2,0
			C109.2,123.7,109.2,123.7,109.3,123.7C109.3,123.7,109.3,123.7,109.3,123.7z M109.3,123.9c0,0.1,0.1,0.2,0.2,0.2
			c0.1,0,0.2-0.1,0.2-0.2c0-0.1-0.1-0.2-0.2-0.2C109.3,123.8,109.3,123.8,109.3,123.9z M110.2,123C110.2,123,110.2,123,110.2,123
			c-0.3,0-0.5,0.2-0.5,0.5c0,0.2,0.1,0.4,0.2,0.5c-0.1,0.1-0.2,0.2-0.2,0.3c0,0.1,0.1,0.2,0.1,0.3c0.3-0.2,0.5-0.6,0.5-0.9
			C110.3,123.4,110.3,123.2,110.2,123z M109.5,124.5c-0.1,0-0.2,0.1-0.2,0.2c0,0,0,0,0,0c0.1,0,0.3,0,0.4-0.1
			C109.6,124.6,109.5,124.5,109.5,124.5z"/>
		<g style="opacity:0.18;">
			<path style="fill:#DD97B6;" d="M108.6,123.1C108.6,123.1,108.6,123.1,108.6,123.1c-0.2,0-0.3-0.1-0.4-0.2
				c0.2-0.2,0.4-0.4,0.7-0.5c0,0,0,0,0,0c-0.3,0.1-0.5,0.2-0.7,0.5C108.3,123,108.4,123.1,108.6,123.1z"/>
			<path style="fill:#DD97B6;" d="M108.3,124.3c0.1-0.1,0.2-0.3,0.4-0.3c0,0,0,0,0,0C108.5,124.1,108.3,124.2,108.3,124.3
				c0.2,0.2,0.4,0.4,0.7,0.4c0,0,0,0,0,0C108.7,124.7,108.5,124.5,108.3,124.3z"/>
			<path style="fill:#DD97B6;" d="M108.4,123.6c0,0.1,0.1,0.3,0.3,0.3c0,0,0,0,0,0C108.5,123.9,108.4,123.8,108.4,123.6
				c0-0.1,0.1-0.3,0.3-0.3c0,0,0,0,0,0C108.5,123.4,108.4,123.5,108.4,123.6z"/>
			<path style="fill:#DD97B6;" d="M109.4,124.1C109.4,124.1,109.4,124.1,109.4,124.1c-0.1,0-0.2-0.1-0.2-0.2c0-0.1,0.1-0.2,0.2-0.2
				c0,0,0,0,0,0c-0.1,0-0.2,0.1-0.2,0.2C109.3,124,109.3,124.1,109.4,124.1z"/>
			<path style="fill:#DD97B6;" d="M109.4,123.3C109.4,123.3,109.4,123.3,109.4,123.3c-0.2,0-0.3-0.1-0.3-0.3c0-0.2,0.1-0.3,0.3-0.3
				c0,0,0,0,0,0c-0.2,0-0.3,0.1-0.3,0.3C109.1,123.2,109.2,123.3,109.4,123.3z"/>
			<path style="fill:#DD97B6;" d="M109.7,124.3c0-0.1,0.1-0.2,0.2-0.3c-0.1-0.1-0.2-0.3-0.2-0.5c0-0.3,0.2-0.5,0.5-0.5c0,0,0,0,0,0
				c0,0,0,0,0,0c-0.3,0-0.5,0.2-0.5,0.5c0,0.2,0.1,0.4,0.2,0.5C109.8,124,109.7,124.1,109.7,124.3c0,0.1,0,0.2,0.1,0.3c0,0,0,0,0,0
				C109.8,124.5,109.7,124.4,109.7,124.3z"/>
			<path style="fill:#DD97B6;" d="M109.3,124.7c0-0.1,0.1-0.2,0.2-0.2c0,0,0,0,0,0C109.3,124.5,109.2,124.6,109.3,124.7
				C109.2,124.7,109.3,124.7,109.3,124.7C109.3,124.8,109.3,124.8,109.3,124.7C109.3,124.7,109.3,124.7,109.3,124.7z"/>
			<path style="fill:#DD97B6;" d="M109.3,123.7C109.2,123.7,109.2,123.7,109.3,123.7c-0.1-0.1,0-0.2,0-0.2c0,0,0,0,0,0
				C109.2,123.6,109.2,123.6,109.3,123.7C109.2,123.7,109.2,123.7,109.3,123.7C109.3,123.7,109.3,123.7,109.3,123.7z"/>
		</g>
	</g>
	
		<ellipse transform="matrix(0.7071 -0.7071 0.7071 0.7071 -59.5906 87.5314)" style="opacity:0.2;fill:#FFFFFF;" cx="75.9" cy="115.7" rx="30.7" ry="30.7"/>
	
		<ellipse transform="matrix(0.7071 -0.7071 0.7071 0.7071 -59.5906 87.5314)" style="opacity:0.2;fill:#FFFFFF;" cx="75.9" cy="115.7" rx="24.6" ry="24.6"/>
	<g>
		<circle style="fill:#6699CC;" cx="75.9" cy="115.7" r="20.1"/>
		<path style="fill:#5884AF;" d="M66.9,123.9c-3,0-5.6,1.8-6.7,4.4c3.1,3.8,7.6,6.5,12.7,7.3c0.9-1.2,1.4-2.7,1.4-4.4
			C74.3,127.2,71,123.9,66.9,123.9z M66.9,111.8c-2.5,0-4.5,2-4.5,4.5c0,2.5,2,4.5,4.5,4.5c2.5,0,4.5-2,4.5-4.5
			C71.4,113.8,69.4,111.8,66.9,111.8z M80.1,110.6c3,0,5.5-2.5,5.5-5.5c0-3-2.5-5.5-5.5-5.5c-3,0-5.5,2.5-5.5,5.5
			C74.6,108.2,77.1,110.6,80.1,110.6z M65.9,108c4.1,0,7.4-3.3,7.4-7.4c0-1.7-0.6-3.3-1.6-4.6c-5,1.1-9.4,4-12.2,8.1
			C60.7,106.4,63.1,108,65.9,108z M78.7,116.8c0-0.8-0.6-1.4-1.4-1.4c-0.8,0-1.4,0.6-1.4,1.4c0,0.8,0.6,1.4,1.4,1.4
			C78,118.3,78.7,117.6,78.7,116.8z M77.3,121.8c0,1.6,1.3,2.9,2.9,2.9c1.6,0,2.9-1.3,2.9-2.9c0-1.6-1.3-2.9-2.9-2.9
			C78.5,118.9,77.3,120.2,77.3,121.8z M93.2,105.5C93.2,105.5,93.2,105.5,93.2,105.5c-5.2,0-9.4,4.2-9.4,9.3c0,3.3,1.7,6.1,4.2,7.8
			c-1.6,1-2.6,2.8-2.6,4.8c0,1.9,0.9,3.5,2.3,4.6c5-3.7,8.3-9.6,8.3-16.3C96,112,95,108.5,93.2,105.5z M80.7,131.9
			c-1.9,0-3.5,1.5-3.5,3.5c0,0.1,0,0.3,0,0.4c2.3-0.2,4.6-0.7,6.6-1.6C83.4,132.9,82.1,131.9,80.7,131.9z"/>
		<g style="opacity:0.18;">
			<path style="fill:#DD97B6;" d="M65.9,108c0,0,0.1,0,0.1,0c-2.8,0-5.2-1.6-6.4-3.9c2.8-4,7.1-6.9,12.1-8c0,0,0,0,0,0
				c-5,1.1-9.4,4-12.2,8.1C60.7,106.4,63.1,108,65.9,108z"/>
			<path style="fill:#DD97B6;" d="M60.4,128.3c1.1-2.6,3.7-4.4,6.7-4.4c0,0-0.1,0-0.1,0c-3,0-5.6,1.8-6.7,4.4
				c3.1,3.8,7.6,6.5,12.7,7.3c0,0,0,0,0,0C67.9,134.8,63.4,132.1,60.4,128.3z"/>
			<path style="fill:#DD97B6;" d="M62.4,116.2c0,2.5,2,4.5,4.5,4.5c0,0,0.1,0,0.1,0c-2.4-0.1-4.4-2-4.4-4.5c0-2.4,2-4.4,4.4-4.5
				c0,0-0.1,0-0.1,0C64.5,111.8,62.4,113.8,62.4,116.2z"/>
			<path style="fill:#DD97B6;" d="M80.1,124.7c0,0,0.1,0,0.1,0c-1.5-0.1-2.8-1.3-2.8-2.9c0-1.6,1.2-2.8,2.8-2.9c0,0-0.1,0-0.1,0
				c-1.6,0-2.9,1.3-2.9,2.9C77.3,123.4,78.5,124.7,80.1,124.7z"/>
			<path style="fill:#DD97B6;" d="M80.1,110.6c0,0,0.1,0,0.1,0c-3-0.1-5.4-2.5-5.4-5.5c0-3,2.4-5.4,5.4-5.5c0,0-0.1,0-0.1,0
				c-3,0-5.5,2.5-5.5,5.5C74.6,108.2,77.1,110.6,80.1,110.6z"/>
			<path style="fill:#DD97B6;" d="M85.6,127.4c0-2,1-3.8,2.6-4.8c-2.5-1.7-4.2-4.5-4.2-7.8c0-5.1,4.1-9.2,9.2-9.3c0,0,0,0,0,0
				c0,0,0,0-0.1,0c-5.2,0-9.3,4.2-9.3,9.3c0,3.3,1.7,6.1,4.2,7.8c-1.6,1-2.6,2.8-2.6,4.8c0,1.9,0.9,3.5,2.3,4.6c0,0,0.1-0.1,0.1-0.1
				C86.5,130.8,85.6,129.2,85.6,127.4z"/>
			<path style="fill:#DD97B6;" d="M77.4,135.4c0-1.9,1.5-3.4,3.4-3.5c0,0-0.1,0-0.1,0c-1.9,0-3.5,1.5-3.5,3.5c0,0.1,0,0.3,0,0.4
				c0.1,0,0.1,0,0.2,0C77.4,135.6,77.4,135.5,77.4,135.4z"/>
			<path style="fill:#DD97B6;" d="M77.4,118.3c-0.7-0.1-1.3-0.7-1.3-1.4c0-0.8,0.6-1.4,1.3-1.4c0,0-0.1,0-0.1,0
				c-0.8,0-1.4,0.6-1.4,1.4c0,0.8,0.6,1.4,1.4,1.4C77.3,118.3,77.3,118.3,77.4,118.3z"/>
		</g>
	</g>
	<g>
		<path style="opacity:0.2;fill:#FFFFFF;" d="M108.7,93.4c1.1,0.6,1.5,1.9,0.9,3c-0.6,1.1-1.9,1.5-3,0.9c-1.1-0.6-1.5-1.9-0.9-3
			C106.3,93.2,107.6,92.8,108.7,93.4z"/>
		<path style="opacity:0.2;fill:#FFFFFF;" d="M109,93.9L109,93.9l-8.2-8.2v0.7l-11.6-9.8l0.1,0.7L82,72.9l5.3,6.7l-0.7,0l11.4,10.1
			l-0.7,0.1l8.9,6.6c0.2,0.3,0.4,0.5,0.7,0.7c0.9,0.5,2.1,0.1,2.6-0.8C109.8,95.5,109.6,94.5,109,93.9z"/>
		<path style="opacity:0.5;fill:#FFFFFF;" d="M107.3,96.6c0.3-0.4,0.6-0.7,1-1c0.2-0.2,0.5-0.4,0.7-0.5l-4.8-4.8v0.4l-7-5.9l0.1,0.4
			l-9.6-7.3l8.4,8.6l-0.4,0l6.9,6.1l-0.4,0.1L107.3,96.6z"/>
		<path style="fill:#F6FF5E;" d="M108.5,93.8c0.9,0.4,1.2,1.5,0.7,2.4c-0.4,0.9-1.5,1.2-2.4,0.7c-0.9-0.4-1.2-1.5-0.7-2.4
			C106.6,93.7,107.6,93.4,108.5,93.8z"/>
		<path style="fill:#F6E15E;" d="M106.9,96.1c-0.3,0-0.5,0.2-0.6,0.4c0.3,0.3,0.7,0.6,1.1,0.6c0.1-0.1,0.1-0.2,0.1-0.4
			C107.6,96.4,107.3,96.1,106.9,96.1z M106.9,95c-0.2,0-0.4,0.2-0.4,0.4s0.2,0.4,0.4,0.4c0.2,0,0.4-0.2,0.4-0.4S107.1,95,106.9,95z
			 M108.1,94.9c0.3,0,0.5-0.2,0.5-0.5s-0.2-0.5-0.5-0.5c-0.3,0-0.5,0.2-0.5,0.5S107.8,94.9,108.1,94.9z M106.8,94.7
			c0.4,0,0.6-0.3,0.6-0.6c0-0.2-0.1-0.3-0.1-0.4c-0.4,0.1-0.8,0.3-1.1,0.7C106.4,94.6,106.6,94.7,106.8,94.7z M107.9,95.5
			c0-0.1-0.1-0.1-0.1-0.1c-0.1,0-0.1,0.1-0.1,0.1c0,0.1,0.1,0.1,0.1,0.1C107.9,95.6,107.9,95.5,107.9,95.5z M107.8,95.9
			c0,0.1,0.1,0.3,0.3,0.3c0.1,0,0.3-0.1,0.3-0.3c0-0.1-0.1-0.3-0.3-0.3C107.9,95.6,107.8,95.8,107.8,95.9z M109.2,94.5
			C109.2,94.5,109.2,94.5,109.2,94.5c-0.5,0-0.8,0.4-0.8,0.8c0,0.3,0.1,0.5,0.4,0.7c-0.1,0.1-0.2,0.2-0.2,0.4c0,0.2,0.1,0.3,0.2,0.4
			c0.4-0.3,0.7-0.8,0.7-1.4C109.4,95,109.4,94.7,109.2,94.5z M108.1,96.8c-0.2,0-0.3,0.1-0.3,0.3c0,0,0,0,0,0c0.2,0,0.4-0.1,0.6-0.1
			C108.3,96.9,108.2,96.8,108.1,96.8z"/>
		<g style="opacity:0.18;">
			<path style="fill:#DD97B6;" d="M106.8,94.7C106.8,94.7,106.8,94.7,106.8,94.7c-0.2,0-0.4-0.1-0.5-0.3c0.2-0.3,0.6-0.6,1.1-0.7
				c0,0,0,0,0,0c-0.4,0.1-0.8,0.3-1.1,0.7C106.4,94.6,106.6,94.7,106.8,94.7z"/>
			<path style="fill:#DD97B6;" d="M106.3,96.5c0.1-0.2,0.3-0.4,0.6-0.4c0,0,0,0,0,0C106.7,96.1,106.4,96.2,106.3,96.5
				c0.3,0.3,0.6,0.6,1.1,0.6c0,0,0,0,0,0C107,97,106.6,96.8,106.3,96.5z"/>
			<path style="fill:#DD97B6;" d="M106.5,95.4c0,0.2,0.2,0.4,0.4,0.4c0,0,0,0,0,0C106.7,95.8,106.5,95.6,106.5,95.4
				c0-0.2,0.2-0.4,0.4-0.4c0,0,0,0,0,0C106.7,95,106.5,95.2,106.5,95.4z"/>
			<path style="fill:#DD97B6;" d="M108.1,96.1C108.1,96.1,108.1,96.1,108.1,96.1c-0.1,0-0.2-0.1-0.2-0.3c0-0.1,0.1-0.2,0.2-0.3
				c0,0,0,0,0,0c-0.1,0-0.3,0.1-0.3,0.3C107.8,96,107.9,96.1,108.1,96.1z"/>
			<path style="fill:#DD97B6;" d="M108.1,94.9C108.1,94.9,108.1,94.9,108.1,94.9c-0.3,0-0.5-0.2-0.5-0.5c0-0.3,0.2-0.5,0.5-0.5
				c0,0,0,0,0,0c-0.3,0-0.5,0.2-0.5,0.5S107.8,94.9,108.1,94.9z"/>
			<path style="fill:#DD97B6;" d="M108.5,96.4c0-0.2,0.1-0.3,0.2-0.4c-0.2-0.1-0.4-0.4-0.4-0.7c0-0.4,0.4-0.8,0.8-0.8c0,0,0,0,0,0
				c0,0,0,0,0,0c-0.4,0-0.8,0.4-0.8,0.8c0,0.3,0.1,0.5,0.4,0.7C108.6,96.1,108.5,96.2,108.5,96.4c0,0.2,0.1,0.3,0.2,0.4c0,0,0,0,0,0
				C108.6,96.7,108.5,96.5,108.5,96.4z"/>
			<path style="fill:#DD97B6;" d="M107.8,97.1c0-0.2,0.1-0.3,0.3-0.3c0,0,0,0,0,0C107.9,96.8,107.8,96.9,107.8,97.1
				C107.8,97.1,107.8,97.1,107.8,97.1C107.8,97.1,107.8,97.1,107.8,97.1C107.8,97.1,107.8,97.1,107.8,97.1z"/>
			<path style="fill:#DD97B6;" d="M107.8,95.6c-0.1,0-0.1-0.1-0.1-0.1c0-0.1,0.1-0.1,0.1-0.1c0,0,0,0,0,0c-0.1,0-0.1,0.1-0.1,0.1
				C107.7,95.5,107.7,95.6,107.8,95.6C107.8,95.6,107.8,95.6,107.8,95.6z"/>
		</g>
	</g>
	<g>
		<path style="opacity:0.2;fill:#FFFFFF;" d="M59.1,144c0.5,0.3,0.7,0.9,0.5,1.4c-0.3,0.5-0.9,0.7-1.4,0.5c-0.5-0.3-0.7-0.9-0.5-1.4
			C58,144,58.6,143.8,59.1,144z"/>
		<path style="opacity:0.2;fill:#FFFFFF;" d="M59.3,144.3L59.3,144.3l-3.9-3.9v0.3l-5.6-4.7l0,0.3l-3.5-2.2l2.5,3.2l-0.3,0l5.4,4.8
			l-0.3,0.1l4.2,3.2c0.1,0.1,0.2,0.3,0.4,0.3c0.4,0.2,1,0.1,1.2-0.4C59.7,145,59.6,144.6,59.3,144.3z"/>
		<path style="opacity:0.5;fill:#FFFFFF;" d="M58.5,145.6c0.1-0.2,0.3-0.3,0.5-0.5c0.1-0.1,0.2-0.2,0.4-0.3l-2.3-2.3v0.2l-3.4-2.8
			l0,0.2l-4.6-3.5l4,4.1l-0.2,0l3.3,2.9l-0.2,0L58.5,145.6z"/>
		<path style="fill:#F6FF5E;" d="M59,144.2c0.4,0.2,0.6,0.7,0.4,1.1c-0.2,0.4-0.7,0.6-1.1,0.4c-0.4-0.2-0.6-0.7-0.4-1.1
			C58.1,144.2,58.6,144,59,144.2z"/>
		<path style="fill:#F6E15E;" d="M58.3,145.3c-0.1,0-0.2,0.1-0.3,0.2c0.1,0.2,0.3,0.3,0.5,0.3c0-0.1,0.1-0.1,0.1-0.2
			C58.6,145.5,58.4,145.3,58.3,145.3z M58.3,144.8c-0.1,0-0.2,0.1-0.2,0.2c0,0.1,0.1,0.2,0.2,0.2c0.1,0,0.2-0.1,0.2-0.2
			C58.5,144.9,58.4,144.8,58.3,144.8z M58.8,144.8c0.1,0,0.2-0.1,0.2-0.2s-0.1-0.2-0.2-0.2c-0.1,0-0.2,0.1-0.2,0.2
			S58.7,144.8,58.8,144.8z M58.2,144.7c0.2,0,0.3-0.1,0.3-0.3c0-0.1,0-0.1-0.1-0.2c-0.2,0-0.4,0.2-0.5,0.3
			C58,144.6,58.1,144.7,58.2,144.7z M58.8,145C58.8,145,58.7,145,58.8,145c-0.1-0.1-0.1,0-0.1,0C58.6,145.1,58.7,145.1,58.8,145
			C58.7,145.1,58.8,145.1,58.8,145z M58.7,145.2c0,0.1,0.1,0.1,0.1,0.1c0.1,0,0.1-0.1,0.1-0.1c0-0.1-0.1-0.1-0.1-0.1
			C58.8,145.1,58.7,145.2,58.7,145.2z M59.4,144.6C59.4,144.6,59.4,144.6,59.4,144.6c-0.2,0-0.4,0.2-0.4,0.4c0,0.1,0.1,0.3,0.2,0.3
			c-0.1,0-0.1,0.1-0.1,0.2c0,0.1,0,0.1,0.1,0.2c0.2-0.2,0.3-0.4,0.3-0.7C59.5,144.8,59.4,144.7,59.4,144.6z M58.9,145.7
			c-0.1,0-0.1,0.1-0.1,0.1c0,0,0,0,0,0c0.1,0,0.2,0,0.3-0.1C59,145.7,58.9,145.7,58.9,145.7z"/>
		<g style="opacity:0.18;">
			<path style="fill:#DD97B6;" d="M58.2,144.7C58.2,144.7,58.2,144.7,58.2,144.7c-0.1,0-0.2-0.1-0.3-0.2c0.1-0.2,0.3-0.3,0.5-0.3
				c0,0,0,0,0,0c-0.2,0-0.4,0.2-0.5,0.3C58,144.6,58.1,144.7,58.2,144.7z"/>
			<path style="fill:#DD97B6;" d="M58,145.5c0-0.1,0.2-0.2,0.3-0.2c0,0,0,0,0,0C58.2,145.3,58,145.4,58,145.5
				c0.1,0.2,0.3,0.3,0.5,0.3c0,0,0,0,0,0C58.3,145.8,58.1,145.7,58,145.5z"/>
			<path style="fill:#DD97B6;" d="M58.1,145c0,0.1,0.1,0.2,0.2,0.2c0,0,0,0,0,0C58.2,145.2,58.1,145.1,58.1,145
				c0-0.1,0.1-0.2,0.2-0.2c0,0,0,0,0,0C58.2,144.8,58.1,144.9,58.1,145z"/>
			<path style="fill:#DD97B6;" d="M58.8,145.4C58.8,145.4,58.8,145.4,58.8,145.4c-0.1,0-0.1-0.1-0.1-0.1c0-0.1,0.1-0.1,0.1-0.1
				c0,0,0,0,0,0c-0.1,0-0.1,0.1-0.1,0.1C58.7,145.3,58.8,145.4,58.8,145.4z"/>
			<path style="fill:#DD97B6;" d="M58.8,144.8C58.8,144.8,58.8,144.8,58.8,144.8c-0.1,0-0.2-0.1-0.2-0.2s0.1-0.2,0.2-0.2
				c0,0,0,0,0,0c-0.1,0-0.2,0.1-0.2,0.2S58.7,144.8,58.8,144.8z"/>
			<path style="fill:#DD97B6;" d="M59.1,145.5c0-0.1,0-0.2,0.1-0.2c-0.1-0.1-0.2-0.2-0.2-0.3c0-0.2,0.2-0.4,0.4-0.4c0,0,0,0,0,0
				c0,0,0,0,0,0c-0.2,0-0.4,0.2-0.4,0.4c0,0.1,0.1,0.3,0.2,0.3C59.1,145.3,59,145.4,59.1,145.5c0,0.1,0,0.1,0.1,0.2c0,0,0,0,0,0
				C59.1,145.6,59.1,145.5,59.1,145.5z"/>
			<path style="fill:#DD97B6;" d="M58.7,145.8c0-0.1,0.1-0.1,0.1-0.1c0,0,0,0,0,0C58.8,145.7,58.7,145.7,58.7,145.8
				C58.7,145.8,58.7,145.8,58.7,145.8C58.7,145.8,58.7,145.8,58.7,145.8C58.7,145.8,58.7,145.8,58.7,145.8z"/>
			<path style="fill:#DD97B6;" d="M58.7,145.1C58.7,145.1,58.7,145.1,58.7,145.1c-0.1-0.1,0-0.1,0-0.1c0,0,0,0,0,0
				C58.7,145,58.6,145,58.7,145.1C58.6,145.1,58.7,145.1,58.7,145.1C58.7,145.1,58.7,145.1,58.7,145.1z"/>
		</g>
	</g>
	<g style="opacity:0.17;">
		<g>
			<path style="fill:#FFFFFF;" d="M112.9,132.2c-2.3,10.9-8.2,20.3-20.4,19.9c-8.3-0.3-8.3,12.7,0,13c17.9,0.6,29.5-12.9,32.9-29.4
				C127.1,127.5,114.6,124.1,112.9,132.2L112.9,132.2z"/>
		</g>
		<g>
			<path style="fill:#FFFFFF;" d="M112.5,112.1c-0.1,1.8,0.1,3.6-0.1,5.4c0.1-0.6,0.2-1.1,0.2-1.7c0,0,0,0,0,0.1
				c0.6-1,1.1-1.9,1.7-2.9c0,0,0,0,0,0c-1.1,1.4-1.9,2.7-1.9,4.6c0,1.6,0.7,3.5,1.9,4.6c2.4,2.2,6.9,2.8,9.2,0
				c1.2-1.5,1.8-2.8,1.9-4.7c0-0.4,0-0.7,0.1-1.1c0-1.4,0-2.8,0.1-4.2c0.1-3.4-3.1-6.6-6.5-6.5C115.3,105.8,112.6,108.4,112.5,112.1
				L112.5,112.1z"/>
		</g>
		<g>
			<path style="fill:#FFFFFF;" d="M42.3,95.6c1.3-1.2,2.5-2.6,3.9-3.7c-0.5,0.3-0.9,0.7-1.4,1c0,0,0,0,0.1,0
				c-1.1,0.3-2.1,0.6-3.2,0.8c0,0,0,0,0,0c1.8-0.2,3.3-0.6,4.6-1.9c1.1-1.1,2-3,1.9-4.6c-0.1-3.2-2.9-6.9-6.5-6.5
				c-1.9,0.2-3.2,0.7-4.7,2c-0.3,0.2-0.6,0.5-0.8,0.7c-1,1-2,1.9-3,2.9c-2.5,2.3-2.6,6.8,0,9.2C35.7,98,39.6,98.1,42.3,95.6
				L42.3,95.6z"/>
		</g>
		<g>
			<path style="fill:#FFFFFF;" d="M56.6,85.9c0.7-0.7,1.4-1.4,2.1-2c-0.3,0.2-0.5,0.4-0.8,0.6c0,0,0,0,0,0c-0.6,0.2-1.2,0.3-1.7,0.5
				c0,0,0,0,0,0c1-0.1,1.8-0.3,2.5-1c0.6-0.6,1.1-1.6,1-2.5c-0.1-1.7-1.5-3.7-3.5-3.5c-1.1,0.1-1.8,0.4-2.6,1.1
				c-0.2,0.1-0.3,0.3-0.4,0.4c-0.6,0.5-1.1,1.1-1.7,1.6c-1.3,1.3-1.4,3.7,0,5C53.1,87.2,55.1,87.3,56.6,85.9L56.6,85.9z"/>
		</g>
	</g>
	<g style="opacity:0.15;">
		<g>
			<path style="fill:#FFFFFF;" d="M251.6,248.9c0.7,2.5,0.3,5-1,7.2c-0.4,0.6,0.6,1.1,0.9,0.5c1.5-2.5,1.8-5.3,1.1-8
				C252.4,247.9,251.4,248.2,251.6,248.9L251.6,248.9z"/>
		</g>
		<g>
			<path style="fill:#FFFFFF;" d="M250.1,258.3c0.7,0,0.7-1.1,0-1.1C249.4,257.2,249.4,258.3,250.1,258.3L250.1,258.3z"/>
		</g>
		<g>
			<path style="fill:#FFFFFF;" d="M248.4,260c0.7,0,0.7-1.1,0-1.1C247.7,258.9,247.7,260,248.4,260L248.4,260z"/>
		</g>
		<g>
			<path style="fill:#FFFFFF;" d="M215.2,235.9c4.5,0.5,9,1.1,13.4,1.8c0.7,0.1,1-0.9,0.3-1c-4.6-0.7-9.1-1.4-13.7-1.9
				C214.5,234.7,214.5,235.8,215.2,235.9L215.2,235.9z"/>
		</g>
		<g>
			<path style="fill:#FFFFFF;" d="M231.1,237.9c0.7,0,0.7-1.1,0-1.1C230.4,236.8,230.4,237.9,231.1,237.9L231.1,237.9z"/>
		</g>
		<g>
			<path style="fill:#FFFFFF;" d="M233,238.3c0.7,0,0.7-1.1,0-1.1C232.3,237.3,232.3,238.3,233,238.3L233,238.3z"/>
		</g>
		<g>
			<path style="fill:#FFFFFF;" d="M147.6,198.3c-2.3,4.6-2.1,9.9,0.7,14.3c0.4,0.6,1.3,0,0.9-0.5c-2.6-4-2.8-8.9-0.7-13.2
				C148.9,198.2,148,197.6,147.6,198.3L147.6,198.3z"/>
		</g>
		<g>
			<path style="fill:#FFFFFF;" d="M150.1,214.3c0.7,0,0.7-1.1,0-1.1C149.4,213.2,149.4,214.3,150.1,214.3L150.1,214.3z"/>
		</g>
		<g>
			<path style="fill:#FFFFFF;" d="M151.1,216c0.7,0,0.7-1.1,0-1.1C150.4,215,150.4,216,151.1,216L151.1,216z"/>
		</g>
		<g>
			<path style="fill:#FFFFFF;" d="M175.8,202.9c4.4,0.9,8.7,0.7,12.9-0.7c0.7-0.2,0.4-1.3-0.3-1c-4.1,1.3-8.2,1.5-12.4,0.7
				C175.4,201.8,175.1,202.8,175.8,202.9L175.8,202.9z"/>
		</g>
		<g>
			<path style="fill:#FFFFFF;" d="M190,201.1C190.1,201.1,190.1,201.2,190,201.1c0.6,0.6,1.3-0.2,0.9-0.7c0,0-0.1-0.1-0.1-0.1
				C190.3,199.9,189.5,200.6,190,201.1L190,201.1z"/>
		</g>
		<g>
			<path style="fill:#FFFFFF;" d="M192.1,200.3c0.7,0,0.7-1.1,0-1.1C191.4,199.3,191.4,200.3,192.1,200.3L192.1,200.3z"/>
		</g>
		<g>
			<path style="fill:#FFFFFF;" d="M193.1,198.3C193.1,198.3,193.2,198.3,193.1,198.3c0.8,0,0.8-1.1,0.1-1.1c0,0-0.1,0-0.1,0
				C192.4,197.2,192.4,198.3,193.1,198.3L193.1,198.3z"/>
		</g>
		<g>
			<path style="fill:#FFFFFF;" d="M148.7,183.1c1.6,2.6,3.4,5.1,5.4,7.4c0.4,0.5,1.2-0.2,0.8-0.8c-1.9-2.3-3.6-4.7-5.2-7.2
				C149.3,181.9,148.3,182.5,148.7,183.1L148.7,183.1z"/>
		</g>
		<g>
			<path style="fill:#FFFFFF;" d="M156.2,192c0.7,0,0.7-1.1,0-1.1C155.5,190.9,155.5,192,156.2,192L156.2,192z"/>
		</g>
		<g>
			<path style="fill:#FFFFFF;" d="M157.1,193.2C157.2,193.2,157.2,193.3,157.1,193.2c0.6,0.6,1.3-0.2,0.9-0.7c0,0-0.1-0.1-0.1-0.1
				C157.4,192,156.7,192.7,157.1,193.2L157.1,193.2z"/>
		</g>
	</g>
	<polygon style="fill:#D0BA42;" points="59.7,13.5 68.7,10.5 74.5,14.8 88.3,8.1 93.9,13.5 101,13.5 109.5,8.1 115.9,10.8 
		104.1,8.1 98.2,15.9 89.6,13.5 79,8.1 73.8,13.5 68.4,12 	"/>
</g>
</svg>
