<?xml version="1.0" encoding="utf-8"?>
<!-- Generator: Adobe Illustrator 23.0.1, SVG Export Plug-In . SVG Version: 6.00 Build 0)  -->
<svg version="1.1" id="Layer_1" xmlns="http://www.w3.org/2000/svg" xmlns:xlink="http://www.w3.org/1999/xlink" x="0px" y="0px"
	 viewBox="0 0 1586 1585" style="enable-background:new 0 0 1586 1585;" xml:space="preserve">
<g>
	<rect x="391.2" y="512.3" style="fill:#95B9FC;" width="812" height="948.7"/>
	<path style="opacity:0.1;enable-background:new    ;" d="M390.2,527.7v919.8c0,8,6.4,14.4,14.4,14.4h20.7c8,0,14.4-6.4,14.4-14.4
		V575.1c0-8,6.4-14.4,14.4-14.4h733.7c8,0,14.4-6.4,14.4-14.4v-18.6c0-8-6.4-14.4-14.4-14.4H404.6
		C396.6,513.3,390.2,519.7,390.2,527.7z"/>
	<path style="opacity:0.1;enable-background:new    ;" d="M1192.6,1423.1l-425.9-1c-9.3,0-16.8-7.6-16.8-16.8v-359.7
		c0-9.3,7.6-16.8,16.8-16.8l434.4,1L1192.6,1423.1z"/>
	<path style="fill:#FFFFFF;stroke:#3E387B;stroke-width:20;stroke-miterlimit:10;" d="M1542.1,1378.9H801.2c-4.5,0-8.2-3.6-8.2-8.2
		v-377c0-4.5,3.6-8.2,8.2-8.2h740.9c4.5,0,8.2,3.6,8.2,8.2v377C1550.3,1375.3,1546.6,1378.9,1542.1,1378.9z"/>
	<path style="fill:#9CCC65;" d="M958.6,1045L958.6,1045c5.6,0,10.2,4.6,10.2,10.2v252.8c0,5.6-4.6,10.2-10.2,10.2l0,0
		c-5.6,0-10.2-4.6-10.2-10.2v-252.8C948.4,1049.7,953,1045,958.6,1045z"/>
	<path style="fill:#9CCC65;" d="M856.9,1045L856.9,1045c5.6,0,10.2,4.6,10.2,10.2v252.8c0,5.6-4.6,10.2-10.2,10.2l0,0
		c-5.6,0-10.2-4.6-10.2-10.2v-252.8C846.7,1049.7,851.2,1045,856.9,1045z"/>
	<path style="fill:#9CCC65;" d="M1080.9,1045L1080.9,1045c5.6,0,10.2,4.6,10.2,10.2v252.8c0,5.6-4.6,10.2-10.2,10.2l0,0
		c-5.6,0-10.2-4.6-10.2-10.2v-252.8C1070.7,1049.7,1075.2,1045,1080.9,1045z"/>
	<path style="fill:#9CCC65;" d="M1202.9,1045L1202.9,1045c5.6,0,10.2,4.6,10.2,10.2v252.8c0,5.6-4.6,10.2-10.2,10.2l0,0
		c-5.6,0-10.2-4.6-10.2-10.2v-252.8C1192.6,1049.7,1197.3,1045,1202.9,1045z"/>
	<path style="fill:#9CCC65;" d="M907.7,1045L907.7,1045c11.2,0,20.4,9.1,20.4,20.4v232.4c0,11.2-9.1,20.4-20.4,20.4l0,0
		c-11.2,0-20.4-9.1-20.4-20.4v-232.4C887.4,1054.1,896.5,1045,907.7,1045z"/>
	<path style="fill:#9CCC65;" d="M1025.8,1045L1025.8,1045c11.2,0,20.4,9.1,20.4,20.4v232.4c0,11.2-9.1,20.4-20.4,20.4l0,0
		c-11.2,0-20.4-9.1-20.4-20.4v-232.4C1005.5,1054.1,1014.5,1045,1025.8,1045z"/>
	<path style="fill:#9CCC65;" d="M1151.9,1045L1151.9,1045c11.2,0,20.4,9.1,20.4,20.4v232.4c0,11.2-9.1,20.4-20.4,20.4l0,0
		c-11.2,0-20.4-9.1-20.4-20.4v-232.4C1131.6,1054.1,1140.7,1045,1151.9,1045z"/>
	<path style="fill:#9CCC65;" d="M1249.4,1045L1249.4,1045c4,0,7.4,3.2,7.4,7.4v258.4c0,4-3.2,7.4-7.4,7.4l0,0c-4,0-7.4-3.2-7.4-7.4
		v-258.4C1242,1048.3,1245.5,1045,1249.4,1045z"/>
	<path style="fill:#9CCC65;" d="M1352.2,1045L1352.2,1045c4,0,7.4,3.2,7.4,7.4v258.4c0,4-3.2,7.4-7.4,7.4l0,0c-4,0-7.4-3.2-7.4-7.4
		v-258.4C1344.8,1048.3,1348,1045,1352.2,1045z"/>
	<path style="fill:#9CCC65;" d="M1396.1,1045L1396.1,1045c4,0,7.4,3.2,7.4,7.4v258.4c0,4-3.2,7.4-7.4,7.4l0,0c-4,0-7.4-3.2-7.4-7.4
		v-258.4C1388.8,1048.3,1392.1,1045,1396.1,1045z"/>
	<path style="fill:#9CCC65;" d="M1498.8,1045L1498.8,1045c4,0,7.4,3.2,7.4,7.4v258.4c0,4-3.2,7.4-7.4,7.4l0,0c-4,0-7.4-3.2-7.4-7.4
		v-258.4C1491.4,1048.3,1494.7,1045,1498.8,1045z"/>
	<path style="fill:#9CCC65;" d="M1286.1,1045L1286.1,1045c8.1,0,14.7,6.5,14.7,14.7v243.9c0,8.1-6.5,14.7-14.7,14.7l0,0
		c-8.1,0-14.7-6.5-14.7-14.7v-243.9C1271.5,1051.5,1278.1,1045,1286.1,1045z"/>
	<path style="fill:#9CCC65;" d="M1462.1,1045L1462.1,1045c8.1,0,14.7,6.5,14.7,14.7v243.9c0,8.1-6.5,14.7-14.7,14.7l0,0
		c-8.1,0-14.7-6.5-14.7-14.7v-243.9C1447.4,1051.5,1454,1045,1462.1,1045z"/>
	<path style="fill:#2874A6;stroke:#3E387B;stroke-width:20;stroke-miterlimit:10;" d="M1163.4,502.8H420V378.6
		c0-4.6,3.6-8.3,8.3-8.3h726.9c4.6,0,8.3,3.6,8.3,8.3V502.8z"/>
	<g>
		<path style="fill:#95B9FC;stroke:#3E387B;stroke-width:15;stroke-miterlimit:10;" d="M1155.8,370.2l-69.2,53.6
			c-7.7,5.9-7.8,17.4-0.2,23.4l68.6,55.4"/>
	</g>
	<g>
		<path style="fill:#95B9FC;stroke:#3E387B;stroke-width:15;stroke-miterlimit:10;" d="M424.9,375.5l75,48.3
			c7.9,5.9,8,17.6,0.2,23.7l-75.2,47.9"/>
	</g>
	<path style="fill:none;stroke:#3E387B;stroke-width:20;stroke-linecap:round;stroke-miterlimit:10;" d="M1201.1,1386.4v57.2
		c0,12.4-10.1,22.6-22.5,22.6l-484.5,1 M1201.1,984V531.6c0-12.4-10.1-22.6-22.6-22.6H407.5c-12.4,0-22.6,10.1-22.6,22.6v912
		c0,12.4,10.1,22.5,22.5,22.6l167.6,0.9 M1427.3,1467.2h-305.2"/>
	<g>
		
			<line style="fill:none;stroke:#3E387B;stroke-width:20;stroke-linecap:round;stroke-linejoin:round;stroke-miterlimit:10;" x1="401.7" y1="1466.1" x2="262.9" y2="1466.1"/>
	</g>
	<g>
		
			<line style="fill:none;stroke:#3E387B;stroke-width:20;stroke-linecap:round;stroke-linejoin:round;stroke-miterlimit:10;" x1="159.9" y1="1465" x2="35.7" y2="1465"/>
	</g>
	<g>
		<path style="fill:none;stroke:#3E387B;stroke-width:20;stroke-linecap:round;stroke-linejoin:round;stroke-miterlimit:10;" d="
			M460.6,985.5V1362c0,9.3,7.6,16.8,16.8,16.8h42.1"/>
	</g>
	<g>
		<path style="fill:none;stroke:#3E387B;stroke-width:20;stroke-linecap:round;stroke-linejoin:round;stroke-miterlimit:10;" d="
			M551.1,1378.9c92.5,0-10.5,0,103,0"/>
	</g>
	
		<ellipse style="fill:#9CCC65;stroke:#3E387B;stroke-width:20;stroke-miterlimit:10;" cx="989.5" cy="644.8" rx="100.6" ry="100.6"/>
	<circle style="fill:#9CCC65;stroke:#3E387B;stroke-width:20;stroke-miterlimit:10;" cx="628.4" cy="644.8" r="100.6"/>
	<circle style="fill:#FFFFFF;" cx="626.8" cy="643.3" r="63.2"/>
	<circle style="fill:#FFFFFF;" cx="989.5" cy="647.6" r="63.2"/>
	<path style="fill:none;stroke:#3E387B;stroke-width:13;stroke-linecap:round;stroke-linejoin:round;stroke-miterlimit:10;" d="
		M933.1,679.2c-6.1-9.9-9.6-21.8-9.6-34.3c0-36.5,29.5-66.1,66.1-66.1c36.6,0,66.1,29.5,66.1,66.1c0,36.5-29.5,66.1-66.1,66.1"/>
	<path style="fill:none;stroke:#3E387B;stroke-width:13;stroke-linecap:round;stroke-linejoin:round;stroke-miterlimit:10;" d="
		M593.9,588.3c9.9-6.1,21.8-9.6,34.3-9.6c36.5,0,66.1,29.5,66.1,66.1c0,36.5-29.5,66.1-66.1,66.1s-66.1-29.5-66.1-66.1"/>
	<path style="fill:#3E387B;stroke:#3E387B;stroke-width:9;stroke-miterlimit:10;" d="M535.4,1124.7v198.9c0,1.4-1.1,2.6-2.6,2.6
		h-5.4c-1.4,0-2.6-1.1-2.6-2.6v-198.9c0-1.4,1.1-2.6,2.6-2.6h5.4C534.3,1122.2,535.4,1123.4,535.4,1124.7z"/>
	<path style="fill:#3E387B;stroke:#3E387B;stroke-width:9;stroke-miterlimit:10;" d="M586.8,1031.3v198.9c0,1.4-1.1,2.6-2.6,2.6
		h-5.4c-1.4,0-2.6-1.1-2.6-2.6v-198.9c0-1.4,1.1-2.6,2.6-2.6h5.4C585.7,1028.7,586.8,1029.9,586.8,1031.3z"/>
	<path style="fill:#3E387B;stroke:#3E387B;stroke-width:9;stroke-miterlimit:10;" d="M633.6,1126.4v199c0,1.4-1.1,2.6-2.6,2.6h-5.4
		c-1.4,0-2.6-1.1-2.6-2.6v-198.9c0-1.4,1.1-2.6,2.6-2.6h5.4C632.4,1124,633.6,1125,633.6,1126.4z"/>
	<path style="fill:#3E387B;stroke:#3E387B;stroke-width:20;stroke-miterlimit:10;" d="M997,341.4v305.3c0,4.6-3.7,8.2-8.5,8.2l0,0
		c-4.7,0-8.5-3.6-8.5-8.2V354.4c0-46.6-19.5-88.8-50.9-119.4c-30.8-29.9-72.9-48.6-119.7-49.4C712.1,184,633,262,633,356.8v290
		c0,4.6-3.7,8.2-8.5,8.2l0,0c-4.7,0-8.5-3.6-8.5-8.2V341.4c0-93.2,77.7-168.9,173.7-168.9h33.4C919.3,172.5,997,248.1,997,341.4z"/>
</g>
</svg>
