<?xml version="1.0" standalone="no"?>
<!DOCTYPE svg PUBLIC "-//W3C//DTD SVG 1.1//EN" "http://www.w3.org/Graphics/SVG/1.1/DTD/svg11.dtd" >
<svg>
<metadata>
Created by FontForge 20120731 at Wed Dec 12 16:11:19 2018
 By www-data
Typeface (c) The scict.ir Corporation plc. Data (c) The scict.ir Corporation plc/Type Solutions Inc. 2012-2013. All Rights Reserved. Modify by  Hossein Zahedi.
</metadata>
<defs>
<font id="IRDastNevis" horiz-adv-x="0" >
  <font-face 
    font-family="IRDast Nevis"
    font-weight="400"
    font-stretch="normal"
    units-per-em="2048"
    panose-1="2 0 5 3 0 0 0 2 0 2"
    ascent="1638"
    descent="-410"
    x-height="777"
    cap-height="1150"
    bbox="-572 -1199 3305 2133"
    underline-thickness="60"
    underline-position="-40"
    unicode-range="U+0020-FFFC"
  />
<missing-glyph horiz-adv-x="2048" 
 />
    <glyph glyph-name="afii64184" unicode="&#xfedf;&#xfee0;&#x651;&#x670;&#xfeea;" horiz-adv-x="1832" arabic-form="isolated" 
d="M1496 1169q0 -55 -29 -92q-31 -40 -85 -40q-44 0 -88 32q-60 -64 -110 -64q-42 0 -68 30.5t-26 73.5q0 65 52 102q10 7 20 7q13 0 13 -11q0 -8 -9 -20q-36 -50 -24 -72t51 -22q52 0 73 34q11 17 13 67q2 37 19 37q6 0 25.5 -58t52.5 -58q68 0 68 39q0 12 -4 25
q-16 53 10 58q20 4 34 -24q12 -23 12 -44zM1285 1524q64 -235 -8 -222q-5 7 -12 49q-19 96 -31 132q-5 19 -1 33t12 20.5t19 4t21 -16.5zM1095 0q-149 -6 -189 64q-23 28 -37 216q-15 58 -58 58l-15 2h-13q-157 0 -379 -243q-77 -98 -90 -145h3l35 5h7q81 -12 81 -78l2 -3
v-2q0 -95 -150 -95q-119 0 -148 102l-3 26v22q0 140 268 384q213 175 382 175q178 0 233 -130q15 -39 23 -163q6 -40 48 -33q100 0 128.5 130.5t37 246.5t2.5 203t28.5 120.5t71.5 4t45.5 -113t-6.5 -267.5q-9 -112 -35 -210q1 -9 3 -18q10 -73 49 -88q10 -4 19 -9q6 1 14 1
q100 0 125.5 134.5t3 282.5t-57 250t-8.5 130.5t72 17t88.5 -133.5t55.5 -331t-45.5 -354.5t-233.5 -157.5q-13 1 -24 3q-25 -5 -60 11q-41 19 -80 74q-66 -80 -193 -88z" />
    <glyph glyph-name="afii62834" unicode="&#xfedf;&#xfe82;" horiz-adv-x="1145" arabic-form="isolated" 
d="M1352 1348q60 0 80 -72v-10q0 -47 -50 -77q-188 -138 -428 -349q-129 -113 -235 -233v-2q73 -96 151 -298.5t-39 -390.5q-69 -79 -113 -98q-50 -34 -124 -65q-41 -16 -100 -16h-7q-165 0 -211 118q-32 67 -32 145q0 208 276 590q-288 357 -288 397v4q0 47 67 76l15 2
q54 0 290 -334l16 -17q1 5 65 72q269 267 415 382q156 132 219 170q18 6 33 6zM615 485q-198 -293 -217 -464v-18q0 -77 55 -109l49 -7q83 0 170 83q47 53 61 122q9 53 9 74q0 144 -125 319h-2zM897 1470q-34 -41 -247 -64.5t-387 -92t-166.5 -171.5t12.5 -147.5t-58 -76.5
l-27 1q-59 14 -65 102q-79 361 365.5 468t516 74t56.5 -93z" />
    <glyph glyph-name="afii62835" unicode="&#xfee0;&#xfe82;" horiz-adv-x="934" arabic-form="final" 
d="M938 -3q-144 22 -195 148q-74 -127 -159 -230q-117 -139 -234 -139h-18q-68 0 -116 48q-63 -106 -111 -157t-87 -51q-59 0 -81 65l-2 16v8q0 40 50 76q94 92 171 208.5t130 296.5q52 223 68 350q27 73 84 73q65 0 83 -65l2 -18q-29 -231 -95 -456l-86 -224v-5l23 -3
q117 0 254 288q82 194 97.5 334.5t19.5 266.5t83 126h16q48 0 78 -58q7 -16 7 -33v-16q0 -92 -65 -489l-2 -27q6 -136 81 -173q91 -10 80 -92.5t-76 -67.5zM951 1210q-34 -41 -247 -64.5t-387 -92t-166.5 -171.5t12.5 -147.5t-58 -76.5l-27 1q-59 14 -65 102
q-79 361 365.5 468t516 74t56.5 -93z" />
    <glyph glyph-name="afii62836" unicode="&#xfedf;&#xfe84;" horiz-adv-x="1145" arabic-form="isolated" 
d="M1352 1341q60 0 80 -72v-10q0 -47 -50 -77q-188 -138 -428 -349q-129 -113 -235 -233v-2q73 -96 151 -298.5t-39 -390.5q-69 -79 -113 -98q-50 -34 -124 -65q-41 -16 -100 -16h-7q-165 0 -211 118q-32 67 -32 145q0 208 276 590q-288 357 -288 397v4q0 47 67 76l15 2
q54 0 290 -334l16 -17q1 5 65 72q269 267 415 382q156 132 219 170q18 6 33 6zM615 478q-198 -293 -217 -464v-18q0 -77 55 -109l49 -7q83 0 170 83q47 53 61 122q9 53 9 74q0 144 -125 319h-2zM271 1568q24 0 52 -27q37 -35 37 -39l1 -4q0 -18 -28 -22h-5q-7 -4 -7 -13v-5
q0 -23 47 -94q19 -32 19 -67q0 -47 -43 -79q-125 -125 -150 -125l-8 -1h-12q-25 0 -29 32q0 38 46 73l80 67q23 32 23 60q0 43 -62 111q-24 31 -24 59q0 49 34 67q16 7 29 7z" />
    <glyph glyph-name="afii62837" unicode="&#xfee0;&#xfe84;" horiz-adv-x="934" arabic-form="final" 
d="M938 -3q-144 22 -195 148q-74 -127 -159 -230q-117 -139 -234 -139h-18q-68 0 -116 48q-63 -106 -111 -157t-87 -51q-59 0 -81 65l-2 16v8q0 40 50 76q94 92 171 208.5t130 296.5q52 223 68 350q27 73 84 73q65 0 83 -65l2 -18q-29 -231 -95 -456l-86 -224v-5l23 -3
q117 0 254 288q82 194 97.5 334.5t19.5 266.5t83 126h16q48 0 78 -58q7 -16 7 -33v-16q0 -92 -65 -489l-2 -27q6 -136 81 -173q91 -10 80 -92.5t-76 -67.5zM444 1242q24 0 52 -27q37 -35 37 -39l1 -4q0 -18 -28 -22h-5q-7 -4 -7 -13v-5q0 -23 47 -94q19 -32 19 -67
q0 -47 -43 -79q-125 -125 -150 -125l-8 -1h-12q-25 0 -29 32q0 38 46 73l80 67q23 32 23 60q0 43 -62 111q-24 31 -24 59q0 49 34 67q16 7 29 7z" />
    <glyph glyph-name="afii62838" unicode="&#xfedf;&#xfe88;" horiz-adv-x="1057" arabic-form="isolated" 
d="M250 -367q24 0 52 -27q37 -35 37 -39l1 -4q0 -18 -28 -22h-5q-7 -4 -7 -13v-5q0 -23 47 -94q19 -32 19 -67q0 -47 -43 -79q-125 -125 -150 -125l-8 -1h-12q-25 0 -29 32q0 38 46 73l80 67q23 32 23 60q0 43 -62 111q-24 31 -24 59q0 49 34 67q16 7 29 7zM1265 1341
q60 0 80 -72v-10q0 -47 -50 -77q-188 -138 -428 -349q-129 -113 -235 -233v-2q73 -96 151 -298.5t-39 -390.5q-69 -79 -113 -98q-50 -34 -124 -65q-41 -16 -100 -16h-7q-165 0 -211 118q-32 67 -32 145q0 208 276 590q-288 357 -288 397v4q0 47 67 76l15 2q54 0 290 -334
l16 -17q1 5 65 72q269 267 415 382q156 132 219 170q18 6 33 6zM528 478q-198 -293 -217 -464v-18q0 -77 55 -109l49 -7q83 0 170 83q47 53 61 122q9 53 9 74q0 144 -125 319h-2z" />
    <glyph glyph-name="afii62839" unicode="&#xfee0;&#xfe88;" horiz-adv-x="934" arabic-form="final" 
d="M938 -3q-144 22 -195 148q-74 -127 -159 -230q-117 -139 -234 -139h-18q-68 0 -116 48q-63 -106 -111 -157t-87 -51q-59 0 -81 65l-2 16v8q0 40 50 76q94 92 171 208.5t130 296.5q52 223 68 350q27 73 84 73q65 0 83 -65l2 -18q-29 -231 -95 -456l-86 -224v-5l23 -3
q117 0 254 288q82 194 97.5 334.5t19.5 266.5t83 126h16q48 0 78 -58q7 -16 7 -33v-16q0 -92 -65 -489l-2 -27q6 -136 81 -173q91 -10 80 -92.5t-76 -67.5zM132 -445q24 0 52 -27q37 -35 37 -39l1 -4q0 -18 -28 -22h-5q-7 -4 -7 -13v-5q0 -23 47 -94q19 -32 19 -67
q0 -47 -43 -79q-125 -125 -150 -125l-8 -1h-12q-25 0 -29 32q0 38 46 73l80 67q23 32 23 60q0 43 -62 111q-24 31 -24 59q0 49 34 67q16 7 29 7z" />
    <glyph glyph-name="afii62840" unicode="&#xfedf;&#xfe8e;" horiz-adv-x="1145" arabic-form="isolated" 
d="M1352 1341q60 0 80 -72v-10q0 -47 -50 -77q-188 -138 -428 -349q-129 -113 -235 -233v-2q73 -96 151 -298.5t-39 -390.5q-69 -79 -113 -98q-50 -34 -124 -65q-41 -16 -100 -16h-7q-165 0 -211 118q-32 67 -32 145q0 208 276 590q-288 357 -288 397v4q0 47 67 76l15 2
q54 0 290 -334l16 -17q1 5 65 72q269 267 415 382q156 132 219 170q18 6 33 6zM615 478q-198 -293 -217 -464v-18q0 -77 55 -109l49 -7q83 0 170 83q47 53 61 122q9 53 9 74q0 144 -125 319h-2z" />
    <glyph glyph-name="afii62841" unicode="&#xfee0;&#xfe8e;" horiz-adv-x="934" arabic-form="final" 
d="M938 -3q-144 22 -195 148q-74 -127 -159 -230q-117 -139 -234 -139h-18q-68 0 -116 48q-63 -106 -111 -157t-87 -51q-59 0 -81 65l-2 16v8q0 40 50 76q94 92 171 208.5t130 296.5q52 223 68 350q27 73 84 73q65 0 83 -65l2 -18q-29 -231 -95 -456l-86 -224v-5l23 -3
q117 0 254 288q82 194 97.5 334.5t19.5 266.5t83 126h16q48 0 78 -58q7 -16 7 -33v-16q0 -92 -65 -489l-2 -27q6 -136 81 -173q91 -10 80 -92.5t-76 -67.5z" />
    <glyph glyph-name="afii57369" unicode="&#x6a4;" horiz-adv-x="849" arabic-form="medial" 
 />
    <glyph glyph-name="afii57371" unicode="&#x6a4;" horiz-adv-x="1691" arabic-form="final" 
 />
    <glyph glyph-name="afii57372" unicode="&#x6a4;" horiz-adv-x="714" arabic-form="initial" 
 />
    <glyph glyph-name="afii62958" unicode="&#x67e;" horiz-adv-x="1806" arabic-form="final" 
d="M1811 156q49 -5 68 -36.5t8.5 -64.5t-43.5 -49t-98 7.5t-110 97.5q-28 44 -32 103q-52 -48 -113 -76q-209 -97 -389 -122t-438 -25q-501 0 -614 210q-23 60 -23 98q0 183 268 349q113 58 235 91q192 45 326 45q51 0 75 -68v-28q0 -58 -78 -75h-53q-311 0 -523 -175
q-93 -92 -93 -149q0 -134 366 -162l124 -2h2q578 24 751 139.5t197 237.5t69 156q17 7 36 7q75 -4 81 -81q-29 -98 -68 -176q-30 -104 -17 -151q18 -73 86 -101zM710 -524q72 0 124 -96v-20q0 -49 -88 -68h-20q-76 0 -92 116q0 59 76 68zM1053 -224q35 0 52 -28l-26 -68
q-9 -34 -590 -92h-8q-96 0 -96 52q0 66 108 88q151 24 560 48z" />
    <glyph glyph-name="afii62956" unicode="&#x67e;" horiz-adv-x="580" arabic-form="initial" 
d="M-6 1q-84 9 -79 78.5t76 75.5q171 6 249 77t97.5 203.5t73.5 167.5q20 12 51 7q86 -21 48 -161q-39 -184 -102 -270.5t-172 -135.5t-242 -42zM193 -503q72 0 124 -96v-20q0 -49 -88 -68h-20q-76 0 -92 116q0 59 76 68zM536 -203q35 0 52 -28l-26 -68q-9 -34 -590 -92h-8
q-96 0 -96 52q0 66 108 88q151 24 560 48z" />
    <glyph glyph-name="afii52957" unicode="&#x67e;" horiz-adv-x="400" arabic-form="medial" 
d="M399 155q63 1 80 -64v-18q-16 -73 -83 -73q-165 -1 -182 122q-44 -68 -92 -95t-121 -27q-83 11 -77.5 77t78.5 78q120 0 182.5 194t97.5 231t78 24q77 -42 24 -162q-40 -109 -57 -155.5t-7 -88t79 -43.5zM165 -521q72 0 124 -96v-20q0 -49 -88 -68h-20q-76 0 -92 116
q0 59 76 68zM508 -221q35 0 52 -28l-26 -68q-9 -34 -590 -92h-8q-96 0 -96 52q0 66 108 88q151 24 560 48z" />
    <glyph glyph-name="afii57459" unicode="&#x6a1;" horiz-adv-x="707" 
d="M531 696h38q122 0 138 -157q0 -309 -494 -509q-89 -30 -202 -30h-26q-75 17 -75 67v23q0 56 90 65q97 0 146 15v3q-30 56 -30 100v19q0 121 232 325q99 79 183 79zM247 307v-19q0 -37 33 -60q91 36 221 165q56 74 56 112q0 14 -22 30h-4q-75 0 -258 -180q-26 -29 -26 -48
z" />
    <glyph glyph-name="afii57374" unicode="&#x6a1;" horiz-adv-x="601" 
d="M531 696h38q122 0 138 -157q0 -212 -232 -376q56 -6 127 -8q49 -5 72.5 -36t13 -62.5t-43.5 -46t-86 -11t-139 16t-140 42.5q-32 -14 -66 -28q-89 -30 -202 -30h-26q-75 17 -75 67v23q0 66 90 75q97 0 146 15v3q-30 46 -30 90v19q0 121 232 325q99 79 183 79zM247 307
v-19q0 -37 33 -60q91 36 221 165q56 74 56 112q0 17 -22 30h-4q-75 0 -258 -180q-26 -29 -26 -48z" />
    <glyph glyph-name="afii52258" unicode="&#x6a1;" horiz-adv-x="2270" 
d="M1007 1113h5q85 -12 85 -81v-15q0 -66 -117 -89q-415 -138 -572 -266q-171 -116 -171 -270v-24q0 -287 461 -414q119 -32 262 -32q420 0 934 255q-15 63 -15 104q0 222 181 364q75 52 134 52h7q121 0 159 -139l5 -52v-5q0 -137 -122 -294q-25 -24 -49 -45q34 -7 83 -6
q49 -5 68 -39.5t1 -70t-43.5 -44t-117 -1.5t-143.5 32q-13 6 -24 14q-124 -69 -260 -122q-392 -139 -733 -139q-425 0 -743 222q-211 165 -211 375q0 291 411 525q128 74 374 161q132 44 151 44zM2050 308q0 -30 8 -30q100 85 119 164q14 25 14 59v5l-2 13
q-85 -41 -131 -159q-8 -26 -8 -52z" />
    <glyph glyph-name="afii62961" unicode="&#x686;" horiz-adv-x="1288" arabic-form="final" 
d="M1288 155q49 -5 67.5 -36.5t8 -65t-43.5 -47.5t-127.5 7t-175 90.5t-83.5 194.5q0 32 2 56q-9 3 -19 5h-12q-87 0 -443 -245q-117 -77 -298 -253q-238 -255 -238 -444v-29q0 -266 216 -385q146 -96 402 -93h5q237 9 536 83q22 12 22 20l-9 16v20q8 33 29 33
q97 -47 134 -115l2 -12q-2 -67 -241 -108q-286 -46 -447 -46h-19q-280 0 -505 109q-33 12 -144 120q-77 96 -94 187q-17 68 -17 152v36q0 378 534 767q191 148 334 231q24 9 24 28q-24 57 -156 116l-34 5h-7q-85 -15 -219 -197q-95 -186 -120 -205h-10q-10 0 -12 51v31
q0 148 41 192q33 74 197 226q64 53 116 53q102 0 337 -180q32 -12 60 -12q31 0 110 36q34 7 65 7q147 0 258 -103q14 -18 14 -29v-5q0 -68 -84 -99l-31 -4q-48 0 -125 12q2 -10 4 -22q21 -129 196 -149zM633 -529q72 0 124 -96v-20q0 -49 -88 -68h-20q-76 0 -92 116
q0 59 76 68zM976 -229q35 0 52 -28l-26 -68q-9 -34 -590 -92h-8q-96 0 -96 52q0 66 108 88q151 24 560 48z" />
    <glyph glyph-name="afii62959" unicode="&#x686;" horiz-adv-x="1000" arabic-form="initial" 
d="M375 727h2q89 0 204 -159q74 -95 90 -111q87 60 122 60h18q40 0 66 -53q6 -13 6 -29q0 -60 -74 -131q-49 -38 -95 -38l-36 9q-178 -107 -303 -165q-254 -105 -299 -105q-24 -5 -65 -5h-7q-51 0 -73 51l-4 22v11q0 50 61 71q91 0 199 50q197 75 371 183q-117 176 -186 176
q-46 -1 -178 -190q-34 -43 -55 -43q-25 0 -56 56l-4 25q0 76 119 192q113 123 177 123zM349 -530q72 0 124 -96v-20q0 -49 -88 -68h-20q-76 0 -92 116q0 59 76 68zM692 -230q35 0 52 -28l-26 -68q-9 -34 -590 -92h-8q-96 0 -96 52q0 66 108 88q151 24 560 48z" />
    <glyph glyph-name="afii62960" unicode="&#x686;" horiz-adv-x="848" arabic-form="medial" 
d="M373 727h2q89 0 204 -159q74 -95 90 -111q87 60 122 60h18q40 0 66 -53q6 -13 6 -29q0 -60 -74 -131q-49 -38 -95 -38l-36 9q-7 -5 -14 -11q16 -89 189 -109q49 -5 68 -36.5t8.5 -64.5t-43.5 -47t-114 -4t-161 110q-33 42 -49 78q-97 -66 -176 -105q-124 -61 -229 -73.5
t-146 -12.5h-7q-51 0 -73 51l-4 22v11q0 50 61 71q172 3 310.5 59.5t259.5 173.5q-117 176 -186 176q-46 -1 -178 -190q-34 -43 -55 -43q-25 0 -56 56l-4 25q0 76 119 192q113 123 177 123zM344 -564q72 0 124 -96v-20q0 -49 -88 -68h-20q-76 0 -92 116q0 59 76 68z
M687 -264q35 0 52 -28l-26 -68q-9 -34 -590 -92h-8q-96 0 -96 52q0 66 108 88q151 24 560 48z" />
    <glyph glyph-name="afii62962" unicode="&#x698;" horiz-adv-x="511" arabic-form="final" 
d="M502 585q45 0 70 -45q7 -15 7 -32v-3q0 -26 -27 -95t-51.5 -123t-8.5 -92t57.5 -46.5t45.5 -70.5q0 -49 -50 -72q-14 -4 -25 -4h-10q-121 8 -138 104q-163 -244 -425 -524q-106 -116 -188 -203q-39 -43 -52 -43q-12 -7 -31 -7q-47 0 -71 51q-6 14 -6 25v6q0 36 45 74
q0 3 172 171q181 182 227 243q133 156 226 294q107 166 142.5 285.5t90.5 106.5zM473 1316q73 0 124 -96v-20q0 -49 -88 -68h-20q-76 0 -92 116q0 58 76 68zM723 1072q35 0 52 -28l-26 -68q-9 -35 -447 -70h-8q-96 0 -96 52q0 65 108 88q151 24 417 26z" />
    <glyph glyph-name="afii62964" unicode="&#x6a9;" horiz-adv-x="2098" arabic-form="final" 
d="M836 1034h14q70 -14 70 -70v-11q0 -65 -119 -90q-475 -195 -475 -441q0 -199 419 -283q73 -14 154 -14q293 0 675 213q106 64 252 213q115 135 115 312l-7 101q22 63 63 63h21q62 0 70 -81l3 -55v-53q0 -396 -520 -675q-340 -154 -633 -154h-35q-389 0 -626 193
q-105 110 -105 234q0 327 552 563zM3228 2020q56 0 77 -63v-21q0 -38 -101 -132q-586 -394 -1005 -449q-15 -7 -160 -28q-52 0 -67 70v18q0 37 78 53.5t182 39t389.5 132.5t564.5 366zM2089 162q49 -5 68 -39.5t1 -70t-43.5 -44t-58.5 -7t-73.5 22.5t-80.5 99t-15 237
t125.5 360.5t56.5 -44.5t-49 -345.5t19.5 -135.5t49.5 -33z" />
    <glyph glyph-name="afii52305" unicode="&#x6a9;" horiz-adv-x="691" arabic-form="initial" 
d="M7 0q-85 8 -85 70v23q0 63 85 63q122 0 247.5 105.5t139 245.5t-15 279.5t6 173t71.5 4t68 -165.5t11 -343.5t-175.5 -325t-352.5 -129.5zM1310 1870q56 0 77 -63v-21q0 -39 -245.5 -187.5t-397.5 -235t-239.5 -121t-104 34t68 111t296.5 149t503 319.5z" />
    <glyph glyph-name="afii52306" unicode="&#x6a9;" horiz-adv-x="543" arabic-form="medial" 
d="M-2 0q-85 8 -85 70v23q0 69 85 69q122 0 247.5 102.5t139 242.5t-15 279.5t6 173t71.5 4t68 -165.5t11 -344q-8 -77 -34 -147q2 -23 7 -55q10 -73 49.5 -88t53.5 -38t9 -59t-35 -56t-78.5 3t-95.5 95q-13 21 -21 45q-15 -13 -31 -25q-155 -117 -352 -129zM1301 1870
q56 0 77 -63v-21q0 -39 -245.5 -187.5t-397.5 -235t-239.5 -121t-104 34t68 111t296.5 149t503 319.5z" />
    <glyph glyph-name="afii62967" unicode="&#x6af;" horiz-adv-x="2087" arabic-form="final" 
d="M845 1033h14q70 -13 70 -69v-11q0 -65 -119 -91q-475 -194 -475 -440q0 -200 419 -284q73 -14 154 -14q293 0 675 214q106 63 252 213q115 134 115 311l-7 102q22 62 63 62h21q62 0 70 -80l3 -56v-52q0 -397 -520 -675q-340 -154 -633 -154h-35q-389 0 -626 192
q-105 111 -105 235q0 327 552 562zM2089 162q49 -5 68 -39.5t1 -70t-43.5 -44t-59 -7t-74 22.5t-80.5 99t-15 237t125.5 360.5t57 -44.5t-49 -345.5t19 -135.5t50.5 -33zM3088 2020q56 0 77 -63v-21q0 -39 -101 -133q-586 -394 -1005 -448q-15 -7 -160 -28q-52 0 -67 70v17
q0 37 56 70q37 106 231 301q209 210 287 210h21q57 0 101 -91l3 -28v-11q0 -65 -195 -227q-93 -66 -147 -66h-7q-29 0 -77 35h-4q-97 -94 -105 -112h4q115 0 441 127.5t605 383.5z" />
    <glyph glyph-name="afii62965" unicode="&#x6af;" horiz-adv-x="763" arabic-form="initial" 
d="M1527 1929q56 0 77 -63v-21q0 -39 -101 -133q-586 -394 -1005 -448q-15 -7 -160 -28q-52 0 -67 70v17q0 37 56 70q37 106 231 301q209 210 287 210h21q57 0 101 -91l3 -28v-11q0 -65 -195 -227q-93 -66 -147 -66h-7q-29 0 -77 35h-4q-97 -94 -105 -112h4q115 0 441 127.5
t605 383.5zM3 0q-85 8 -85 70v23q0 69 85 69q122 0 217.5 130.5t104 246.5t15 251.5t41 169t71.5 4t33 -161.5t-19 -315.5t-140.5 -329t-322.5 -157.5z" />
    <glyph glyph-name="afii62966" unicode="&#x6af;" horiz-adv-x="405" arabic-form="medial" 
d="M1514 1946q56 0 77 -63v-21q0 -39 -101 -133q-586 -394 -1005 -448q-15 -7 -160 -28q-52 0 -67 70v17q0 37 56 70q37 106 231 301q209 210 287 210h21q57 0 101 -91l3 -28v-11q0 -65 -195 -227q-93 -66 -147 -66h-7q-29 0 -77 35h-4q-97 -94 -105 -112h4q115 0 441 127.5
t605 383.5zM372 361q-4 -29 6 -102.5t49.5 -88.5t53.5 -41t9 -62t-35 -56t-78.5 3t-95 95.5t-29.5 184t70.5 104.5t49.5 -37zM-1 0q-85 8 -85 70v23q0 69 85 69q152 0 206.5 130.5t63 246.5t15 251.5t41 169t71.5 4t33 -161.5t-19 -315.5t-99.5 -329t-311.5 -157.5z" />
    <glyph glyph-name="afii52364" unicode="&#x6cc;" horiz-adv-x="1818" arabic-form="final" 
d="M1133 660h31q73 0 85 -54l2 -12q0 -83 -168 -237l-21 -5h-10q-68 0 -81 83q5 20 38 62q-247 -42 -412 -152q-97 -53 -283 -223q-152 -166 -152 -294q0 -106 150 -201q134 -69 301 -69h48q231 0 529 92q135 50 232 112q169 116 169 159q0 28 -152 104q-48 32 -48 73v3
q0 72 83 80q23 1 53.5 -3.5t71.5 -10.5t94 -10t121 -1q55 0 76 -58v-14q8 -72 -73 -84h-31l-60 3q26 -48 26 -87q0 -96 -204 -225q-131 -96 -346 -174q-302 -99 -601 -99q-463 0 -567 296q-14 52 -14 98v21q0 188 297 455q215 173 363 230q302 142 453 142z" />
    <glyph glyph-name="afii62882" unicode="&#xfc5e;" arabic-form="isolated" 
d="M147 325q15 -35 13.5 -134t-58 -133.5t-112.5 0.5q-54 -63 -114 -56t-68.5 65.5t36.5 159.5l31 -1q-13 -42 -17 -90t29 -48q74 -14 87 174h35q13 -115 57 -115q53 0 53 144zM162 658q-5 -71 -61 -148.5t-93 -108t-91.5 -59.5t-145.5 -38q-30 -1 -26 17q2 15 46 22
q53 89 28 118.5t-96 9.5q55 67 115 42.5t0 -158.5q49 18 96 57q57 47 86 110q-99 5 -99 72q0 56 46.5 100.5t95.5 47.5q101 3 99 -84z" />
    <glyph glyph-name="afii62883" unicode="&#xfc5f;" arabic-form="isolated" 
d="M158 677q15 -35 13.5 -134t-58 -133.5t-112.5 0.5q-54 -63 -114 -56t-68.5 65.5t36.5 159.5l31 -1q-13 -42 -17 -90t29 -48q74 -14 87 174h35q13 -115 57 -115q53 0 53 144zM153 84q-62 -46 -180 -78.5t-195 -32.5l-37 33q268 61 422 166q40 -1 -10 -88zM151 254
q-59 -49 -175 -88t-193 -44l-39 31q264 76 412 190q40 1 -5 -89z" />
    <glyph glyph-name="afii62884" unicode="&#xfc60;" arabic-form="isolated" 
d="M147 325q15 -35 13.5 -134t-58 -133.5t-112.5 0.5q-54 -63 -114 -56t-68.5 65.5t36.5 159.5l31 -1q-13 -42 -17 -90t29 -48q74 -14 87 174h35q13 -115 57 -115q53 0 53 144zM165 462q-59 -49 -175 -88t-193 -44l-39 31q264 76 412 190q40 1 -5 -89z" />
    <glyph glyph-name="afii62885" unicode="&#xfc61;" arabic-form="isolated" 
d="M147 325q15 -35 13.5 -134t-58 -133.5t-112.5 0.5q-54 -63 -114 -56t-68.5 65.5t36.5 159.5l31 -1q-13 -42 -17 -90t29 -48q74 -14 87 174h35q13 -115 57 -115q53 0 53 144zM174 663q-5 -71 -62 -148.5t-93 -108.5t-90.5 -59.5t-145.5 -37.5q-30 -1 -26.5 17.5t35.5 20.5
q97 23 154 70t86 110q-99 5 -99 72q0 56 46.5 100.5t95.5 47.5q101 3 99 -84z" />
    <glyph glyph-name="afii62886" unicode="&#xfc62;" arabic-form="isolated" 
d="M157 558q15 -35 13.5 -134t-58 -133.5t-112.5 0.5q-54 -63 -114 -56t-68.5 65.5t36.5 159.5l31 -1q-13 -42 -17 -90t29 -48q74 -14 87 174h35q13 -115 57 -115q53 0 53 144zM180 133q-59 -49 -175 -88t-193 -44l-39 31q264 76 412 190q40 1 -5 -89z" />
    <glyph glyph-name="afii52399" unicode="&#x621;" horiz-adv-x="474" arabic-form="isolated" 
d="M317 433q41 -15 64.5 -54.5t23.5 -43.5v-5q-3 -20 -47 -17l-6 2q-8 -4 -9 -13l-1 -6q-4 -23 36 -107q14 -36 9 -73q-10 -58 -110 -124t-125 -62h-9l-13 2q-27 4 -33 39.5t48 64.5q125 81 130 111q5 45 -26 106t-26 110q10 46 36.5 60.5t57.5 9.5z" />
    <glyph glyph-name="afii62753" unicode="&#x622;" horiz-adv-x="387" arabic-form="final" 
d="M959 1323q-34 -41 -247 -64.5t-387 -92t-166.5 -171.5t12.5 -147.5t-58 -76.5l-27 1q-59 14 -65 102q-79 361 365.5 468t516 74t56.5 -93zM499 958h27q51 0 69 -62v-15q0 -41 -115 -159q-224 -265 -224 -401v-23q22 -142 122 -142q71 0 78 -63v-23q0 -62 -85 -70
q-193 0 -262 213l-8 85v11q0 249 367 637z" />
    <glyph glyph-name="afii62754" unicode="&#x623;" horiz-adv-x="387" arabic-form="final" 
d="M537 1520q24 0 52 -27q37 -35 37 -39l1 -4q0 -18 -28 -22h-5q-7 -4 -7 -13v-5q0 -23 47 -94q19 -32 19 -67q0 -47 -43 -79q-125 -125 -150 -125l-8 -1h-12q-25 0 -29 32q0 38 46 73l80 67q23 32 23 60q0 43 -62 111q-24 31 -24 59q0 49 34 67q16 7 29 7zM499 958h27
q51 0 69 -62v-15q0 -41 -115 -159q-224 -265 -224 -401v-23q22 -142 122 -142q71 0 78 -63v-23q0 -62 -85 -70q-193 0 -262 213l-8 85v11q0 249 367 637z" />
    <glyph glyph-name="afii62755" unicode="&#x624;" horiz-adv-x="589" arabic-form="final" 
d="M496 633q87 -8 114 -116q4 -38 1 -69q-9 -105 -58 -242q17 0 37 -2q49 -5 63.5 -36.5t4 -64.5t-43.5 -46.5t-149 -9.5h-11q-32 -52 -70 -108q-67 -96 -240 -254q-177 -161 -227 -175l-15 1q-37 3 -59 52q-7 13 -5 33l1 4q5 57 76 100q76 65 165 150q126 120 187 219
q-130 54 -116 173q-1 128 184 326q85 72 161 65zM362 219q26 18 80 219q-93 -89 -115.5 -149.5t35.5 -69.5zM432 1226q24 0 52 -27q37 -35 37 -39l1 -4q0 -18 -28 -22h-5q-7 -4 -7 -13v-5q0 -23 47 -94q19 -32 19 -67q0 -47 -43 -79q-125 -125 -150 -125l-8 -1h-12
q-25 0 -29 32q0 38 46 73l80 67q23 32 23 60q0 43 -62 111q-24 31 -24 59q0 49 34 67q16 7 29 7z" />
    <glyph glyph-name="afii62756" unicode="&#x625;" horiz-adv-x="387" arabic-form="final" 
d="M499 958h27q51 0 69 -62v-15q0 -41 -115 -159q-224 -265 -224 -401v-23q22 -142 122 -142q71 0 78 -63v-23q0 -62 -85 -70q-193 0 -262 213l-8 85v11q0 249 367 637zM283 -193q24 0 52 -27q37 -35 37 -39l1 -4q0 -18 -28 -22h-5q-7 -4 -7 -13v-5q0 -23 47 -94
q19 -32 19 -67q0 -47 -43 -79q-125 -125 -150 -125l-8 -1h-12q-25 0 -29 32q0 38 46 73l80 67q23 32 23 60q0 43 -62 111q-24 31 -24 59q0 49 34 67q16 7 29 7z" />
    <glyph glyph-name="afii62759" unicode="&#x626;" horiz-adv-x="1818" arabic-form="final" 
d="M1133 660h31q73 0 85 -54l2 -12q0 -83 -168 -237l-21 -5h-10q-68 0 -81 83q5 20 38 62q-247 -42 -412 -152q-97 -53 -283 -223q-152 -166 -152 -294q0 -106 150 -201q134 -69 301 -69h48q231 0 529 92q135 50 232 112q169 116 169 159q0 28 -152 104q-48 32 -48 73v3
q0 72 83 80q23 1 53.5 -3.5t71.5 -10.5t94 -10t121 -1q55 0 76 -58v-14q8 -72 -73 -84h-31l-60 3q26 -48 26 -87q0 -96 -204 -225q-131 -96 -346 -174q-302 -99 -601 -99q-463 0 -567 296q-14 52 -14 98v21q0 188 297 455q215 173 363 230q302 142 453 142zM1194 1250
q24 0 52 -27q37 -35 37 -39l1 -4q0 -18 -28 -22h-5q-7 -4 -7 -13v-5q0 -23 47 -94q19 -32 19 -67q0 -47 -43 -79q-125 -125 -150 -125l-8 -1h-12q-25 0 -29 32q0 38 46 73l80 67q23 32 23 60q0 43 -62 111q-24 31 -24 59q0 49 34 67q16 7 29 7z" />
    <glyph glyph-name="afii62757" unicode="&#x626;" horiz-adv-x="580" arabic-form="initial" 
d="M-6 1q-84 9 -79 78.5t76 75.5q171 6 249 77t97.5 203.5t73.5 167.5q20 12 51 7q86 -21 48 -161q-39 -184 -102 -270.5t-172 -135.5t-242 -42zM276 1140q24 0 52 -27q37 -35 37 -39l1 -4q0 -18 -28 -22h-5q-7 -4 -7 -13v-5q0 -23 47 -94q19 -32 19 -67q0 -47 -43 -79
q-125 -125 -150 -125l-8 -1h-12q-25 0 -29 32q0 38 46 73l80 67q23 32 23 60q0 43 -62 111q-24 31 -24 59q0 49 34 67q16 7 29 7z" />
    <glyph glyph-name="afii62758" unicode="&#x626;" horiz-adv-x="400" arabic-form="medial" 
d="M241 1196q24 0 52 -27q37 -35 37 -39l1 -4q0 -18 -28 -22h-5q-7 -4 -7 -13v-5q0 -23 47 -94q19 -32 19 -67q0 -47 -43 -79q-125 -125 -150 -125l-8 -1h-12q-25 0 -29 32q0 38 46 73l80 67q23 32 23 60q0 43 -62 111q-24 31 -24 59q0 49 34 67q16 7 29 7zM399 155
q63 1 80 -64v-18q-16 -73 -83 -73q-165 -1 -182 122q-44 -68 -92 -95t-121 -27q-83 11 -77.5 77t78.5 78q120 0 182.5 194t97.5 231t78 24q77 -42 24 -162q-40 -109 -57 -155.5t-7 -88t79 -43.5z" />
    <glyph glyph-name="afii62763" unicode="&#x628;" horiz-adv-x="1806" arabic-form="final" 
d="M1811 156q49 -5 68 -36.5t8.5 -64.5t-43.5 -49t-98 7.5t-110 97.5q-28 44 -32 103q-52 -48 -113 -76q-209 -97 -389 -122t-438 -25q-501 0 -614 210q-23 60 -23 98q0 183 268 349q113 58 235 91q192 45 326 45q51 0 75 -68v-28q0 -58 -78 -75h-53q-311 0 -523 -175
q-93 -92 -93 -149q0 -134 366 -162l124 -2h2q578 24 751 139.5t197 237.5t69 156q17 7 36 7q75 -4 81 -81q-29 -98 -68 -176q-30 -104 -17 -151q18 -73 86 -101zM727 -199q73 0 124 -96v-20q0 -49 -88 -68h-20q-76 0 -92 116q0 59 76 68z" />
    <glyph glyph-name="afii62761" unicode="&#x628;" horiz-adv-x="580" arabic-form="initial" 
d="M215 -189q73 0 124 -96v-20q0 -49 -88 -68h-20q-76 0 -92 116q0 59 76 68zM-6 18q-84 9 -79 78.5t76 75.5q171 6 249 77t97.5 203.5t73.5 167.5q20 12 51 7q86 -21 48 -161q-39 -184 -102 -270.5t-172 -135.5t-242 -42z" />
    <glyph glyph-name="afii62762" unicode="&#x628;" horiz-adv-x="400" arabic-form="medial" 
d="M192 -204q73 0 124 -96v-20q0 -49 -88 -68h-20q-76 0 -92 116q0 59 76 68zM399 155q63 1 80 -64v-18q-16 -73 -83 -73q-165 -1 -182 122q-44 -68 -92 -95t-121 -27q-83 11 -77.5 77t78.5 78q120 0 182.5 194t97.5 231t78 24q77 -42 24 -162q-40 -109 -57 -155.5t-7 -88
t79 -43.5z" />
    <glyph glyph-name="afii62764" unicode="&#x629;" horiz-adv-x="906" arabic-form="final" 
d="M634 488q178 0 233 -130q15 -39 23 -169q5 -33 29 -33q66 -15 66 -79.5t-73 -76.5l-56 1q-82 0 -107 53q-23 28 -37 226q-15 58 -86 60q-157 0 -379 -243q-77 -98 -90 -145h3l35 5h7q81 -12 81 -78l2 -3v-2q0 -95 -150 -95q-119 0 -148 102l-3 26v22q0 140 268 384
q213 175 382 175zM663 842q28 1 46 -10t22.5 -27.5t-5.5 -34.5t-37 -30q-58 -23 -447 -64h-8q-96 0 -96 52q0 65 108 88q151 24 417 26z" />
    <glyph glyph-name="afii62767" unicode="&#x62a;" horiz-adv-x="1806" arabic-form="final" 
d="M1811 156q49 -5 68 -36.5t8.5 -64.5t-43.5 -49t-98 7.5t-110 97.5q-28 44 -32 103q-52 -48 -113 -76q-209 -97 -389 -122t-438 -25q-501 0 -614 210q-23 60 -23 98q0 183 268 349q113 58 235 91q192 45 326 45q51 0 75 -68v-28q0 -58 -78 -75h-53q-311 0 -523 -175
q-93 -92 -93 -149q0 -134 366 -162l124 -2h2q578 24 751 139.5t197 237.5t69 156q17 7 36 7q75 -4 81 -81q-29 -98 -68 -176q-30 -104 -17 -151q18 -73 86 -101zM1507 961q28 1 46 -10t22.5 -27.5t-5.5 -34.5t-37 -30q-58 -23 -447 -64h-8q-96 0 -96 52q0 65 108 88
q151 24 417 26z" />
    <glyph glyph-name="afii62765" unicode="&#x62a;" horiz-adv-x="580" arabic-form="initial" 
d="M-6 1q-84 9 -79 78.5t76 75.5q171 6 249 77t97.5 203.5t73.5 167.5q20 12 51 7q86 -21 48 -161q-39 -184 -102 -270.5t-172 -135.5t-242 -42zM401 972q28 1 46 -10t22.5 -27.5t-5.5 -34.5t-37 -30q-58 -23 -447 -64h-8q-96 0 -96 52q0 65 108 88q151 24 417 26z" />
    <glyph glyph-name="afii62766" unicode="&#x62a;" horiz-adv-x="400" arabic-form="medial" 
d="M399 155q63 1 80 -64v-18q-16 -73 -83 -73q-165 -1 -182 122q-44 -68 -92 -95t-121 -27q-83 11 -77.5 77t78.5 78q120 0 182.5 194t97.5 231t78 24q77 -42 24 -162q-40 -109 -57 -155.5t-7 -88t79 -43.5zM389 949q28 1 46 -10t22.5 -27.5t-5.5 -34.5t-37 -30
q-58 -23 -447 -64h-8q-96 0 -96 52q0 65 108 88q151 24 417 26z" />
    <glyph glyph-name="afii62770" unicode="&#x62b;" horiz-adv-x="1806" arabic-form="final" 
d="M1811 156q49 -5 68 -36.5t8.5 -64.5t-43.5 -49t-98 7.5t-110 97.5q-28 44 -32 103q-52 -48 -113 -76q-209 -97 -389 -122t-438 -25q-501 0 -614 210q-23 60 -23 98q0 183 268 349q113 58 235 91q192 45 326 45q51 0 75 -68v-28q0 -58 -78 -75h-53q-311 0 -523 -175
q-93 -92 -93 -149q0 -134 366 -162l124 -2h2q578 24 751 139.5t197 237.5t69 156q17 7 36 7q75 -4 81 -81q-29 -98 -68 -176q-30 -104 -17 -151q18 -73 86 -101zM1298 1204q73 0 124 -96v-20q0 -49 -88 -68h-20q-76 0 -92 116q0 58 76 68zM1548 960q35 0 52 -28l-26 -68
q-9 -35 -447 -70h-8q-96 0 -96 52q0 65 108 88q151 24 417 26z" />
    <glyph glyph-name="afii62768" unicode="&#x62b;" horiz-adv-x="580" arabic-form="initial" 
d="M-6 1q-84 9 -79 78.5t76 75.5q171 6 249 77t97.5 203.5t73.5 167.5q20 12 51 7q86 -21 48 -161q-39 -184 -102 -270.5t-172 -135.5t-242 -42zM289 1211q73 0 124 -96v-20q0 -49 -88 -68h-20q-76 0 -92 116q0 58 76 68zM539 967q35 0 52 -28l-26 -68q-9 -35 -447 -70h-8
q-96 0 -96 52q0 65 108 88q151 24 417 26z" />
    <glyph glyph-name="afii62769" unicode="&#x62b;" horiz-adv-x="400" arabic-form="medial" 
d="M399 155q63 1 80 -64v-18q-16 -73 -83 -73q-165 -1 -182 122q-44 -68 -92 -95t-121 -27q-83 11 -77.5 77t78.5 78q120 0 182.5 194t97.5 231t78 24q77 -42 24 -162q-40 -109 -57 -155.5t-7 -88t79 -43.5zM214 1154q73 0 124 -96v-20q0 -49 -88 -68h-20q-76 0 -92 116
q0 58 76 68zM464 910q35 0 52 -28l-26 -68q-9 -35 -447 -70h-8q-96 0 -96 52q0 65 108 88q151 24 417 26z" />
    <glyph glyph-name="afii62773" unicode="&#x62c;" horiz-adv-x="1288" arabic-form="final" 
d="M666 -317q73 0 124 -96v-20q0 -49 -88 -68h-20q-76 0 -92 116q0 59 76 68zM1288 155q49 -5 67.5 -36.5t8 -65t-43.5 -47.5t-127.5 7t-175 90.5t-83.5 194.5q0 32 2 56q-9 3 -19 5h-12q-87 0 -443 -245q-117 -77 -298 -253q-238 -255 -238 -444v-29q0 -266 216 -385
q146 -96 402 -93h5q237 9 536 83q22 12 22 20l-9 16v20q8 33 29 33q97 -47 134 -115l2 -12q-2 -67 -241 -108q-286 -46 -447 -46h-19q-280 0 -505 109q-33 12 -144 120q-77 96 -94 187q-17 68 -17 152v36q0 378 534 767q191 148 334 231q24 9 24 28q-24 57 -156 116l-34 5
h-7q-85 -15 -219 -197q-95 -186 -120 -205h-10q-10 0 -12 51v31q0 148 41 192q33 74 197 226q64 53 116 53q102 0 337 -180q32 -12 60 -12q31 0 110 36q34 7 65 7q147 0 258 -103q14 -18 14 -29v-5q0 -68 -84 -99l-31 -4q-48 0 -125 12q2 -10 4 -22q21 -129 196 -149z" />
    <glyph glyph-name="afii62771" unicode="&#x62c;" horiz-adv-x="1008" arabic-form="initial" 
d="M383 727h2q89 0 204 -159q74 -95 90 -111q87 60 122 60h18q40 0 66 -53q6 -13 6 -29q0 -60 -74 -131q-49 -38 -95 -38l-36 9q-178 -107 -303 -165q-254 -105 -299 -105q-24 -5 -65 -5h-7q-51 0 -73 51l-4 22v11q0 50 61 71q91 0 199 50q197 75 371 183q-117 176 -186 176
q-46 -1 -178 -190q-34 -43 -55 -43q-25 0 -56 56l-4 25q0 76 119 192q113 123 177 123zM350 -166q73 0 124 -96v-20q0 -49 -88 -68h-20q-76 0 -92 116q0 59 76 68z" />
    <glyph glyph-name="afii62772" unicode="&#x62c;" horiz-adv-x="848" arabic-form="medial" 
d="M373 727h2q89 0 204 -159q74 -95 90 -111q87 60 122 60h18q40 0 66 -53q6 -13 6 -29q0 -60 -74 -131q-49 -38 -95 -38l-36 9q-7 -5 -14 -11q16 -89 189 -109q49 -5 68 -36.5t8.5 -64.5t-43.5 -47t-114 -4t-161 110q-33 42 -49 78q-97 -66 -176 -105q-124 -61 -229 -73.5
t-146 -12.5h-7q-51 0 -73 51l-4 22v11q0 50 61 71q172 3 310.5 59.5t259.5 173.5q-117 176 -186 176q-46 -1 -178 -190q-34 -43 -55 -43q-25 0 -56 56l-4 25q0 76 119 192q113 123 177 123zM373 -209q73 0 124 -96v-20q0 -49 -88 -68h-20q-76 0 -92 116q0 59 76 68z" />
    <glyph glyph-name="afii62776" unicode="&#x62d;" horiz-adv-x="1288" arabic-form="final" 
d="M1288 155q49 -5 67.5 -36.5t8 -65t-43.5 -47.5t-127.5 7t-175 90.5t-83.5 194.5q0 32 2 56q-9 3 -19 5h-12q-87 0 -443 -245q-117 -77 -298 -253q-238 -255 -238 -444v-29q0 -266 216 -385q146 -96 402 -93h5q237 9 536 83q22 12 22 20l-9 16v20q8 33 29 33
q97 -47 134 -115l2 -12q-2 -67 -241 -108q-286 -46 -447 -46h-19q-280 0 -505 109q-33 12 -144 120q-77 96 -94 187q-17 68 -17 152v36q0 378 534 767q191 148 334 231q24 9 24 28q-24 57 -156 116l-34 5h-7q-85 -15 -219 -197q-95 -186 -120 -205h-10q-10 0 -12 51v31
q0 148 41 192q33 74 197 226q64 53 116 53q102 0 337 -180q32 -12 60 -12q31 0 110 36q34 7 65 7q147 0 258 -103q14 -18 14 -29v-5q0 -68 -84 -99l-31 -4q-48 0 -125 12q2 -10 4 -22q21 -129 196 -149z" />
    <glyph glyph-name="afii62774" unicode="&#x62d;" horiz-adv-x="1000" arabic-form="initial" 
d="M375 727h2q89 0 204 -159q74 -95 90 -111q87 60 122 60h18q40 0 66 -53q6 -13 6 -29q0 -60 -74 -131q-49 -38 -95 -38l-36 9q-178 -107 -303 -165q-254 -105 -299 -105q-24 -5 -65 -5h-7q-51 0 -73 51l-4 22v11q0 50 61 71q91 0 199 50q197 75 371 183q-117 176 -186 176
q-46 -1 -178 -190q-34 -43 -55 -43q-25 0 -56 56l-4 25q0 76 119 192q113 123 177 123z" />
    <glyph glyph-name="afii62775" unicode="&#x62d;" horiz-adv-x="848" arabic-form="medial" 
d="M373 727h2q89 0 204 -159q74 -95 90 -111q87 60 122 60h18q40 0 66 -53q6 -13 6 -29q0 -60 -74 -131q-49 -38 -95 -38l-36 9q-7 -5 -14 -11q16 -89 189 -109q49 -5 68 -36.5t8.5 -64.5t-43.5 -47t-114 -4t-161 110q-33 42 -49 78q-97 -66 -176 -105q-124 -61 -229 -73.5
t-146 -12.5h-7q-51 0 -73 51l-4 22v11q0 50 61 71q172 3 310.5 59.5t259.5 173.5q-117 176 -186 176q-46 -1 -178 -190q-34 -43 -55 -43q-25 0 -56 56l-4 25q0 76 119 192q113 123 177 123z" />
    <glyph glyph-name="afii62779" unicode="&#x62e;" horiz-adv-x="1288" arabic-form="final" 
d="M1288 155q49 -5 67.5 -36.5t8 -65t-43.5 -47.5t-127.5 7t-175 90.5t-83.5 194.5q0 32 2 56q-9 3 -19 5h-12q-87 0 -443 -245q-117 -77 -298 -253q-238 -255 -238 -444v-29q0 -266 216 -385q146 -96 402 -93h5q237 9 536 83q22 12 22 20l-9 16v20q8 33 29 33
q97 -47 134 -115l2 -12q-2 -67 -241 -108q-286 -46 -447 -46h-19q-280 0 -505 109q-33 12 -144 120q-77 96 -94 187q-17 68 -17 152v36q0 378 534 767q191 148 334 231q24 9 24 28q-24 57 -156 116l-34 5h-7q-85 -15 -219 -197q-95 -186 -120 -205h-10q-10 0 -12 51v31
q0 148 41 192q33 74 197 226q64 53 116 53q102 0 337 -180q32 -12 60 -12q31 0 110 36q34 7 65 7q147 0 258 -103q14 -18 14 -29v-5q0 -68 -84 -99l-31 -4q-48 0 -125 12q2 -10 4 -22q21 -129 196 -149zM434 1122q73 0 124 -96v-20q0 -49 -88 -68h-20q-76 0 -92 116
q0 59 76 68z" />
    <glyph glyph-name="afii62777" unicode="&#x62e;" horiz-adv-x="1000" arabic-form="initial" 
d="M375 727h2q89 0 204 -159q74 -95 90 -111q87 60 122 60h18q40 0 66 -53q6 -13 6 -29q0 -60 -74 -131q-49 -38 -95 -38l-36 9q-178 -107 -303 -165q-254 -105 -299 -105q-24 -5 -65 -5h-7q-51 0 -73 51l-4 22v11q0 50 61 71q91 0 199 50q197 75 371 183q-117 176 -186 176
q-46 -1 -178 -190q-34 -43 -55 -43q-25 0 -56 56l-4 25q0 76 119 192q113 123 177 123zM324 1088q73 0 124 -96v-20q0 -49 -88 -68h-20q-76 0 -92 116q0 59 76 68z" />
    <glyph glyph-name="afii62778" unicode="&#x62e;" horiz-adv-x="848" arabic-form="medial" 
d="M373 727h2q89 0 204 -159q74 -95 90 -111q87 60 122 60h18q40 0 66 -53q6 -13 6 -29q0 -60 -74 -131q-49 -38 -95 -38l-36 9q-7 -5 -14 -11q16 -89 189 -109q49 -5 68 -36.5t8.5 -64.5t-43.5 -47t-114 -4t-161 110q-33 42 -49 78q-97 -66 -176 -105q-124 -61 -229 -73.5
t-146 -12.5h-7q-51 0 -73 51l-4 22v11q0 50 61 71q172 3 310.5 59.5t259.5 173.5q-117 176 -186 176q-46 -1 -178 -190q-34 -43 -55 -43q-25 0 -56 56l-4 25q0 76 119 192q113 123 177 123zM321 1071q73 0 124 -96v-20q0 -49 -88 -68h-20q-76 0 -92 116q0 59 76 68z" />
    <glyph glyph-name="afii62780" unicode="&#x62f;" horiz-adv-x="719" arabic-form="final" 
d="M710 156q56 0 75 -58l2 -14v-11q0 -48 -58 -70l-19 -2q-109 0 -151 59.5t-36 178.5h-2q-123 -185 -241 -266q-101 -76 -184 -118q-66 -34 -84 -34h-17q-60 0 -87 57l-2 18v8q0 56 85 85q136 65 212.5 126.5t184 194t170 297.5t107.5 176t72 -30.5t-37.5 -209.5
t-53 -274.5t63.5 -112.5z" />
    <glyph glyph-name="afii62781" unicode="&#x630;" horiz-adv-x="719" arabic-form="final" 
d="M710 156q56 0 75 -58l2 -14v-11q0 -48 -58 -70l-19 -2q-109 0 -151 59.5t-36 178.5h-2q-123 -185 -241 -266q-101 -76 -184 -118q-66 -34 -84 -34h-17q-60 0 -87 57l-2 18v8q0 56 85 85q136 65 212.5 126.5t184 194t170 297.5t107.5 176t72 -30.5t-37.5 -209.5
t-53 -274.5t63.5 -112.5zM640 1136q73 0 124 -96v-20q0 -49 -88 -68h-20q-76 0 -92 116q0 59 76 68z" />
    <glyph glyph-name="afii62782" unicode="&#x631;" horiz-adv-x="511" arabic-form="final" 
d="M502 585q45 0 70 -45q7 -15 7 -32v-3q0 -26 -27 -95t-51.5 -123t-8.5 -92t57.5 -46.5t45.5 -70.5q0 -49 -50 -72q-14 -4 -25 -4h-10q-121 8 -138 104q-163 -244 -425 -524q-106 -116 -188 -203q-39 -43 -52 -43q-12 -7 -31 -7q-47 0 -71 51q-6 14 -6 25v6q0 36 45 74
q0 3 172 171q181 182 227 243q133 156 226 294q107 166 142.5 285.5t90.5 106.5z" />
    <glyph glyph-name="afii62783" unicode="&#x632;" horiz-adv-x="511" arabic-form="final" 
d="M502 585q45 0 70 -45q7 -15 7 -32v-3q0 -26 -27 -95t-51.5 -123t-8.5 -92t57.5 -46.5t45.5 -70.5q0 -49 -50 -72q-14 -4 -25 -4h-10q-121 8 -138 104q-163 -244 -425 -524q-106 -116 -188 -203q-39 -43 -52 -43q-12 -7 -31 -7q-47 0 -71 51q-6 14 -6 25v6q0 36 45 74
q0 3 172 171q181 182 227 243q133 156 226 294q107 166 142.5 285.5t90.5 106.5zM492 975q73 0 124 -96v-20q0 -49 -88 -68h-20q-76 0 -92 116q0 59 76 68z" />
    <glyph glyph-name="afii62786" unicode="&#x633;" horiz-adv-x="3182" arabic-form="final" 
d="M1326 1111q101 -15 101 -93v-12q0 -57 -68 -106l-33 -8q-46 0 -70 43q-199 -18 -366 -61q-171 -49 -280 -108q-95 -52 -186 -141q-180 -189 -180 -394v-5q0 -236 177 -409q268 -217 673 -217q458 0 860 279q136 99 176 246l7 35q-24 47 -25 117v20q0 79 45 101
q29 12 43 12q99 0 100 -188q36 -62 208 -59.5t678 -6.5q95 -3 95 -64q0 -84 -93 -91q-856 -42 -938 39q-155 -333 -614 -518q-230 -78 -441 -78h-68q-398 0 -749 244q-114 89 -181 184q-124 178 -124 354q0 250 189 477q120 127 169 151q143 102 356 169q144 43 350 73
q147 15 189 15z" />
    <glyph glyph-name="afii62784" unicode="&#x633;" horiz-adv-x="1310" arabic-form="initial" 
d="M1152 367v-3q5 -66 -171.5 -174t-433.5 -156.5t-407.5 -46.5t-194.5 38q-23 21 -23 53q14 76 77 76q206 -30 484.5 22t456.5 198t212 -7z" />
    <glyph glyph-name="afii62785" unicode="&#x633;" horiz-adv-x="1142" arabic-form="medial" 
d="M1151 156q35 -6 46.5 -31t7.5 -52.5t-19.5 -49.5t-34.5 -23q-575 -47 -1164 0q-17 1 -26.5 24.5t-10.5 51t7.5 52t29.5 28.5q591 -38 1164 0z" />
    <glyph glyph-name="afii62789" unicode="&#x634;" horiz-adv-x="3182" arabic-form="final" 
d="M1326 1111q101 -15 101 -93v-12q0 -57 -68 -106l-33 -8q-46 0 -70 43q-199 -18 -366 -61q-171 -49 -280 -108q-95 -52 -186 -141q-180 -189 -180 -394v-5q0 -236 177 -409q268 -217 673 -217q458 0 860 279q136 99 176 246l7 35q-24 47 -25 117v20q0 79 45 101
q29 12 43 12q99 0 100 -188q36 -62 208 -59.5t678 -6.5q95 -3 95 -64q0 -84 -93 -91q-856 -42 -938 39q-155 -333 -614 -518q-230 -78 -441 -78h-68q-398 0 -749 244q-114 89 -181 184q-124 178 -124 354q0 250 189 477q120 127 169 151q143 102 356 169q144 43 350 73
q147 15 189 15zM2729 1080q73 0 124 -96v-20q0 -49 -88 -68h-20q-76 0 -92 116q0 58 76 68zM2979 836q35 0 52 -28l-26 -68q-9 -35 -447 -70h-8q-96 0 -96 52q0 65 108 88q151 24 417 26z" />
    <glyph glyph-name="afii62787" unicode="&#x634;" horiz-adv-x="1218" arabic-form="initial" 
d="M1152 367v-3q5 -66 -171.5 -174t-433.5 -156.5t-407.5 -46.5t-194.5 38q-23 21 -23 53q14 76 77 76q206 -30 484.5 22t456.5 198t212 -7zM581 1020q73 0 124 -96v-20q0 -49 -88 -68h-20q-76 0 -92 116q0 58 76 68zM831 776q35 0 52 -28l-26 -68q-9 -35 -447 -70h-8
q-96 0 -96 52q0 65 108 88q151 24 417 26z" />
    <glyph glyph-name="afii62788" unicode="&#x634;" horiz-adv-x="1142" arabic-form="medial" 
d="M1151 156q35 -6 46.5 -31t7.5 -52.5t-19.5 -49.5t-34.5 -23q-575 -47 -1164 0q-17 1 -26.5 24.5t-10.5 51t7.5 52t29.5 28.5q591 -38 1164 0zM576 839q73 0 124 -96v-20q0 -49 -88 -68h-20q-76 0 -92 116q0 58 76 68zM826 595q35 0 52 -28l-26 -68q-9 -35 -447 -70h-8
q-96 0 -96 52q0 65 108 88q151 24 417 26z" />
    <glyph glyph-name="afii62792" unicode="&#x635;" horiz-adv-x="3060" arabic-form="final" 
d="M3059 155q49 -5 68 -39t1 -68.5t-43.5 -43t-92 0t-116.5 42.5q-44 32 -65 70l-34 -20q-178 -93 -377 -93h-3q-48 0 -92 18q-87 -147 -93 -147h-3q-48 16 -48 86v6q0 36 24 85l-28 14q-105 -289 -431 -472q-323 -177 -691 -177q-650 0 -875 352q-62 106 -62 232
q0 397 708 664q258 82 520 82h58q73 0 86 -65v-17q-16 -69 -62 -69h-92q-503 0 -924 -328q-143 -130 -143 -277q0 -233 318 -390q162 -58 352 -58h75q366 0 770 260q189 130 270 349l14 44q-21 57 -21 127q8 167 52 167q0 11 48 17q92 -16 92 -119l3 -35l-13 -136
q17 -35 48 -35q31 69 232 267q239 202 421 202q138 0 175 -137l3 -34v-24q0 -122 -159 -256l14 -18q24 -28 116 -27zM2383 152v-4h17q258 0 445 181q96 91 96 137q0 35 -27 35h-11q-146 0 -479 -298z" />
    <glyph glyph-name="afii62790" unicode="&#x635;" horiz-adv-x="1300" arabic-form="initial" 
d="M951 670q141 0 183 -128q10 -33 10 -62q0 -182 -288 -367q-203 -122 -444 -122q-38 0 -95 18l-91 -151q-5 -5 -11 -5q-23 0 -44 64l-4 31q2 44 27 93q-6 0 -31 15q-44 -56 -114 -56l-35 -1h-20q-54 0 -72 51q-4 12 -4 20v10q0 48 51 71q54 5 54 12q17 10 23 34t16.5 100
t37 139t86.5 66.5t80 -52t-3.5 -120.5t-48.5 -114q10 -26 35 -38l17 -4q38 63 146 182q94 96 151 141q223 173 388 173zM397 142v-1l33 -1q260 0 458 191q74 64 94 116q6 17 6 29v7q0 31 -28 31h-12q-126 0 -407 -227q-99 -83 -144 -145z" />
    <glyph glyph-name="afii62791" unicode="&#x635;" horiz-adv-x="1104" arabic-form="medial" 
d="M955 670q141 0 183 -128q10 -33 10 -62q0 -142 -176 -289l6 -8q24 -28 116 -27q49 -5 68 -39.5t1 -69t-43.5 -43t-92 0t-116.5 42.5q-39 28 -60 61q-199 -117 -435 -117q-38 0 -95 18l-91 -151q-5 -5 -11 -5q-23 0 -44 64l-4 31q2 44 27 93q-6 0 -31 15q-44 -56 -114 -55
l-35 -1h-20q-54 -1 -72 50q-4 12 -4 20v10q0 48 51 71q54 5 54 12q17 10 23 34t16.5 100t37 139t86.5 66.5t80 -52t-3.5 -120.5t-48.5 -114q10 -26 35 -38l17 -4q38 63 146 182q94 96 151 141q223 173 388 173zM401 142v-1l33 -1q260 0 458 191q74 64 94 116q6 17 6 29v7
q0 31 -28 31h-12q-126 0 -407 -227q-99 -83 -144 -145z" />
    <glyph glyph-name="afii62795" unicode="&#x636;" horiz-adv-x="3060" arabic-form="final" 
d="M3059 155q49 -5 68 -39t1 -68.5t-43.5 -43t-92 0t-116.5 42.5q-44 32 -65 70l-34 -20q-178 -93 -377 -93h-3q-48 0 -92 18q-87 -147 -93 -147h-3q-48 16 -48 86v6q0 36 24 85l-28 14q-105 -289 -431 -472q-323 -177 -691 -177q-650 0 -875 352q-62 106 -62 232
q0 397 708 664q258 82 520 82h58q73 0 86 -65v-17q-16 -69 -62 -69h-92q-503 0 -924 -328q-143 -130 -143 -277q0 -233 318 -390q162 -58 352 -58h75q366 0 770 260q189 130 270 349l14 44q-21 57 -21 127q8 167 52 167q0 11 48 17q92 -16 92 -119l3 -35l-13 -136
q17 -35 48 -35q31 69 232 267q239 202 421 202q138 0 175 -137l3 -34v-24q0 -122 -159 -256l14 -18q24 -28 116 -27zM2383 152v-4h17q258 0 445 181q96 91 96 137q0 35 -27 35h-11q-146 0 -479 -298zM2399 962q73 0 124 -96v-20q0 -49 -88 -68h-20q-76 0 -92 116q0 59 76 68
z" />
    <glyph glyph-name="afii62793" unicode="&#x636;" horiz-adv-x="1300" arabic-form="initial" 
d="M951 670q141 0 183 -128q10 -33 10 -62q0 -182 -288 -367q-203 -122 -444 -122q-38 0 -95 18l-91 -151q-5 -5 -11 -5q-23 0 -44 64l-4 31q2 44 27 93q-6 0 -31 15q-44 -56 -114 -56l-35 -1h-20q-54 0 -72 51q-4 12 -4 20v10q0 48 51 71q54 5 54 12q17 10 23 34t16.5 100
t37 139t86.5 66.5t80 -52t-3.5 -120.5t-48.5 -114q10 -26 35 -38l17 -4q38 63 146 182q94 96 151 141q223 173 388 173zM397 142v-1l33 -1q260 0 458 191q74 64 94 116q6 17 6 29v7q0 31 -28 31h-12q-126 0 -407 -227q-99 -83 -144 -145zM479 975q73 0 124 -96v-20
q0 -49 -88 -68h-20q-76 0 -92 116q0 59 76 68z" />
    <glyph glyph-name="afii62794" unicode="&#x636;" horiz-adv-x="1104" arabic-form="medial" 
d="M955 670q141 0 183 -128q10 -33 10 -62q0 -142 -176 -289l6 -8q24 -28 116 -27q49 -5 68 -39.5t1 -69t-43.5 -43t-92 0t-116.5 42.5q-39 28 -60 61q-199 -117 -435 -117q-38 0 -95 18l-91 -151q-5 -5 -11 -5q-23 0 -44 64l-4 31q2 44 27 93q-6 0 -31 15q-44 -56 -114 -55
l-35 -1h-20q-54 -1 -72 50q-4 12 -4 20v10q0 48 51 71q54 5 54 12q17 10 23 34t16.5 100t37 139t86.5 66.5t80 -52t-3.5 -120.5t-48.5 -114q10 -26 35 -38l17 -4q38 63 146 182q94 96 151 141q223 173 388 173zM401 142v-1l33 -1q260 0 458 191q74 64 94 116q6 17 6 29v7
q0 31 -28 31h-12q-126 0 -407 -227q-99 -83 -144 -145zM477 954q73 0 124 -96v-20q0 -49 -88 -68h-20q-76 0 -92 116q0 59 76 68z" />
    <glyph glyph-name="afii62798" unicode="&#x637;" horiz-adv-x="1049" arabic-form="final" 
d="M826 1679q57 0 79 -62v-24q-100 -468 -128 -814l-5 -57h2q94 57 162 57q101 0 140 -112l5 -40q15 -292 -146 -447q26 -25 113 -24q49 -5 68 -38.5t1 -69t-43.5 -44t-92 0t-116.5 44.5q-33 24 -53 50q-218 -114 -539 -103q-163 -2 -163 10q-39 28 -39 66q12 81 77 81l99 3
v22q0 38 164 228q149 157 202 197l-7 31q0 166 73 636q50 275 78 373q30 36 69 36zM432 178h3q156 -28 317 71t179 242.5t-57 114.5t-246 -193q-158 -173 -196 -235z" />
    <glyph glyph-name="afii62796" unicode="&#x637;" horiz-adv-x="1055" arabic-form="initial" 
d="M675 1683q57 0 79 -62v-24q-100 -468 -128 -814l-5 -57h2q94 57 162 57q101 0 140 -112l5 -40q18 -347 -213.5 -495.5t-594.5 -135.5q-163 -2 -163 10q-39 28 -39 66q12 81 77 81l99 3v22q0 38 164 228q149 157 202 197l-7 31q0 166 73 636q50 275 78 373q30 36 69 36z
M281 182h3q156 -28 317 71t179 242.5t-57 114.5t-246 -193q-158 -173 -196 -235z" />
    <glyph glyph-name="afii62797" unicode="&#x637;" horiz-adv-x="902" arabic-form="medial" 
d="M674 1679q57 0 79 -62v-24q-100 -468 -128 -814l-5 -57h2q94 57 162 57q101 0 140 -112l5 -40q15 -292 -146 -447q26 -25 113 -24q49 -5 68 -38.5t1 -69t-43.5 -44t-92 0t-116.5 44.5q-33 24 -53 50q-218 -114 -539 -103q-163 -2 -163 10q-39 28 -39 66q12 81 77 81l99 3
v22q0 38 164 228q149 157 202 197l-7 31q0 166 73 636q50 275 78 373q30 36 69 36zM280 178h3q156 -28 317 71t179 242.5t-57 114.5t-246 -193q-158 -173 -196 -235z" />
    <glyph glyph-name="afii62801" unicode="&#x638;" horiz-adv-x="1049" arabic-form="final" 
d="M826 1679q57 0 79 -62v-24q-100 -468 -128 -814l-5 -57h2q94 57 162 57q101 0 140 -112l5 -40q15 -292 -146 -447q26 -25 113 -24q49 -5 68 -38.5t1 -69t-43.5 -44t-92 0t-116.5 44.5q-33 24 -53 50q-218 -114 -539 -103q-163 -2 -163 10q-39 28 -39 66q12 81 77 81l99 3
v22q0 38 164 228q149 157 202 197l-7 31q0 166 73 636q50 275 78 373q30 36 69 36zM432 178h3q156 -28 317 71t179 242.5t-57 114.5t-246 -193q-158 -173 -196 -235zM1006 1328q73 0 124 -96v-20q0 -49 -88 -68h-20q-76 0 -92 116q0 59 76 68z" />
    <glyph glyph-name="afii62799" unicode="&#x638;" horiz-adv-x="1055" arabic-form="initial" 
d="M891 1328q73 0 124 -96v-20q0 -49 -88 -68h-20q-76 0 -92 116q0 59 76 68zM675 1683q57 0 79 -62v-24q-100 -468 -128 -814l-5 -57h2q94 57 162 57q101 0 140 -112l5 -40q18 -347 -213.5 -495.5t-594.5 -135.5q-163 -2 -163 10q-39 28 -39 66q12 81 77 81l99 3v22
q0 38 164 228q149 157 202 197l-7 31q0 166 73 636q50 275 78 373q30 36 69 36zM281 182h3q156 -28 317 71t179 242.5t-57 114.5t-246 -193q-158 -173 -196 -235z" />
    <glyph glyph-name="afii62800" unicode="&#x638;" horiz-adv-x="902" arabic-form="medial" 
d="M875 1337q73 0 124 -96v-20q0 -49 -88 -68h-20q-76 0 -92 116q0 59 76 68zM674 1679q57 0 79 -62v-24q-100 -468 -128 -814l-5 -57h2q94 57 162 57q101 0 140 -112l5 -40q15 -292 -146 -447q26 -25 113 -24q49 -5 68 -38.5t1 -69t-43.5 -44t-92 0t-116.5 44.5
q-33 24 -53 50q-218 -114 -539 -103q-163 -2 -163 10q-39 28 -39 66q12 81 77 81l99 3v22q0 38 164 228q149 157 202 197l-7 31q0 166 73 636q50 275 78 373q30 36 69 36zM280 178h3q156 -28 317 71t179 242.5t-57 114.5t-246 -193q-158 -173 -196 -235z" />
    <glyph glyph-name="afii62804" unicode="&#x639;" horiz-adv-x="913" arabic-form="final" 
d="M501 524h164q294 0 294 -83v-19q0 -104 -109 -218l-41 -39q79 -11 105 -9q82 -25 82 -69v-11q0 -62 -83 -76q-205 -7 -308 72q-111 4 -363 -193q-137 -125 -178 -185q-104 -150 -104 -253v-27q0 -110 101.5 -221t312.5 -161.5t493.5 -1t345.5 71t138 21.5h8q90 0 90 -81
q0 -65 -149 -119q-15 -8 -34 4t-31 36.5t-252 -36.5t-597 -31.5t-513 335.5q-41 96 -41 191q0 333 440 653q140 92 246 140l64 25v1q48 30 65 53v15q0 49 -86 49l-124 -8q-95 13 -95 75v30q0 72 159 69z" />
    <glyph glyph-name="afii62802" unicode="&#x639;" horiz-adv-x="792" arabic-form="initial" 
d="M471 716q51 0 77 -54l2 -18q0 -58 -123 -112q-160 -102 -192 -203q-25 -107 23 -135l325 105l36 5h23q54 0 67 -59v-31q0 -45 -113 -79q-345 -142 -595 -135q-74 9 -83 78q17 74 83 78l48 2h30l3 3h2q-17 50 -17 82q0 231 371 468z" />
    <glyph glyph-name="afii62803" unicode="&#x639;" horiz-adv-x="730" arabic-form="medial" 
d="M310 524h164q294 0 294 -83v-19q0 -104 -109 -223l-41 -35q79 -10 111 -9q76 -25 76 -68v-11q0 -65 -83 -77q-205 -6 -308 73q-221 -79 -418 -72h-3q-65 0 -80 83q0 76 117 73q177 -1 293 57t133 81v15q0 49 -86 49l-124 -8q-95 13 -95 75v30q0 72 159 69z" />
    <glyph glyph-name="afii62807" unicode="&#x63a;" horiz-adv-x="913" arabic-form="final" 
d="M628 1009q73 0 124 -96v-20q0 -49 -88 -68h-20q-76 0 -92 116q0 59 76 68zM501 524h164q294 0 294 -83v-19q0 -104 -109 -218l-41 -39q79 -11 105 -9q82 -25 82 -69v-11q0 -62 -83 -76q-205 -7 -308 72q-111 4 -363 -193q-137 -125 -178 -185q-104 -150 -104 -253v-27
q0 -110 101.5 -221t312.5 -161.5t493.5 -1t345.5 71t138 21.5h8q90 0 90 -81q0 -65 -149 -119q-15 -8 -34 4t-31 36.5t-252 -36.5t-597 -31.5t-513 335.5q-41 96 -41 191q0 333 440 653q140 92 246 140l64 25v1q48 30 65 53v15q0 49 -86 49l-124 -8q-95 13 -95 75v30
q0 72 159 69z" />
    <glyph glyph-name="afii62805" unicode="&#x63a;" horiz-adv-x="792" arabic-form="initial" 
d="M471 716q51 0 77 -54l2 -18q0 -58 -123 -112q-160 -102 -192 -203q-25 -107 23 -135l325 105l36 5h23q54 0 67 -59v-31q0 -45 -113 -79q-345 -142 -595 -135q-74 9 -83 78q17 74 83 78l48 2h30l3 3h2q-17 50 -17 82q0 231 371 468zM310 1096q73 0 124 -96v-20
q0 -49 -88 -68h-20q-76 0 -92 116q0 59 76 68z" />
    <glyph glyph-name="afii62806" unicode="&#x63a;" horiz-adv-x="730" arabic-form="medial" 
d="M310 524h164q294 0 294 -83v-19q0 -104 -109 -223l-41 -35q79 -10 111 -9q76 -25 76 -68v-11q0 -65 -83 -77q-205 -6 -308 73q-221 -79 -418 -72h-3q-65 0 -80 83q0 76 117 73q177 -1 293 57t133 81v15q0 49 -86 49l-124 -8q-95 13 -95 75v30q0 72 159 69zM448 964
q73 0 124 -96v-20q0 -49 -88 -68h-20q-76 0 -92 116q0 59 76 68z" />
    <glyph glyph-name="afii62810" unicode="&#x641;" horiz-adv-x="2270" arabic-form="final" 
d="M1007 1113h5q85 -12 85 -81v-15q0 -66 -117 -89q-415 -138 -572 -266q-171 -116 -171 -270v-24q0 -287 461 -414q119 -32 262 -32q420 0 934 255q-15 63 -15 104q0 222 181 364q75 52 134 52h7q121 0 159 -139l5 -52v-5q0 -137 -122 -294q-25 -24 -49 -45q34 -7 83 -6
q49 -5 68 -39.5t1 -70t-43.5 -44t-117 -1.5t-143.5 32q-13 6 -24 14q-124 -69 -260 -122q-392 -139 -733 -139q-425 0 -743 222q-211 165 -211 375q0 291 411 525q128 74 374 161q132 44 151 44zM2050 308q0 -30 8 -30q100 85 119 164q14 25 14 59v5l-2 13
q-85 -41 -131 -159q-8 -26 -8 -52zM2092 1121q73 0 124 -96v-20q0 -49 -88 -68h-20q-76 0 -92 116q0 59 76 68z" />
    <glyph glyph-name="afii62808" unicode="&#x641;" horiz-adv-x="707" arabic-form="initial" 
d="M531 696h38q122 0 138 -157q0 -309 -494 -509q-89 -30 -202 -30h-26q-75 17 -75 67v23q0 56 90 65q97 0 146 15v3q-30 56 -30 100v19q0 121 232 325q99 79 183 79zM247 307v-19q0 -37 33 -60q91 36 221 165q56 74 56 112q0 14 -22 30h-4q-75 0 -258 -180q-26 -29 -26 -48
zM488 1181q73 0 124 -96v-20q0 -49 -88 -68h-20q-76 0 -92 116q0 59 76 68z" />
    <glyph glyph-name="afii62809" unicode="&#x641;" horiz-adv-x="601" arabic-form="medial" 
d="M531 696h38q122 0 138 -157q0 -212 -232 -376q56 -6 127 -8q49 -5 72.5 -36t13 -62.5t-43.5 -46t-86 -11t-139 16t-140 42.5q-32 -14 -66 -28q-89 -30 -202 -30h-26q-75 17 -75 67v23q0 66 90 75q97 0 146 15v3q-30 46 -30 90v19q0 121 232 325q99 79 183 79zM247 307
v-19q0 -37 33 -60q91 36 221 165q56 74 56 112q0 17 -22 30h-4q-75 0 -258 -180q-26 -29 -26 -48zM460 1167q73 0 124 -96v-20q0 -49 -88 -68h-20q-76 0 -92 116q0 59 76 68z" />
    <glyph glyph-name="afii62813" unicode="&#x642;" horiz-adv-x="2474" arabic-form="final" 
d="M1612 1029q361 -8 361 -22q45 -26 45 -77q0 -53 -62 -76l-14 -2q-230 13 -337 13q-484 0 -902 -193q-167 -72 -324 -181q-185 -135 -240 -307q-19 -77 -19 -148q0 -200 248 -387q269 -178 616 -178h22q383 0 804 197q104 53 206 130q96 82 141 143l47 67v2h-2
q-140 0 -195 132q-15 40 -15 85v13q0 173 154 264q57 25 103 25h9q126 0 188 -136q18 -51 18 -112q0 -57 -18 -126q12 1 27 1q49 -5 68 -39.5t1 -70t-44 -43.5q-24 -7 -111 -2q-12 -23 -25 -50q-47 -90 -167 -214q-114 -106 -212 -160q-104 -64 -293 -131
q-310 -100 -623 -100q-499 0 -857 266q-244 204 -244 414v28q0 112 61 263q37 88 149 210q146 134 246 184q172 105 429 195q345 123 761 123zM2156 237v-10q0 -41 29 -54q34 -16 60 -16h4q47 0 59 122l2 15q-9 71 -61 71q-55 0 -86 -78q-7 -24 -7 -50zM2376 1309
q28 1 46 -10t22.5 -27.5t-5.5 -34.5t-37 -30q-58 -23 -447 -64h-8q-96 0 -96 52q0 65 108 88q151 24 417 26z" />
    <glyph glyph-name="afii62811" unicode="&#x642;" horiz-adv-x="707" arabic-form="initial" 
d="M531 696h38q122 0 138 -157q0 -309 -494 -509q-89 -30 -202 -30h-26q-75 17 -75 67v23q0 56 90 65q97 0 146 15v3q-30 56 -30 100v19q0 121 232 325q99 79 183 79zM247 307v-19q0 -37 33 -60q91 36 221 165q56 74 56 112q0 14 -22 30h-4q-75 0 -258 -180q-26 -29 -26 -48
zM547 1059q28 1 46 -10t22.5 -27.5t-5.5 -34.5t-37 -30q-58 -23 -447 -64h-8q-96 0 -96 52q0 65 108 88q151 24 417 26z" />
    <glyph glyph-name="afii62812" unicode="&#x642;" horiz-adv-x="601" arabic-form="medial" 
d="M531 696h38q122 0 138 -157q0 -212 -232 -376q56 -6 127 -8q49 -5 72.5 -36t13 -62.5t-43.5 -46t-86 -11t-139 16t-140 42.5q-32 -14 -66 -28q-89 -30 -202 -30h-26q-75 17 -75 67v23q0 66 90 75q97 0 146 15v3q-30 46 -30 90v19q0 121 232 325q99 79 183 79zM247 307
v-19q0 -37 33 -60q91 36 221 165q56 74 56 112q0 17 -22 30h-4q-75 0 -258 -180q-26 -29 -26 -48zM642 1144q28 1 46 -10t22.5 -27.5t-5.5 -34.5t-37 -30q-58 -23 -447 -64h-8q-96 0 -96 52q0 65 108 88q151 24 417 26z" />
    <glyph glyph-name="afii62816" unicode="&#x643;" horiz-adv-x="2098" arabic-form="final" 
d="M2089 155q49 -5 68 -37.5t1 -68t-43.5 -44t-58.5 -7t-73.5 22.5t-80.5 99t-15 240q2 16 6 33q-123 -126 -322 -230q-340 -154 -633 -154h-35q-389 0 -626 193q-105 110 -105 234q0 327 552 563l112 35h14q70 -14 70 -70v-11q0 -65 -119 -90q-475 -195 -475 -441
q0 -199 419 -283q73 -14 154 -14q293 0 675 213q106 64 252 213q149 197 111 684q22 63 63 63h21q89 -9 79.5 -273t-29.5 -336q-1 -6 -2 -13q-44 -246 -49 -349t19.5 -139t49.5 -33zM1401 1126q41 -15 64.5 -54.5t23.5 -43.5v-5q-3 -20 -47 -17l-6 2q-8 -4 -9 -13l-1 -6
q-4 -23 36 -107q14 -36 9 -73q-10 -58 -110 -124t-125 -62h-9l-13 2q-27 4 -33 39.5t48 64.5q125 81 130 111q5 45 -26 106t-26 110q10 46 36.5 60.5t57.5 9.5z" />
    <glyph glyph-name="afii57410" unicode="&#x643;" horiz-adv-x="691" arabic-form="initial" 
d="M7 0q-85 8 -85 70v23q0 63 85 63q122 0 247.5 105.5t139 245.5t-15 279.5t6 173t71.5 4t68 -165.5t11 -343.5t-175.5 -325t-352.5 -129.5zM1310 1870q56 0 77 -63v-21q0 -39 -245.5 -187.5t-397.5 -235t-239.5 -121t-104 34t68 111t296.5 149t503 319.5z" />
    <glyph glyph-name="afii62815" unicode="&#x643;" horiz-adv-x="543" arabic-form="medial" 
d="M-2 0q-85 8 -85 70v23q0 69 85 69q122 0 247.5 102.5t139 242.5t-15 279.5t6 173t71.5 4t68 -165.5t11 -344q-8 -77 -34 -147q2 -23 7 -55q10 -73 49.5 -88t53.5 -38t9 -59t-35 -56t-78.5 3t-95.5 95q-13 21 -21 45q-15 -13 -31 -25q-155 -117 -352 -129zM1301 1870
q56 0 77 -63v-21q0 -39 -245.5 -187.5t-397.5 -235t-239.5 -121t-104 34t68 111t296.5 149t503 319.5z" />
    <glyph glyph-name="afii62817" unicode="&#x644;" horiz-adv-x="400" arabic-form="initial" 
d="M12 0q-85 8 -85 70v23q0 62 85 62q100 0 134.5 107.5t21 264t-26.5 272t13 144t72 17t67 -147t25 -353t-63.5 -332.5t-242.5 -127z" />
    <glyph glyph-name="afii62818" unicode="&#x644;" horiz-adv-x="343" arabic-form="medial" 
d="M12 0q-85 8 -85 70v23q0 62 85 62q100 0 128.5 134t37 250t15 251.5t41 169t71.5 4t33 -161.5t-17 -280t-37 -246q-2 -119 45 -121t61 -27t9 -61t-35 -56t-79 3q-41 19 -80 74q-66 -80 -193 -88z" />
    <glyph glyph-name="afii62822" unicode="&#x645;" horiz-adv-x="1458" arabic-form="final" 
d="M1465 154q39 -9 54.5 -44.5t3 -67.5t-38 -40.5t-78.5 10.5q-48 19 -76 82q-25 -20 -53 -39q-98 -52 -165 -52h-28q-108 0 -198 101q-68 86 -68 209v5q0 102 119 250v2q-122 -35 -228 -82q-126 -57 -250 -144q-228 -177 -228 -351q0 -254 231 -497q19 -21 19 -47v-15
q0 -59 -64 -79l-16 -1q-45 0 -85 59q-168 204 -219 438q-19 98 -19 161q0 329 480 563q349 153 603 153q168 0 269 -150q54 -90 54 -198q0 -86 -44 -162q-3 -58 25 -64zM975 312v-12q0 -118 112 -160l33 -5q74 0 170 102q61 81 61 148q0 82 -98 160q-39 19 -55 19
q-61 0 -174 -130q-49 -72 -49 -122z" />
    <glyph glyph-name="afii62820" unicode="&#x645;" horiz-adv-x="706" arabic-form="initial" 
d="M447 567h5q64 0 106.5 -63t39 -182.5t-66.5 -220.5t-203 -104q-124 10 -171 102q-92 -110 -169 -98q-63 17 -65.5 71.5t29.5 68t69.5 18t82.5 67.5t140 202t203 139zM250 195q12 -33 69 -48t111.5 36.5t51 117t-45.5 83.5t-109 -72t-77 -117z" />
    <glyph glyph-name="afii62825" unicode="&#x646;" horiz-adv-x="2481" arabic-form="final" 
d="M2365 731q65 -1 71 -99q4 -92 -35 -309q-3 -61 2 -87q10 -53 78 -81q49 -5 68 -40.5t8.5 -65.5t-43.5 -44t-98 9q-61 21 -104 78q-161 -228 -385 -352q-425 -258 -900 -258q-456 0 -830 248q-184 151 -184 332q0 267 337 514q485 304 861 354q74 -13 74 -70v-22
q0 -63 -152 -81q-55 0 -351 -114q-250 -121 -439 -269q-174 -171 -174 -308q0 -154 177 -294q254 -156 603 -156h39q594 0 1056 382q154 151 184 277q12 59 20 111.5t7 67.5q-1 159 27 219q21 58 61 58h22zM1496 434q73 0 124 -96v-20q0 -49 -88 -68h-20q-76 0 -92 116
q0 59 76 68z" />
    <glyph glyph-name="afii62823" unicode="&#x646;" horiz-adv-x="580" arabic-form="initial" 
d="M364 984q73 0 124 -96v-20q0 -49 -88 -68h-20q-76 0 -92 116q0 59 76 68zM-6 1q-84 9 -79 78.5t76 75.5q171 6 249 77t97.5 203.5t73.5 167.5q20 12 51 7q86 -21 48 -161q-39 -184 -102 -270.5t-172 -135.5t-242 -42z" />
    <glyph glyph-name="afii62824" unicode="&#x646;" horiz-adv-x="400" arabic-form="medial" 
d="M229 987q73 0 124 -96v-20q0 -49 -88 -68h-20q-76 0 -92 116q0 59 76 68zM399 155q63 1 80 -64v-18q-16 -73 -83 -73q-165 -1 -182 122q-44 -68 -92 -95t-121 -27q-83 11 -77.5 77t78.5 78q120 0 182.5 194t97.5 231t78 24q77 -42 24 -162q-40 -109 -57 -155.5t-7 -88
t79 -43.5z" />
    <glyph glyph-name="afii62828" unicode="&#x647;" horiz-adv-x="906" arabic-form="final" 
d="M634 488q178 0 233 -130q15 -39 23 -169q5 -33 29 -33q66 -15 66 -79.5t-73 -76.5l-56 1q-82 0 -107 53q-23 28 -37 226q-15 58 -86 60q-157 0 -379 -243q-77 -98 -90 -145h3l35 5h7q81 -12 81 -78l2 -3v-2q0 -95 -150 -95q-119 0 -148 102l-3 26v22q0 140 268 384
q213 175 382 175z" />
    <glyph glyph-name="afii62829" unicode="&#x648;" horiz-adv-x="589" arabic-form="final" 
d="M496 585q87 -8 114 -116q4 -38 1 -69q-9 -105 -58 -242q17 0 37 -2q49 -5 63.5 -36.5t4 -64.5t-43.5 -46.5t-149 -9.5h-11q-32 -52 -70 -108q-67 -96 -240 -254q-177 -161 -227 -175l-15 1q-37 3 -59 52q-7 13 -5 33l1 4q5 57 76 100q76 65 165 150q126 120 187 219
q-130 54 -116 173q-1 128 184 326q85 72 161 65zM362 171q26 18 80 219q-93 -89 -115.5 -149.5t35.5 -69.5z" />
    <glyph glyph-name="afii62830" unicode="&#x649;" horiz-adv-x="1818" arabic-form="final" 
d="M1133 660h31q73 0 85 -54l2 -12q0 -83 -168 -237l-21 -5h-10q-68 0 -81 83q5 20 38 62q-247 -42 -412 -152q-97 -53 -283 -223q-152 -166 -152 -294q0 -106 150 -201q134 -69 301 -69h48q231 0 529 92q135 50 232 112q169 116 169 159q0 28 -152 104q-48 32 -48 73v3
q0 72 83 80q23 1 53.5 -3.5t71.5 -10.5t94 -10t121 -1q55 0 76 -58v-14q8 -72 -73 -84h-31l-60 3q26 -48 26 -87q0 -96 -204 -225q-131 -96 -346 -174q-302 -99 -601 -99q-463 0 -567 296q-14 52 -14 98v21q0 188 297 455q215 173 363 230q302 142 453 142z" />
    <glyph glyph-name="afii62833" unicode="&#x64a;" horiz-adv-x="1818" arabic-form="final" 
d="M738 -808q28 1 46 -10t22.5 -27.5t-5.5 -34.5t-37 -30q-58 -23 -447 -64h-8q-96 0 -96 52q0 65 108 88q151 24 417 26zM1133 660h31q73 0 85 -54l2 -12q0 -83 -168 -237l-21 -5h-10q-68 0 -81 83q5 20 38 62q-247 -42 -412 -152q-97 -53 -283 -223q-152 -166 -152 -294
q0 -106 150 -201q134 -69 301 -69h48q231 0 529 92q135 50 232 112q169 116 169 159q0 28 -152 104q-48 32 -48 73v3q0 72 83 80q23 1 53.5 -3.5t71.5 -10.5t94 -10t121 -1q55 0 76 -58v-14q8 -72 -73 -84h-31l-60 3q26 -48 26 -87q0 -96 -204 -225q-131 -96 -346 -174
q-302 -99 -601 -99q-463 0 -567 296q-14 52 -14 98v21q0 188 297 455q215 173 363 230q302 142 453 142z" />
    <glyph glyph-name="afii62831" unicode="&#x64a;" horiz-adv-x="580" arabic-form="initial" 
d="M-6 1q-84 9 -79 78.5t76 75.5q171 6 249 77t97.5 203.5t73.5 167.5q20 12 51 7q86 -21 48 -161q-39 -184 -102 -270.5t-172 -135.5t-242 -42zM464 -191q28 1 46 -10t22.5 -27.5t-5.5 -34.5t-37 -30q-58 -23 -447 -64h-8q-96 0 -96 52q0 65 108 88q151 24 417 26z" />
    <glyph glyph-name="afii62832" unicode="&#x6cc;" horiz-adv-x="400" arabic-form="medial" 
d="M399 155q63 1 80 -64v-18q-16 -73 -83 -73q-165 -1 -182 122q-44 -68 -92 -95t-121 -27q-83 11 -77.5 77t78.5 78q120 0 182.5 194t97.5 231t78 24q77 -42 24 -162q-40 -109 -57 -155.5t-7 -88t79 -43.5zM403 -252q28 1 46 -10t22.5 -27.5t-5.5 -34.5t-37 -30
q-58 -23 -447 -64h-8q-96 0 -96 52q0 65 108 88q151 24 417 26z" />
    <glyph glyph-name="uniFBA4" unicode="&#x6c0;" horiz-adv-x="997" arabic-form="isolated" 
d="M617 585q40 0 142 -77q79 -71 94 -98q44 -65 44 -149q0 -116 -90 -178q-130 -79 -349 -79h-40q-206 0 -255 30q-29 11 -65 46q-45 52 -45 115q0 94 102 174q74 63 144 101q68 40 164 73q82 28 101 28h9l17 8q14 6 27 6zM604 437q-10 -8 -60 -20q-100 -32 -169 -70
q-66 -36 -146 -105q-31 -29 -31 -48v-1q0 -19 42 -33q18 -8 182 -11h19q203 0 294 60q17 20 17 49v7q0 49 -38 86q-44 45 -70 62zM531 1329q24 0 52 -27q37 -35 37 -39l1 -4q0 -18 -28 -22h-5q-7 -4 -7 -13v-5q0 -23 47 -94q19 -32 19 -67q0 -47 -43 -79
q-125 -125 -150 -125l-8 -1h-12q-25 0 -29 32q0 38 46 73l80 67q23 32 23 60q0 43 -62 111q-24 31 -24 59q0 49 34 67q16 7 29 7z" />
    <glyph glyph-name="uniFBA5" unicode="&#x6c0;" horiz-adv-x="906" arabic-form="final" 
d="M634 488q178 0 233 -130q15 -39 23 -169q5 -33 29 -33q66 -15 66 -79.5t-73 -76.5l-56 1q-82 0 -107 53q-23 28 -37 226q-15 58 -86 60q-157 0 -379 -243q-77 -98 -90 -145h3l35 5h7q81 -12 81 -78l2 -3v-2q0 -95 -150 -95q-119 0 -148 102l-3 26v22q0 140 268 384
q213 175 382 175zM445 1083q24 0 52 -27q37 -35 37 -39l1 -4q0 -18 -28 -22h-5q-7 -4 -7 -13v-5q0 -23 47 -94q19 -32 19 -67q0 -47 -43 -79q-125 -125 -150 -125l-8 -1h-12q-25 0 -29 32q0 38 46 73l80 67q23 32 23 60q0 43 -62 111q-24 31 -24 59q0 49 34 67q16 7 29 7z
" />
    <glyph glyph-name="uniFBFE" unicode="&#x6cc;" horiz-adv-x="580" arabic-form="initial" 
d="M-6 1q-84 9 -79 78.5t76 75.5q171 6 249 77t97.5 203.5t73.5 167.5q20 12 51 7q86 -21 48 -161q-39 -184 -102 -270.5t-172 -135.5t-242 -42zM441 -239q28 1 46 -10t22.5 -27.5t-5.5 -34.5t-37 -30q-58 -23 -447 -64h-8q-96 0 -96 52q0 65 108 88q151 24 417 26z" />
    <glyph glyph-name="uniFB68" unicode="&#x679;" horiz-adv-x="330" arabic-form="initial" 
 />
    <glyph glyph-name="uniFB69" unicode="&#x679;" horiz-adv-x="522" arabic-form="medial" 
 />
    <glyph glyph-name="uniFBA6" unicode="&#x6c1;" horiz-adv-x="997" arabic-form="isolated" 
d="M617 585q40 0 142 -77q79 -71 94 -98q44 -65 44 -149q0 -116 -90 -178q-130 -79 -349 -79h-40q-206 0 -255 30q-29 11 -65 46q-45 52 -45 115q0 94 102 174q74 63 144 101q68 40 164 73q82 28 101 28h9l17 8q14 6 27 6zM604 437q-10 -8 -60 -20q-100 -32 -169 -70
q-66 -36 -146 -105q-31 -29 -31 -48v-1q0 -19 42 -33q18 -8 182 -11h19q203 0 294 60q17 20 17 49v7q0 49 -38 86q-44 45 -70 62z" />
    <glyph glyph-name="uniFB51" unicode="&#x671;" horiz-adv-x="387" arabic-form="final" 
d="M499 958h27q51 0 69 -62v-15q0 -41 -115 -159q-224 -265 -224 -401v-23q22 -142 122 -142q71 0 78 -63v-23q0 -62 -85 -70q-193 0 -262 213l-8 85v11q0 249 367 637zM534 1235q31 24 59 28.5t49 -6.5t34 -36t13 -62l-1 -80h-320v58h54zM502 1137h128v30q-2 29 -20 37
t-48 -14z" />
    <glyph glyph-name="uni0675.fina" unicode="&#x675;" horiz-adv-x="387" 
d="M499 958h27q51 0 69 -62v-15q0 -41 -115 -159q-224 -265 -224 -401v-23q22 -142 122 -142q71 0 78 -63v-23q0 -62 -85 -70q-193 0 -262 213l-8 85v11q0 249 367 637zM447 1685q24 0 52 -27q37 -35 37 -39l1 -4q0 -18 -28 -22h-5q-7 -4 -7 -13v-5q0 -23 47 -94
q19 -32 19 -67q0 -47 -43 -79q-125 -125 -150 -125l-8 -1h-12q-25 0 -29 32q0 38 46 73l80 67q23 32 23 60q0 43 -62 111q-24 31 -24 59q0 49 34 67q16 7 29 7z" />
    <glyph glyph-name="uni0676.fina" unicode="&#x676;" horiz-adv-x="589" 
d="M496 585q87 -8 114 -116q4 -38 1 -69q-9 -105 -58 -242q17 0 37 -2q49 -5 63.5 -36.5t4 -64.5t-43.5 -46.5t-149 -9.5h-11q-32 -52 -70 -108q-67 -96 -240 -254q-177 -161 -227 -175l-15 1q-37 3 -59 52q-7 13 -5 33l1 4q5 57 76 100q76 65 165 150q126 120 187 219
q-130 54 -116 173q-1 128 184 326q85 72 161 65zM362 171q26 18 80 219q-93 -89 -115.5 -149.5t35.5 -69.5zM440 1175q24 0 52 -27q37 -35 37 -39l1 -4q0 -18 -28 -22h-5q-7 -4 -7 -13v-5q0 -23 47 -94q19 -32 19 -67q0 -47 -43 -79q-125 -125 -150 -125l-8 -1h-12
q-25 0 -29 32q0 38 46 73l80 67q23 32 23 60q0 43 -62 111q-24 31 -24 59q0 49 34 67q16 7 29 7z" />
    <glyph glyph-name="uni0678.fina" unicode="&#x678;" horiz-adv-x="1818" 
d="M1133 660h31q73 0 85 -54l2 -12q0 -83 -168 -237l-21 -5h-10q-68 0 -81 83q5 20 38 62q-247 -42 -412 -152q-97 -53 -283 -223q-152 -166 -152 -294q0 -106 150 -201q134 -69 301 -69h48q231 0 529 92q135 50 232 112q169 116 169 159q0 28 -152 104q-48 32 -48 73v3
q0 72 83 80q23 1 53.5 -3.5t71.5 -10.5t94 -10t121 -1q55 0 76 -58v-14q8 -72 -73 -84h-31l-60 3q26 -48 26 -87q0 -96 -204 -225q-131 -96 -346 -174q-302 -99 -601 -99q-463 0 -567 296q-14 52 -14 98v21q0 188 297 455q215 173 363 230q302 142 453 142zM994 1336
q24 0 52 -27q37 -35 37 -39l1 -4q0 -18 -28 -22h-5q-7 -4 -7 -13v-5q0 -23 47 -94q19 -32 19 -67q0 -47 -43 -79q-125 -125 -150 -125l-8 -1h-12q-25 0 -29 32q0 38 46 73l80 67q23 32 23 60q0 43 -62 111q-24 31 -24 59q0 49 34 67q16 7 29 7z" />
    <glyph glyph-name="uniFB54" unicode="&#x67b;" horiz-adv-x="305" arabic-form="initial" 
 />
    <glyph glyph-name="uniFB55" unicode="&#x67b;" horiz-adv-x="515" arabic-form="medial" 
 />
    <glyph glyph-name="afii62760" unicode="&#x627;" horiz-adv-x="387" arabic-form="final" 
d="M499 958h27q51 0 69 -62v-15q0 -41 -115 -159q-224 -265 -224 -401v-23q22 -142 122 -142q71 0 78 -63v-23q0 -62 -85 -70q-193 0 -262 213l-8 85v11q0 249 367 637z" />
    <glyph glyph-name="afii57415" unicode="&#x627;" horiz-adv-x="490" arabic-form="isolated" 
d="M306 1115q59 0 78 -64l1 -14q0 -77 -59 -689l-26 -340q-27 -60 -76 -60h-1q-80 9 -80 74q65 493 65 622q18 256 18 393q0 59 71 78h9z" />
    <glyph glyph-name="afii62821" unicode="&#x645;" horiz-adv-x="638" arabic-form="medial" 
d="M455 567h5q64 0 106.5 -63t38.5 -183q-2 -64 -20 -127q-2 -16 21 -27t51 -13.5t44.5 -37t-1.5 -70t-53.5 -44t-85.5 21.5q-27 17 -48 43q-63 -67 -177 -70q-124 10 -171 102q-92 -110 -169 -98q-63 17 -65.5 66t29.5 69.5t69.5 25t82.5 66t140 200.5t203 139zM258 195
q12 -33 69 -48t111.5 36.5t51 117t-45.5 83.5t-109 -72t-77 -117z" />
    <glyph glyph-name="afii62819" unicode="&#x644;" horiz-adv-x="2133" arabic-form="final" 
d="M2174 151q21 -10 34 -36.5t11 -58t-43.5 -48.5t-90 6t-95.5 95q-12 19 -19 39q-64 -93 -197 -233q-406 -396 -961 -396h-68q-347 0 -563 160q-155 131 -155 286v31q0 175 193 367q188 165 357 215q213 66 348 66q145 0 169 -96l3 -28q-14 -104 -96 -104q-54 0 -66 56h-5
q-150 0 -378 -86q-380 -191 -380 -426q0 -174 263 -261q109 -33 266 -33h3q837 0 1166 646q87 145 87 670v200l-3 23q0 56 66 81l23 2q62 0 83 -73v-5l3 -206q0 -420 -53 -632q-8 -79 2 -124q19 -69 96 -97z" />
    <glyph glyph-name="uniFC63" unicode="&#xfc63;" arabic-form="isolated" 
d="M147 325q15 -35 13.5 -134t-58 -133.5t-112.5 0.5q-54 -63 -114 -56t-68.5 65.5t36.5 159.5l31 -1q-13 -42 -17 -90t29 -48q74 -14 87 174h35q13 -115 57 -115q53 0 53 144zM-19 341q12 169 -2 346q14 48 36.5 73.5t27.5 11.5q19 -316 -62 -431z" />
    <glyph glyph-name="uniFC5D" unicode="&#xfc5d;" horiz-adv-x="3204" arabic-form="isolated" 
d="M1591 1253q301 0 370 -98q16 -25 16 -52v-10q0 -68 -94 -127l-23 -3h-8q-53 0 -73 64v19q0 8 15 29v3q-101 18 -214 18q-517 0 -998 -253q-121 -62 -246 -167q-158 -153 -158 -271v-12q0 -152 217 -287q92 -60 348 -126q331 -80 707 -80q375 0 753 74q200 52 325 114
q206 109 206 207q0 90 -251 260q-78 53 -133 114q-45 53 -45 105v3q0 122 281 180q304 84 449 84h36q79 0 96 -59l2 -19v-2q0 -60 -64 -77l-11 -2l-51 4q-183 0 -490 -100q-54 -28 -54 -41q6 -13 86 -66q306 -185 306 -365v-18q0 -218 -338 -356q-94 -41 -312 -89
q-351 -66 -697 -66h-46q-602 0 -1094 195q-358 161 -358 418v19q0 194 212 396q104 88 191 135q534 305 1142 305zM1814.27 1426.74q15.123 212.932 -2.52051 435.942q17.6436 60.4775 45.999 92.6064q28.3564 32.1279 34.6572 14.4893q23.9453 -398.145 -78.1357 -543.038z
" />
    <glyph glyph-name="uniFBE5" unicode="&#x6d0;" horiz-adv-x="1818" arabic-form="final" 
d="M1133 660h31q73 0 85 -54l2 -12q0 -83 -168 -237l-21 -5h-10q-68 0 -81 83q5 20 38 62q-247 -42 -412 -152q-97 -53 -283 -223q-152 -166 -152 -294q0 -106 150 -201q134 -69 301 -69h48q231 0 529 92q135 50 232 112q169 116 169 159q0 28 -152 104q-48 32 -48 73v3
q0 72 83 80q23 1 53.5 -3.5t71.5 -10.5t94 -10t121 -1q55 0 76 -58v-14q8 -72 -73 -84h-31l-60 3q26 -48 26 -87q0 -96 -204 -225q-131 -96 -346 -174q-302 -99 -601 -99q-463 0 -567 296q-14 52 -14 98v21q0 188 297 455q215 173 363 230q302 142 453 142z" />
    <glyph glyph-name="uniFE7B" unicode="&#xfe7b;" horiz-adv-x="242" arabic-form="medial" 
d="M290 -304q-59 -49 -175 -88t-193 -44l-39 31q264 76 412 190q40 1 -5 -89zM-5 0q-30 -1 -46.5 21.5t-18 51t14 53.5t50.5 29h252q25 -6 35 -29.5t8.5 -49.5t-13 -49t-30.5 -27h-252z" />
    <glyph glyph-name="uniFCF2" unicode="&#xfcf2;" horiz-adv-x="242" arabic-form="medial" 
d="M276 775q15 -35 13.5 -134t-58 -133.5t-112.5 0.5q-54 -63 -114 -56t-68.5 65.5t36.5 159.5l31 -1q-13 -42 -17 -90t29 -48q74 -14 87 174h35q13 -115 57 -115q53 0 53 144zM295 887q-59 -49 -175 -88t-193 -44l-39 31q264 76 412 190q40 1 -5 -89zM-5 0
q-30 -1 -46.5 21.5t-18 51t14 53.5t50.5 29h252q25 -6 35 -29.5t8.5 -49.5t-13 -49t-30.5 -27h-252z" />
    <glyph glyph-name="uniFCF3" unicode="&#xfcf3;" horiz-adv-x="242" arabic-form="medial" 
d="M257 788q15 -35 13.5 -134t-58 -133.5t-112.5 0.5q-54 -63 -114 -56t-68.5 65.5t36.5 159.5l31 -1q-13 -42 -17 -90t29 -48q74 -14 87 174h35q13 -115 57 -115q53 0 53 144zM322 1134q-5 -71 -62 -148.5t-93 -108.5t-90.5 -59.5t-145.5 -37.5q-30 -1 -26.5 17.5
t35.5 20.5q97 23 154 70t86 110q-99 5 -99 72q0 56 46.5 100.5t95.5 47.5q101 3 99 -84zM-5 0q-30 -1 -46.5 21.5t-18 51t14 53.5t50.5 29h252q25 -6 35 -29.5t8.5 -49.5t-13 -49t-30.5 -27h-252z" />
    <glyph glyph-name="uniFE71" unicode="&#xfe71;" horiz-adv-x="242" arabic-form="medial" 
d="M288 434q-62 -46 -180 -78.5t-195 -32.5l-37 33q268 61 422 166q40 -1 -10 -88zM286 604q-59 -49 -175 -88t-193 -44l-39 31q264 76 412 190q40 1 -5 -89zM-5 0q-30 -1 -46.5 21.5t-18 51t14 53.5t50.5 29h252q25 -6 35 -29.5t8.5 -49.5t-13 -49t-30.5 -27h-252z" />
    <glyph glyph-name="uniFE77" unicode="&#xfe77;" horiz-adv-x="242" arabic-form="medial" 
d="M326 532q-59 -49 -175 -88t-193 -44l-39 31q264 76 412 190q40 1 -5 -89zM-5 0q-30 -1 -46.5 21.5t-18 51t14 53.5t50.5 29h252q25 -6 35 -29.5t8.5 -49.5t-13 -49t-30.5 -27h-252z" />
    <glyph glyph-name="uniFE79" unicode="&#xfe79;" horiz-adv-x="242" arabic-form="medial" 
d="M378 769q-5 -71 -62 -148.5t-93 -108.5t-90.5 -59.5t-145.5 -37.5q-30 -1 -26.5 17.5t35.5 20.5q97 23 154 70t86 110q-99 5 -99 72q0 56 46.5 100.5t95.5 47.5q101 3 99 -84zM-5 0q-30 -1 -46.5 21.5t-18 51t14 53.5t50.5 29h252q25 -6 35 -29.5t8.5 -49.5t-13 -49
t-30.5 -27h-252z" />
    <glyph glyph-name="uniFE7D" unicode="&#xfe7d;" horiz-adv-x="242" arabic-form="medial" 
d="M283 721q15 -35 13.5 -134t-58 -133.5t-112.5 0.5q-54 -63 -114 -56t-68.5 65.5t36.5 159.5l31 -1q-13 -42 -17 -90t29 -48q74 -14 87 174h35q13 -115 57 -115q53 0 53 144zM-5 0q-30 -1 -46.5 21.5t-18 51t14 53.5t50.5 29h252q25 -6 35 -29.5t8.5 -49.5t-13 -49
t-30.5 -27h-252z" />
    <glyph glyph-name="uniFE7F" unicode="&#xfe7f;" horiz-adv-x="242" arabic-form="medial" 
d="M274 553q-17 -94 -65 -125q-42 -28 -126 -13q-116 20 -91 161q13 77 60 134q53 69 121 57t92 -77q23 -56 9 -137zM201 560q22 112 -41 129q-19 4 -45 -18q-35 -26 -46 -83q-13 -74 55 -92q63 -17 77 64zM-5 0q-30 -1 -46.5 21.5t-18 51t14 53.5t50.5 29h252
q25 -6 35 -29.5t8.5 -49.5t-13 -49t-30.5 -27h-252z" />
    <glyph glyph-name="uniFCF4" unicode="&#xfcf4;" horiz-adv-x="242" arabic-form="medial" 
d="M308 1022q15 -35 13.5 -134t-58 -133.5t-112.5 0.5q-54 -63 -114 -56t-68.5 65.5t36.5 159.5l31 -1q-13 -42 -17 -90t29 -48q74 -14 87 174h35q13 -115 57 -115q53 0 53 144zM358 553q-59 -49 -175 -88t-193 -44l-39 31q264 76 412 190q40 1 -5 -89zM-5 0
q-30 -1 -46.5 21.5t-18 51t14 53.5t50.5 29h252q25 -6 35 -29.5t8.5 -49.5t-13 -49t-30.5 -27h-252z" />
    <glyph glyph-name="uni06BA" unicode="&#x6ba;" arabic-form="isolated" 
 />
    <glyph glyph-name="uniFB9F" unicode="&#x6ba;" arabic-form="final" 
 />
    <glyph glyph-name="uniFBA8" unicode="&#x6c1;" arabic-form="initial" 
 />
    <glyph glyph-name="afii62827" unicode="&#x6be;" horiz-adv-x="1083" arabic-form="final" 
d="M1080 157q49 -5 67 -39.5t0 -70t-43.5 -44t-101.5 -0.5t-140 40q-22 11 -36 24q-75 -21 -192 -35q-99 -16 -208 -16q-109 4 -109 8q-147 -29 -317 -24q-73 14 -80.5 78.5t78.5 77.5q62 1 91 4q-10 15 -10 32q0 109 128 235q78 71 156 98q22 50 63 50q140 0 430 -34
q244 -41 244 -194q0 -93 -85 -172q35 -17 65 -18zM230 178q0 -23 37 -23q116 0 260 140q55 62 55 80q-24 22 -82 22q-152 0 -252 -164q-18 -34 -18 -55zM730 397q7 -11 7 -25q0 -70 -89 -182q111 13 185 45q112 66 112 114q0 20 -151 44l-64 7v-3z" />
    <glyph glyph-name="uniFC09" unicode="&#xfc09;" horiz-adv-x="1647" arabic-form="isolated" 
 />
    <glyph glyph-name="uniFC0F" unicode="&#xfc0f;" horiz-adv-x="1669" arabic-form="isolated" 
 />
    <glyph glyph-name="uniFC31" unicode="&#xfc31;" horiz-adv-x="1838" arabic-form="isolated" 
 />
    <glyph glyph-name="uniFC4F" unicode="&#xfc4f;" horiz-adv-x="1661" arabic-form="isolated" 
 />
    <glyph glyph-name="uniFC59" unicode="&#xfc59;" horiz-adv-x="1823" arabic-form="isolated" 
 />
    <glyph glyph-name="uniFC6E" unicode="&#xfc6e;" horiz-adv-x="1746" arabic-form="final" 
 />
    <glyph glyph-name="uniFC74" unicode="&#xfc74;" horiz-adv-x="1846" arabic-form="final" 
 />
    <glyph glyph-name="uniFC8E" unicode="&#xfc8e;" horiz-adv-x="1809" arabic-form="final" 
 />
    <glyph glyph-name="uniFC95" unicode="&#xfc95;" horiz-adv-x="1805" arabic-form="final" 
 />
    <glyph glyph-name="uniFC9C" unicode="&#xfc9c;" horiz-adv-x="1766" arabic-form="initial" 
 />
    <glyph glyph-name=".notdef" horiz-adv-x="2048" 
 />
    <glyph glyph-name=".null" 
 />
    <glyph glyph-name="nonmarkingreturn" horiz-adv-x="640" 
 />
    <glyph glyph-name="space" unicode=" " horiz-adv-x="440" 
 />
    <glyph glyph-name="quotedbl" unicode="&#x22;" horiz-adv-x="966" 
d="M221 703q-7 29 -11.5 51.5t-7.5 32.5q-27 109 -42.5 187t-15.5 105q0 57 31 90.5t81 33.5q24 0 44.5 -9t36 -24.5t24 -37t8.5 -46.5q0 -14 -3.5 -40t-12.5 -70t-24 -110.5t-37 -162.5h-71zM674 703q-7 27 -12.5 50.5t-7.5 33.5q-27 110 -42 187.5t-15 104.5q0 57 31 90.5
t81 33.5q24 0 44.5 -9t36 -24.5t24 -37t8.5 -46.5q0 -14 -4.5 -43t-14 -75.5t-24 -112t-34.5 -152.5h-71z" />
    <glyph glyph-name="quotesingle" unicode="'" horiz-adv-x="484" 
d="M207 703q-7 27 -12 50.5t-7 33.5q-28 109 -42.5 187t-14.5 105q0 57 30.5 90.5t80.5 33.5q24 0 44.5 -9t36 -24.5t24 -37t8.5 -46.5q0 -14 -4 -40.5t-13 -71t-23.5 -111t-35.5 -160.5h-72z" />
    <glyph glyph-name="asterisk" unicode="*" horiz-adv-x="1126" 
d="M568 347l6 340l-219 -220h-105l277 279h-324l20 93h324l-270 265h93l209 -205l6 300l119 40l-5 -327l206 192h108l-283 -265h335l-22 -93h-314l273 -279h-92l-214 220l-8 -301z" />
    <glyph glyph-name="plus" unicode="+" horiz-adv-x="1192" 
d="M533 111q-33 43 -15 232q5 57 7 115q-82 -3 -167 -12q-208 -23 -205 64q4 85 370 93q-3 68 -10 138q-23 208 64 204q82 -3 92 -341q258 -3 298 -39q49 -44 21 -99q-43 -33 -233 -15q-42 4 -84 6q-1 -284 -39 -325q-44 -49 -99 -21z" />
    <glyph glyph-name="hyphen" unicode="-" horiz-adv-x="1144" 
d="M988 466q-43 -33 -232.5 -15t-397.5 -5t-204.5 64t384 93.5t429.5 -38t21 -99.5z" />
    <glyph glyph-name="period" unicode="." horiz-adv-x="597" 
d="M504 115q0 -49 -33 -82.5t-82 -33.5t-82 33.5t-33 82.5q0 48 33.5 81.5t81.5 33.5t81.5 -33.5t33.5 -81.5z" />
    <glyph glyph-name="slash" unicode="/" horiz-adv-x="790" 
d="M653 1198l-382 -1305h-137l381 1305h138z" />
    <glyph glyph-name="less" unicode="&#x3c;" horiz-adv-x="1117" 
d="M955 58l-805 386v90l805 384v-134l-624 -295l624 -297v-134z" />
    <glyph glyph-name="equal" unicode="=" horiz-adv-x="1117" 
d="M988 519q-43 -33 -232.5 -15t-397.5 -5t-204.5 64t384 93.5t429.5 -38t21 -99.5zM988 247q-43 -33 -232.5 -15t-397.5 -5t-204.5 64t384 93.5t429.5 -38t21 -99.5z" />
    <glyph glyph-name="greater" unicode="&#x3e;" horiz-adv-x="1117" 
d="M966 444l-806 -386v134l626 297l-626 295v134l806 -384v-90z" />
    <glyph glyph-name="bracketleft" unicode="[" horiz-adv-x="649" 
d="M564 -233h-373v1926h373v-98h-233v-1732h233v-96z" />
    <glyph glyph-name="bracketright" unicode="]" horiz-adv-x="649" 
d="M212 -137h233v1732h-233v98h373v-1926h-373v96z" />
    <glyph glyph-name="grave" unicode="`" horiz-adv-x="615" 
d="M373 935l-285 179q-24 18 -38.5 37.5t-14.5 42.5q0 26 17 42t47 16q19 0 35.5 -9.5t41.5 -34.5l271 -273h-74z" />
    <glyph glyph-name="braceleft" unicode="{" horiz-adv-x="833" 
d="M713 -346v-29q-142 20 -230.5 115.5t-88.5 210.5q0 62 20 143t20 125q0 62 -51.5 115t-142.5 65v35q91 11 142.5 63.5t51.5 115.5q0 44 -20 124.5t-20 142.5q0 115 88.5 211t230.5 115v-29q-99 -25 -145 -78.5t-46 -118.5q0 -49 19 -131.5t19 -139.5q0 -86 -62.5 -166.5
t-187.5 -124.5q121 -45 185.5 -127t64.5 -168q0 -57 -19 -139.5t-19 -131.5q0 -65 46 -118.5t145 -79.5z" />
    <glyph glyph-name="bar" unicode="|" horiz-adv-x="348" 
d="M207 1206v-1581h-70v1581h70z" />
    <glyph glyph-name="asciitilde" unicode="~" horiz-adv-x="939" 
d="M884 572h38q-4 -110 -63.5 -172.5t-144.5 -62.5q-39 0 -84 13.5t-233 89.5q-130 54 -185 54q-59 0 -100 -36t-58 -119h-37q5 115 63 175.5t135 60.5q37 0 76 -12q88 -26 232.5 -87.5t202.5 -61.5q64 0 107 41t51 117z" />
    <glyph glyph-name="agrave" unicode="&#xe0;" horiz-adv-x="1075" 
d="M741 331q-21 -65 -50.5 -118t-64.5 -99q-107 -133 -226 -133q-192 0 -241 233q-26 120 -2 237t95 232q73 118 181 177t251 59q28 0 62 -0.5t69.5 -2.5t70.5 -4t66 -4l-6 -262v1l4 -393q2 -45 4.5 -74.5t3.5 -40.5q3 -25 27 -25q68 0 229 232l4 -167q-145 -198 -293 -198
q-140 0 -172 145q-4 20 -6 56t-2 82zM737 758q-49 17 -90 25.5t-86 8.5q-64 0 -107.5 -42.5t-66.5 -124.5q-25 -103 -30 -200t11 -177q20 -102 69 -102q56 0 152 134q48 72 85 150t65 169zM662 590l-285 179q-24 18 -38.5 37.5t-14.5 42.5q0 26 17 42t47 16q19 0 35.5 -9.5
t41.5 -34.5l271 -273h-74z" />
    <glyph glyph-name="ccedilla" unicode="&#xe7;" horiz-adv-x="805" 
 />
    <glyph glyph-name="eacute" unicode="&#xe9;" horiz-adv-x="1078" 
 />
    <glyph glyph-name="egrave" unicode="&#xe8;" horiz-adv-x="1078" 
d="M797 935l-285 179q-24 18 -38.5 37.5t-14.5 42.5q0 26 17 42t47 16q19 0 35.5 -9.5t41.5 -34.5l271 -273h-74z" />
    <glyph glyph-name="ecircumflex" unicode="&#xea;" horiz-adv-x="1078" 
 />
    <glyph glyph-name="edieresis" unicode="&#xeb;" horiz-adv-x="1078" 
 />
    <glyph glyph-name="ocircumflex.001" horiz-adv-x="1112" 
d="M416 -19q-115 0 -211 89q-95 90 -120 218q-53 240 85 438q137 202 352 202q121 0 220 -86q95 -89 122 -216q26 -127 5 -237.5t-88 -209.5q-70 -100 -161.5 -149t-203.5 -49zM483 98q53 0 90.5 35t63.5 103q28 74 31.5 157.5t-16.5 180.5q-50 239 -186 239
q-101 0 -153 -143q-29 -75 -32 -159.5t17 -178.5q26 -119 72 -176.5t113 -57.5z" />
    <glyph glyph-name="ugrave" unicode="&#xf9;" horiz-adv-x="1142" 
d="M799 935l-285 179q-24 18 -38.5 37.5t-14.5 42.5q0 26 17 42t47 16q19 0 35.5 -9.5t41.5 -34.5l271 -273h-74z" />
    <glyph glyph-name="ucircumflex" unicode="&#xfb;" horiz-adv-x="1142" 
 />
    <glyph glyph-name="udieresis" unicode="&#xfc;" horiz-adv-x="1142" 
 />
    <glyph glyph-name="dagger" unicode="&#x2020;" horiz-adv-x="932" 
d="M347 -231l220 853l-319 -30l49 108l279 -32l31 398l148 27l-134 -425l320 32l-46 -108l-283 30l-116 -835z" />
    <glyph glyph-name="degree" unicode="&#xb0;" horiz-adv-x="409" 
d="M395 844q-51 0 -87.5 36t-36.5 88q0 53 36.5 89t87.5 36q52 0 88 -36t36 -89q0 -52 -36 -88t-88 -36zM395 888q32 0 55.5 24t23.5 56t-23.5 56t-55.5 24t-56 -24t-24 -56t24 -56t56 -24z" />
    <glyph glyph-name="bullet" unicode="&#x2022;" horiz-adv-x="931" 
d="M817 662q0 -145 -103.5 -248t-248.5 -103t-248 103t-103 248t103 248t248 103t248.5 -103t103.5 -248z" />
    <glyph glyph-name="registered" unicode="&#xae;" horiz-adv-x="897" 
d="M580 445q-132 0 -225.5 93.5t-93.5 225.5t93.5 226t225.5 94q134 0 227 -94t93 -226t-93.5 -225.5t-226.5 -93.5zM580 484q115 0 197.5 83t82.5 197t-82.5 197t-197.5 83q-114 0 -196.5 -83t-82.5 -197t82.5 -197t196.5 -83zM529 737l-28 -141h-107l9 43h53l55 276h-53
l8 44h132q153 0 153 -84q0 -75 -101 -125l35 -111h62l-9 -43h-97l-50 141h-62zM538 782h36q123 0 123 84q0 49 -90 49h-43z" />
    <glyph glyph-name="copyright" unicode="&#xa9;" horiz-adv-x="1244" 
d="M725 -27q-230 0 -394.5 164t-164.5 396t164.5 396t394.5 164q233 0 397 -164t164 -396t-164 -396t-397 -164zM725 18q214 0 365 151t151 364t-151 364t-365 151q-212 0 -363 -151t-151 -364t151 -364t363 -151zM890 246q-105 -33 -186 -33q-124 0 -196 66.5t-72 182.5
q0 163 105 272.5t264 109.5q91 0 198 -30l-36 -139l-52 9l8 82q-69 32 -131 32q-104 0 -176 -98t-72 -238q0 -191 178 -191q101 0 180 36z" />
    <glyph glyph-name="trademark" unicode="&#x2122;" horiz-adv-x="1333" 
d="M440 1021h-133l-19 -98h-63l29 143h497l-28 -143h-62l18 98h-133l-90 -452h98l-9 -45h-302l10 45h97zM1011 569l-69 387l-85 -432h-169l9 45h97l90 452h-97l9 45h240l56 -319l173 319h216l-8 -45h-98l-90 -452h98l-10 -45h-195l92 461l-229 -416h-30z" />
    <glyph glyph-name="acute" unicode="&#xb4;" horiz-adv-x="256" 
 />
    <glyph glyph-name="dieresis" unicode="&#xa8;" horiz-adv-x="862" 
 />
    <glyph glyph-name="pi1" horiz-adv-x="1154" 
 />
    <glyph glyph-name="logicalnot" unicode="&#xac;" horiz-adv-x="932" 
d="M177 510l16 80h782l-69 -342h-92l52 262h-689z" />
    <glyph glyph-name="florin" unicode="&#x192;" horiz-adv-x="679" 
d="M158 -231l52 213l76 382h-178l9 45h177l4 18q32 159 165 265.5t298 106.5q57 0 99 -15l-96 -106q-52 51 -121 51q-143 0 -186 -217l-21 -103h187l-9 -45h-187l-114 -577z" />
    <glyph glyph-name="ellipsis" unicode="&#x2026;" horiz-adv-x="1827" 
d="M758 113q0 31 51.5 132.5t66.5 109.5q31 14 88.5 -47.5t61.5 -96.5q0 -45 -48.5 -131.5t-69.5 -86.5q-9 0 -57 33.5t-73 52.5q-20 17 -20 34zM1308 113q0 31 51 132.5t67 109.5q31 14 88.5 -47.5t60.5 -96.5q0 -45 -48 -131.5t-69 -86.5q-9 0 -57 33.5t-73 52.5
q-20 17 -20 34zM211 113q0 31 51 132.5t67 109.5q31 14 88.5 -47.5t60.5 -96.5q0 -45 -48 -131.5t-69 -86.5q-9 0 -57 33.5t-73 52.5q-20 17 -20 34z" />
    <glyph glyph-name="endash" unicode="&#x2013;" horiz-adv-x="434" 
d="M434 154h-434v80h434v-80z" />
    <glyph glyph-name="emdash" unicode="&#x2014;" horiz-adv-x="1862" 
d="M1866 572h-1870v160h1870v-160z" />
    <glyph glyph-name="quotedblleft" unicode="&#x201c;" horiz-adv-x="613" 
d="M340 993q1 65 45 128.5t98 89.5l31 -58q-16 -9 -38 -33t-32 -62q66 -28 63 -83q0 -16 -6.5 -30.5t-17 -25.5t-25.5 -17.5t-31 -6.5q-21 0 -37 8.5t-27 22t-17 31.5t-6 36zM121 993q1 65 45 128.5t99 89.5l31 -58q-16 -9 -38 -33t-32 -62q66 -28 63 -83q0 -16 -6.5 -30.5
t-17.5 -25.5t-26 -17.5t-31 -6.5q-20 0 -36.5 8.5t-27.5 22t-17 31.5t-6 36z" />
    <glyph glyph-name="quotedblright" unicode="&#x201d;" horiz-adv-x="597" 
d="M295 1113q-1 -65 -45 -128.5t-98 -89.5l-31 58q16 9 38 33t32 62q-66 28 -63 83q0 16 6.5 30.5t17 25.5t25 17.5t31.5 6.5q21 0 37 -8.5t27 -22t17 -31.5t6 -36zM514 1113q-1 -65 -45 -128.5t-99 -89.5l-31 58q16 9 38 33t32 62q-66 28 -63 83q0 16 6.5 30.5t17.5 25.5
t25.5 17.5t31.5 6.5q20 0 36 -8.5t27.5 -22t17.5 -31.5t6 -36z" />
    <glyph glyph-name="divide" unicode="&#xf7;" horiz-adv-x="1125" 
d="M993 404q-43 -33 -232.5 -15t-397.5 -5t-204.5 64t377.5 101t429.5 -38t27.5 -107zM496 755q0 24 9 44.5t24 35.5t35.5 24t43.5 9q24 0 44.5 -9t35.5 -24t24 -35.5t9 -44.5q0 -23 -9 -43.5t-24 -35.5t-35.5 -24t-44.5 -9q-23 0 -43.5 9t-35.5 24t-24 35.5t-9 43.5z
M476 182q0 24 9 44.5t24 35.5t35.5 24t43.5 9q24 0 44.5 -9t35.5 -24t24 -35.5t9 -44.5q0 -23 -9 -43.5t-24 -35.5t-35.5 -24t-44.5 -9q-23 0 -43.5 9t-35.5 24t-24 35.5t-9 43.5z" />
    <glyph glyph-name="lozenge" unicode="&#x25ca;" horiz-adv-x="1118" 
d="M1003 699l-443 -502l-443 502l443 503zM848 699l-288 337l-289 -337l289 -335z" />
    <glyph glyph-name="fraction" unicode="&#x2044;" horiz-adv-x="742" 
d="M740 1101l-639 -1183h-110l638 1183h111z" />
    <glyph glyph-name="guilsinglleft" unicode="&#x2039;" horiz-adv-x="1117" 
d="M955 58l-805 386v90l805 384v-134l-624 -295l624 -297v-134z" />
    <glyph glyph-name="fi" unicode="&#xf001;" horiz-adv-x="1092" 
 />
    <glyph glyph-name="fl" unicode="&#xf002;" horiz-adv-x="1086" 
 />
    <glyph glyph-name="daggerdbl" unicode="&#x2021;" horiz-adv-x="932" 
d="M349 -231l132 416l-320 -31l50 107l279 -32l77 387l-320 -30l50 107l278 -32l33 405l150 27l-138 -432l320 32l-51 -107l-278 30l-76 -387l320 32l-51 -107l-279 31l-26 -398z" />
    <glyph glyph-name="middot.001" unicode="&#x2219;" horiz-adv-x="620" 
d="M429 516h-239v273h239v-273z" />
    <glyph glyph-name="quotesinglbase" unicode="&#x201a;" horiz-adv-x="418" 
d="M103 128l144 103l106 -141q-8 -146 -90.5 -224.5t-226.5 -78.5l40 45q113 10 135 150z" />
    <glyph glyph-name="quotedblbase" unicode="&#x201e;" horiz-adv-x="684" 
d="M91 92l113 86l88 -114q-22 -277 -261 -277l29 45q106 20 119 152zM401 92l115 86l86 -114q-21 -277 -261 -277l31 45q104 20 118 152z" />
    <glyph glyph-name="perthousand" unicode="&#x2030;" horiz-adv-x="1571" 
d="M385 533q-81 0 -130.5 51.5t-49.5 137.5q0 143 81.5 243.5t196.5 100.5q84 0 134.5 -51.5t50.5 -137.5q0 -144 -82.5 -244t-200.5 -100zM311 715q0 -137 87 -137q65 0 119 93.5t54 209.5q0 141 -88 141q-67 0 -119.5 -94t-52.5 -213zM850 0q-81 0 -130.5 51.5
t-49.5 137.5q0 142 81 243t196 101q84 0 134.5 -51.5t50.5 -137.5q0 -144 -82.5 -244t-199.5 -100zM776 182q0 -138 86 -138q67 0 120 94t53 210q0 142 -87 142q-68 0 -120 -94.5t-52 -213.5zM131 -27l980 1120h95l-981 -1120h-94zM1376 0q-82 0 -131.5 51.5t-49.5 137.5
q0 142 81.5 243t196.5 101q84 0 134.5 -51.5t50.5 -137.5q0 -144 -82.5 -244t-199.5 -100zM1301 183q0 -139 88 -139q64 0 118 94t54 209q0 143 -88 143q-67 0 -119.5 -94.5t-52.5 -212.5z" />
    <glyph glyph-name="dotlessi" unicode="&#xf031;" horiz-adv-x="1156" 
 />
    <glyph glyph-name="circumflex" unicode="&#x2c6;" horiz-adv-x="862" 
 />
    <glyph glyph-name="cedilla" unicode="&#xb8;" horiz-adv-x="862" 
 />
    <glyph glyph-name="multiply" unicode="&#xd7;" horiz-adv-x="918" 
d="M464 435q-190 -184 -222.5 -211t-67 -17.5t-40.5 50.5v6q0 40 111 122l129 126q-126 109 -182 159t-25.5 95.5t94 0t197.5 -171.5h2q162 172 192 172l8 3q56 -11 56 -56v-3q0 -31 -175 -189v-3q132 -114 209 -189.5t51 -116t-71 -12.5t-124.5 105.5t-141.5 129.5z" />
    <glyph glyph-name="macron" unicode="&#xaf;" horiz-adv-x="1118" 
d="M1134 1259h-1150v130h1150v-130z" />
    <glyph glyph-name="periodcentered" unicode="&#xb7;" horiz-adv-x="724" 
d="M482 832h-239v285h239v-285z" />
    <glyph glyph-name="H22073" unicode="&#x25a1;" horiz-adv-x="1237" 
d="M146 944h944v-944h-944v944zM222 868v-792h792v792h-792z" />
    <glyph glyph-name="H18543" unicode="&#x25aa;" horiz-adv-x="1089" 
d="M886 894v-694h-694v694h694z" />
    <glyph glyph-name="H18551" unicode="&#x25ab;" horiz-adv-x="1089" 
d="M888 930v-695h-695v695h695zM774 816h-467v-467h467v467z" />
    <glyph glyph-name="H18533" unicode="&#x25cf;" horiz-adv-x="1339" 
d="M204 775q0 201 141 342t340 141q200 0 341 -141t141 -342q0 -198 -141 -339t-341 -141q-199 0 -340 141t-141 339z" />
    <glyph glyph-name="openbullet" unicode="&#x25e6;" horiz-adv-x="1089" 
d="M544 1392q156 0 266.5 -110.5t110.5 -266.5t-110.5 -266t-266.5 -110t-266 110t-110 266t109.5 266.5t266.5 110.5zM544 1278q-109 0 -185.5 -77.5t-76.5 -185.5q0 -109 77 -185.5t185 -76.5t185.5 76.5t77.5 185.5q0 108 -76.5 185.5t-186.5 77.5z" />
    <glyph glyph-name="uniFFFC" unicode="&#xfffc;" horiz-adv-x="2048" 
d="M2048 1150h-100v223h-223v100h323v-323zM1473 1373h-323v100h323v-100zM2048 575h-100v323h100v-323zM1782 611q0 -241 -211 -241q-86 0 -138 45l73 79q25 -26 65 -26q95 0 95 138v484h116v-479zM898 1373h-323v100h323v-100zM2048 0h-323v100h223v223h100v-323z
M1423 591q0 -209 -274 -209h-240v708h235q249 0 249 -186q0 -91 -89 -145q119 -46 119 -168zM323 1373h-223v-223h-100v323h323v-100zM1473 0h-323v100h323v-100zM854 735q0 -173 -82 -269t-235 -96t-233.5 96t-80.5 269q0 175 80.5 271t233.5 96t235 -96t82 -271zM100 575
h-100v323h100v-323zM898 0h-323v100h323v-100zM323 0h-323v323h100v-223h223v-100zM1277 893q0 99 -163 99h-89v-194h101q151 0 151 95zM1307 591q0 109 -171 109h-111v-220h124q158 0 158 111zM738 735q0 269 -201 269q-198 0 -198 -269q0 -267 198 -267q201 0 201 267z
" />
    <glyph glyph-name="hookabovecomb" 
 />
    <glyph glyph-name="dotbelowcomb" 
 />
    <glyph glyph-name="gravecomb" unicode="&#x300;" horiz-adv-x="918" 
d="M-234 935l-285 179q-24 18 -38.5 37.5t-14.5 42.5q0 26 17 42t47 16q19 0 35.5 -9.5t41.5 -34.5l271 -273h-74z" />
    <glyph glyph-name="acutecomb" unicode="&#x301;" 
 />
    <glyph glyph-name="doublevav" unicode="&#x5f0;" horiz-adv-x="1122" 
 />
    <glyph glyph-name="vavyod" unicode="&#x5f1;" horiz-adv-x="1122" 
 />
    <glyph glyph-name="doubleyod" unicode="&#x5f2;" horiz-adv-x="1122" 
 />
    <glyph glyph-name="geresh" unicode="&#x5f3;" horiz-adv-x="432" 
 />
    <glyph glyph-name="gershayim" unicode="&#x5f4;" horiz-adv-x="822" 
 />
    <glyph glyph-name="altayin" unicode="&#xfb20;" horiz-adv-x="1328" 
 />
    <glyph glyph-name="alefpatah" unicode="&#xfb2e;" horiz-adv-x="1378" 
 />
    <glyph glyph-name="alefqamats" unicode="&#xfb2f;" horiz-adv-x="1378" 
 />
    <glyph glyph-name="alefmapiq" unicode="&#xfb30;" horiz-adv-x="1378" 
 />
    <glyph glyph-name="finalpedagesh" unicode="&#xfb43;" horiz-adv-x="1356" 
 />
    <glyph glyph-name="reshdagesh" unicode="&#xfb48;" horiz-adv-x="1166" 
 />
    <glyph glyph-name="betrafe" unicode="&#xfb4c;" horiz-adv-x="1310" 
 />
    <glyph glyph-name="kafrafe" unicode="&#xfb4d;" horiz-adv-x="1272" 
 />
    <glyph glyph-name="perafe" unicode="&#xfb4e;" horiz-adv-x="1335" 
 />
    <glyph glyph-name="aleflamed" unicode="&#xfb4f;" horiz-adv-x="1398" 
 />
    <glyph glyph-name="zerowidthnonjoiner" unicode="&#x200c;" 
d="M36 1289v-1564h-72v1564h72z" />
    <glyph glyph-name="zerowidthjoiner" unicode="&#x200d;" 
d="M36 -275h-72v1389l-134 -136l-49 49l171 169l-171 168l49 49l170 -171l170 171l49 -49l-171 -168l171 -169l-49 -49l-134 136v-1389z" />
    <glyph glyph-name="lefttorightmark" unicode="&#x200e;" 
d="M430 1198l-217 -214l-49 49l137 130h-266v-1438h-71v1509h337l-137 130l49 49z" />
    <glyph glyph-name="righttoleftmark" unicode="&#x200f;" 
d="M35 -275h-71v1438h-266l137 -130l-49 -49l-217 214l217 215l49 -49l-137 -130h337v-1509z" />
    <glyph glyph-name="afii57388.001" unicode="&#x66c;" horiz-adv-x="353" 
d="M210 654q-10 -27 -25 -51q-5 -6 -11.5 -9.5t-11.5 -3.5t-7.5 3t0.5 10q32 57 47.5 110.5t15.5 86.5q-24 6 -39 16t-24 21.5t-12 21.5t-3 15q0 16 5.5 33t15 30.5t23 22t29.5 8.5q59 0 59 -94q0 -15 -4 -39t-12 -53.5t-19.5 -62t-26.5 -65.5z" />
    <glyph glyph-name="afii57409" unicode="&#x621;" horiz-adv-x="474" 
d="M317 435q41 -15 64.5 -54.5t23.5 -43.5v-5q-3 -20 -47 -17l-6 2q-8 -4 -9 -13l-1 -6q-4 -23 36 -107q14 -36 9 -73q-10 -58 -110 -124t-125 -62h-9l-13 2q-27 4 -33 39.5t48 64.5q125 81 130 111q5 45 -26 106t-26 110q10 46 36.5 60.5t57.5 9.5z" />
    <glyph glyph-name="afii57440" unicode="&#x640;" horiz-adv-x="242" 
d="M-5 0q-30 -1 -46.5 21.5t-18 51t14 53.5t50.5 29h252q25 -6 35 -29.5t8.5 -49.5t-13 -49t-30.5 -27h-252z" />
    <glyph glyph-name="afii57453" unicode="&#x64d;" 
d="M157 -36q-62 -46 -180 -78.5t-195 -32.5l-37 33q268 61 422 166q40 -1 -10 -88zM155 134q-59 -49 -175 -88t-193 -44l-39 31q264 76 412 190q40 1 -5 -89z" />
    <glyph glyph-name="afii57381" unicode="&#x66a;" horiz-adv-x="1507" 
d="M1023 1328q47 0 64 -101v-5q0 -47 -87 -170q-149 -251 -400 -833q-111 -219 -212 -349l-24 -5h-12q-59 0 -76 106v5q0 38 84 174q127 243 391 791q69 141 232 371q20 16 40 16zM383 1247q103 0 159 -120v-43q0 -75 -112 -99h-26q-115 0 -115 69v13q0 13 22 47
q-13 22 -13 43q14 90 85 90zM1002 168q101 0 142 -124v-34q0 -94 -107 -137l-35 -4h-4q-100 0 -154 120v8q0 44 73 103q0 57 60 68h25z" />
    <glyph glyph-name="afii57461" unicode="&#x66b;" horiz-adv-x="536" 
d="M518 521l-403 -903l-96 30l406 903z" />
    <glyph glyph-name="afii63167" unicode="&#x66d;" horiz-adv-x="1118" 
d="M694 729l363 4v-123l-355 2l269 -260l-88 -88l-267 275l7 -371h-125l4 371l-266 -275l-89 88l275 262l-359 -4v123l357 -4l-250 246l88 90l244 -248l-4 359h125l-7 -363l244 252l88 -90z" />
    <glyph glyph-name="afii57543" horiz-adv-x="400" 
d="M399 155q63 1 80 -64v-18q-16 -73 -83 -73q-165 -1 -182 122q-44 -68 -92 -95t-121 -27q-83 11 -77.5 77t78.5 78q120 0 182.5 194t97.5 231t78 24q77 -42 24 -162q-40 -109 -57 -155.5t-7 -88t79 -43.5z" />
    <glyph glyph-name="afii57534" unicode="&#x6d5;" horiz-adv-x="997" 
d="M617 585q40 0 142 -77q79 -71 94 -98q44 -65 44 -149q0 -116 -90 -178q-130 -79 -349 -79h-40q-206 0 -255 30q-29 11 -65 46q-45 52 -45 115q0 94 102 174q74 63 144 101q68 40 164 73q82 28 101 28h9l17 8q14 6 27 6zM604 437q-10 -8 -60 -20q-100 -32 -169 -70
q-66 -36 -146 -105q-31 -29 -31 -48v-1q0 -19 42 -33q18 -8 182 -11h19q203 0 294 60q17 20 17 49v7q0 49 -38 86q-44 45 -70 62z" />
    <glyph glyph-name="afii57494" horiz-adv-x="363" 
 />
    <glyph glyph-name="afii64240" horiz-adv-x="227" 
d="M86 -1q73 0 124 -96v-20q0 -49 -88 -68h-20q-76 0 -92 116q0 59 76 68z" />
    <glyph glyph-name="afii64241" horiz-adv-x="780" 
d="M555 164q28 1 46 -10t22.5 -27.5t-5.5 -34.5t-37 -30q-58 -23 -447 -64h-8q-96 0 -96 52q0 65 108 88q151 24 417 26z" />
    <glyph glyph-name="afii63954" horiz-adv-x="615" 
d="M305 408q73 0 124 -96v-20q0 -49 -88 -68h-20q-76 0 -92 116q0 58 76 68zM555 164q35 0 52 -28l-26 -68q-9 -35 -447 -70h-8q-96 0 -96 52q0 65 108 88q151 24 417 26z" />
    <glyph glyph-name="afii57382" horiz-adv-x="759" 
d="M352 -302q72 0 124 -96v-20q0 -49 -88 -68h-20q-76 0 -92 116q0 59 76 68zM695 -2q35 0 52 -28l-26 -68q-9 -34 -590 -92h-8q-96 0 -96 52q0 66 108 88q151 24 560 48z" />
    <glyph glyph-name="afii64242" horiz-adv-x="580" 
d="M-6 1q-84 9 -79 78.5t76 75.5q171 6 249 77t97.5 203.5t73.5 167.5q20 12 51 7q86 -21 48 -161q-39 -184 -102 -270.5t-172 -135.5t-242 -42z" />
    <glyph glyph-name="afii62881" unicode="&#xe818;" 
d="M194 446q-62 -46 -180 -78.5t-195 -32.5l-37 33q268 61 422 166q40 -1 -10 -88zM192 616q-59 -49 -175 -88t-193 -44l-39 31q264 76 412 190q40 1 -5 -89zM147 326q15 -35 13.5 -134t-58 -133.5t-112.5 0.5q-54 -63 -114 -56t-68.5 65.5t36.5 159.5l31 -1
q-13 -42 -17 -90t29 -48q74 -14 87 174h35q13 -115 57 -115q53 0 53 144z" />
    <glyph glyph-name="afii57373" horiz-adv-x="454" 
d="M250 1428q24 0 52 -27q37 -35 37 -39l1 -4q0 -18 -28 -22h-5q-7 -4 -7 -13v-5q0 -23 47 -94q19 -32 19 -67q0 -47 -43 -79q-125 -125 -150 -125l-8 -1h-12q-25 0 -29 32q0 38 46 73l80 67q23 32 23 60q0 43 -62 111q-24 31 -24 59q0 49 34 67q16 7 29 7z" />
    <glyph glyph-name="afii57375" unicode="&#x653;" horiz-adv-x="1177" 
d="M1101 1448q-34 -41 -247 -64.5t-387 -92t-166.5 -171.5t12.5 -147.5t-58 -76.5l-27 1q-59 14 -65 102q-79 361 365.5 468t516 74t56.5 -93z" />
    <glyph glyph-name="afii57391" unicode="&#xe83a;" horiz-adv-x="1024" 
d="M1024 0h-1094v188h1094v-188z" />
    <glyph glyph-name="afii57471" horiz-adv-x="1806" 
d="M1811 156q49 -5 68 -36.5t8.5 -64.5t-43.5 -49t-98 7.5t-110 97.5q-28 44 -32 103q-52 -48 -113 -76q-209 -97 -389 -122t-438 -25q-501 0 -614 210q-23 60 -23 98q0 183 268 349q113 58 235 91q192 45 326 45q51 0 75 -68v-28q0 -58 -78 -75h-53q-311 0 -523 -175
q-93 -92 -93 -149q0 -134 366 -162l124 -2h2q578 24 751 139.5t197 237.5t69 156q17 7 36 7q75 -4 81 -81q-29 -98 -68 -176q-30 -104 -17 -151q18 -73 86 -101z" />
    <glyph glyph-name="afii57506" unicode="&#x67e;" horiz-adv-x="1628" 
d="M1628 908q83 -12 83 -81q0 -361 -169 -518q-165 -157 -379 -235q-237 -83 -495 -83q-501 0 -614 210q-23 60 -23 98q0 183 268 349q113 58 235 91q192 45 326 45q51 0 75 -68v-28q0 -58 -78 -75h-53q-311 0 -523 -175q-93 -92 -93 -149q0 -134 366 -162l124 -2h2
q471 0 773 313q86 102 86 374q0 65 53 89q17 7 36 7zM718 -512q72 0 124 -96v-20q0 -49 -88 -68h-20q-76 0 -92 116q0 59 76 68zM1061 -212q35 0 52 -28l-26 -68q-9 -34 -590 -92h-8q-96 0 -96 52q0 66 108 88q151 24 560 48z" />
    <glyph glyph-name="afii57505" unicode="&#x6a4;" horiz-adv-x="1555" 
 />
    <glyph glyph-name="afii62889" horiz-adv-x="2474" 
d="M1612 1029q361 -8 361 -22q45 -26 45 -77q0 -53 -62 -76l-14 -2q-230 13 -337 13q-484 0 -902 -193q-167 -72 -324 -181q-185 -135 -240 -307q-19 -77 -19 -148q0 -200 248 -387q269 -178 616 -178h22q383 0 804 197q104 53 206 130q96 82 141 143l47 67v2h-2
q-140 0 -195 132q-15 40 -15 85v13q0 173 154 264q57 25 103 25h9q126 0 188 -136q18 -51 18 -112q0 -57 -18 -126q12 1 27 1q49 -5 68 -39.5t1 -70t-44 -43.5q-24 -7 -111 -2q-12 -23 -25 -50q-47 -90 -167 -214q-114 -106 -212 -160q-104 -64 -293 -131
q-310 -100 -623 -100q-499 0 -857 266q-244 204 -244 414v28q0 112 61 263q37 88 149 210q146 134 246 184q172 105 429 195q345 123 761 123zM2156 237v-10q0 -41 29 -54q34 -16 60 -16h4q47 0 59 122l2 15q-9 71 -61 71q-55 0 -86 -78q-7 -24 -7 -50z" />
    <glyph glyph-name="afii62887" horiz-adv-x="1628" 
d="M1628 908q83 -12 83 -81q0 -361 -169 -518q-165 -157 -379 -235q-237 -83 -495 -83q-501 0 -614 210q-23 60 -23 98q0 183 268 349q113 58 235 91q192 45 326 45q51 0 75 -68v-28q0 -58 -78 -75h-53q-311 0 -523 -175q-93 -92 -93 -149q0 -134 366 -162l124 -2h2
q471 0 773 313q86 102 86 374q0 65 53 89q17 7 36 7z" />
    <glyph glyph-name="afii62888" unicode="&#x6a1;" horiz-adv-x="2470" 
d="M1007 1170h5q85 -12 85 -82v-15q0 -66 -117 -89q-415 -138 -572 -265q-171 -117 -171 -270v-25q0 -287 461 -414q119 -31 262 -31q420 0 934 254q-15 64 -15 104q0 222 181 365q75 52 134 52h7q121 0 159 -139l5 -52v-5q0 -137 -122 -292q-120 -115 -210 -154
q-130 -75 -275 -131q-392 -138 -733 -138q-425 0 -743 222q-211 164 -211 374q0 291 411 525q128 74 374 161q132 45 151 45zM2050 365q0 -30 8 -30q100 84 119 163q14 26 14 60v5l-2 12q-85 -40 -131 -158q-8 -26 -8 -52z" />
    <glyph glyph-name="afii57507" unicode="&#x686;" horiz-adv-x="1400" 
d="M484 867q102 0 337 -180q32 -12 60 -12q31 0 110 36q34 7 65 7q147 0 258 -103q14 -18 14 -29v-5q0 -68 -84 -99l-31 -4q-92 0 -296 45h-12q-87 0 -443 -245q-117 -77 -298 -253q-238 -255 -238 -444v-29q0 -266 216 -385q146 -96 402 -93h5q237 9 536 83q22 12 22 20
l-9 16v20q8 33 29 33q97 -47 134 -115l2 -12q-2 -67 -241 -108q-286 -46 -447 -46h-19q-280 0 -505 109q-33 12 -144 120q-77 96 -94 187q-17 68 -17 152v36q0 378 534 767q191 148 334 231q24 9 24 28q-24 57 -156 116l-34 5h-7q-85 -15 -219 -197q-95 -186 -120 -205h-10
q-10 0 -12 51v31q0 148 41 192q33 74 197 226q64 53 116 53zM716 -302q72 0 124 -96v-20q0 -49 -88 -68h-20q-76 0 -92 116q0 59 76 68zM1059 -2q35 0 52 -28l-26 -68q-9 -34 -590 -92h-8q-96 0 -96 52q0 66 108 88q151 24 560 48z" />
    <glyph glyph-name="afii57508" unicode="&#x698;" horiz-adv-x="553" 
d="M554 579q44 0 69 -45q7 -14 7 -31v-3q0 -26 -30 -69q-55 -93 -119 -188q-41 -72 -131 -178q-161 -211 -396 -475q-104 -114 -185 -199q-38 -43 -51 -43q-12 -6 -31 -6q-46 0 -70 50q-5 13 -5 24v6q0 36 44 73q0 3 169 168q178 179 224 239q131 154 222 290
q116 174 219 356q25 31 64 31zM527 1295q73 0 124 -96v-20q0 -49 -88 -68h-20q-76 0 -92 116q0 58 76 68zM777 1051q35 0 52 -28l-26 -68q-9 -35 -447 -70h-8q-96 0 -96 52q0 65 108 88q151 24 417 26z" />
    <glyph glyph-name="afii57567" unicode="&#x6a9;" horiz-adv-x="1802" 
d="M696 1033l14 6q70 -13 70 -69v-11q0 -65 -119 -97q-475 -194 -475 -440q0 -200 419 -284q73 -14 154 -14q293 0 675 214q106 63 252 213q115 134 115 311l-7 102q22 62 63 62h21q62 0 70 -80l3 -56v-52q0 -397 -520 -675q-340 -154 -633 -154h-35q-389 0 -626 192
q-105 111 -105 235q0 327 552 562zM3066 2133q56 0 77 -63v-21q0 -39 -101 -133q-552 -378 -1005 -448q-15 -7 -160 -28q-52 0 -67 70v17q0 37 78 53.5t182 39.5t389.5 133t564.5 366z" />
    <glyph glyph-name="afii57509" unicode="&#x6af;" horiz-adv-x="1801" 
d="M3079 2129q56 0 77 -63v-21q0 -39 -101 -133q-586 -394 -1005 -448q-15 -7 -160 -28q-52 0 -67 70v17q0 37 56 70q37 106 231 301q209 210 287 210h21q57 0 101 -91l3 -28v-11q0 -65 -195 -227q-93 -66 -147 -66h-7q-29 0 -77 35h-4q-97 -94 -105 -112h4q115 0 441 127.5
t605 383.5zM696 1033h14q70 -13 70 -69v-11q0 -65 -119 -91q-475 -194 -475 -440q0 -200 419 -284q73 -14 154 -14q293 0 675 214q106 63 252 213q115 134 115 311l-7 102q22 62 63 62h21q62 0 70 -80l3 -56v-52q0 -397 -520 -675q-340 -154 -633 -154h-35q-389 0 -626 192
q-105 111 -105 235q0 327 552 562z" />
    <glyph glyph-name="afii57555" unicode="&#x6cc;" horiz-adv-x="3204" 
d="M1591 1253q301 0 370 -98q16 -25 16 -52v-10q0 -68 -94 -127l-23 -3h-8q-53 0 -73 64v19q0 8 15 29v3q-101 18 -214 18q-517 0 -998 -253q-121 -62 -246 -167q-158 -153 -158 -271v-12q0 -152 217 -287q92 -60 348 -126q331 -80 707 -80q375 0 753 74q200 52 325 114
q206 109 206 207q0 90 -251 260q-78 53 -133 114q-45 53 -45 105v3q0 122 281 180q304 84 449 84h36q79 0 96 -59l2 -19v-2q0 -60 -64 -77l-11 -2l-51 4q-183 0 -490 -100q-54 -28 -54 -41q6 -13 86 -66q306 -185 306 -365v-18q0 -218 -338 -356q-94 -41 -312 -89
q-351 -66 -697 -66h-46q-602 0 -1094 195q-358 161 -358 418v19q0 194 212 396q104 88 191 135q534 305 1142 305z" />
    <glyph glyph-name="afii62945" horiz-adv-x="1821" 
d="M1095 0q-149 -6 -189 64q-23 28 -37 216q-15 58 -58 58l-15 2h-13q-157 0 -379 -243q-77 -98 -90 -145h3l35 5h7q81 -12 81 -78l2 -3v-2q0 -95 -150 -95q-119 0 -148 102l-3 26v22q0 140 268 384q213 175 382 175q178 0 233 -130q15 -39 23 -163q6 -40 48 -33
q100 0 128.5 130.5t37 246.5t2.5 203t28.5 120.5t71.5 4t45.5 -113t-6.5 -267.5q-9 -112 -35 -210q1 -9 3 -18q10 -73 49 -88q10 -4 19 -9q6 1 14 1q100 0 125.5 134.5t3 282.5t-57 250t-8.5 130.5t72 17t88.5 -133.5t55.5 -331t-45.5 -354.5t-233.5 -157.5q-13 1 -24 3
q-25 -5 -60 11q-41 19 -80 74q-66 -80 -193 -88z" />
    <glyph glyph-name="afii52400" unicode="&#x622;" horiz-adv-x="490" 
d="M821 1473q-34 -41 -247 -64.5t-387 -92t-166.5 -171.5t12.5 -147.5t-58 -76.5l-27 1q-59 14 -65 102q-79 361 365.5 468t516 74t56.5 -93zM306 1115q59 0 78 -64l1 -14q0 -77 -59 -689l-26 -340q-27 -60 -76 -60h-1q-80 9 -80 74q65 493 65 622q18 256 18 393q0 59 71 78
h9z" />
    <glyph glyph-name="afii57411" unicode="&#x623;" horiz-adv-x="490" 
d="M300 1657q24 0 52 -27q37 -35 37 -39l1 -4q0 -18 -28 -22h-5q-7 -4 -7 -13v-5q0 -23 47 -94q19 -32 19 -67q0 -47 -43 -79q-125 -125 -150 -125l-8 -1h-12q-25 0 -29 32q0 38 46 73l80 67q23 32 23 60q0 43 -62 111q-24 31 -24 59q0 49 34 67q16 7 29 7zM306 1115
q59 0 78 -64l1 -14q0 -77 -59 -689l-26 -340q-27 -60 -76 -60h-1q-80 9 -80 74q65 493 65 622q18 256 18 393q0 59 71 78h9z" />
    <glyph glyph-name="afii57412" unicode="&#x624;" horiz-adv-x="555" 
d="M482 585q87 -8 114 -116q4 -38 1 -69q-18 -207 -227 -509q-67 -96 -240 -254q-177 -161 -227 -175l-15 1q-37 3 -59 52q-7 13 -5 33l1 4q5 57 76 100q76 65 165 150q126 120 177 199q-131 56 -120 181q13 140 198 338q85 72 161 65zM325 144q26 18 84 166l19 80
q-91 -89 -133 -196q-6 -40 30 -50zM435 1212q24 0 52 -27q37 -35 37 -39l1 -4q0 -18 -28 -22h-5q-7 -4 -7 -13v-5q0 -23 47 -94q19 -32 19 -67q0 -47 -43 -79q-125 -125 -150 -125l-8 -1h-12q-25 0 -29 32q0 38 46 73l80 67q23 32 23 60q0 43 -62 111q-24 31 -24 59
q0 49 34 67q16 7 29 7z" />
    <glyph glyph-name="afii57413" unicode="&#x625;" horiz-adv-x="490" 
d="M306 1115q59 0 78 -64l1 -14q0 -77 -59 -689l-26 -340q-27 -60 -76 -60h-1q-80 9 -80 74q65 493 65 622q18 256 18 393q0 59 71 78h9zM215 -222q24 0 52 -27q37 -35 37 -39l1 -4q0 -18 -28 -22h-5q-7 -4 -7 -13v-5q0 -23 47 -94q19 -32 19 -67q0 -47 -43 -79
q-125 -125 -150 -125l-8 -1h-12q-25 0 -29 32q0 38 46 73l80 67q23 32 23 60q0 43 -62 111q-24 31 -24 59q0 49 34 67q16 7 29 7z" />
    <glyph glyph-name="afii57414" unicode="&#x626;" horiz-adv-x="3204" 
d="M1591 1253q301 0 370 -98q16 -25 16 -52v-10q0 -68 -94 -127l-23 -3h-8q-53 0 -73 64v19q0 8 15 29v3q-101 18 -214 18q-517 0 -998 -253q-121 -62 -246 -167q-158 -153 -158 -271v-12q0 -152 217 -287q92 -60 348 -126q331 -80 707 -80q375 0 753 74q200 52 325 114
q206 109 206 207q0 90 -251 260q-78 53 -133 114q-45 53 -45 105v3q0 122 281 180q304 84 449 84h36q79 0 96 -59l2 -19v-2q0 -60 -64 -77l-11 -2l-51 4q-183 0 -490 -100q-54 -28 -54 -41q6 -13 86 -66q306 -185 306 -365v-18q0 -218 -338 -356q-94 -41 -312 -89
q-351 -66 -697 -66h-46q-602 0 -1094 195q-358 161 -358 418v19q0 194 212 396q104 88 191 135q534 305 1142 305zM1556 1933q24 0 52 -27q37 -35 37 -39l1 -4q0 -18 -28 -22h-5q-7 -4 -7 -13v-5q0 -23 47 -94q19 -32 19 -67q0 -47 -43 -79q-125 -125 -150 -125l-8 -1h-12
q-25 0 -29 32q0 38 46 73l80 67q23 32 23 60q0 43 -62 111q-24 31 -24 59q0 49 34 67q16 7 29 7z" />
    <glyph glyph-name="afii57415.001" unicode="&#x627;" horiz-adv-x="490" 
d="M306 1115q59 0 78 -64l1 -14q0 -77 -59 -689l-26 -340q-27 -60 -76 -60h-1q-80 9 -80 74q65 493 65 622q18 256 18 393q0 59 71 78h9z" />
    <glyph glyph-name="afii62760.001" horiz-adv-x="387" 
d="M499 958h27q51 0 69 -62v-15q0 -41 -115 -159q-224 -265 -224 -401v-23q22 -142 122 -142q71 0 78 -63v-23q0 -62 -85 -70q-193 0 -262 213l-8 85v11q0 249 367 637z" />
    <glyph glyph-name="afii57416" unicode="&#x628;" horiz-adv-x="1628" 
d="M1628 908q83 -12 83 -81q0 -361 -169 -518q-165 -157 -379 -235q-237 -83 -495 -83q-501 0 -614 210q-23 60 -23 98q0 183 268 349q113 58 235 91q192 45 326 45q51 0 75 -68v-28q0 -58 -78 -75h-53q-311 0 -523 -175q-93 -92 -93 -149q0 -134 366 -162l124 -2h2
q471 0 773 313q86 102 86 374q0 65 53 89q17 7 36 7zM800 -227q73 0 124 -96v-20q0 -49 -88 -68h-20q-76 0 -92 116q0 59 76 68z" />
    <glyph glyph-name="afii57417" unicode="&#x629;" horiz-adv-x="997" 
d="M617 585q40 0 142 -77q79 -71 94 -98q44 -65 44 -149q0 -116 -90 -178q-130 -79 -349 -79h-40q-206 0 -255 30q-29 11 -65 46q-45 52 -45 115q0 94 102 174q74 63 144 101q68 40 164 73q82 28 101 28h9l17 8q14 6 27 6zM604 437q-10 -8 -60 -20q-100 -32 -169 -70
q-66 -36 -146 -105q-31 -29 -31 -48v-1q0 -19 42 -33q18 -8 182 -11h19q203 0 294 60q17 20 17 49v7q0 49 -38 86q-44 45 -70 62zM674 930q28 1 46 -10t22.5 -27.5t-5.5 -34.5t-37 -30q-58 -23 -447 -64h-8q-96 0 -96 52q0 65 108 88q151 24 417 26z" />
    <glyph glyph-name="afii57418" unicode="&#x62a;" horiz-adv-x="1628" 
d="M1628 908q83 -12 83 -81q0 -361 -169 -518q-165 -157 -379 -235q-237 -83 -495 -83q-501 0 -614 210q-23 60 -23 98q0 183 268 349q113 58 235 91q192 45 326 45q51 0 75 -68v-28q0 -58 -78 -75h-53q-311 0 -523 -175q-93 -92 -93 -149q0 -134 366 -162l124 -2h2
q471 0 773 313q86 102 86 374q0 65 53 89q17 7 36 7zM1351 1133q28 1 46 -10t22.5 -27.5t-5.5 -34.5t-37 -30q-58 -23 -447 -64h-8q-96 0 -96 52q0 65 108 88q151 24 417 26z" />
    <glyph glyph-name="afii57419" unicode="&#x62b;" horiz-adv-x="1628" 
d="M1628 908q83 -12 83 -81q0 -361 -169 -518q-165 -157 -379 -235q-237 -83 -495 -83q-501 0 -614 210q-23 60 -23 98q0 183 268 349q113 58 235 91q192 45 326 45q51 0 75 -68v-28q0 -58 -78 -75h-53q-311 0 -523 -175q-93 -92 -93 -149q0 -134 366 -162l124 -2h2
q471 0 773 313q86 102 86 374q0 65 53 89q17 7 36 7zM1210 1361q73 0 124 -96v-20q0 -49 -88 -68h-20q-76 0 -92 116q0 58 76 68zM1460 1117q35 0 52 -28l-26 -68q-9 -35 -447 -70h-8q-96 0 -96 52q0 65 108 88q151 24 417 26z" />
    <glyph glyph-name="afii57420" unicode="&#x62c;" horiz-adv-x="1400" 
d="M626 -169q73 0 124 -96v-20q0 -49 -88 -68h-20q-76 0 -92 116q0 59 76 68zM484 867q102 0 337 -180q32 -12 60 -12q31 0 110 36q34 7 65 7q147 0 258 -103q14 -18 14 -29v-5q0 -68 -84 -99l-31 -4q-92 0 -296 45h-12q-87 0 -443 -245q-117 -77 -298 -253
q-238 -255 -238 -444v-29q0 -266 216 -385q146 -96 402 -93h5q237 9 536 83q22 12 22 20l-9 16v20q8 33 29 33q97 -47 134 -115l2 -12q-2 -67 -241 -108q-286 -46 -447 -46h-19q-280 0 -505 109q-33 12 -144 120q-77 96 -94 187q-17 68 -17 152v36q0 378 534 767
q191 148 334 231q24 9 24 28q-24 57 -156 116l-34 5h-7q-85 -15 -219 -197q-95 -186 -120 -205h-10q-10 0 -12 51v31q0 148 41 192q33 74 197 226q64 53 116 53z" />
    <glyph glyph-name="afii57421" unicode="&#x62d;" horiz-adv-x="1400" 
d="M484 867q102 0 337 -180q32 -12 60 -12q31 0 110 36q34 7 65 7q147 0 258 -103q14 -18 14 -29v-5q0 -68 -84 -99l-31 -4q-92 0 -296 45h-12q-87 0 -443 -245q-117 -77 -298 -253q-238 -255 -238 -444v-29q0 -266 216 -385q146 -96 402 -93h5q237 9 536 83q22 12 22 20
l-9 16v20q8 33 29 33q97 -47 134 -115l2 -12q-2 -67 -241 -108q-286 -46 -447 -46h-19q-280 0 -505 109q-33 12 -144 120q-77 96 -94 187q-17 68 -17 152v36q0 378 534 767q191 148 334 231q24 9 24 28q-24 57 -156 116l-34 5h-7q-85 -15 -219 -197q-95 -186 -120 -205h-10
q-10 0 -12 51v31q0 148 41 192q33 74 197 226q64 53 116 53z" />
    <glyph glyph-name="afii57422" unicode="&#x62e;" horiz-adv-x="1400" 
d="M484 867q102 0 337 -180q32 -12 60 -12q31 0 110 36q34 7 65 7q147 0 258 -103q14 -18 14 -29v-5q0 -68 -84 -99l-31 -4q-92 0 -296 45h-12q-87 0 -443 -245q-117 -77 -298 -253q-238 -255 -238 -444v-29q0 -266 216 -385q146 -96 402 -93h5q237 9 536 83q22 12 22 20
l-9 16v20q8 33 29 33q97 -47 134 -115l2 -12q-2 -67 -241 -108q-286 -46 -447 -46h-19q-280 0 -505 109q-33 12 -144 120q-77 96 -94 187q-17 68 -17 152v36q0 378 534 767q191 148 334 231q24 9 24 28q-24 57 -156 116l-34 5h-7q-85 -15 -219 -197q-95 -186 -120 -205h-10
q-10 0 -12 51v31q0 148 41 192q33 74 197 226q64 53 116 53zM424 1247q73 0 124 -96v-20q0 -49 -88 -68h-20q-76 0 -92 116q0 59 76 68z" />
    <glyph glyph-name="afii57423" unicode="&#x62f;" horiz-adv-x="701" 
d="M366 757h5q59 0 100 -103q103 -181 103 -347q0 -169 -126 -272q-114 -101 -281 -186q-253 -119 -303 -119q-76 14 -76 69v20q0 60 99 73q153 49 267 109q120 61 244 175q46 53 46 117v2q0 114 -149 359l-4 27q12 76 75 76z" />
    <glyph glyph-name="afii57424" unicode="&#x630;" horiz-adv-x="701" 
d="M366 757h5q59 0 100 -103q103 -181 103 -347q0 -169 -126 -272q-114 -101 -281 -186q-253 -119 -303 -119q-76 14 -76 69v20q0 60 99 73q153 49 267 109q120 61 244 175q46 53 46 117v2q0 114 -149 359l-4 27q12 76 75 76zM305 1094q73 0 124 -96v-20q0 -49 -88 -68h-20
q-76 0 -92 116q0 59 76 68z" />
    <glyph glyph-name="afii57425" unicode="&#x631;" horiz-adv-x="553" 
d="M554 579q44 0 69 -45q7 -14 7 -31v-3q0 -26 -30 -69q-55 -93 -119 -188q-41 -72 -131 -178q-161 -211 -396 -475q-104 -114 -185 -199q-38 -43 -51 -43q-12 -6 -31 -6q-46 0 -70 50q-5 13 -5 24v6q0 36 44 73q0 3 169 168q178 179 224 239q131 154 222 290
q116 174 219 356q25 31 64 31z" />
    <glyph glyph-name="afii57426" unicode="&#x632;" horiz-adv-x="553" 
d="M554 579q44 0 69 -45q7 -14 7 -31v-3q0 -26 -30 -69q-55 -93 -119 -188q-41 -72 -131 -178q-161 -211 -396 -475q-104 -114 -185 -199q-38 -43 -51 -43q-12 -6 -31 -6q-46 0 -70 50q-5 13 -5 24v6q0 36 44 73q0 3 169 168q178 179 224 239q131 154 222 290
q116 174 219 356q25 31 64 31zM517 981q73 0 124 -96v-20q0 -49 -88 -68h-20q-76 0 -92 116q0 59 76 68z" />
    <glyph glyph-name="afii57427" unicode="&#x633;" horiz-adv-x="3104" 
d="M1279 1454q101 -16 101 -94v-12q0 -57 -68 -106l-33 -8q-46 0 -70 43q-199 -18 -366 -61q-171 -49 -280 -108q-95 -52 -186 -141q-180 -189 -180 -394v-5q0 -237 177 -411q268 -216 673 -216q458 0 860 279q132 99 172 227l2 18q-20 100 -20 134v20q0 79 45 101
q29 12 43 12q99 0 99 -196v-13l-3 -30l111 -8q249 0 560 83q88 -13 88 -85q0 -85 -146 -104q-266 -63 -492 -63q-99 0 -169 18q-149 -286 -608 -471q-230 -78 -441 -78h-68q-398 0 -749 244q-114 89 -181 184q-124 179 -124 355q0 250 189 477q120 127 169 151
q143 102 356 169q144 43 350 73q147 16 189 16z" />
    <glyph glyph-name="afii57428" unicode="&#x634;" horiz-adv-x="1464" 
d="M1279 1454q101 -16 101 -94v-12q0 -57 -68 -106l-33 -8q-46 0 -70 43q-199 -18 -366 -61q-171 -49 -280 -108q-95 -52 -186 -141q-180 -189 -180 -394v-5q0 -237 177 -411q268 -216 673 -216q458 0 860 279q132 99 172 227l2 18q-20 100 -20 134v20q0 79 45 101
q29 12 43 12q99 0 99 -196v-13l-3 -30l111 -8q249 0 560 83q88 -13 88 -85q0 -85 -146 -104q-266 -63 -492 -63q-99 0 -169 18q-149 -286 -608 -471q-230 -78 -441 -78h-68q-398 0 -749 244q-114 89 -181 184q-124 179 -124 355q0 250 189 477q120 127 169 151
q143 102 356 169q144 43 350 73q147 16 189 16zM2518 1361q73 0 124 -96v-20q0 -49 -88 -68h-20q-76 0 -92 116q0 58 76 68zM2768 1117q35 0 52 -28l-26 -68q-9 -35 -447 -70h-8q-96 0 -96 52q0 65 108 88q151 24 417 26z" />
    <glyph glyph-name="afii57429" unicode="&#x635;" horiz-adv-x="2916" 
d="M1225 1013h58q73 0 86 -65v-17q-16 -69 -62 -69h-92q-503 0 -924 -328q-143 -130 -143 -277q0 -233 318 -390q162 -58 352 -58h75q366 0 770 260q189 129 270 349l14 44q-21 57 -21 127q8 167 52 167q0 11 48 17q92 -16 92 -119l3 -35l-13 -136q17 -35 48 -35
q31 69 232 267q239 202 421 202q138 0 175 -137l3 -34v-24q0 -171 -311 -359q-178 -93 -377 -93h-3q-48 0 -92 18q-87 -147 -93 -148h-3q-48 17 -48 86v7q0 36 24 85l-28 14q-105 -289 -431 -472q-323 -177 -691 -177q-650 0 -875 351q-62 107 -62 233q0 397 708 664
q258 82 520 82zM2282 418v-4h17q258 0 445 181q96 91 96 137q0 35 -27 35h-11q-146 0 -479 -298z" />
    <glyph glyph-name="afii57430" unicode="&#x636;" horiz-adv-x="2916" 
d="M1225 1013h58q73 0 86 -65v-17q-16 -69 -62 -69h-92q-503 0 -924 -328q-143 -130 -143 -277q0 -233 318 -390q162 -58 352 -58h75q366 0 770 260q189 129 270 349l14 44q-21 57 -21 127q8 167 52 167q0 11 48 17q92 -16 92 -119l3 -35l-13 -136q17 -35 48 -35
q31 69 232 267q239 202 421 202q138 0 175 -137l3 -34v-24q0 -171 -311 -359q-178 -93 -377 -93h-3q-48 0 -92 18q-87 -147 -93 -148h-3q-48 17 -48 86v7q0 36 24 85l-28 14q-105 -289 -431 -472q-323 -177 -691 -177q-650 0 -875 351q-62 107 -62 233q0 397 708 664
q258 82 520 82zM2282 418v-4h17q258 0 445 181q96 91 96 137q0 35 -27 35h-11q-146 0 -479 -298zM2279 1220q73 0 124 -96v-20q0 -49 -88 -68h-20q-76 0 -92 116q0 59 76 68z" />
    <glyph glyph-name="afii57431" unicode="&#x637;" horiz-adv-x="1053" 
d="M826 1683q57 0 79 -62v-24q-100 -468 -128 -814l-5 -57h2q94 57 162 57q101 0 140 -112l5 -40q18 -347 -213.5 -495.5t-594.5 -135.5q-163 -2 -163 10q-39 28 -39 66q12 81 77 81l99 3v22q0 38 164 228q149 157 202 197l-7 31q0 166 73 636q50 275 78 373q30 36 69 36z
M432 182h3q156 -28 317 71t179 242.5t-57 114.5t-246 -193q-158 -173 -196 -235z" />
    <glyph glyph-name="afii57432" unicode="&#x638;" horiz-adv-x="1053" 
d="M826 1683q57 0 79 -62v-24q-100 -468 -128 -814l-5 -57h2q94 57 162 57q101 0 140 -112l5 -40q18 -347 -213.5 -495.5t-594.5 -135.5q-163 -2 -163 10q-39 28 -39 66q12 81 77 81l99 3v22q0 38 164 228q149 157 202 197l-7 31q0 166 73 636q50 275 78 373q30 36 69 36z
M432 182h3q156 -28 317 71t179 242.5t-57 114.5t-246 -193q-158 -173 -196 -235zM1034 1314q73 0 124 -96v-20q0 -49 -88 -68h-20q-76 0 -92 116q0 59 76 68z" />
    <glyph glyph-name="afii57433" unicode="&#x639;" horiz-adv-x="1201" 
d="M991 849h12q62 -15 62 -61v-20q0 -50 -89 -72q-69 -27 -191 -136q-85 -86 -85 -121v-2l6 -2q257 85 338 85q60 0 70 -77q0 -89 -257 -146q-41 -9 -87 -9h-43l-2 2q-307 -85 -567 -290q-137 -125 -178 -185q-104 -150 -104 -253v-27q0 -110 101.5 -221t336.5 -170
t471.5 -22.5t341 79.5t171.5 43t67 -81q0 -65 -112 -91t-350.5 -68.5t-598 0t-515.5 348.5q-41 96 -41 191q0 333 440 654q140 92 246 140l134 53q-13 26 -13 47q0 151 270 340q105 65 166 72z" />
    <glyph glyph-name="afii57434" unicode="&#x63a;" horiz-adv-x="1201" 
d="M991 849h12q62 -15 62 -61v-20q0 -50 -89 -72q-69 -27 -191 -136q-85 -86 -85 -121v-2l6 -2q257 85 338 85q60 0 70 -77q0 -89 -257 -146q-41 -9 -87 -9h-43l-2 2q-307 -85 -567 -290q-137 -125 -178 -185q-104 -150 -104 -253v-27q0 -110 101.5 -221t336.5 -170
t471.5 -22.5t341 79.5t171.5 43t67 -81q0 -65 -112 -91t-350.5 -68.5t-598 0t-515.5 348.5q-41 96 -41 191q0 333 440 654q140 92 246 140l134 53q-13 26 -13 47q0 151 270 340q105 65 166 72zM809 1248q73 0 124 -96v-20q0 -49 -88 -68h-20q-76 0 -92 116q0 59 76 68z" />
    <glyph glyph-name="afii57441" unicode="&#x641;" horiz-adv-x="2410" 
d="M1007 1170h5q85 -12 85 -82v-15q0 -66 -117 -89q-415 -138 -572 -265q-171 -117 -171 -270v-25q0 -287 461 -414q119 -31 262 -31q420 0 934 254q-15 64 -15 104q0 222 181 365q75 52 134 52h7q121 0 159 -139l5 -52v-5q0 -137 -122 -292q-120 -115 -210 -154
q-130 -75 -275 -131q-392 -138 -733 -138q-425 0 -743 222q-211 164 -211 374q0 291 411 525q128 74 374 161q132 45 151 45zM2050 365q0 -30 8 -30q100 84 119 163q14 26 14 60v5l-2 12q-85 -40 -131 -158q-8 -26 -8 -52zM2072 1210q73 0 124 -96v-20q0 -49 -88 -68h-20
q-76 0 -92 116q0 59 76 68z" />
    <glyph glyph-name="afii57442" unicode="&#x642;" horiz-adv-x="2696" 
d="M1708 1294q361 -8 361 -22q45 -26 45 -77q0 -53 -62 -76l-14 -2q-230 13 -337 13q-484 0 -902 -193q-167 -72 -324 -181q-185 -135 -240 -307q-19 -77 -19 -148q0 -201 248 -387q269 -178 616 -178h22q383 0 804 197q104 53 206 129q96 82 141 144l47 67v2h-2
q-140 0 -195 132q-15 40 -15 85v13q0 173 154 264q57 25 103 25h9q126 0 188 -136q18 -51 18 -112q0 -136 -102 -331q-47 -90 -167 -214q-114 -105 -212 -159q-104 -64 -293 -131q-310 -100 -623 -100q-499 0 -857 266q-244 204 -244 414v28q0 112 61 263q37 88 149 210
q146 134 246 184q172 105 429 195q345 123 761 123zM2252 502v-10q0 -41 29 -54q34 -16 60 -16h4q47 0 59 122l2 15q-9 71 -61 71q-55 0 -86 -78q-7 -24 -7 -50zM2497 1617q28 1 46 -10t22.5 -27.5t-5.5 -34.5t-37 -30q-58 -23 -447 -64h-8q-96 0 -96 52q0 65 108 88
q151 24 417 26z" />
    <glyph glyph-name="afii57443" unicode="&#x643;" horiz-adv-x="1865" 
d="M583 980h14q70 -13 70 -69v-11q0 -65 -119 -91q-362 -141 -362 -387q0 -200 419 -284q73 -14 154 -14q293 0 675 214q204 114 308.5 309.5t55.5 722.5q22 62 63 62h21q122 -47 69 -594q-70 -457 -520 -675q-340 -154 -633 -154h-35q-389 0 -626 192q-105 111 -105 235
q0 327 439 509zM1272 1169q41 -15 64.5 -54.5t23.5 -43.5v-5q-3 -20 -47 -17l-6 2q-8 -4 -9 -13l-1 -6q-4 -23 36 -107q14 -36 9 -73q-10 -58 -110 -124t-125 -62h-9l-13 2q-27 4 -33 39.5t48 64.5q125 81 130 111q5 45 -26 106t-26 110q10 46 36.5 60.5t57.5 9.5z" />
    <glyph glyph-name="afii57444" unicode="&#x644;" horiz-adv-x="2198" 
d="M2047 1288q62 0 83 -73v-5l3 -206q7 -588 -119 -791q-52 -104 -236 -298q-406 -396 -961 -396h-68q-347 0 -563 160q-155 131 -155 286v31q0 175 193 367q188 165 357 215q213 66 348 66q145 0 169 -96l3 -28q-14 -104 -96 -104q-54 0 -66 56h-5q-150 0 -378 -86
q-380 -191 -380 -426q0 -174 263 -261q109 -33 266 -33h3q837 0 1166 646q87 145 87 670v200l-3 23q0 56 66 81z" />
    <glyph glyph-name="afii57445" unicode="&#x645;" horiz-adv-x="1500" 
d="M1157 728q168 0 269 -150q54 -90 54 -198q0 -187 -207 -325q-98 -52 -165 -52h-28q-108 0 -198 101q-68 86 -68 209v5q0 102 119 250v2q-122 -35 -228 -82q-126 -57 -250 -144q-228 -177 -228 -351q0 -254 231 -497q19 -21 19 -47v-15q0 -59 -64 -79l-16 -1q-45 0 -85 59
q-168 204 -219 438q-19 98 -19 161q0 329 480 563q349 153 603 153zM971 312v-12q0 -118 112 -160l33 -5q74 0 170 102q61 81 61 148q0 82 -98 160q-39 19 -55 19q-61 0 -174 -130q-49 -72 -49 -122z" />
    <glyph glyph-name="afii57446" unicode="&#x646;" horiz-adv-x="2442" 
d="M2268 982h22q65 0 74 -99q39 -243 39 -422q0 -247 -85 -358q-161 -230 -386 -354q-425 -258 -900 -258q-456 0 -830 248q-184 151 -184 332q0 267 337 514q485 304 861 354q74 -13 74 -70v-22q0 -63 -152 -81q-55 0 -351 -114q-250 -121 -439 -269q-174 -171 -174 -308
q0 -154 177 -294q254 -156 603 -156h39q594 0 1056 382q154 151 184 277q14 68 14 184q0 143 -42 447v3q21 64 63 64zM1545 412q73 0 124 -96v-20q0 -49 -88 -68h-20q-76 0 -92 116q0 58 76 68z" />
    <glyph glyph-name="afii57447" unicode="&#x647;" horiz-adv-x="997" 
d="M617 585q40 0 142 -77q79 -71 94 -98q44 -65 44 -149q0 -116 -90 -178q-130 -79 -349 -79h-40q-206 0 -255 30q-29 11 -65 46q-45 52 -45 115q0 94 102 174q74 63 144 101q68 40 164 73q82 28 101 28h9l17 8q14 6 27 6zM604 437q-10 -8 -60 -20q-100 -32 -169 -70
q-66 -36 -146 -105q-31 -29 -31 -48v-1q0 -19 42 -33q18 -8 182 -11h19q203 0 294 60q17 20 17 49v7q0 49 -38 86q-44 45 -70 62z" />
    <glyph glyph-name="afii57448" unicode="&#x648;" horiz-adv-x="555" 
d="M482 585q87 -8 114 -116q4 -38 1 -69q-18 -207 -227 -509q-67 -96 -240 -254q-177 -161 -227 -175l-15 1q-37 3 -59 52q-7 13 -5 33l1 4q5 57 76 100q76 65 165 150q126 120 177 199q-131 56 -120 181q13 140 198 338q85 72 161 65zM325 144q26 18 84 166l19 80
q-91 -89 -133 -196q-6 -40 30 -50z" />
    <glyph glyph-name="afii57449" unicode="&#x649;" horiz-adv-x="3204" 
d="M1591 1253q301 0 370 -98q16 -25 16 -52v-10q0 -68 -94 -127l-23 -3h-8q-53 0 -73 64v19q0 8 15 29v3q-101 18 -214 18q-517 0 -998 -253q-121 -62 -246 -167q-158 -153 -158 -271v-12q0 -152 217 -287q92 -60 348 -126q331 -80 707 -80q375 0 753 74q200 52 325 114
q206 109 206 207q0 90 -251 260q-78 53 -133 114q-45 53 -45 105v3q0 122 281 180q304 84 449 84h36q79 0 96 -59l2 -19v-2q0 -60 -64 -77l-11 -2l-51 4q-183 0 -490 -100q-54 -28 -54 -41q6 -13 86 -66q306 -185 306 -365v-18q0 -218 -338 -356q-94 -41 -312 -89
q-351 -66 -697 -66h-46q-602 0 -1094 195q-358 161 -358 418v19q0 194 212 396q104 88 191 135q534 305 1142 305z" />
    <glyph glyph-name="afii57450" unicode="&#x64a;" horiz-adv-x="3204" 
d="M1591 1253q301 0 370 -98q16 -25 16 -52v-10q0 -68 -94 -127l-23 -3h-8q-53 0 -73 64v19q0 8 15 29v3q-101 18 -214 18q-517 0 -998 -253q-121 -62 -246 -167q-158 -153 -158 -271v-12q0 -152 217 -287q92 -60 348 -126q331 -80 707 -80q375 0 753 74q200 52 325 114
q206 109 206 207q0 90 -251 260q-78 53 -133 114q-45 53 -45 105v3q0 122 281 180q304 84 449 84h36q79 0 96 -59l2 -19v-2q0 -60 -64 -77l-11 -2l-51 4q-183 0 -490 -100q-54 -28 -54 -41q6 -13 86 -66q306 -185 306 -365v-18q0 -218 -338 -356q-94 -41 -312 -89
q-351 -66 -697 -66h-46q-602 0 -1094 195q-358 161 -358 418v19q0 194 212 396q104 88 191 135q534 305 1142 305zM1617 -421q28 1 46 -10t22.5 -27.5t-5.5 -34.5t-37 -30q-58 -23 -447 -64h-8q-96 0 -96 52q0 65 108 88q151 24 417 26z" />
    <glyph glyph-name="uni06C0" unicode="&#x6c0;" horiz-adv-x="492" 
d="M617 585q40 0 142 -77q79 -71 94 -98q44 -65 44 -149q0 -116 -90 -178q-130 -79 -349 -79h-40q-206 0 -255 30q-29 11 -65 46q-45 52 -45 115q0 94 102 174q74 63 144 101q68 40 164 73q82 28 101 28h9l17 8q14 6 27 6zM604 437q-10 -8 -60 -20q-100 -32 -169 -70
q-66 -36 -146 -105q-31 -29 -31 -48v-1q0 -19 42 -33q18 -8 182 -11h19q203 0 294 60q17 20 17 49v7q0 49 -38 86q-44 45 -70 62zM501 1142q24 0 52 -27q37 -35 37 -39l1 -4q0 -18 -28 -22h-5q-7 -4 -7 -13v-5q0 -23 47 -94q19 -32 19 -67q0 -47 -43 -79
q-125 -125 -150 -125l-8 -1h-12q-25 0 -29 32q0 38 46 73l80 67q23 32 23 60q0 43 -62 111q-24 31 -24 59q0 49 34 67q16 7 29 7z" />
    <glyph glyph-name="uni040d" unicode="&#x400;" horiz-adv-x="1149" 
 />
    <glyph glyph-name="uni0450" unicode="&#x45d;" horiz-adv-x="1154" 
 />
    <glyph glyph-name="uni045D" unicode="&#x40d;" horiz-adv-x="1372" 
d="M910 1308l-285 179q-24 18 -38.5 37.5t-14.5 42.5q0 26 17 42t47 16q19 0 35.5 -9.5t41.5 -34.5l271 -273h-74z" />
    <glyph glyph-name="afii59759" unicode="&#xe4f;" horiz-adv-x="1233" 
d="M616 983q207 0 353.5 -146.5t146.5 -353.5q0 -206 -146.5 -352.5t-353.5 -146.5q-206 0 -352.5 146.5t-146.5 352.5q0 207 146.5 353.5t352.5 146.5zM616 147q142 0 233 95t91 241t-91 241t-233 95q-141 0 -232 -95t-91 -241t91 -241t232 -95zM616 598q48 0 81.5 -33
t33.5 -80t-33.5 -80.5t-81.5 -33.5q-47 0 -80.5 33.5t-33.5 80.5t33.5 80t80.5 33z" />
    <glyph glyph-name="afii59760" unicode="&#xe50;" horiz-adv-x="1233" 
d="M616 924q218 0 359 -129.5t141 -341.5q0 -211 -141 -340t-359 -129q-217 0 -358 129t-141 340q0 212 141 341.5t358 129.5zM616 150q149 0 236.5 81t87.5 222t-88 224t-236 83q-147 0 -235 -83t-88 -224q0 -143 88.5 -223t234.5 -80z" />
    <glyph glyph-name="glyph279" 
d="M36 1831v-968h-72v968h72zM36 543v-966h-72v966h72z" />
    <glyph glyph-name="glyph280" 
d="M-234 -423v71h198v2112h-198v71h468v-71h-198v-2112h198v-71h-468z" />
    <glyph glyph-name="glyph281" 
d="M224 1646l-188 -142v-1927h-72v2254z" />
    <glyph glyph-name="glyph282" 
d="M36 1831v-2254h-72v1927l-188 142z" />
    <glyph glyph-name="glyph283" 
d="M36 1831v-2183h198v-71h-270v2254h72z" />
    <glyph glyph-name="glyph284" 
d="M224 1646l-188 -142v-1927h-72v1927l-188 137l224 190z" />
    <glyph glyph-name="uni0679" unicode="&#x679;" horiz-adv-x="1912" 
 />
    <glyph glyph-name="uni0688" unicode="&#x688;" horiz-adv-x="590" 
 />
    <glyph glyph-name="uni0691" unicode="&#x691;" horiz-adv-x="643" 
 />
    <glyph glyph-name="uni06C1" unicode="&#x6c1;" horiz-adv-x="1066" 
 />
    <glyph glyph-name="uni06C2" unicode="&#x6c2;" horiz-adv-x="1066" 
 />
    <glyph glyph-name="uni06C3" unicode="&#x6c3;" horiz-adv-x="1066" 
 />
    <glyph glyph-name="uni06D2" unicode="&#x6d2;" horiz-adv-x="1872" 
 />
    <glyph glyph-name="uni06D3" unicode="&#x6d3;" horiz-adv-x="1872" 
 />
    <glyph glyph-name="uni06D4" unicode="&#x6d4;" horiz-adv-x="524" 
 />
    <glyph glyph-name="uni0670" unicode="&#x670;" 
d="M-22 -1q12 169 -2 346q14 48 36.5 73.5t27.5 11.5q19 -316 -62 -431z" />
    <glyph glyph-name="glyph298" horiz-adv-x="458" 
d="M235 1433q31 24 59 28.5t49 -6.5t34 -36t13 -62l-1 -80h-320v58h54zM203 1335h128v30q-2 29 -20 37t-48 -14z" />
    <glyph glyph-name="glyph299" horiz-adv-x="2696" 
d="M1708 1294q361 -8 361 -22q45 -26 45 -77q0 -53 -62 -76l-14 -2q-230 13 -337 13q-484 0 -902 -193q-167 -72 -324 -181q-185 -135 -240 -307q-19 -77 -19 -148q0 -201 248 -387q269 -178 616 -178h22q383 0 804 197q104 53 206 129q96 82 141 144l47 67v2h-2
q-140 0 -195 132q-15 40 -15 85v13q0 173 154 264q57 25 103 25h9q126 0 188 -136q18 -51 18 -112q0 -136 -102 -331q-47 -90 -167 -214q-114 -105 -212 -159q-104 -64 -293 -131q-310 -100 -623 -100q-499 0 -857 266q-244 204 -244 414v28q0 112 61 263q37 88 149 210
q146 134 246 184q172 105 429 195q345 123 761 123zM2252 502v-10q0 -41 29 -54q34 -16 60 -16h4q47 0 59 122l2 15q-9 71 -61 71q-55 0 -86 -78q-7 -24 -7 -50z" />
    <glyph glyph-name="glyph300" horiz-adv-x="267" 
 />
    <glyph glyph-name="uni0654" unicode="&#x654;" 
d="M-48 1228q24 0 52 -27q37 -35 37 -39l1 -4q0 -18 -28 -22h-5q-7 -4 -7 -13v-5q0 -23 47 -94q19 -32 19 -67q0 -47 -43 -79q-125 -125 -150 -125l-8 -1h-12q-25 0 -29 32q0 38 46 73l80 67q23 32 23 60q0 43 -62 111q-24 31 -24 59q0 49 34 67q16 7 29 7z" />
    <glyph glyph-name="uni0655" unicode="&#x655;" 
d="M-50 1227q24 0 52 -27q37 -35 37 -39l1 -4q0 -18 -28 -22h-5q-7 -4 -7 -13v-5q0 -23 47 -94q19 -32 19 -67q0 -47 -43 -79q-125 -125 -150 -125l-8 -1h-12q-25 0 -29 32q0 38 46 73l80 67q23 32 23 60q0 43 -62 111q-24 31 -24 59q0 49 34 67q16 7 29 7z" />
    <glyph glyph-name="uni0671" unicode="&#x671;" horiz-adv-x="490" 
d="M306 1115q59 0 78 -64l1 -14q0 -77 -59 -689l-26 -340q-27 -60 -76 -60h-1q-80 9 -80 74q65 493 65 622q18 256 18 393q0 59 71 78h9zM327 1400q31 24 59 28.5t49 -6.5t34 -36t13 -62l-1 -80h-320v58h54zM295 1302h128v30q-2 29 -20 37t-48 -14z" />
    <glyph glyph-name="uni0672" unicode="&#x672;" horiz-adv-x="490" 
d="M306 1115q59 0 78 -64l1 -14q0 -77 -59 -689l-26 -340q-27 -60 -76 -60h-1q-80 9 -80 74q65 493 65 622q18 256 18 393q0 59 71 78h9zM341 1764q24 0 52 -27q37 -35 37 -39l1 -4q0 -18 -28 -22h-5q-7 -4 -7 -13v-5q0 -23 47 -94q19 -32 19 -67q0 -47 -43 -79
q-125 -125 -150 -125l-8 -1h-12q-25 0 -29 32q0 38 46 73l80 67q23 32 23 60q0 43 -62 111q-24 31 -24 59q0 49 34 67q16 7 29 7z" />
    <glyph glyph-name="uni0672.fina" horiz-adv-x="387" 
d="M499 958h27q51 0 69 -62v-15q0 -41 -115 -159q-224 -265 -224 -401v-23q22 -142 122 -142q71 0 78 -63v-23q0 -62 -85 -70q-193 0 -262 213l-8 85v11q0 249 367 637zM465 1347q31 24 59 28.5t49 -6.5t34 -36t13 -62l-1 -80h-320v58h54zM433 1249h128v30q-2 29 -20 37
t-48 -14z" />
    <glyph glyph-name="uni0673" unicode="&#x673;" horiz-adv-x="490" 
d="M306 1115q59 0 78 -64l1 -14q0 -77 -59 -689l-26 -340q-27 -60 -76 -60h-1q-80 9 -80 74q65 493 65 622q18 256 18 393q0 59 71 78h9zM214 -205q24 0 52 -27q37 -35 37 -39l1 -4q0 -18 -28 -22h-5q-7 -4 -7 -13v-5q0 -23 47 -94q19 -32 19 -67q0 -47 -43 -79
q-125 -125 -150 -125l-8 -1h-12q-25 0 -29 32q0 38 46 73l80 67q23 32 23 60q0 43 -62 111q-24 31 -24 59q0 49 34 67q16 7 29 7z" />
    <glyph glyph-name="uni0673.fina" horiz-adv-x="387" 
d="M499 958h27q51 0 69 -62v-15q0 -41 -115 -159q-224 -265 -224 -401v-23q22 -142 122 -142q71 0 78 -63v-23q0 -62 -85 -70q-193 0 -262 213l-8 85v11q0 249 367 637zM246 -198q24 0 52 -27q37 -35 37 -39l1 -4q0 -18 -28 -22h-5q-7 -4 -7 -13v-5q0 -23 47 -94
q19 -32 19 -67q0 -47 -43 -79q-125 -125 -150 -125l-8 -1h-12q-25 0 -29 32q0 38 46 73l80 67q23 32 23 60q0 43 -62 111q-24 31 -24 59q0 49 34 67q16 7 29 7z" />
    <glyph glyph-name="uni0675" unicode="&#x675;" horiz-adv-x="490" 
d="M306 1115q59 0 78 -64l1 -14q0 -77 -59 -689l-26 -340q-27 -60 -76 -60h-1q-80 9 -80 74q65 493 65 622q18 256 18 393q0 59 71 78h9zM325 1717q24 0 52 -27q37 -35 37 -39l1 -4q0 -18 -28 -22h-5q-7 -4 -7 -13v-5q0 -23 47 -94q19 -32 19 -67q0 -47 -43 -79
q-125 -125 -150 -125l-8 -1h-12q-25 0 -29 32q0 38 46 73l80 67q23 32 23 60q0 43 -62 111q-24 31 -24 59q0 49 34 67q16 7 29 7z" />
    <glyph glyph-name="uni0676" unicode="&#x676;" horiz-adv-x="479" 
d="M407 585q87 -8 114 -116q4 -38 1 -69q-18 -207 -227 -509q-67 -96 -240 -254q-177 -161 -227 -175l-15 1q-37 3 -59 52q-7 13 -5 33l1 4q5 57 76 100q76 65 165 150q126 120 177 199q-131 56 -120 181q13 140 198 338q85 72 161 65zM250 144q26 18 84 166l19 80
q-91 -89 -133 -196q-6 -40 30 -50zM359 1279q24 0 52 -27q37 -35 37 -39l1 -4q0 -18 -28 -22h-5q-7 -4 -7 -13v-5q0 -23 47 -94q19 -32 19 -67q0 -47 -43 -79q-125 -125 -150 -125l-8 -1h-12q-25 0 -29 32q0 38 46 73l80 67q23 32 23 60q0 43 -62 111q-24 31 -24 59
q0 49 34 67q16 7 29 7z" />
    <glyph glyph-name="uni0677" unicode="&#x677;" horiz-adv-x="588" 
 />
    <glyph glyph-name="uni0678" unicode="&#x678;" horiz-adv-x="3204" 
d="M1591 1253q301 0 370 -98q16 -25 16 -52v-10q0 -68 -94 -127l-23 -3h-8q-53 0 -73 64v19q0 8 15 29v3q-101 18 -214 18q-517 0 -998 -253q-121 -62 -246 -167q-158 -153 -158 -271v-12q0 -152 217 -287q92 -60 348 -126q331 -80 707 -80q375 0 753 74q200 52 325 114
q206 109 206 207q0 90 -251 260q-78 53 -133 114q-45 53 -45 105v3q0 122 281 180q304 84 449 84h36q79 0 96 -59l2 -19v-2q0 -60 -64 -77l-11 -2l-51 4q-183 0 -490 -100q-54 -28 -54 -41q6 -13 86 -66q306 -185 306 -365v-18q0 -218 -338 -356q-94 -41 -312 -89
q-351 -66 -697 -66h-46q-602 0 -1094 195q-358 161 -358 418v19q0 194 212 396q104 88 191 135q534 305 1142 305zM1553 1985q24 0 52 -27q37 -35 37 -39l1 -4q0 -18 -28 -22h-5q-7 -4 -7 -13v-5q0 -23 47 -94q19 -32 19 -67q0 -47 -43 -79q-125 -125 -150 -125l-8 -1h-12
q-25 0 -29 32q0 38 46 73l80 67q23 32 23 60q0 43 -62 111q-24 31 -24 59q0 49 34 67q16 7 29 7z" />
    <glyph glyph-name="uni067A" unicode="&#x67a;" horiz-adv-x="1912" 
 />
    <glyph glyph-name="uni067B" unicode="&#x67b;" horiz-adv-x="1912" 
 />
    <glyph glyph-name="uni067C" unicode="&#x67c;" horiz-adv-x="1912" 
 />
    <glyph glyph-name="uni067D" unicode="&#x67d;" horiz-adv-x="1912" 
 />
    <glyph glyph-name="uni067F" unicode="&#x67f;" horiz-adv-x="1912" 
 />
    <glyph glyph-name="uni0680" unicode="&#x680;" horiz-adv-x="1912" 
 />
    <glyph glyph-name="uni0681" unicode="&#x681;" horiz-adv-x="1098" 
 />
    <glyph glyph-name="uni0682" unicode="&#x682;" horiz-adv-x="1098" 
 />
    <glyph glyph-name="uni0683" unicode="&#x683;" horiz-adv-x="1098" 
 />
    <glyph glyph-name="uni0684" unicode="&#x684;" horiz-adv-x="1098" 
 />
    <glyph glyph-name="uni0685" unicode="&#x685;" horiz-adv-x="1098" 
 />
    <glyph glyph-name="uni0687" unicode="&#x687;" horiz-adv-x="1098" 
 />
    <glyph glyph-name="uni0689" unicode="&#x689;" horiz-adv-x="520" 
 />
    <glyph glyph-name="uni068b" unicode="&#x68b;" horiz-adv-x="612" 
 />
    <glyph glyph-name="uni068c" unicode="&#x68c;" horiz-adv-x="520" 
 />
    <glyph glyph-name="uni068d" unicode="&#x68d;" horiz-adv-x="520" 
 />
    <glyph glyph-name="uni068e" unicode="&#x68e;" horiz-adv-x="520" 
 />
    <glyph glyph-name="uni068F" unicode="&#x68f;" horiz-adv-x="520" 
 />
    <glyph glyph-name="uni0690" unicode="&#x690;" horiz-adv-x="520" 
 />
    <glyph glyph-name="uni0692" unicode="&#x692;" horiz-adv-x="643" 
 />
    <glyph glyph-name="uni0693" unicode="&#x693;" horiz-adv-x="643" 
 />
    <glyph glyph-name="uni0694" unicode="&#x694;" horiz-adv-x="453" 
 />
    <glyph glyph-name="uni0695" unicode="&#x695;" horiz-adv-x="446" 
 />
    <glyph glyph-name="uni0696" unicode="&#x696;" horiz-adv-x="450" 
 />
    <glyph glyph-name="uni0697" unicode="&#x697;" horiz-adv-x="468" 
 />
    <glyph glyph-name="uni0699" unicode="&#x699;" horiz-adv-x="465" 
 />
    <glyph glyph-name="uni069A" unicode="&#x69a;" horiz-adv-x="1088" 
 />
    <glyph glyph-name="uni069B" unicode="&#x69b;" horiz-adv-x="1090" 
 />
    <glyph glyph-name="uni069C" unicode="&#x69c;" horiz-adv-x="1102" 
 />
    <glyph glyph-name="uni069D" unicode="&#x69d;" horiz-adv-x="1259" 
 />
    <glyph glyph-name="uni069E" unicode="&#x69e;" horiz-adv-x="1262" 
 />
    <glyph glyph-name="uni069F" unicode="&#x69f;" horiz-adv-x="645" 
 />
    <glyph glyph-name="uni06A0" unicode="&#x6a0;" horiz-adv-x="818" 
 />
    <glyph glyph-name="uni06A2" unicode="&#x6a2;" horiz-adv-x="1421" 
 />
    <glyph glyph-name="uni06A3" unicode="&#x6a3;" horiz-adv-x="1420" 
 />
    <glyph glyph-name="uni06A5" unicode="&#x6a5;" horiz-adv-x="1470" 
 />
    <glyph glyph-name="uni06A6" unicode="&#x6a6;" horiz-adv-x="2145" 
 />
    <glyph glyph-name="uni06A7" unicode="&#x6a7;" horiz-adv-x="1522" 
 />
    <glyph glyph-name="uni06A8" unicode="&#x6a8;" horiz-adv-x="939" 
 />
    <glyph glyph-name="uni06AA" unicode="&#x6aa;" horiz-adv-x="2222" 
 />
    <glyph glyph-name="uni06AB.001" unicode="&#x6ab;" horiz-adv-x="852" 
 />
    <glyph glyph-name="uni06AB" unicode="&#x6ac;" horiz-adv-x="845" 
 />
    <glyph glyph-name="uni06AD" unicode="&#x6ad;" horiz-adv-x="1275" 
 />
    <glyph glyph-name="uni06AE" unicode="&#x6ae;" horiz-adv-x="806" 
 />
    <glyph glyph-name="uni06B0" unicode="&#x6b0;" horiz-adv-x="896" 
 />
    <glyph glyph-name="uni06B1" unicode="&#x6b1;" horiz-adv-x="1158" 
 />
    <glyph glyph-name="uni06B2" unicode="&#x6b2;" horiz-adv-x="815" 
 />
    <glyph glyph-name="uni06B3" unicode="&#x6b3;" horiz-adv-x="1158" 
 />
    <glyph glyph-name="uni06B4" unicode="&#x6b4;" horiz-adv-x="1158" 
 />
    <glyph glyph-name="uni06B5" unicode="&#x6b5;" horiz-adv-x="887" 
 />
    <glyph glyph-name="uni06B6" unicode="&#x6b6;" horiz-adv-x="1365" 
 />
    <glyph glyph-name="uni06B7" unicode="&#x6b7;" horiz-adv-x="1365" 
 />
    <glyph glyph-name="uni06B8" unicode="&#x6b8;" horiz-adv-x="1365" 
 />
    <glyph glyph-name="uni06BB" unicode="&#x6bb;" horiz-adv-x="925" 
 />
    <glyph glyph-name="uni06BC" unicode="&#x6bc;" horiz-adv-x="1309" 
 />
    <glyph glyph-name="uni06BD" unicode="&#x6bd;" horiz-adv-x="936" 
 />
    <glyph glyph-name="uni06BF" unicode="&#x6bf;" horiz-adv-x="1247" 
 />
    <glyph glyph-name="uni06C4" unicode="&#x6c4;" horiz-adv-x="448" 
 />
    <glyph glyph-name="uni06C5" unicode="&#x6c5;" horiz-adv-x="854" 
 />
    <glyph glyph-name="uni06C6" unicode="&#x6c6;" horiz-adv-x="388" 
 />
    <glyph glyph-name="uni06C7" unicode="&#x6c7;" horiz-adv-x="854" 
 />
    <glyph glyph-name="uni06C8" unicode="&#x6c8;" horiz-adv-x="588" 
 />
    <glyph glyph-name="uni06C9" unicode="&#x6c9;" horiz-adv-x="588" 
 />
    <glyph glyph-name="uni06CA" unicode="&#x6ca;" horiz-adv-x="401" 
 />
    <glyph glyph-name="uni06CB" unicode="&#x6cb;" horiz-adv-x="773" 
 />
    <glyph glyph-name="uni06CD" unicode="&#x6cd;" horiz-adv-x="1892" 
 />
    <glyph glyph-name="uni06CE" unicode="&#x6ce;" horiz-adv-x="934" 
 />
    <glyph glyph-name="uni06CF" unicode="&#x6cf;" horiz-adv-x="570" 
 />
    <glyph glyph-name="uni06D0" unicode="&#x6d0;" horiz-adv-x="1272" 
 />
    <glyph glyph-name="uni06D1" unicode="&#x6d1;" horiz-adv-x="985" 
 />
    <glyph glyph-name="uni06DD" unicode="&#x6dd;" horiz-adv-x="2300" 
d="M2250 715q0 -246 -104 -466q-100 -214 -279 -368q3 -14 3 -29q0 -55 -39 -93.5t-94 -38.5q-40 0 -73 22q-240 -127 -515 -127q-273 0 -513 127q-33 -22 -73 -22q-55 0 -94 38.5t-39 93.5q0 15 3 29q-179 154 -279 368q-104 220 -104 466t104 466q100 213 279 367
q-3 14 -3 29q0 55 39 93.5t94 38.5q40 0 73 -22q240 127 515 127q273 0 513 -127q33 22 73 22q55 0 94 -38.5t39 -93.5q0 -15 -3 -29q179 -154 279 -367q104 -220 104 -466zM1816 1576q0 33 -23 56t-55 23t-55.5 -23.5t-23.5 -55.5t23 -55t56 -23q32 0 55 23t23 55z
M1602 1595q-212 109 -451 109q-241 0 -453 -109h904zM641 1576q0 32 -23.5 55.5t-55.5 23.5t-55 -23t-23 -56q0 -32 23 -55t55 -23q33 0 56 23t23 55zM2140 714q0 219 -92 417q-88 190 -247 329q-29 -16 -64 -16q-56 0 -95 41h-984q-39 -41 -95 -41q-35 0 -64 16
q-159 -139 -247 -329q-92 -198 -92 -417q0 -449 339 -745q29 16 64 16q56 0 95 -41h984q39 41 95 41q35 0 64 -16q339 296 339 745zM1816 -147q0 32 -23 55t-55 23q-33 0 -56 -23t-23 -55t23.5 -55.5t55.5 -23.5t55 23t23 56zM1602 -166h-904q212 -109 453 -109
q239 0 451 109zM641 -147q0 32 -23 55t-56 23q-32 0 -55 -23t-23 -55q0 -33 23 -56t55 -23t55.5 23.5t23.5 55.5z" />
    <glyph glyph-name="uni06DE" unicode="&#x6de;" horiz-adv-x="2221" 
d="M2171 750l-310 -311v-439h-440l-310 -311l-311 311h-439v439l-311 311l311 311v439h439l311 311l310 -311h440v-439zM436 364v-289h289zM725 1425h-289v-289zM1786 1136v289h-290zM1786 75v289l-290 -289h290zM906 0l205 -205l204 205h-409zM361 955l-205 -205l205 -205
v410zM1315 1500l-204 205l-205 -205h409zM1786 1030l-396 395h-559l-395 -395v-560l395 -395h559l396 395v560zM2065 750l-204 205v-410zM1328 750q0 -90 -63.5 -154t-153.5 -64t-154 64t-64 154t64 153.5t154 63.5t153.5 -63.5t63.5 -153.5zM1253 750q0 59 -42 100.5
t-101 41.5t-101 -41.5t-42 -100.5t42 -101t101 -42t101 42t42 101z" />
    <glyph glyph-name="uni06DF" unicode="&#x6df;" 
d="M75 1429q0 -31 -22 -53t-53 -22t-53 22t-22 53t22 53t53 22t53 -22t22 -53z" />
    <glyph glyph-name="uni06E9" unicode="&#x6e9;" horiz-adv-x="1229" 
d="M1179 0h-1129l228 261v588l-228 259l564 568l565 -568l-228 -259v-588zM1101 1108l-487 490l-486 -490l210 -237v-632l-160 -183h873l-160 183v632zM995 1108l-150 -171v-806h-461v806l-150 171l380 381zM922 1108l-308 308l-307 -308l126 -140v-782h363v782zM833 1108
l-88 -97v-744h-261v744l-88 97l218 223zM780 1108l-166 170l-165 -170l74 -81v-718h182v718z" />
    <glyph glyph-name="uni06EA" unicode="&#x6ea;" 
d="M168 -176l-169 -168l-167 167l169 168zM104 -176l-104 104l-104 -105l104 -104z" />
    <glyph glyph-name="uni06EB" unicode="&#x6eb;" 
d="M168 1522l-169 -168l-167 167l169 168zM104 1522l-104 104l-104 -105l104 -104z" />
    <glyph glyph-name="uni06FA" unicode="&#x6fa;" horiz-adv-x="1647" 
 />
    <glyph glyph-name="uni06FB" unicode="&#x6fb;" horiz-adv-x="1774" 
 />
    <glyph glyph-name="uni06FC" unicode="&#x6fc;" horiz-adv-x="1413" 
 />
    <glyph glyph-name="uni06FD" unicode="&#x6fd;" horiz-adv-x="782" 
 />
    <glyph glyph-name="uni068A" unicode="&#x68a;" horiz-adv-x="520" 
 />
    <glyph glyph-name="uni0343" unicode="&#x343;" 
 />
    <glyph glyph-name="comma" unicode="," horiz-adv-x="478" 
d="M103 -318v40q95 33 148 99.5t53 141.5q0 17 -8 30q-7 8 -14 8q-10 0 -45 -19q-15 -7 -35 -7q-46 0 -72.5 26.5t-26.5 73.5q0 46 35 79t85 33q61 0 109.5 -54t48.5 -143q0 -95 -67 -177.5t-211 -130.5z" />
    <glyph glyph-name="afii57407" unicode="&#x61f;" horiz-adv-x="1074" 
d="M448 1125q181 59 294.5 -2t114.5 -171t-39.5 -135.5t-83 -0.5t-22.5 114t-54.5 116t-195 -40.5t-129 -171.5t146.5 -147t204.5 -126.5t31.5 -161t-51.5 -139t-71.5 -60.5t-62.5 34.5t26.5 144.5t-54.5 152t-215 118.5t-65 247.5t225.5 228zM549 132q46 10 95 -49l10 5
q50 11 73 -49l2 -10q12 -52 -55 -90t-127.5 -3t-62.5 108t62 87z" />
    <glyph glyph-name="afii57392" unicode="&#x6f0;" horiz-adv-x="757" 
d="M356 571h40q139 0 204 -148l8 -56q0 -123 -140 -176q-26 -12 -64 -12h-36q-117 0 -192 108q-24 39 -24 80v28q0 82 88 144zM312 419l-4 -20q0 -45 64 -56h16q20 0 48 16q0 43 -108 48z" />
    <glyph glyph-name="afii57393" unicode="&#x6f1;" horiz-adv-x="478" 
d="M148 1103q68 0 124.5 -217t127.5 -653l4 -55v-27q0 -151 -71 -151h-8q-85 0 -93.5 141.5t-154.5 874.5v11q0 61 71 76z" />
    <glyph glyph-name="afii57394" unicode="&#x6f2;" horiz-adv-x="929" 
d="M806 1106h25q43 0 55 -65q-70 -219 -220 -305q-83 -35 -140 -35l-51 5h-20q198 -409 226 -631q-19 -75 -75 -75h-25q-82 0 -96 135q-93 349 -200 546l-183 314l-5 25v10q15 80 75 80h35q27 0 93 -115.5t211 -123.5q146 8 270 230z" />
    <glyph glyph-name="afii57395" unicode="&#x6f3;" horiz-adv-x="1055" 
d="M150 1120q33 0 106.5 -105t165.5 -114q92 17 87.5 105t53.5 82h15q39 0 71 -107.5t91.5 -120.5t82.5 48t19 121.5t46 70.5t65.5 -55t-14.5 -187.5t-150.5 -132.5t-191.5 110h-4q-68 -141 -201 -92q83 -196 154 -539l23 -136q0 -56 -72 -68h-11q-65 0 -76 94
q-99 458 -171 608.5t-164 311.5l-4 23v8q0 61 79 75z" />
    <glyph glyph-name="afii62843" unicode="&#x6f4;" horiz-adv-x="1142" 
d="M530 785q-26 48 -26 98v4q0 175 281 311l17 4h17q55 -14 55 -55v-17q0 -42 -106 -81q-106 -77 -106 -166q13 -85 85 -85l21 -4l208 17q77 -21 77 -81v-5q0 -66 -145 -89q-93 -17 -178 -17h-43q-110 0 -255 30q167 -285 187 -585v-17q0 -46 -72 -59q-81 9 -81 76
q-18 226 -149 487q-120 197 -188.5 269.5t-60.5 129t66 59t127.5 -99t268.5 -124.5z" />
    <glyph glyph-name="afii62844" unicode="&#x6f5;" horiz-adv-x="1096" 
d="M274 808h19q324 0 615 -277q94 -127 94 -226v-47q0 -190 -207 -239h-65q-135 0 -263 127q-122 -146 -235 -146q-133 0 -155 178l-5 19q0 224 282 423h5v5q-155 5 -155 70l-5 28q7 85 75 85zM556 564q-115 -50 -224.5 -158t-109.5 -228q6 -37 33 -37q81 0 179 131
q0 38 56 47q31 -1 141 -122q55 -37 108 -37h9q108 11 108 80l5 18q0 116 -225 268q-62 38 -80 38z" />
    <glyph glyph-name="afii62845" unicode="&#x6f6;" horiz-adv-x="1198" 
d="M437 1016q26 24 59 35.5t61.5 9.5t46.5 -18t12 -47q-235 -256 -94 -297q135 -43 269 105t161 142q91 2 88 -92l-2 -10l-11 -23l-250 -263q-150 -167 -321 -485q-45 -128 -125 -109l-24 5q-55 13 -56 91q79 209 316 470q-155 18 -227 73q-126 119 97 413z" />
    <glyph glyph-name="afii57399" unicode="&#x6f7;" horiz-adv-x="1125" 
d="M880 882l-3 -11q-29 -92 -132 -270.5t-166 -381.5l-10 -31l-38 -160q-17 -56 -108 -43q-43 13 -89 249q-86 305 -186 473.5t-84 216.5l5 16q13 43 84 39l10 -2q134 -94 314 -590q185 495 244.5 549.5t118 30t40.5 -84.5z" />
    <glyph glyph-name="afii57400" unicode="&#x6f8;" horiz-adv-x="1163" 
d="M478 985q30 49 85 45t207 -329.5t251 -609.5l-4 -48q-35 -71 -111 -46q-52 15 -72 82t-197 521l-88 188q-125 -353 -207.5 -583t-164.5 -200q-58 23 -24.5 139.5t145 371.5t180.5 469z" />
    <glyph glyph-name="afii57401" unicode="&#x6f9;" horiz-adv-x="984" 
d="M360 1111q236 0 368 -340q82 0 82 -69v-18q0 -22 -32 -55q28 -254 174 -491l10 -60q0 -58 -83 -78q-100 0 -197 294l-74 294q-92 -19 -170 -19h-69q-212 0 -289 161l-9 64q0 172 184 294q54 18 105 23zM236 817q0 -73 170 -73h23l129 9v5q-86 197 -184 197
q-100 0 -138 -129v-9z" />
    <glyph glyph-name="afii57392.001" unicode="&#x660;" horiz-adv-x="757" 
d="M356 571h40q139 0 204 -148l8 -56q0 -123 -140 -176q-26 -12 -64 -12h-36q-117 0 -192 108q-24 39 -24 80v28q0 82 88 144zM312 419l-4 -20q0 -45 64 -56h16q20 0 48 16q0 43 -108 48z" />
    <glyph glyph-name="afii57393.001" unicode="&#x661;" horiz-adv-x="478" 
d="M148 1103q68 0 124.5 -217t127.5 -653l4 -55v-27q0 -151 -71 -151h-8q-85 0 -93.5 141.5t-154.5 874.5v11q0 61 71 76z" />
    <glyph glyph-name="afii57394.001" unicode="&#x662;" horiz-adv-x="929" 
d="M806 1106h25q43 0 55 -65q-70 -219 -220 -305q-83 -35 -140 -35l-51 5h-20q198 -409 226 -631q-19 -75 -75 -75h-25q-82 0 -96 135q-93 349 -200 546l-183 314l-5 25v10q15 80 75 80h35q27 0 93 -115.5t211 -123.5q146 8 270 230z" />
    <glyph glyph-name="afii57395.001" unicode="&#x663;" horiz-adv-x="1055" 
d="M150 1120q33 0 106.5 -105t165.5 -114q92 17 87.5 105t53.5 82h15q39 0 71 -107.5t91.5 -120.5t82.5 48t19 121.5t46 70.5t65.5 -55t-14.5 -187.5t-150.5 -132.5t-191.5 110h-4q-68 -141 -201 -92q83 -196 154 -539l23 -136q0 -56 -72 -68h-11q-65 0 -76 94
q-99 458 -171 608.5t-164 311.5l-4 23v8q0 61 79 75z" />
    <glyph glyph-name="afii57396" unicode="&#x664;" horiz-adv-x="1142" 
d="M223 654q69 164 210 164q28 -1 93 -21l-22 86v4q0 175 281 311l17 4h17q55 -14 55 -55v-17q0 -42 -106 -81q-106 -77 -106 -166q13 -85 85 -85l21 -4l208 17q77 -21 77 -81v-5q0 -66 -132 -90t-254 -19q-34 -5 -222 29q-59 8 -89 -56q-28 -118 88.5 -267.5t256 -168.5
t91.5 -70q-46 -110 -197 -81q-166 31 -299.5 217.5t-72.5 434.5z" />
    <glyph glyph-name="afii57397" unicode="&#x665;" horiz-adv-x="1096" 
d="M284 999h19q309 -51 506 -203t193 -347q-22 -196 -194 -278.5t-399 -31t-250 225.5t216 446h5v5q-166 5 -166 70l-5 28q7 85 75 85zM552 765q-101 -60 -205.5 -211t-8.5 -222q158 -96 335 -48t188 165q5 132 -136 219t-173 97z" />
    <glyph glyph-name="afii57398" unicode="&#x666;" horiz-adv-x="1263" 
d="M663 991q48 -15 47 -69l-1 -4l-27 -194q-12 -385 463 -564q40 -2 56 -75q-15 -101 -92 -99h-4q-577 230 -562 732l13 112q-302 7 -396 9.5t-100 75.5q3 84 129.5 81.5t349.5 -5.5l62 -2z" />
    <glyph glyph-name="afii57399.001" unicode="&#x667;" horiz-adv-x="1125" 
d="M880 882l-3 -11q-29 -92 -132 -270.5t-166 -381.5l-10 -31l-38 -160q-17 -56 -108 -43q-43 13 -89 249q-86 305 -186 473.5t-84 216.5l5 16q13 43 84 39l10 -2q134 -94 314 -590q185 495 244.5 549.5t118 30t40.5 -84.5z" />
    <glyph glyph-name="afii57400.001" unicode="&#x668;" horiz-adv-x="1163" 
d="M478 985q30 49 85 45t207 -329.5t251 -609.5l-4 -48q-35 -71 -111 -46q-52 15 -72 82t-197 521l-88 188q-125 -353 -207.5 -583t-164.5 -200q-58 23 -24.5 139.5t145 371.5t180.5 469z" />
    <glyph glyph-name="afii57401.001" unicode="&#x669;" horiz-adv-x="984" 
d="M360 1111q236 0 368 -340q82 0 82 -69v-18q0 -22 -32 -55q28 -254 174 -491l10 -60q0 -58 -83 -78q-100 0 -197 294l-74 294q-92 -19 -170 -19h-69q-212 0 -289 161l-9 64q0 172 184 294q54 18 105 23zM236 817q0 -73 170 -73h23l129 9v5q-86 197 -184 197
q-100 0 -138 -129v-9z" />
    <glyph glyph-name="guillemotleft" unicode="&#xab;" horiz-adv-x="836" 
d="M442 616q-55 -109 -55 -223q0 -138 131 -311v1q20 -23 29.5 -39t12.5 -24q0 -25 -26 -25q-6 0 -21 6q-136 70 -219 167v-1q-92 109 -92 229q1 52 20.5 104t57.5 103q27 37 64.5 73.5t81.5 68.5q73 54 102 54q35 0 35 -24q0 -10 -8 -18q-27 -27 -46 -49t-32 -39.5
t-21.5 -30.5t-14.5 -23zM721 616q-55 -109 -55 -223q0 -138 131 -311v1q20 -23 29.5 -39t12.5 -24q0 -25 -26 -25q-7 0 -20 6q-68 35 -123 76t-97 91v-1q-92 109 -92 229q1 52 20.5 104t57.5 103q27 37 64.5 73.5t81.5 68.5q73 54 102 54q35 0 35 -24q0 -10 -8 -18
q-27 -27 -46 -49t-32 -39.5t-21.5 -30.5t-14.5 -23z" />
    <glyph glyph-name="guillemotright" unicode="&#xbb;" horiz-adv-x="836" 
d="M573 622q-12 19 -35.5 52.5t-77.5 87.5q-8 8 -8 18q0 24 35 24q27 0 101 -53q43 -32 80 -68t64 -73q37 -51 56.5 -102t20.5 -102q0 -119 -91 -227v1q-82 -97 -217 -165q-14 -6 -20 -6q-26 0 -26 25q3 8 12.5 23.5t29.5 38.5v-1q129 171 129 308q0 112 -54 220zM297 622
q-12 19 -35.5 52.5t-77.5 87.5q-8 8 -8 18q0 24 35 24q27 0 101 -53q43 -32 80 -68t64 -73q37 -51 56.5 -102t20.5 -102q0 -119 -91 -227v1q-82 -97 -217 -165q-14 -6 -20 -6q-26 0 -26 25q3 8 12.5 23.5t29.5 38.5v-1q129 171 129 308q0 112 -54 220z" />
    <glyph glyph-name="quoteleft" unicode="&#x2018;" horiz-adv-x="425" 
d="M121 993q1 65 45 128.5t99 89.5l31 -58q-16 -9 -38 -33t-32 -62q66 -28 63 -83q0 -16 -6.5 -30.5t-17.5 -25.5t-26 -17.5t-31 -6.5q-20 0 -36.5 8.5t-27.5 22t-17 31.5t-6 36z" />
    <glyph glyph-name="quoteright" unicode="&#x2019;" horiz-adv-x="372" 
d="M311 1113q-1 -65 -45 -128.5t-99 -89.5l-31 58q16 9 38 33t32 62q-66 28 -63 83q0 16 6.5 30.5t17.5 25.5t25.5 17.5t31.5 6.5q20 0 36 -8.5t27.5 -22t17.5 -31.5t6 -36z" />
    <glyph glyph-name="afii57451" unicode="&#x64b;" 
d="M167 111q-62 -46 -180 -78.5t-195 -32.5l-37 33q268 61 422 166q40 -1 -10 -88zM165 281q-59 -49 -175 -88t-193 -44l-39 31q264 76 412 190q40 1 -5 -89z" />
    <glyph glyph-name="afii57454" unicode="&#x64e;" 
d="M165 133q-59 -49 -175 -88t-193 -44l-39 31q264 76 412 190q40 1 -5 -89z" />
    <glyph glyph-name="afii57455" unicode="&#x64f;" 
d="M183 352q-5 -71 -62 -148.5t-93 -108.5t-90.5 -59.5t-145.5 -37.5q-30 -1 -26.5 17.5t35.5 20.5q97 23 154 70t86 110q-99 5 -99 72q0 56 46.5 100.5t95.5 47.5q101 3 99 -84z" />
    <glyph glyph-name="afii57452" unicode="&#x64c;" 
d="M183 352q-5 -71 -61 -148.5t-93 -108t-91.5 -59.5t-145.5 -38q-30 -1 -26 17q2 15 46 22q53 89 28 118.5t-96 9.5q55 67 115 42.5t0 -158.5q49 18 96 57q57 47 86 110q-99 5 -99 72q0 56 46.5 100.5t95.5 47.5q101 3 99 -84z" />
    <glyph glyph-name="afii57456" unicode="&#x650;" 
d="M165 133q-59 -49 -175 -88t-193 -44l-39 31q264 76 412 190q40 1 -5 -89z" />
    <glyph glyph-name="afii57457" unicode="&#x651;" 
d="M147 325q15 -35 13.5 -134t-58 -133.5t-112.5 0.5q-54 -63 -114 -56t-68.5 65.5t36.5 159.5l31 -1q-13 -42 -17 -90t29 -48q74 -14 87 174h35q13 -115 57 -115q53 0 53 144z" />
    <glyph glyph-name="afii57458" unicode="&#x652;" 
d="M136 139q-17 -94 -65 -125q-42 -28 -126 -13q-116 20 -91 161q13 77 60 134q53 69 121 57t92 -77q23 -56 9 -137zM63 146q22 112 -41 129q-19 4 -45 -18q-35 -26 -46 -83q-13 -74 55 -92q63 -17 77 64z" />
    <glyph glyph-name="parenleft" unicode="(" horiz-adv-x="637" 
d="M502 932q-203 -289 -203 -524q0 -194 103 -382q16 -30 57 -90.5t109 -151.5q6 -8 6 -17q0 -23 -31 -23q-74 0 -163 88q-110 107 -178 233q-92 170 -92 338q0 192 110 371q101 164 318 281q9 6 16 6q19 0 19 -25q-10 -17 -71 -104z" />
    <glyph glyph-name="parenright" unicode=")" horiz-adv-x="631" 
d="M182 932q-61 87 -71 104q0 25 19 25q7 0 16 -6q217 -117 318 -281q110 -179 110 -371q0 -168 -92 -338q-68 -126 -178 -233q-89 -88 -163 -88q-31 0 -31 23q0 9 6 17q68 91 109 151.5t57 90.5q103 188 103 382q0 235 -203 524z" />
    <glyph glyph-name="exclam" unicode="!" horiz-adv-x="399" 
d="M317 974q0 -70 -23 -216q-27 -169 -32 -251l-15 -230h-62q-2 25 -17 228q-6 83 -34 256q-24 150 -24 215q0 241 103 241q104 0 104 -243zM319 102q0 -43 -29.5 -72t-72.5 -29t-71.5 29t-28.5 72q0 42 29 71t71 29q41 0 71.5 -29.5t30.5 -70.5z" />
    <glyph glyph-name="afii64060" unicode="&#xfd3e;" horiz-adv-x="576" 
d="M502 932q-203 -289 -203 -524q0 -194 103 -382q16 -30 57 -90.5t109 -151.5q6 -8 6 -17q0 -23 -31 -23q-74 0 -163 88q-110 107 -178 233q-92 170 -92 338q0 192 110 371q101 164 318 281q9 6 16 6q19 0 19 -25q-10 -17 -71 -104z" />
    <glyph glyph-name="afii64061" unicode="&#xfd3f;" horiz-adv-x="576" 
d="M182 932q-61 87 -71 104q0 25 19 25q7 0 16 -6q217 -117 318 -281q110 -179 110 -371q0 -168 -92 -338q-68 -126 -178 -233q-89 -88 -163 -88q-31 0 -31 23q0 9 6 17q68 91 109 151.5t57 90.5q103 188 103 382q0 235 -203 524z" />
    <glyph glyph-name="uni25CC" unicode="&#x25cc;" horiz-adv-x="911" 
d="M771 629q0 -37 -37 -37q-39 0 -39 37t39 37q37 0 37 -37zM658 703q0 -37 -37 -37q-39 0 -39 37q0 39 39 39q37 0 37 -39zM847 516q0 -39 -39 -39q-37 0 -37 39q0 37 39 37q37 0 37 -37zM873 384q0 -37 -37 -37q-39 0 -39 37t39 37q37 0 37 -37zM525 731q0 -39 -37 -39
t-37 39q0 37 37 37t37 -37zM847 251q0 -37 -39 -37q-37 0 -37 37q0 39 37 39q39 0 39 -39zM394 703q0 -37 -38 -37q-37 0 -37 37q0 39 37 39q38 0 38 -39zM282 629q0 -37 -39 -37q-37 0 -37 35q0 39 37 39q39 0 39 -37zM771 138q0 -37 -37 -37t-37 37q0 39 37 39t37 -39z
M658 64q0 -37 -37 -37t-37 37q0 39 37 39t37 -39zM206 516q0 -39 -35 -39q-39 0 -39 39q0 37 37 37t37 -37zM180 384q0 -37 -37 -37q-39 0 -39 37t39 37q37 0 37 -37zM525 38q0 -39 -37 -39t-37 39q0 37 37 37t37 -37zM394 66q0 -39 -38 -39q-37 0 -37 37q0 39 37 39
q38 0 38 -37zM206 251q0 -37 -37 -37t-37 37q0 39 37 39t37 -39zM282 138q0 -37 -37 -37q-39 0 -39 37q0 39 37 39q39 0 39 -39z" />
    <glyph glyph-name="braceright" unicode="}" horiz-adv-x="833" 
d="M151 1177v29q140 -19 229 -114.5t89 -211.5q0 -62 -19.5 -142.5t-19.5 -124.5q0 -62 51 -115t142 -64v-35q-91 -12 -142 -65t-51 -115q0 -44 19.5 -125t19.5 -143q0 -114 -89 -210t-229 -116v29q98 26 144 79t46 119q0 49 -19 131.5t-19 138.5q0 87 63 167.5t187 123.5
q-122 46 -186 128t-64 168q0 57 19 139.5t19 131.5q0 65 -46 118.5t-144 78.5z" />
    <glyph glyph-name="afii59729" unicode="&#xe30;" 
 />
    <glyph glyph-name="afii59728" unicode="&#xe31;" 
 />
    <glyph glyph-name="uni0400" unicode="&#x450;" horiz-adv-x="1149" 
 />
    <glyph glyph-name="uni06B9" unicode="&#x6b9;" 
 />
    <glyph glyph-name="uniF054" unicode="&#xf054;" horiz-adv-x="2587" 
 />
    <glyph glyph-name="uni0656" unicode="&#x656;" 
d="M-22 -1q12 169 -2 346q14 48 36.5 73.5t27.5 11.5q19 -316 -62 -431z" />
    <glyph glyph-name="Ocircumflex" unicode="&#xf0d4;" horiz-adv-x="571" 
 />
    <glyph glyph-name="E000" horiz-adv-x="1958" 
 />
    <glyph glyph-name="E001" horiz-adv-x="1365" 
 />
    <glyph glyph-name="E002" horiz-adv-x="975" 
 />
    <glyph glyph-name="E003" 
 />
    <glyph glyph-name="E004" 
 />
    <glyph glyph-name="E005" horiz-adv-x="295" 
d="M-10 0v147h315v-147h-315z" />
    <glyph glyph-name="uni06D6" unicode="&#x6d6;" 
 />
    <glyph glyph-name="uni06D7" unicode="&#x6d7;" 
 />
    <glyph glyph-name="uni06D8" unicode="&#x6d8;" 
 />
    <glyph glyph-name="uni06D9" unicode="&#x6d9;" 
 />
    <glyph glyph-name="uni06DA" unicode="&#x6da;" 
 />
    <glyph glyph-name="uni06DB" unicode="&#x6db;" 
 />
    <glyph glyph-name="uni06DC" unicode="&#x6dc;" 
 />
    <glyph glyph-name="uni06E8" unicode="&#x6e8;" 
 />
    <glyph glyph-name="uni06EC" unicode="&#x6ed;" 
 />
    <glyph glyph-name="afii57470" unicode="&#x6be;" horiz-adv-x="1199" 
d="M427 575q140 0 430 -34q244 -41 244 -194q0 -132 -171 -235q-71 -52 -295 -80q-99 -16 -208 -16q-109 3 -109 7q-147 -30 -317 -23q-73 14 -80.5 78.5t78.5 77.5q62 1 91 4q-10 15 -10 30q0 111 128 237q78 71 156 98q22 50 63 50zM731 397q7 -11 7 -25q0 -70 -89 -182
q111 13 185 45q112 66 112 114q0 20 -151 44l-64 7v-3zM231 178q0 -23 37 -23q116 0 260 140q55 62 55 80q-24 22 -82 22q-152 0 -252 -164q-18 -34 -18 -55z" />
    <glyph glyph-name="uni06E0" unicode="&#x6e0;" 
 />
    <glyph glyph-name="uni06E1" unicode="&#x6e1;" 
 />
    <glyph glyph-name="uni06E2" unicode="&#x6e2;" 
 />
    <glyph glyph-name="uni06E3" unicode="&#x6e3;" 
 />
    <glyph glyph-name="uni06E4" unicode="&#x6e4;" 
 />
    <glyph glyph-name="uni06E5" unicode="&#x6e5;" 
 />
    <glyph glyph-name="uni06E6" unicode="&#x6e6;" 
 />
    <glyph glyph-name="uni06E7" unicode="&#x6e7;" 
 />
    <glyph glyph-name="at" unicode="@" horiz-adv-x="1600" 
d="M1194 812l-99 -338q-55 -190 -67.5 -241t-12.5 -81q0 -27 19 -46t45 -19q63 0 149.5 62t148.5 201.5t62 289.5q0 145 -69.5 268t-197.5 189t-283 66q-196 0 -363.5 -104t-265.5 -299t-98 -406q0 -195 86 -354t242.5 -241t335.5 -82q223 0 403.5 119.5t277.5 349.5h50
q-76 -233 -277 -377t-459 -144q-201 0 -374.5 95.5t-268.5 270.5t-95 385q0 224 105 418t294.5 303t401.5 109q176 0 317 -72.5t215 -212t74 -296.5q0 -155 -69.5 -307.5t-176 -222t-222.5 -69.5q-65 0 -97 30.5t-32 85.5q0 48 14 125q-125 -151 -200.5 -196.5t-133.5 -45.5
q-60 0 -106.5 54.5t-46.5 143.5q0 123 80 275.5t212 248.5q98 70 175 70q56 0 94.5 -29t50.5 -87l29 93zM897 778q-64 0 -130 -68q-95 -97 -163 -265q-51 -122 -51 -197q0 -53 30.5 -86.5t67.5 -33.5q50 0 104 37t113 115t87 156q48 134 48 219q0 56 -31.5 89.5t-74.5 33.5z
" />
    <glyph glyph-name="A" unicode="A" horiz-adv-x="1254" 
d="M795 385h-445l-79 -181q-28 -67 -28 -100q0 -27 25 -47t107 -25v-32h-361v32q72 13 93 33q44 40 95 165l405 947h30l400 -958q48 -115 87.5 -149t110.5 -38v-32h-454v32q69 3 93 22.5t24 47.5q0 37 -34 117zM771 447l-195 466l-201 -466h396z" />
    <glyph glyph-name="B" unicode="B" horiz-adv-x="1159" 
d="M802 587q120 -25 180 -81q81 -79 81 -191q0 -86 -54 -164.5t-149 -114.5t-289 -36h-542v32h43q72 0 104 45q19 30 19 127v743q0 107 -24 134q-33 37 -99 37h-43v32h497q139 0 222 -20q128 -31 195 -109t67 -178q0 -86 -52.5 -154.5t-155.5 -101.5zM358 633
q31 -7 71.5 -9.5t88.5 -2.5q124 0 186 26.5t95.5 81.5t33.5 121q0 101 -82.5 172t-239.5 71q-85 0 -153 -18v-442zM358 83q98 -23 194 -23q154 0 234.5 69t80.5 171q0 67 -36.5 129t-118.5 97.5t-204 35.5q-52 0 -89.5 -1.5t-60.5 -6.5v-471z" />
    <glyph glyph-name="C" unicode="C" horiz-adv-x="1159" 
d="M1045 1177l27 -392h-27q-52 175 -149.5 252.5t-234.5 77.5q-114 0 -206 -58t-145 -185.5t-53 -316.5q0 -155 49.5 -269.5t150.5 -175.5t229 -61q112 0 197.5 47.5t188.5 189.5l26 -17q-87 -152 -202 -224t-274 -72q-285 0 -442 212q-117 158 -117 373q0 171 77 315.5
t212.5 224t295.5 79.5q125 0 246 -62q36 -19 50 -19q24 0 41 17q22 22 30 64h30z" />
    <glyph glyph-name="D" unicode="D" horiz-adv-x="1254" 
d="M30 0v32h43q73 0 103 46q19 28 19 126v743q0 107 -23 134q-34 37 -99 37h-43v32h468q258 0 392 -59t216 -195t82 -315q0 -240 -146 -401q-163 -180 -498 -180h-514zM358 83q107 -24 180 -24q198 0 327 138.5t129 374.5q0 239 -129 376t-333 137q-76 0 -174 -24v-978z" />
    <glyph glyph-name="E" unicode="E" horiz-adv-x="1061" 
d="M363 1088v-455h253q98 0 131 29q44 40 49 137h32v-399h-32q-12 83 -23 107q-16 29 -50.5 46t-106.5 17h-253v-378q0 -76 6.5 -92.5t23.5 -26.5t65 -10h195q97 0 141 13.5t86 52.5q52 53 107 159h34l-99 -288h-886v32h40q41 0 78 19q26 14 36 41t10 110v748q0 109 -22 134
q-31 34 -102 34h-40v32h886l13 -252h-34q-17 91 -38.5 125t-64.5 52q-34 13 -120 13h-315z" />
    <glyph glyph-name="F" unicode="F" horiz-adv-x="966" 
d="M355 1088v-453h210q72 0 105.5 32t43.5 126h32v-389h-32q0 67 -16.5 98t-46 47t-86.5 16h-210v-361q0 -87 12 -116q8 -21 35 -36q37 -20 78 -20h42v-32h-494v32h41q71 0 103 41q21 27 21 131v743q0 86 -12 115q-8 21 -35 36q-36 20 -77 20h-41v32h856l11 -253h-30
q-22 80 -51.5 118.5t-72 55.5t-133.5 17h-253z" />
    <glyph glyph-name="G" unicode="G" horiz-adv-x="1254" 
d="M1066 1177l30 -364h-30q-45 136 -116 205q-103 99 -264 99q-220 0 -334 -174q-95 -147 -95 -349q0 -165 63.5 -300.5t166 -198.5t210.5 -63q64 0 123.5 16t114.5 47v332q0 87 -13 113.5t-40.5 41t-97.5 14.5v32h446v-32h-22q-65 0 -91 -45q-17 -32 -17 -124v-352
q-97 -52 -192 -77t-211 -25q-333 0 -506 215q-130 160 -130 370q0 151 73 290q86 165 237 254q127 75 299 75q62 0 113.5 -11t146.5 -45q47 -18 63 -18t27.5 15t14.5 59h31z" />
    <glyph glyph-name="H" unicode="H" horiz-adv-x="1254" 
d="M357 617h534v329q0 89 -11 116q-9 21 -35 36q-37 20 -78 20h-40v32h492v-32h-41q-40 0 -78 -19q-26 -15 -37 -41q-9 -29 -9 -112v-742q0 -88 11 -116q10 -22 35 -36q36 -20 78 -20h41v-32h-492v32h40q71 0 103 41q21 27 21 131v349h-534v-349q0 -88 11 -116q8 -21 36 -36
q36 -20 77 -20h42v-32h-493v32h40q72 0 104 41q20 27 20 131v742q0 89 -11 116q-9 21 -35 36q-37 20 -78 20h-40v32h493v-32h-42q-40 0 -77 -19q-27 -14 -37 -41q-10 -28 -10 -112v-329z" />
    <glyph glyph-name="I" unicode="I" horiz-adv-x="579" 
d="M536 32v-32h-493v32h41q71 0 104 41q20 27 20 131v743q0 86 -11 115q-8 21 -35 36q-37 20 -78 20h-41v32h493v-32h-42q-70 0 -102 -41q-21 -28 -21 -130v-743q0 -87 11 -116q8 -21 36 -36q36 -20 76 -20h42z" />
    <glyph glyph-name="J" unicode="J" horiz-adv-x="676" 
d="M173 1118v32h493v-32h-42q-71 0 -102 -41q-21 -28 -21 -130v-563q0 -130 -28.5 -210.5t-98 -140.5t-167.5 -60q-80 0 -125.5 40t-45.5 91q0 41 21 62q28 27 65 27q27 0 49 -18t55 -96q19 -45 50 -45q23 0 42.5 28t19.5 99v786q0 86 -10 115q-9 21 -37 36q-36 20 -77 20
h-41z" />
    <glyph glyph-name="K" unicode="K" horiz-adv-x="1254" 
d="M519 638l424 -422q104 -104 178 -142t148 -42v-32h-547v32q49 0 70.5 16.5t21.5 36.5t-8 36.5t-53 59.5l-397 394v-371q0 -87 11 -116q8 -21 36 -36q36 -20 77 -20h39v-32h-490v32h41q71 0 103 41q20 27 20 131v743q0 86 -11 115q-8 21 -35 36q-37 20 -77 20h-41v32h490
v-32h-39q-40 0 -77 -19q-27 -14 -37 -41t-10 -111v-352q17 16 117 107q251 231 304 308q22 34 22 60q0 19 -17.5 33.5t-59.5 14.5h-27v32h422v-32q-37 -1 -67 -10t-74.5 -36t-108.5 -86q-19 -17 -173 -174z" />
    <glyph glyph-name="L" unicode="L" horiz-adv-x="1061" 
d="M995 318l29 -6l-99 -312h-890v32h43q73 0 104 46q18 28 18 127v742q0 107 -24 134q-33 37 -98 37h-43v32h520v-32q-91 1 -128 -17t-50.5 -45t-13.5 -130v-721q0 -71 13 -97q11 -18 32 -26.5t133 -8.5h83q133 0 186 19.5t97.5 69t87.5 156.5z" />
    <glyph glyph-name="M" unicode="M" horiz-adv-x="1544" 
d="M710 0l-444 968v-769q0 -106 23 -132q31 -35 99 -35h41v-32h-400v32h41q72 0 103 43q19 28 19 124v752q0 76 -17 110q-12 24 -43.5 40.5t-102.5 16.5v32h325l418 -900l410 900h325v-32h-39q-74 0 -105 -43q-18 -28 -18 -124v-752q0 -106 23 -132q32 -35 100 -35h39v-32
h-487v32h40q74 0 104 43q18 28 18 124v769l-443 -968h-29z" />
    <glyph glyph-name="N" unicode="N" horiz-adv-x="1254" 
d="M-23 1150h312l703 -863v664q0 106 -23 132q-32 35 -100 35h-40v32h401v-32h-41q-73 0 -104 -43q-19 -28 -19 -124v-970h-29l-759 926v-708q0 -106 23 -132q32 -35 100 -35h40v-32h-401v32h41q74 0 103 43q20 28 20 124v800q-50 59 -76 77.5t-76 34.5q-24 7 -75 7v32z" />
    <glyph glyph-name="O" unicode="O" horiz-adv-x="1254" 
d="M635 1177q224 0 388 -170.5t164 -424.5q0 -262 -165.5 -435.5t-400.5 -173.5q-237 0 -398.5 169.5t-161.5 436.5q0 274 187 447q161 151 387 151zM619 1114q-155 0 -248 -114q-116 -142 -116 -417q0 -282 120 -434q94 -115 245 -115q162 0 267.5 126t105.5 399
q0 295 -116 440q-94 115 -258 115z" />
    <glyph glyph-name="P" unicode="P" horiz-adv-x="966" 
d="M356 538v-334q0 -109 23 -135q33 -37 98 -37h45v-32h-493v32h43q73 0 104 46q17 27 17 126v743q0 108 -22 134q-33 37 -99 37h-43v32h421q154 0 243 -32t150.5 -107.5t61.5 -178.5q0 -141 -93 -229t-263 -88q-41 0 -89.5 6t-103.5 17zM356 587q45 -8 80 -12.5t59 -4.5
q88 0 152 68t64 177q0 74 -30 138.5t-86.5 96t-127.5 31.5q-43 0 -111 -16v-478z" />
    <glyph glyph-name="Q" unicode="Q" horiz-adv-x="1254" 
d="M765 -13q86 -149 187 -219.5t229 -80.5v-27q-118 4 -251 47t-252 118.5t-205 161.5q-123 49 -194 104q-103 83 -160.5 202.5t-57.5 284.5q0 257 167 428t405 171q226 0 390.5 -171.5t164.5 -430.5q0 -212 -117.5 -371t-305.5 -217zM622 1111q-153 0 -248 -110
q-119 -138 -119 -423q0 -279 120 -431q94 -115 247 -115q160 0 258 115q114 138 114 406q0 206 -63 347q-48 108 -128 159.5t-181 51.5z" />
    <glyph glyph-name="R" unicode="R" horiz-adv-x="1159" 
d="M1173 0h-306l-390 537q-42 -1 -70 -1h-23.5t-26.5 1v-333q0 -109 24 -135q32 -37 96 -37h46v-32h-493v32h43q73 0 104 46q18 27 18 126v743q0 108 -23 134q-34 37 -99 37h-43v32h418q184 0 271 -27t147 -98.5t60 -170.5q0 -106 -68.5 -184.5t-214.5 -109.5l238 -330
q81 -113 139.5 -151t152.5 -47v-32zM357 591q16 0 27.5 -0.5t20.5 -0.5q164 0 247.5 71t83.5 182q0 108 -67.5 175t-178.5 67q-49 0 -133 -15v-479z" />
    <glyph glyph-name="S" unicode="S" horiz-adv-x="966" 
d="M796 1177v-399h-31q-16 115 -55 182.5t-112 108t-151 40.5q-89 0 -146 -54t-57 -123q0 -52 36 -96q53 -63 250 -169q161 -87 220 -133t90.5 -108.5t31.5 -131.5q0 -131 -101 -226t-260 -95q-51 0 -94 8q-27 4 -109.5 31t-105.5 27q-21 0 -33 -12.5t-18 -53.5h-31v395h31
q22 -124 59.5 -185.5t114 -102t168.5 -40.5q106 0 167.5 56t61.5 132q0 42 -23.5 85.5t-73.5 80.5q-32 26 -179.5 108.5t-210 132t-95 108.5t-32.5 130q0 124 95.5 214t241.5 90q91 0 194 -46q48 -21 67 -21q22 0 36.5 13t22.5 54h31z" />
    <glyph glyph-name="T" unicode="T" horiz-adv-x="1061" 
d="M1005 1150l13 -270h-32q-10 72 -26 102q-26 49 -70 72.5t-115 23.5h-162v-879q0 -106 23 -132q32 -35 100 -35h39v-32h-488v32h42q72 0 102 43q19 28 19 124v879h-138q-81 0 -115 -12q-43 -17 -74.5 -62.5t-37.5 -123.5h-32l13 270h939z" />
    <glyph glyph-name="U" unicode="U" horiz-adv-x="1254" 
d="M829 1118v32h407v-32h-44q-67 0 -104 -56q-17 -26 -17 -123v-466q0 -173 -34.5 -268.5t-135.5 -164t-273 -68.5q-189 0 -286.5 66t-137.5 176q-28 75 -28 283v450q0 106 -29 138.5t-94 32.5h-43v32h497v-32h-45q-71 0 -102 -44q-21 -31 -21 -127v-502q0 -67 12.5 -153
t44.5 -135t92.5 -80t149.5 -31q112 0 201.5 49t122 126t32.5 260v466q0 107 -24 134q-33 37 -99 37h-42z" />
    <glyph glyph-name="V" unicode="V" horiz-adv-x="1254" 
d="M1233 1150v-32q-61 -10 -92 -39q-45 -41 -80 -127l-402 -979h-30l-432 992q-33 76 -46 93q-22 26 -52.5 41t-83.5 19v32h470v-32q-80 -7 -103.5 -26.5t-23.5 -50.5q0 -42 38 -132l293 -674l271 666q41 98 41 136q0 25 -24.5 47.5t-83.5 31.5q-5 1 -14 2v32h354z" />
    <glyph glyph-name="W" unicode="W" horiz-adv-x="1639" 
d="M1626 1150v-32q-46 0 -74 -16t-53 -60q-17 -30 -53 -141l-320 -928h-34l-263 736l-260 -736h-31l-341 956q-38 107 -49 126q-17 33 -46 48t-79 15v32h425v-32h-20q-44 0 -68 -20t-24 -49t37 -136l227 -646l191 549l-34 97l-28 77q-18 42 -40 74q-11 16 -27 28
q-21 15 -42 21q-16 5 -51 5v32h448v-32h-31q-47 0 -69 -20t-22 -55q0 -43 38 -150l220 -626l219 634q38 105 38 145q0 20 -13 37t-31 24q-33 11 -83 11v32h343z" />
    <glyph glyph-name="X" unicode="X" horiz-adv-x="1254" 
d="M709 637l247 -368q102 -152 152 -192.5t126 -44.5v-32h-494v32q50 0 73 9q18 8 29.5 24t11.5 31q0 21 -8 40q-5 15 -47 74l-195 296l-240 -309q-39 -50 -46 -66.5t-7 -34.5q0 -26 22.5 -44t87.5 -20v-32h-408v32q43 4 74 17q53 22 100.5 59.5t108.5 114.5l271 343
l-226 331q-93 135 -157 177t-148 44v32h531v-32q-68 -2 -93 -21.5t-25 -42.5q0 -32 41 -93l177 -264l204 259q35 47 43 64t8 34q0 18 -9 31q-13 18 -32.5 25t-81.5 8v32h408v-32q-47 -2 -78 -15q-46 -20 -84 -52.5t-108 -121.5z" />
    <glyph glyph-name="Y" unicode="Y" horiz-adv-x="1254" 
d="M828 1150h401v-32h-23q-21 0 -63.5 -19.5t-77.5 -55.5t-86 -119l-277 -436v-289q0 -106 24 -132q32 -35 102 -35h37v-32h-489v32h42q72 0 102 43q20 28 20 124v273l-316 481q-57 85 -76.5 106t-81.5 51q-17 8 -50 8v32h492v-32h-26q-39 0 -73 -18.5t-34 -55.5
q0 -31 52 -110l241 -371l225 355q50 79 50 119q0 23 -12 41.5t-35 29t-68 10.5v32z" />
    <glyph glyph-name="Z" unicode="Z" horiz-adv-x="1061" 
d="M999 1150l-755 -1080h470q110 0 167.5 47t103.5 193l27 -6l-54 -304h-936v32l738 1049h-368q-92 0 -133 -20t-62.5 -57.5t-39.5 -140.5h-32l23 287h851z" />
    <glyph glyph-name="a" unicode="a" horiz-adv-x="771" 
d="M494 112q-119 -93 -150 -107q-45 -21 -97 -21q-81 0 -133.5 55t-52.5 145q0 57 26 98q35 58 121.5 109t285.5 124v30q0 116 -36.5 159.5t-107.5 43.5q-53 0 -85 -29t-32 -66l2 -49q0 -39 -20 -60t-52 -21t-52 21.5t-20 59.5q0 73 75 134t209 61q104 0 170 -34
q51 -26 74 -82q15 -36 15 -150v-264q0 -110 4 -135.5t14 -34t23 -8.5q14 0 24 7q18 10 68 61v-47q-95 -127 -181 -127q-41 0 -66 28.5t-26 98.5zM494 167v296q-127 -51 -165 -72q-67 -37 -95.5 -78t-28.5 -89q0 -61 36.5 -101t82.5 -40q65 0 170 84z" />
    <glyph glyph-name="b" unicode="b" horiz-adv-x="868" 
d="M267 642q112 157 244 157q119 0 208 -101.5t89 -279.5q0 -207 -137 -333q-118 -108 -263 -108q-68 0 -138 24t-143 73v806q0 131 -6.5 162t-20 42t-33.5 11q-24 0 -60 -14l-11 30l233 95h38v-564zM267 588v-464q44 -42 90 -64t95 -22q76 0 142.5 85t66.5 247
q0 149 -66.5 229t-151.5 80q-44 0 -89 -23q-34 -17 -87 -68z" />
    <glyph glyph-name="c" unicode="c" horiz-adv-x="771" 
d="M714 295q-31 -153 -123 -235.5t-203 -82.5q-131 0 -230 110.5t-99 300.5q0 182 109.5 296.5t261.5 114.5q115 0 188.5 -60.5t73.5 -125.5q0 -32 -20.5 -52t-58.5 -20q-50 0 -76 32q-13 18 -18 68t-35 77q-29 25 -82 25q-85 0 -137 -62q-68 -84 -68 -221q0 -139 68 -245.5
t184 -106.5q83 0 150 57q47 40 90 142z" />
    <glyph glyph-name="d" unicode="d" horiz-adv-x="868" 
d="M603 87q-57 -59 -111 -84.5t-117 -25.5q-127 0 -222.5 106t-95.5 273q0 168 105.5 306t271.5 138q102 0 169 -64v143q0 132 -6.5 163t-20 42t-33.5 11q-23 0 -59 -14l-11 30l232 95h38v-899q0 -135 6.5 -165.5t20 -42.5t32.5 -12q23 0 61 15l9 -30l-230 -95h-39v110z
M603 146v401q-5 57 -30.5 105t-67.5 72t-82 24q-74 0 -133 -67q-77 -88 -77 -258q0 -171 75 -262t166 -91q77 0 149 76z" />
    <glyph glyph-name="e" unicode="e" horiz-adv-x="771" 
d="M184 484q0 -172 85 -271t200 -99q76 0 132 42t94 144l27 -17q-18 -116 -104 -211t-214 -95q-140 0 -239.5 108.5t-99.5 292.5q0 200 102 311t256 111q130 0 214.5 -85.5t84.5 -230.5h-538zM184 533h361q-4 75 -18 105q-21 48 -63 75t-89 27q-70 0 -125.5 -54.5
t-65.5 -152.5z" />
    <glyph glyph-name="f" unicode="f" horiz-adv-x="579" 
d="M358 715v-509q0 -110 24 -138q31 -37 83 -37h71v-31h-464v31h35q34 0 62 17t38.5 45.5t10.5 112.5v509h-151v62h151v51q0 115 37.5 196t114 130.5t172.5 49.5q89 0 164 -57q49 -38 49 -86q0 -25 -22.5 -48t-47.5 -23q-19 0 -41 14.5t-53 60.5t-58 62q-26 16 -58 16
q-39 0 -66 -21t-39 -64.5t-12 -224.5v-56h200v-62h-200z" />
    <glyph glyph-name="g" unicode="g" horiz-adv-x="868" 
d="M262 283q-71 35 -109.5 97.5t-38.5 137.5q0 116 87 198.5t223 82.5q111 0 193 -54h164q36 0 42 -2t9 -7q5 -8 5 -27q0 -22 -4 -31q-3 -4 -9.5 -6.5t-42.5 -2.5h-100q46 -61 46 -156q0 -108 -82.5 -185.5t-222.5 -77.5q-58 0 -119 17q-37 -32 -50 -56t-13 -41
q0 -15 14 -28.5t54 -19.5q25 -3 119 -5q175 -5 227 -13q78 -11 125.5 -58.5t47.5 -116.5q0 -96 -90 -180q-133 -124 -345 -124q-164 0 -276 74q-64 42 -64 88q0 20 9 41q14 31 60 87q5 8 86 91q-44 27 -62.5 47.5t-18.5 47.5q0 29 24.5 69t111.5 113zM409 759
q-62 0 -104.5 -50t-42.5 -154q0 -133 58 -207q44 -57 111 -57q65 0 106.5 48.5t41.5 152.5q0 134 -59 211q-43 56 -111 56zM253 0q-39 -43 -59.5 -80.5t-20.5 -68.5q0 -41 50 -71q84 -53 244 -53q153 0 225.5 54t72.5 115q0 44 -43 63q-45 18 -175 22q-191 4 -294 19z" />
    <glyph glyph-name="h" unicode="h" horiz-adv-x="868" 
d="M282 1206v-568q94 103 149.5 132t110.5 29q66 0 113.5 -36t70.5 -114q16 -54 16 -199v-274q0 -74 12 -102q8 -20 28.5 -31.5t75.5 -11.5v-31h-382v31h18q54 0 75 16.5t30 47.5q2 14 2 81v274q0 128 -13 167.5t-42 59.5t-69 20q-42 0 -86.5 -22t-108.5 -89v-410
q0 -81 9 -100t33.5 -32t83.5 -13v-31h-385v31q51 0 81 16q17 8 27.5 32t10.5 97v703q0 132 -6.5 163t-19.5 42t-35 11q-18 0 -58 -14l-12 30l233 95h38z" />
    <glyph glyph-name="i" unicode="i" horiz-adv-x="482" 
d="M252 1206q35 0 60 -25.5t25 -60.5q0 -36 -25 -61.5t-60 -25.5q-36 0 -61.5 25.5t-25.5 61.5q0 35 25 60.5t62 25.5zM322 799v-623q0 -73 10.5 -97.5t31.5 -36t76 -11.5v-31h-377v31q57 0 76.5 11t30.5 36.5t11 97.5v299q0 126 -7 163q-7 28 -19.5 38.5t-33.5 10.5
q-25 0 -58 -13l-12 31l234 94h37z" />
    <glyph glyph-name="j" unicode="j" horiz-adv-x="482" 
d="M251 1206q36 0 61.5 -25.5t25.5 -61.5t-25.5 -61.5t-61.5 -25.5t-61.5 25.5t-25.5 61.5t25.5 61.5t61.5 25.5zM324 799v-781q0 -199 -84.5 -296t-220.5 -97q-77 0 -115 28t-38 58q0 29 21.5 50.5t48.5 21.5q23 0 45 -11q15 -6 56 -42.5t69 -36.5q20 0 39.5 15t29 52.5
t9.5 159.5v553q0 128 -8 165q-5 28 -18 38.5t-35 10.5q-23 0 -57 -13l-13 31l234 94h37z" />
    <glyph glyph-name="k" unicode="k" horiz-adv-x="868" 
d="M284 1206v-774l197 181q64 58 73 73q8 10 8 20q0 17 -14.5 29.5t-46.5 13.5v28h337v-28q-68 -1 -115 -20.5t-102 -69.5l-199 -184l199 -252q84 -104 113 -132q40 -40 71 -52q21 -8 74 -8v-31h-378v31q32 1 43.5 9.5t11.5 25.5q0 19 -33 62l-239 304v-257q0 -75 10.5 -99
t30 -34t84.5 -11v-31h-394v31q59 0 89 14q17 9 26 29q13 28 13 97v707q0 134 -6 164.5t-19.5 42t-34.5 11.5q-18 0 -54 -15l-14 30l230 95h39z" />
    <glyph glyph-name="l" unicode="l" horiz-adv-x="482" 
d="M321 1206v-1030q0 -73 10.5 -97t33 -36t82.5 -12v-31h-381v31q54 0 73.5 11t30 36.5t10.5 97.5v705q0 131 -5.5 161.5t-19 41.5t-33.5 11q-22 0 -56 -14l-14 30l231 95h38z" />
    <glyph glyph-name="m" unicode="m" horiz-adv-x="1350" 
d="M285 634q85 85 100 97q38 33 82 50.5t87 17.5q74 0 126 -42.5t70 -122.5q87 102 147.5 133.5t124.5 31.5q61 0 109.5 -31.5t75.5 -103.5q19 -49 19 -154v-334q0 -73 11 -101q8 -18 31 -31t75 -13v-31h-383v31h16q50 0 78 19q20 14 28 43q3 15 3 83v334q0 94 -23 133
q-33 54 -106 54q-44 0 -90 -22t-109 -84l-2 -8l2 -37v-370q0 -81 8.5 -100t33.5 -32t84 -13v-31h-393v31q64 0 88.5 15t34.5 45q4 15 4 85v334q0 94 -29 137q-37 54 -104 54q-45 0 -91 -25q-70 -38 -108 -85v-415q0 -76 10.5 -99.5t31.5 -34.5t84 -11v-31h-383v31
q53 0 74 11t32 36.5t11 97.5v297q0 127 -7 165q-7 28 -19.5 38.5t-34.5 10.5q-24 0 -56 -13l-13 31l233 94h37v-165z" />
    <glyph glyph-name="n" unicode="n" horiz-adv-x="868" 
d="M281 635q137 164 260 164q63 0 109 -31.5t73 -103.5q19 -51 19 -157v-331q0 -74 12 -101q9 -21 30 -32.5t77 -11.5v-31h-384v31h16q54 0 75.5 16.5t30.5 47.5q3 13 3 81v318q0 106 -27.5 153.5t-93.5 47.5q-100 0 -200 -110v-409q0 -80 9 -98q12 -25 32.5 -36t84.5 -11
v-31h-384v31h17q60 0 80.5 30t20.5 115v288q0 140 -6.5 170.5t-19.5 41.5t-36 11t-56 -13l-12 31l233 94h37v-164z" />
    <glyph glyph-name="o" unicode="o" horiz-adv-x="868" 
d="M435 799q176 0 283 -133q90 -115 90 -263q0 -104 -50 -211t-138 -161t-195 -54q-176 0 -279 140q-88 117 -88 264q0 107 53 212.5t139.5 155.5t184.5 50zM408 744q-45 0 -90.5 -26.5t-73.5 -93t-28 -172.5q0 -170 67.5 -293t177.5 -123q83 0 136.5 68t53.5 233
q0 208 -89 327q-61 80 -154 80z" />
    <glyph glyph-name="p" unicode="p" horiz-adv-x="868" 
d="M-2 700l239 96h32v-181q61 103 122 143.5t127 40.5q117 0 195 -91q96 -112 96 -291q0 -202 -116 -333q-94 -107 -238 -107q-63 0 -109 17q-34 12 -77 51v-237q0 -79 10 -101t34 -34.5t88 -12.5v-31h-407v31h21q46 -1 80 18q16 9 25 30t9 105v735q0 75 -6.5 95.5t-21.5 31
t-41 10.5q-20 0 -52 -13zM269 565v-290q0 -95 9 -124q11 -49 57.5 -86t116.5 -37q84 0 137 65q69 87 69 244q0 178 -78 274q-54 65 -128 65q-42 0 -81 -20q-31 -15 -102 -91z" />
    <glyph glyph-name="q" unicode="q" horiz-adv-x="868" 
d="M742 799v-998q0 -74 10 -95.5t32 -33.5t84 -12v-31h-391v31h16q48 0 72 14q17 9 27 33t10 94v334q-77 -92 -135 -125t-119 -33q-113 0 -202 102t-89 275q0 197 117 321t283 124q49 0 89.5 -13t72.5 -41q49 25 94 54h29zM602 189v364q0 64 -16.5 100t-59 61.5t-96.5 25.5
q-94 0 -162 -80.5t-68 -243.5q0 -157 69 -239t167 -82q49 0 88.5 22t77.5 72z" />
    <glyph glyph-name="r" unicode="r" horiz-adv-x="637" 
d="M282 799v-203q131 191 233 191q47 0 77.5 -28.5t30.5 -65.5q0 -34 -22 -56.5t-52 -22.5t-67 29t-55 29q-15 0 -33 -17q-38 -34 -112 -131v-343q0 -64 16 -97q10 -23 38.5 -38t81.5 -15v-31h-399v31q59 0 89 18q21 14 30 43q4 15 4 83v301q0 136 -6 162t-20.5 37.5
t-37.5 11.5q-25 0 -59 -13l-8 31l235 94h36z" />
    <glyph glyph-name="s" unicode="s" horiz-adv-x="676" 
d="M556 799v-264h-28q-32 124 -82.5 169t-128.5 45q-59 0 -96 -31t-37 -69q0 -48 28 -82q26 -35 107 -73l124 -60q172 -84 172 -222q0 -106 -80 -170.5t-180 -64.5q-71 0 -162 25q-29 9 -47 9q-19 0 -29 -23h-29v277h29q23 -119 89.5 -179t150.5 -60q59 0 96 34.5t37 82.5
q0 58 -41.5 98.5t-164.5 101.5t-161 110q-38 48 -38 122q0 96 65.5 160t169.5 64q47 0 111 -19q44 -13 59 -13q12 0 20 6t18 26h28z" />
    <glyph glyph-name="t" unicode="t" horiz-adv-x="482" 
d="M280 1032v-255h181v-59h-181v-504q0 -76 21.5 -102t55.5 -26q28 0 54.5 17.5t40.5 51.5h33q-29 -84 -83.5 -126t-112.5 -42q-39 0 -76 22t-55 62t-18 124v523h-123v27q47 19 95.5 63.5t86.5 105.5q19 33 54 118h27z" />
    <glyph glyph-name="u" unicode="u" horiz-adv-x="868" 
d="M736 777v-471q0 -134 6 -164.5t20 -42.5t33 -12q25 0 59 15l12 -30l-232 -95h-38v164q-101 -109 -153.5 -136.5t-110.5 -27.5q-66 0 -113.5 37.5t-66 97t-18.5 167.5v346q0 56 -12.5 77t-35.5 32.5t-84 10.5v32h271v-520q0 -109 38.5 -142.5t91.5 -33.5q36 0 82.5 22.5
t110.5 87.5v440q0 66 -24.5 89.5t-100.5 24.5v32h265z" />
    <glyph glyph-name="v" unicode="v" horiz-adv-x="868" 
d="M15 777h364v-32h-23q-33 0 -50.5 -16t-17.5 -43q0 -30 18 -70l181 -429l181 445q20 47 20 72q0 11 -7 19q-9 13 -24 17.5t-58 4.5v32h253v-32q-44 -3 -61 -18q-30 -25 -53 -85l-276 -665h-35l-276 655q-20 45 -36.5 65.5t-43.5 33.5q-14 8 -56 14v32z" />
    <glyph glyph-name="w" unicode="w" horiz-adv-x="1254" 
d="M11 777h326v-32q-46 -3 -59.5 -15.5t-13.5 -36.5q0 -26 14 -63l166 -448l168 364l-45 114q-20 51 -53 71q-19 12 -70 14v32h370v-32q-61 -2 -87 -22q-17 -13 -17 -42q0 -17 8 -35l176 -447l164 431q17 45 17 72q0 17 -17 29.5t-65 13.5v32h245v-32q-74 -10 -108 -99
l-260 -669h-35l-194 496l-227 -496h-30l-250 653q-25 61 -49 83t-74 32v32z" />
    <glyph glyph-name="x" unicode="x" horiz-adv-x="868" 
d="M23 777h365v-32q-34 0 -48.5 -11.5t-14.5 -31.5t30 -63q10 -14 29 -42l55 -88l63 88q61 84 61 106q0 18 -14.5 30t-46.5 12v32h263v-32q-42 -2 -72 -22q-42 -30 -114 -126l-106 -141l194 -279q71 -103 101.5 -123.5t78.5 -22.5v-31h-366v31q38 0 60 17q15 11 15 30
q0 21 -54 99l-114 166l-124 -166q-58 -77 -58 -91q0 -20 19 -37t57 -18v-31h-253v31q30 4 54 21q31 24 108 125l163 216l-148 214q-63 92 -97.5 115t-85.5 23v32z" />
    <glyph glyph-name="y" unicode="y" horiz-adv-x="868" 
d="M11 777h361v-32h-18q-38 0 -57 -16.5t-19 -40.5q0 -33 28 -92l189 -391l174 429q15 34 15 68q0 16 -7 23q-6 10 -20.5 15t-51.5 5v32h254v-32q-32 -3 -49 -13t-37 -39q-8 -11 -29 -64l-317 -775q-45 -114 -119.5 -171.5t-143.5 -57.5q-50 0 -82 29t-32 66q0 36 23 57.5
t65 21.5q27 0 76 -18q34 -13 43 -13q25 0 54.5 26t60.5 102l55 135l-279 586q-12 25 -40 65q-21 29 -35 40q-20 14 -62 23v32z" />
    <glyph glyph-name="z" unicode="z" horiz-adv-x="771" 
d="M729 238l-9 -238h-685v31l515 687h-254q-82 0 -107.5 -11t-42.5 -40q-22 -43 -25 -105h-34l4 215h652v-32l-520 -688h283q89 0 120.5 15t50.5 52q14 27 24 114h28z" />
    <glyph glyph-name="two" unicode="2" horiz-adv-x="868" 
d="M796 222l-81 -222h-678v32q300 272 422 445.5t122 316.5q0 109 -67 179.5t-160 70.5q-85 0 -152.5 -50t-99.5 -145h-32q21 157 109 240.5t220 83.5q139 0 233 -89.5t94 -212.5q0 -87 -41 -174q-63 -137 -204 -291q-211 -230 -263 -278h300q91 0 128.5 7t67 27.5
t51.5 59.5h31z" />
    <glyph glyph-name="three" unicode="3" horiz-adv-x="868" 
d="M88 931q50 116 124.5 179t187.5 63q137 0 212 -90q56 -66 56 -143q0 -125 -158 -259q106 -42 160 -119t54 -181q0 -150 -94 -259q-124 -142 -360 -142q-115 0 -157.5 28.5t-42.5 61.5q0 25 20 43.5t48 18.5q21 0 43 -7q15 -4 66 -30.5t70 -31.5q32 -10 67 -10
q87 0 151 67.5t64 158.5q0 67 -30 130q-22 48 -49 72q-36 34 -99.5 61.5t-130.5 27.5h-26v26q67 8 134 48.5t98 96t31 122.5q0 88 -54.5 141.5t-136.5 53.5q-131 0 -219 -140z" />
    <glyph glyph-name="four" unicode="4" horiz-adv-x="868" 
d="M808 424v-121h-154v-303h-140v303h-486v109l533 761h93v-749h154zM514 424v570l-404 -570h404z" />
    <glyph glyph-name="five" unicode="5" horiz-adv-x="868" 
d="M754 1150l-66 -144h-347l-75 -155q225 -33 356 -166q114 -116 114 -272q0 -91 -37.5 -168.5t-93.5 -131.5t-124 -87q-97 -46 -200 -46q-104 0 -151 35t-47 77q0 25 19.5 43t49.5 18q22 0 38.5 -7t56.5 -35q64 -44 128 -44q100 0 175 75t75 182q0 105 -67 195t-185 140
q-92 38 -252 44l220 447h413z" />
    <glyph glyph-name="six" unicode="6" horiz-adv-x="868" 
d="M778 1173v-30q-111 -12 -182 -45.5t-140 -102.5t-114.5 -153t-76.5 -200q123 84 246 84q118 0 204 -95t86 -244q0 -144 -87 -263q-106 -144 -278 -144q-118 0 -201 77q-161 153 -161 395q0 153 62 292.5t177 247t220 144.5t196 37h49zM251 580q-16 -115 -16 -185
q0 -81 30.5 -176.5t89.5 -151.5q44 -39 105 -39q74 0 132.5 69t58.5 198q0 145 -58 251t-164 106q-33 0 -69.5 -13.5t-108.5 -58.5z" />
    <glyph glyph-name="seven" unicode="7" horiz-adv-x="868" 
d="M175 1150h616v-33l-383 -1140h-95l343 1034h-316q-96 0 -136 -22q-72 -39 -115 -121l-24 10z" />
    <glyph glyph-name="eight" unicode="8" horiz-adv-x="868" 
d="M333 579q-136 112 -175.5 180t-39.5 141q0 111 86 192t231 81q138 0 223 -75t85 -172q0 -64 -46 -131.5t-190 -157.5q148 -115 197 -181q64 -87 64 -183q0 -121 -92.5 -207t-241.5 -86q-165 0 -256 103q-73 81 -73 179q0 76 51.5 151.5t176.5 165.5zM466 670
q102 91 129 144t27 121q0 89 -49.5 139.5t-136.5 50.5q-86 0 -140.5 -50.5t-54.5 -117.5q0 -43 22.5 -87.5t64.5 -84.5zM373 547q-70 -59 -104 -129t-34 -152q0 -109 59.5 -175t152.5 -66q91 0 146.5 52t55.5 125q0 62 -32 110q-61 90 -244 235z" />
    <glyph glyph-name="nine" unicode="9" horiz-adv-x="868" 
d="M91 -23v30q110 3 205.5 52t184 173t123.5 273q-133 -86 -241 -86q-121 0 -207.5 93.5t-86.5 248.5q0 152 86 269q105 143 272 143q142 0 243 -116q124 -145 124 -358q0 -192 -94.5 -357.5t-261.5 -275.5q-137 -89 -298 -89h-49zM617 567q16 110 16 177q0 82 -28 177.5
t-79.5 146t-116.5 50.5q-76 0 -133 -67.5t-57 -201.5q0 -179 76 -280q55 -73 135 -73q40 0 93.5 18.5t93.5 52.5z" />
    <glyph glyph-name="numbersign" unicode="#" horiz-adv-x="1390" 
d="M1257 870h-273l-86 -351h250v-126h-283l-98 -393h-120l98 393h-252l-98 -393h-119l97 393h-241v126h274l86 351h-250v125h283l97 394h121l-99 -394h253l97 394h121l-98 -394h240v-125zM866 871h-255l-87 -355h255z" />
    <glyph glyph-name="dollar" unicode="$" horiz-adv-x="1042" 
d="M955 354q0 -137 -105 -235t-265 -118v-338h-106v334q-100 1 -202 23t-177 59v189h13q74 -56 166 -90.5t200 -42.5v402q-23 7 -56.5 14.5t-56.5 15.5q-140 37 -200.5 114.5t-60.5 190.5q0 133 104 231t270 113v254h106v-252q85 -3 176 -24t150 -46v-184h-14
q-66 45 -144 78t-168 41v-401q32 -7 58 -14t46 -12q127 -28 196.5 -102.5t69.5 -199.5zM479 696v386q-84 -7 -140.5 -54.5t-56.5 -130.5t41.5 -128.5t155.5 -72.5zM779 330q0 88 -45 129.5t-149 64.5v-387q96 10 145 57t49 136z" />
    <glyph glyph-name="percent" unicode="%" horiz-adv-x="1592" 
d="M1297 1294l-922 -1347h-82l921 1347h83zM338 1294q126 0 195.5 -105t69.5 -240q0 -161 -78.5 -250.5t-187.5 -89.5q-74 0 -135.5 41t-98 121t-36.5 178t37 181t101.5 123.5t132.5 40.5zM336 1241q-48 0 -85 -55.5t-37 -234.5q0 -131 20 -197q17 -52 50 -80q20 -18 48 -18
q45 0 77 49q47 72 47 239q0 177 -46 250q-29 47 -74 47zM1255 628q66 0 131 -42t101.5 -122t36.5 -177q0 -164 -79.5 -252t-187.5 -88q-68 0 -132 42.5t-100.5 120.5t-36.5 177q0 98 36.5 179.5t100.5 121.5t130 40zM1256 579q-45 0 -78 -51q-43 -65 -43 -247
q0 -167 44 -233q33 -48 78 -48q41 0 74 51q46 68 46 234q0 176 -46 246q-29 48 -75 48z" />
    <glyph glyph-name="ampersand" unicode="&#x26;" horiz-adv-x="1485" 
d="M975 814h391v-34q-81 -7 -119.5 -36.5t-120.5 -177.5t-185 -277q83 -96 148 -135.5t132 -39.5q64 0 109 35t63 104l35 -25q-35 -133 -111.5 -195.5t-177.5 -62.5q-77 0 -155.5 42t-171.5 141q-116 -103 -208.5 -143t-198.5 -40q-154 0 -244.5 83t-90.5 196
q0 112 81 224.5t305 233.5q-44 98 -59.5 160t-15.5 119q0 159 117 243q92 65 209 65q110 0 180 -65.5t70 -163.5q0 -97 -67 -172t-239 -163q117 -211 247 -388q163 196 163 332q0 41 -28 75q-20 27 -58 31v34zM618 791q117 55 174 125t57 155q0 67 -41.5 110.5t-103.5 43.5
q-82 0 -123 -56.5t-41 -109.5q0 -46 15.5 -102.5t62.5 -165.5zM762 208q-122 167 -169.5 244t-104.5 192q-113 -63 -168.5 -140.5t-55.5 -168.5q0 -100 64 -175.5t173 -75.5q59 0 113.5 23t147.5 101z" />
    <glyph glyph-name="zero" unicode="0" horiz-adv-x="868" 
d="M63 568q0 197 59 339t158 211q76 55 158 55q132 0 237 -134q132 -168 132 -453q0 -200 -58 -340t-147.5 -203t-172.5 -63q-164 0 -274 194q-92 163 -92 394zM229 547q0 -237 58 -388q49 -126 144 -126q46 0 95.5 41.5t74.5 137.5q39 146 39 411q0 197 -40 329
q-31 97 -80 138q-35 27 -83 27q-58 0 -103 -51q-61 -71 -83 -222t-22 -297z" />
    <glyph glyph-name="one" unicode="1" horiz-adv-x="868" 
d="M204 1037l279 136h28v-971q0 -96 8.5 -120t34 -36.5t102.5 -13.5v-32h-432v32q81 1 105 13t33 33.5t9 123.5v622q0 125 -8 161q-6 26 -22 39t-38 13q-31 0 -87 -26z" />
    <glyph glyph-name="OE" unicode="&#x152;" horiz-adv-x="3414" 
 />
    <glyph glyph-name="colon" unicode=":" horiz-adv-x="410" 
d="M338 115q0 -49 -33 -82.5t-82 -33.5t-82 33.5t-33 82.5q0 48 33.5 81.5t81.5 33.5t81.5 -33.5t33.5 -81.5zM338 652q0 -48 -33.5 -82t-81.5 -34q-49 0 -82 33.5t-33 82.5q0 48 33.5 81.5t81.5 33.5t81.5 -33.5t33.5 -81.5z" />
    <glyph glyph-name="semicolon" unicode=";" horiz-adv-x="482" 
d="M240 801q38 0 65.5 -27t27.5 -66t-27.5 -66.5t-65.5 -27.5q-40 0 -67.5 27.5t-27.5 66.5t27.5 66t67.5 27zM121 -289v37q87 29 134.5 89.5t47.5 128.5q0 16 -7 28q-6 7 -12 7q-9 0 -40 -17q-16 -7 -33 -7q-41 0 -65.5 24t-24.5 68q0 41 31.5 71t77.5 30q56 0 99.5 -49
t43.5 -129q0 -87 -60.5 -162.5t-191.5 -118.5z" />
    <glyph glyph-name="question" unicode="?" horiz-adv-x="771" 
d="M385 271h-35q6 107 26.5 177t86.5 194q51 97 66.5 148.5t15.5 103.5q0 108 -57.5 171.5t-140.5 63.5q-74 0 -116 -35t-42 -75q0 -32 25.5 -77.5t25.5 -70.5q0 -29 -20 -50.5t-48 -21.5q-35 0 -64.5 35.5t-29.5 98.5q0 95 82.5 169.5t223.5 74.5q174 0 256 -102
q62 -75 62 -166q0 -62 -27.5 -127t-105.5 -153q-123 -139 -150.5 -197.5t-33.5 -160.5zM373 166q40 0 68 -27.5t28 -67.5q0 -39 -28.5 -66.5t-67.5 -27.5t-66.5 27.5t-27.5 66.5q0 40 27.5 67.5t66.5 27.5z" />
    <glyph glyph-name="asciicircum" unicode="^" horiz-adv-x="986" 
d="M897 453h-131l-273 412l-275 -413h-131l365 532h82z" />
    <glyph glyph-name="underscore" unicode="_" horiz-adv-x="924" 
d="M937 -248h-950v107h950v-107z" />
    <glyph glyph-name="afii57388" unicode="&#x60c;" horiz-adv-x="481" 
d="M170 48q-17 69 53.5 219.5t188.5 210.5l14 -18q-108 -106 -128 -247q81 5 101 -58q13 -50 -11.5 -95t-70.5 -62q-123 -34 -147 50z" />
    <glyph glyph-name="cent" unicode="&#xa2;" horiz-adv-x="1707" 
d="M918 -306h-130v1519h130v-1519z" />
    <glyph glyph-name="sterling" unicode="&#xa3;" horiz-adv-x="1707" 
d="M1141 1213h-576v122h576v-122z" />
    <glyph glyph-name="currency" unicode="&#xa4;" horiz-adv-x="1707" 
 />
    <glyph glyph-name="yen" unicode="&#xa5;" horiz-adv-x="1707" 
d="M1268 1486h-829v120h829v-120zM1268 1171h-829v120h829v-120z" />
    <glyph glyph-name="brokenbar" unicode="&#xa6;" horiz-adv-x="1707" 
 />
    <glyph glyph-name="section" unicode="&#xa7;" horiz-adv-x="1707" 
 />
    <glyph glyph-name="afii57403" unicode="&#x61b;" horiz-adv-x="479" 
d="M311 213q72 -41 71 -166l-12 -20q-27 -49 -126 -19l-21 10q-76 43 -28 168q34 60 116 27zM174 407q-17 69 53.5 219.5t188.5 210.5l14 -18q-108 -106 -128 -247q81 5 101 -58q13 -50 -11.5 -95t-70.5 -62q-123 -34 -147 50z" />
    <glyph glyph-name="guilsinglright" unicode="&#x203a;" horiz-adv-x="1117" 
d="M966 444l-806 -386v134l626 297l-626 295v134l806 -384v-90z" />
    <glyph glyph-name="oe" unicode="&#x153;" horiz-adv-x="3414" 
d="M435 799q176 0 283 -133q90 -115 90 -263q0 -104 -50 -211t-138 -161t-195 -54q-176 0 -279 140q-88 117 -88 264q0 107 53 212.5t139.5 155.5t184.5 50zM408 744q-45 0 -90.5 -26.5t-73.5 -93t-28 -172.5q0 -170 67.5 -293t177.5 -123q83 0 136.5 68t53.5 233
q0 208 -89 327q-61 80 -154 80zM1891 484q0 -172 85 -271t200 -99q76 0 132 42t94 144l27 -17q-18 -116 -104 -211t-214 -95q-140 0 -239.5 108.5t-99.5 292.5q0 200 102 311t256 111q130 0 214.5 -85.5t84.5 -230.5h-538zM1891 533h361q-4 75 -18 105q-21 48 -63 75t-89 27
q-70 0 -125.5 -54.5t-65.5 -152.5z" />
    <glyph glyph-name="plusminus" unicode="&#xb1;" horiz-adv-x="1707" 
 />
    <glyph glyph-name="twosuperior" unicode="&#xb2;" horiz-adv-x="1707" 
d="M796 222l-81 -222h-678v32q300 272 422 445.5t122 316.5q0 109 -67 179.5t-160 70.5q-85 0 -152.5 -50t-99.5 -145h-32q21 157 109 240.5t220 83.5q139 0 233 -89.5t94 -212.5q0 -87 -41 -174q-63 -137 -204 -291q-211 -230 -263 -278h300q91 0 128.5 7t67 27.5
t51.5 59.5h31z" />
    <glyph glyph-name="threesuperior" unicode="&#xb3;" horiz-adv-x="1707" 
d="M88 931q50 116 124.5 179t187.5 63q137 0 212 -90q56 -66 56 -143q0 -125 -158 -259q106 -42 160 -119t54 -181q0 -150 -94 -259q-124 -142 -360 -142q-115 0 -157.5 28.5t-42.5 61.5q0 25 20 43.5t48 18.5q21 0 43 -7q15 -4 66 -30.5t70 -31.5q32 -10 67 -10
q87 0 151 67.5t64 158.5q0 67 -30 130q-22 48 -49 72q-36 34 -99.5 61.5t-130.5 27.5h-26v26q67 8 134 48.5t98 96t31 122.5q0 88 -54.5 141.5t-136.5 53.5q-131 0 -219 -140z" />
    <glyph glyph-name="mu1" unicode="&#xb5;" horiz-adv-x="1707" 
 />
    <glyph glyph-name="paragraph" unicode="&#xb6;" horiz-adv-x="1707" 
 />
    <glyph glyph-name="onesuperior" unicode="&#xb9;" horiz-adv-x="1707" 
d="M276 1037l279 136h28v-971q0 -96 8.5 -120t34 -36.5t102.5 -13.5v-32h-432v32q81 1 105 13t33 33.5t9 123.5v622q0 125 -8 161q-6 26 -22 39t-38 13q-31 0 -87 -26z" />
    <glyph glyph-name="backslash" unicode="\" horiz-adv-x="609" 
d="M585 -379h-120l-408 1317h122z" />
    <glyph glyph-name="acircumflex" unicode="&#xe2;" horiz-adv-x="1707" 
d="M494 112q-119 -93 -150 -107q-45 -21 -97 -21q-81 0 -133.5 55t-52.5 145q0 57 26 98q35 58 121.5 109t285.5 124v30q0 116 -36.5 159.5t-107.5 43.5q-53 0 -85 -29t-32 -66l2 -49q0 -39 -20 -60t-52 -21t-52 21.5t-20 59.5q0 73 75 134t209 61q104 0 170 -34
q51 -26 74 -82q15 -36 15 -150v-264q0 -110 4 -135.5t14 -34t23 -8.5q14 0 24 7q18 10 68 61v-47q-95 -127 -181 -127q-41 0 -66 28.5t-26 98.5zM494 167v296q-127 -51 -165 -72q-67 -37 -95.5 -78t-28.5 -89q0 -61 36.5 -101t82.5 -40q65 0 170 84z" />
    <glyph glyph-name="ocircumflex" unicode="&#xf4;" horiz-adv-x="1707" 
d="M435 799q176 0 283 -133q90 -115 90 -263q0 -104 -50 -211t-138 -161t-195 -54q-176 0 -279 140q-88 117 -88 264q0 107 53 212.5t139.5 155.5t184.5 50zM408 744q-45 0 -90.5 -26.5t-73.5 -93t-28 -172.5q0 -170 67.5 -293t177.5 -123q83 0 136.5 68t53.5 233
q0 208 -89 327q-61 80 -154 80z" />
    <glyph glyph-name="Euro" unicode="&#x20ac;" horiz-adv-x="1707" 
d="M1268 586h-829v120h829v-120zM1268 271h-829v120h829v-120z" />
    <glyph glyph-name="uni06BA.001" unicode="&#x6ba;" horiz-adv-x="1707" 
 />
    <glyph glyph-name="onequarter" unicode="&#xbc;" horiz-adv-x="2944" 
 />
    <glyph glyph-name="onehalf" unicode="&#xbd;" horiz-adv-x="2944" 
 />
    <glyph glyph-name="threequarters" unicode="&#xbe;" horiz-adv-x="2944" 
 />
    <glyph glyph-name="E006" horiz-adv-x="921" 
d="M443 -409q73 0 124 -96v-20q0 -49 -88 -68h-20q-76 0 -92 116q0 59 76 68z" />
    <glyph glyph-name="uniE065.001" 
 />
    <glyph glyph-name="E0A7" horiz-adv-x="1260" 
 />
    <glyph glyph-name="E0A8" horiz-adv-x="1260" 
 />
    <glyph glyph-name="icircumflex" unicode="&#xee;" horiz-adv-x="1156" 
 />
    <glyph glyph-name="idieresis" unicode="&#xef;" horiz-adv-x="1156" 
 />
    <glyph glyph-name="E008" horiz-adv-x="1334" 
 />
    </font>
</defs>
</svg>
