<?xml version="1.0" encoding="utf-8"?>
<!-- Generator: Adobe Illustrator 23.0.1, SVG Export Plug-In . SVG Version: 6.00 Build 0)  -->
<svg version="1.1" id="OBJECTS" xmlns="http://www.w3.org/2000/svg" xmlns:xlink="http://www.w3.org/1999/xlink" x="0px" y="0px"
	 viewBox="0 0 500 500" style="enable-background:new 0 0 500 500;" xml:space="preserve">
<g>
	<path style="fill-rule:evenodd;clip-rule:evenodd;fill:#EEEEEE;enable-background:new    ;" d="M420.9,239.5
		c10.4-20.6,16.2-43.8,16.2-68.4C437.1,87.1,369,19,285,19c-62.2,0-115.7,37.3-139.3,90.8C65,126.9,4.6,198.4,4.6,284.1
		c0,98.4,79.8,178.2,178.2,178.2c54.6,0,103.4-24.6,136.1-63.2c16.6,13.8,37.9,22.2,61.2,22.2c52.7,0,95.4-42.7,95.4-95.4
		C475.5,287.7,453.1,254.8,420.9,239.5z"/>
	
		<ellipse style="opacity:0.5;fill-rule:evenodd;clip-rule:evenodd;fill:#EEEEEE;enable-background:new    ;" cx="76.9" cy="64.9" rx="24" ry="24"/>
	
		<ellipse style="opacity:0.5;fill-rule:evenodd;clip-rule:evenodd;fill:#EEEEEE;enable-background:new    ;" cx="467.2" cy="222.6" rx="15" ry="15"/>
	
		<ellipse style="opacity:0.5;fill-rule:evenodd;clip-rule:evenodd;fill:#EEEEEE;enable-background:new    ;" cx="354.7" cy="466" rx="15" ry="15"/>
	
		<ellipse transform="matrix(0.1606 -0.987 0.987 0.1606 217.9039 640.8432)" style="opacity:0.5;fill-rule:evenodd;clip-rule:evenodd;fill:#EEEEEE;enable-background:new    ;" cx="485.7" cy="192.3" rx="9.7" ry="9.7"/>
</g>
</svg>
