<?xml version="1.0" encoding="utf-8"?>
<!-- Generator: Adobe Illustrator 23.0.1, SVG Export Plug-In . SVG Version: 6.00 Build 0)  -->
<svg version="1.1" id="Layer_1" xmlns="http://www.w3.org/2000/svg" xmlns:xlink="http://www.w3.org/1999/xlink" x="0px" y="0px"
	 viewBox="0 0 288.5 427.2" style="enable-background:new 0 0 288.5 427.2;" xml:space="preserve">
<path d="M173.9,188.2c-4.6,10.4-13.2,22.1-21.3,31.3c-8.1,9-28,24.7-40.8,34.4c-33,24.6-52.9,46.5-70,70.6
	c-6.9,9.7-13.8,20.1-25,45.3S1,427.1,1,427.1l289.1,0.1L288.5,0L270,0c0,0-32.2,22.9-53.1,60.7c-9.6,17.1-20.5,41.8-24.1,63.5
	c-1.8,11.2-5.3,27.1-9.6,40.5C178.9,178.1,176,183.5,173.9,188.2z"/>
</svg>
