<?xml version="1.0" encoding="utf-8"?>
<!-- Generator: Adobe Illustrator 23.0.1, SVG Export Plug-In . SVG Version: 6.00 Build 0)  -->
<svg version="1.1" id="Isolation_Mode" xmlns="http://www.w3.org/2000/svg" xmlns:xlink="http://www.w3.org/1999/xlink" x="0px"
	 y="0px" viewBox="0 0 200 100" style="enable-background:new 0 0 200 100;" xml:space="preserve">
<g>
	<g>
		<path style="fill:#EEEEEE;" d="M90.1,68.7C92.3,73.7,95.3,70.6,90.1,68.7c5.2,1.9,5.1-2.4,0.1-0.2c5-2.2,1.9-5.2-0.1-0.1
			c2-5.1-2.3-5-0.1,0c-2.2-5-5.2-1.9-0.1,0.1c-5.1-2-5,2.3,0,0.1c-5,2.2-1.9,5.2,0.1,0.1C88,73.8,92.3,73.7,90.1,68.7z"/>
		<path style="fill:#EEEEEE;" d="M87.3,42C88.9,45.5,90.9,43.3,87.3,42c3.6,1.3,3.5-1.7,0-0.1c3.5-1.6,1.3-3.6-0.1-0.1
			c1.4-3.5-1.6-3.5-0.1,0c-1.6-3.5-3.6-1.3-0.1,0.1c-3.5-1.4-3.5,1.6,0,0.1C83.7,43.5,85.9,45.6,87.3,42
			C85.9,45.6,88.9,45.5,87.3,42z"/>
		<path style="fill:#EEEEEE;" d="M97.3,49.9C98.5,52.7,100.2,50.9,97.3,49.9c2.9,1.1,2.9-1.4,0-0.1c2.8-1.3,1.1-2.9,0,0
			c1.1-2.9-1.3-2.8-0.1,0c-1.3-2.8-2.9-1.1,0,0c-2.9-1.1-2.8,1.3,0,0.1C94.3,51.1,96.1,52.8,97.3,49.9
			C96.1,52.8,98.5,52.7,97.3,49.9z"/>
		<path style="fill:#EEEEEE;" d="M141.1,44.8C142.4,47.6,144,45.9,141.1,44.8c2.9,1.1,2.9-1.4,0-0.1c2.8-1.3,1.1-2.9,0,0
			c1.1-2.9-1.3-2.8-0.1,0c-1.3-2.8-2.9-1.1,0,0c-2.9-1.1-2.8,1.3,0,0.1C138.2,46,139.9,47.7,141.1,44.8
			C139.9,47.7,142.4,47.6,141.1,44.8z"/>
		<path style="fill:#EEEEEE;" d="M189,40.4C191.2,45.4,194.1,42.3,189,40.4c5.2,1.9,5.1-2.4,0.1-0.2c5-2.2,1.9-5.2-0.1-0.1
			c1.9-5.1-2.4-5-0.1,0c-2.2-5-5.2-1.9-0.1,0.1c-5.1-1.9-5,2.4,0,0.1c-5,2.2-1.9,5.2,0.1,0.1C186.9,45.5,191.2,45.4,189,40.4z"/>
		<path style="fill:#EEEEEE;" d="M133.4,76.3C135.6,81.3,138.6,78.2,133.4,76.3c5.2,1.9,5.1-2.4,0.1-0.2c5-2.2,1.9-5.2-0.1-0.1
			c2-5.1-2.3-5-0.1,0c-2.2-5-5.2-1.9-0.1,0.1c-5.1-1.9-5,2.3,0,0.1c-5,2.2-1.9,5.2,0.1,0.1C131.3,81.4,135.6,81.3,133.4,76.3z"/>
		<path style="fill:#EEEEEE;" d="M33.1,52.1C35.3,57.1,38.3,53.9,33.1,52.1c5.2,1.9,5.1-2.4,0.1-0.2c5-2.2,1.9-5.2-0.1-0.1
			c2-5.1-2.3-5-0.1,0c-2.2-5-5.2-1.9-0.1,0.1c-5.1-1.9-5,2.3,0,0.1c-5,2.2-1.9,5.2,0.1,0.1C31,57.2,35.3,57.1,33.1,52.1z"/>
		<path style="fill:#EEEEEE;" d="M167.9,58.1C169.2,61.1,171,59.2,167.9,58.1c3.1,1.1,3-1.5,0-0.1c3-1.3,1.1-3.1,0,0
			c1.2-3.1-1.4-3-0.1,0c-1.3-3-3.1-1.1,0,0c-3.1-1.2-3,1.4,0,0.1C164.8,59.4,166.7,61.2,167.9,58.1
			C166.7,61.2,169.2,61.1,167.9,58.1z"/>
		<g>
			<path style="fill:#EEEEEE;" d="M79.5,50c-3.1,1.4-0.4,4,0.8,0.8c-1.2,3.2,2.6,3.1,1.2,0c1.4,3.1,4,0.4,0.8-0.8
				c3.2,1.2,3.1-2.6,0-1.2c3.1-1.4,0.4-4-0.8-0.8c1.2-3.2-2.6-3.1-1.2,0c-1.4-3.1-4-0.4-0.8,0.8C76.2,47.6,76.3,51.4,79.5,50z
				 M79.9,49c-2.1-0.8-0.4-2.6,0.5-0.6c-0.9-2.1,1.6-2.1,0.8,0c0.8-2.1,2.6-0.4,0.6,0.5c2.1-0.9,2.1,1.6,0,0.8
				c2.1,0.8,0.4,2.6-0.5,0.6c0.9,2.1-1.6,2.1-0.8,0c-0.8,2.1-2.6,0.4-0.6-0.5C77.9,50.7,77.8,48.2,79.9,49z"/>
			<path style="fill:#EEEEEE;" d="M80.3,49.6c-1.4,0.6-0.2,1.8,0.4,0.4c-0.5,1.4,1.1,1.4,0.5,0c0.6,1.4,1.8,0.2,0.4-0.4
				c1.4,0.5,1.4-1.1,0-0.5c1.4-0.6,0.2-1.8-0.4-0.4c0.5-1.4-1.1-1.4-0.5,0c-0.6-1.4-1.8-0.2-0.4,0.4C78.8,48.6,78.9,50.3,80.3,49.6z
				 M80.5,49.2c-0.9-0.4-0.2-1.2,0.2-0.2c-0.4-0.9,0.7-0.9,0.3,0c0.4-0.9,1.2-0.2,0.2,0.2c0.9-0.4,0.9,0.7,0,0.3
				c0.9,0.4,0.2,1.2-0.2,0.2c0.4,0.9-0.7,0.9-0.3,0c-0.4,0.9-1.2,0.2-0.2-0.2C79.6,50,79.5,48.9,80.5,49.2z"/>
		</g>
		<g>
			<path style="fill:#EEEEEE;" d="M198.4,43c-4.7-1.8-0.9-5.8,1.2-1.2c-0.9-1.9-0.4-3.1,0.4-3.4v2c-0.4,0.3-0.5,1,0,2.1
				c-1.3-3-3.8-0.4-0.8,0.8c-3.1-1.2-3,2.5,0,1.1c-3,1.3-0.4,3.8,0.8,0.8v0c-0.3,0.8-0.2,1.4,0,1.8v2c-0.6-0.4-0.9-1.5-0.2-3.2
				c-1.8,4.7-5.8,0.9-1.2-1.2C193.8,46.8,193.7,41.3,198.4,43z"/>
			<path style="fill:#EEEEEE;" d="M199.5,43.5c-2-0.7-0.6-2.4,0.4-0.8v0.2c-0.6-0.5-1.2,0.4,0,0.8c-1.4-0.5-1.3,1.1,0,0.5
				c-1.1,0.5-0.5,1.3,0,0.8v0.2c-0.8,1.4-2.2-0.1-0.3-0.9C197.5,45.1,197.5,42.7,199.5,43.5z"/>
		</g>
		<g>
			<path style="fill:#EEEEEE;" d="M148.9,38.6c-5.5,2.5-0.7,7,1.5,1.4c-2.1,5.6,4.5,5.4,2-0.1c2.5,5.5,7,0.7,1.4-1.5
				c5.6,2.1,5.4-4.5-0.1-2c5.5-2.5,0.7-7-1.5-1.4c2.1-5.6-4.5-5.4-2,0.1c-2.5-5.5-7-0.7-1.4,1.5C143.2,34.4,143.4,41,148.9,38.6z
				 M149.7,36.9c-3.7-1.4-0.7-4.6,0.9-1c-1.6-3.6,2.7-3.7,1.3,0c1.4-3.7,4.6-0.7,1,0.9c3.6-1.6,3.7,2.7,0,1.3c3.7,1.4,0.7,4.6-0.9,1
				c1.6,3.6-2.7,3.7-1.3,0c-1.4,3.7-4.6,0.7-1-0.9C146.2,39.8,146,35.5,149.7,36.9z"/>
			<path style="fill:#EEEEEE;" d="M150.3,38c-2.4,1.1-0.3,3.1,0.7,0.6c-0.9,2.5,2,2.4,0.9,0c1.1,2.4,3.1,0.3,0.6-0.7
				c2.5,0.9,2.4-2,0-0.9c2.4-1.1,0.3-3.1-0.7-0.6c0.9-2.5-2-2.4-0.9,0c-1.1-2.4-3.1-0.3-0.6,0.7C147.8,36.1,147.9,39,150.3,38z
				 M150.6,37.2c-1.6-0.6-0.3-2,0.4-0.4c-0.7-1.6,1.2-1.6,0.6,0c0.6-1.6,2-0.3,0.4,0.4c1.6-0.7,1.6,1.2,0,0.6c1.6,0.6,0.3,2-0.4,0.4
				c0.7,1.6-1.2,1.6-0.6,0c-0.6,1.6-2,0.3-0.4-0.4C149.1,38.5,149,36.6,150.6,37.2z"/>
		</g>
		<g>
			<path style="fill:#EEEEEE;" d="M143.6,78.1c-4.4,2-0.5,5.6,1.2,1.1c-1.7,4.5,3.6,4.3,1.6,0c2,4.4,5.6,0.5,1.1-1.2
				c4.5,1.7,4.4-3.6,0-1.6c4.4-2,0.5-5.6-1.2-1.1c1.7-4.5-3.6-4.4-1.6,0c-2-4.4-5.6-0.5-1.1,1.2C139,74.7,139.2,80,143.6,78.1z
				 M144.2,76.7c-3-1.1-0.6-3.7,0.7-0.8c-1.3-2.9,2.2-3,1.1,0c1.1-3,3.7-0.6,0.8,0.7c2.9-1.3,3,2.2,0,1.1c3,1.1,0.6,3.7-0.7,0.8
				c1.3,2.9-2.2,3-1.1,0c-1.1,3-3.7,0.6-0.8-0.7C141.3,79.1,141.2,75.6,144.2,76.7z"/>
			<path style="fill:#EEEEEE;" d="M144.7,77.6c-1.9,0.9-0.2,2.5,0.5,0.5c-0.8,2,1.6,1.9,0.7,0c0.9,1.9,2.5,0.2,0.5-0.5
				c2,0.8,1.9-1.6,0-0.7c1.9-0.9,0.2-2.5-0.5-0.5c0.8-2-1.6-1.9-0.7,0c-0.9-1.9-2.5-0.2-0.5,0.5C142.7,76.1,142.7,78.4,144.7,77.6z
				 M144.9,77c-1.3-0.5-0.2-1.6,0.3-0.3c-0.6-1.3,1-1.3,0.5,0c0.5-1.3,1.6-0.2,0.3,0.3c1.3-0.6,1.3,1,0,0.5c1.3,0.5,0.2,1.6-0.3,0.3
				c0.6,1.3-1,1.3-0.5,0c-0.5,1.3-1.6,0.2-0.3-0.3C143.7,78,143.6,76.5,144.9,77z"/>
		</g>
		<g>
			<path style="fill:#EEEEEE;" d="M65.7,34c-4.4,2-0.5,5.6,1.2,1.1c-1.7,4.5,3.6,4.4,1.6,0c2,4.4,5.6,0.5,1.1-1.2
				c4.5,1.7,4.4-3.6,0-1.6c4.4-2,0.5-5.6-1.2-1.1c1.7-4.5-3.6-4.4-1.6,0c-2-4.4-5.6-0.5-1.1,1.2C61.1,30.6,61.3,36,65.7,34z
				 M66.3,32.6c-3-1.1-0.6-3.7,0.7-0.8c-1.3-2.9,2.2-3,1.1,0c1.1-3,3.7-0.6,0.8,0.7c2.9-1.3,3,2.2,0,1.1c3,1.1,0.6,3.7-0.7,0.8
				c1.3,2.9-2.2,3-1.1,0c-1.1,3-3.7,0.6-0.8-0.7C63.5,35,63.4,31.5,66.3,32.6z"/>
			<path style="fill:#EEEEEE;" d="M66.8,33.5c-1.9,0.9-0.2,2.5,0.5,0.5c-0.8,2,1.6,1.9,0.7,0c0.9,1.9,2.5,0.2,0.5-0.5
				c2,0.8,1.9-1.6,0-0.7c1.9-0.9,0.2-2.5-0.5-0.5c0.8-2-1.6-1.9-0.7,0c-0.9-1.9-2.5-0.2-0.5,0.5C64.8,32,64.8,34.4,66.8,33.5z
				 M67.1,32.9c-1.3-0.5-0.2-1.6,0.3-0.3c-0.6-1.3,1-1.3,0.5,0c0.5-1.3,1.6-0.2,0.3,0.3c1.3-0.6,1.3,1,0,0.5
				c1.3,0.5,0.2,1.6-0.3,0.3c0.6,1.3-1,1.3-0.5,0c-0.5,1.3-1.6,0.2-0.3-0.3C65.8,33.9,65.7,32.4,67.1,32.9z"/>
		</g>
		<path style="fill:#EEEEEE;" d="M102.6,67.2c1.4,5.5,6.4,1.8,1.6-1.1c4.9,2.9,5.8-3.3,0.3-1.9c5.5-1.4,1.8-6.4-1.1-1.6
			c3-4.9-3.3-5.8-1.9-0.3c-1.4-5.5-6.4-1.8-1.6,1.1c-4.9-3-5.8,3.3-0.3,1.9c-5.5,1.4-1.8,6.4,1.1,1.6C97.8,71.8,104,72.8,102.6,67.2
			z"/>
		<g>
			<path style="fill:#EEEEEE;" d="M111.5,56.3c-6.8,3.1-2.6,7.1,0.1,0.1c-2.7,7,3.2,6.8,0.2,0c3.1,6.8,7.1,2.6,0.1-0.1
				c7,2.7,6.8-3.2,0-0.2c6.8-3.1,2.6-7.1-0.1-0.1c2.7-7-3.2-6.8-0.2,0c-3.1-6.8-7.1-2.6-0.1,0.1C104.5,53.4,104.6,59.3,111.5,56.3z
				 M111.5,56.1C105.7,53.9,109.1,50.4,111.5,56.1c-2.5-5.8,2.4-5.9,0.2-0.1c2.2-5.8,5.8-2.5,0.1,0.1c5.7-2.5,5.8,2.3,0,0.1
				c5.8,2.2,2.5,5.8-0.1,0.1c2.5,5.7-2.3,5.8-0.1,0c-2.2,5.8-5.8,2.5-0.1-0.1C105.8,58.8,105.7,53.9,111.5,56.1z"/>
			<path style="fill:#EEEEEE;" d="M112.1,57.2c1,2.3,3,0.3,0.6-0.6c2.4,0.9,2.3-1.9,0-0.9c2.3-1,0.3-3-0.6-0.6
				c0.9-2.4-1.9-2.3-0.9,0c-1-2.3-3-0.3-0.6,0.6c-2.4-0.9-2.3,1.9,0,0.9c-2.3,1-0.3,3,0.6,0.6C110.4,59.6,113.2,59.5,112.1,57.2z"/>
		</g>
		<g>
			<path style="fill:#EEEEEE;" d="M180.2,58.3C175.6,60.3,178.5,63,180.2,58.3c-1.7,4.7,2.2,4.6,0.2,0.1c2,4.6,4.7,1.7,0.1-0.1
				c4.7,1.8,4.6-2.1,0-0.1c4.6-2,1.7-4.7-0.1-0.1c1.8-4.7-2.1-4.6-0.1,0c-2-4.6-4.7-1.7-0.1,0.1C175.5,56.4,175.6,60.3,180.2,58.3z
				 M180.2,58.2C176.3,56.7,178.6,54.3,180.2,58.2c-1.6-3.8,1.6-3.9,0.1-0.1c1.5-3.9,3.8-1.6,0.1,0.1c3.8-1.7,3.9,1.6,0,0.1
				c3.9,1.5,1.6,3.8-0.1,0.1c1.7,3.8-1.6,3.9-0.1,0C178.8,62.2,176.4,59.9,180.2,58.2C176.4,59.9,176.3,56.7,180.2,58.2z"/>
			<path style="fill:#EEEEEE;" d="M180.6,58.9c0.7,1.5,2,0.2,0.4-0.4c1.6,0.6,1.5-1.3,0-0.6c1.5-0.7,0.2-2-0.4-0.4
				c0.6-1.6-1.3-1.5-0.6,0c-0.7-1.5-2-0.2-0.4,0.4c-1.6-0.6-1.5,1.3,0,0.6c-1.5,0.7-0.2,2,0.4,0.4C179.4,60.5,181.3,60.4,180.6,58.9
				z"/>
		</g>
		<g>
			<path style="fill:#EEEEEE;" d="M167.4,73.8C162.9,75.9,165.7,78.6,167.4,73.8c-1.7,4.7,2.2,4.6,0.2,0.1c2,4.6,4.7,1.7,0.1-0.1
				c4.7,1.8,4.6-2.1,0-0.1c4.6-2,1.7-4.7-0.1-0.1c1.8-4.7-2.1-4.6-0.1,0c-2-4.6-4.7-1.7-0.1,0.1C162.7,72,162.9,75.9,167.4,73.8z
				 M167.4,73.8C163.6,72.3,165.8,69.9,167.4,73.8c-1.6-3.8,1.6-3.9,0.1-0.1c1.5-3.9,3.8-1.6,0.1,0.1c3.8-1.7,3.9,1.6,0,0.1
				c3.9,1.5,1.6,3.8-0.1,0.1c1.7,3.8-1.6,3.9-0.1,0C166,77.8,163.7,75.5,167.4,73.8C163.7,75.5,163.6,72.3,167.4,73.8z"/>
			<path style="fill:#EEEEEE;" d="M167.8,74.5c0.7,1.5,2,0.2,0.4-0.4c1.6,0.6,1.5-1.3,0-0.6c1.5-0.7,0.2-2-0.4-0.4
				c0.6-1.6-1.3-1.5-0.6,0c-0.7-1.5-2-0.2-0.4,0.4c-1.6-0.6-1.5,1.3,0,0.6c-1.5,0.7-0.2,2,0.4,0.4C166.7,76.1,168.5,76,167.8,74.5z"
				/>
		</g>
		<g>
			<path style="fill:#EEEEEE;" d="M49.3,39.6C49.2,39.6,49.2,39.6,49.3,39.6c-1.4-0.5-3.3-0.5-5.9,1.6c0,0,2.3-1.6,4.9-1.4
				c-0.2,0.1-0.4,0.2-0.5,0.3c-3.1,3-7.2,2.2-7.2,2.2C43.4,35.4,49.3,39.6,49.3,39.6z"/>
		</g>
		<g>
			<path style="fill:#EEEEEE;" d="M56,33.9C56,33.9,56,33.9,56,33.9c-0.3-1.4-1.4-3.1-4.6-4c0,0,2.6,1.1,3.8,3.3
				c-0.2-0.1-0.4-0.2-0.6-0.3c-4.2-0.9-5.8-4.8-5.8-4.8C56.3,26.7,56,33.9,56,33.9z"/>
		</g>
		<g>
			<path style="fill:#EEEEEE;" d="M13.1,52.2C13.1,52.2,13.1,52.1,13.1,52.2c-0.3-0.6-1.1-1.3-2.7-1.4c0,0,1.4,0.2,2.3,1.1
				c-0.1,0-0.2-0.1-0.3-0.1C10.2,51.9,9,50.2,9,50.2C12.4,48.7,13.1,52.2,13.1,52.2z"/>
		</g>
		<g>
			<path style="fill:#EEEEEE;" d="M7.8,53.9C7.8,53.9,7.8,53.9,7.8,53.9c0.4-0.3,1-0.6,2.1-0.2c0,0-1-0.2-1.8,0.1c0.1,0,0.2,0,0.2,0
				c1.4,0.6,2.6-0.2,2.6-0.2C9.2,51.8,7.8,53.9,7.8,53.9z"/>
		</g>
		<g>
			<path style="fill:#EEEEEE;" d="M109,44.9C109,44.9,109,44.9,109,44.9c-0.4-0.3-0.7-0.9-0.5-2.1c0,0-0.1,1,0.4,1.7
				c0-0.1,0-0.2,0-0.2c0.4-1.5-0.5-2.6-0.5-2.6C106.7,43.9,109,44.9,109,44.9z"/>
		</g>
		<g>
			<path style="fill:#EEEEEE;" d="M128.6,82.2c0,0,0.3,0.8,0.6,2.2c0.2,0.7,0.3,1.6,0.5,2.6c0.1,1,0.2,2.2,0.1,3.4
				c-0.2,1.2-0.6,2.7-1.8,3.6c-1.2,0.9-2.8,1-4.4,0.9c-1.6-0.2-3.1-1-4.3-2.3c-1.2-1.2-1.8-3-1.8-4.7c0-1.8,0.6-3.4,1.4-4.9
				c0.9-1.5,2.1-2.6,3.2-3.7c2.2-2.2,4.3-4.1,5.7-6.2c1.4-2,1.9-4.1,1.9-5.5c0-0.7-0.1-1.3-0.1-1.7c-0.1-0.4-0.1-0.6-0.1-0.6
				s0.1,0.2,0.2,0.6c0.1,0.4,0.2,0.9,0.3,1.7c0,0.7,0,1.6-0.2,2.6c-0.2,1-0.7,2.1-1.3,3.2c-0.6,1.1-1.5,2.2-2.4,3.3
				c-1,1.1-2,2.1-3.1,3.2c-1.1,1.1-2.2,2.2-3,3.6c-0.8,1.3-1.3,2.9-1.4,4.5c-0.1,1.6,0.4,3.2,1.4,4.4c1,1.2,2.4,2,3.9,2.3
				c1.5,0.2,3.1,0,4.2-0.8c1.1-0.8,1.6-2.2,1.7-3.4c0.3-2.4-0.2-4.5-0.6-5.9c-0.4-1.4-0.7-2.1-0.7-2.1c0-0.1,0-0.2,0.1-0.3
				C128.5,82,128.6,82,128.6,82.2C128.6,82.1,128.6,82.2,128.6,82.2L128.6,82.2z"/>
			<path style="fill:#EEEEEE;" d="M129,68.9c0,0-0.1,0.2-0.2,0.6c-0.1,0.2-0.1,0.4-0.3,0.6c-0.1,0.1-0.1,0.2-0.3,0.3
				c-0.1,0.1-0.2,0.2-0.3,0.3c-0.1,0.1-0.3,0.2-0.4,0.3c-0.2,0.1-0.3,0.1-0.5,0.2c-0.2,0-0.3,0.1-0.5,0.1c-0.2,0-0.4,0-0.5,0
				l-0.3-0.1c-0.1,0-0.2-0.1-0.2-0.1c-0.1,0-0.2-0.1-0.2-0.1c-0.1,0-0.2-0.1-0.2-0.2c-0.3-0.2-0.5-0.6-0.6-1c-0.1-0.4,0-0.8,0.2-1
				c0.2-0.3,0.5-0.5,0.9-0.5c0.3,0,0.6,0.1,0.8,0.3c0.1,0.1,0.1,0.3,0.1,0.4l0,0.1c0,0,0,0,0,0c0,0,0,0.1,0,0.1c0,0,0,0.1-0.1,0.2
				c-0.1,0.2-0.4,0.3-0.6,0.3c-0.2,0-0.3-0.3-0.3-0.4c0-0.2,0.1-0.3,0.2-0.3c0.1,0,0.2,0,0.2,0s-0.1,0-0.2,0c0,0-0.1,0-0.2,0.1
				c-0.1,0.1-0.1,0.2-0.1,0.2c0,0.1,0,0.2,0.1,0.4c0,0.1,0.2,0.3,0.3,0.3c0.3,0.1,0.7,0,1-0.3c0.1-0.1,0.1-0.2,0.2-0.3
				c0-0.1,0-0.1,0-0.1c0,0,0,0,0-0.1l0-0.1c0-0.2-0.1-0.4-0.2-0.6c-0.1-0.2-0.3-0.4-0.5-0.5c-0.1-0.1-0.3-0.1-0.4-0.1
				c-0.1,0-0.1,0-0.2,0l-0.2,0c-0.5,0-1,0.3-1.3,0.7c-0.3,0.5-0.4,1-0.3,1.5c0.1,0.5,0.4,1,0.8,1.3c0.1,0.1,0.2,0.2,0.3,0.2
				c0.1,0.1,0.2,0.1,0.3,0.2c0.1,0,0.2,0.1,0.4,0.1l0.3,0c0.3,0,0.5,0,0.7,0c0.2,0,0.4-0.1,0.6-0.2c0.2-0.1,0.4-0.2,0.5-0.3
				c0.2-0.1,0.3-0.2,0.4-0.4c0.1-0.1,0.2-0.3,0.3-0.4c0.1-0.1,0.2-0.3,0.2-0.4c0.1-0.2,0.2-0.5,0.2-0.7c0-0.2,0-0.4,0-0.5
				C129,69,129,68.9,129,68.9z"/>
			<path style="fill:#EEEEEE;" d="M114.7,69.7c0,0,0-0.1,0-0.2c0-0.1,0-0.1,0-0.2c0,0,0-0.1,0-0.1c0,0,0-0.1,0.1-0.1
				c0,0,0.1-0.1,0.1-0.1c0,0,0.1-0.1,0.1-0.1c0,0,0.1-0.1,0.2-0.1c0.1,0,0.1-0.1,0.2-0.1l0.1,0c0,0,0.1,0,0.1,0c0,0,0.1,0,0.1,0
				c0,0,0.1,0,0.1,0c0.1,0,0.2,0.1,0.3,0.2c0.1,0.1,0.1,0.2,0.1,0.4c0,0.1-0.1,0.2-0.2,0.3c-0.1,0.1-0.2,0-0.3,0
				c0,0-0.1-0.1-0.1-0.1l0,0c0,0,0,0,0,0c0,0,0,0,0,0c0,0,0,0,0-0.1c0-0.1,0.1-0.2,0.2-0.2c0.1,0,0.1,0,0.2,0.1c0,0.1,0,0.1,0,0.1
				c0,0,0,0,0,0s0,0,0.1,0c0,0,0,0,0-0.1c0,0,0-0.1,0-0.1c0,0,0-0.1-0.1-0.1c0,0-0.1-0.1-0.1-0.1c-0.1,0-0.2,0.1-0.3,0.2
				c0,0,0,0.1,0,0.1c0,0,0,0,0,0c0,0,0,0,0,0l0,0c0,0.1,0.1,0.1,0.1,0.2c0.1,0.1,0.1,0.1,0.2,0.1c0,0,0.1,0,0.1,0c0,0,0,0,0.1,0
				l0.1,0c0.2-0.1,0.3-0.2,0.3-0.4c0-0.2,0-0.4-0.1-0.5c-0.1-0.2-0.2-0.3-0.4-0.3c0,0-0.1,0-0.1,0c0,0-0.1,0-0.1,0c0,0-0.1,0-0.1,0
				l-0.1,0c-0.1,0-0.1,0.1-0.2,0.1c-0.1,0-0.1,0.1-0.2,0.1c0,0.1-0.1,0.1-0.1,0.2c0,0.1-0.1,0.1-0.1,0.2c0,0.1,0,0.1-0.1,0.2
				c0,0.1,0,0.1,0,0.2c0,0.1,0,0.2,0,0.2C114.7,69.6,114.7,69.6,114.7,69.7C114.7,69.7,114.7,69.7,114.7,69.7z"/>
			<g>
				<path style="fill:#EEEEEE;" d="M127.5,58.8c0,0,0.1,0.2,0.3,0.7c0.2,0.4,0.5,1.1,0.8,1.9c0.3,0.9,0.6,1.9,0.6,3.1
					c0.1,1.2,0,2.6-0.3,4.1c-0.3,1.5-1,3-2,4.4c-1,1.4-2.3,2.7-3.9,3.6c-1.6,1-3.5,1.4-5.4,1.2c-1.9-0.2-3.8-1-5.2-2.3
					c-1.4-1.3-2.4-3.1-2.4-4.9c-0.1-1.9,0.8-3.7,2.2-4.8l0.5-0.4c0.1-0.1,0.4-0.2,0.6-0.3c0.2-0.1,0.4-0.2,0.6-0.3
					c0.2,0,0.4-0.1,0.6-0.2c0.8-0.1,1.7-0.1,2.4,0.2c0.7,0.3,1.4,0.7,1.9,1.4l0.2,0.2c0,0,0.1,0.2,0.1,0.2c0.1,0.2,0.2,0.4,0.3,0.5
					c0,0.2,0.1,0.3,0.1,0.5l0.1,0.5c0,1.4-0.9,2.6-2,3c-0.5,0.2-1.1,0.1-1.6,0c-0.5-0.2-0.8-0.5-1.1-0.9c-0.5-0.7-0.3-1.5-0.1-1.9
					c0.3-0.4,0.5-0.5,0.5-0.5c0,0-0.2,0.1-0.6,0.5c-0.3,0.4-0.6,1.2-0.1,2.1c0.5,0.8,1.6,1.6,3,1.2c1.3-0.3,2.5-1.7,2.6-3.5
					c0-0.2,0-0.4,0-0.6c0-0.2-0.1-0.4-0.2-0.7c-0.1-0.2-0.2-0.4-0.3-0.6c-0.1-0.1-0.1-0.1-0.2-0.3l-0.2-0.3
					c-0.5-0.8-1.3-1.3-2.2-1.7c-0.9-0.4-1.9-0.5-2.9-0.4c-0.5,0.1-1.1,0.2-1.5,0.5c-0.2,0.1-0.4,0.2-0.7,0.4l-0.6,0.5
					c-1.6,1.3-2.7,3.4-2.6,5.7c0,2.3,1.1,4.4,2.8,5.8c1.6,1.5,3.8,2.4,5.9,2.6c2.1,0.2,4.3-0.4,6-1.4c3.5-2.1,5.4-5.7,6-8.8
					c0.3-1.6,0.3-3,0.1-4.3c-0.2-1.3-0.6-2.3-0.9-3.2c-0.4-0.8-0.7-1.5-1-1.9C127.7,59,127.5,58.8,127.5,58.8z"/>
				<path style="fill:#EEEEEE;" d="M119.7,70.2c0,0,2.5-2,1.6-2.6c-0.2-0.1-1.1,0.5-0.2-0.8c0.9-1.3-0.3-1.8-0.7-1.5
					c-0.4,0.3,1-1.3-0.3-1.7c-0.3-0.1-0.9,0-0.7,1.2C119.6,66.2,121.2,67.7,119.7,70.2z"/>
				<path style="fill:#EEEEEE;" d="M114.5,69.6c0,0-0.2,2,0.5,1.9c0.1,0,0.2-0.7,0.4,0.3c0.2,1,0.9,0.7,1,0.4c0-0.3,0.1,1,0.9,0.6
					c0.2-0.1,0.4-0.4-0.2-0.9C116.4,71.4,115,71.4,114.5,69.6z"/>
			</g>
			<g>
				<path style="fill:#EEEEEE;" d="M120.3,79.8C120.3,79.8,120.3,79.8,120.3,79.8c-1,1.1-2.8,2-6,1.2c0,0,2.8,0.4,5-0.9
					c-0.2,0-0.5,0-0.6-0.1c-4.1-1.3-7.5,1.3-7.5,1.3C117,86.2,120.3,79.8,120.3,79.8z"/>
			</g>
			<g>
				<path style="fill:#EEEEEE;" d="M117,71.1C117,71.1,117,71.1,117,71.1c-0.3,0-0.6-0.1-0.9-0.7c0,0,0.3,0.4,0.7,0.6
					c0,0,0-0.1-0.1-0.1c-0.3-0.7-1-0.8-1-0.8C115.7,71.4,117,71.1,117,71.1z"/>
			</g>
			<g>
				<path style="fill:#EEEEEE;" d="M118.6,87.9C118.6,87.9,118.6,87.9,118.6,87.9c0.1,0.8,0.6,1.7,2.3,2.4c0,0-1.4-0.7-1.9-1.9
					c0.1,0.1,0.2,0.1,0.3,0.2c2.2,0.7,2.9,2.8,2.9,2.8C118.2,91.7,118.6,87.9,118.6,87.9z"/>
			</g>
			<g>
				<path style="fill:#EEEEEE;" d="M126.4,93.9C126.4,93.9,126.4,93.9,126.4,93.9c0.7-0.4,1.3-1.2,1.3-3c0,0-0.1,1.5-1,2.5
					c0-0.1,0-0.2,0-0.3c-0.2-2.3,1.5-3.8,1.5-3.8C130.1,92.8,126.4,93.9,126.4,93.9z"/>
			</g>
			<g>
				<path style="fill:#EEEEEE;" d="M128.8,83.9C128.8,83.8,128.8,83.8,128.8,83.9c-0.1-0.8-0.5-1.7-2.2-2.5c0,0,1.3,0.8,1.8,2
					c-0.1-0.1-0.2-0.1-0.3-0.2c-2.2-0.8-2.8-3-2.8-3C129.5,80,128.8,83.9,128.8,83.9z"/>
			</g>
		</g>
		<g>
			<g>
				<g>
					<path style="fill:#EEEEEE;" d="M6.8,61c0,0,0.2,0.2,0.6,0.7c0.4,0.4,1,1,1.9,1.7c0.9,0.6,2,1.4,3.5,1.9
						c1.5,0.5,3.4,0.9,5.3,0.3c2-0.5,3.7-2,5-3.8c1.3-1.8,2.4-3.9,3.2-6.1c0.8-2.2,1.5-4.6,2-7c0.5-2.4,1.2-4.7,2.2-6.9
						c1-2.2,2.3-4.3,3.9-5.9c1.7-1.6,3.7-2.8,5.8-3.3c2.1-0.5,4.3-0.5,6.4-0.2c2.1,0.3,3.9,1,5.6,1.7c3.4,1.5,5.9,3.3,7.5,4.8
						c0.8,0.7,1.3,1.4,1.7,1.8c0.3,0.5,0.5,0.7,0.5,0.7s-0.2-0.3-0.4-0.8c-0.3-0.5-0.8-1.2-1.5-2c-1.5-1.6-3.9-3.8-7.3-5.5
						c-1.7-0.8-3.7-1.6-5.8-2.1c-2.2-0.5-4.6-0.6-7-0.1c-2.4,0.5-4.8,1.8-6.7,3.6c-1.9,1.8-3.3,4-4.4,6.4c-1,2.3-1.7,4.9-2.2,7.3
						c-0.5,2.4-1,4.7-1.8,6.9c-0.8,2.2-1.6,4.2-2.8,5.9c-1.2,1.7-2.6,3-4.3,3.6c-1.6,0.6-3.3,0.5-4.8,0.1c-1.4-0.4-2.6-1-3.5-1.6
						C7.7,61.9,6.8,61,6.8,61z"/>
					<g>
						<path style="fill:#EEEEEE;" d="M26.6,49.4c0,0,0,0.3,0,0.9c0,0.6,0,1.4-0.1,2.5c-0.2,1-0.4,2.3-0.9,3.7
							c-0.5,1.4-1.3,2.8-2.4,4.2c-1.1,1.4-2.6,2.7-4.3,3.7c-1.8,1-3.8,1.6-6,1.8c-2.2,0.2-4.4-0.3-6.3-1.5c-1.9-1.2-3.5-3-4.3-5.1
							c-0.9-2.1-1-4.5-0.1-6.5c0.9-2,2.7-3.5,4.8-4l0.8-0.2c0.1-0.1,0.5,0,0.8,0c0.3,0,0.6,0,0.8,0c0.2,0,0.5,0.1,0.7,0.1
							c0.9,0.3,1.8,0.8,2.5,1.5c0.6,0.7,1.1,1.5,1.3,2.4l0.1,0.3c0,0,0,0.2,0,0.3c0,0.2,0.1,0.5,0,0.7c0,0.2,0,0.4-0.1,0.6l-0.2,0.6
							c-0.7,1.5-2.3,2.3-3.7,2.2c-0.6-0.1-1.2-0.4-1.6-0.9c-0.4-0.4-0.6-1-0.7-1.5c-0.1-1,0.5-1.8,0.9-2.1c0.5-0.3,0.8-0.3,0.8-0.3
							c0,0-0.3,0-0.8,0.3c-0.5,0.2-1.2,1-1.2,2.1c0.1,1.1,0.9,2.5,2.6,2.9c1.6,0.3,3.5-0.5,4.5-2.4c0.1-0.2,0.2-0.5,0.3-0.7
							c0.1-0.2,0.1-0.5,0.2-0.8c0.1-0.3,0-0.5,0-0.7c0-0.1,0-0.2,0-0.4l-0.1-0.4c-0.1-1.1-0.7-2.1-1.4-3c-0.8-0.8-1.8-1.5-2.9-1.9
							c-0.6-0.1-1.3-0.3-1.8-0.2c-0.3,0-0.5,0-0.9,0.1l-0.9,0.2C4.3,48.3,2,50,0.9,52.4c-1.1,2.4-1,5.2-0.1,7.6
							c0.9,2.4,2.8,4.5,5,5.8C8,67,10.6,67.6,13,67.3c4.8-0.5,8.7-3.3,10.9-6.3c1.1-1.5,1.8-3.1,2.3-4.5c0.5-1.4,0.6-2.8,0.7-3.8
							c0-1.1,0-1.9-0.1-2.5C26.7,49.7,26.6,49.4,26.6,49.4z"/>
						<path style="fill:#EEEEEE;" d="M12.4,57.5c0,0,3.7-0.8,3.1-2c-0.1-0.2-1.4,0,0.2-0.9c1.6-0.9,0.6-2,0-1.9
							c-0.5,0.1,1.7-0.9,0.6-1.9c-0.3-0.3-1-0.5-1.4,0.9C14.4,53.1,15.2,55.6,12.4,57.5z"/>
						<path style="fill:#EEEEEE;" d="M7.3,54.2c0,0-1.3,2-0.5,2.3c0.1,0,0.6-0.6,0.3,0.5c-0.3,1.2,0.7,1.2,0.8,0.9
							c0.2-0.3-0.4,1.2,0.6,1.1c0.3,0,0.7-0.2,0.2-1C8.3,57,6.9,56.3,7.3,54.2z"/>
					</g>
				</g>
				<g>
					<path style="fill:#EEEEEE;" d="M37.4,53C37.4,53,37.4,53,37.4,53c0.7-0.5,1.9-0.8,3.7,0c0,0-1.6-0.5-3,0c0.1,0,0.3,0.1,0.4,0.1
						c2.3,1.2,4.5,0.1,4.5,0.1C40.1,49.7,37.4,53,37.4,53z"/>
				</g>
				<g>
					<path style="fill:#EEEEEE;" d="M64.2,41.9c0,0-1-0.9-2.6-2.6c-0.8-0.9-1.7-2-2.7-3.3c-1-1.3-2-2.9-2.7-4.8
						c-0.7-1.9-1.1-4.3-0.1-6.5c1-2.2,3.3-3.6,5.6-4.6c2.4-0.9,5.2-0.9,7.8,0c2.6,0.9,4.8,2.9,6.2,5.4c1.3,2.5,1.7,5.3,1.7,8.1
						c-0.2,2.8-1,5.3-1.8,7.7c-1.6,4.8-3,9.2-3.4,13.1c-0.4,3.9,0.5,7.2,1.5,9.2c0.5,1,1.1,1.8,1.4,2.3c0.4,0.5,0.6,0.8,0.6,0.8
						s-0.2-0.2-0.7-0.7c-0.4-0.5-1-1.2-1.6-2.2c-0.6-1-1.2-2.3-1.6-3.9c-0.4-1.6-0.6-3.5-0.5-5.5c0.1-2,0.5-4.2,1-6.5
						c0.6-2.2,1.3-4.6,2-6.9c0.7-2.4,1.5-4.8,1.6-7.3c0.1-2.5-0.3-5.1-1.4-7.4c-1.1-2.3-2.9-4.2-5.3-5.2c-2.3-1-5-1.1-7.3-0.3
						c-2.3,0.8-4.4,2.3-5.3,4.3c-1,2-0.6,4.3,0.1,6.1c1.5,3.7,3.7,6.2,5.3,7.9c1.6,1.7,2.6,2.5,2.6,2.5c0.1,0.1,0.2,0.3,0,0.5
						C64.6,42,64.4,42,64.2,41.9C64.2,41.9,64.2,41.9,64.2,41.9L64.2,41.9z"/>
					<path style="fill:#EEEEEE;" d="M73.8,61c0,0-0.1-0.4-0.2-1c0-0.3-0.1-0.7,0-1.1c0-0.2,0-0.4,0.1-0.7c0.1-0.2,0.1-0.5,0.2-0.7
						c0.1-0.2,0.2-0.5,0.4-0.7c0.2-0.2,0.3-0.4,0.5-0.7c0.2-0.2,0.4-0.4,0.7-0.6c0.3-0.1,0.5-0.3,0.8-0.4l0.5-0.2c0.2,0,0.3,0,0.4,0
						c0.1,0,0.3,0,0.4,0c0.2,0,0.3,0,0.4,0.1c0.6,0.1,1.1,0.5,1.5,1c0.4,0.5,0.6,1.1,0.6,1.6c-0.1,0.6-0.4,1.1-0.8,1.4
						c-0.5,0.3-1,0.3-1.4,0.1c-0.2-0.1-0.4-0.3-0.5-0.5l0-0.1c0,0,0,0,0-0.1c0-0.1-0.1-0.1-0.1-0.2c0-0.1,0-0.2,0-0.3
						c0-0.4,0.3-0.8,0.7-0.9c0.3-0.1,0.6,0.1,0.8,0.3c0.2,0.3,0,0.5,0,0.6c-0.1,0.1-0.2,0.2-0.2,0.2s0.1-0.1,0.2-0.1
						c0-0.1,0.1-0.1,0.2-0.3c0.1-0.1,0-0.3,0-0.4c-0.1-0.2-0.2-0.4-0.4-0.5c-0.1-0.1-0.5-0.2-0.7-0.2c-0.5,0-1.1,0.5-1.2,1.2
						c0,0.2,0,0.3,0,0.5c0,0.1,0,0.1,0.1,0.2c0,0,0,0,0,0.1l0.1,0.1c0.1,0.3,0.4,0.6,0.7,0.8c0.3,0.2,0.7,0.3,1.1,0.3
						c0.2,0,0.5,0,0.6-0.1c0.1,0,0.1,0,0.3-0.1l0.3-0.2c0.7-0.4,1.2-1.2,1.3-2c0.1-0.9-0.2-1.7-0.7-2.4c-0.5-0.7-1.3-1.1-2.1-1.3
						c-0.2-0.1-0.4-0.1-0.6-0.1c-0.2,0-0.4,0-0.6,0c-0.2,0-0.4,0.1-0.6,0.1l-0.5,0.2c-0.4,0.2-0.6,0.4-1,0.6
						c-0.3,0.2-0.5,0.5-0.7,0.7c-0.2,0.3-0.4,0.5-0.5,0.8c-0.1,0.3-0.2,0.6-0.3,0.8c-0.1,0.3-0.1,0.6-0.2,0.8c0,0.3,0,0.5,0,0.7
						c0,0.5,0.2,0.8,0.2,1.2c0.1,0.3,0.2,0.5,0.3,0.7C73.7,60.9,73.8,61,73.8,61z"/>
					<path style="fill:#EEEEEE;" d="M93.4,49.1c0,0,0.1,0.1,0.2,0.3c0,0.1,0.1,0.2,0.1,0.3c0,0.1,0,0.1,0,0.2c0,0.1,0,0.2,0,0.3
						c0,0.1,0,0.2,0,0.3c0,0.1-0.1,0.2-0.1,0.3c0,0.1-0.1,0.2-0.1,0.3c-0.1,0.1-0.1,0.2-0.2,0.2l-0.1,0.1c0,0-0.1,0-0.1,0.1
						c0,0-0.1,0-0.1,0c0,0-0.1,0-0.2,0c-0.2,0-0.4,0-0.6-0.1c-0.2-0.1-0.3-0.3-0.4-0.4c0-0.2,0-0.4,0.1-0.5c0.1-0.2,0.3-0.2,0.4-0.2
						c0.1,0,0.2,0,0.2,0.1l0,0c0,0,0,0,0,0c0,0,0,0,0,0.1c0,0,0,0.1,0,0.1c0,0.1,0,0.3-0.1,0.4c-0.1,0.1-0.2,0-0.3,0
						c-0.1-0.1-0.1-0.1-0.1-0.2c0-0.1,0-0.1,0-0.1s0,0-0.1,0.1c0,0,0,0.1,0,0.1c0,0.1,0,0.1,0.1,0.1c0.1,0,0.1,0.1,0.2,0.1
						c0.1,0,0.2,0,0.2,0c0.2-0.1,0.3-0.3,0.2-0.5c0-0.1,0-0.1-0.1-0.2c0,0,0,0,0-0.1c0,0,0,0,0,0l0,0c-0.1-0.1-0.2-0.1-0.3-0.2
						c-0.1,0-0.3,0-0.4,0c-0.1,0-0.2,0.1-0.2,0.1c0,0,0,0-0.1,0.1l-0.1,0.1c-0.2,0.2-0.3,0.5-0.2,0.8c0.1,0.3,0.3,0.5,0.5,0.7
						c0.2,0.1,0.5,0.2,0.8,0.2c0.1,0,0.1,0,0.2,0c0.1,0,0.1,0,0.2-0.1c0.1,0,0.1-0.1,0.2-0.1l0.1-0.1c0.1-0.1,0.2-0.2,0.2-0.3
						c0.1-0.1,0.1-0.2,0.2-0.3c0-0.1,0.1-0.2,0.1-0.3c0-0.1,0-0.2,0-0.3c0-0.1,0-0.2,0-0.3c0-0.1-0.1-0.2-0.1-0.2
						c0-0.1-0.1-0.3-0.2-0.3C93.5,49.3,93.5,49.2,93.4,49.1C93.4,49.1,93.4,49.1,93.4,49.1z"/>
					<g>
						<path style="fill:#EEEEEE;" d="M83.4,74.3c0,0-0.3-0.2-1-0.7c-0.7-0.4-1.5-1.2-2.6-2.1c-1-1-2.3-2.3-3.3-4
							c-1.1-1.7-2-3.7-2.7-6.1c-0.6-2.3-0.9-5-0.5-7.7c0.3-2.7,1.3-5.5,2.8-8.1c1.5-2.5,3.9-4.6,6.7-5.8c2.8-1.1,6.1-1.4,9.1-0.6
							c3,0.7,5.8,2.6,7.2,5.2c1.5,2.6,1.6,5.8,0.6,8.5l-0.4,1c0,0.2-0.4,0.6-0.6,0.9c-0.2,0.3-0.4,0.6-0.7,0.8
							c-0.2,0.2-0.4,0.5-0.7,0.7c-1.1,0.8-2.3,1.3-3.6,1.5c-1.3,0.1-2.6,0-3.7-0.6l-0.4-0.2c0,0-0.3-0.2-0.4-0.2
							c-0.3-0.2-0.6-0.3-0.8-0.6c-0.2-0.2-0.4-0.4-0.6-0.6l-0.5-0.7c-1.1-2-0.7-4.4,0.6-5.8c0.6-0.6,1.5-1,2.3-1.1
							c0.8-0.1,1.6,0.1,2.2,0.4c1.3,0.7,1.6,1.9,1.5,2.7c-0.1,0.8-0.3,1.1-0.3,1.1c0,0,0.3-0.3,0.4-1.1c0.1-0.7-0.1-2.2-1.4-3
							c-1.3-0.8-3.5-1-5.2,0.5c-1.6,1.5-2.2,4.3-1,6.8c0.2,0.3,0.4,0.6,0.5,0.9c0.2,0.3,0.5,0.5,0.7,0.8c0.3,0.3,0.5,0.4,0.8,0.6
							c0.2,0.1,0.2,0.2,0.5,0.3l0.5,0.2c1.3,0.7,2.8,0.9,4.4,0.8c1.6-0.2,3.1-0.7,4.5-1.7c0.6-0.5,1.4-1.2,1.7-1.8
							c0.2-0.4,0.4-0.5,0.7-1.1l0.5-1.2c1.3-3.1,1.2-6.9-0.5-10c-1.8-3.2-4.9-5.3-8.3-6.2c-3.4-0.9-7.1-0.6-10.3,0.8
							c-3.2,1.3-5.9,3.8-7.5,6.6c-3.4,5.7-3.4,12.2-1.9,17c0.8,2.4,1.9,4.5,3.1,6.2c1.2,1.7,2.5,2.9,3.7,3.8
							c1.2,0.9,2.1,1.5,2.8,1.9C83.1,74.1,83.4,74.3,83.4,74.3z"/>
						<path style="fill:#EEEEEE;" d="M85.9,52.1c0,0-2.1,4.7-0.3,5c0.3,0,1.1-1.6,0.9,1c-0.3,2.6,1.8,2.3,2.1,1.6
							c0.3-0.7-0.4,2.6,1.7,2.2c0.6-0.1,1.3-0.6,0.2-2.3C89.1,57.8,85.7,56.7,85.9,52.1z"/>
						<path style="fill:#EEEEEE;" d="M93.7,49.1c0,0-1.2-3-2.1-2.4c-0.2,0.1,0.2,1.2-0.8-0.1c-1-1.3-1.8-0.2-1.6,0.2
							c0.2,0.4-1-1.4-1.7-0.2c-0.2,0.3-0.3,0.9,0.9,1.1C89.7,48,91.7,47,93.7,49.1z"/>
					</g>
					<g>
						<path style="fill:#EEEEEE;" d="M77.8,39C77.8,39,77.8,39,77.8,39c0.6-2.3,2.4-4.9,7.6-6.3c0,0-4.3,1.6-6.4,5.1
							c0.3-0.2,0.7-0.3,1-0.4c6.8-1.3,9.6-7.5,9.6-7.5C77.6,27.4,77.8,39,77.8,39z"/>
					</g>
					<g>
						<path style="fill:#EEEEEE;" d="M89.2,48.8C89.2,48.8,89.2,48.8,89.2,48.8c0.4-0.2,0.9-0.2,1.7,0.3c0,0-0.7-0.4-1.4-0.3
							c0.1,0,0.1,0.1,0.2,0.1c1,0.8,2.1,0.4,2.1,0.4C90.7,47.4,89.2,48.8,89.2,48.8z"/>
					</g>
					<g>
						<path style="fill:#EEEEEE;" d="M74.1,26.2C74.1,26.2,74.1,26.2,74.1,26.2c-0.8-1-2.2-1.9-5.1-1.6c0,0,2.4,0,4.2,1.3
							c-0.2,0-0.4,0-0.5,0C69,26.6,66.4,24,66.4,24C71.9,20.4,74.1,26.2,74.1,26.2z"/>
					</g>
					<g>
						<path style="fill:#EEEEEE;" d="M58.6,23.6C58.6,23.6,58.6,23.6,58.6,23.6c-0.6,1.1-1,2.8,0.4,5.3c0,0-1-2.2-0.4-4.4
							c0,0.2,0.1,0.4,0.2,0.5c2.1,3.1,0.7,6.5,0.7,6.5C54.1,27.9,58.6,23.6,58.6,23.6z"/>
					</g>
					<g>
						<path style="fill:#EEEEEE;" d="M62.7,39.7C62.7,39.7,62.7,39.7,62.7,39.7c0.7,1.1,2.1,2.1,5,1.9c0,0-2.4-0.1-4.1-1.5
							c0.2,0,0.4,0.1,0.5,0c3.7-0.5,6.2,2.1,6.2,2.1C64.6,45.6,62.7,39.7,62.7,39.7z"/>
					</g>
				</g>
				<g>
					<path style="fill:#EEEEEE;" d="M44,32.9c0,0,0.3-0.1,1-0.3c0.6-0.2,1.6-0.3,2.9-0.3c1.3,0,2.8,0.2,4.5,0.7
						c1.7,0.6,3.6,1.4,5.2,2.9c1.8,1.3,3.3,3.2,4.8,5.2c0.6,1.1,1.4,2.1,2,3.3c0.6,1.2,1.1,2.4,1.7,3.6c0.9,2.5,1.8,5,2.7,7.6
						c0.5,1.3,1,2.4,1.6,3.7c0.5,1.2,1.2,2.4,1.8,3.5c0.6,1.2,1.4,2.3,2.1,3.4c0.8,1,1.5,2.1,2.4,3c0.9,0.9,1.8,1.8,2.8,2.5
						c0.9,0.8,2,1.4,3.1,2c1.1,0.5,2.2,0.9,3.3,1.3c1.1,0.2,2.2,0.7,3.3,0.7c0.6,0.1,1.1,0.1,1.7,0.2c0.5,0,1.1,0,1.6,0
						c0.5,0,1.1,0,1.6-0.1c0.5-0.1,1-0.2,1.5-0.2c2-0.3,3.8-0.9,5.4-1.2c1.6-0.6,3-1,4.1-1.5c2.2-1,3.5-1.5,3.5-1.5l0,0
						c0.1,0,0.1,0,0.1,0.1c0,0,0,0.1,0,0.1c0,0-1.2,0.7-3.3,1.8c-1.1,0.6-2.5,1.1-4,1.8c-1.6,0.5-3.4,1.3-5.5,1.6
						c-0.5,0.1-1,0.2-1.6,0.3c-0.5,0-1.1,0.1-1.7,0.1c-0.6,0-1.1,0.1-1.7,0.1c-0.6,0-1.2-0.1-1.8-0.1c-1.2,0-2.4-0.4-3.6-0.6
						c-0.6-0.1-1.2-0.4-1.8-0.6c-0.6-0.2-1.2-0.4-1.8-0.7c-1.1-0.6-2.4-1.2-3.4-2.1c-1.1-0.8-2.1-1.7-3.1-2.7
						c-1-0.9-1.8-2.1-2.7-3.2c-0.8-1.2-1.5-2.3-2.2-3.5c-0.6-1.3-1.3-2.5-1.9-3.7c-0.5-1.3-1.1-2.5-1.6-3.8
						c-0.9-2.6-1.7-5.1-2.6-7.6c-0.5-1.2-1-2.4-1.5-3.5c-0.6-1.1-1.2-2.2-1.8-3.2c-1.3-2-2.7-3.8-4.3-5.1c-1.5-1.4-3.2-2.3-4.7-3
						c-1.6-0.6-3-0.9-4.2-1c-2.4-0.2-3.8,0.2-3.8,0.3c-0.1,0-0.1,0-0.1-0.1C43.9,33,44,33,44,32.9L44,32.9z"/>
					<path style="fill:#EEEEEE;" d="M55.6,35.8c0,0-0.3-0.1-0.9-0.4c-0.6-0.3-1.4-0.6-2.5-1c-1.1-0.3-2.4-0.7-4-0.8
						c-1.6-0.2-3.3-0.2-5.3,0.1c-1.9,0.2-4,0.8-6,1.8c-2,0.9-4,2.2-5.7,3.9c-1.7,1.7-3.3,3.8-4.3,6c-0.2,0.6-0.5,1.2-0.7,1.8
						L26,49.1c-0.2,0.6-0.1,1.3-0.1,1.9c0,0.6-0.1,1.3,0.1,1.9c0.3,2.6,1.6,4.9,3.1,6.8l1.3,1.4c0.4,0.4,1,0.7,1.5,1.1l0.8,0.5
						c0.2,0.2,0.5,0.3,0.8,0.4c0.6,0.3,1.2,0.5,1.7,0.6c2.3,0.5,4.7,0,6.6-1.3c1.8-1.2,3.2-3,3.5-4.9c0.3-1.9-0.4-3.7-1.5-4.8
						c-1.1-1.1-2.5-1.7-3.6-1.5c-1.1,0.2-1.9,0.7-2.3,1.2c-0.4,0.5-0.6,0.8-0.6,0.8s0.1-0.3,0.5-0.8c0.4-0.5,1.2-1.1,2.3-1.3
						c1.2-0.3,2.7,0.3,3.9,1.5c1.2,1.1,2.1,3,1.8,5.1c-0.1,0.5-0.2,1.1-0.4,1.5c-0.1,0.5-0.5,1-0.8,1.4c-0.3,0.5-0.6,0.9-1.1,1.3
						l-0.6,0.6c-0.2,0.2-0.5,0.3-0.7,0.5c-1.9,1.4-4.5,2-7.1,1.5c-0.7-0.1-1.3-0.3-1.9-0.6c-0.3-0.1-0.6-0.2-0.9-0.4l-0.8-0.5
						c-0.5-0.4-1.2-0.7-1.6-1.1l-1.5-1.4c-1.7-2.1-3.2-4.5-3.5-7.3c-0.2-0.7-0.1-1.4-0.2-2.1c0-0.7-0.1-1.4,0.1-2.1l0.4-2.1
						c0.2-0.6,0.5-1.2,0.7-1.8c1.1-2.5,2.7-4.7,4.5-6.5c1.8-1.8,3.9-3.2,6.1-4.2c2.1-1,4.3-1.6,6.3-1.9c2-0.3,3.9-0.3,5.6,0
						c0.8,0.1,1.6,0.2,2.3,0.4c0.7,0.2,1.3,0.3,1.9,0.5c1.2,0.4,2,0.8,2.6,1c0.6,0.3,0.9,0.4,0.9,0.4c0.3,0.1,0.4,0.5,0.3,0.8
						C56.2,35.8,55.9,36,55.6,35.8z"/>
				</g>
				<path style="fill:#EEEEEE;" d="M57.6,44.2c3,2.3,5.4,5.2,7.4,8.1c1.8,2.5,3,5.2,3.9,7.7l0.3-0.1c-0.9-2.6-2.1-5.3-3.9-7.8
					c-2-2.9-4.4-5.8-7.4-8.2c-3-2.4-6.5-4.4-10.3-5.8c-3.8-1.5-8-2.1-12.1-1.4c-4.1,0.7-7.9,2.5-11,5.2c-3,2.7-5.3,6.2-6.4,9.9
					c-1.2,3.7-0.8,7.7,1,10.8c1.7,3.1,4.7,5.2,7.6,6.1c0.4,0.2,0.8,0.2,1.1,0.3c0.4,0,0.7,0.1,1.1,0.1c0.8,0,1.5,0,2.2-0.2
					c1.4-0.3,2.6-1.1,3.5-1.9c1.8-1.7,2.7-4,2.5-5.8c-0.3-1.8-1.4-2.9-2.2-3.4c-0.8-0.5-1.4-0.6-1.3-0.6c0,0,0.5,0.1,1.3,0.6
					c0.8,0.5,1.9,1.6,2.1,3.4c0.2,1.8-0.7,4-2.5,5.6c-1.8,1.6-4.8,2.6-7.7,1.5c-2.9-0.8-5.8-2.9-7.4-6c-1.7-3-2.1-6.9-1-10.5
					c1.1-3.6,3.3-7,6.3-9.7c3-2.6,6.8-4.4,10.8-5.1c4-0.7,8.1-0.1,11.9,1.3C51.1,39.9,54.6,41.9,57.6,44.2z"/>
				<path style="fill:#EEEEEE;" d="M108.5,71.4c0,0-0.9,0.6-2.3,1.7c-0.7,0.6-1.7,1.1-2.8,1.8c-1.1,0.7-2.4,1.4-3.8,2.1
					c-0.7,0.4-1.5,0.7-2.3,1c-0.8,0.3-1.6,0.7-2.5,0.9c-1.7,0.6-3.6,1-5.6,1.3c-1,0.1-2,0.2-3.1,0.2c-1,0-2.1,0-3.1-0.1
					c-2.1-0.2-4.2-0.6-6.3-1.3c-4.1-1.4-7.8-3.7-10.8-6.4c-3.1-2.6-5.4-5.5-7.2-8.1c-1.8-2.6-3.1-4.9-3.9-6.6
					c-0.8-1.7-1.2-2.6-1.2-2.6s0.5,0.9,1.4,2.5c0.9,1.6,2.4,3.7,4.3,6.2c1.9,2.4,4.4,5.1,7.4,7.6c3,2.5,6.5,4.6,10.4,5.9
					c1.9,0.6,3.9,1.1,5.9,1.3c1,0.1,2,0.2,3,0.2c1,0,2-0.1,2.9-0.2c1.9-0.2,3.8-0.5,5.5-1c0.9-0.2,1.7-0.5,2.5-0.8
					c0.8-0.3,1.6-0.5,2.3-0.8c2.9-1.2,5.2-2.4,6.8-3.3C107.6,71.9,108.5,71.4,108.5,71.4z"/>
				<path style="fill:#EEEEEE;" d="M107.1,72C107.1,72,107.1,72,107.1,72c-2.3,1.4-5.6,3-9.7,4.5c-4.1,1.4-9.3,2.4-14.7,1.5
					c-2.7-0.5-5.4-1.5-7.8-3c-2.4-1.6-4.5-3.7-6.1-6.1c-1.7-2.4-2.9-5-4.3-7.6c-1.3-2.6-2.8-5-4.4-7.3c-0.9-1.1-1.7-2.2-2.6-3.1
					c-1-0.9-1.9-1.9-2.9-2.6c-1.1-0.7-2-1.5-3.1-2c-0.5-0.3-1.1-0.5-1.6-0.8c-0.5-0.2-1.1-0.4-1.6-0.5c-2.1-0.7-4.2-0.8-6-0.8
					c-1.8,0.1-3.3,0.4-4.6,0.8c-2.5,0.8-3.7,1.6-3.7,1.6s1.2-0.8,3.7-1.5c1.2-0.4,2.8-0.6,4.6-0.7c1.8,0,3.8,0.2,5.9,0.9
					c0.5,0.2,1.1,0.3,1.6,0.6c0.5,0.3,1,0.5,1.5,0.8c1.1,0.5,2,1.3,3,2c1,0.7,1.9,1.7,2.8,2.6c0.9,0.9,1.7,2.1,2.6,3.1
					c1.6,2.2,3.1,4.6,4.3,7.2c1.3,2.5,2.5,5.3,4.2,7.7c1.7,2.4,3.8,4.6,6.3,6.2c2.5,1.6,5.2,2.6,7.9,3c5.5,0.9,10.7-0.2,14.9-1.6
					c4.2-1.4,7.4-3.2,9.6-4.6C107.1,72.1,107.1,72.1,107.1,72L107.1,72z"/>
			</g>
			<path style="fill:#EEEEEE;" d="M52.6,55.8c-2.6,2.3,0.8,4,1.1,0.5c-0.2,3.5,3.4,2.3,1.1-0.4c2.3,2.6,4-0.8,0.5-1.1
				c3.5,0.2,2.3-3.4-0.4-1.1c2.6-2.3-0.8-4-1.1-0.5c0.2-3.5-3.4-2.3-1.1,0.4c-2.3-2.6-4,0.8-0.5,1.1C48.8,54.4,50,58.1,52.6,55.8z"
				/>
		</g>
		<g>
			<g>
				<g>
					<path style="fill:#EEEEEE;" d="M107.7,36.5c0,0,0.2-0.2,0.7-0.6c0.5-0.4,1.2-0.9,2.1-1.4c1-0.5,2.2-1.1,3.7-1.5
						c1.5-0.4,3.4-0.5,5.3,0.4c1.9,0.8,3.4,2.5,4.5,4.4c1.1,2,1.9,4.2,2.4,6.5c0.5,2.3,0.9,4.8,1.1,7.2c0.2,2.5,0.6,4.8,1.3,7.1
						c0.7,2.3,1.7,4.5,3.1,6.3c1.5,1.8,3.3,3.2,5.4,4c2.1,0.8,4.2,1.1,6.3,1c2.1-0.1,4-0.4,5.8-1c3.5-1.1,6.3-2.5,8-3.8
						c0.9-0.6,1.5-1.2,1.9-1.6c0.4-0.4,0.6-0.7,0.6-0.7s-0.2,0.3-0.5,0.7c-0.4,0.4-0.9,1.1-1.8,1.8c-1.7,1.4-4.3,3.3-7.9,4.6
						c-1.8,0.6-3.8,1.1-6,1.3c-2.2,0.2-4.6,0-7-0.8c-2.3-0.8-4.5-2.4-6.2-4.4c-1.7-2-2.8-4.4-3.5-6.9c-0.7-2.5-1.1-5.1-1.3-7.5
						c-0.2-2.5-0.4-4.8-0.9-7.1c-0.5-2.2-1.1-4.4-2-6.2c-0.9-1.8-2.2-3.3-3.8-4.1c-1.6-0.8-3.3-0.9-4.7-0.7
						c-1.5,0.2-2.7,0.7-3.7,1.1C108.7,35.7,107.7,36.5,107.7,36.5z"/>
					<g>
						<path style="fill:#EEEEEE;" d="M125.8,50.6c0,0,0-0.3,0.1-0.9c0.1-0.6,0.2-1.4,0.2-2.4c0-1.1-0.1-2.3-0.5-3.8
							c-0.4-1.4-1-2.9-1.9-4.5c-0.9-1.5-2.2-3-3.8-4.2c-1.6-1.2-3.6-2.1-5.7-2.6c-2.1-0.5-4.4-0.3-6.5,0.7c-2,0.9-3.8,2.5-4.9,4.5
							c-1.1,2-1.5,4.4-0.9,6.4c0.6,2.1,2.3,3.8,4.2,4.6l0.7,0.3c0.1,0.1,0.5,0.1,0.7,0.1c0.3,0.1,0.6,0.1,0.8,0.1c0.2,0,0.5,0,0.7,0
							c1-0.2,1.9-0.6,2.6-1.1c0.7-0.6,1.3-1.4,1.6-2.2l0.1-0.3c0,0,0-0.2,0.1-0.3c0-0.2,0.1-0.5,0.1-0.7c0-0.2,0-0.4,0-0.6l-0.1-0.6
							c-0.5-1.6-2-2.6-3.4-2.6c-0.6,0-1.3,0.3-1.7,0.6c-0.5,0.4-0.7,0.9-0.9,1.4c-0.3,1,0.2,1.8,0.6,2.2c0.4,0.4,0.8,0.4,0.8,0.4
							c0,0-0.3,0-0.8-0.4c-0.5-0.3-1.1-1.1-0.9-2.3c0.2-1.1,1.2-2.4,2.9-2.5c1.6-0.1,3.4,1,4.1,2.9c0.1,0.2,0.1,0.5,0.2,0.7
							c0,0.3,0,0.5,0.1,0.8c0,0.3,0,0.5-0.1,0.7c0,0.1,0,0.2-0.1,0.4l-0.1,0.4c-0.3,1.1-1,2-1.8,2.8c-0.9,0.7-1.9,1.3-3.2,1.5
							c-0.6,0-1.3,0.1-1.8,0c-0.3-0.1-0.5,0-0.9-0.2l-0.9-0.3c-2.3-0.9-4.3-2.8-5.1-5.4c-0.8-2.5-0.4-5.3,0.9-7.6
							c1.2-2.3,3.3-4.1,5.6-5.1c2.3-1,5-1.2,7.3-0.7c4.7,1.1,8.2,4.3,10,7.6c0.9,1.6,1.4,3.3,1.7,4.8c0.3,1.5,0.3,2.8,0.2,3.9
							c-0.1,1.1-0.2,1.9-0.4,2.5C125.9,50.3,125.8,50.6,125.8,50.6z"/>
						<path style="fill:#EEEEEE;" d="M112.8,40.7c0,0,3.5,1.3,2.8,2.4c-0.1,0.2-1.4-0.2,0.1,0.9c1.5,1.1,0.3,2.1-0.2,1.9
							c-0.5-0.2,1.6,1.1,0.3,2c-0.3,0.2-1,0.4-1.3-1.1C114.2,45.3,115.3,43,112.8,40.7z"/>
						<path style="fill:#EEEEEE;" d="M107.3,43.4c0,0-1-2.2-0.2-2.3c0.1,0,0.5,0.7,0.4-0.5c-0.2-1.2,0.8-1.1,0.9-0.8
							c0.1,0.3-0.2-1.2,0.7-1c0.3,0,0.6,0.3,0.1,1.1C108.7,40.7,107.1,41.2,107.3,43.4z"/>
					</g>
				</g>
				<g>
					<path style="fill:#EEEEEE;" d="M137,48.3C137,48.3,137,48.3,137,48.3c0.6,0.6,1.7,1,3.6,0.5c0,0-1.7,0.3-3-0.3
						c0.1,0,0.3,0,0.4-0.1c2.4-1,4.5,0.4,4.5,0.4C139.2,52,137,48.3,137,48.3z"/>
				</g>
				<g>
					<path style="fill:#EEEEEE;" d="M162.2,62.7c0,0-1.1,0.8-2.9,2.3c-0.9,0.8-1.9,1.8-3,2.9c-1.1,1.2-2.3,2.6-3.3,4.4
						c-0.9,1.8-1.7,4.1-0.9,6.4c0.7,2.3,2.8,4,5,5.2c2.3,1.2,5.1,1.5,7.7,1c2.7-0.5,5.2-2.2,6.8-4.5c1.6-2.3,2.4-5.1,2.7-7.8
						c0.2-2.8-0.3-5.4-0.8-7.8c-0.9-4.9-1.9-9.5-1.7-13.4c0.1-3.9,1.4-7.1,2.7-9c0.7-0.9,1.3-1.6,1.7-2.1c0.4-0.4,0.7-0.7,0.7-0.7
						s-0.3,0.2-0.7,0.6c-0.5,0.4-1.1,1-1.9,2c-0.7,0.9-1.5,2.2-2.1,3.7c-0.6,1.5-1,3.4-1.2,5.4c-0.2,2-0.1,4.2,0.2,6.5
						c0.3,2.3,0.7,4.7,1.1,7.1c0.4,2.5,0.8,5,0.6,7.5c-0.2,2.5-0.9,5-2.3,7.2c-1.3,2.1-3.5,3.8-5.9,4.4c-2.4,0.7-5.1,0.4-7.3-0.6
						c-2.1-1.1-4.1-2.8-4.7-4.9c-0.7-2.1,0-4.3,0.9-6c1.9-3.5,4.5-5.7,6.2-7.2c1.8-1.5,2.9-2.2,2.9-2.2c0.2-0.1,0.2-0.3,0.1-0.4
						C162.6,62.7,162.4,62.6,162.2,62.7C162.2,62.7,162.2,62.7,162.2,62.7L162.2,62.7z"/>
					<path style="fill:#EEEEEE;" d="M174.1,45c0,0-0.1,0.3-0.3,0.9c0,0.3-0.2,0.7-0.1,1.1c0,0.2,0,0.4,0,0.7c0,0.2,0.1,0.5,0.1,0.7
						c0.1,0.2,0.2,0.5,0.3,0.7c0.1,0.2,0.3,0.5,0.4,0.7c0.2,0.2,0.4,0.4,0.6,0.6c0.2,0.2,0.5,0.4,0.7,0.5l0.5,0.2
						c0.1,0,0.3,0.1,0.4,0.1c0.1,0,0.3,0,0.4,0c0.2,0,0.3,0,0.5,0c0.6-0.1,1.2-0.3,1.6-0.8c0.4-0.4,0.8-1,0.8-1.5
						c0-0.6-0.2-1.1-0.7-1.5c-0.4-0.4-0.9-0.5-1.4-0.3c-0.2,0.1-0.4,0.2-0.6,0.4l-0.1,0.1c0,0,0,0,0,0.1c0,0.1-0.1,0.1-0.1,0.2
						c0,0.1-0.1,0.2-0.1,0.3c0,0.4,0.2,0.8,0.6,1c0.3,0.1,0.7,0,0.8-0.2c0.2-0.3,0.1-0.5,0.1-0.6c-0.1-0.1-0.2-0.2-0.2-0.2
						s0.1,0.1,0.2,0.2c0,0.1,0.1,0.2,0.1,0.3c0,0.2,0,0.3-0.1,0.4c-0.1,0.2-0.2,0.3-0.4,0.4c-0.2,0.1-0.5,0.1-0.7,0.1
						c-0.5-0.1-1-0.6-1-1.3c0-0.2,0-0.3,0.1-0.5c0-0.1,0.1-0.1,0.1-0.2c0,0,0,0,0.1-0.1l0.1-0.1c0.2-0.3,0.5-0.5,0.8-0.7
						c0.3-0.2,0.7-0.2,1.2-0.2c0.2,0,0.5,0.1,0.6,0.2c0.1,0.1,0.1,0,0.3,0.1l0.2,0.2c0.6,0.5,1.1,1.3,1.1,2.2c0,0.9-0.5,1.7-1,2.3
						c-0.6,0.6-1.4,0.9-2.2,1c-0.2,0-0.4,0-0.6,0c-0.2,0-0.4,0-0.6-0.1c-0.2-0.1-0.4-0.1-0.6-0.2l-0.4-0.2c-0.4-0.2-0.6-0.5-0.9-0.7
						c-0.2-0.3-0.4-0.6-0.6-0.8c-0.2-0.3-0.3-0.6-0.4-0.9c-0.1-0.3-0.2-0.6-0.2-0.9c0-0.3,0-0.6-0.1-0.8c0-0.3,0.1-0.5,0.1-0.7
						c0-0.5,0.3-0.8,0.3-1.1c0.1-0.3,0.3-0.5,0.4-0.6C174,45.1,174.1,45,174.1,45z"/>
					<path style="fill:#EEEEEE;" d="M192,59.3c0,0,0.1-0.1,0.2-0.3c0-0.1,0.1-0.2,0.2-0.3c0-0.1,0.1-0.1,0.1-0.2c0-0.1,0-0.2,0-0.2
						c0-0.1,0-0.2,0-0.3c0-0.1,0-0.2-0.1-0.3c0-0.1-0.1-0.2-0.1-0.3c-0.1-0.1-0.1-0.2-0.2-0.2L192,57c0,0-0.1-0.1-0.1-0.1
						c0,0-0.1,0-0.1-0.1c0,0-0.1,0-0.1,0c-0.2,0-0.4,0-0.6,0c-0.2,0.1-0.4,0.2-0.4,0.4c-0.1,0.2-0.1,0.4,0,0.5
						c0.1,0.2,0.2,0.3,0.4,0.3c0.1,0,0.2,0,0.2-0.1l0,0c0,0,0,0,0,0c0,0,0,0,0,0c0,0,0,0,0.1-0.1c0.1-0.1,0-0.3-0.1-0.4
						c-0.1-0.1-0.2-0.1-0.3,0c-0.1,0.1-0.1,0.1-0.1,0.2c0,0.1,0,0.1,0,0.1s0,0,0-0.1c0,0,0-0.1,0-0.1c0-0.1,0-0.1,0.1-0.1
						c0.1,0,0.1-0.1,0.2-0.1c0.1,0,0.2,0,0.2,0c0.1,0.1,0.2,0.3,0.2,0.5c0,0.1,0,0.1-0.1,0.2c0,0,0,0-0.1,0.1c0,0,0,0,0,0l0,0
						c-0.1,0.1-0.2,0.1-0.3,0.1c-0.1,0-0.3,0-0.4-0.1c-0.1,0-0.1-0.1-0.2-0.1c0,0,0,0-0.1-0.1l-0.1-0.1c-0.1-0.2-0.2-0.5-0.1-0.8
						c0.1-0.3,0.3-0.5,0.6-0.6c0.3-0.1,0.6-0.1,0.8-0.1c0.1,0,0.1,0,0.2,0.1c0.1,0,0.1,0.1,0.2,0.1c0.1,0,0.1,0.1,0.2,0.1l0.1,0.1
						c0.1,0.1,0.1,0.2,0.2,0.3c0,0.1,0.1,0.2,0.1,0.3c0,0.1,0,0.2,0,0.3c0,0.1,0,0.2,0,0.3c0,0.1,0,0.2-0.1,0.3
						c0,0.1-0.1,0.2-0.1,0.2c-0.1,0.1-0.2,0.2-0.2,0.3C192.2,59.1,192.1,59.2,192,59.3C192,59.2,192,59.3,192,59.3z"/>
					<g>
						<path style="fill:#EEEEEE;" d="M173.2,44.1c1.1-2.3,2.5-4.2,3.9-5.7c1.4-1.5,2.9-2.5,4.1-3.4c1.3-0.8,2.3-1.3,3-1.5
							c0.7-0.3,1.1-0.4,1.1-0.4s-0.4,0.2-1.1,0.5c-0.7,0.3-1.7,0.9-2.8,1.7c-1.1,0.9-2.5,2-3.8,3.5c-1.3,1.5-2.5,3.4-3.4,5.7
							c-0.9,2.2-1.5,4.8-1.5,7.6c0,2.7,0.6,5.7,1.8,8.4c1.2,2.7,3.3,5.1,5.9,6.6c2.7,1.5,5.9,2.2,8.9,1.7c3.1-0.3,6-1.9,7.8-4.2
							c1.8-2.4,2.3-5.6,1.6-8.3l-0.3-1c0-0.2-0.3-0.6-0.4-0.9c-0.2-0.4-0.3-0.7-0.6-0.9c-0.2-0.2-0.4-0.5-0.6-0.7
							c-0.9-1-2.1-1.6-3.4-2c-1.3-0.2-2.6-0.3-3.7,0.1l-0.4,0.1c0,0-0.3,0.1-0.4,0.2c-0.3,0.2-0.6,0.3-0.8,0.5
							c-0.2,0.2-0.4,0.3-0.6,0.5l-0.6,0.6c-1.3,1.8-1.3,4.3-0.2,5.8c0.5,0.7,1.3,1.2,2.1,1.4c0.8,0.2,1.6,0.1,2.2-0.1
							c1.3-0.5,1.8-1.7,1.8-2.4c0-0.8-0.2-1.2-0.1-1.2c0,0,0.2,0.4,0.3,1.2c0,0.7-0.4,2.1-1.8,2.8c-1.4,0.6-3.6,0.6-5.1-1.2
							c-1.4-1.7-1.7-4.6-0.2-6.9c0.2-0.3,0.4-0.5,0.7-0.8c0.2-0.3,0.6-0.5,0.8-0.7c0.3-0.3,0.6-0.3,0.9-0.5c0.2-0.1,0.2-0.1,0.5-0.3
							l0.5-0.2c1.4-0.6,2.9-0.5,4.5-0.3c1.5,0.4,3,1.1,4.2,2.2c0.5,0.6,1.2,1.4,1.5,2c0.1,0.2,0.2,0.3,0.3,0.5v9.7
							c-0.3,0.7-0.7,1.4-1.2,2c-2.1,3-5.6,4.7-9.1,5.1c-3.5,0.5-7.1-0.4-10.1-2.1c-3-1.7-5.3-4.5-6.6-7.5
							C170.3,55.1,171.1,48.7,173.2,44.1z"/>
						<path style="fill:#EEEEEE;" d="M185,55.4c0,0-1.5-4.9,0.4-5c0.3,0,0.9,1.7,1-0.9c0.1-2.6,2-2,2.2-1.3c0.2,0.7-0.1-2.6,1.9-2
							c0.5,0.2,1.3,0.8-0.1,2.3C188.9,50.1,185.4,50.7,185,55.4z"/>
						<path style="fill:#EEEEEE;" d="M192.4,59.3c0,0-1.6,2.9-2.4,2.1c-0.1-0.1,0.4-1.2-0.8-0.1c-1.2,1.1-1.8,0-1.6-0.4
							c0.2-0.4-1.1,1.2-1.7,0c-0.2-0.3-0.2-0.9,1.1-1C188.3,59.9,190.1,61.2,192.4,59.3z"/>
					</g>
					<g>
						<path style="fill:#EEEEEE;" d="M175.3,67.3C175.3,67.3,175.3,67.3,175.3,67.3c0.3,2.3,1.8,5.1,6.8,7.2c0,0-4-2.1-5.7-5.9
							c0.3,0.2,0.6,0.4,0.9,0.5c6.6,2.1,8.6,8.6,8.6,8.6C173.7,78.8,175.3,67.3,175.3,67.3z"/>
					</g>
					<g>
						<path style="fill:#EEEEEE;" d="M187.8,59C187.8,59,187.8,59,187.8,59c0.4,0.2,0.9,0.4,1.7-0.1c0,0-0.7,0.3-1.4,0.1
							c0.1,0,0.1,0,0.2-0.1c1.1-0.6,2.1-0.2,2.1-0.2C189.1,60.6,187.8,59,187.8,59z"/>
					</g>
					<g>
						<path style="fill:#EEEEEE;" d="M170,79.5C170,79.6,170,79.6,170,79.5c-0.9,0.9-2.4,1.7-5.2,1c0,0,2.4,0.4,4.3-0.7
							c-0.2,0-0.4,0-0.5-0.1c-3.6-1.2-6.5,1-6.5,1C167.1,85,170,79.5,170,79.5z"/>
					</g>
					<g>
						<path style="fill:#EEEEEE;" d="M154.3,80.2C154.3,80.2,154.3,80.2,154.3,80.2c-0.5-1.2-0.6-2.9,1.1-5.2c0,0-1.3,2.1-1,4.3
							c0.1-0.2,0.2-0.4,0.3-0.5c2.4-2.8,1.5-6.3,1.5-6.3C150.4,75.4,154.3,80.2,154.3,80.2z"/>
					</g>
					<g>
						<path style="fill:#EEEEEE;" d="M160.4,64.8C160.4,64.7,160.4,64.7,160.4,64.8c0.8-1,2.3-1.8,5.2-1.2c0,0-2.4-0.2-4.3,1
							c0.2,0,0.4,0,0.5,0c3.6,1,6.4-1.3,6.4-1.3C163,59.1,160.4,64.8,160.4,64.8z"/>
					</g>
				</g>
				<g>
					<path style="fill:#EEEEEE;" d="M141,68.9c0-0.1,0.1-0.1,0.1-0.1c0,0,1.3,0.6,3.7,0.7c1.2,0.1,2.7-0.1,4.3-0.5
						c1.6-0.5,3.4-1.1,5.1-2.4c1.7-1.1,3.3-2.7,4.9-4.5c0.7-1,1.5-1.9,2.2-2.9c0.6-1.1,1.3-2.1,2-3.3c1.1-2.3,2.3-4.8,3.5-7.2
						c0.6-1.2,1.4-2.4,2-3.6c0.7-1.2,1.5-2.3,2.3-3.5c0.8-1.1,1.8-2.2,2.7-3.2c1-0.9,1.9-2,3-2.8c1.1-0.8,2.2-1.7,3.4-2.3
						c1.1-0.7,2.4-1.2,3.6-1.7c0.6-0.3,1.3-0.3,1.9-0.5c0.6-0.1,1.2-0.3,1.9-0.4c1.3-0.1,2.5-0.3,3.7-0.1c0.6,0,1.2,0.1,1.8,0.1
						c0.6,0.1,1.1,0.2,1.7,0.3c0.5,0.1,1.1,0.2,1.6,0.4c0.5,0.2,1,0.4,1.5,0.5c0.7,0.2,1.4,0.5,2,0.8v1.2c-0.8-0.3-1.6-0.6-2.4-0.8
						c-0.5-0.1-1-0.3-1.5-0.4c-0.5-0.1-1-0.2-1.6-0.3c-0.5-0.1-1.1-0.2-1.6-0.2c-0.5,0-1.1,0-1.7,0c-1.1-0.1-2.2,0.2-3.4,0.3
						c-1.1,0.2-2.3,0.5-3.4,0.9c-1.1,0.5-2.3,0.9-3.3,1.6c-1.1,0.6-2.1,1.4-3.1,2.2c-1,0.8-1.9,1.8-2.8,2.7c-0.8,1-1.7,2-2.5,3.1
						c-0.7,1.1-1.6,2.2-2.3,3.3c-0.7,1.2-1.4,2.2-2,3.4c-1.3,2.5-2.5,4.9-3.7,7.2c-0.7,1.2-1.4,2.3-2.1,3.4c-0.8,1-1.6,2-2.4,3
						c-1.7,1.8-3.5,3.4-5.4,4.5c-1.8,1.2-3.8,1.8-5.5,2.2c-1.8,0.3-3.3,0.3-4.6,0.2c-1.2-0.2-2.2-0.4-2.8-0.7
						c-0.6-0.2-0.9-0.4-0.9-0.4l0,0C141,69,140.9,69,141,68.9z"/>
					<path style="fill:#EEEEEE;" d="M152.9,67.7c0,0-0.3,0.1-0.9,0.3c-0.6,0.2-1.5,0.5-2.6,0.6c-1.1,0.2-2.5,0.4-4,0.3
						c-1.6,0-3.3-0.2-5.2-0.7c-1.9-0.5-3.8-1.3-5.7-2.5c-1.9-1.2-3.7-2.7-5.2-4.6c-1.5-1.9-2.8-4.2-3.5-6.5
						c-0.2-0.6-0.4-1.3-0.5-1.9l-0.1-1.8c-0.1-0.6,0.1-1.3,0.1-1.9c0.1-0.6,0.1-1.3,0.4-1.9c0.6-2.5,2.2-4.7,3.9-6.4l1.5-1.2
						c0.5-0.4,1.1-0.6,1.6-0.9l0.8-0.4c0.2-0.1,0.6-0.2,0.9-0.3c0.6-0.2,1.2-0.4,1.8-0.3c2.3-0.2,4.7,0.6,6.3,2.1
						c1.6,1.5,2.8,3.4,2.8,5.3c0.1,1.9-0.9,3.6-2.1,4.6c-1.2,1-2.7,1.4-3.8,1.1c-1.1-0.3-1.8-1-2.2-1.5c-0.3-0.5-0.5-0.8-0.5-0.8
						c0,0,0.1,0.3,0.4,0.9c0.3,0.5,1,1.2,2.2,1.6c1.1,0.4,2.7,0,4-1c1.3-1,2.5-2.7,2.4-4.9c0-0.5-0.1-1.1-0.2-1.6
						c-0.1-0.5-0.4-1-0.6-1.5c-0.2-0.5-0.5-1-0.9-1.4l-0.5-0.7c-0.2-0.2-0.4-0.4-0.7-0.6c-1.8-1.6-4.2-2.6-6.9-2.4
						c-0.7,0-1.3,0.1-1.9,0.3c-0.3,0.1-0.6,0.1-1,0.3l-0.9,0.4c-0.6,0.3-1.2,0.5-1.8,0.9l-1.6,1.2c-2,1.8-3.7,4.1-4.4,6.8
						c-0.3,0.6-0.3,1.3-0.4,2c-0.1,0.7-0.3,1.4-0.2,2.1l0.1,2.1c0.1,0.7,0.3,1.3,0.5,1.9c0.8,2.7,2.1,5,3.7,7c1.6,2,3.5,3.7,5.5,4.9
						c2,1.2,4,2.2,6,2.7c2,0.5,3.9,0.8,5.5,0.7c0.8,0,1.6,0,2.3-0.1c0.7-0.1,1.4-0.1,2-0.3c1.2-0.2,2.1-0.5,2.7-0.7
						c0.6-0.2,0.9-0.3,0.9-0.3c0.3-0.1,0.5-0.4,0.4-0.7C153.5,67.7,153.2,67.6,152.9,67.7z"/>
				</g>
				<path style="fill:#EEEEEE;" d="M155.9,59.6c3.3-1.9,6-4.5,8.4-7.1c2.1-2.3,3.6-4.8,4.8-7.2l0.3,0.1c-1.2,2.5-2.8,5-4.9,7.3
					c-2.3,2.6-5.1,5.2-8.4,7.2c-3.3,2-7,3.5-11,4.5c-3.9,1-8.2,1.1-12.2-0.1c-4-1.2-7.6-3.5-10.2-6.6c-2.7-3.1-4.4-6.8-5.1-10.6
					c-0.7-3.8,0.2-7.8,2.4-10.6c2.1-2.9,5.3-4.6,8.4-5.1c0.4-0.1,0.8-0.1,1.1-0.1c0.4,0,0.7,0,1.1,0c0.7,0.1,1.5,0.2,2.1,0.5
					c1.4,0.5,2.4,1.4,3.3,2.3c1.6,2,2.1,4.3,1.7,6.1c-0.5,1.8-1.8,2.7-2.6,3.1c-0.9,0.4-1.4,0.4-1.4,0.4c0,0,0.5,0,1.4-0.4
					c0.8-0.4,2.1-1.3,2.6-3.1c0.4-1.7-0.2-4-1.8-5.9c-1.6-1.8-4.4-3.2-7.5-2.5c-3,0.5-6.1,2.2-8.1,5c-2.1,2.8-3,6.6-2.3,10.3
					c0.6,3.8,2.4,7.4,5,10.4c2.7,3,6.2,5.3,10.1,6.4c3.9,1.2,8,1.1,11.9,0.2C148.9,63.1,152.6,61.6,155.9,59.6z"/>
				<path style="fill:#EEEEEE;" d="M154.8,45.7c1-1.5,2.6-3.7,4.7-6c2.2-2.3,4.8-5,8.2-7.1c3.3-2.2,7.3-4.1,11.5-5
					c2.1-0.4,4.3-0.6,6.4-0.5c1.1,0,2.1,0.1,3.1,0.3c1,0.1,2,0.4,3,0.6c2,0.5,3.8,1.2,5.4,2c0.8,0.4,1.6,0.8,2.4,1.2
					c0.1,0.1,0.2,0.1,0.3,0.2v1.1c-0.3-0.1-0.5-0.3-0.8-0.4c-0.8-0.4-1.5-0.8-2.4-1.1c-1.6-0.7-3.4-1.2-5.3-1.7
					c-0.9-0.2-1.9-0.4-2.9-0.5c-1-0.1-2-0.2-3-0.2c-2-0.1-4.1,0.2-6.1,0.6c-4,0.8-7.8,2.5-11.1,4.6c-3.3,2.1-6.1,4.4-8.3,6.6
					c-2.2,2.2-3.9,4.2-5.1,5.6c-1.1,1.4-1.7,2.3-1.7,2.3S153.8,47.2,154.8,45.7z"/>
				<path style="fill:#EEEEEE;" d="M136.3,56.4c1.2,0.5,2.7,1,4.4,1.3c1.8,0.2,3.8,0.3,5.9-0.1c0.5-0.1,1.1-0.2,1.6-0.3
					c0.5-0.2,1.1-0.4,1.6-0.6c1.1-0.3,2.2-1,3.3-1.6c1.1-0.6,2.1-1.5,3.1-2.2c1-0.8,1.9-1.8,2.9-2.8c1.8-2,3.7-4.2,5.2-6.6
					c1.6-2.4,3.1-4.9,5.2-7.1c2-2.2,4.4-4.1,7-5.3c2.6-1.3,5.5-1.9,8.3-2c5.6-0.2,10.6,1.6,14.6,3.5c0.1,0.1,0.2,0.1,0.3,0.2v0.3
					c-0.1-0.1-0.3-0.1-0.4-0.2c-3.9-1.9-9-3.6-14.4-3.4c-2.7,0.1-5.5,0.8-8.1,2c-2.6,1.3-4.9,3.1-6.8,5.3c-2,2.1-3.5,4.6-5.2,7
					c-1.6,2.4-3.4,4.6-5.3,6.7c-1,0.9-2,1.9-3,2.8c-1.1,0.8-2.1,1.6-3.2,2.2c-1.1,0.6-2.2,1.3-3.3,1.6c-0.6,0.2-1.1,0.4-1.7,0.6
					c-0.6,0.1-1.1,0.2-1.7,0.3c-2.2,0.5-4.2,0.3-6,0C139,57.5,137.5,57.1,136.3,56.4c-2.4-1-3.5-2-3.5-2S134,55.4,136.3,56.4z"/>
			</g>
			<path style="fill:#EEEEEE;" d="M152.5,47.5c-2.3-2.6,1.3-3.9,1.1-0.4c0.2-3.5,3.7-1.8,1.1,0.5c2.6-2.3,3.9,1.3,0.4,1.1
				c3.5,0.2,1.8,3.7-0.5,1.1c2.3,2.6-1.3,3.9-1.1,0.4c-0.2,3.5-3.7,1.8-1.1-0.5c-2.6,2.3-3.9-1.3-0.4-1.1
				C148.4,48.4,150.1,44.9,152.5,47.5z"/>
		</g>
	</g>
</g>
</svg>
