<?xml version="1.0" encoding="utf-8"?>
<!-- Generator: Adobe Illustrator 23.0.1, SVG Export Plug-In . SVG Version: 6.00 Build 0)  -->
<svg version="1.1" id="Isolation_Mode" xmlns="http://www.w3.org/2000/svg" xmlns:xlink="http://www.w3.org/1999/xlink" x="0px"
	 y="0px" viewBox="0 0 1586 1585.2" style="enable-background:new 0 0 1586 1585.2;" xml:space="preserve">
<g>
	<rect x="344.2" y="1073.3" style="fill:#2874A6;" width="192.4" height="319.1"/>
	<rect x="687.6" y="920.9" style="fill:#95B9FC;" width="190.5" height="471.6"/>
	<path style="fill:#2874A6;" d="M1209.9,1009.8h-182.5V754.7c0-7.3,5.9-13.2,13.2-13.2h156c7.3,0,13.2,5.9,13.2,13.2L1209.9,1009.8
		L1209.9,1009.8z"/>
	<circle style="fill:#FFFFFF;" cx="1118.7" cy="1201.1" r="191.4"/>
	<polygon style="fill:#95B9FC;" points="183.2,436.3 229.4,430.6 229.4,1393.3 1401.8,1405.8 1401.8,1464.2 1272.8,1464.2 
		181.7,1464.2 	"/>
	<path style="fill:#3E387B;" d="M368.9,925.8c-3.8,0-6.2-0.1-6.9-0.1c-5.5-0.3-9.7-5-9.5-10.5c0.3-5.3,4.6-9.6,9.9-9.6
		c0.2,0,0.6,0,0.6,0h0.1c0.3,0,1.9,0.1,4.6,0.1c24.9,0,116.1-3.9,242.6-53.8c85.6-33.7,170.1-81.7,251.2-142.4
		c92.9-69.6,181.9-156.7,264.6-258.9l13.3-16.4l-82.3,12.6c-0.5,0.1-1,0.1-1.6,0.1c-4.9,0-9.1-3.6-9.9-8.5c-0.9-5.5,3-10.6,8.4-11.5
		l105.5-16.2c0.5-0.1,1-0.1,1.6-0.1c2.2,0,4.3,0.7,6,2c2.2,1.6,3.6,4,3.9,6.6l13.4,95.7c0.3,2.7-0.3,5.3-1.9,7.4
		c-1.7,2.2-4,3.6-6.6,3.9c-0.4,0.1-0.9,0.1-1.4,0.1c-5,0-9.2-3.7-9.9-8.6l-9.9-70.6l-11.8,14.7c-84.3,104.5-175.4,193.5-270.6,264.6
		C789.4,788.4,703,837.2,615.5,871.4C486.5,921.9,394.1,925.8,368.9,925.8z"/>
	<path style="fill:#3E387B;" d="M188.4,1476.1c-14,0-25.4-11.4-25.4-25.4V692.5c0-5.6,4.5-10,10-10c5.6,0,10,4.5,10,10V1456h1220
		v-43.8H247.9c-14,0-25.4-11.4-25.4-25.4V443H183v134.6c0,5.6-4.5,10-10,10c-5.6,0-10-4.5-10-10V448.3c0-14,11.4-25.4,25.4-25.4
		h28.8c14,0,25.4,11.4,25.4,25.4v943.9h91.3V1089c0-17.9,14.6-32.5,32.5-32.5h143.9c17.9,0,32.5,14.6,32.5,32.5v303.3h133.6V939.3
		c0-17.9,14.6-32.5,32.5-32.5h143.9c17.9,0,32.5,14.6,32.5,32.5v452.9h150.2l-22.6-15c-11.7-7.7-22.8-16.8-32.7-26.8
		c-39.9-39.9-61.8-92.9-61.8-149.3c0-56.4,22-109.5,61.8-149.3c10.6-10.6,22.3-20.1,35-28.2l3.7-2.4V774.3
		c0-17.9,14.6-32.5,32.5-32.5h144c17.9,0,32.5,14.6,32.5,32.5v45.2c0,5.6-4.5,10-10,10c-5.5,0-10-4.5-10-10v-45.2
		c0-6.9-5.6-12.4-12.4-12.4h-143.9c-6.9,0-12.4,5.6-12.4,12.4v235.7l11.3-4.6c25.3-10.3,51.9-15.5,79.2-15.5
		c23,0,45.8,3.7,67.7,11.1l10.8,3.6v-68.7c0-5.6,4.5-10,10-10s10,4.5,10,10v78.3l4.2,2.3c17.2,9.6,32.9,21.4,46.7,35.2
		c39.9,39.9,61.8,92.9,61.8,149.3c0,56.4-22,109.5-61.8,149.3c-10,10-21,19-32.7,26.8l-22.6,15h174c14,0,25.4,11.4,25.4,25.4v33
		c0,14-11.4,25.4-25.4,25.4L188.4,1476.1L188.4,1476.1z M1034.2,1366.9c19.7,11.3,41.1,19,63.6,22.8l0.6,0.1c1.7,0.3,3.4,0.5,5,0.8
		h0.2c1.2,0.2,2.4,0.3,3.6,0.4c1.7,0.2,3.4,0.3,5.1,0.5c2.1,0.2,4.1,0.3,6.2,0.4l2.6,0.1c3.2,0.2,5.8,0.2,8.3,0.2
		c2.4,0,5.2-0.1,8.3-0.2c0.7,0,1.4-0.1,2.1-0.1c2-0.1,4.2-0.3,6.7-0.5h0.3c1.4-0.1,2.8-0.3,4.1-0.4l1-0.2c21.5-2.6,42-8.6,61.2-18
		c0.3-0.1,0.6-0.3,0.9-0.3l0.2-0.1c18.7-9.3,35.7-21.5,50.5-36.2c36-36,55.9-84.1,55.9-135.2c0-51.1-19.9-99.1-55.9-135.2
		c-15.5-15.5-33.3-28.1-53-37.4l-1.1-0.5c-0.5-0.3-1.1-0.5-1.7-0.8c-2.5-1.1-4.9-2.2-7-3c-0.4-0.2-0.9-0.3-1.3-0.5
		c-22.7-9-46.6-13.6-71.1-13.6c-30.6,0-61,7.4-88.1,21.4c0,0-1,0.5-1.4,0.7c-16.8,8.9-32.2,20.2-45.7,33.8
		c-36.1,36.1-55.9,84.1-55.9,135.2s19.9,99,55.9,135.2c11.7,11.7,24.9,21.9,39.4,30.2l0.3,0.2
		C1034.1,1366.8,1034.1,1366.8,1034.2,1366.9z M708.9,926.9c-6.9,0-12.4,5.6-12.4,12.4v452.9h168.9V939.3c0-6.9-5.6-12.4-12.4-12.4
		H708.9z M366.3,1076.6c-6.9,0-12.4,5.6-12.4,12.4v303.3h168.9V1089c0-6.9-5.6-12.4-12.4-12.4H366.3z"/>
	<path style="fill:#9CCC65;" d="M1137.9,1183.5v-64.8c22.3,1.6,30.7,11.8,38.3,11.8c9.6,0,14.1-12.2,14.1-18.2
		c0-15.6-30.7-22.3-52.4-23v-8.6c0-3.8-4.8-7.3-9.6-7.3c-5.4,0-9.3,3.5-9.3,7.3v9.3c-30.3,3.2-60.6,19.1-60.6,59.4
		c0,40.8,31.9,52.4,60.6,62.5v75.1c-32.6-2.5-41.2-24.9-51.7-24.9c-8,0-14.7,10.5-14.7,18.2c0,15.6,26.8,37,66.4,37.7v9.9
		c0,3.8,3.8,7.4,9.3,7.4c4.8,0,9.6-3.6,9.6-7.4v-10.9c34.5-4.8,58.1-26.5,58.1-65.8C1196.1,1207.7,1165.7,1193.7,1137.9,1183.5
		L1137.9,1183.5z M1121,1177.4c-16.9-6.4-30.7-13.1-30.7-31.3c0-16.6,12.8-24.6,30.7-26.8V1177.4z M1136,1286.2v-67.3
		c15.6,6.7,28.1,15.6,28.1,35.8C1164.2,1272.9,1153.3,1283.1,1136,1286.2L1136,1286.2z"/>
	<path style="fill:#9CCC65;stroke:#9CCC65;stroke-miterlimit:10;" d="M1128.4,1327c-0.5,0-0.9-0.1-1-0.2v-16.9l-8.1-0.1
		c-36.2-0.6-58.4-19.5-58.4-29.4c0-4.5,4.3-10,6.5-10c1.1,0.2,4.6,3.1,7,5.2c8.3,7.1,21,17.9,44,19.6l8.9,0.7v-89.6l-5.5-1.9
		c-33.4-11.8-55.2-22.1-55.2-54.9c0-39.7,33.4-49.2,53.3-51.3l7.3-0.8v-15.6c0.3-0.1,0.6-0.2,1-0.2c0.5,0,1,0.2,1.4,0.4v15.3
		l7.9,0.3c25,0.7,44.4,8.6,44.4,14.8c0,3.3-2.7,10-5.9,10c-1,0-4-1.5-6.3-2.6c-6.4-3.2-16.1-8.1-31.4-9.1l-8.8-0.6v79.3l5.4,2
		c27.8,10.3,52.7,22.5,52.7,60c0,32.6-18.2,53.1-51.1,57.7l-7,1v16.8C1129.4,1326.7,1128.9,1327,1128.4,1327z M1127.9,1296.2
		l9.6-1.8c22.2-4.1,34.7-18.6,34.7-39.6c0-25.8-17.6-36.7-33.1-43.3l-11.4-4.9L1127.9,1296.2L1127.9,1296.2z M1120.1,1111.2
		c-24.1,3-37.8,15.7-37.8,34.9c0,25.4,21.6,33.5,36,38.9l11,4.2V1110L1120.1,1111.2z"/>
	<rect x="687.6" y="915.3" style="opacity:0.1;enable-background:new    ;" width="44.2" height="477.2"/>
	<path style="fill:none;stroke:#3E387B;stroke-width:13;stroke-linecap:round;stroke-linejoin:round;stroke-miterlimit:10;" d="
		M1000,1276.2c-13.9-22.8-21.9-49.6-21.9-78.2c0-83,67.3-150.4,150.4-150.4s150.4,67.3,150.4,150.4s-67.3,150.4-150.4,150.4"/>
	<g>
		<path style="fill:#239E41;" d="M445.8,340c-3.6,1.2-4.3,0.9-4.3-2.6c0-4.4-0.1-8.9,0-13.3c0-1.8-0.3-2.9-2.5-2.9
			c-2.3,0-2.4,1.3-2.3,3c0.1,4.3,0.1,8.6,0.1,12.9c0,3.8-0.8,4.3-4.7,2.8c-0.3-0.3-0.3-0.7,0.2-1c1.5-0.7,1-2.1,1-3.1
			c0.1-3.9,0-7.8,0-11.7c0-0.5-0.7,0-0.3-0.1c0.2,0,0.3,0,0.3,0.3c-0.1,4.1,0.1,8.1-0.1,12.2c0,0.7,0.9,2.5-1.3,1.9
			c-0.2-4.6-0.2-9.2,0-13.8c0.1-2.5-0.2-4.3-3.3-3.6c-0.9,0.2-1.7-0.2-2-1c-3.4-5.9-7.2-5.9-12.4,0c-1,0.8-2.3,0.7-3.4,0.7
			c-10.9,0-22,0-32.9,0c-1,0-2.2,0.1-3-0.7c0.9-11.5,5.9-20.2,16.2-25.9c10-5.5,21-7.8,31.9-10.9c5.6-1.6,11-3.2,16.5-4.8
			c14.3-4.3,25.7-12.7,34.1-25c6.7-9.8,13.1-19.8,19.7-29.6c2-3,4.3-5.7,6.7-8.4c9.2-10.6,20.7-13.6,34.1-10.3
			c10.8,2.7,20.8,7.1,31.1,10.9c11.8,4.4,23.7,8.4,36.7,7.5c9.6-0.7,18.5-3.7,27.4-6.9c11.8-4.3,23.2-9.7,35.6-12.1
			c10.8-2.1,20.2,0.3,28.1,8.1c6.2,6,10.9,13,15.5,20.2c3,4.5,6,8.9,8.7,13.6c10.9,18.5,26.8,29.9,47.6,34.8
			c10.1,2.4,20.2,4.9,30.1,8.5c2.6,1,5.1,2,7.6,3.2c12.3,5.8,18.2,15.8,18.7,29.2c0.1,0.5,0,1-0.7,0.7c-0.3-0.1-0.5-0.5-0.7-0.8
			c-1-1.2-2.3-1.2-3.6-0.8c-1.4,0.5-1.3,1.8-1.2,3c0.2,1.9-0.5,3.8,0.3,5.6c0.1,0.4,0,0.8-0.4,1c-5.1,0.6-10.3,0.1-15.5,0.3
			c-1.3,0.1-2.6-0.4-3.8,0.5c-1,2.2-0.3,4.5-0.5,6.7c-0.2,1.4,0.4,2.9-0.8,4.1c-1-1-1.7-2.2-2.2-3.6c-0.3-1-0.7-2.1-0.6-3.1
			c0.6-3.6-1-5.1-4.5-5c-1.1-0.6-1.7-1.7-2.2-2.9c0.2-0.2,0.3-0.3,0.4-0.4c7.9-0.8,15.8-0.1,23.6-0.3c0.5-0.1,1-0.3,1.5-0.7
			c0.7-1.7,0.7-3.3,0.1-5c-0.5-0.8-1.2-0.8-2-0.8c-20,0-39.9-0.1-59.9,0.1c-0.9,0.2-1.7,0.5-1.7,1.6c0.1,3.2-1.3,6.3-0.1,9.6
			c0,4.2,0,8.4,0,12.6c0,0.3,0.1,0.7,0.2,1c0.2,0.5,0.5,0.9,1,1c1.5,0.1,3,0.7,4.2-0.8c0.4-3-0.3-6.1,0.4-9.1
			c4.1-1.1,8.3-0.3,12.3-0.5c2.1-0.1,1.7,1.6,1.7,2.9c0.1,6.9,0.1,6.8,6.9,6.9c2.9,0.1,5.9-1,8.6,0.8c-4.4,0.8-8.9,0.1-13.4,0.3
			c4.4-0.3,8.9,0.3,13.4-0.3c0.9,0.7,1.3,1.7,1.7,2.7c-0.3,0.2-0.5,0.4-1,0.4c-11.4,0.1-22.8,0-34.1,0.1c10.4,0,20.8,0,31.3,0
			c1.3,0,2.6,0.4,3.8-0.4c0.2,0.3,0.3,0.5,0.5,0.9c-0.5,2-2.2,1-3.2,1c-10.4,0.1-20.8,0.1-31.2,0.1c-1.7,0-3.5-0.4-3.6,2.4
			c-0.1,1.8-1.9,1.1-3.1,0.9l0,0c0.1-2.8-1.3-3.4-3.9-3.4c-12.6,0.2-25.2,0.1-37.7,0.1c-1.7,0-3.6-0.4-3.3,2.3
			c0.1,1.1-0.8,1.3-1.7,1.3s-1.8-0.2-1.7-1.3c0.2-2.8-1.7-2.3-3.3-2.3c-6.3,0-12.4,0-18.7,0c-1,0-2.5,0.8-3-1
			c7.6-0.9,15.4-0.2,22.1-0.4c-12.9,0-26.7,0-40.5,0.1c-0.4,0.2,0.3,0.7,0,0.3c5.9-0.9,11.8-0.3,17.7-0.3c0.3,2.1-1.3,1.2-2,1.2
			c-4.9,0.1-9.7,0.2-14.6,0c-2.3-0.1-3.4,0.5-3,3c-1,2.2-2.1,1.9-3,0c-0.3-0.8,0-1.7-0.3-2.4l0,0c-0.2-0.3-0.4-0.6-0.8-0.8
			s-0.7-0.3-1.1-0.3c-14,0-27.9-0.4-41.9,0.3c-0.7,0.3-1.2,0.8-1.1,1.7c0.3,2.9-1.4,2.8-3.4,2.2c0-2.9-1.5-3.5-4.3-3.5
			c-12.3,0.2-24.8,0.1-37.1,0.1c-1.8,0-3.7-0.3-3.5,2.6c0.1,1.1-0.8,1.6-1.9,1.7c-1.3,0-2.2-0.4-2.1-1.8c0.2-2.3-1.3-2.3-3-2.3
			c-12.9,0-25.7,0-38.5,0c-1.8,0-3.4,0-3.1,2.6c0.1,1.2-0.7,1.7-1.8,1.7c-1,0-2.1-0.3-1.9-1.6c0.3-2.9-1.5-2.7-3.4-2.7
			c-13.2,0-26.4,0-39.6,0c-0.4,0-1-0.1-1.4-0.2c-0.4-1.1,0.4-1.1,1.1-1.1c13.6,0,27.3,0,40.9-0.1c-13,0-26.1,0-39.2,0.1
			c-1,0-2.7-1.1-2.8,1.1c-0.2,0.8-0.3,1.7-0.3,2.4c-0.1,1.3-0.5,2-1.9,2c-1.4,0-2.1-0.5-2-1.9c0.3-2.4-1.2-2.3-3-2.3
			c-12.9,0-25.6,0-38.5,0c-1.6,0-3.3-0.3-3.1,2.3c0.1,1.3-0.6,2-1.9,2c-1.3,0-2.1-0.6-2-1.9c0.2-2.4-1.4-2.3-3-2.3
			c-6.6,0-13.2,0-19.8,0c-5.8,0-5.8,0-5.8-6.1c0.3-1.5,0.5-2.9-0.1-4.3c-0.2-1-0.3-2.1-0.4-3.2c-0.1-1.6,1-1.7,2.1-1.7
			c2-0.1,2.3,1,2.4,2.7c0.3,7.1,0.3,7.1,7.5,7.1c4.4,0,8.9,0,13.3,0c1.1,0,2.4-0.4,3.3,0.8c-7.6,0.9-15.1,0.1-19.1,0.3
			c4-0.3,11.6,0.7,19.1-0.3c2.6,1.4,5.2,1.4,7.8,0c3.2,1,6.6-0.1,8.3,0.3c-1.7-0.2-5.1,0.6-8.3-0.3c2.9-1.7,6.1-0.4,9-0.8
			c1.6-0.2,2.8-0.1,2.8-2.3c0-2-0.7-3-2.8-2.7c-0.3,0-0.5,0.1-0.7,0c-1.3-0.3-3.6,0.8-3.6-0.8c0.1-1.7,1.3-3.9,3.8-4.1
			c1.8-0.1,3.6,0.1,5.4-0.1c2.1-0.1,2.6,0.9,2.7,2.8c0.2,7,0.3,7,7.2,7c4.7,0,9.4-0.1,14,0.1c2.4,0.1,3.1-0.8,3-3.1
			c-0.2-5.9,0-11.7,0-17.6c0-1.7,0.4-3.6-2.4-3.7c-3-0.1-2.4,1.8-2.6,3.6C446,329.8,446.9,335,445.8,340c-1-5.6-0.1-11.4-0.5-17
			C445.7,328.6,444.7,334.4,445.8,340z"/>
		<path style="fill:#DA0100;" d="M818.7,573.3c-3-0.5-3.8,0.8-3.7,3.7c0.2,6.9,1,6-6.1,6c-3.6,0-7.2,0.1-10.8,0
			c-2.1-0.1-2.7,0.7-2.6,2.7c0.2,3.9,0.1,7.9,0.2,11.8c4.5,1.5,9.1,1,13.7,0.3c1-1.8,1-3.6,0-5.4c-1.7-1.1-3.5-0.5-5.2-0.5
			c-2.8,0-3.7-1-2.8-3.7c3.9-0.8,7.8-0.2,11.7-0.3c1.6-0.1,1.9,0.8,2,2.3c0.2,2.6-0.8,5.3,0.7,7.7c1.5,1.2,3.6-0.2,5.1,1.3
			c0,14.1-5.8,24.7-18.9,30.8c-11,5.2-22.9,7.6-34.5,10.9c-2.9,0.8-5.7,1.7-8.6,2.4c-16.7,4.6-29.6,14.2-38.9,28.8
			c-5.8,8.9-11.6,17.9-17.6,26.7c-1.9,2.9-4.2,5.6-6.4,8.2c-9.4,11-21.1,14.2-35,10.6c-10.4-2.7-20.5-6.6-30.4-10.9
			c-22.1-9.6-43.8-9.6-65.8-0.1c-10.9,4.7-22.1,9.3-33.9,11.6c-11.4,2.3-21.1-0.5-29.3-8.8c-5.9-5.9-10.4-12.8-14.9-19.7
			c-4.1-6.3-8.1-12.4-12.2-18.7c-9.4-14.4-22.6-23.5-39.1-28c-10.4-2.9-20.8-5.7-31.1-8.7c-4.3-1.2-8.3-3-12.3-5
			c-10.7-5.3-16.3-14.2-17.5-25.8c-0.4-4.4-0.4-8.9-0.7-13.3c-0.1-1.9,0.7-2.5,2.5-2.4c1.7,0,2.2,0.7,2.3,2.3c0.2,2.5-1,5.3,0.9,7.6
			c3.1,1.1,6.3,0.4,9.5,0.5c4.2,0.2,8.3,0.1,12.4,0c1.3,0.4,2.4-2.5,3.8-0.1c0.5-1.2,0.8-2.7,2.7-2.1c3.9,0.3,6.4,2.3,8.7,5.5
			c3.4,4.8,7.2,9.2,11.5,13.3c2.9,2.7,5.4,3,7.6,1c2.3-2,2.3-5-0.1-8c-1.8-2.3-4.2-4-5.6-6.5c-0.6-1-1.9-2.3,0.3-3.1
			c6.6-0.7,13.3,0.1,20-0.4c1.8-2,1.7-4.5,1.4-6.9c-0.6-4.9,0.2-9.7,0-14.5c0-1,0.4-2.1,1-3c1.8-1,2.2,0.7,3,1.6
			c0.2,0.5,0.3,1,0.1,1.5c-0.4,0.7-1,1.5,0.5,1.5c0.7,0.1,1.5,0.2,2.2,0.4c10.9,0.4,21.7,0.1,32.6,0.2c7.9,0.1,15.7,0,23.6,0
			c3,0,5.9,0.5,8.4,2.2c-0.1,2.4-2.1,1.8-3.4,1.9c-3.6,0.2-7.3,0.2-10.9,0c-2.2-0.1-3.4,0.6-3.6,2.9c-1.5,2.5-1.7,5.1-0.3,7.7
			c0.7,1.3,0.3,2.9,0.9,4.2c4.3,1.2,8.4,0.7,12.7,0.3c1.3-1.8,1.3-3.6-0.2-5.3c-1.4-0.4-2.9-0.3-4.3-0.3c-3-0.1-4.5-1.2-4-4.4
			c4.3-2.3,8.9-1.4,13.3-0.7c1.7,0.3,2.2,2.1,2.3,3.7c0.2,2-0.1,4.1,0.4,6.1c0.5,1.6,1.9,1.2,3,1.2c6,0,12,0.1,18-0.1
			c1.1-0.1,1.7-1.4,2.8-1.4c0.7,0,1.2,0.2,0.4-0.8c-1.1-1.3-1.3-2.6,0.7-3.3c2.1-0.7,2.3,0.9,2.7,2.3c0.2,0.6,0.6,1,1.2,1.2
			c2.4,0.3,2.3-1.5,2.5-3c0.6-6.3,1-6.5,7.1-6.6c0.3,0,0.7,0,1,0c7.6,0,7.6,0,8.3,7.6c0.1,1.1,0.3,2.1,0.9,3c0.5,0.8,1.3,1,2.2,1
			c6.5-0.2,13.1,0.3,19.6-0.3c1.4-0.7,1.2-2,1.2-3.1c0-2.9-0.1-5.7,0-8.6c0.1-2.5-1-3.5-3.5-3.3c-4.4,0.3-9.1-1-13.3,1.6
			c-0.6,0.3-1.4,0.3-2.1,0c-8-3.1-16.2-1.3-24.3-1c-0.3,0.2-0.6,0.3-1,0.5c-0.5,0.2-1.5,0.5-1.7,0c-0.7-2.7-3.6-4.3-3.6-7.3
			c0-1.5-0.2-3,1.6-3.6c1.7-0.5,1.7,1.2,2.1,2.3c0.3,0.9,1,1.3,1.7,1.8c0.3,0.3,0.5,0.5,0.8,0.8c1.3,1.1,3,0.8,4.5,0.8
			c18.3,0,36.7,0,55.1,0c3.3,0,3.8-0.8,3-4.1c-0.3-1-1.1-1.6-1.1-2.6c0-1.3,0.3-2.4,1.7-2.9c1.2-0.3,2.2,0.1,2.7,1.2
			c0.5,1.2,1.1,2.3,1.6,3.6c1.4,9.6,0.7,10.4-8.8,10.4c-2.2,0-4.3,0-6.4,0c-2.1,0-3,1-3,3.1c0,0.3,0,0.7,0,1
			c-0.3,8.2,1.4,9.6,9.6,7.9c0.8-0.2,1.8-0.2,1.8-1.3s-1-1.2-1.8-1.3c-1.4-0.3-2.9-0.1-4.3-0.3c-1.6-0.2-2.7-0.9-2.9-2.6
			c-0.2-1.8,0.3-3.6,2.3-4c3.9-0.9,7.8-0.8,11.7-0.1c1.7,0.3,2,1.8,2.2,3.3c0.2,2.3,0,4.5,0.4,6.8c0.3,0.8,0.9,1,1.7,1
			c7.1-0.2,14.3,0.3,21.5-0.3c1.4-1,1-2.3,1-3.6c0-5.1,0-10.3,0-15.5c0-1-0.1-1.9,0.1-2.9c0.2-1,0-2.3,1.4-2.5
			c1.1-0.1,1.7,1,1.9,1.9c0.5,3.5,2.9,3.5,5.6,3.5c18.1,0,36.1,0,54.2,0c2.9,0,5.7,0.3,8.4,1.5c0.5,0.5,0.5,1.1,0.3,1.7
			c-1.2,1.1-2.7,1-4.1,1c-4.1,0-8.2,0-12.2,0c-0.9,0-2-0.5-2.3,1c0.3,4.4-0.5,8.9,0.7,13.3c0.1,0.3,0.3,0.9,0.5,0.9
			c3.6,0.3,7.2,0.3,10.8,0c1-0.1,1-1,1-1.7c-0.1-1.4-0.8-2.2-2.2-2.4c-0.9-0.1-1.7-0.1-2.5-0.2c-2.3-0.2-4.8,0-5-3.3
			c-0.1-2.5,1.5-3.7,5-3.9c2.3-0.1,4.5-0.1,6.8,0c3,0.1,4.3,1.6,4.4,4.5c0.1,2,0,4.1,0.8,6c0.8,1.6,2.3,1,3.5,1c4.9,0,9.8,0,14.7,0
			c4.1,0,4.1,0,4.2-4.2c0-0.9,0-1.7,0.2-2.5c0.7-2.6,0.7-5.1,0-7.7c-0.5-3.3,0.1-6.7-0.4-10.1c-0.8-2.5,0.4-2.9,2.3-1.9
			c1.3,0.6,1.9,1.9,1.8,3.3c-0.3,3.4,1.7,4,4.5,4c9.2,0,18.5,0,27.7,0c1.6,0,3.1-0.2,4.6,0.7c1,0.7,1.9,1.5,2.8,2.2
			c-1.2,1.3-2.8,0.9-4.3,1c-1.2,0.1-2.6-0.3-3.5,1.1c-0.7,1.7,0.2,2.4,1.7,2.6c1.6,0.2,3.1-0.1,4.6,0.3c3,0.8,3.5,2.9,1.4,5.4
			c-2.4-0.1-4.9,0.1-7.3-0.3c-1-0.2-1.8-0.7-2.8-0.7c-3.4,0-5.7-1-5.6-5c0.1-1.5-1.2-1.9-2.5-2c-5.5-0.1-10.9-0.1-16.4,0
			c-1.8,0-2.6,1-2.5,2.8c0.1,3.2-0.3,6.4,0.4,9.6c0.3,0.5-0.1,1.7,0.2,1.7c0.8,0,1.6-0.4,1.6-1.5c0.2-2.1,0-4.1,0.1-6.1
			c0.1-2.6,1.4-4,4-4.1c3-0.1,6-0.1,9,0c2.4,0.1,3.5,1.3,3.5,3.9c0.1,4.5-1.4,8.2-4.5,11.3c-2.7,2.7-5,5.7-7.6,8.6
			c-2.8,3.1-2.1,6.9,1.1,8.5c2.4,1.1,4.4,0.3,6.2-1.5c4.6-4.5,8.6-9.7,12.8-14.6c1.4-1.7,2.4-3.6,4.5-4.5c2.3-0.5,4.6-0.2,6.9-0.3
			c1.1-0.1,2.3,0.4,3.2-0.7c0.2-0.3,0.3-0.6,0.5-0.9c1-5,0.9-9.9-0.2-14.9c2.4-3.5,5.9-3.9,9.7-3.6c2.3,0.2,4.8-0.1,7.2,0.1
			c1.9,0.1,2.8-0.3,2.9-2.5c0.1-2.3-1.1-2.5-2.9-2.4c-3.4,0.1-6.7,0-10.1,0c1.1-5,1.7-5.5,6.3-5.5c4.5,0,9.1-0.1,13.6,0
			c1,0,2.5-0.7,3,1C820.7,572.8,820.7,572.8,818.7,573.3z"/>
		<path style="fill:#DA0100;" d="M334.3,573.2c-1.8-4.5-1.3-5.3,3-5.3c4.8,0,9.6-0.1,14.3,0c1.9,0,3.4-0.1,3-2.6
			c-0.2-1.4,0.7-1.9,2-1.8c1.4,0,2,0.8,1.8,2.1c-0.2,1.7,0.4,2.5,2.2,2.3c1.2-0.1,2.3,0.3,1.9,1.7c-0.3,1.4,0.9,3.7-2,3.7
			c-1.4,0-1.9,0.7-1.7,2c0.1,1.2-0.3,2.9,1.7,2.9c1.4,0,1.7,0.7,1.6,1.7c-0.2,1.1,0.4,2.8-1.2,3c-2.2,0.2-2.1,1.6-2,3
			c0.2,3.9-0.4,7.9,0.3,11.8c0.5,0.8,1.4,0.7,2.2,0.7c0.5,3.7,1,7.6,1.7,11.3c2.7,13.9,10.5,23.9,23,30.4
			c10.9,5.7,22.9,8.3,34.7,11.6c4.9,1.3,9.6,2.8,14.5,4.3c12,3.6,21.4,10.6,28.3,20.9c4.4,6.6,8.7,13.2,13,19.8
			c3.8,5.8,7.7,11.6,12.2,16.9c13.1,15.8,29.4,20.8,49.3,15.5c10.2-2.8,20.2-6.3,29.7-10.7c20.5-9.6,40.7-9,61.2-0.2
			c10.3,4.5,21,7.9,32.1,10.2c18.3,3.6,33.6-1,45.7-15.5c4.3-5.3,8.4-10.8,12.1-16.5c2.7-4.1,5.5-8.2,7.9-12.4
			c9.6-16.7,23.7-26.8,42.5-30.9c11-2.5,22.1-5.5,32.7-9.6c19.5-7.6,30.3-21.5,31.3-42.7c0-0.8-0.1-1.7,0.5-2.3
			c1.7-0.3,3.6,0.6,5-0.7c1-7.6,0.3-15.2,0.3-22.8c0-2.8-2.5-1.2-3.8-1.7c-0.4,0.2-1,0.3-1.5,0.3c-0.3-0.1-0.6-0.3-0.9-0.5
			c-0.2-0.8-0.3-1.7-0.4-2.4c-0.4-2.2,0.3-3,2.6-2.9c2.3,0.1,5,0.9,4.7-3.2c-0.1-1.2,1.3-1.1,2.3-1.1c1.2,0,1.7,0.8,1.6,1.9
			c-0.3,2.3,1,2.5,2.8,2.5c4.2-0.1,8.4,0.1,12.6-0.1c2-0.1,2.7,0.5,2.7,2.6c0,2.1-0.5,3-2.8,3c-3.9-0.2-7.9,0-11.9-0.1
			c-1.7,0-3-0.2-3,2.3c0,2.5,1.3,2.7,3.2,2.6c4-0.1,7.9,0.1,11.9-0.1c2-0.1,2.7,0.6,2.7,2.7c0.1,2.1-1,2.3-2.6,2.3
			c-4.1-0.1-8.2,0.1-12.2-0.1c-2.2-0.1-3,0.7-2.9,2.9c0.2,3,0.1,6,0,9c0,1.7,0.3,2.8,2.3,2.7c1.8,0,2.5-0.6,2.6-2.5
			c0.2-2.3-1.5-5.6,1-6.9c1.8-1,4.7-0.3,7-0.3c1,0,2.2,0.1,3.2,0c1.4-0.1,1.9,0.6,2,1.9c0.6,14.2,2.1,28.2-0.8,42.3
			c-2.8,13.6-10.7,23.3-22.8,29.6c-10.8,5.6-22.3,8.4-33.9,11.6c-8.1,2.2-16.2,4.3-24.1,7c-13,4.4-23.5,12.2-31.8,23.1
			c-8.8,11.7-15.8,24.6-24.3,36.5c-3.5,4.8-7.1,9.3-11.3,13.5c-11.4,11.4-24.9,14.9-40.6,11.6c-13.9-2.9-26.8-8.8-40-13.6
			c-10.6-3.9-21.2-7.6-32.6-8.2c-12.5-0.5-24.1,3.3-35.6,7.6c-12.7,4.6-25.1,10.1-38.2,13.6c-20,5.3-36-0.5-49-16.2
			c-5.9-7.1-10.9-14.9-15.9-22.6c-3.9-6.1-7.9-12-11.8-18.1c-9.7-14.9-23.5-24.2-40.5-29.2c-14-4.1-28.4-6.9-42-12.2
			c-3.1-1.2-6.3-2.5-9.2-3.9c-15-7.2-23-19.4-24.8-35.8c-1-9.1-1.2-18.2-0.1-27.3c2.3-1.4,4.9-0.6,7.4-0.7c3.9-0.2,7.9-0.1,11.8,0
			c1.8,0,3-0.7,3-2.7c0-7,0.2-14.1-0.1-21.1c0-0.3-0.3-0.6-0.5-0.9c-5-0.8-5-0.8-5,4.2c0,3.8,0.1,7.6,0,11.4c0,1,0.7,2.4-0.9,3.1
			c-1.2-0.7-2.4-0.6-3.6-0.1c-1.2-5.1-0.2-10.3-0.5-15.5c-0.1-1.5,0.9-3.5-2.1-3.5c-2.9-0.1-2.5,1.7-2.6,3.5
			c-0.3,5,0.6,10.2-0.5,15.2c-3,0.3-4.3-0.9-4.1-4.1c0.3-3.8,0.1-7.6,0.1-11.5C335.1,575.2,335.4,574,334.3,573.2z"/>
		<path style="fill:#239E41;" d="M332.6,320.5c-1.4-14.6-1.3-29,5.6-42.4c4.3-8.5,11.6-13.9,19.9-18c11.2-5.6,23.5-8.3,35.4-11.6
			c7.2-1.9,14.3-3.9,21.4-6.3c13.1-4.4,23.6-12.4,31.9-23.5c8.3-11.1,14.9-23.2,22.8-34.4c3-4.3,6.2-8.3,9.6-12.2
			c12.4-13.9,27.7-18.5,45.8-14.1c12.9,3.2,25.1,8.5,37.6,13.2c10.6,3.9,21.2,7.6,32.6,8.2c12.6,0.5,24.3-3.4,36-7.6
			c12.8-4.7,25.3-10.3,38.6-13.6c18.6-4.7,34.1,0.2,46.6,14.5c5.9,6.7,10.9,14.1,15.6,21.5c4.7,7.2,9.5,14.4,14.2,21.6
			c9.6,14.6,23,23.8,39.8,28.4c12.1,3.4,24.2,6.7,36.3,10.2c5,1.5,9.9,3.5,14.7,5.7c15.2,7.2,23.5,19.2,25.4,35.8
			c0.9,8.2,1.6,16.4,0.2,24.7c-5.4-0.9-10.9,0-16.2-0.4c5.4,0.3,10.9-0.3,16.2,0.4c-1.7,1.6-3.8,0.6-5.7,0.7c-3.3,0.2-6.7,0.1-10,0
			c-1.9-0.1-2.8,0.6-2.8,2.6c0,2.1,1.1,2.3,2.8,2.3c4.2-0.1,8.3-0.1,12.5,0c1,0,2.4-0.8,3.1,0.8c-5.5,0.8-11,0.1-16.5,0.5
			c-0.4,0.3,0.2,0.8,0,0.3c-0.1-0.2-0.1-0.3,0.2-0.3c5.3-0.3,10.6-0.6,15.9,0.2c-0.1,1-0.1,1.9-0.2,2.9c-5,0.8-9.9,0.3-14.9,0.3
			c-2.4,0-3.7,0.2-3.2,3.2c0.5,2.9,0.3,5.9,0,8.9c-0.1,1.1-0.3,2.2,1,2.6c3.8,0.7,4.5-1.1,4.3-4.6c-0.3-5.2-0.1-5.2,5-5.2
			c2,0,4.1,0,6.1,0c0.9,0,1.7,0,1.7,1.2c-1.4,1.3-3.1,1-4.8,1c-6.4,0.1-6.4,0.1-6.3,6.3c0.1,0.5,0.9,0,0.3,0.1c-0.1,0-0.1,0-0.1-0.1
			c-0.5-1.5-0.3-3-0.1-4.7c1.7,0.7,1.7,2.1,1.8,3.3c0.1,1.1-0.1,2.4,1.4,3c1.2,0.3,2.5,0.1,3.7,0.4c1,0.1,1,1.5,1.4,1.4
			c1-0.2,0.8-1.2,1-2c0.3-1.6-0.7-3.6,1.6-4.4c0.3,9.6,0.3,9.6-9.2,9.6c-1.8,0-3.6,0-5.4,0s-3.7-0.2-3.4,2.6c0.1,1-0.5,1.6-1.6,1.6
			c-1,0-2.3,0-2.3-1.1c0.2-3.7-2.4-3-4.6-3c-0.9,0-2,0.5-2.3-1c2.1-0.7,4.1-0.3,5.9-0.3c-1.7-0.6-3.9,0.4-5.9-0.5
			c0-0.7,0.1-1.5,0.1-2.2c1.7-1.3,3.6-0.4,5.3-0.7c0.4-0.1-0.2,0,0.3-0.1c0.1,0,0-0.2-0.2-0.4c0.2-0.3,0.3-0.7,0.5-1
			c0.3-7,0-14.1,0.2-21.1c0.1-2.2-0.8-3-3-2.6c-1,0.3-2.3,0.9-3-0.8c-1.4-20.2-11.8-33.6-30.4-41c-11.7-4.7-24-7.6-36.1-10.6
			c-16.8-4.2-29.4-13.3-38.5-28c-5.8-9.4-11.6-18.8-18.2-27.6c-16.2-21.2-32.7-26.4-58.1-18.4c-9.3,2.9-18.3,6.3-27.3,10.2
			c-18.1,7.8-35.9,7.6-54,0c-11.2-4.8-22.6-9.3-34.5-12.2c-18.9-4.5-34.2,1-46.7,15.5c-4.7,5.5-8.8,11.4-12.7,17.5
			c-2.9,4.4-5.9,8.8-8.5,13.4c-9.4,16.3-23.5,26.1-41.7,30.3c-10.9,2.5-21.6,5.2-32.1,9.3c-12.9,5-23.8,12.4-28.9,26.1
			c-1.7,4.5-2.7,9.2-3.2,14c-0.2,1.2-0.2,2.1-1.8,2.5c-2,0.5-2.2,3.5-0.5,4.7c2.3,1.7,2.6,4,0.3,5c-1.7,0.8-1.3,1.7-1.4,2.8
			c-0.1,3.8-0.2,7.6-0.2,11.5c0.1,0.3,0.3,0.5,0.4,0.8c0.3,0.3,0.4,0.8,0.5,1.3c0,0.9-0.3,1.7-0.7,2.3c-0.3,0.3-0.6,0.3-1,0.3
			c-2.1-1.4-2.2-3.8-3-5.9c-0.1-6.6,0-13.1,0-19.7c0-1.5,0.1-2.9-1.7-3.6c-2.5-1-4.4,0.2-4.5,3c-0.1,4.5,0,9.1,0,13.6
			c0,1.6,0,2.8-2.2,2.8c-2.3,0-2.1-1.3-2.1-2.8c0-4.2,0-8.3,0-12.5c0-4.5,0-4.5-4.5-4c-1.2,1-0.9,2.4-0.9,3.6
			c-0.1,3.9,0.1,7.9-0.1,11.8c0,1.5,0.7,3.6-2,3.8c-3,0.2-1.9-2.2-1.9-3.6c-0.1-4.2-0.2-8.3,0-12.5
			C335.3,322.1,334.6,320.9,332.6,320.5z"/>
		<path style="fill:#D90000;" d="M560.2,536.6c7.9-0.8,15.5-2.4,23.3-5.3c-29.3-17.4-45.3-42.5-45.8-76.4
			c-0.3-25.6,9.8-47.1,29.2-65.2c-32.3,51.9-8.9,106.6,23.3,129c0-2.1,0.1-3.8,0-5.6c-1.8-39.1-3.3-78.2-2.8-117.3
			c0-2.3,0.4-3.7,2.7-4.8c1.7-0.8,3.1-2.2,4.6-3.4c1.4-1.3,2.6-2.7,4.1-4.3c2.8,3.4,5.8,6.4,9.7,8.4c1.4,0.7,1.4,1.7,1.4,3
			c0.3,33.3-0.1,66.5-1.8,99.6c-0.4,8-0.1,16-0.1,23.5c31.4-20.8,54.1-75.3,23.9-125.8c10.4,3.9,26,33.6,27.5,54
			c2.8,37.7-13.1,65.6-45.3,85.3c11.1,4,22.5,5.9,34.3,5.9c-5.3,1.9-10.8,3.1-16.4,3.5c-7.9,0.5-15.8,0.7-23.6-1
			c-0.9-0.2-1.8-0.7-2.2,0.9c-1,4.8-5,7.6-7.5,12.1c-2.4-4.5-6.6-7.3-7.6-12.2c-0.3-1.3-1.1-1-1.9-0.9c-13.5,2.6-26.7,1.7-39.9-1.7
			c0.2-1.6,1.4-0.9,2.2-1C554.5,536.7,557.4,537.2,560.2,536.6z"/>
		<path style="fill:#D90101;" d="M620.7,574c-0.4-1-2.3-1-1.7-2.8c0.3-1-0.3-1.6-1.3-1.6c-1.4,0-1.8,1.7-1.5,1.9
			c2.6,2.3,0.7,5.8,2.5,8.1c-20.5,0-41,0-61.5,0c-1.7,0-3.8,0.6-4.3-2.1c1.3-0.8,2.8-0.5,4.3-0.5c17.5,0,34.9,0,52.5,0
			c1.7,0,4.5,0.7,4.6-1.3c0.1-2.1-2.8-1.4-4.4-1.4c-16.8-0.1-33.5,0-50.3-0.1c-2.9,0-5.2,0.5-6.6,3.2c-1-0.8-3.4-0.5-2.3-3
			c0.2-0.4-0.1-1-0.7-1c-0.3,0.1-0.9,0.4-1,0.8c-0.8,1.5,0.7,5.3,2.3,5.8c1.5,0.4,0.8,1.1,0.5,1.8c-0.5,1.3-0.2,1.8,1.2,1.4
			c1.7,4.5,1.8,9-0.2,13.6c-0.9-0.7-0.6-1.7-0.7-2.7c0-0.6,0-1.2-1-1.1c-0.4,0.1-1,0.2-1.3,0.4c-0.6,0.5-0.3,1.1,0.2,1.5
			c1.4,1,1.7,2.1,0.8,4c-1.2-2.3-2.2-1.7-3,0c-0.8-0.4-1.2-1.1-1.1-2c0-7.4,0.4-14.8-0.3-22.6c-2.1,1.3-1.7,2.7-1.7,4
			c-0.1,3.2,0,6.4-0.1,9.6c-0.1,1.5,0.2,3.2-1.6,4.1c-4.3-0.3-4.7-0.8-4.8-4.8c-0.1-3,0-6.2,0-9.2c0-1.3,0.3-2.7-1.2-3.5
			c-2.5-0.5-2.4,1.4-2.4,2.9c-0.2,3.2,0,6.3-0.1,9.6c0,1.5,0.1,3.1-1.1,4.3c-3.6,0.6-4.3,0.1-4.5-3.4c-0.2-4.7,0.1-9.3-0.2-14
			c-0.6-0.2,1-1.6-0.9-1.3c-3.3,0.4-5,1.7-4.3,5.3c0.2,1,0.1,2.2-0.9,3c-3.7-0.7-7.5-1.6-11.4-1.5c-16.8,0.2-33.6,0.1-50.4,0.1
			c-1.3,0-2.7,0.4-3.8-0.6c1.5-1.6,3.3-1,5-1c17.4,0,34.7,0,52,0c2.1,0,4.6,0.3,4.1-3.1c-0.3-0.3-0.5-0.6-0.9-0.9
			c-1.1-0.6-2.3-0.4-3.6-0.4c-17.8,0-35.6,0-53.4,0c-2.1,0-4,0.3-5.6,1.9c-0.7-0.7-1.4-1.5-2.1-2.2c-3.1-1.3-6.2,0.4-6.2,3.6
			c-0.1,3.9,0,7.9-0.1,11.8c0,1.8-0.1,3.8-2.6,3.9c-2.8,0.1-2.9-2-2.9-4c0-4.8-0.2-9.6,0.1-14.3c0-0.4,0.2-1,0.7-1.3
			c-1-0.3-1.5,0.4-2.3,0.4c-2.5,0-3.2,1.4-3.1,3.7c0.1,3.5,0.1,6.9,0,10.4c0,1.4,0.2,2.9-1,4.1c-1.2,0.7-2.3,0.7-3.6,0
			c-1.7-2.1-1-4.5-1-6.9c-0.2-2.7,0.2-5.5-0.2-8.2c-0.1-0.9-0.3-1.7-1.5-1.7s-1.1,1-1.3,1.8c-0.2,1.5,0.1,3.1-0.9,4.4
			c-1.5,0.5-1.2-0.7-1.2-1.4c-0.1-2.2,0.1-4.3-0.1-6.4c-0.2,0,0,0.2,0,0.4c0.1,2.3,1,5.2-0.3,7c-1.4,2.1-4.2-0.2-6.3,0
			c-3.9,0.3-7.9,0.2-11.8,0c-1.3,0-2.7,0.2-3.6-1.1c4.8-2.3,9.9-1,14.9-1.3c1.7-0.1,3.6,0.4,3.6-2.5c0.1-3.1-2-2.3-3.6-2.3
			c-1-0.1-2.2-0.2-3.2,0c-4,0.5-7.1-0.1-7.4-5.3c0.6-0.6,1.7-0.2,2.8-0.2c12.5,0,24.9,0,37.4,0c2,0,4,0.3,3.6-2.9
			c-0.2-1.2,0.7-1.6,1.8-1.7c1.4-0.1,2.2,0.5,2,1.8c-0.3,2.5,1.1,2.6,3,2.6c12.9,0,25.7,0,38.5,0c1.9,0,3.7,0.1,3.3-2.8
			c-0.2-1.2,0.7-1.7,1.8-1.7c1.3-0.1,2.2,0.5,2,1.8c-0.3,2.5,1.2,2.6,3,2.6c12.9,0,25.7,0,38.5,0c1.9,0,3.4-0.1,3-2.6
			c-0.2-1.5,0.9-1.8,2.1-1.8c1.4,0,2.1,0.7,1.9,2c-0.3,2.4,1,2.4,2.8,2.4c12.9,0,25.9,0,38.9,0c1.7,0,3.1-0.2,2.8-2.4
			c-0.2-1.3,0.4-2,1.8-2c1.3,0,2.2,0.5,2,1.8c-0.3,2.2,0.7,2.6,2.7,2.6c13.2-0.1,26.4,0,39.6,0c1.5,0,2.7-0.1,2.5-2.1
			c-0.2-1.3,0.2-2.4,1.8-2.4c1.6,0,2.2,0.9,2,2.3c-0.3,1.9,0.9,2.2,2.3,2.2c13.2,0,26.4,0,39.6,0c1.7,0,2.9-0.2,2.6-2.3
			c-0.2-1.6,0.6-2.2,2.2-2.1c1.4,0,2.1,0.7,1.9,2c-0.3,2.4,1.2,2.4,2.9,2.4c12.9,0,25.9,0,38.9,0c1.8,0,3-0.3,2.7-2.5
			c-0.2-1.3,0.4-2,1.8-2s2.2,0.5,2,1.9c-0.3,2.6,1.2,2.6,3,2.6c10.6,0,21.1-0.1,31.7,0.1c1.1,0,3.6-1.1,3.3,1
			c-0.2,1.6-1,4.2-3.6,4.3c-2.5,0.2-5,0-7.6,0c-7.6,0-15.4,0-23,0c-1.7,0-3.4-0.4-3.3,2.3c0.1,2.5,1.5,2.5,3.3,2.5
			c9.5,0,18.9-0.1,28.4,0c1.4,0,3.2-0.7,4,1.4c-10.6,0-21.2,0.1-31.9,0c-1.3,0-2.5-0.5-3.8-0.6c-2-0.2-2.7-1-2-3
			c0.6-1.7-0.1-3.3-1.9-4.1c-0.3-0.1-1-0.4-0.8,0.5c0.1,0.3,0.4,0.5,0.7,0.8c-0.3,0.3-0.7,0.5-1,0.7c-2.8,0.3-3.7,1.9-3.6,4.6
			c0.2,3.7,0.1,7.4,0,11.1c-0.1,2.2-0.7,3.8-3.3,3.8c-2.3,0-3.5-1.4-3.7-3.6c-0.3-3.8-0.1-7.6-0.2-11.5c0-1.2,0.4-2.7-1-3.5
			c-1.4,1-1,2.3-1,3.6c-0.1,3.1,0,6.3-0.1,9.3c0,1.6,0.2,3.1-1.3,4.3c-1.7,0.2-3.4,0.3-4.9-0.7c-1.5-2.2-0.8-4.6-1-6.9
			c-0.2-2.6,0.2-5.3-0.2-7.9c-0.1-0.9-0.3-1.7-1.5-1.7c-1,0.1-1,0.9-1.2,1.6c-0.3,1.4,0.1,3-1.3,4c-2.7,1.3-4.9-0.9-7.6-0.9
			c-18.3,0.3-36.7,0.2-55.1,0.2c-3.1,0-6.5,0.5-6.4-4.3c0-0.2-0.3-1.4-1.4-1.4c0,7.3,0,14.7,0,22c0,1.2,0.6,2.8-1.5,3.1
			c-0.6-0.6-1.2-1.1-1.4-2c-0.7-4.8-0.2-9.6-0.3-14.3c-0.1-1.6,0.1-3.1,0-4.7c-0.1-1.1,0.3-3-1-3c-1.8,0-1,2-1.1,3.2
			c-0.1,3.1,0,6.3-0.1,9.4c-0.1,1.6,0,3.2-1.6,4.2c-1.5,0.5-2.9,0.5-4.3-0.1c-1.3-1-1.5-2.3-1.4-3.8c0.3-3.5,0.1-6.9-0.3-10.3
			c-0.1-1,0.4-2.6-1-2.6c-1.7,0-1.3,1.7-1.4,2.8c-0.1,3.6,0,7.1-0.1,10.8c0,1.5,0.3,3.1-1.1,4.3c-5.2-1.2-5.1-1.5-4.9-6.7
			c0.2-3.8,1.3-7.7-0.8-11.5C623.6,573.7,622,574.6,620.7,574z"/>
		<path style="fill:#D90000;" d="M555.4,389.1c-39.3,38.6-45.1,81.6-17.6,129c-16.9-2.7-36.6-42-33.5-67.1
			c2.5-20.6,11.4-37.5,27.6-50.6C539.9,394.1,551.3,388.7,555.4,389.1z"/>
		<path style="fill:#D90000;" d="M657.9,519.5c28.6-39,24.9-96.9-17.5-131.2c20.2,1,46.6,28.9,51.6,54.1
			C699,478,679.7,507.7,657.9,519.5z"/>
		<path style="fill:#D90101;" d="M574.8,366.5c5.3,11.6,15.8,13.2,24,3.8c3.4,4.3,7.6,6.8,13.2,5.9c5.6-0.9,8.9-4.3,10.6-9.6
			c2.3,5.6,0.3,12-4.8,15.5c-5.9,4.2-12.2,3.1-19-3c-6.3,5.9-12.2,6.9-18.1,3.4C575.1,379.3,572.9,373.7,574.8,366.5z"/>
		<path style="fill:#DA0100;" d="M403.7,579.6c4.7,0.1,9.4,0.1,14,0.2c1,0,2,0.2,2.9,0c1.7-0.4,4,2.3,4.7,0.3c0.8-2.3,1-5.2-0.7-7.6
			c-0.4-0.6-1.5-1.1-0.5-2.1c0.3-0.3,0.9-0.5,1.3-0.4c1.1,0.3,0.9,1.3,1,2.1c0.3,3-0.5,6.2,0.5,9.2c0.4,0.3,0.4,0.6,0.1,1
			c-5.5,1.6-11.1,0.6-16.7,0.6c-2.2,0-3.4-0.1-2.9,2.6c0.3,1.5-0.4,2.6-2.1,2.7c-1.6,0.1-2-1.1-1.9-2.4c0.2-2.7-1.4-3.1-3.6-3
			c-3.2,0.1-6.4,0.1-9.6,0c-1.9,0-2.9,1-3,2.8c-0.1,1.7-0.1,3.3,2.3,3.5c1.3,0.1,3,0.3,2.3,2.5c-0.8,0.6-1.8,0.5-2.7,0.5
			c-5,0.2-5.2,0-5.2-5c0-4.4-0.1-4.5-4.6-4.3c-1.6,0.1-3.3,0.9-4.7-0.7c-0.6-2.8,0.2-3.8,3.2-3.7c6.3,0.3,12.7,0.2,19,0
			C399.1,578.1,401.3,579.2,403.7,579.6z"/>
		<path style="fill:#259E42;" d="M810,319.8c0.6,0.3,0.7,0.9,0.8,1.5c0.5,1.7,0.5,3.3,0,5c-0.3,0.3-0.5,0.5-0.8,0.8
			c-6.1,0.8-12.2,0.1-18.2,0.3c-2.3,0.1-4.5-0.3-6.8,0.3l-0.3,0.2c-1.9-2.3,0.3-1.6,1.2-1.6c6.9-0.1,13.9,0,20.8,0
			c1.7,0,3.3,0.4,3.4-2.3c0.1-2.9-1.7-2.6-3.5-2.6c-18.7,0-37.4,0-56,0c-1.2,0-3-0.7-3.3,1.2c-0.4,2-0.4,3.8,2.7,3.7
			c6.3-0.2,12.4-0.1,18.7,0c1,0,2.4-0.8,3.1,0.8c-6.3,0.8-12.6,0.2-18.9,0.3c-1.4,0.1-2.8-0.1-3.6,0c6.9,0.3,14.5-0.5,22,0.4
			c-0.3,1,0.2,1.9,0.5,2.9c-5.5,0.8-10.9,0.1-16.4,0.3c-2.7,0.1-5.5-0.3-8.2,0.3c-0.4,0.3-0.8,0.3-1.2,0.1c-1.3-2.7-0.4-9,1.5-10.9
			c1.2-0.6,2.6-0.3,3.9-0.3c18.3,0,36.6,0,54.9,0C807.4,320.1,808.8,320.5,810,319.8z"/>
		<path style="fill:#239E41;" d="M374.3,330.6c-1.1-4.1-0.9-4.5,2.9-4.5c10.2,0,20.2,0,30.4,0c0.3,0,0.6,0.2,1,0.3
			c-0.1,0.2-0.2,0.3-0.2,0.5c-8.9,0.7-17.9,0.2-26.8,0.3c-1.9,0-3.9,0.3-5.7-0.2c0.3,0.8,1.3,0.2,1.9,0.2c8.9,0.1,17.9,0,26.8,0.1
			c1.1,0,2.4-0.3,3.5,0.3c-1.2,2-2.3,4.2-4.2,5.7c-1-2.2-2.7-2.8-5-2.6c-3.6,0.3-7.1-0.2-10.7,0.2c-1.3,1.6-1.2,3.1-0.2,4.8
			c0.3,0.2,0.7,0.3,1,0.4c2.7,0.6,5.6-1,8.1,1.1c0.6,2.3-0.4,3-2.6,3c-3.2-0.1-6.4,0-9.6-0.1c-1.6-1-1-2.5-1.1-3.9
			c-0.2-1.7,0.4-3.6-0.5-5.2c-2.7-1.8-5.6-1.1-8.4-0.7C374.7,330.5,374.5,330.5,374.3,330.6z"/>
		<path style="fill:#D90101;" d="M391.7,591.2c-0.2-1.6-1.4-1.5-2.4-1.4c-2.3,0.3-3.5-0.4-3.4-3.1c0.1-2.5,0.6-4.6,3.6-4.8
			c3.8-0.2,7.6,0,11.5-0.1c2.5,0,2.9,1.6,3,3.6c0.1,0.9-0.2,2.2,1.3,2.1c1.5-0.2,1.5-1.1,1.1-2.4c-0.3-1-0.3-2.2-0.2-3.2
			c0-0.9,0.4-1.4,1.4-1c4.1,2,8.5,0.5,12.7,1c2.2,0.2,4.3,0,6.4,0c0.3,2.7-1.9,2.3-3.4,2.4c-3.6,0.3-7.4,0.2-11.1,0.1
			c-2.6-0.1-3.6,1-3.6,3.6c-0.1,3,1,6.3-1.2,9c-1.7,0.7-3.3,1.4-5,2.2c-0.4-0.3-0.8-0.6-0.6-1.2c1.6-4.4,0.4-8.9,0.7-13.5
			c0.1-1.3-1-1.4-2.1-1.4c-3.4,0-6.7,0.1-10.1,0c-2-0.1-2.3,0.9-2.4,2.6c0,1.7,0.6,2.3,2.3,2.3c2.3,0.1,4.8-0.7,7,0.4
			c-0.2,2.6-2.8,2.2-4.2,3.2C392.5,591.7,392.1,591.6,391.7,591.2z"/>
		<path style="fill:#269F43;" d="M796.9,347.2c-1.3-1.8,0.1-1.7,1.2-1.7c3.1,0,6.3-0.1,9.4,0c1.7,0,2.7-0.2,2.7-2.3
			c0-2-0.6-2.9-2.7-2.6c-1.4,0.2-2.9-0.1-4.3,0c-1.8,0.1-2.6-0.4-2.6-2.4c0-1.8,0.7-2.6,2.5-2.5c1.2,0.1,2.4,0,3.6,0
			c2.6,0.1,5.7-1,7.6,0.5c2,1.6,0.7,4.7,0.7,7.1c0,2.3,1.4,2.1,2.9,2.1c1.7,0,3-0.2,2.9,2.3c-0.2,2.1-0.5,3.3-3,3.2
			c-6.1-0.2-12.2,0-18.3-0.1c-0.8,0-2,0.5-2.3-1c7.5-0.8,15,0,21.4-0.3c-5.2,0-11.6,0-17.8,0c-1.1,0-2.4,0.3-3.5-0.3
			C797.1,348.6,797,347.9,796.9,347.2c3.8-1,7.6-0.2,11.5-0.5C804.6,347.1,800.6,346.1,796.9,347.2z"/>
		<path style="fill:#D90404;" d="M396.5,573.3c-7.2,0-13.6,0-19.8,0c-1.6,0-2.3-0.5-1.9-2.1c0.3-1.3-0.7-3.4,2-3.4
			c5,0,10.1-0.1,15,0.1C394.8,568,394.5,571.1,396.5,573.3z"/>
		<path style="fill:#329B4B;" d="M339.8,320.5c5-0.8,5-0.8,5,4.4c0,4.1,0,8.2,0,12.2c0,1.3-0.3,2.8,1.8,2.8c2.1-0.1,1.7-1.6,1.7-2.9
			c0-4.3,0.1-8.6,0-12.9c-0.1-2.4,0.4-4,3.1-4.1c2.8-0.1,4.2,1.2,4.2,4.2c-0.1,6.9,0,13.9,0,20.8c-0.3,1-1,1.8-2,2.2
			c-5.8,0.7-11.7,0-17.5,0.4c-0.5,0.3-1,0.6-1,1.2c0.1,0.5,0.5,0.9,0.7,1.4c0,0.3-0.1,0.5-0.3,0.7c-3.3,0.5-1.7-2.1-2-3.3
			c-0.3-1.7,0.8-2,2.2-1.9c5,0,10.1-0.1,15.1,0.1c2.6,0.1,3.6-0.5,3.6-3.4c-0.2-6-0.1-12-0.1-18c0-1.7-0.1-3-2.4-3
			c-2.3,0-2.4,1.2-2.4,3c0.1,4.5,0,9.1,0.1,13.6c0,1.8-0.3,2.9-2.5,3c-2.2,0-2.6-1-2.6-2.8c0.1-4.1-0.2-8.2,0.1-12.2
			c0.3-3.6-0.6-5.3-4.4-4.4c-0.3-0.2-0.3-0.3-0.3-0.5C339.7,320.6,339.7,320.5,339.8,320.5z"/>
		<path style="fill:#259E41;" d="M334.2,349.4c0-0.8,0-1.6,0-2.3c5.4-0.7,10.9-0.1,16.2-0.3c1.3-0.1,2.6,0.3,3.8-0.3
			c0.5-0.5,1-1,1.5-1.5c2.2,1,0.6,4.1,2.9,5c1.2-1,2.4-1,3.6,0c-1.5,1.4-4.5,1.2-3.9,4.5c0.1,0.6-1,0.7-1.8,0.7
			c-1,0-1.8-0.4-1.7-1.4c0.4-3.4-2-2.8-3.9-2.8c-5.1-0.1-10.3-0.1-15.3-0.2c0-0.3,0-0.5,0-0.8c6.2-0.8,12.3-0.1,18.5-0.1
			c0.4,0.5-0.4,0.3-0.1,0.1C347.4,349,340.8,350.3,334.2,349.4z"/>
		<path style="fill:#3DA655;" d="M648.8,354.4c-0.6-3,0.9-3.8,3.7-3.8c5.5-0.1,10.9,0.9,16.4-0.5c0.3-0.3,0.4-0.3,0.7,0
			c1,1,2.3,0.6,3.4,0.6c6.3,0,12.4,0,18.7,0c1.6,0,3.3-0.3,3.2,2.2c0,0.8,0.3,1.4,1.2,1.4c1.1,0.1,1.5-0.6,1.5-1.6
			c0-1.9,1.2-2,2.7-2c13.4,0,26.8,0.1,40.1,0c3.1,0,2.8,1.8,2.5,3.8c-0.2-2.6-1.5-3.3-4.1-3.3c-12.3,0.2-24.8,0.1-37.1,0.1
			c-1.7,0-3.8-0.4-3.5,2.5c0.1,1.2-0.9,1.6-1.9,1.6c-1.2,0-2.3-0.3-2.2-1.7c0.2-2.3-1.1-2.4-3-2.4c-12.9,0-25.7,0.1-38.5-0.1
			c-2.8,0-3.1,1.3-3.2,3.4C649.2,354.7,649,354.7,648.8,354.4z"/>
		<path style="fill:#B30201;" d="M354.3,573.7c1.7-0.5,1.4,0.8,1.4,1.6c0,6.9,0,13.6,0,20.5c0,2.3-1,3.4-3.6,3.4
			c-6.5-0.1-12.9,0-19.5,0c-0.2-2.1,1.5-1.4,2.5-1.5c5.1-0.1,10.3-0.2,15.4,0c2.8,0.1,3.8-0.8,3.7-3.6
			C354.1,587.2,354.2,580.5,354.3,573.7z"/>
		<path style="fill:#37A050;" d="M746.6,331.2c1-1,2.3-0.7,3.4-0.7c7.3,0,14.5,0,21.8,0c2.1,3.1,4.2,6.3,6.6,10
			c-1.6,0.1-2.7,0.1-3.8,0.3c-2.5,0.3-3.3-0.7-3.3-3.2c0-6.4-0.1-6.4-6.7-6.4c-4.8,0-9.6,0.1-14.3-0.1c-2.3-0.1-3.1,0.8-3,3.1
			c0.3,3.8-0.3,7.6,0.3,11.5c-0.3,0.4-0.5,0.4-0.9,0.2v-0.1C746,340.9,746.2,336,746.6,331.2z"/>
		<path style="fill:#229E40;" d="M861.7,341.4c-1.2,1.7-0.4,3.6-0.6,5.5c-0.1,1.4-0.9,1.7-2.1,1.7c-1.7,0.3-0.1-1.3-0.9-1.5
			c-0.3-0.3-0.3-0.6-0.2-1c1.3-1.9,0.3-4.3,1.6-6.7c-1.7,1.7-3.8,0.4-5,1.6c-1.3,1.3-0.4,3.4-0.3,5.1c0,0.3-0.2,0.6-0.3,0.9
			c-4-0.9-1.1-4.5-2.9-6.9c0,1.7,0,3.1,0,4.8c-0.4-0.3-0.7-0.4-0.7-0.6c-0.4-7.5-0.4-7.5,7.1-7.5c1.4,0,2.9,0,4.3,0
			C861.8,338.5,861.8,339.9,861.7,341.4z"/>
		<path style="fill:#298B41;" d="M374.5,319.8c13.1,0,26.2,0,39.4,0c-0.6,1.6-2,1.5-3.3,1.5c-11.2,0-22.4,0-33.6,0
			C376,321.2,374.3,321.9,374.5,319.8z"/>
		<path style="fill:#77AB84;" d="M815.1,329.7c-1.4-2.4-0.8-5-0.5-7.6c0.2-2.2,3.2-2.3,6.3-0.3c1.3,6.3,0.7,12.4,0.3,19
			c-2.1-1.3-1.6-2.8-1.6-4c-0.1-4.3-0.1-8.6,0-12.9c0-1.6-0.3-2.5-2.2-2.5c-1.9,0-2.2,1-2.1,2.5
			C815.2,325.9,815.2,327.8,815.1,329.7z"/>
		<path style="fill:#7BCC90;" d="M833.1,320.5c0.3,0.2,0.6,0.5,1,0.5c5.5,0,5.5,0,5.5,5.4c0,5.3,0,10.5,0,15.8
			c0,1.3,0.4,2.7-0.7,3.7c-0.3,0.2-0.7,0-0.9-0.3c0.9-0.6,0.9-1.6,0.9-2.6c0-6.3,0-12.4,0-18.7c0-1.2,0.4-2.8-1.8-2.7
			c-1.8,0.1-2.4,0.9-2.3,2.7c0.1,4.3,0.1,8.6,0,12.9c0,1,0.5,2.3-1.6,3.6C833.1,333.8,833.1,327.1,833.1,320.5z"/>
		<path style="fill:#2BA448;" d="M339.8,320.5c0,0.3,0.1,0.5,0.1,0.9c-0.1,5.4-0.2,10.8-0.2,16.2c0,1.8-0.1,3.3-2.6,3.3
			c-2.7,0-2.4-1.7-2.4-3.4c0-4.1-0.1-8.2,0.1-12.2c0.1-2.1-0.3-3.6-2.2-4.7c2.2-0.3,3,0.6,3,2.8c-0.2,4.3-0.1,8.6,0,12.9
			c0,1.2-0.9,3.4,1.3,3.5c2.5,0,1.4-2.3,1.5-3.6c0.2-4.1,0.1-8.2,0.1-12.2C338.4,322.5,338.3,321.2,339.8,320.5z"/>
		<path style="fill:#38A953;" d="M432.2,339.1c-0.1,0.3-0.2,0.5-0.3,0.8c-1-5.2-0.2-10.4-0.4-15.6c-0.1-1.6,0.3-3.1-2.3-3
			c-2.3,0.1-2.5,1.3-2.3,3c0.1,0.6,0,1.2,0,1.8c0,5.1,0,5.1-5.6,4.9c1.3-4,6.3-6.3,5-11.2c0.1,0.1,0.3,0.1,0.3,0.2
			c1.5,1.4,4.4-0.9,5.2,1.8c0.5,1.7,0.2,3.7,0.2,5.6c0.1,3.6,0.1,7.4,0.2,11C432.3,338.7,432.4,339,432.2,339.1z"/>
		<path style="fill:#B40001;" d="M391.7,591.2c0.5,0,1,0,1.5,0c1.6-0.5,3.3-1.7,3.6,1.3c-3.8,0.7-7.6,0.1-11.4,0.3
			c-1.6,0.1-2-0.8-2.1-2.3c-0.2-2.3,1.1-5.3-0.6-6.9c-1.7-1.6-4.6-0.4-6.9-0.6c-0.9-0.1-1.4-0.3-1.2-1.2c2.3,1,4.4-0.1,6.7-0.1
			c2.4,0,3.6,0.9,3.4,3.4c-0.1,0.6,0.1,1.2,0,1.8c-0.6,3.5,1,4.8,4.3,4.3C389.8,591.1,390.7,591.2,391.7,591.2z"/>
		<path style="fill:#35A651;" d="M387.3,331.3c4.9-1.7,9.8-0.5,14.8-0.7c1.4,0,1.2,1.8,1.8,2.8c-0.1,0.7-0.1,1.5-1.4,1.7
			c1.1-4.5-1.8-4.1-4.6-4c-2.3,0.1-4.8,0.1-7.2,0c-1.7-0.1-2.7,0.2-2.7,2.3c0,1.9,0.7,2.6,2.5,2.4c1.6-0.1,3.1,0,4.7,0
			c1.7-0.1,2.8,0.3,2.8,2.3s-0.8,2.9-2.8,2.7c-3.8-0.4-7.7,0.9-11.5-0.8c0.3-0.3,0.5-0.3,0.8-0.1c3.1,0,6.3-0.1,9.5,0.1
			c2.3,0.1,3-0.9,2.7-2.9c-2.8-1-5.8,0.3-8.6-0.7c-0.3,0-0.5,0-0.8-0.1C386.8,334.6,386.9,333,387.3,331.3z"/>
		<path style="fill:#B80303;" d="M776.9,583c2.7-2.2,5.8-0.6,8.7-1.1c1.6,0,3.1-0.1,4.7-0.1c0.7,0.3,1.4,0.7,1.5,1.4
			c0.4,4.6,0.3,9.2,0,13.9c0,0-0.6,0-0.9,0c-1.5-0.7-1.3-2.2-1.4-3.4c-0.2-1.9-0.1-3.8-0.1-5.7c0.1-2.4-1-3.5-3.4-3.4
			c-1.9,0.1-3.8,0.1-5.7-0.1C779,584.3,777.6,584.5,776.9,583z"/>
		<path style="fill:#27A043;" d="M597.5,354.3c3.9,0.8,2.3-3,3.7-4.3c1.1-0.6,2.3-0.3,3.5-0.3c12.5,0,25.1,0,37.6,0
			c1.1,0,2.4-0.3,3.5,0.3c0,0.3,0,0.5,0,0.8c-1.5,0.7-3,0.3-4.6,0.3c-12.1,0-24.1,0-36.1,0c-1.3,0-2.6-0.3-3.9,0.3
			C600.9,355.7,600.6,355.9,597.5,354.3z"/>
		<path style="fill:#3DA655;" d="M743,354.4c1-0.3,2.7,0.3,2.7-1c0.2-3.6,2.6-2.8,4.6-2.8c10,0,20.1,0,30.1,0c1.3,0,2.6,0.4,3.7-0.6
			c0.3,2.4-1.6,1-2.3,1c-10.6,0.1-21.3,0.1-31.9,0.1c-1.8,0-3.4-0.3-3.5,2.6C746.4,356.1,744.4,355.7,743,354.4z"/>
		<path style="fill:#B30201;" d="M401.8,597.9c0.2,0.4,0.4,0.8,0.6,1.2c-7,0-14.1,0-21.1-0.1c-0.6,0-2.5,1.1-2-1.2
			C386.9,597.5,394.4,597.5,401.8,597.9z"/>
		<path style="fill:#85AD8E;" d="M601.2,351.3c0.6-0.9,1.5-0.7,2.3-0.7c14.2,0,28.2,0.1,42.4,0.1c0,0.3-0.1,0.5-0.1,0.8
			C630.9,351.5,616.1,351.4,601.2,351.3z"/>
		<path style="fill:#36A651;" d="M844.7,345.6c-1.9,0-1.6-1.5-1.6-2.6c0-3.2,0.1-6.4-0.1-9.6c-0.1-2.3,0.8-2.9,3-2.9
			c5.2,0.1,10.5,0.1,15.7,0.1c-3.6,1.1-7.3,0.4-10.9,0.5c-6.6,0.2-6.7,0.1-6.5,6.8C844.4,340.4,843.6,343.1,844.7,345.6z"/>
		<path style="fill:#268C3E;" d="M408.1,327.7c-10.9,0-21.9,0-32.9,0c0-0.3,0-0.4,0-0.7c11,0,22.2,0,33.2,0
			C408.3,327.2,408.2,327.4,408.1,327.7z"/>
		<path style="fill:#30A34B;" d="M794.8,331.3c1-1.3,2.4-0.8,3.6-0.8c5.4,0,10.8,0.1,16.2,0.1c-5.4,0.9-10.8,0.3-16.1,0.3
			c-2.3,0-3.2,0.6-3,3c0.2,2.9,0.1,5.7,0,8.6c0,0.4,0.3,1.3-0.7,1c-0.3-0.1-0.3-0.5-0.5-0.9C795,339,794,335.2,794.8,331.3z"/>
		<path style="fill:#F55554;" d="M833.9,573.3c0.4,0,1,0,1.4,0c-1.4,4.2-0.3,8.5-0.6,12.7c-0.2,2.1,0,4.1-0.4,6.2
			c-1.1-3.9-1.2-7.9-1-11.9C834,578,832.7,575.5,833.9,573.3z"/>
		<path style="fill:#B20201;" d="M809.3,597.9c0.2,0.6,0.3,1.2-0.6,1.2c-3.8,0-7.6,0-11.5,0c-1,0-1.6-0.5-1.6-1.5
			C800.2,597.7,804.8,597.8,809.3,597.9z"/>
		<path style="fill:#B50504;" d="M334.3,573.2c1.7,0.4,1.3,1.8,1.3,3c0,3.4,0.2,6.7,0,10.1c-0.2,3,0.1,5.3,3.6,5.8
			c-3.6,1.6-4.3,1.1-4.4-2.5C334.5,584,335.4,578.5,334.3,573.2z"/>
		<path style="fill:#2D9C48;" d="M384.6,339.8c-0.3,0-0.5,0.1-0.8,0.1c-1-2-0.4-4.2-0.4-6.3c0-2-0.6-2.8-2.6-2.7
			c-2.1,0-4.3,0.4-6.3-0.3l0.2-0.3c2.8-0.8,5.6-0.9,8.4,0.1c1.7,0.3,1.5,1.5,1.5,2.7C384.5,335.4,384.5,337.6,384.6,339.8z"/>
		<path style="fill:#AE6062;" d="M818.7,573.3c2.5-0.8,0.7-3,1.5-4.3c0.9,2.3,0.6,4.8,0.5,7.2c-0.9,4.1,0.3,8.3,0.1,12.3
			c-0.1,1.2,0.3,2.6-0.8,3.6c-1-5-0.2-10.1-0.5-15.2C819.4,575.7,819.9,574.3,818.7,573.3z"/>
		<path style="fill:#AA4043;" d="M820,592.2c0.1-4.2,0.1-8.3,0.2-12.6c0-1.1-0.3-2.4,0.5-3.5c0.3,4.8,0.6,9.5,0.8,14.2
			C821.5,591.1,822.4,593.1,820,592.2z"/>
		<path style="fill:#268C3F;" d="M771.2,327.7c-7.6,0-15.3,0-22.8,0c0-0.3,0-0.5,0-0.8c7.8,0,15.6,0,23.4,0
			C771.9,327.4,771.6,327.6,771.2,327.7z"/>
		<path style="fill:#139631;" d="M797.2,349.3c7.4,0,14.8,0,22.2,0c0,0.3,0,0.4,0,0.7c-7.4,0-14.8,0-22.2,0
			C797.2,349.7,797.2,349.6,797.2,349.3z"/>
		<path style="fill:#B60000;" d="M801.3,588.3c-0.3,2.6,1,3,3.3,3.1c1.5,0.1,3.8-1.7,4.7,1.2c-1.9,0.1-3.8,0.3-5.7,0.3
			C800.1,592.7,799.6,591.7,801.3,588.3z"/>
		<path style="fill:#278B3E;" d="M862,327.7c-5.6,0-11,0-16.6,0c0-0.3,0-0.5,0-0.8c5.6,0,11.4,0,17,0
			C862.6,327.4,862.3,327.6,862,327.7z"/>
		<path style="fill:#32A64F;" d="M786.8,330.6c5.2-0.2,5.2-0.2,5.1,4.9c0,1-0.1,2.1-0.1,3.2c-1-0.9-1.4-2.1-1.1-3.2
			C791.3,332.2,790,330.7,786.8,330.6z"/>
		<path style="fill:#259E42;" d="M746.7,345.7c0.3-0.1,0.6-0.1,0.9-0.2c3.8,0.8,4.7-1,4.3-4.5c-0.2-1.6-0.7-3.3,0.5-4.8
			c-0.3,3.4,0.9,6.9-0.7,10.1c-1.4,0.5-2.9,0.5-4.3,0C747.1,346.2,746.9,345.9,746.7,345.7z"/>
		<path style="fill:#DA0100;" d="M396.7,592.4c-0.6-2.1-2.3-1-3.6-1.3c0.7-1.9,3.4-1,4.2-2.8C398,589.8,398.7,591.4,396.7,592.4z"/>
		<path style="fill:#EA7373;" d="M560.2,536.6c-3.5,1.7-7.3-0.3-10.8,1.2c-0.5,0-1,0.1-1.1-0.5c-0.1-0.9,0.7-0.8,1.2-0.8
			C553.2,536.5,556.6,536.6,560.2,536.6z"/>
		<path style="fill:#109730;" d="M794.8,331.3c-0.3,3.8,0.7,7.6-0.5,11.4c-0.2-0.2-0.3-0.3-0.2-0.5
			C794.6,338.6,793.4,334.9,794.8,331.3z"/>
		<path style="fill:#B60101;" d="M838.9,597.7c-0.7,1.7-1.8,1.8-5,0.7C835.2,596.9,837.1,597.9,838.9,597.7z"/>
		<path style="fill:#B20201;" d="M820.9,599.1c-1.7-0.5-3.9,1.1-5.1-1.3C817.5,598.2,819.8,596.2,820.9,599.1z"/>
		<path style="fill:#85AD8E;" d="M648.8,354.4c0.3,0,0.5,0.1,0.7,0.1c-0.6,1.8-2.2,1.5-3.1,0.9c-1.5-0.9-1.1-2.4-0.6-3.8
			C647.3,351.8,645.2,356.2,648.8,354.4z"/>
		<path style="fill:#259E41;" d="M358.6,349.3c0.3-0.7,0.5-1.5,0.7-2.2c1-0.9,1.9-0.7,2.9,0c0,0.7,0.1,1.5,0.1,2.2
			C360.9,349.8,359.8,349.8,358.6,349.3z"/>
		<path style="fill:#E00E0E;" d="M833.9,573.3c-0.5,2.3,0.5,4.8-0.7,7c-0.1-2.3-0.1-4.8-0.2-7.1
			C833.3,573.3,833.7,573.3,833.9,573.3z"/>
		<path style="fill:#B30000;" d="M344.9,592.3c1.2-1.6,2.4-1.7,3.6,0.1C347.3,592.9,346.1,593.1,344.9,592.3z"/>
		<path style="fill:#129631;" d="M838.8,346.4c-1.7,1.6-3.8,0.3-5.7,0.7c0-0.3,0-0.4,0-0.7C835,345.8,836.9,345.8,838.8,346.4z"/>
		<path style="fill:#139632;" d="M833,349.3c1.9,0,3.7,0,5.6,0c0,0.3,0,0.5,0,0.7c-1.9,0-3.8,0-5.6,0C833,349.7,833,349.5,833,349.3
			z"/>
		<path style="fill:#3DA956;" d="M838.8,346.4c-1.9,0-3.8,0-5.6,0c1.3-1.8,3.2-0.5,4.9-0.9c0.3,0.1,0.6,0.2,0.9,0.3
			C838.9,346,838.8,346.2,838.8,346.4z"/>
		<path style="fill:#B70101;" d="M361.4,598.4c-0.6,0.8-1.4,0.9-2.2,0.5c-0.5-0.3-0.1-0.8,0-1.2
			C360.1,597.8,361.1,597.2,361.4,598.4z"/>
		<path style="fill:#C22D28;" d="M405.9,565.4c-0.7-0.5-1.3-1.3-0.5-1.9c0.6-0.5,1.6-0.2,1.5,1C406.8,565,406.4,565.3,405.9,565.4z"
			/>
		<path style="fill:#119731;" d="M374.4,340.6c1,1.4,1,2.9,0.1,4.3C374.5,343.5,374.5,342.1,374.4,340.6z"/>
		<path style="fill:#139632;" d="M358.6,349.3c1.2,0,2.4,0,3.6,0c0,0.3,0,0.5,0,0.7c-1.2,0-2.4,0-3.6,0
			C358.6,349.7,358.6,349.5,358.6,349.3z"/>
		<path style="fill:#E9120C;" d="M405.9,565.4c0.3-0.3,0.6-0.6,1-0.9c0.4,0.7,0.5,1.5-0.2,1.8C406.2,566.6,406.1,565.9,405.9,565.4z
			"/>
		<path style="fill:#A8CFB4;" d="M794.5,355.1c-0.2,0.8-0.7,0.7-1.1,0.6c-0.3,0-0.5-0.3-0.8-0.4c0.3-0.3,0.7-0.6,1.1-0.7
			C794,354.6,794.2,355,794.5,355.1z"/>
		<path style="fill:#259E41;" d="M358.6,346.4c0-0.3,0.1-0.7,0.1-1c1,0.5,2.7-0.6,3.4,1C360.9,347,359.7,347,358.6,346.4z"/>
		<path style="fill:#11992F;" d="M358.6,346.4c1.1,0,2.3,0,3.5,0c0,0.3,0,0.4,0,0.7c-1,0-1.9,0-2.9,0
			C359,346.9,358.8,346.6,358.6,346.4z"/>
		<path style="fill:#FAFCFB;" d="M717.2,330.6c1.7-2,0.5-4.3,0.7-6.4c0.2-1.7,0.1-3,2.4-3s2.4,1.1,2.4,3c-0.1,4.4-0.1,8.9,0,13.2
			c0,3.7,0.5,4.1,4.5,2.7c0.8-5.4,0.3-10.8,0.3-16.2c0-1.9,0.3-3.3,2.5-3.3c2.2-0.1,3,1.1,3.1,3.1c0.2,3.8,0,7.6,0.1,11.6
			c0,1,0,2.2,0.1,3.2c0.2,1,0.5,1.9,1.7,1.9c1.3-0.1,1.4-1.1,1.4-2.1c0.1-3.2,0-6.5,0-9.7c0-1.7,0-3.4,0-5c0-1.9,0.9-2.9,2.9-2.9
			s3.2,0.7,3.2,2.9c0,6.7,0,13.5,0,20.2c0,1.9-1,2.9-2.9,2.9c-6.5,0-12.9,0-19.5,0c-2.2,0-2.8-1.3-2.9-3.3c-0.3-6.8-0.3-6.8-7.3-6.8
			c-1.6,0-3.1-0.1-4.7,0.1c-1.5,0.1-1.6,1.2-1.7,2.3c-0.1,1.4,0.8,1.6,1.8,1.6c1.8,0,3.6,0.1,5.4,0c2.2-0.1,2.6,1.3,2.7,3
			s-0.8,2.9-2.4,3c-3.7,0.3-7.5,0.3-11.1,0c-1.7-0.1-2.5-1.3-2.6-3c-0.1-3.4-0.1-6.7,0-10.1c0-1.9,1.2-2.9,3-2.9
			C706.2,330.4,711.7,329.9,717.2,330.6z"/>
		<path style="fill:#FBFCFB;" d="M620.5,330.5c0.6-2.8,0.3-5.6,0.2-8.5c1.1-2,3-1.4,4.4-1c1.6,0.4,1.2,2.2,1.2,3.4
			c0,4.3,0.1,8.6,0,12.9c0,1.4-0.1,2.8,1.7,2.9c2.2,0.1,2-1.4,1.9-3c-0.1-4.3,0-8.6-0.1-12.9c0-2.2,0.3-3.6,3.1-3.6
			c2.8,0.1,2.3,1.7,2.3,3.4c0.2,5.2-0.4,10.5,0.3,15.7c3.7,1.6,4.6,1.1,4.6-2.4c0-4.5,0.1-9.1,0-13.6c0-1.8,0.5-2.6,2.4-2.6
			s2.4,0.9,2.4,2.6c-0.1,6.4-0.1,12.9,0,19.4c0,2-0.9,2.4-2.6,2.4c-6.4-0.1-12.9-0.1-19.4,0c-2.2,0-2.5-0.9-2.5-2.8
			c-0.1-7-0.2-7-7.2-6.9c-2.3,0-4.5-0.6-6.7,0.4c-0.6,4-0.6,4,3.3,4.1c1.3,0,2.6,0,3.9,0c1.9-0.1,2.4,1.1,2.7,2.7
			c0.2,1.7-0.4,3.2-2,3.2c-4.3,0.1-8.8,1-13.1-0.6c-1-4.3-0.3-8.5-0.4-12.9c0-1.8,1.4-1.9,2.8-1.9c4.3,0,8.6,0,12.9,0
			C618.1,330.9,619.4,331.2,620.5,330.5z"/>
		<path style="fill:#FBFCFB;" d="M523.5,330.5c1.2-2.3,0.3-4.7,0.5-6.9c0.1-1.7,0.5-2.4,2.3-2.4c1.8,0,2.7,0.5,2.6,2.4
			c-0.1,4.7,0,9.4-0.1,14.1c0,1.7,0.2,3,2.4,3c2.4,0.1,2.3-1.3,2.3-3c-0.1-4.7,0-9.4-0.1-14.1c0-1.8,0.6-2.6,2.5-2.5
			c1.8,0.1,2.6,0.7,2.6,2.5c-0.1,4.7,0,9.4-0.1,14.1c0,1.8,0.2,3,2.4,3c2.3,0,2.4-1.3,2.4-3c-0.1-4.4,0-8.9-0.1-13.3
			c0-1.9,0.2-3.2,2.6-3.2c2.6,0.1,2,1.9,2,3.3c0.1,6.1-0.1,12.2,0.1,18.3c0.1,2.3-0.8,2.9-3,2.8c-6.1-0.1-12.2-0.1-18.3,0
			c-2.2,0-2.9-0.6-2.9-2.9c0-6.9-0.2-6.9-7-6.9c-1.5,0-2.9,0.1-4.3,0c-1.9-0.1-3.2,0.1-3.2,2.6c0,2.4,1.4,2.3,3,2.3
			c1.3-0.1,2.7,0.1,4,0c2.1-0.3,2.6,0.7,2.7,2.7c0.1,2.2-1,2.3-2.7,2.3c-3.8,0-7.6,0-11.6,0.1c-1.1-4.3-0.3-8.8-0.4-13.1
			c-0.1-1.9,1.4-1.6,2.6-1.6c4.3,0,8.6,0,12.9,0C521.1,330.9,522.3,331.2,523.5,330.5z"/>
		<path style="fill:#FEFEFE;" d="M661.1,239.4c0.8,0.2,1.8,0.3,2.9,0.7c7.2,2.3,14.2,4.8,21.2,7.7c4,1.7,5.6,4.9,4.2,8.3
			c-1.4,3.4-4.8,4.7-8.7,3.1c-7-3-14.3-5.4-21.5-7.8c-3.3-1-4.9-3.9-4.2-6.9C655.6,241.4,657.9,239.4,661.1,239.4z"/>
		<path style="fill:#FEFEFE;" d="M474.2,278.5c-3-0.3-5-1.7-5.9-4.3c-0.8-2.5-0.2-5,1.9-6.4c7.2-5,14.8-9.4,22.6-13.1
			c2.8-1.3,6-0.1,7.5,2.4c1.7,2.8,1.1,6.3-1.7,8c-7.4,4.4-14.9,8.7-22.3,12.9C475.7,278.3,474.7,278.3,474.2,278.5z"/>
		<path style="fill:#FEFEFE;" d="M540,236.9c3.6,0.3,5.7,1.7,6.4,4.9c0.6,3-0.3,5.8-3.4,6.8c-8.2,2.6-16.4,5.1-24.6,7.8
			c-2.9,1-5.4-0.7-6.7-3.6c-1.3-3-0.5-5.9,2.2-7.2C522.4,241.4,531.5,239.2,540,236.9z"/>
		<path style="fill:#FEFEFE;" d="M732.3,277.6c0,4.4-4.8,7.6-8.6,5.5c-7.4-4.3-14.7-9-21.8-13.8c-2.5-1.7-3-5.2-1.5-7.7
			c1.5-2.6,4.7-3.9,7.5-2.5c7.9,4.1,15.3,8.9,22.4,14.2C731.7,274.2,732.3,275.7,732.3,277.6z"/>
		<path style="fill:#FEFEFE;" d="M745,286.7c2.1,0,3.6,0.9,5,2.2c5.7,5.2,11.3,10.7,16.5,16.4c2.8,3,2.7,6.9,0.1,9.2
			c-2.7,2.3-6.1,2.2-8.9-0.9c-5.2-5.6-10.6-11-16.3-16.2c-2.2-2-2.7-4.5-1.6-7.2C740.7,287.9,742.6,286.9,745,286.7z"/>
		<path style="fill:#FEFEFE;" d="M436.4,309.2c-2.3,0-4.2-1-5.2-3.1c-1.1-2.2-1.2-4.6,0.4-6.4c6-6.5,12.5-12.5,19.5-17.9
			c2.4-1.9,5.8-1.2,7.8,1c2.1,2.3,2.3,6-0.1,8.1c-6.3,5.6-12.7,11.3-18.8,17.2C439.2,309,437.8,309.3,436.4,309.2z"/>
		<path style="fill:#FEFEFE;" d="M613.4,230.6c8.3,0.7,16.3,1.7,24.1,3.1c4.1,0.8,6,3.5,5.5,7c-0.5,3.5-3.2,5.5-7.4,4.9
			c-7.8-1.1-15.6-2.3-23.5-3c-3.3-0.3-5.6-3.5-5.3-6.6C607.4,232.7,610.1,230.5,613.4,230.6z"/>
		<path style="fill:#FEFEFE;" d="M566.2,244.2c-4.7,0.1-7.2-1.7-7.6-5c-0.4-3.5,1.5-6.3,5.2-6.9c8.2-1.3,16.4-1.9,24.7-2.2
			c3.6-0.1,6.1,2.3,6.3,5.6c0.2,3.5-2,6.1-5.8,6.3C581,242.8,573.1,243.1,566.2,244.2z"/>
		<path style="fill:#F9FBFA;" d="M577.4,331.5c-0.1,2.8-0.3,5.6,0.2,8.4c4.1,0.8,8.3,0.5,12.3,0.3c2.9-0.2,2-2.2,0.6-3.6
			c-1.9-0.3-3.8-0.2-5.7-0.2c-2.2,0-2.9-1.2-2.9-3.2s1.3-2.2,3-2.2c3.4,0.1,6.7,0.1,10.1,0c1.9-0.1,2.5,0.6,2.4,2.5
			c-0.1,3.2-0.1,6.4,0,9.7c0,2.3-1,3.3-3.2,3.3c-6.3,0-12.4,0-18.7,0c-2.4,0-3.3-1.2-3.4-3.6c-0.2-6.2-0.3-6.2-6.5-6.3
			c-6.8,0-6.8,0-7.1,6.3c-0.2,3.2-1,3.7-4.8,3c-1.4-1.4-1-3.1-1-4.7c0.2-3.3-1.5-7.6,0.7-9.6c2.1-2,6.3-0.5,9.6-0.6
			c3.9-0.1,7.8-0.1,11.8,0C575.7,331,576.7,330.5,577.4,331.5z"/>
		<path style="fill:#FBFCFB;" d="M460.5,345.6c-1.3,0-2.6,0.1-3.9,0.1c-0.3-0.2-0.8-0.3-0.9-0.6c-0.2-4.7-1.1-9.4,0.3-14
			c7.2-0.1,14.4,0.1,21.6-0.1c2.4-0.1,3,0.8,3,3c-0.1,6.3,0.1,6.3,6.4,6.3c1.7,0,3.4-0.1,5,0c1.8,0.1,2.3-0.7,2.3-2.3
			c0-1.7-0.8-1.9-2.3-1.7c-1.4,0.2-2.9,0-4.3,0.1c-2.1,0.1-3-1-3.1-3c-0.1-2.3,1.3-2.4,3-2.4c3.4,0.1,6.7,0.1,10.1,0
			c1.7-0.1,2.3,0.6,2.3,2.3c-0.1,3.4-0.1,6.7,0,10.1c0,2.1-1,3.1-3,3.1c-6.3,0.1-12.7,0.1-19.1,0c-2.2,0-3.3-1.2-3.4-3.4
			c0-0.3,0-0.7,0-1c-0.2-6-0.5-6.3-6.7-5.8c-6,0.4-6,0.4-6.3,6.5C461.4,343.8,461.7,344.9,460.5,345.6z"/>
		<path style="fill:#FBFCFB;" d="M693.2,345.7c-6.8,0-13.6-0.1-20.4,0c-2.3,0-3.4-0.3-3.4-3.1c0.1-6.8,0-6.8-6.9-6.7
			c-0.1,0-0.3,0-0.3,0c-7,0-7.2,0-7.2,7c0,4.2-3,2.3-4.7,2.8c-1.9-4.3-0.7-8.9-0.7-13.4c0-1,0.9-1.3,1.8-1.3c7.2,0,14.4,0,21.5,0
			c1.7,0,1.8,1,1.9,2.3c0.2,2.3-1,5.1,0.6,6.5c1.7,1.5,4.6,0.3,6.9,0.5c1,0.1,2.2,0,3.2,0c1.5,0,2.7-0.2,2.9-2c0.2-2-1.4-1.8-2.7-2
			c-2.3-0.3-4.8,0.9-6.9-1c0-1.3,0-2.6-0.1-4c4.4-1.1,8.9-0.2,13.4-0.4c0.9-0.1,1.4,0.4,1.3,1.3
			C693.5,336.7,694.3,341.2,693.2,345.7z"/>
		<path style="fill:#EDF8F0;" d="M681.9,321.2c9.2,0,18.5,0,27.7,0c1.7,0,3.7-0.5,3.8,2.4c0.1,2.8-1.7,2.6-3.6,2.6
			c-18.8,0-37.7,0-56.5,0c-1.7,0-3.3,0.3-3.4-2.4c-0.1-2.9,1.7-2.6,3.5-2.6C662.9,321.2,672.3,321.2,681.9,321.2z"/>
		<path style="fill:#EDF8F0;" d="M487.5,326.2c-9.5,0-18.9,0-28.4,0c-1.9,0-3.2-0.2-3.2-2.6c0.1-2.3,1.3-2.4,3-2.4
			c19,0,38.1,0,57.2,0c1.8,0,3,0.2,3,2.4c0,2.5-1.3,2.6-3.1,2.6C506.5,326.1,497,326.2,487.5,326.2z"/>
		<path style="fill:#EDF8F0;" d="M553.7,321c18.3,0.1,36.7,0.1,55,0.2c1.6,0,3.1,0.1,4.7,0c1.8-0.1,3,0.4,2.9,2.6
			c0,2.3-1.3,2.4-3,2.4c-19,0-38.1-0.1-57.2,0.1c-4.3,0-2.8-2.8-3-4.9C553.2,320.9,553.3,320.8,553.7,321z"/>
		<path style="fill:#2D9F48;" d="M717.2,330.6c-5.1,0.9-10.3,0.3-15.4,0.3c-2.5,0-3.5,0.7-3.2,3.2c0.4,3.6-1.6,8.3,0.9,10.7
			c2.2,2.2,6.9,0.5,10.4,0.6c1.6,0.1,3.5,0.6,3.4-2.3c0-2.8-1.7-2.7-3.6-2.6c-1,0.1-2.2,0-3.2,0c-1.7,0.1-3,0-3-2.3
			c0-2.5,1.4-2.6,3.2-2.6c2.8,0.1,5.6,0.1,8.3,0c2.3-0.1,3.1,0.6,3.1,3c0,6.8,0.1,6.8,6.8,6.8c5,0,9.8-0.1,14.8,0
			c2,0,2.8-0.6,2.7-2.7c-0.1-6.3-0.1-12.5,0-18.7c0-1.8-0.3-3-2.4-3c-2.3-0.1-2.5,1-2.5,2.9c0.1,4.2,0.1,8.4,0,12.6
			c-0.1,1.6,1.2,4.1-2.3,4.1c-3.2,0-2.5-2.2-2.5-4c-0.1-3.7,0.1-7.5-0.1-11.1c-0.1-1.7,1.2-4.4-2.4-4.3c-3.4,0.1-2.1,2.6-2.2,4.2
			c-0.4,4.9,0.7,9.7-0.6,14.6c-0.1-6-0.1-12.1-0.2-18.1c-0.3-0.2-0.4-0.4-0.6-0.7c0.5-0.9,1.4-0.7,2.2-0.8c1.7-0.2,3.6-1.1,5,0.8
			l0,0c0.8,4.8,0.1,9.6,0.3,14.4c0.1,1.4-0.3,2.9,0.3,4.2c0.5,0,1,0,1.6,0c0.7-4.8,0.1-9.6,0.3-14.3c0.1-1.4-0.3-2.9,0.3-4.3
			c0-0.3,0-0.5,0-0.8c1.7-0.7,3.6-0.1,5.4-0.5c0.4,0.1,0.8,0.3,1,0.5c0,7.4,0,14.9,0,22.2c0,1.2,0.4,2.7-0.7,3.7
			c-8.2,0.6-16.3,0.5-24.4,0c-1.5-2.1-0.6-4.3-0.7-6.6c-0.1-1.8-0.4-3-2.6-2.9c-2.8,0.1-5.5,0.1-8.3,0c-1.1,0-1.7,0.2-1.8,1.5
			c-0.2,1.7,1,1.4,1.8,1.4c1.3,0,2.6-0.1,3.9,0c1.3,0.2,3.3-0.9,3.7,1c0.4,1.8,1.1,4.1-1.2,5.5c-4.8,0.5-9.6,0.5-14.3,0
			c-0.3-0.3-0.5-0.5-0.7-0.7c-0.5-4.8-0.5-9.6,0-14.3c0.3-0.3,0.5-0.5,0.8-0.8c6.2-1.1,12.3-1,18.5-0.1L717.2,330.6z"/>
		<path style="fill:#35A64F;" d="M460.5,345.6c0.1-2.5,0.2-5,0.2-7.6c0-1.7,0.6-2.3,2.3-2.3c3.2,0.1,6.5,0.2,9.7,0
			c2.1-0.1,2.6,0.8,2.7,2.8c0.2,7.1,0.3,7.1,7.5,7.1c4.7,0,9.4-0.1,14.1,0c2,0,2.9-0.5,2.8-2.7c-0.2-3.1-0.2-6.3,0-9.4
			c0.1-1.9-0.6-2.6-2.5-2.5c-3.2,0.1-6.5,0.1-9.7,0c-1.7,0-2.3,0.6-2.3,2.3c0.1,1.7,0.7,2.4,2.3,2.3c1.6-0.1,3.1,0,4.7,0
			c1.7-0.1,2.7,0.4,2.7,2.4c0,2.1-0.9,2.7-2.9,2.6c-3-0.1-6-0.2-9,0c-2.3,0.1-2.9-0.8-2.9-3c-0.1-6.8-0.2-6.9-7.1-6.7
			c-5.7,0.1-11.5-0.5-17.2,0.4c-0.4-0.3-0.4-0.6-0.1-1c7.2,0,14.4,0.1,21.5-0.1c2.7-0.1,3.8,0.6,3.7,3.6c-0.2,5.8,0,5.8,5.9,5.8
			c1.5,0,2.9,0,4.3,0c2.8,0,3.4-1.1,1.9-3.5c-2.6,0.3-5.3,0.4-7.9-0.1c-0.6-0.3-0.8-0.9-0.8-1.5c-0.3-1.2-0.4-2.3,0-3.6
			c4.9-1.7,9.8-0.5,14.8-0.6c0.7,0,1.1,0.6,1,1.2c-0.3,4.9,0.9,9.7-0.7,14.5c-8.2,0.6-16.3,0.6-24.5,0c-0.3-0.3-0.5-0.5-0.8-0.7
			c-1-2.8,0.3-5.8-0.7-8.6c-3.8,0-7.6,0-11.5,0c-1.1,2.8,0.3,5.8-0.7,8.7C461.3,345.7,460.8,345.6,460.5,345.6z"/>
		<path style="fill:#36A551;" d="M553.8,345.7c3.6,0.5,4.3-1.3,4.2-4.6c-0.3-5.9-0.7-5.3,5.3-5.3c0.3,0,0.7,0,1,0
			c7.6,0,7.7,0,8.1,7.4c0.1,1.9,0.9,2.4,2.6,2.4c6.3-0.1,12.7-0.1,19,0c2.1,0,2.7-0.8,2.6-2.8c-0.1-3-0.1-6,0-8.9
			c0.1-1.9-0.4-2.9-2.6-2.8c-3.2,0.2-6.4,0.1-9.7,0c-1.7,0-2.3,0.7-2.3,2.3c0,1.7,0.7,2.3,2.3,2.3c2.3,0.1,4.5-0.7,6.7,0.5
			c-3,0.7-5.8,0.5-8.8,0.1c-1.4-1.2-1.8-2.9-1.2-4.5c0.7-1.9,2.6-1.3,4.1-1.3c3.1-0.1,6.2,0.1,9.3-0.1c2.1-0.1,3.2,0.5,3,2.8
			c-0.4,4.3,0.8,8.8-0.8,13.1c-8.2,0.6-16.3,0.6-24.5,0c-1.5-2.8-0.3-5.8-0.9-8.7c-4-1-8.2,0.3-12.2-0.7c-1.4,1.7-0.5,3.6-0.7,5.3
			c-0.1,1.4,0,2.8-0.8,4c-1.7,0.5-3.4,0.6-5,0c0-0.3,0-0.4-0.1-0.7C553.2,345.3,553.5,345.3,553.8,345.7z"/>
		<path style="fill:#2DA149;" d="M635.8,339.9c-1-5.1-0.2-10.3-0.4-15.4c-0.1-1.7,0.3-3.4-2.4-3.3c-2.4,0.1-2.2,1.7-2.2,3.2
			c0,4.4,0,8.9,0,13.3c0,1.7-0.2,3-2.4,3c-2.2,0-2.6-1-2.5-3c0.1-4.2,0-8.4,0-12.6c0-4.3-0.9-5-5.1-3.1c0.6-3,3.2-1.4,4.8-1.7
			c1.5-0.2,1.6,1.8,1.7,3c0.1,4.7,0.1,9.3,0,14c0,1.1-0.5,2.3,1.1,2.3s1.2-1.1,1.2-2.3c-0.2-4.5,0-9.1-0.2-13.6
			c-0.1-2.8,1.2-3.4,3.7-3.5c2.6-0.1,2.9,1.2,2.9,3.3C635.8,329.1,635.8,334.5,635.8,339.9z"/>
		<path style="fill:#33A54E;" d="M679,335.4c2.3,0.8,4.5,0.3,6.8,0.3c1.9,0,3.3,0.2,3.2,2.7c-0.1,2.3-1.4,2.4-3,2.3
			c-2.9-0.1-5.7-0.2-8.6,0c-2.4,0.2-3-0.9-3-3.1c0-6.5-0.1-6.5-6.6-6.5c-5,0-9.8,0.1-14.8,0c-2.1-0.1-3.1,0.4-3,2.8
			c0.3,3.9-0.3,7.9,0.3,11.8c-0.3,0-0.7,0-1,0.1c-0.5-4.8-0.4-9.5,0-14.2c0.4-0.7,1.1-0.9,1.8-0.9c7.3,0,14.6,0,21.8,0
			c2.3,0,2.3,1.4,2.3,3c0.2,6.3,0.2,6.3,6.5,6.3c1.4,0,2.9,0.1,4.3-0.1c1.7-0.2,2.8-1,1.4-2.8c-2.8-1-5.8,0.3-8.6-0.7
			C679,336,679,335.7,679,335.4z"/>
		<path style="fill:#298A41;" d="M553.7,321c-0.2,0.1-0.4,0.2-0.6,0.3c0-1.6,1.1-1.6,2.3-1.6c19.9,0,39.8,0,59.6,0
			c0.2,0,0.4,0.2,0.7,0.3c-1.3,0.7-2.6,0.3-3.8,0.3c-18.1,0-36.1,0-54.2,0C556.3,320.5,554.9,320.1,553.7,321z"/>
		<path style="fill:#298B41;" d="M651.1,319.9c20.5,0,41,0,61.4,0c0,0.1,0,0.3,0,0.3c-20.5,0-41.1,0-61.6,0
			C651.1,320.1,651.1,319.9,651.1,319.9z"/>
		<ellipse style="fill:#268C3E;" cx="584.7" cy="327.3" rx="43.6" ry="0.2"/>
		<path style="fill:#268C3E;" d="M651.1,327.1c20.5,0,41,0,61.4,0c0,0.1,0,0.3,0,0.3c-20.5,0-41.1,0-61.6,0
			C651.1,327.3,651.1,327.2,651.1,327.1z"/>
		<path style="fill:#298A41;" d="M810,319.8c-1,1.1-2.3,0.7-3.4,0.7c-19.7,0-39.5,0-59.2,0c1.2-1.2,2.7-0.7,4.1-0.7
			C771,319.8,790.5,319.8,810,319.8z"/>
		<path style="fill:#298B41;" d="M457.4,319.9c20.2,0,40.5,0,60.7,0c0,0.1,0,0.3,0,0.3c-20.3,0-40.6,0-60.9,0
			C457.3,320.1,457.4,319.9,457.4,319.9z"/>
		<ellipse style="fill:#268C3E;" cx="487.8" cy="327.3" rx="43.1" ry="0.2"/>
		<path style="fill:#2FA34B;" d="M620.5,330.5c-5.2,1.1-10.4,0.3-15.6,0.4c-2.4,0-3.5,0.6-3.2,3.2c0.3,3.8-0.3,7.6,0.4,11.4
			c-0.3,0.4-0.5,0.4-0.9,0.2c-1.6-4.5-0.4-9.1-0.6-13.7c-0.1-1.7,1.6-1.5,2.7-1.5C609,330.5,614.8,330.5,620.5,330.5z"/>
		<path style="fill:#139632;" d="M455.9,350.9c-0.7-0.6-0.8-1.3,0.3-1.5c1.3-0.2,2.6-0.1,4-0.1c12,0,24,0,36,0c1.1,0,2.3,0,3.5,0
			c0,0.3,0,0.4,0,0.7c-2.9,0-5.6,0-8.5,0c-10.6,0-21.1,0-31.7,0C458.2,350,456.8,349.4,455.9,350.9L455.9,350.9z"/>
		<path style="fill:#139632;" d="M505,349.4c14.2,0,28.5,0,42.7,0c0,0.1,0,0.3,0,0.3c-14.3,0-28.6,0-42.9,0
			C504.9,349.7,505,349.5,505,349.4z"/>
		<path style="fill:#139632;" d="M645.8,350c-14.9,0-29.8,0-44.6,0c0.8-1,2-0.7,3-0.7c12.9,0,25.8,0,38.7,0
			C643.9,349.3,645.1,349,645.8,350z"/>
		<path style="fill:#139632;" d="M669.6,350h-0.3h-0.3c-6.2,0-12.4,0-18.6,0c0-0.2,0-0.3,0-0.5c14.3,0,28.6,0,42.9,0
			c0,0.2,0,0.3,0,0.5C685.4,350,677.5,350,669.6,350z"/>
		<path style="fill:#139632;" d="M450.5,349.9c-14,0-28,0-42,0c0-0.1,0-0.3,0-0.3c14.1,0,28.1,0,42.1,0
			C450.6,349.7,450.6,349.7,450.5,349.9z"/>
		<path style="fill:#149632;" d="M553.9,349.4c14,0,28,0,42,0c0,0.1,0,0.3,0,0.3c-14.1,0-28.1,0-42.1,0
			C553.9,349.7,553.9,349.5,553.9,349.4z"/>
		<ellipse style="fill:#139632;" cx="720.5" cy="349.7" rx="29.9" ry="0.2"/>
		<path style="fill:#32A54E;" d="M553.8,345.7c-0.3,0-0.6,0.1-0.9,0.1c-1.5-4.5-0.3-9.2-0.6-13.8c0-0.8,0.6-1.3,1.4-1.3
			c7.6,0,15.3,0.1,22.9,0.2c0.3,0,0.4,0.5,0.7,0.8c-7.6-1-15.2-0.3-22.8-0.4c-0.8,0-1.5,0.3-1.5,1.2
			C553.4,336.7,552.3,341.2,553.8,345.7z"/>
		<path style="fill:#27A043;" d="M601.2,345.7c0.3-0.1,0.6-0.1,0.9-0.2c3.8,0,7.6-0.1,11.5,0c1.7,0,2.7-0.3,2.6-2.3
			c-0.1-1.8-0.7-2.7-2.5-2.6c-1.3,0.1-2.6,0-3.9,0c-3.8,0-4.1-0.4-2.8-4.4c-0.4,3,1,4.1,3.8,3.6c0.8-0.1,1.7-0.1,2.5,0
			c1.3,0.2,3.5-0.7,3.7,0.6c0.3,1.8,1.7,4.3-0.7,5.8c-4.8,0.5-9.6,0.5-14.3,0C601.7,346.2,601.5,345.9,601.2,345.7z"/>
		<path style="fill:#D4EADA;" d="M565.1,340.5c2.2-0.3,2.6,0.9,2.7,2.7c0.1,2.3-1.2,2.3-3,2.4c-1.8,0.1-2.5-0.7-2.5-2.5
			C562.5,341.2,563.2,340.3,565.1,340.5z"/>
		<path style="fill:#179837;" d="M717,330.4c-6.2,0.1-12.3,0.1-18.5,0.2c0.1-1,0.8-1.4,1.7-1.4c5.1,0,10.3,0,15.4,0
			C716.4,329.2,717,329.5,717,330.4z"/>
		<path style="fill:#139632;" d="M783.5,349.1c-0.7,0.9-1.7,0.9-2.6,0.9c-10.9,0-21.7,0-32.7,0c-0.3,0-0.6-0.2-0.9-0.9
			C759.5,349.1,771.5,349.1,783.5,349.1L783.5,349.1z"/>
		<path style="fill:#D1EBD9;" d="M761.7,345.6c-1.7-0.5-4.9,1.8-5-2.3c-0.2-4.3,3-2.4,5-2.7C762.9,342.3,762.9,343.9,761.7,345.6z"
			/>
		<path style="fill:#D3EBDA;" d="M470.8,343.3c0.3,2-0.9,2.3-2.5,2.3c-2,0.1-2.7-0.7-2.6-2.7c0.1-1.8,0.8-2.5,2.5-2.5
			C470.2,340.4,471,341.4,470.8,343.3z"/>
		<path style="fill:#C9E9D2;" d="M662.1,345.7c-1.8,0.2-2.5-0.7-2.5-2.4c0-2,0.9-2.7,2.8-2.7c2.3-0.1,2.3,1.3,2.3,3
			C664.8,345.5,663.7,345.8,662.1,345.7z"/>
		<path style="fill:#34A64F;" d="M523.5,330.5c-4.2,1.1-8.4,0.3-12.7,0.4c-6.3,0.2-6.3,0-6.2,6.1c0,2.9-0.4,5.7,0.3,8.5
			c-1.9-4.5-0.6-9.3-0.7-13.9c0-1.7,1.7-1.2,2.9-1.2C512.5,330.5,518,330.5,523.5,330.5z"/>
		<path style="fill:#35A651;" d="M693.2,345.7c0.8-4.3,0.2-8.6,0.3-12.9c0.1-1.2-0.5-1.7-1.7-1.7c-4.3,0.2-8.6-0.4-12.9,0.3
			c4.5-1.9,9.2-0.4,13.9-0.8c0.3,0,1,0.5,1,0.8C693.9,336.2,695.1,341,693.2,345.7z"/>
		<path style="fill:#139632;" d="M376,349.4c8.7,0,17.5,0,26.1,0c0,0.1,0,0.3,0,0.3c-8.8,0-17.5,0-26.3,0
			C376,349.7,376,349.5,376,349.4z"/>
		<path style="fill:#2C9F48;" d="M582.5,336.4c3,0,5.8-0.1,8.8-0.1c1,4.2,0.9,4.6-3,4.3c-3.6-0.2-7.3,1-10.8-0.7c3.6,0,7.1,0,10.7,0
			c1,0,2.7,0.5,2.8-1.4c0.1-1.9-1.5-1.4-2.6-1.5C586.4,336.8,584.3,337.7,582.5,336.4z"/>
		<path style="fill:#1C9A3B;" d="M542.1,321.9c0,5.2,0,10.5,0,15.7c0,1.1-0.2,2.5-1.7,2.1c-2.7-0.8,0.3-1.3,0.3-1.9
			c0.8-3.9,0.5-7.8,0.6-11.8c0-1.4,0-2.8,0-4.2C541.7,321.9,542,321.9,542.1,321.9z"/>
		<path style="fill:#268B3E;" d="M784.9,327.6c1-1,2.3-0.6,3.4-0.6c7.2,0,14.5,0,21.7,0c-0.7,0.9-1.7,0.7-2.6,0.7
			C799.9,327.7,792.4,327.7,784.9,327.6z"/>
		<ellipse style="fill:#189D37;" cx="452.6" cy="333.4" rx="0.2" ry="16.1"/>
		<path style="fill:#119630;" d="M621.6,346.5c7.6,0,15,0,22.6,0c0,0.1,0,0.3,0,0.3c-7.6,0-15.1,0-22.7,0
			C621.5,346.8,621.5,346.6,621.6,346.5z"/>
		<path style="fill:#119631;" d="M572.4,346.4c8.2,0,16.3,0,24.5,0c-0.8,1-1.9,0.7-3,0.7c-6.2,0-12.3,0-18.5,0
			C574.4,347.1,573.2,347.4,572.4,346.4z"/>
		<path style="fill:#119630;" d="M402.5,346.4c-0.5,0.6-1.2,0.8-1.9,0.8c-7.3,0-14.5,0-21.8-0.8
			C386.7,346.4,394.6,346.4,402.5,346.4L402.5,346.4z"/>
		<path style="fill:#129631;" d="M717.9,346.4c8.2,0,16.3,0,24.4,0c-0.8,1-1.9,0.7-3,0.7c-6.2,0-12.3,0-18.5,0
			C719.9,347.1,718.7,347.4,717.9,346.4z"/>
		<path style="fill:#129631;" d="M427.8,346.6c7.6,0,15.2,0,22.8,0c0,0.1,0,0.3,0,0.3c-7.6,0-15.2,0-22.8,0
			C427.9,346.8,427.8,346.7,427.8,346.6z"/>
		<path style="fill:#119630;" d="M524.4,346.5c7.6,0,15,0,22.6,0c0,0.1,0,0.3,0,0.3c-7.6,0-15.1,0-22.7,0
			C524.3,346.8,524.3,346.6,524.4,346.5z"/>
		<path style="fill:#109631;" d="M475.2,346.4c8.2,0,16.3,0,24.5,0c-0.8,1-1.9,0.7-3,0.7c-6.2,0-12.3,0-18.5,0
			C477.2,347.1,476,347.4,475.2,346.4z"/>
		<ellipse style="fill:#119730;" cx="549.1" cy="333.4" rx="0.3" ry="16.2"/>
		<path style="fill:#1F973B;" d="M646.6,344.7c0-7.6,0-15,0-22.6c0.1,0,0.3,0,0.3,0c0,7.6,0,15.1,0,22.7
			C646.9,344.8,646.8,344.8,646.6,344.7z"/>
		<path style="fill:#119630;" d="M692.6,347c-7.6,0-15.2,0-22.8,0c0-0.1,0-0.3,0-0.3c7.6,0,15.2,0,22.8,0
			C692.5,346.7,692.5,346.9,692.6,347z"/>
		<path style="fill:#199B38;" d="M520.4,337.8c-2.8,0-5.6,0-8.4,0c0,0.3,0,0.4,0,0.7c2.2,0,4.3,0,6.4,0c0,0.3,0,0.5,0,0.8
			c-2,0-4,0-6,0c-0.7,0-1.8,0.7-1.7-0.9c0-1.1,0.8-1.4,1.7-1.4c2.7,0,5.4,0,8.2,0C520.4,337.3,520.4,337.6,520.4,337.8z"/>
		<path style="fill:#1B9639;" d="M726.5,321.2c0.2,0.3,0.4,0.5,0.6,0.7c-1.3,5.1-0.3,10.3-0.5,15.5c-0.1,1.8-0.5,2.3-2.2,1.8
			c-0.2-0.2-0.3-0.3-0.2-0.5c0.1-0.2,0.1-0.3,0.2-0.3c1.8-0.3,1.4-1.7,1.4-2.8c0-3.7,0-7.4,0-11.1
			C725.8,323.4,725.4,322.1,726.5,321.2z"/>
		<path style="fill:#109631;" d="M532.7,322c0,5.2,0,10.5,0,15.7c0,0.6,0.3,1.7-0.8,1.6c-0.3,0-1.7,0.4-1-0.9
			c0.2-0.3,0.8-0.4,0.8-0.6c0.2-1.7,0.3-3.6,0.3-5.4c0-3.5,0-6.9,0-10.3C532.3,322.1,532.6,322.1,532.7,322z"/>
		<path style="fill:#139832;" d="M432.2,339.1c-0.1-0.3-0.1-0.4,0-0.7c1.1-4,0.3-8,0.5-12c0.1-1.5-0.3-3,0.7-5.4
			c0,6.5,0,12.1,0,17.6C433.5,339.6,432.8,339.4,432.2,339.1z"/>
		<path style="fill:#0B942C;" d="M445.8,340c-1.6-1.9-0.7-4.2-0.8-6.2c-0.2-3.9-0.1-7.8,0.8-11.7C445.8,328,445.8,334,445.8,340
			L445.8,340z"/>
		<path style="fill:#199437;" d="M435.5,322.1c0,5.6,0,11.4,0,17c-0.1,0-0.3,0-0.3,0c0-5.7,0-11.4,0-17.1
			C435.2,322.1,435.3,322.1,435.5,322.1z"/>
		<ellipse style="fill:#129732;" cx="636.9" cy="330.5" rx="0.3" ry="12.1"/>
		<path style="fill:#0A942C;" d="M724.4,338.5c0,0.3,0,0.5,0,0.8c-1.1,0.2-0.7-0.7-0.7-1.1c0-5.4,0-10.7,0.7-16.1
			C724.4,327.5,724.4,333,724.4,338.5z"/>
		<path style="fill:#20943C;" d="M734.4,339.8c-1.5-2.4-0.5-5-0.7-7.6c-0.2-3.6-0.1-7.4-0.1-11c1.6,2.4,0.5,5,0.7,7.6
			C734.5,332.5,734.4,336.2,734.4,339.8z"/>
		<path style="fill:#09932A;" d="M736.5,321.3c0,5,0,10.2,0,15.2c0,1.1,0.4,2.3-0.6,3.3c0-5.3-0.1-10.6-0.1-16
			C735.8,323,735.7,321.9,736.5,321.3z"/>
		<path style="fill:#33A54E;" d="M455.8,330.5c0,0.3,0.1,0.6,0.1,1c0.6,4.7-0.4,9.5,0.7,14.1c-0.6,0-1.4-0.2-1.4-0.8
			C455.3,340.1,454.2,335.2,455.8,330.5z"/>
		<path style="fill:#109631;" d="M781.9,346.4c-4.8,1.6-9.6,0.3-14.3,0C772.4,346.4,777.1,346.4,781.9,346.4L781.9,346.4z"/>
		<path style="fill:#109630;" d="M602,346.4c4.8,0,9.6,0,14.3,0C611.5,347.6,606.8,347.6,602,346.4z"/>
		<path style="fill:#119732;" d="M649.4,331.4c0,4.8,0,9.5,0,14.2C648.3,340.9,648.4,336.1,649.4,331.4z"/>
		<path style="fill:#109731;" d="M698.4,346.4c4.8,0,9.6,0,14.3,0C708,347.6,703.2,347.6,698.4,346.4z"/>
		<path style="fill:#109631;" d="M518.1,347c-4.2,0-8.3,0-12.5,0c0-0.1,0-0.3,0-0.3c4.3,0,8.5,0,12.8,0
			C518.2,346.8,518.2,346.9,518.1,347z"/>
		<path style="fill:#32A54E;" d="M746.6,331.2c0,4.8,0.1,9.6,0.1,14.4c-1.6-4.7-0.3-9.6-0.7-14.4
			C746.2,331.2,746.4,331.2,746.6,331.2z"/>
		<path style="fill:#199536;" d="M697.7,331.3c0,4.8,0,9.6,0,14.3C696.5,340.9,696.5,336.1,697.7,331.3z"/>
		<path style="fill:#199E38;" d="M559.4,337.1c4,0.3,8.2-0.8,12.2,0.7C567.6,337.4,563.4,338.6,559.4,337.1z"/>
		<path style="fill:#109632;" d="M410.4,346.4c3.6,0,7.1,0,10.7,0C417.5,346.7,413.8,348,410.4,346.4L410.4,346.4z"/>
		<path style="fill:#278A3F;" d="M761.7,345.6c0-1.7,0-3.2-0.1-4.9c2.9,1.8,2,3.8,0.1,5.7l0,0C761.7,346.1,761.7,345.8,761.7,345.6z
			"/>
		<path style="fill:#09922A;" d="M461.6,345.7c0.4-2.9-1-5.9,0.7-8.7C461.9,339.8,463,342.9,461.6,345.7z"/>
		<path style="fill:#2E9D49;" d="M678.9,336.4c2.9,0.3,5.8-0.8,8.6,0.7C684.8,336.7,681.7,337.8,678.9,336.4z"/>
		<path style="fill:#0C932C;" d="M473.8,337.1c1.5,2.8,0.3,5.7,0.7,8.6C473,342.9,474.1,339.9,473.8,337.1z"/>
		<path style="fill:#199B38;" d="M522.2,345c0-2.3,0-4.7,0-7C522.9,340.3,522.8,342.6,522.2,345z"/>
		<path style="fill:#259E42;" d="M733.7,321.2c-1.6-1-3.3-0.6-5-0.8c1-1.2,2.5-0.8,3.8-1.3C734.4,318.3,733.3,320.4,733.7,321.2z"/>
		<path style="fill:#2C9E47;" d="M485.3,336.4c2.6,0,5.3,0,7.9,0.1C490.5,337.4,487.9,337.5,485.3,336.4z"/>
		<path style="fill:#259E42;" d="M743.1,320.5c-0.3,0-0.5,0-0.7,0c-0.3-0.5-1.1-0.2-1.4-0.7c-0.2-0.6-0.6-1.4,0.6-1.4
			C743.1,318.3,743.1,319.4,743.1,320.5z"/>
		<path style="fill:#2A8B41;" d="M740.9,319.8c0.6,0,1.1,0.2,1.4,0.7c-1.9,0-3.8,0-5.7,0C737.8,319.2,739.5,320,740.9,319.8z"/>
		<path style="fill:#129734;" d="M470,346.7c-1.4,0.4-2.8,0.6-4.3,0.2C467.3,346,468.7,346.6,470,346.7z"/>
		<path style="fill:#129731;" d="M553,346.4c1.7,0,3.4,0,5,0C556.3,347.6,554.6,347.6,553,346.4z"/>
		<path style="fill:#119631;" d="M455.9,347c1.8-0.8,3-0.5,4.9-0.3C458.9,347.4,457.7,347.1,455.9,347z"/>
		<path style="fill:#119731;" d="M665.5,344.9c0-1.1,0-2.3,0-3.4c0.1,0,0.3,0,0.3,0c0,1.1,0,2.2,0,3.3
			C665.7,344.8,665.6,344.9,665.5,344.9z"/>
		<path style="fill:#129730;" d="M810.7,326.2c0-1.7,0-3.3,0-5C811.9,322.9,811.9,324.6,810.7,326.2z"/>
		<path style="fill:#139633;" d="M649.3,322c0,1.1,0,2.3,0,3.4c-0.1,0-0.3,0-0.3,0c0-1.1,0-2.3,0-3.4C649.1,322,649.1,322,649.3,322
			z"/>
		<path style="fill:#119733;" d="M566.9,346.8c-1.4,0.4-2.6,0.5-4-0.1C564.3,346.3,565.5,346.2,566.9,346.8z"/>
		<path style="fill:#298B40;" d="M534.4,319.9c1.1,0,2.3,0,3.4,0c0,0.1,0,0.3,0,0.3c-1.1,0-2.3,0-3.4,0
			C534.4,320.1,534.4,320,534.4,319.9z"/>
		<path style="fill:#2A8B41;" d="M450.6,320c-1.1,0.5-2.3,0.6-3.6,0.2C448.3,319.3,449.5,320,450.6,320z"/>
		<path style="fill:#129733;" d="M761.8,346.4c-1.3,1.3-2.8,0.6-4.3,0C758.9,346.4,760.3,346.4,761.8,346.4L761.8,346.4z"/>
		<path style="fill:#129633;" d="M664.7,346.7c-2.1,0.4-3.2,0.5-4.8,0.1C661.5,346.3,662.6,346.4,664.7,346.7z"/>
		<path style="fill:#149835;" d="M561.3,345.7c-0.6-2-0.5-3.1,0-4.3C561.3,342.6,561.3,343.7,561.3,345.7z"/>
		<path style="fill:#10972F;" d="M650.5,346.8c1.5-0.4,2.3-0.5,3.6,0C652.8,347.3,651.9,347.1,650.5,346.8z"/>
		<path style="fill:#119631;" d="M747.4,346.4c1.4,0,2.9,0,4.3,0C750.3,347.5,748.8,347.5,747.4,346.4z"/>
		<path style="fill:#2C9E47;" d="M484.5,331.3c0,1.2,0,2.3,0,3.6C483.6,333.7,483.6,332.5,484.5,331.3z"/>
		<path style="fill:#FEFDFD;" d="M407.4,597c0.1-3.6,0.3-7.1,0.1-10.7c-0.1-2.5,0.7-3.4,3.2-3.3c4.4,0.2,8.8,0.1,13.2,0
			c1,0,2.5,0.7,2.8-1.2c0.1-0.2,0.1-0.3,0.2-0.4c0-0.1-0.1-0.2-0.1-0.3c0.1-1.7,0.3-3.3,0.2-5c-0.1-1.8,0.2-2.9,2.4-2.9
			c2.4,0,2.3,1.3,2.3,3c0,5,0.1,10,0.2,15c1.3,1,2.7,1.1,4,0c0.9-5,0.3-10,0.3-15c0-2.1,0.3-3.3,2.8-3.4c2.9-0.1,2.7,1.6,2.6,3.5
			c0,4.5,0,9.1,0,13.6c0,1.6,0.3,2.5,2.2,2.4c1.7,0,2.3-0.7,2.3-2.3c-0.1-4.9,0-9.8-0.1-14.7c0-1.9,0.8-2.5,2.6-2.4
			c1.7,0.1,3.3,0,3.3,2.3c-0.2,6.9,0,13.8-0.1,20.8c0,0.8-0.3,1.4-0.8,2c-5.6,1.2-11.2,0.2-16.8,0.6c-1.7,0.1-3.6-0.6-5.2,0.7
			c2.4,2.9,4.8,5.6,7.2,8.5c2.8,3.3,2.8,6.9-0.1,9.2c-2.7,2.3-6.1,2.1-8.9-1c-3.6-3.9-6.9-7.9-10.3-12
			C414.3,600.7,412.4,596.9,407.4,597z"/>
		<path style="fill:#FEFDFD;" d="M776.9,583c3.6,0.1,7.4,0.2,11,0.1c2.2-0.1,3,0.8,2.9,2.9c-0.1,3.6,0.1,7.4,0.1,11
			c-0.1,0.2-0.3,0.3-0.3,0.6c-1.5,1.4-3.4,0.6-5,0.8c-1.9,0.3-4-0.5-5.9,0.7c-5.1,6.3-10.2,12.7-15.8,18.5c-3.4,3.6-6.8,4.1-9.6,1.4
			c-2.7-2.5-2.3-6.3,0.8-9.8c3.3-3.6,6.5-7.4,9.7-11c0.7-0.8,1.4-1.6,1.7-2.7c1.5-6,0.3-7.6-5.7-7.6c-2.7,0-6.2-0.8-8,0.5
			c-2,1.5-0.4,5.1-0.7,7.8c-0.1,0.4-0.1,1-0.2,1.4c-0.9,0.9-1.9,0.9-3,0.3c-1.4-0.4-1.7-1.5-1.6-2.9c0.1-3.1,0.1-6.3,0-9.3
			c-0.1-1.7,0.3-2.7,2.3-2.7c6.6,0.1,13.2,0.1,19.7,0c2.2,0,2.2,1.4,2.2,2.9c-0.1,2.4-0.7,5.2,3.6,4.2c1-0.3,2.2,0.8,3.3,1.2
			c2.3,1.2,4.9,0.5,7.3,0.5c1.4-2.9,0.5-4.3-2.8-3.9c-0.8,0.1-1.7,0-2.5,0C775.7,587.8,775.5,587.5,776.9,583z"/>
		<path style="fill:#FDFBFB;" d="M717.8,580.4c0.1-1.4,0.3-2.9,0.3-4.3c-0.1-1.8,0.2-2.9,2.4-2.9c2.3,0,2.3,1.2,2.3,3
			c0,5,0.1,10,0.2,15c1.2,1.3,2.9,0.4,4.3,0.9c1.1-5,0.3-10.3,0.5-15.3c0.1-1.8-0.3-3.6,2.6-3.5c2.9,0.1,2.3,1.8,2.3,3.4
			c0,4.4,0.1,8.9,0,13.3c0,1.9,0.4,2.9,2.6,2.9c2.3,0,2.2-1.2,2.2-2.8c0-4,0-7.9,0-11.9c0-4.8,0-4.8,4.7-5c0.8,0.2,0.7,0.9,0.7,1.4
			c-0.2,6.8,0.6,13.6,0,20.3c-0.2,1.7-0.3,3.3-2.4,3.3c-7-0.1-14.1,0.6-21-0.3c-2.3-1.7-1.2-4.3-1.1-6.3c0.2-3.1-1-4-3.9-3.7
			c-2.9,0.3-5.7,0.1-8.6,0c-1.8,0-2.2,0.9-2.2,2.4c0,1.7,0.4,2.5,2.3,2.4c1-0.1,2.2,0.2,3.2,0c3.1-0.5,4.7,0.6,4.6,3.9
			c-0.3,1-1,1.7-2,1.7c-3.9-0.1-7.8,0.6-11.7-0.4c-1.4-0.8-1.1-2.2-1.1-3.5c0-3.6-0.1-7.3-0.1-10.9c1-1.3,2.3-1,3.6-1
			c3.9-0.1,7.9,0,11.8,0c1.3,0,2.6,0.2,3.8-0.7C718,581.4,718,580.9,717.8,580.4z"/>
		<path style="fill:#FDFCFB;" d="M620.7,574c1.4-1.2,3.2-0.3,4.8-0.8c1.7,4.2,0.3,8.5,0.8,12.8c0,0.3-0.1,0.7-0.2,1
			c-0.3,4.4-0.3,4.4,4,5.2c1.6-1.9,0.5-4.1,0.6-6.1c0.2-3.3,0.1-6.7,0-10c-0.1-1.8,0.2-2.9,2.4-2.9c2.4,0,2.3,1.2,2.3,3
			c0,5,0.2,10,0.3,14.9c1.5,1.3,3,0.8,4.4,0.1c0.7-5,0.2-10,0.3-15c0-1.7-0.1-3,2.3-3c2.2,0,2.6,0.9,2.5,2.8
			c-0.3,7.2,0.4,14.3-0.4,21.5c-0.1,0.7-0.5,1.1-1.2,1.1c-6.8-0.6-13.6,0.1-20.3-0.3c-0.7,0-1.4-0.1-2-0.6c-1-2.5-0.3-5.2-0.4-7.8
			c-0.1-1.6-0.5-2.2-2.1-2.1c-3.5,0.1-6.9,0.1-10.4,0c-1.8-0.1-2.2,0.8-2.1,2.4c0.1,1.5,0.1,2.6,2.1,2.5c1.8-0.1,3.6,0,5.4-0.1
			c1.9-0.1,2.5,0.7,2.5,2.5c0,1.7-0.7,2.3-2.3,2.3c-3.4,0-6.7-0.1-10.1,0c-1.7,0-2.3-0.9-2.2-2.4c0.1-3.1,0.1-6.3,0-9.3
			c-0.1-2.3,1-2.9,3-2.9c4.4,0.1,8.9-0.1,13.3,0.1c2.4,0.1,3.2-0.7,3-3C620.7,578,620.7,576,620.7,574z"/>
		<path style="fill:#FDFCFB;" d="M542.9,591.9c1.1-5,0.2-10.2,0.5-15.3c0.1-1.7-0.4-3.4,2.3-3.4s2.3,1.7,2.3,3.3c0,6,0,12,0,18
			c0,1.2,0.2,2.4-0.8,3.4c-0.3,0.2-0.6,0.4-1,0.4c-7.1-0.3-14.3,0.9-21.5-0.5c-1.7-2.3-0.8-4.8-0.8-7.2c0-2.3-0.8-3-2.9-2.8
			c-3.7,0.3-7.6-0.5-11.2,0.4c0.1,1.7-0.5,3.7,2.3,3.6c1.3,0,2.6,0,4,0c2.3,0,3.2,1,3.2,3.3c0,2.1-1,3.1-3,3.1c-3.2,0-6.4,0.1-9.7,0
			c-1.3,0-2.4-0.3-2.4-1.9c0-3.7-1-7.5-0.2-11.4c0.5-2.1,1.3-2.5,3-2.5c3.9,0,7.9,0,11.8,0c4.3,0,4.3,0,4.3-4.4c0-0.3,0-0.7,0-1
			c0.1-4.5,0.7-5,5.5-3.6c0.7,5,0.1,10.2,0.3,15.2c0.1,3.5,0.6,3.7,4.2,2.6c0.1-4.5,0.4-9,0.1-13.5c-0.3-3.6,1-5,4.4-4.5
			c1.3,0.7,1,2,1,3.1c0,3.9,0.3,7.8-0.1,11.7C538.6,591.4,539.9,592.4,542.9,591.9z"/>
		<path style="fill:#FEFEFE;" d="M558.1,686.9c-8.6-1.6-17.5-3.1-26.1-6.3c-3-1-4-4.3-3-7.2c1-3,3.7-4.8,6.8-4c8,2,16,3.9,24.1,5.5
			c3.2,0.6,5,3.6,4.6,6.8C564,684.5,561.4,686.8,558.1,686.9z"/>
		<path style="fill:#FEFEFE;" d="M677.9,674.6c-2.7-0.3-4.9-1.7-5.6-4.6c-0.8-3,0.2-5.6,2.9-6.7c7.7-3.5,15.5-6.9,23.1-10.6
			c2.8-1.3,5.9,0.2,7.3,2.9c1.5,2.9,1.1,5.8-1.5,7.4c-8,4.9-16.5,8.6-25.4,11.6C678.5,674.6,678.2,674.6,677.9,674.6z"/>
		<path style="fill:#FEFEFE;" d="M449.8,623.1c1.5,0.2,2.8,0.6,3.9,1.6c6,5.1,12.3,9.9,18.7,14.6c3.1,2.3,3.5,5.7,1.5,8.5
			c-2,2.7-5.3,3.5-8.3,1.5c-6.9-4.7-13.6-9.8-19.8-15.4c-2.1-1.8-2.7-4.2-1.6-6.9C445.2,624.4,447.2,623.4,449.8,623.1z"/>
		<path style="fill:#FEFEFE;" d="M746.7,630.9c-0.1,2.3-1,4-2.5,5.3c-6.2,5.1-12.5,10-19.2,14.5c-3.2,2.2-6.9,1.5-8.9-1.4
			s-1.3-6.3,1.8-8.4c6.3-4.5,12.6-9.1,18.6-14.1c2-1.7,4.3-2.2,6.7-1C745.4,626.9,746.5,628.8,746.7,630.9z"/>
		<path style="fill:#FEFEFE;" d="M594.9,677.6c3.8,0,7.6,0,11.5,0c4,0.1,6.6,2.4,6.7,6c0.1,3.6-2.4,6.2-6.4,6.2
			c-7.7,0.1-15.5,0.1-23.3-0.1c-4.3-0.1-6.8-2.7-6.6-6.4c0.2-3.7,2.7-5.8,7.1-5.7C587.5,677.6,591.1,677.5,594.9,677.6L594.9,677.6z
			"/>
		<path style="fill:#FEFEFE;" d="M632,687.2c-3.8,0.1-6.3-2-6.9-5.1c-0.4-2.8,1.3-5.9,4.3-6.6c8.2-1.9,16.3-3.6,24.5-5.2
			c3.3-0.6,6.2,1.3,6.9,4.3c0.8,3-0.7,6.3-3.8,7.2C648.7,684.3,640.1,686,632,687.2z"/>
		<path style="fill:#FEFEFE;" d="M517.7,667.6c-0.2,4.2-4.1,6.9-8.2,5.4c-7.9-3-15.5-6.7-22.9-10.9c-3-1.7-3.7-5.3-2.2-8.2
			c1.6-2.8,4.7-4,7.7-2.5c7.4,3.6,14.8,7.3,22.3,10.6C516.8,663,517.8,665.1,517.7,667.6z"/>
		<path style="fill:#FDFAFA;" d="M499.8,597.1c-0.5,0.3-1,0.6-1.5,0.9c-7.5,0.7-14.9,0.9-22.5-0.1c-1-2.5-0.3-5.1-0.5-7.7
			c-0.1-1.4-0.3-2.3-1.9-2.3c-4,0.3-8-0.4-12,0.3c-0.7,2.4-0.3,5-0.3,7.5c0,1.8-0.7,2.7-2.5,2.6c-1.7,0-3.2-0.5-3.2-2.5
			c-0.1-3.6-0.1-7.2,0-10.8c0.1-2.3,1.8-2.5,3.6-2.5c6.7,0,13.4-0.1,20.1,0.1c2.7,0.8,1.7,3,1.8,4.8c0.2,4.3,0.1,4.3,4.2,4.2
			c2.3,0,4.8,0,7.1,0c1.9-0.3,1.7-1.3,0.9-2.6c-0.3-0.2-0.6-0.3-1-0.4c-1.6,0-3-0.4-4.5-0.6c-1.5-0.2-2.9-0.2-3-2.2
			c-0.2-1.9,0.4-3.3,2.7-3.3c3.3,0,6.7,0,10,0c2.2,0,3.4,0.9,3.2,3.2C500.1,589.5,501,593.3,499.8,597.1z"/>
		<path style="fill:#FCFAFA;" d="M552.9,597c0.1-4.5,0.1-9,0.2-13.6l0,0c1.2-1,2.7-0.8,4.1-0.8c5.1,0,10.3,0,15.5,0
			c5.6,0,5.9,0.3,6,6.2c-0.1,0.6-0.1,1.2,0.1,1.7c0.8,1.7,2.4,1,3.7,1.1c2,0.1,4,0.1,6,0c1,0,2.3,0.1,2.3-1.5
			c-0.3-1.7-1.7-1.5-2.9-1.5c-1.3,0-2.6,0-3.9-0.3c-1.7-0.5-2.2-1.7-2.1-3.3c0.2-1.6,1-2.3,2.6-2.4c3.6-0.1,7.1-0.1,10.8,0
			c1.1,0,2.3,0.4,2.3,1.7c0.3,4.2,0.4,8.3-0.2,12.5c-0.1,0.6-0.6,1-1.1,1.3c-7.5,0.3-14.9,0.7-22.3-0.2c-2.5-1.8-1.2-4.4-1.2-6.6
			c0-2.7-0.7-3.6-3.5-3.5c-2.6,0.2-5.3,0.3-7.9,0c-2.8-0.3-3.6,1-3.3,3.5c0.1,0.7,0,1.5,0,2.2C557.9,598.1,557.4,598.4,552.9,597z"
			/>
		<path style="fill:#FDFBFB;" d="M650.2,597.7c-0.1-4.1-0.1-8.2-0.2-12.2c-0.1-1.9,0.8-2.4,2.5-2.4c6.3,0.1,12.4,0.2,18.7,0
			c2.6-0.1,3.2,0.9,3.3,3.3c0,6.4,0.1,6.4,6.4,6.4c1.8,0,3.6-0.1,5.4,0c2.1,0.2,2.7-0.8,2.7-2.7c0.1-2.2-1.2-2.3-2.8-2.2
			c-1.6,0-3.1-0.1-4.7,0c-1.7,0.1-2.6-0.3-2.5-2.3c0.1-1.8,0.6-2.6,2.5-2.5c3.2,0.1,6.4,0.1,9.7,0c1.6,0,2.5,0.3,2.4,2.1
			c-0.2,4.2-0.2,8.3-0.3,12.5c-1,0.8-2.3,0.7-3.5,0.7c-6.5-0.3-13.1,0.7-19.6-0.5c-1.6-2.3-0.6-4.9-0.7-7.3c-0.1-2-0.6-2.8-2.6-2.7
			c-3.1,0.1-6.2,0.1-9.3,0c-1.9-0.1-3,0.4-2.7,2.6c0.2,2.1,0.2,4.3,0.3,6.4C653.8,599.1,652.1,598.7,650.2,597.7z"/>
		<path style="fill:#D90101;" d="M577.5,589.8c-0.5-6.7-0.5-6.8-7.3-6.7c-5.7,0.1-11.5-0.4-17.1,0.3c0.5-1.7,1.9-1.6,3.2-1.6
			c6.3,0,12.6-0.8,18.6,0.3c3.6,0.6,6.8,0.6,10.3-0.2c3.2-0.7,6.7-0.2,10-0.2c1.4,0,3,0,3,1.7c0.1,4.8,0,9.6-0.1,14.3
			c0,0.4-0.8,0.8-1.2,1.2c-0.4-0.3-0.7-0.8-0.6-1.4c1-4.3,0.3-8.6,0.4-12.9c0.1-1.4-0.9-1.8-2.1-1.8c-3.4,0-6.7,0.1-10.1,0
			c-2-0.1-2.3,1-2.3,2.7c-0.1,1.9,0.9,2.3,2.3,2.2s2.9,0.1,4.3,0c2.8-0.3,3.4,1,2.8,3.4c-0.3,0.2-0.7,0.2-1,0.1
			c-2.8-0.5-5.6-0.4-8.4-0.3C580.4,591.1,578.8,591,577.5,589.8z"/>
		<path style="fill:#DB0303;" d="M455,575.3c-0.2-2.1,0.6-3,2.9-3c19.5,0.1,39.1,0,58.6,0.1c0.9,0,2-0.3,2.4,1
			c-1.7,1.2-3.6,0.9-5.6,0.9c-16.9,0-33.8,0-50.7,0.1c-1.7,0-4.7-0.9-4.7,1.5c0,1.9,3,1.1,4.6,1.2c16.7,0.1,33.4,0,50,0.1
			c3,0,5.4-0.6,6.3-3.7c2.1,4,1.3,5.6-2.8,5.6c-19.6,0-39.4,0.1-59,0.1c-0.7,0-1.5-0.1-2.2-0.1c-0.6-0.7-0.6-1.4,0-2.2
			C455,576.3,455,575.9,455,575.3z"/>
		<path style="fill:#DB0303;" d="M450.8,597.7c1-7.5,0.2-15,0.4-22.6c0.1-2.2-1.5-1.7-2.8-1.8c-1.4-0.1-2.3,0.2-2.3,1.9
			c0.1,4.3,0.2,8.6-0.1,12.9c-0.1,1.7,1.7,4.8-2.3,4.6c-3.9-0.1-2.2-3.1-2.3-4.9c-0.3-3.9-0.2-7.9,0-11.8c0.1-1.9-0.3-2.9-2.5-2.9
			c-2.3,0-2.3,1.2-2.3,3c0.1,4.4,0.1,8.9,0,13.3c0,1,0.7,2.5-1,3c-0.4-0.4-0.4-0.9,0-1.3c0-5,0.1-10.1,0-15
			c-0.1-2.5,0.7-4.2,3.4-3.6c1.7,0.3,3-1.9,4.3-0.7c1.7,1.6-1.7,1.1-1.4,3.1c0.6,4.8,0.3,9.7,0.2,14.7c0,1.4,0.3,2.3,1.9,2.3
			c1.6-0.1,1.7-1,1.7-2.3c0-4.8,0.1-9.6,0-14.3c-0.1-2.2,0.8-3.1,2.9-2.9c1,0.1,1.8-0.2,2.4-1.1c0.3-0.6,0.6-1.9,1.7-1.3
			c1.4,0.8,0.2,1.6-0.2,2.3c-0.1,0.2,0.3,0.6,0.4,0.9c-0.2,6.4-1.5,12.8,0,19.3c0.3,1.5,0.1,4.6-1.4,6.6
			C451,598.8,450.7,598.4,450.8,597.7z"/>
		<path style="fill:#DB0303;" d="M529,573.9c-4.7-1.3-5-1.1-5,3.5c0,0.9-0.1,1.7,0,2.5c0.3,2.5-0.8,3.3-3.3,3.2
			c-4.5-0.2-9.1,0.1-13.6-0.1c-2.1-0.1-2.8,0.6-2.7,2.7c0.2,3.8-1.2,8.8,0.7,11.1c2,2.5,7.2,0.5,10.9,0.8c1.7,0.1,3,0,3-2.3
			c0-2.5-1.3-2.6-3.1-2.5c-1.7,0-3.6-0.2-5.3-0.3c2.7-1.8,5.6-0.8,8.5-0.6c1.1,2.2,1.2,4.3,0,6.5c-5,0.5-10.1,0.5-15.1,0
			c-0.1-1.7-0.1-3.4-0.2-5c-0.9-2.3-0.9-4.8,0-7.1c-0.4-3.6,1.2-4.5,4.7-4.4c4.7,0.1,9.5,1,14.2-0.6c0-1.4,0.1-2.9,0-4.3
			c-0.2-2.8,0.3-4.9,3.7-4.3c2,0.3,1.9-1.7,2.6-2.8c1.5,1.4,0.5,2.4,0.2,3.5C529.6,573.6,529.5,573.9,529,573.9z"/>
		<path style="fill:#DB0303;" d="M479.4,582.8c-6.7,0.6-13.4,0.3-20.1,0.2c-2.7,0-3.6,0.8-3.4,3.5c0.2,2.9,0.1,5.7,0,8.6
			c-0.1,1.8,0.5,2.5,2.4,2.6c2.1,0.1,2.3-1,2.3-2.6c0.2-2.3-0.8-4.7,0.6-6.9c-0.3,3.4,0.8,6.9-0.7,10.2c-1.5,0.5-2.9,0.5-4.3,0
			c-1.7-0.3-1.5-1.7-1.5-2.8c0-3.5,0.2-6.9-0.1-10.4c-0.2-2.6,0.7-3.6,3.4-3.5c7,0.2,14.1,0.1,21.1,0.1
			C479.8,582.2,479.8,582.5,479.4,582.8z"/>
		<path style="fill:#B30102;" d="M719.3,597.9c6.4-0.1,12.9-0.3,19.4-0.2c2.8,0.1,3.9-0.8,3.7-3.6c-0.3-6.9,0.3-13.9-0.3-20.8
			c0.3,0,0.7,0,1,0c0,3.6,0.1,7.2,0.1,10.9c0.4,2.3,0.4,4.7,0,7.1c-0.3,8-0.3,8-8.3,8c-4.7,0-9.3,0-14,0
			C720.3,599.1,718.7,599.9,719.3,597.9z"/>
		<path style="fill:#B30101;" d="M475.9,597.8c7.5-0.3,14.9-0.4,22.5,0.1c0.4,0.3,1,0.6,1.9,1.2c-8.2,0-15.8,0-23.5,0
			C475.8,599.1,475.6,598.7,475.9,597.8z"/>
		<path style="fill:#B30201;" d="M621.4,597.8c7.5,0.2,14.9-0.6,22.3,0.3c0.3,0.1,0.8-0.3,1.2-0.6c0.7,0.3,1,0.9,1,1.6
			c-7.4,0-14.8,0.1-22.2-0.1C622.9,599.1,620.9,600.3,621.4,597.8z"/>
		<path style="fill:#B30201;" d="M670.3,597.8c7.6,0,15.4-0.1,23-0.1c-0.1,1-0.8,1.4-1.7,1.4c-6.8,0-13.6,0-20.4,0
			C670.2,599.1,669.9,598.7,670.3,597.8z"/>
		<path style="fill:#B30101;" d="M596.3,597.7c0.2,0.4,0.3,1,0.6,1.4c-7,0-14.1,0-21-0.1c-0.6,0-2.5,1.2-2.1-1.1
			C581.3,597.4,588.8,597.7,596.3,597.7z"/>
		<path style="fill:#B30202;" d="M450.8,597.7c0.2,0.4,0.4,1,0.6,1.4c-7.5,0-14.9,0-22.3,0c-1.6-2.5,1-1.5,1.5-1.5
			C437.3,597.7,444.1,597.7,450.8,597.7z"/>
		<path style="fill:#A80406;" d="M499.8,597.1c0-3.8-0.2-7.6-0.1-11.5c0-1.8-0.7-2.5-2.5-2.5c-3.5-0.1-6.9,0.4-10.3-0.3
			c0.6-1.1,2-0.1,2.8-1c0.7,0,1.4,0,2.1,0c2.6,1,5.3-0.2,7.9,0.6c0.3,0,0.5,0.1,0.7,0.1c1,0.4,1.5,1,0.8,2.1c0,3.6,0,7.1-0.1,10.7
			C501.1,596.2,501.7,597.6,499.8,597.1z"/>
		<path style="fill:#B30201;" d="M524.8,597.8c6.6,0.2,13.1-0.8,19.7,0.3c1,0.2,1.7-0.9,2.7-0.3c0.2,0.4,0.4,0.8,0.6,1.2
			c-7,0-14.1,0-21.1-0.1C526.2,599.1,524.3,600.2,524.8,597.8z"/>
		<path style="fill:#D90101;" d="M717.8,581.9c-0.4,2.1-2.1,1.1-3.2,1.2c-5.4,0.3-10.8-0.5-16.1,0.4c0.4-0.6-1.4-2.2,0.9-2
			C705.4,582.2,711.6,581.7,717.8,581.9z"/>
		<path style="fill:#EFC3C3;" d="M568,593.7c0,1,0,2,0,3c-1.3,2.6-3.2,1.8-5.2,1c-0.5-1.7-0.6-3.6,0.2-5.3
			C564.9,591.8,566.8,591.1,568,593.7z"/>
		<path style="fill:#B40000;" d="M479.4,582.8c0-0.3,0.1-0.6,0.1-1c0.3,0,0.4,0,0.7,0c1.7,1,0.9,2.7,1,4.2c0.2,1.7-0.4,3.5,0.3,5.2
			c0.3,0,0.5,0,0.7,0c1.5-1.1,3.1-0.7,4.8-0.5c0.9,0.3,1.6-0.3,2.3-0.3c1.5-0.1,2.9-0.2,4.2,0.5c0.5,0.5,0.6,1,0.2,1.6
			c-1.1,0.1-2.3,0.3-3.5,0.3c-3,0-6.4,0.9-8.8-0.3c-3.1-1.5-0.5-5.4-1.4-8.1C480,583.8,479.8,583.3,479.4,582.8z"/>
		<path style="fill:#F7DBDA;" d="M761.8,595.3c0.3,1.9-0.8,2.4-2.5,2.5c-1.8,0-2.6-0.5-2.6-2.4c0-2,0.7-2.8,2.7-2.7
			C761.3,592.7,762,593.5,761.8,595.3z"/>
		<path style="fill:#F5C4C3;" d="M660.9,598c-1.8-2.2-2.5-4.2,0.7-5.6c0.8-0.4,1.6-0.4,2.3,0c1.2,1.8,1.1,3.7,0,5.6
			C663,598.4,661.9,598.4,660.9,598z"/>
		<path style="fill:#F7DBDB;" d="M465.9,597.7c-0.3-1.7-0.3-3.2,0-4.9c1.6-1.1,3.1-1.2,4.6,0c1.1,1,1.3,2.3,0.8,3.6
			C470.1,599.1,468.1,598.7,465.9,597.7z"/>
		<path style="fill:#BE1312;" d="M465.9,597.7c1.7-0.3,4.6,1.6,4.8-2.3c0.2-4.1-2.9-2.3-4.8-2.6c1.3-2.4,3.4-2,5-0.8
			c1.7,1.2,1.8,5.2,0,6.4C469.3,599.6,467.3,600,465.9,597.7z"/>
		<path style="fill:#B30202;" d="M699.8,597.9c3.4-0.1,6.8-0.2,10.2-0.3c1.3,0,2.6,0.1,3.6-1c0.1,1.5-0.2,2.5-2.1,2.5
			c-3.6-0.1-7.1,0-10.7,0C699.8,599.1,699.4,598.9,699.8,597.9z"/>
		<path style="fill:#DB0303;" d="M489.7,581.9c-0.7,1-1.9,0.4-2.8,1c-2.2,0.7-2,2.6-1.6,4.2s2,0.8,3.1,1c1.9,0.3,3.8-0.3,5.6,0.3
			c-1.9,1.7-3.8,1.4-5.9,0.3c-1.4-0.4-3.1,0.4-4.3-0.9c-0.3-2-1.4-4.1,0.7-5.7c0.5-0.4,1-0.4,1.5,0
			C487.2,581.9,488.4,581.9,489.7,581.9z"/>
		<path style="fill:#B80303;" d="M779.6,599.1c0.3-1.7,1.7-1.4,2.8-1.4c2.7,0,5.5,0,8.2-0.1c0.7,1.4-0.2,1.6-1.3,1.6
			C786.1,599.1,782.8,599.1,779.6,599.1z"/>
		<path style="fill:#D90101;" d="M488.2,588.5c2-0.1,3.9-0.2,5.9-0.3l0,0c0.3,1,0.5,2-0.1,3c-1.4,0-2.9,0-4.3,0
			c-0.4-0.5-1-0.9-1.5-1.4C488.2,589.3,488.2,588.9,488.2,588.5z"/>
		<path style="fill:#B60000;" d="M519.1,591.9c-2.9,0.3-5.7-0.6-8.5,0.6c-1.4-1.1-1.5-1.9-0.6-4.2c0.4,2.3,1.7,3.2,4.1,3
			C515.7,591.1,517.6,590.5,519.1,591.9z"/>
		<path style="fill:#B30201;" d="M504,598.4c5,0,10.1,0,15.1,0C514.1,599.6,509,599.6,504,598.4z"/>
		<path style="fill:#D90101;" d="M503.9,586.2c0,2.3,0,4.8,0,7.1C501.8,591,501.8,588.5,503.9,586.2z"/>
		<path style="fill:#B50202;" d="M785.4,591.8c-2.5,1.7-5,1.8-7.3-0.5C780.7,591.4,783.1,590.7,785.4,591.8z"/>
		<path style="fill:#B70506;" d="M562.8,597.7c1.8-0.1,3.7,0.6,5.2-1c0.1,1.5-0.3,2.7-2,2.3C565,598.9,563,600.4,562.8,597.7z"/>
		<path style="fill:#B80102;" d="M568,593.7c-1.4-1.7-3.4-0.9-5-1.1c0.3-2.7,2.3-1,3.4-1.2C568,591,568.1,592.4,568,593.7z"/>
		<path style="fill:#B30201;" d="M650.2,597.7c1.7-0.1,3.5,0.5,5-0.8c0,1,0.1,2.3-1.4,2.3C652.5,599,650.6,600,650.2,597.7z"/>
		<path style="fill:#D90101;" d="M481.7,591.2c-1.4-1.7-0.5-3.6-0.7-5.6c-0.1-1.3,0-2.6-0.8-3.8c1.7,0.2,1.5,1.6,1.5,2.7
			C481.7,586.7,481.7,589,481.7,591.2z"/>
		<path style="fill:#D90101;" d="M487.4,591.2c-1.7,0-3.4,0-5,0c1.4-2.4,3.2-1.7,5-0.7c0.3,0.2,0.3,0.3,0.3,0.4
			C487.6,591.1,487.5,591.2,487.4,591.2z"/>
		<path style="fill:#D90101;" d="M486,581.9c-0.5,0-1,0-1.5,0c1.7-2.9,4.3-0.9,7.2-1.5C489.5,581.8,487.4,580.3,486,581.9z"/>
		<path style="fill:#D90101;" d="M484.5,581.9c-1.1,1.8-0.6,3.8-0.7,5.7c-1.2-1.2-0.7-2.9-1.1-4.3
			C482.5,582.5,483,581.1,484.5,581.9z"/>
		<path style="fill:#DB0303;" d="M499.7,582.5c-2.6-0.3-5.4,0.8-7.9-0.6C494.4,582.2,497.1,581.2,499.7,582.5z"/>
		<path style="fill:#B90100;" d="M748.7,597.9c1-0.1,2-0.2,3-0.3c-0.4,2.3-2.3,1.3-3.6,1.3C748.3,598.6,748.5,598.3,748.7,597.9z"/>
		<path style="fill:#D90101;" d="M743.1,591.1c0-2.3,0-4.7,0-7.1C744.2,586.5,744.2,588.8,743.1,591.1z"/>
		<path style="fill:#B40200;" d="M660.9,598c1,0,2.1,0,3,0c0.5,1.6-0.7,1.1-1.4,1C661.9,599,660.4,599.9,660.9,598z"/>
		<path style="fill:#B80100;" d="M663.9,592.4c-0.8,0-1.6,0-2.3,0c-0.2-0.3-0.9-1-0.6-1C662,591.6,663.7,590.1,663.9,592.4z"/>
		<path style="fill:#D90101;" d="M455,576.8c0,0.7,0,1.5,0,2.2c-0.9-0.1-1.8-0.3-1.8-1.2C453.2,576.6,454.3,576.9,455,576.8z"/>
		<path style="fill:#DB0303;" d="M501.1,584.7c-0.3-0.7-0.5-1.4-0.8-2.1c0.7-0.3,1.6-0.8,1.9,0.3
			C502.6,583.9,501.8,584.4,501.1,584.7z"/>
		<path style="fill:#B80100;" d="M456.5,598.4c1.5,0,2.9,0,4.3,0C459.3,599.5,458,599.5,456.5,598.4z"/>
		<path style="fill:#DB0303;" d="M487.4,591.2c0-0.3,0-0.4,0-0.7c0.3-0.3,0.5-0.5,0.7-0.7c1,0,1.4,0.5,1.5,1.4
			C488.9,591.2,488.2,591.2,487.4,591.2z"/>
		<path style="fill:#ECC8C9;" d="M853.9,597.8c-0.3-1.7-0.3-3.5,0-5.2c1.8-1,3.6-1.3,5,0.8c0,1.2,0,2.4,0,3.6
			C857.6,599,855.8,598.6,853.9,597.8z"/>
		<path style="fill:#B30203;" d="M853.9,597.8c1.7-0.1,3.6,0.5,5.1-0.8C858.1,599.7,856.2,600,853.9,597.8z"/>
		<path style="fill:#B60102;" d="M859,593.4c-1.6-1.2-3.4-0.6-5-0.8C856.2,590.4,858.1,590.6,859,593.4z"/>
		<path style="fill:#298B40;" d="M862.6,320.5c-5.7,0-11.5,0-17.2,0C851.1,320.2,856.8,318.9,862.6,320.5L862.6,320.5z"/>
		<path style="fill:#139632;" d="M860.2,349.8c-5.2,0-10.4,0-15.6,0c0-0.1,0-0.3,0-0.3c5.2,0,10.4,0,15.6,0
			C860.2,349.6,860.2,349.7,860.2,349.8z"/>
		<path style="fill:#129731;" d="M848.7,346.7c-1.7,0.6-2.8,0.5-4,0C845.8,346.7,846.9,346.7,848.7,346.7z"/>
		<path style="fill:#109732;" d="M858.2,346.4c0,0.3,0,0.4,0,0.7c-1.5,0-2.9,0-4.3,0c0-0.3,0-0.4,0-0.7
			C855.4,345.2,856.8,345.2,858.2,346.4z"/>
		<path style="fill:#FCF7F7;" d="M681.5,573.3c9.6,0,19.2,0,28.8,0c1.7,0,3-0.2,3,2.3c0,2.4-1.2,2.7-3.1,2.6
			c-19.1-0.1-38.1-0.1-57.2,0c-2.1,0-3-0.4-3-2.8c0-2.6,1.6-2.2,3.1-2.2C662.5,573.3,672,573.3,681.5,573.3z"/>
		<path style="fill:#FCF7F7;" d="M552.9,577.5c-0.3-3.3,0.9-4.3,4.4-4.3c18.3,0.3,36.7,0.1,55,0.1c1.7,0,4-0.9,3.9,2.5
			c-0.1,3-2.1,2.4-3.7,2.4c-18.7,0-37.4,0-56.1,0C555.2,578.3,554,578.4,552.9,577.5C552.9,577.6,552.9,577.5,552.9,577.5z"/>
		<path style="fill:#B10000;" d="M529,573.9c0.1-0.3,0.2-0.4,0.3-0.7c1.6,4.9,0.5,9.8,0.6,14.7c0.1,2.7,0.9,3.6,3.5,3.3
			c0,2.6-2,1.4-3.1,1.5c-1.2,0.1-1.4-1-1.4-2C528.8,585.1,528.9,579.5,529,573.9z"/>
		<path style="fill:#B20403;" d="M630,592.3c-3,1.3-4.3,0.4-4.3-3c0-5.3,0.5-10.7-0.3-16.1c1.7,1.4,1.7,3.3,1.5,5.2
			c-0.3,3.4,0.3,6.8-0.5,10.2C625.5,591.9,629.4,590.5,630,592.3z"/>
		<path style="fill:#B60403;" d="M542.9,591.9c-3.5,1.6-4.3,1.1-4.3-2.2c0-4.4,0-8.8,0-13.2c0-1.1,0.3-2.4-0.7-3.4
			c1.7,0.3,1.5,1.6,1.5,2.7c0,3.5,0.2,6.9,0,10.3C539.1,589.1,539.4,591.5,542.9,591.9z"/>
		<path style="fill:#B40303;" d="M640.1,591.3c-2.2,2.1-3.4,2.1-4.4-0.1C637.2,591.2,638.6,591.2,640.1,591.3z"/>
		<path style="fill:#B50101;" d="M727.2,592.1c-1.7,0.7-3.4,2.1-4.3-0.9C724.4,591.5,726.1,590.5,727.2,592.1z"/>
		<path style="fill:#B30000;" d="M435.6,591.2c0,0.4,0,0.9,0,1.3c-1.4-0.1-3.3,1.7-3.7-1.3C433.1,591.2,434.3,591.2,435.6,591.2z"/>
		<path style="fill:#DA0100;" d="M746.4,577.4c-0.6-1.6-0.6-2.4-0.3-3.5C747,574.8,746.5,575.8,746.4,577.4z"/>
		<path style="fill:#179936;" d="M383,330.5c-2.8,0-5.6-0.1-8.4-0.1C376.6,328.5,381,328.5,383,330.5z"/>
		<path style="fill:#2D9C48;" d="M388.1,336.4c2.9,0.3,5.8-0.8,8.6,0.7C393.8,336.7,390.9,337.8,388.1,336.4z"/>
		<path style="fill:#119831;" d="M387.3,331.3c0,1.7,0,3.3,0,5C386.2,334.6,386.2,333,387.3,331.3z"/>
		<path style="fill:#DA0100;" d="M406.8,592.1c-0.1,1.4,0.2,3-1.7,3.2c-1.7,0.1-1.3-1.5-1.2-2.3c0.1-1.1-0.7-3,1.4-3
			C407.1,589.8,406.7,591.2,406.8,592.1z"/>
		<path style="fill:#209C3D;" d="M810.8,340.7c0.2-0.7,1.4-0.9,1-1.7c-0.5-0.9-1.1-0.3-1.7,0.2c-2.3,1.5-4.9,0.5-7.3,0.7
			c-0.8,0.1-1.2-0.6-1.2-1.4c0-0.9,0.5-1.3,1.4-1.3c3.3,0,6.7-0.1,10,0c1.6,0,1.3,1.3,1.5,2.3c0.3,2.3-0.8,4.8,0.7,6.9
			c0.3,0.2,0.3,0.3,0.3,0.4c-0.1,0.2-0.2,0.3-0.3,0.3c-3-0.9-1.7-3.6-2.3-5.6c-1.2,1.2,0.3,3.2-1.2,4.3
			C810.5,344.1,811.7,342.3,810.8,340.7z"/>
		<path style="fill:#109731;" d="M796.9,347.2c4.1-1.8,8.3-0.3,12.3-0.9c0,0.3,0,0.6,0,0.9C805.2,347.2,801,347.2,796.9,347.2
			L796.9,347.2z"/>
		<path style="fill:#119731;" d="M810.8,340.7c1.3,1.5,0.4,3.3,0.7,5C810.1,344.2,811.1,342.4,810.8,340.7z"/>
		<path style="fill:#0F972F;" d="M815.1,347.1c0-0.3,0-0.4,0-0.7c1.4,0,2.8,0,4.2,0c0,0.3,0,0.4,0,0.7
			C817.8,347.1,816.5,347.1,815.1,347.1z"/>
		<path style="fill:#139632;" d="M334.2,349.4c6.6,0,13.3,0,19.9,0c0,0.3,0,0.4,0,0.7c-6.2,0-12.4,0-18.6,0
			C335,350,334.4,349.9,334.2,349.4z"/>
		<path style="fill:#119631;" d="M354.2,346.4c-1.9,1.5-4.2,0.6-6.2,0.7c-4.6,0.1-9.3,0-13.9,0c2.7-1.4,5.6-0.5,8.3-0.6
			C346.4,346.3,350.3,346.4,354.2,346.4z"/>
		<path style="fill:#239E41;" d="M858.2,346.4c-1.4,0-2.9,0-4.3,0c-1.4-1.4-0.6-3.2-0.7-4.8c-0.1-1.4,0.4-2.2,2.2-1.8
			c1.5,0.3,3.5,1,4.1-1.6c0-0.2,0.6-0.3,0.9-0.3c0.3,0.1,0.6,0.7,0.6,0.7c-2.2,2.1-0.3,5.3-2.1,7.6
			C858.8,346.4,858.5,346.4,858.2,346.4z"/>
		<path style="fill:#E01A1A;" d="M420,588c8.3-0.4,7-1.2,6.9,7.8c-2-0.5-2.5-2.4-3.6-3.6C422.3,591.1,421.3,589.7,420,588z"/>
		<path style="fill:#D5A0A0;" d="M414.4,587.8c-1,0.9-1.6,1.9-2.3,1.3c-0.8-0.6,0.1-1.2,0.8-1.5
			C413.3,587.6,413.7,587.7,414.4,587.8z"/>
		<path style="fill:#DB0303;" d="M493.9,591.2c0-1,0.1-2,0.1-3c1.4,1.5,1.4,2.9-0.1,4.3C493.9,592,493.9,591.7,493.9,591.2z"/>
		<path style="fill:#B60001;" d="M591.1,591.1c0.2,0,0.3,0.1,0.5,0.1c0.3,1.1-0.3,1.6-1.4,1.6c-3.8,0-7.6,0-11.5,0
			c-1,0-1.6-0.4-1.3-1.6C582,590.3,586.5,590.3,591.1,591.1z"/>
		<path style="fill:#DA0100;" d="M591.1,591.1c-4.5,0-9.1,0-13.6,0.1c0-0.5,0-1,0-1.5c3.8,0.2,7.7,0.4,11.6,0
			C590.1,589.7,590.9,589.8,591.1,591.1z"/>
		<path style="fill:#FCF7F7;" d="M518.9,573.4c0.3,4.9,0.3,4.9-4.6,4.9c-18.2,0-36.5,0-54.6,0c-1.4,0-3.3,0.8-3.6-1.7
			c-0.2-1.9-0.1-3.2,2.5-3.1C478.6,573.4,498.8,573.4,518.9,573.4l0.2-0.1L518.9,573.4z"/>
		<path style="fill:#D9EADD;" d="M858.8,343.1c0.3,1.8-0.5,2.6-2.3,2.6c-1.8,0-3-0.3-2.9-2.5c0.1-1.7,0.3-2.8,2.3-2.7
			C857.9,340.5,859.1,340.9,858.8,343.1z"/>
	</g>
</g>
</svg>
