<?xml version="1.0" encoding="utf-8"?>
<!-- Generator: Adobe Illustrator 23.0.1, SVG Export Plug-In . SVG Version: 6.00 Build 0)  -->
<svg version="1.1" id="OBJECTS" xmlns="http://www.w3.org/2000/svg" xmlns:xlink="http://www.w3.org/1999/xlink" x="0px" y="0px"
	 viewBox="0 0 500 170" style="enable-background:new 0 0 500 170;" xml:space="preserve">
<g>
	<radialGradient id="XMLID_2_" cx="438.5359" cy="101.3376" r="71.1904" gradientUnits="userSpaceOnUse">
		<stop  offset="4.795011e-07" style="stop-color:#95B9FC"/>
		<stop  offset="1" style="stop-color:#2874A6"/>
	</radialGradient>
	<path id="XMLID_48_" style="fill:url(#XMLID_2_);" d="M406,43c1.6-0.2,3.4,0.1,4.7,0.1c3.7,0.1,7.4,0.2,11.2,0.4
		c7.4,0.3,14.9,0.8,22.3,1.5c4.1,0.4,8.1,0.8,12.1,1.8c21.1,5.5,32,22.7,33.6,41.4c0.5,5.4,0.6,19.6-9.2,32.3
		c-9.1,11.8-21.5,15.7-29.2,17c-6.9,1.2-28.2,0.9-38.2,0c-10-0.9-31.9-5.2-32.1-39.4C381,79.2,381,67,381,59.9c0-7.1-4-8.8-8.9-3.6
		c-4.7,5-9.6,15.4-9.6,37.3v65.4c0,0.8-0.2,1.5-0.6,2.1c-1.4,2.4-6,5.1-9.8,0.4c-0.6-0.7-1-2-1-2.8c0,0,0-84.1,0.1-86
		c0.2-4.3,3.3-30,35-29.3c2.2,0.1,4,1.7,4,3.9c0,10.8,0,40.2,0,51.1c0,3.1,0.5,7.7,1.5,10.6c2,5.9,8,16.8,15.5,20.5
		c1,0.5,1.9-0.7,1.2-1.5c-7.6-9-24.5-44,6.2-64.2c2.2-1.5,5.9-3.1,8.5-3.7c6.5-1.5,13.2-2.1,19.8-1.2c8.9,1.3,17.3,6.4,22.6,13.9
		c3.1,4.4,4.5,7.6,5.5,12.1c1.3,6.1,0.6,12.4-2.2,17.9c-2.1,4-5,7.6-8.4,10.5c-0.4,0.3-3.3,3-4,2.5c-0.3-0.2,1-1.8,2-3.6
		c3.8-6.8,8.4-23.2-1.5-34.6c-8.1-9.3-21.9-11-31.4-7.8c-3.6,1.2-7.4,3.2-10.6,6.2c-1.4,1.3-8.8,7.2-8.8,18.7c0,6,1.7,11.9,3.2,14.9
		c1.5,3,6,12,16.1,16.6c13.7,6.3,28.6,0.3,33.8-2c0.2-0.1,0.3-0.2,0.5-0.2c3.2-1.8,34-21.4,11.6-54.5c-2.5-3.6-5.8-6.7-9.5-9.1
		c-2.4-1.6-4.2-2.6-6-3.5c-3-1.4-6.2-2.2-9.4-2.6c-16.2-2-33.1-1.9-39.8-1.8c-1.3,0-2.5-0.6-3.2-1.7c-0.9-1.4-1.7-3.6-0.2-5.9
		C403.6,43.6,404.7,43.2,406,43z"/>
	<ellipse id="XMLID_47_" style="fill:#2874A6;" cx="373.8" cy="17.8" rx="11.4" ry="11.2"/>
	<g>
		<radialGradient id="SVGID_1_" cx="433.9269" cy="97.4604" r="16.8889" gradientUnits="userSpaceOnUse">
			<stop  offset="0" style="stop-color:#EFE17B"/>
			<stop  offset="1" style="stop-color:#C1AC51"/>
		</radialGradient>
		<path style="fill:url(#SVGID_1_);" d="M420.5,84.5c-1.8,0.1-3.7,0.5-5.6,1.1c0.3,2,0.8,3.8,1.5,5.5c1.6-0.8,3.3-1.3,4.9-1.5
			C420.9,88,420.6,86.3,420.5,84.5z"/>
		<radialGradient id="SVGID_2_" cx="433.9269" cy="97.4604" r="16.8889" gradientUnits="userSpaceOnUse">
			<stop  offset="0" style="stop-color:#EFE17B"/>
			<stop  offset="1" style="stop-color:#C1AC51"/>
		</radialGradient>
		<path style="fill:url(#SVGID_2_);" d="M425.6,85c0.1-1.7,0.5-3.4,1.1-5c-1.7-0.6-3.6-1-5.6-1.1c-0.5,1.9-0.7,3.8-0.7,5.7
			C422.3,84.4,424.1,84.5,425.6,85z"/>
		<radialGradient id="SVGID_3_" cx="433.9269" cy="97.4604" r="16.8889" gradientUnits="userSpaceOnUse">
			<stop  offset="0" style="stop-color:#EFE17B"/>
			<stop  offset="1" style="stop-color:#C1AC51"/>
		</radialGradient>
		<path style="fill:url(#SVGID_3_);" d="M434.3,78.1c-1.3-1.2-2.9-2.3-4.7-3.2c-1.2,1.6-2.2,3.3-2.8,5c1.7,0.6,3.2,1.4,4.6,2.4
			C432.1,80.9,433.1,79.4,434.3,78.1z"/>
		<radialGradient id="SVGID_4_" cx="433.9269" cy="97.4604" r="16.8889" gradientUnits="userSpaceOnUse">
			<stop  offset="0" style="stop-color:#EFE17B"/>
			<stop  offset="1" style="stop-color:#C1AC51"/>
		</radialGradient>
		<path style="fill:url(#SVGID_4_);" d="M437.6,82.1c1.2-1.1,2.7-2,4.4-2.8c-0.8-1.6-1.8-3.3-3.2-4.7c-1.7,1-3.3,2.2-4.5,3.5
			C435.7,79.3,436.8,80.7,437.6,82.1z"/>
		<radialGradient id="SVGID_5_" cx="433.9269" cy="97.4604" r="16.8889" gradientUnits="userSpaceOnUse">
			<stop  offset="0" style="stop-color:#EFE17B"/>
			<stop  offset="1" style="stop-color:#C1AC51"/>
		</radialGradient>
		<path style="fill:url(#SVGID_5_);" d="M448.6,83.4c-0.1-1.8-0.4-3.7-1.1-5.6c-2,0.3-3.8,0.8-5.5,1.5c0.8,1.7,1.3,3.3,1.5,4.9
			C445.1,83.8,446.8,83.5,448.6,83.4z"/>
		<radialGradient id="SVGID_6_" cx="433.9269" cy="97.4604" r="16.8889" gradientUnits="userSpaceOnUse">
			<stop  offset="0" style="stop-color:#EFE17B"/>
			<stop  offset="1" style="stop-color:#C1AC51"/>
		</radialGradient>
		<path style="fill:url(#SVGID_6_);" d="M448.1,88.6c1.7,0.1,3.4,0.5,5,1.1c0.6-1.7,1-3.6,1.1-5.6c-1.9-0.5-3.8-0.7-5.7-0.7
			C448.7,85.2,448.5,87,448.1,88.6z"/>
		<radialGradient id="SVGID_7_" cx="433.9269" cy="97.4604" r="16.8889" gradientUnits="userSpaceOnUse">
			<stop  offset="0" style="stop-color:#EFE17B"/>
			<stop  offset="1" style="stop-color:#C1AC51"/>
		</radialGradient>
		<path style="fill:url(#SVGID_7_);" d="M455,97.3c1.2-1.4,2.3-2.9,3.2-4.7c-1.6-1.2-3.3-2.2-5-2.8c-0.6,1.7-1.4,3.3-2.4,4.6
			C452.2,95,453.6,96,455,97.3z"/>
		<radialGradient id="SVGID_8_" cx="433.9269" cy="97.4604" r="16.8889" gradientUnits="userSpaceOnUse">
			<stop  offset="0" style="stop-color:#EFE17B"/>
			<stop  offset="1" style="stop-color:#C1AC51"/>
		</radialGradient>
		<path style="fill:url(#SVGID_8_);" d="M455,97.3c-1.2,1.3-2.6,2.4-4,3.3c1.1,1.2,2,2.7,2.8,4.4c1.6-0.8,3.2-1.8,4.7-3.2
			C457.5,100,456.3,98.5,455,97.3z"/>
		<radialGradient id="SVGID_9_" cx="433.9269" cy="97.4604" r="16.8889" gradientUnits="userSpaceOnUse">
			<stop  offset="0" style="stop-color:#EFE17B"/>
			<stop  offset="1" style="stop-color:#C1AC51"/>
		</radialGradient>
		<path style="fill:url(#SVGID_9_);" d="M449.6,111.5c1.8-0.1,3.7-0.5,5.6-1.1c-0.3-2-0.8-3.8-1.5-5.5c-1.7,0.8-3.3,1.3-4.9,1.5
			C449.3,108,449.6,109.7,449.6,111.5z"/>
		<radialGradient id="SVGID_10_" cx="433.9269" cy="97.4604" r="16.8889" gradientUnits="userSpaceOnUse">
			<stop  offset="0" style="stop-color:#EFE17B"/>
			<stop  offset="1" style="stop-color:#C1AC51"/>
		</radialGradient>
		<path style="fill:url(#SVGID_10_);" d="M444.5,111c-0.1,1.6-0.5,3.3-1.2,5c1.7,0.6,3.6,1,5.6,1.1c0.5-1.9,0.7-3.8,0.7-5.7
			C447.8,111.6,446.1,111.4,444.5,111z"/>
		<radialGradient id="SVGID_11_" cx="433.9269" cy="97.4604" r="16.8889" gradientUnits="userSpaceOnUse">
			<stop  offset="0" style="stop-color:#EFE17B"/>
			<stop  offset="1" style="stop-color:#C1AC51"/>
		</radialGradient>
		<path style="fill:url(#SVGID_11_);" d="M435.8,117.9c1.3,1.2,2.9,2.3,4.7,3.2c1.2-1.6,2.2-3.3,2.8-5c-1.7-0.6-3.2-1.4-4.6-2.4
			C438,115.1,437.1,116.6,435.8,117.9z"/>
		<radialGradient id="SVGID_12_" cx="433.9269" cy="97.4604" r="16.8889" gradientUnits="userSpaceOnUse">
			<stop  offset="0" style="stop-color:#EFE17B"/>
			<stop  offset="1" style="stop-color:#C1AC51"/>
		</radialGradient>
		<path style="fill:url(#SVGID_12_);" d="M432.5,113.9c-1.2,1.1-2.7,2-4.4,2.8c0.8,1.6,1.8,3.2,3.1,4.7c1.7-1,3.3-2.2,4.5-3.5
			C434.5,116.7,433.3,115.3,432.5,113.9z"/>
		<radialGradient id="SVGID_13_" cx="433.9269" cy="97.4604" r="16.8889" gradientUnits="userSpaceOnUse">
			<stop  offset="0" style="stop-color:#EFE17B"/>
			<stop  offset="1" style="stop-color:#C1AC51"/>
		</radialGradient>
		<path style="fill:url(#SVGID_13_);" d="M421.5,112.6c0.1,1.8,0.5,3.7,1.1,5.6c2-0.3,3.8-0.8,5.5-1.5c-0.8-1.6-1.3-3.3-1.5-5
			C425.1,112.2,423.4,112.5,421.5,112.6z"/>
		<radialGradient id="SVGID_14_" cx="433.9269" cy="97.4604" r="16.8889" gradientUnits="userSpaceOnUse">
			<stop  offset="0" style="stop-color:#EFE17B"/>
			<stop  offset="1" style="stop-color:#C1AC51"/>
		</radialGradient>
		<path style="fill:url(#SVGID_14_);" d="M422,107.4c-1.6-0.1-3.4-0.5-5.1-1.1c-0.6,1.7-1,3.6-1.1,5.6c1.9,0.5,3.8,0.7,5.7,0.7
			C421.4,110.8,421.6,109,422,107.4z"/>
		<radialGradient id="SVGID_15_" cx="433.9269" cy="97.4604" r="16.8889" gradientUnits="userSpaceOnUse">
			<stop  offset="0" style="stop-color:#EFE17B"/>
			<stop  offset="1" style="stop-color:#C1AC51"/>
		</radialGradient>
		<path style="fill:url(#SVGID_15_);" d="M415.2,98.7c-1.2,1.3-2.3,2.9-3.2,4.7c1.6,1.2,3.3,2.2,5,2.8c0.6-1.7,1.4-3.2,2.4-4.6
			C417.9,101,416.5,100,415.2,98.7z"/>
		<radialGradient id="SVGID_16_" cx="433.9269" cy="97.4604" r="16.8889" gradientUnits="userSpaceOnUse">
			<stop  offset="0" style="stop-color:#EFE17B"/>
			<stop  offset="1" style="stop-color:#C1AC51"/>
		</radialGradient>
		<path style="fill:url(#SVGID_16_);" d="M419.2,95.4c-1.1-1.2-2-2.7-2.7-4.4c-1.7,0.8-3.3,1.8-4.8,3.2c1,1.7,2.2,3.2,3.5,4.5
			C416.4,97.4,417.8,96.3,419.2,95.4z"/>
		<radialGradient id="SVGID_17_" cx="433.9269" cy="97.4604" r="16.8889" gradientUnits="userSpaceOnUse">
			<stop  offset="0" style="stop-color:#EFE17B"/>
			<stop  offset="1" style="stop-color:#C1AC51"/>
		</radialGradient>
		<path style="fill:url(#SVGID_17_);" d="M423.2,91.6c0.2-0.4,0.1-1.1-0.4-1.4c-0.5-0.3-1.1-0.1-1.4,0.4c-0.3,0.5-0.1,1.2,0.4,1.4
			C422.4,92.3,423,92.1,423.2,91.6z"/>
		<radialGradient id="SVGID_18_" cx="433.9269" cy="97.4604" r="16.8889" gradientUnits="userSpaceOnUse">
			<stop  offset="0" style="stop-color:#EFE17B"/>
			<stop  offset="1" style="stop-color:#C1AC51"/>
		</radialGradient>
		<path style="fill:url(#SVGID_18_);" d="M425.4,88.6c0.4-0.4,0.4-1,0-1.4c-0.4-0.4-1-0.4-1.5,0c-0.4,0.4-0.4,1.1,0,1.5
			C424.4,89,425,89,425.4,88.6z"/>
		<radialGradient id="SVGID_19_" cx="433.9269" cy="97.4604" r="16.8889" gradientUnits="userSpaceOnUse">
			<stop  offset="0" style="stop-color:#EFE17B"/>
			<stop  offset="1" style="stop-color:#C1AC51"/>
		</radialGradient>
		<path style="fill:url(#SVGID_19_);" d="M428.3,86.4c0.4-0.3,0.6-0.9,0.4-1.4c-0.2-0.5-0.9-0.7-1.4-0.4c-0.5,0.3-0.7,1-0.4,1.4
			C427.2,86.5,427.8,86.6,428.3,86.4z"/>
		<radialGradient id="SVGID_20_" cx="433.9269" cy="97.4604" r="16.8889" gradientUnits="userSpaceOnUse">
			<stop  offset="0" style="stop-color:#EFE17B"/>
			<stop  offset="1" style="stop-color:#C1AC51"/>
		</radialGradient>
		<path style="fill:url(#SVGID_20_);" d="M431.7,85c0.5-0.1,0.8-0.7,0.7-1.2c-0.1-0.6-0.7-0.9-1.3-0.8c-0.6,0.1-0.9,0.8-0.7,1.3
			C430.6,84.8,431.2,85.1,431.7,85z"/>
		<radialGradient id="SVGID_21_" cx="433.9269" cy="97.4604" r="16.8889" gradientUnits="userSpaceOnUse">
			<stop  offset="0" style="stop-color:#EFE17B"/>
			<stop  offset="1" style="stop-color:#C1AC51"/>
		</radialGradient>
		<path style="fill:url(#SVGID_21_);" d="M435.3,84.5c0.5,0,1-0.4,1-1c0.1-0.6-0.4-1.1-1-1.1c-0.6,0-1.1,0.5-1,1
			C434.3,84.1,434.8,84.5,435.3,84.5z"/>
		<radialGradient id="SVGID_22_" cx="433.9269" cy="97.4604" r="16.8889" gradientUnits="userSpaceOnUse">
			<stop  offset="0" style="stop-color:#EFE17B"/>
			<stop  offset="1" style="stop-color:#C1AC51"/>
		</radialGradient>
		<path style="fill:url(#SVGID_22_);" d="M438.9,85.1c0.5,0.1,1.1-0.1,1.3-0.7c0.2-0.5-0.1-1.1-0.7-1.3c-0.6-0.2-1.2,0.2-1.3,0.7
			C438.1,84.4,438.4,84.9,438.9,85.1z"/>
		<radialGradient id="SVGID_23_" cx="433.9269" cy="97.4604" r="16.8889" gradientUnits="userSpaceOnUse">
			<stop  offset="0" style="stop-color:#EFE17B"/>
			<stop  offset="1" style="stop-color:#C1AC51"/>
		</radialGradient>
		<path style="fill:url(#SVGID_23_);" d="M443.7,86.3c0.3-0.5,0.2-1.1-0.3-1.4c-0.5-0.3-1.2-0.1-1.4,0.4c-0.3,0.5-0.1,1.1,0.3,1.4
			C442.7,86.9,443.3,86.8,443.7,86.3z"/>
		<radialGradient id="SVGID_24_" cx="433.9269" cy="97.4604" r="16.8889" gradientUnits="userSpaceOnUse">
			<stop  offset="0" style="stop-color:#EFE17B"/>
			<stop  offset="1" style="stop-color:#C1AC51"/>
		</radialGradient>
		<path style="fill:url(#SVGID_24_);" d="M446.5,89.1c0.5-0.3,0.5-1,0.1-1.5c-0.4-0.5-1.1-0.5-1.5-0.1c-0.4,0.4-0.4,1,0,1.4
			C445.4,89.4,446,89.4,446.5,89.1z"/>
		<radialGradient id="SVGID_25_" cx="433.9269" cy="97.4604" r="16.8889" gradientUnits="userSpaceOnUse">
			<stop  offset="0" style="stop-color:#EFE17B"/>
			<stop  offset="1" style="stop-color:#C1AC51"/>
		</radialGradient>
		<path style="fill:url(#SVGID_25_);" d="M448.5,92.5c0.5-0.2,0.8-0.8,0.5-1.4c-0.3-0.5-0.9-0.7-1.4-0.4c-0.5,0.3-0.7,0.9-0.4,1.4
			C447.4,92.5,447.9,92.7,448.5,92.5z"/>
		<radialGradient id="SVGID_26_" cx="433.9269" cy="97.4604" r="16.8889" gradientUnits="userSpaceOnUse">
			<stop  offset="0" style="stop-color:#EFE17B"/>
			<stop  offset="1" style="stop-color:#C1AC51"/>
		</radialGradient>
		<path style="fill:url(#SVGID_26_);" d="M448.3,95.5c0.1,0.5,0.6,0.9,1.2,0.8c0.6-0.1,1-0.6,0.8-1.2c-0.1-0.6-0.7-0.9-1.2-0.8
			C448.5,94.5,448.2,95,448.3,95.5z"/>
		<radialGradient id="SVGID_27_" cx="433.9269" cy="97.4604" r="16.8889" gradientUnits="userSpaceOnUse">
			<stop  offset="0" style="stop-color:#EFE17B"/>
			<stop  offset="1" style="stop-color:#C1AC51"/>
		</radialGradient>
		<path style="fill:url(#SVGID_27_);" d="M449.6,98.2c-0.6,0-1,0.4-1.1,0.9c0,0.5,0.3,1,0.9,1.1c0.6,0.1,1.1-0.3,1.1-0.9
			C450.6,98.7,450.1,98.2,449.6,98.2z"/>
		<radialGradient id="SVGID_28_" cx="433.9269" cy="97.4604" r="16.8889" gradientUnits="userSpaceOnUse">
			<stop  offset="0" style="stop-color:#EFE17B"/>
			<stop  offset="1" style="stop-color:#C1AC51"/>
		</radialGradient>
		<path style="fill:url(#SVGID_28_);" d="M449,102.1c-0.5-0.2-1.1,0.1-1.3,0.6c-0.2,0.5,0.1,1.1,0.6,1.3c0.5,0.2,1.1,0,1.3-0.6
			C449.8,102.9,449.5,102.3,449,102.1z"/>
		<radialGradient id="SVGID_29_" cx="433.9269" cy="97.4604" r="16.8889" gradientUnits="userSpaceOnUse">
			<stop  offset="0" style="stop-color:#EFE17B"/>
			<stop  offset="1" style="stop-color:#C1AC51"/>
		</radialGradient>
		<path style="fill:url(#SVGID_29_);" d="M445.9,105.9c-0.3,0.4-0.2,1,0.2,1.4c0.4,0.4,1.1,0.3,1.5-0.2c0.4-0.5,0.2-1.2-0.3-1.4
			C446.8,105.4,446.2,105.5,445.9,105.9z"/>
		<radialGradient id="SVGID_30_" cx="433.9269" cy="97.4604" r="16.8889" gradientUnits="userSpaceOnUse">
			<stop  offset="0" style="stop-color:#EFE17B"/>
			<stop  offset="1" style="stop-color:#C1AC51"/>
		</radialGradient>
		<path style="fill:url(#SVGID_30_);" d="M443.4,108.6c-0.4,0.3-0.5,0.9-0.2,1.4c0.3,0.5,1,0.6,1.4,0.2c0.5-0.4,0.5-1,0.1-1.5
			C444.4,108.3,443.8,108.3,443.4,108.6z"/>
		<radialGradient id="SVGID_31_" cx="433.9269" cy="97.4604" r="16.8889" gradientUnits="userSpaceOnUse">
			<stop  offset="0" style="stop-color:#EFE17B"/>
			<stop  offset="1" style="stop-color:#C1AC51"/>
		</radialGradient>
		<path style="fill:url(#SVGID_31_);" d="M440.2,110.4c-0.5,0.2-0.7,0.8-0.6,1.3c0.2,0.5,0.8,0.8,1.3,0.6c0.6-0.2,0.8-0.9,0.5-1.4
			C441.3,110.5,440.7,110.2,440.2,110.4z"/>
		<radialGradient id="SVGID_32_" cx="433.9269" cy="97.4604" r="16.8889" gradientUnits="userSpaceOnUse">
			<stop  offset="0" style="stop-color:#EFE17B"/>
			<stop  offset="1" style="stop-color:#C1AC51"/>
		</radialGradient>
		<path style="fill:url(#SVGID_32_);" d="M436.7,111.4c-0.5,0.1-0.9,0.5-0.9,1.1c0,0.6,0.5,1,1.1,0.9c0.6-0.1,1-0.6,0.9-1.2
			C437.7,111.7,437.2,111.3,436.7,111.4z"/>
		<radialGradient id="SVGID_33_" cx="433.9269" cy="97.4604" r="16.8889" gradientUnits="userSpaceOnUse">
			<stop  offset="0" style="stop-color:#EFE17B"/>
			<stop  offset="1" style="stop-color:#C1AC51"/>
		</radialGradient>
		<path style="fill:url(#SVGID_33_);" d="M433,111.3c-0.5-0.1-1,0.3-1.2,0.8c-0.1,0.5,0.2,1.1,0.9,1.2c0.6,0.1,1.1-0.3,1.2-0.9
			C433.9,111.9,433.5,111.4,433,111.3z"/>
		<radialGradient id="SVGID_34_" cx="433.9269" cy="97.4604" r="16.8889" gradientUnits="userSpaceOnUse">
			<stop  offset="0" style="stop-color:#EFE17B"/>
			<stop  offset="1" style="stop-color:#C1AC51"/>
		</radialGradient>
		<path style="fill:url(#SVGID_34_);" d="M429.5,110.2c-0.5-0.2-1.1,0-1.3,0.5c-0.3,0.5-0.1,1.1,0.5,1.4c0.6,0.3,1.2,0,1.4-0.5
			C430.2,111,430,110.5,429.5,110.2z"/>
		<radialGradient id="SVGID_35_" cx="433.9269" cy="97.4604" r="16.8889" gradientUnits="userSpaceOnUse">
			<stop  offset="0" style="stop-color:#EFE17B"/>
			<stop  offset="1" style="stop-color:#C1AC51"/>
		</radialGradient>
		<path style="fill:url(#SVGID_35_);" d="M425,108.4c-0.4,0.4-0.4,1.1,0.1,1.5c0.5,0.4,1.1,0.3,1.5-0.1c0.3-0.5,0.3-1.1-0.1-1.4
			C426,108,425.4,108,425,108.4z"/>
		<radialGradient id="SVGID_36_" cx="433.9269" cy="97.4604" r="16.8889" gradientUnits="userSpaceOnUse">
			<stop  offset="0" style="stop-color:#EFE17B"/>
			<stop  offset="1" style="stop-color:#C1AC51"/>
		</radialGradient>
		<path style="fill:url(#SVGID_36_);" d="M422.6,105.3c-0.5,0.3-0.6,0.9-0.3,1.4s1,0.6,1.4,0.2c0.4-0.3,0.5-1,0.2-1.4
			C423.7,105.2,423.1,105,422.6,105.3z"/>
		<radialGradient id="SVGID_37_" cx="433.9269" cy="97.4604" r="16.8889" gradientUnits="userSpaceOnUse">
			<stop  offset="0" style="stop-color:#EFE17B"/>
			<stop  offset="1" style="stop-color:#C1AC51"/>
		</radialGradient>
		<path style="fill:url(#SVGID_37_);" d="M421.1,101.6c-0.5,0.1-0.9,0.7-0.7,1.3c0.2,0.6,0.8,0.9,1.3,0.6c0.5-0.2,0.8-0.8,0.6-1.3
			C422.1,101.8,421.6,101.5,421.1,101.6z"/>
		<radialGradient id="SVGID_38_" cx="433.9269" cy="97.4604" r="16.8889" gradientUnits="userSpaceOnUse">
			<stop  offset="0" style="stop-color:#EFE17B"/>
			<stop  offset="1" style="stop-color:#C1AC51"/>
		</radialGradient>
		<path style="fill:url(#SVGID_38_);" d="M421.6,98.7c0-0.5-0.5-0.9-1-1c-0.6,0-1,0.5-1,1.1c0,0.6,0.6,1,1.1,1
			C421.3,99.7,421.7,99.2,421.6,98.7z"/>
		<radialGradient id="SVGID_39_" cx="433.9269" cy="97.4604" r="16.8889" gradientUnits="userSpaceOnUse">
			<stop  offset="0" style="stop-color:#EFE17B"/>
			<stop  offset="1" style="stop-color:#C1AC51"/>
		</radialGradient>
		<path style="fill:url(#SVGID_39_);" d="M420.8,95.8c0.6,0.1,1.1-0.3,1.2-0.8c0.1-0.5-0.2-1-0.7-1.2c-0.5-0.2-1.1,0.2-1.3,0.8
			C419.8,95.2,420.2,95.7,420.8,95.8z"/>
		<radialGradient id="SVGID_40_" cx="433.9269" cy="97.4604" r="16.8889" gradientUnits="userSpaceOnUse">
			<stop  offset="0" style="stop-color:#EFE17B"/>
			<stop  offset="1" style="stop-color:#C1AC51"/>
		</radialGradient>
		<path style="fill:url(#SVGID_40_);" d="M446.5,102.3c2.4-6.3-0.9-13.3-7.2-15.7c-6.3-2.4-13.3,0.9-15.7,7.2
			c-2.4,6.3,0.9,13.4,7.2,15.7C437.1,111.8,444.2,108.6,446.5,102.3z M431.8,106.8c-4.9-1.8-7.4-7.3-5.5-12.1
			c1.8-4.9,7.2-7.4,12.1-5.5c4.9,1.8,7.4,7.2,5.6,12.1C442.1,106.2,436.7,108.7,431.8,106.8z"/>
	</g>
	<g>
		<linearGradient id="XMLID_3_" gradientUnits="userSpaceOnUse" x1="294.7674" y1="77.5999" x2="388.2148" y2="77.5999">
			<stop  offset="0" style="stop-color:#EFE17B"/>
			<stop  offset="1" style="stop-color:#C1AC51"/>
		</linearGradient>
		<path id="XMLID_46_" style="fill:url(#XMLID_3_);" d="M388.2,35.7c0,0.4,0,0.8,0,1.2c-0.3,2.1-2.3,3.6-4.4,3.6
			C371.5,40.6,327,41,327,41s19.8,7.5,20.7,38.3c0.9,29.6-30.8,42.1-45.3,44.1c-1.7,0.2-6.8,0.5-5-0.7c6.3-4.1,39.7-24.6,42.2-43.1
			c2-23.2-32.8-39.7-40.1-39.5c-6.3,0.3-6.1-8.6-0.6-8.7c12.4,0,65.3,0.2,84.3,0.1C385.6,31.6,387.9,33.3,388.2,35.7z"/>
		<linearGradient id="XMLID_4_" gradientUnits="userSpaceOnUse" x1="330.0252" y1="118.657" x2="348.6378" y2="118.657">
			<stop  offset="0" style="stop-color:#EFE17B"/>
			<stop  offset="1" style="stop-color:#C1AC51"/>
		</linearGradient>
		<ellipse id="XMLID_45_" style="fill:url(#XMLID_4_);" cx="339.3" cy="118.7" rx="9.3" ry="9.2"/>
		<linearGradient id="XMLID_5_" gradientUnits="userSpaceOnUse" x1="329.7685" y1="136.4677" x2="348.3811" y2="136.4677">
			<stop  offset="0" style="stop-color:#EFE17B"/>
			<stop  offset="1" style="stop-color:#C1AC51"/>
		</linearGradient>
		<ellipse id="XMLID_44_" style="fill:url(#XMLID_5_);" cx="339.1" cy="136.5" rx="9.3" ry="9.2"/>
		<linearGradient id="XMLID_6_" gradientUnits="userSpaceOnUse" x1="330.282" y1="154.2784" x2="348.8946" y2="154.2784">
			<stop  offset="0" style="stop-color:#EFE17B"/>
			<stop  offset="1" style="stop-color:#C1AC51"/>
		</linearGradient>
		<ellipse id="XMLID_43_" style="fill:url(#XMLID_6_);" cx="339.6" cy="154.3" rx="9.3" ry="9.2"/>
	</g>
</g>
<g>
	<path style="fill:#424242;" d="M188.4,49.5c0.9-0.4,1.4-1.4,1-2.4c-0.4-0.9-1.4-1.4-2.3-1c-1.1,0.4-21.9,9.9-28,24.3
		c-3.4-7.4-10.4-19.5-25.8-23.4c-0.9-0.2-1.9,0.4-2.1,1.4c-0.2,1,0.4,2,1.3,2.2c21.8,5.2,25.2,22.9,25.3,23.1
		c0.2,0.8,0.9,1.3,1.7,1.3c0.1,0,0.1,0,0.2,0c0.8-0.1,1.5-0.8,1.6-1.6C162.6,58,188.1,49.6,188.4,49.5z"/>
	<path style="fill:#424242;" d="M50.2,80.9c-0.3,0-0.5,0-0.7,0.1c-0.5,0.3-0.9,1.1-1.1,2.4c-0.2,1.3-0.7,2.3-1.4,2.9
		c-0.7,0.7-1.9,1-3.5,1.1c0,0,0,0,0,0c-0.7,0-1.2,0-1.7,0c-0.5,0-1-0.1-1.4-0.1c-0.4-0.1-0.7-0.1-1-0.2c-0.3,0-0.6-0.1-0.8-0.1
		c-0.8,0.1-1.2,0.5-1.2,1.2v0c0,0.4,0.2,0.7,0.7,1.1c1.5,0.7,2.2,1.2,2.2,1.5c0,0.4-0.8,1.2-2.4,2.3c-0.9,0.6-2,1.1-3.3,1.6
		c-2.9,0.9-5.4,1.3-7.6,1.3h-0.7c-1.6,0-3.1-0.3-4.3-1c-1.4-0.9-2.2-1.9-2.2-2.9c0-1.2,0.7-2.6,2.2-4.2c1.8-1.6,3.1-2.7,4.1-3.2
		c1.6-1.1,3.6-1.8,5.9-2.2c-0.3,0.4-0.5,0.7-0.5,0.9c0.1,0.8,0.5,1.2,1.2,1.2h0.1l0.3-0.1c1.6-1.5,2.4-2.6,2.4-3.4l0-0.2
		c-0.1-0.5-0.5-0.8-1.2-0.8h-0.4c-1.5,0-3.6,0.7-6.5,2c-1.4,0.5-3.2,1.7-5.2,3.3c-2.9,2.6-4.3,4.8-4.3,6.6v0.3
		c0,0.4,0.1,0.9,0.2,1.4c1,2.8,3.7,4.3,8.2,4.3c2.9,0,5.8-0.5,8.7-1.4c2.1-0.7,3.7-1.6,5-2.5c2-1.2,2.9-2.3,2.9-3.2
		c0-0.4-0.1-0.8-0.4-1.3l0.9,0h0.4c0,0,0,0,0.1,0c1.2,0,2.4-0.1,3.4-0.6c1-0.5,1.9-1.1,2.5-2c0.6-0.8,1.1-2.1,1.5-3.9
		C51.3,81.9,51.1,81.1,50.2,80.9z"/>
	<path style="fill:#424242;" d="M49,78.2h0.3c0.8-0.2,1.3-0.5,1.3-1v-0.3c-0.5-0.9-1.1-1.4-1.8-1.4c-0.7,0.1-1.1,0.4-1.1,1
		C47.9,77.6,48.3,78.2,49,78.2z"/>
	<path style="fill:#424242;" d="M55.1,90.5L55.1,90.5c0.5,0,0.9-0.3,1.1-0.9l0.4-4.9c0.6-5.9,0.9-9.2,0.9-9.9l0-0.2
		c-0.2-0.6-0.6-0.9-1.1-0.9h-0.1c-0.7,0.2-1,0.6-1,1.1c0,1.3-0.1,3.2-0.3,5.7c0,1.2-0.3,4.2-0.9,9C54,90,54.4,90.4,55.1,90.5z"/>
	<path style="fill:#424242;" d="M73,80.9c-0.3,0-0.5,0-0.7,0.1c-0.5,0.3-0.9,1.1-1.1,2.4c-0.2,1.3-0.7,2.3-1.4,2.9
		c-0.7,0.6-1.8,1-3.2,1.1c-0.2-0.1-0.4-0.3-0.5-0.5c-0.2-0.4-0.1-0.8,0.1-1.3c0.2-0.5,0.5-1.1,0.7-1.8c0.3-0.7,0.4-1.1,0.4-1.4v0
		c0-0.2,0-0.3-0.1-0.5c-0.2-0.4-0.6-0.6-1-0.6c-0.5-0.1-1,0.4-1.3,1.5c-0.3,1.1-1,2.5-2.1,4.1c-0.9,1.3-2,2.7-3.3,4.2
		c-0.4,0.6-1.5,1.8-3.3,3.5c-1.7,1.6-2.5,2.4-2.5,2.5c-0.4,0.4-0.6,0.7-0.6,1.1v0.1c0,0.1,0,0.2,0.1,0.4c0.2,0.5,0.6,0.7,1,0.7
		c0.2,0,0.3,0,0.4-0.1c0.1,0,0.4-0.2,0.7-0.6c0.8-0.8,1.7-1.8,2.7-2.9c2.5-2.7,4.6-5.2,6.1-7.6c0.1,0.7,0.6,1.2,1.4,1.4
		c0.1,0.1,0.3,0.1,0.5,0.1c1.3,0.1,2.4-0.1,3.5-0.6c1-0.5,1.9-1.1,2.5-2c0.6-0.8,1.1-2.1,1.5-3.9C74.1,81.9,73.8,81.1,73,80.9z"/>
	<path style="fill:#424242;" d="M73.4,93.3c-0.2-0.1-0.4-0.2-0.7-0.1c-2.6,0-4.6,0.1-6,0.4c-1,0.2-1.6,0.6-1.6,1.3
		c0,0.5,0.5,0.7,1.4,0.7h0.1c3.7-0.4,5.9-0.7,6.4-0.9c0.3-0.1,0.4-0.3,0.5-0.4c0.1-0.2,0.1-0.3,0.1-0.5
		C73.7,93.5,73.5,93.4,73.4,93.3z"/>
	<path style="fill:#424242;" d="M79.1,73.6H79c-0.7,0.2-1,0.6-1,1.1c0,1.3-0.1,3.2-0.3,5.7c0,1.2-0.3,4.2-0.9,9c0,0.6,0.4,1,1.2,1.1
		h0c0.5,0,0.8-0.3,1.1-0.9l0.4-4.9c0.6-5.9,0.9-9.2,0.9-9.9l0-0.2C80.1,74,79.7,73.6,79.1,73.6z"/>
	<path style="fill:#424242;" d="M132.4,74.7h-0.5c-1.4,0-3.6,0.4-6.5,1.2c-2.7,0.6-4.1,1.4-4.1,2.6v0c0,0.5,0.2,1,0.6,1.5
		c0.5,0.6,1.2,1.1,1.9,1.6c2.4,1.6,3.6,2.9,3.6,3.7c0,0.9-1,1.9-3,3c-1.2,0.6-2.8,1.1-4.7,1.6c-3.6,0.7-7.3,1.1-10.9,1.1
		c-3.6,0-7-0.4-10.2-1.2c-2.5-0.6-4.1-1.2-5-1.8c-2.1-1.3-3.1-2.7-3.1-4.1v-0.2c0-1.1,0.8-2.4,2.3-3.9c1.2-1,2.4-1.8,3.5-2.4
		c4.6-2.4,9.4-3.6,14.4-3.6c1.1,0,2.1,0.1,3.1,0.3v0c-0.1,0.2-0.2,0.3-0.2,0.4v0.3c0.2,0.6,0.5,0.9,1.1,0.9h0.1l0.3,0
		c0.9-0.6,1.4-1.2,1.4-1.8v-0.1c0-0.3-0.1-0.5-0.2-0.7c-0.7-0.9-2.4-1.4-5.3-1.4c-5.8,0-11.3,1.5-16.5,4.4c-0.8,0.5-1.8,1.1-2.8,1.9
		c-2,1.9-3.1,3.8-3.1,5.7V84c0,2.5,1.7,4.5,5.2,6c4.7,1.9,10,2.8,15.8,2.8h0.7c3.3,0,6.7-0.3,10-1c2.1-0.5,3.6-0.9,4.5-1.3
		c3.2-1.3,4.9-3,4.9-5.1v-0.3c0-1.7-1.5-3.5-4.4-5.3c-0.8-0.5-1.2-0.8-1.2-1c0-0.1,0.3-0.3,0.8-0.6c3-1,5.3-1.4,7.1-1.4l0.7,0.1
		l0.2,0c0.6-0.2,0.9-0.5,0.9-1.1v0l0-0.3C133.6,75,133.2,74.7,132.4,74.7z"/>
	<path style="fill:#424242;" d="M152.2,81.9c-2.8-0.3-4.9-0.5-6.2-0.5c-0.4,0-0.7,0.2-0.9,0.7c-0.7,0.3-1.5,0.7-2.2,1.4
		c-1.2,1.2-1.8,2.3-1.8,3.4c0,0.1,0,0.3,0.1,0.4c-0.3,0-0.7,0-1.3,0.1c0,0,0,0,0,0c0,0,0,0-0.1,0c-1,0-1.5-0.7-1.8-2v-0.3
		c0-1.3,1.1-3.2,3.2-5.8c1.1-1.1,1.7-1.9,1.7-2.3v-0.2c-0.2-0.6-0.5-0.9-1-0.9h-0.4l-0.4,0.2c-3.5,3.7-5.3,6.8-5.3,9.2v0.2l0.1,1.2
		c0.7,2,1.9,3.1,3.8,3.1c0.1,0,0.1,0,0.2,0c0,0,0.1,0,0.1,0c1.6,0.1,3.2,0,4.6-0.3c0,0,0.5,0.1,1.6,0.1c1,0,2-0.1,3-0.2
		c2.2-0.3,3.6-0.7,4.3-1.2c1.6-1,2.5-2.1,2.5-3.4C155.8,83.2,154.6,82.3,152.2,81.9z M147.5,85.5c-1.4,1.3-2.6,2-3.7,2
		c-0.4,0-0.5-0.1-0.5-0.3c0-0.2,0.1-0.5,0.3-0.8c1-1.6,2.2-2.4,3.6-2.4c0.6,0,1,0.1,1.2,0.3C148.3,84.5,148,84.9,147.5,85.5z
		 M151.9,86.3c-0.7,0.3-1.6,0.5-2.7,0.6c0.9-1.1,1.3-2,1.3-2.6c0-0.1,0-0.3-0.1-0.4v0l0.9,0.1c1.5,0.2,2.2,0.4,2.2,0.6
		C153.5,85.1,153,85.7,151.9,86.3z"/>
	<path style="fill:#424242;" d="M185.9,76c-0.2-0.1-0.4-0.2-0.7-0.1c-2.6,0-4.6,0.1-6,0.4c-1,0.2-1.6,0.6-1.6,1.3
		c0,0.5,0.5,0.7,1.4,0.7h0.1c3.7-0.4,5.9-0.7,6.4-0.9c0.3-0.1,0.4-0.3,0.5-0.4c0.1-0.2,0.1-0.3,0.1-0.5
		C186.2,76.2,186.1,76.1,185.9,76z"/>
	<path style="fill:#424242;" d="M206.2,84.5L206.2,84.5c-0.3-1.5-1.3-1.5-3.1-0.1c-1.7,1.4-3.9,2.4-6.6,2.9
		c-2.6,0.5-4.8,0.6-6.7,0.3c-0.1,0-0.1,0-0.2-0.1c-0.7-0.3-1.1-0.8-1.2-1.5c-0.1-0.5,0-1.2,0.2-2.2c0.4-0.7,0.7-1.6,1-2.5
		c-0.1-0.7-0.4-1.1-1.2-1.2c-0.2,0-0.4,0-0.5,0.1c-0.4,0.3-0.8,1.1-1,2.2c-0.2,1.2-1.2,2.3-2.8,3.4c-1.7,1.1-5.3,1.8-10.8,2h0
		l-1.8,0c-3.5-0.3-5.3-1-5.3-2.3c0-0.5,0.4-1.3,1.3-2.1c2-1.7,4.6-2.5,7.5-2.5h0.8c0.7-0.2,1.1-0.5,1.1-1.1v-0.4
		c-0.2-0.7-0.6-1-1.1-1c-1.3,0-2.9,0.2-4.7,0.6c-1.2,0.3-2.3,0.8-3.4,1.3c-2.6,1.6-3.9,3.3-3.9,5c0,0.4,0.1,0.8,0.3,1.4
		c1.1,2,4,3,8.9,3c2.5,0,4.6-0.1,6.3-0.4c1.7-0.2,3.6-0.8,5.6-1.8c0.6-0.3,1.1-0.6,1.6-1.1c0,0.6,0.2,1.1,0.5,1.5
		c0.4,0.7,1,1.2,1.6,1.4c0.4,0.1,0.7,0.2,1,0.2c0.5,0.1,1.1,0.2,1.9,0.2c1.4,0,3.4-0.2,5.9-0.7c2.5-0.5,4.6-1.2,6.2-2.3
		C205.4,85.9,206.2,85.1,206.2,84.5z"/>
	<path style="fill:#424242;" d="M213.8,78.8L213.8,78.8c-0.7,0-1,0.4-1.2,1.1l0.1,0.4c1.4,2.4,2.1,4.1,2.1,5.2v0
		c0,0.6-0.2,1.2-0.7,1.7c-1.2,1.1-2.4,1.9-3.5,2.5c-1.1,0.6-2.4,1.1-3.8,1.6c-1,0.1-1.4,0.5-1.4,1.1v0.3c0,0.5,0.4,0.9,1.1,1
		c0.5,0,1.9-0.6,4.4-1.7c1.6-0.8,3-1.7,4.1-2.7c1.2-1,1.8-2.3,1.8-3.9c0-1.6-0.5-3.3-1.5-5C214.8,79.3,214.4,78.8,213.8,78.8z"/>
	<path style="fill:#424242;" d="M269.2,74.7h-0.5c-1.4,0-3.6,0.4-6.5,1.2c-2.7,0.6-4.1,1.4-4.1,2.6v0c0,0.5,0.2,1,0.6,1.5
		c0.5,0.6,1.2,1.1,1.9,1.6c2.4,1.6,3.6,2.9,3.6,3.7c0,0.9-1,1.9-3,3c-1.2,0.6-2.8,1.1-4.7,1.6c-3.6,0.7-7.3,1.1-10.9,1.1
		c-3.6,0-7-0.4-10.2-1.2c-2.5-0.6-4.1-1.2-5-1.8c-2.1-1.3-3.1-2.7-3.1-4.1v-0.2c0-1.1,0.8-2.4,2.3-3.9c1.2-1,2.4-1.8,3.5-2.4
		c4.6-2.4,9.4-3.6,14.4-3.6c1.1,0,2.1,0.1,3.1,0.3v0c-0.1,0.2-0.2,0.3-0.2,0.4v0.3c0.2,0.6,0.5,0.9,1.1,0.9h0.1l0.3,0
		c0.9-0.6,1.4-1.2,1.4-1.8v-0.1c0-0.3-0.1-0.5-0.2-0.7c-0.7-0.9-2.4-1.4-5.3-1.4c-5.8,0-11.3,1.5-16.5,4.4c-0.8,0.5-1.8,1.1-2.8,1.9
		c-2,1.9-3.1,3.8-3.1,5.7V84c0,2.5,1.7,4.5,5.2,6c4.7,1.9,10,2.8,15.8,2.8h0.7c3.3,0,6.7-0.3,10-1c2.1-0.5,3.6-0.9,4.5-1.3
		c3.2-1.3,4.9-3,4.9-5.1v-0.3c0-1.7-1.5-3.5-4.4-5.3c-0.8-0.5-1.2-0.8-1.2-1c0-0.1,0.3-0.3,0.8-0.6c3-1,5.3-1.4,7.1-1.4l0.7,0.1
		l0.2,0c0.6-0.2,0.9-0.5,0.9-1.1v0l0-0.3C270.4,75,269.9,74.7,269.2,74.7z"/>
	<path style="fill:#424242;" d="M275.5,73.6h-0.1c-0.7,0.2-1,0.6-1,1.1c0,1.3-0.1,3.2-0.3,5.7c0,1.2-0.3,4.2-0.9,9
		c0,0.6,0.4,1,1.2,1.1h0c0.5,0,0.8-0.3,1.1-0.9l0.4-4.9c0.6-5.9,0.8-9.2,0.8-9.9l0-0.2C276.4,74,276.1,73.6,275.5,73.6z"/>
	<path style="fill:#424242;" d="M304.9,81.9c-0.4-1.2-1.3-1.8-2.6-1.8c-1.6,0-3.5,0.8-5.6,2.5c-0.5,0.4-1.3,1.1-2.2,2
		c-1,1.1-1.7,2-2.1,2.6l-0.2-0.1c-0.2-0.1-0.4-0.3-0.5-0.5c0.2-0.5,0.5-1,0.7-1.6c0.2-0.6,0.2-1.2,0.1-1.7c-0.2-0.5-0.6-0.8-1.2-0.7
		c-0.6,0-1,0.4-1.2,1c-0.3,0.6-0.4,1.3-0.5,2c-0.1,0.7-0.2,1.2-0.2,1.4s-0.2,0.4-0.3,0.5c0,0-0.1,0.1-0.3,0.1c0,0-0.1,0-0.1,0
		c-0.5-0.1-0.8-0.6-0.9-1.6c-0.1-1,0.1-2.3,0.8-4c0.6-1.6,0.8-2.6,0.5-3c-0.3-0.4-0.6-0.5-1-0.4c-0.4,0.1-1,1-1.6,2.5
		c-0.6,1.6-1.4,3-2.5,4.3c-1,1.3-1.9,2.2-2.7,2.8c-0.7,0.6-1.8,1.2-3.1,1.8c-0.8,0.3-1.2,0.7-1.2,1.2v0.1l0,0.3
		c0.3,0.5,0.7,0.8,1.3,0.8h0.2c0.2,0,0.6-0.2,1.2-0.5c0.8-0.4,1.7-1,2.7-1.7c1.1-0.8,2.3-2.1,3.5-3.8h0c-0.1,1.1,0.1,2,0.5,2.6
		c0.4,0.5,1,0.8,1.8,0.8c0.1,0,0.2,0.1,0.4,0.1h0.3l0.5,0c0.7,0,1.2-0.3,1.6-0.8c0.2,0.1,0.4,0.2,0.4,0.2c-0.2,0.5-0.4,0.9-0.4,1.3
		l0.1,0.4c0.2,0.6,0.4,0.9,0.6,0.9c0.1,0,0.1,0,0.2-0.1l1.3-2.2c0.5,0.2,1,0.3,1.4,0.3c2.3,0,4.5-0.6,6.4-1.8
		c2.8-1.8,4.2-3.5,4.2-5.3C305,82.5,305,82.2,304.9,81.9z M302.8,82.9c0,0.1,0,0.3-0.1,0.4c-0.2,0.5-0.6,1.1-1.4,1.7
		c-1.9,1.8-4.1,2.8-6.6,2.8l-0.5,0v0c0.4-0.6,1.1-1.3,2.1-2.1c2.7-2.2,4.7-3.3,5.9-3.3h0.2c0.3,0,0.4,0.1,0.4,0.4V82.9z"/>
	<path style="fill:#424242;" d="M137.1,32.6c1.5,0,2.3-0.5,2.3-1.4v0l0,0c0-0.7-0.4-1.1-1.2-1.2H138l-0.5,0.1h0
		c0.1-0.5,0.6-1.2,1.4-2.2c2.2-2.4,4.1-3.7,5.7-3.7c0.7,0,1.1,0.3,1.3,0.9c0.1,2,0.3,3.1,0.6,3.4c0.3,0.5,0.8,0.8,1.6,0.8l0.8,0
		c0,0,0,0,0,0c0,0,0,0,0,0l0.1,0c0,0,0,0,0,0c0.7,0,1.3-0.1,1.7-0.4c0.5-0.3,0.9-0.7,1.4-1.4c0.2,1.2,1.1,1.8,2.7,1.8c0,0,0,0,0.1,0
		c0,0,0,0,0.1,0h0.1c0.4,0,0.7,0,1-0.1c0.5,0,2-0.5,4.5-1.6c1.3-0.6,2.8-1.4,4.6-2.5l0.5,0.1c0.5,0,0.9-0.2,1.4-0.6
		c0.7-0.7,1.1-1.4,1.1-2c0-0.2,0-0.3-0.1-0.4c-0.3-0.5-0.6-0.8-1-0.8h-0.3c-0.4,0-1,0.3-1.8,0.9c-0.2-0.2-0.6-0.7-1.4-1.7
		c-1.2-1.6-2.2-2.4-3.1-2.4h0c-0.6,0-1.5,0.6-2.7,1.9c-1.2,1.2-1.8,2.1-1.8,2.9l0.1,0.4c0.3,0.6,0.6,0.8,0.8,0.8
		c0.2,0,0.5-0.2,0.8-0.6c1.3-1.9,2.2-2.9,2.7-2.9c0.7,0,1.6,0.9,2.8,2.7c-1.7,1.1-3.6,2-5.6,2.8c-1,0.5-2,0.7-2.9,0.7
		c-0.7,0-1-0.2-1.1-0.6c-0.1-0.4-0.1-0.9,0.1-1.3c0.2-0.5,0.5-1.2,0.9-2.3c0.5-1.2,0.4-2-0.4-2.4c-0.4-0.1-0.8,0-1.2,0.4
		c-0.4,0.4-0.8,1.5-1.5,3.5c-0.6,1.9-1.5,2.8-2.6,2.9c-0.2,0-0.4-0.2-0.4-0.5c-0.1-1.3-0.2-2.2-0.3-2.5c-0.6-1.3-1.7-2-3.5-2
		c-1.7,0-3.6,0.9-5.8,2.6c-2.7,2.5-4,4.4-4,5.8v0.3l0,0.4C135.1,32,135.9,32.6,137.1,32.6z"/>
	<path style="fill:#424242;" d="M148.1,17.4h0.1c3.9-0.4,6.2-0.7,6.7-1c0.3-0.1,0.5-0.3,0.6-0.5c0.1-0.2,0.1-0.4,0.1-0.5
		c0-0.2-0.2-0.3-0.3-0.4c-0.2-0.1-0.4-0.2-0.7-0.2c-2.7,0-4.8,0.2-6.3,0.4c-1.1,0.2-1.6,0.7-1.6,1.3
		C146.7,17.2,147.1,17.4,148.1,17.4z"/>
	<path style="fill:#424242;" d="M159.9,15.6h0.3c0.9-0.2,1.3-0.5,1.3-1v-0.3c-0.5-1-1.1-1.4-1.9-1.4c-0.8,0.1-1.1,0.4-1.1,1
		C158.6,15,159.1,15.6,159.9,15.6z"/>
	<path style="fill:#424242;" d="M175.4,29.2c0.1,0,0.1,0,0.2,0c0.5,0.1,1.2,0.2,2.1,0.2c1.5,0,3.6-0.2,6.1-0.7
		c2.6-0.5,4.8-1.3,6.5-2.4s2.6-2,2.6-2.6v0c-0.3-1.5-1.4-1.6-3.2-0.1c-1.8,1.5-4.1,2.5-6.9,3c-2.6,0.5-4.9,0.6-6.9,0.4
		c-0.1,0-0.3-0.1-0.5-0.1c-1,0-1.6-0.7-1.8-2.1v-0.3c0-1.4,1.1-3.4,3.4-6c1.2-1.2,1.7-2,1.7-2.4v-0.2c-0.2-0.6-0.5-0.9-1-0.9h-0.4
		l-0.5,0.2c-3.7,3.9-5.5,7.1-5.5,9.6v0.2l0.1,1.3C172.2,28.2,173.5,29.2,175.4,29.2z"/>
</g>
</svg>
