<?xml version="1.0" encoding="utf-8"?>
<!-- Generator: Adobe Illustrator 23.0.1, SVG Export Plug-In . SVG Version: 6.00 Build 0)  -->
<svg version="1.1" id="Isolation_Mode" xmlns="http://www.w3.org/2000/svg" xmlns:xlink="http://www.w3.org/1999/xlink" x="0px"
	 y="0px" viewBox="0 0 1586 1585.2" style="enable-background:new 0 0 1586 1585.2;" xml:space="preserve">
<g>
	<g>
		<path style="fill:#3E387B;" d="M752,816c-2.1,0-4-0.4-6-1.2c-5.8-2.4-9.6-8.1-9.6-14.4V656.4h-25.1c-47,0-85.2-38.2-85.2-85.2
			V244.7c0-47,38.2-85.2,85.2-85.2h493.6c8.6,0,15.6,6.9,15.6,15.6s-6.9,15.6-15.6,15.6H711.3c-29.7,0-54,24.2-54,54v326.5
			c0,29.7,24.2,54,54,54H752c8.6,0,15.6,7,15.6,15.6v122.2l133.1-133.1c2.9-2.9,6.8-4.6,11-4.6h500.2c29.7,0,54-24.2,54-54V244.7
			c0-29.7-24.2-54-54-54h-135.8c-8.6,0-15.6-7-15.6-15.6c0-8.6,6.9-15.6,15.6-15.6h135.8c47,0,85.2,38.2,85.2,85.2v326.5
			c0,47-38.2,85.2-85.2,85.2H918.2L763.1,811.4C760.1,814.4,756.3,816,752,816z"/>
		<path style="fill:#9CCC65;" d="M844.5,553.7"/>
		<path style="fill:#9CCC65;" d="M797.7,510.8c-5.8,0-13.5-3.9-13.5-8v-27.1c0-20.4,23-37.2,45.2-53.6c22-16.1,42.7-31.3,42.7-50.9
			c0-12.6-8.3-25.3-26.6-25.3c-16.3,0-26.4,10.1-26.4,26.4c0,4.3-5.4,10.5-17.5,10.5c-8.4,0-14.1-2.9-14.1-17.2
			c0-31.2,29.7-48.1,57.6-48.1c15.4,0,30.4,5,41.3,13.7c12,9.6,18.4,23,18.4,38.7c0,33.9-30.2,54.5-54.4,71.1l-0.1,0.1
			c-17.1,11.7-31.8,21.8-31.8,34.6v8h78.6c3.1,0,7.7,5.5,7.7,13.2c0,8-4.6,13.8-7.7,13.8h-99.5V510.8z"/>
		<path style="fill:#9CCC65;" d="M1019.9,511.4c-10.6,0-16.3-4.1-16.3-8v-35.1h-70.8c-5.7,0-9.1-3.6-9.1-9.7c0-0.8,0.2-3.2,1.6-5.7
			l64.6-126.7c2.7-5.3,7.3-8.2,13.3-8.2c3,0,7.4,1.5,10.8,3.6c3.5,2.3,5.5,5,5.5,7.4c0,0.8-0.6,2.3-0.8,3l-53.3,107h38.3v-25
			c0-3.8,5.1-7.7,16.3-7.7c11.3,0,16.3,3.8,16.3,7.7v25.1h17.5c3.9,0,8,5.1,8,14.6c0,8-5.3,14.6-8,14.6h-17.5v35.1
			C1036.2,507.3,1030.5,511.4,1019.9,511.4z"/>
		<path style="fill:#95B9FC;" d="M1186.8,415.3"/>
		<path style="fill:#95B9FC;" d="M1101.1,522.6c-6.6,0-10.2-5.5-10.2-9.4c0-0.6,0.2-1.6,0.8-2.9l98-201.4c1.5-3.3,4.5-3.9,6.8-3.9
			c5.3,0,11,3.8,11,9.4c0,1.1-0.2,2.2-0.6,2.9l-98.3,201.4C1107.7,520.7,1104.7,522.6,1101.1,522.6z"/>
		<path style="fill:#95B9FC;" d="M182.2,450.4L442.9,711l-71.6,62.1c0,0,105.3,224,135.6,242.7c30.2,18.6,198.9,175.6,238.5,159.4
			c39.6-16.3,89.6-78,89.6-78l252.5,257.1c0,0-143.4,209.9-523.5,18.6c-212.3-106.7-366.7-294.6-424.4-472.7
			C84.4,730.3,57.6,618.6,182.2,450.4L182.2,450.4z"/>
		<polygon style="fill:#2874A6;" points="912.3,1025.7 1164.9,1279.3 1126.9,1314.8 1087.3,1354.4 844.2,1093.8 905.3,1030.4 		"/>
		<polygon style="fill:#2874A6;" points="268.3,380.5 521,634.1 482.9,669.6 443.3,709.2 200.2,448.6 261.3,385.2 		"/>
		<g>
			<g>
				<defs>
					<polygon id="SVGID_1_" points="71.2,1471.8 1315.8,1471.8 1514.8,279.3 71.2,279.3 					"/>
				</defs>
				<clipPath id="SVGID_2_">
					<use xlink:href="#SVGID_1_"  style="overflow:visible;"/>
				</clipPath>
				<path style="clip-path:url(#SVGID_2_);fill:#9CCC65;" d="M1261.6,490.4"/>
			</g>
			<g>
				<defs>
					<polygon id="SVGID_3_" points="70.7,1352.1 1315.3,1352.1 1514.3,159.5 70.7,159.5 					"/>
				</defs>
				<clipPath id="SVGID_4_">
					<use xlink:href="#SVGID_3_"  style="overflow:visible;"/>
				</clipPath>
				<path style="clip-path:url(#SVGID_4_);fill:#9CCC65;" d="M1288.7,511.2c-10.5,0-22.2-7.1-22.2-16.6c0-1.7,0.4-3,1.3-4.6
					l69.4-120.2v-26.5h-60.9v24.2c0,3.2-6.9,8-16.6,8c-9.8,0-16-4.7-16-8v-43.3c0-3,6.3-8,13.5-8h99.2c7.7,0,13.5,6.1,13.5,8v34.9
					c0,6.2-4.5,16.8-8.3,23.9l-65.4,125.2C1295.7,509.2,1294.6,511.2,1288.7,511.2z"/>
			</g>
			<g>
				<defs>
					<polygon id="SVGID_5_" points="71.2,1471.8 1315.8,1471.8 1514.8,279.3 71.2,279.3 					"/>
				</defs>
				<clipPath id="SVGID_6_">
					<use xlink:href="#SVGID_5_"  style="overflow:visible;"/>
				</clipPath>
				<path style="clip-path:url(#SVGID_6_);fill:#3E387B;" d="M852.8,1464.9c-31.5,0-64.6-3.4-98-9.9
					c-142.6-28.1-292.7-115-422.7-245C202,1080,115,929.9,87,787.3c-27.9-141.6,3.3-266.1,87.7-350.4l56.4-56.4
					c10-10,23.4-15.6,37.5-15.6c14.2,0,27.5,5.5,37.5,15.6l209.7,209.7c10,10,15.6,23.4,15.6,37.5c0,14.2-5.5,27.5-15.6,37.5
					L382.1,799.1l2,3.8c36.4,69.6,68.4,125.1,149.2,205.8c2.9,2.9,4.6,6.8,4.6,11s-1.6,8.1-4.6,11c-2.9,2.9-6.8,4.6-11,4.6
					s-8.1-1.6-11-4.6c-85.5-85.5-119.6-145.6-162-227.5c-3.1-6.1-2-13.3,2.8-18.2l74.5-74.5L186,470.2l-4.1,4.8
					c-65.3,76.1-88.2,184.9-64.3,306.3c26.8,136.6,110.8,281,236.4,406.6s270,209.6,406.6,236.4c31.4,6.2,62.3,9.3,91.9,9.3
					c84.3,0,158.4-25.4,214.5-73.7l4.8-4.1l-240.5-240.5l-74.5,74.5c-2.9,2.9-6.8,4.6-11,4.6c-2.4,0-5-0.6-7.1-1.8
					C678.5,1161.7,628,1134,570,1085.1c-6.6-5.5-7.4-15.4-1.9-22c3-3.5,7.3-5.5,11.9-5.5c3.7,0,7.2,1.3,10,3.7
					c48.7,41.1,91.5,66.5,149.1,96.5l3.8,2l133.8-133.7c10-10,23.4-15.6,37.5-15.6s27.5,5.5,37.5,15.6l209.7,209.7
					c10,10,15.6,23.4,15.6,37.5c0,14.2-5.5,27.5-15.6,37.5l-56.4,56.4C1041.2,1431.1,954,1464.8,852.8,1464.9L852.8,1464.9
					L852.8,1464.9z M914.2,1041.8c-5.9,0-11.4,2.3-15.6,6.5l-45.3,45.3l240.7,240.7l45.4-45.3c8.5-8.5,8.5-22.5,0-31.1l-209.8-209.8
					C925.6,1044,920,1041.8,914.2,1041.8z M268.6,396.1c-5.9,0-11.4,2.3-15.5,6.5l-45.3,45.3l240.7,240.7l45.3-45.3
					c4.1-4.1,6.5-9.7,6.5-15.5c0-5.9-2.3-11.4-6.5-15.5L284.1,402.5C280,398.4,274.4,396.1,268.6,396.1z"/>
			</g>
			<g>
				<defs>
					<polygon id="SVGID_7_" points="71.2,1471.8 1315.8,1471.8 1514.8,279.3 71.2,279.3 					"/>
				</defs>
				<clipPath id="SVGID_8_">
					<use xlink:href="#SVGID_7_"  style="overflow:visible;"/>
				</clipPath>
				<path style="clip-path:url(#SVGID_8_);stroke:#000000;stroke-width:5;stroke-miterlimit:10;" d="M238.1,1531.3
					c0,0,270,402.6,834.7,83.5"/>
			</g>
		</g>
	</g>
	<g>
		<path style="fill:#3E387B;stroke:#3E387B;stroke-width:20;stroke-linecap:round;stroke-linejoin:round;stroke-miterlimit:10;" d="
			M1181,1471.8c-273.8,0-775.8,0-775.8,0"/>
	</g>
	<g>
		
			<line style="fill:none;stroke:#3E387B;stroke-width:20;stroke-linecap:round;stroke-linejoin:round;stroke-miterlimit:10;" x1="961.2" y1="1471.8" x2="624.8" y2="1471.8"/>
	</g>
</g>
</svg>
